G04 PROTEUS GERBER X2 FILE*
%TF.GenerationSoftware,Labcenter,Proteus,8.16-SP3-Build36097*%
%TF.CreationDate,2025-11-07T09:35:32+00:00*%
%TF.FileFunction,Soldermask,Bot*%
%TF.FilePolarity,Negative*%
%TF.Part,Single*%
%TF.SameCoordinates,{b300ba1a-dc7e-4a19-be50-5429eaf46598}*%
%FSLAX45Y45*%
%MOMM*%
G01*
%TA.AperFunction,Material*%
%ADD31C,1.016000*%
%AMPPAD026*
4,1,4,
0.583360,0.583360,
0.583360,-0.583360,
-0.583360,-0.583360,
-0.583360,0.583360,
0.583360,0.583360,
0*%
%TA.AperFunction,Material*%
%ADD32PPAD026*%
%ADD33C,1.650000*%
%ADD34C,4.800000*%
%AMPPAD030*
4,1,36,
0.889000,-1.016000,
-0.889000,-1.016000,
-0.914590,-1.013420,
-0.938430,-1.006020,
-0.960000,-0.994310,
-0.978800,-0.978800,
-0.994310,-0.960000,
-1.006020,-0.938430,
-1.013420,-0.914590,
-1.016000,-0.889000,
-1.016000,0.889000,
-1.013420,0.914590,
-1.006020,0.938430,
-0.994310,0.960000,
-0.978800,0.978800,
-0.960000,0.994310,
-0.938430,1.006020,
-0.914590,1.013420,
-0.889000,1.016000,
0.889000,1.016000,
0.914590,1.013420,
0.938430,1.006020,
0.960000,0.994310,
0.978800,0.978800,
0.994310,0.960000,
1.006020,0.938430,
1.013420,0.914590,
1.016000,0.889000,
1.016000,-0.889000,
1.013420,-0.914590,
1.006020,-0.938430,
0.994310,-0.960000,
0.978800,-0.978800,
0.960000,-0.994310,
0.938430,-1.006020,
0.914590,-1.013420,
0.889000,-1.016000,
0*%
%TA.AperFunction,Material*%
%ADD36PPAD030*%
%ADD37C,2.032000*%
%AMPPAD037*
4,1,36,
-1.143000,-1.016000,
-1.143000,1.016000,
-1.140420,1.041590,
-1.133020,1.065430,
-1.121310,1.087000,
-1.105800,1.105800,
-1.087000,1.121310,
-1.065430,1.133020,
-1.041590,1.140420,
-1.016000,1.143000,
1.016000,1.143000,
1.041590,1.140420,
1.065430,1.133020,
1.087000,1.121310,
1.105800,1.105800,
1.121310,1.087000,
1.133020,1.065430,
1.140420,1.041590,
1.143000,1.016000,
1.143000,-1.016000,
1.140420,-1.041590,
1.133020,-1.065430,
1.121310,-1.087000,
1.105800,-1.105800,
1.087000,-1.121310,
1.065430,-1.133020,
1.041590,-1.140420,
1.016000,-1.143000,
-1.016000,-1.143000,
-1.041590,-1.140420,
-1.065430,-1.133020,
-1.087000,-1.121310,
-1.105800,-1.105800,
-1.121310,-1.087000,
-1.133020,-1.065430,
-1.140420,-1.041590,
-1.143000,-1.016000,
0*%
%TA.AperFunction,Material*%
%ADD43PPAD037*%
%TA.AperFunction,Material*%
%ADD44C,2.286000*%
%AMPPAD040*
4,1,36,
0.508000,0.762000,
-0.508000,0.762000,
-0.533590,0.759420,
-0.557430,0.752020,
-0.579000,0.740310,
-0.597800,0.724800,
-0.613310,0.706000,
-0.625020,0.684430,
-0.632420,0.660590,
-0.635000,0.635000,
-0.635000,-0.635000,
-0.632420,-0.660590,
-0.625020,-0.684430,
-0.613310,-0.706000,
-0.597800,-0.724800,
-0.579000,-0.740310,
-0.557430,-0.752020,
-0.533590,-0.759420,
-0.508000,-0.762000,
0.508000,-0.762000,
0.533590,-0.759420,
0.557430,-0.752020,
0.579000,-0.740310,
0.597800,-0.724800,
0.613310,-0.706000,
0.625020,-0.684430,
0.632420,-0.660590,
0.635000,-0.635000,
0.635000,0.635000,
0.632420,0.660590,
0.625020,0.684430,
0.613310,0.706000,
0.597800,0.724800,
0.579000,0.740310,
0.557430,0.752020,
0.533590,0.759420,
0.508000,0.762000,
0*%
%TA.AperFunction,Material*%
%ADD46PPAD040*%
%AMPPAD041*
4,1,36,
-0.762000,0.508000,
-0.762000,-0.508000,
-0.759420,-0.533590,
-0.752020,-0.557430,
-0.740310,-0.579000,
-0.724800,-0.597800,
-0.706000,-0.613310,
-0.684430,-0.625020,
-0.660590,-0.632420,
-0.635000,-0.635000,
0.635000,-0.635000,
0.660590,-0.632420,
0.684430,-0.625020,
0.706000,-0.613310,
0.724800,-0.597800,
0.740310,-0.579000,
0.752020,-0.557430,
0.759420,-0.533590,
0.762000,-0.508000,
0.762000,0.508000,
0.759420,0.533590,
0.752020,0.557430,
0.740310,0.579000,
0.724800,0.597800,
0.706000,0.613310,
0.684430,0.625020,
0.660590,0.632420,
0.635000,0.635000,
-0.635000,0.635000,
-0.660590,0.632420,
-0.684430,0.625020,
-0.706000,0.613310,
-0.724800,0.597800,
-0.740310,0.579000,
-0.752020,0.557430,
-0.759420,0.533590,
-0.762000,0.508000,
0*%
%ADD47PPAD041*%
%AMPPAD042*
4,1,4,
0.700000,0.600000,
-0.700000,0.600000,
-0.700000,-0.600000,
0.700000,-0.600000,
0.700000,0.600000,
0*%
%TA.AperFunction,Material*%
%ADD48PPAD042*%
%TA.AperFunction,Profile*%
%ADD25C,0.101600*%
%TD.AperFunction*%
D31*
X+3522473Y+3335782D03*
X+2683448Y+4172581D03*
X+5587308Y+2412163D03*
X+7463624Y+4199309D03*
X+5454113Y+1145913D03*
X+4389521Y+3157243D03*
X+4797295Y+1628178D03*
X+6135680Y+693587D03*
X+6913343Y+1171846D03*
X+6860269Y+1385121D03*
X+9415560Y+4388170D03*
X+9152516Y+4384780D03*
X+409403Y+1271224D03*
X+589942Y+1271224D03*
X+3220302Y+726250D03*
X+3225776Y+1714331D03*
X+3400948Y+1626745D03*
X+8170263Y+2666630D03*
X+6264322Y+2074988D03*
X+5017125Y+824990D03*
X+7050000Y+2278581D03*
X+8040000Y+2565062D03*
X+4642353Y+1575016D03*
X+4008396Y+3879587D03*
X+4776959Y+3438361D03*
X+4790488Y+3131784D03*
X+4945721Y+3019242D03*
X+4016572Y+3742426D03*
X+5032168Y+2534443D03*
X+5038561Y+2323487D03*
X+5362453Y+3016020D03*
X+5756011Y+1264435D03*
X+4395977Y+2935343D03*
X+5400942Y+1964401D03*
X+5135671Y+1998762D03*
X+5549844Y+3068502D03*
X+4800945Y+2772184D03*
X+4535656Y+2798995D03*
X+1645307Y+1386315D03*
X+1097600Y+1546573D03*
X+1399002Y+1522826D03*
X+2667000Y+1778000D03*
X+1778000Y+3175000D03*
X+8280262Y+1732984D03*
X+9378130Y+1245718D03*
X+5100345Y+1906461D03*
X+4721640Y+1908360D03*
X+1142496Y+1967631D03*
X+1632397Y+1964511D03*
X+7917680Y+4218487D03*
X+7723982Y+4326588D03*
X+7445714Y+4326588D03*
X+627112Y+2577281D03*
X+5079046Y+3082077D03*
X+5379500Y+2698521D03*
X+5136580Y+3486942D03*
X+3861883Y+2709188D03*
X+8814674Y+4214458D03*
X+9315177Y+3711750D03*
X+7917680Y+3763296D03*
X+5643942Y+3071392D03*
X+5559726Y+3199219D03*
X+2694864Y+2492250D03*
X+2199970Y+2739001D03*
X+1979706Y+2577288D03*
X+2317072Y+2429059D03*
X+3596000Y+2454000D03*
X+8446010Y+1936893D03*
X+7859467Y+1975985D03*
X+4334316Y+4232578D03*
X+1985944Y+3549709D03*
X+1984785Y+3292043D03*
X+2074538Y+2961419D03*
X+2904693Y+2665456D03*
X+3890290Y+935223D03*
X+4173000Y+944419D03*
X+4323949Y+1946071D03*
X+4294447Y+1373070D03*
X+4443991Y+1396399D03*
X+4694365Y+681876D03*
X+4705604Y+282894D03*
X+6205000Y+1775000D03*
X+9396376Y+1900894D03*
X+7758524Y+1066269D03*
X+7758524Y+1398926D03*
X+6684083Y+1843580D03*
X+6441408Y+1852881D03*
X+6344421Y+1949868D03*
X+8079138Y+694651D03*
X+7596350Y+1073774D03*
X+7586945Y+1403712D03*
X+9201515Y+1866180D03*
X+7160000Y+2210000D03*
X+3109312Y+3186552D03*
X+1475092Y+2389904D03*
X+4501962Y+1783870D03*
X+4224371Y+1041698D03*
X+4350312Y+912601D03*
X+2945409Y+1254433D03*
X+3694485Y+1525139D03*
X+4223210Y+1623828D03*
X+3152478Y+1585089D03*
X+4136517Y+2904475D03*
X+2867002Y+1202625D03*
X+3588847Y+1191790D03*
X+3800000Y+1248581D03*
X+3670328Y+1312881D03*
X+3863459Y+1558355D03*
X+4216520Y+1520000D03*
X+3824278Y+1688121D03*
X+4181932Y+1377530D03*
X+3576775Y+1097653D03*
X+3661969Y+2124076D03*
X+3227478Y+2483744D03*
X+4191000Y+2540000D03*
X+4935437Y+1393507D03*
X+5046712Y+1490493D03*
X+5728880Y+2000360D03*
X+5335402Y+1606882D03*
X+6027314Y+2250000D03*
X+5029418Y+1396512D03*
X+4940000Y+970000D03*
X+1619423Y+2171680D03*
X+3180518Y+2585604D03*
X+3940000Y+2380000D03*
X+2357075Y+352925D03*
X+4407678Y+597679D03*
X+4435870Y+1152037D03*
X+8706362Y+1068933D03*
X+5860466Y+364086D03*
X+6700000Y+670000D03*
X+7735708Y+591834D03*
X+8287761Y+1274589D03*
X+8459498Y+1191287D03*
X+7842501Y+697911D03*
X+6995451Y+381898D03*
X+4057153Y+3446562D03*
X+4755487Y+4162991D03*
X+5210912Y+4036665D03*
X+5952581Y+3699421D03*
D32*
X+769400Y+1648000D03*
D33*
X+769400Y+1877000D03*
X+769400Y+2106000D03*
X+769400Y+2335000D03*
X+769400Y+2564000D03*
X+515400Y+1534000D03*
X+515400Y+1762000D03*
X+515400Y+1992000D03*
X+515400Y+2220000D03*
X+515400Y+2450000D03*
X+261400Y+1648000D03*
X+261400Y+1877000D03*
X+261400Y+2106000D03*
X+261400Y+2335000D03*
X+261400Y+2564000D03*
D34*
X+515400Y+832000D03*
X+515400Y+3330000D03*
D36*
X+7408000Y+4823000D03*
D37*
X+7154000Y+4823000D03*
X+6900000Y+4823000D03*
X+6646000Y+4823000D03*
X+6392000Y+4823000D03*
X+6138000Y+4823000D03*
X+5884000Y+4823000D03*
X+5630000Y+4823000D03*
X+5376000Y+4823000D03*
X+5122000Y+4823000D03*
X+4868000Y+4823000D03*
X+4614000Y+4823000D03*
X+4360000Y+4823000D03*
X+4106000Y+4823000D03*
X+3852000Y+4823000D03*
X+3598000Y+4823000D03*
X+3344000Y+4823000D03*
X+3090000Y+4823000D03*
X+2836000Y+4823000D03*
X+2582000Y+4823000D03*
X+2582000Y+4569000D03*
X+2836000Y+4569000D03*
X+3090000Y+4569000D03*
X+3344000Y+4569000D03*
X+3598000Y+4569000D03*
X+3852000Y+4569000D03*
X+4106000Y+4569000D03*
X+4360000Y+4569000D03*
X+4614000Y+4569000D03*
X+4868000Y+4569000D03*
X+5122000Y+4569000D03*
X+5376000Y+4569000D03*
X+5630000Y+4569000D03*
X+5884000Y+4569000D03*
X+6138000Y+4569000D03*
X+6392000Y+4569000D03*
X+6646000Y+4569000D03*
X+6900000Y+4569000D03*
X+7154000Y+4569000D03*
X+7408000Y+4569000D03*
D43*
X+9773700Y+822500D03*
X+9773700Y+1076500D03*
X+9773700Y+1495600D03*
X+9773700Y+1749600D03*
D44*
X+8021100Y+4632500D03*
X+8364000Y+4632500D03*
X+8910100Y+4632500D03*
X+9278400Y+4619800D03*
D46*
X+1506000Y+3807000D03*
X+1292640Y+3807000D03*
X+1506000Y+3553000D03*
X+1292640Y+3553000D03*
X+1887000Y+3553000D03*
X+1673640Y+3553000D03*
X+1887000Y+3299000D03*
X+1673640Y+3299000D03*
X+1506000Y+3299000D03*
X+1292640Y+3299000D03*
X+1887000Y+3045000D03*
X+1673640Y+3045000D03*
X+1506000Y+3045000D03*
X+1292640Y+3045000D03*
X+1887000Y+2791000D03*
X+1673640Y+2791000D03*
X+1506000Y+2791000D03*
X+1292640Y+2791000D03*
X+1887000Y+2410000D03*
X+1673640Y+2410000D03*
X+1887000Y+2156000D03*
X+1673640Y+2156000D03*
X+2522000Y+2791000D03*
X+2308640Y+2791000D03*
X+2522000Y+2537000D03*
X+2308640Y+2537000D03*
X+2522000Y+2283000D03*
X+2308640Y+2283000D03*
X+2522000Y+2029000D03*
X+2308640Y+2029000D03*
X+2522000Y+1775000D03*
X+2308640Y+1775000D03*
X+3030000Y+1775000D03*
X+2816640Y+1775000D03*
X+3030000Y+2029000D03*
X+2816640Y+2029000D03*
X+3030000Y+2283000D03*
X+2816640Y+2283000D03*
X+3030000Y+2537000D03*
X+2816640Y+2537000D03*
X+1506000Y+1775000D03*
X+1292640Y+1775000D03*
X+1506000Y+1521000D03*
X+1292640Y+1521000D03*
X+1887000Y+1521000D03*
X+1673640Y+1521000D03*
X+1887000Y+1267000D03*
X+1673640Y+1267000D03*
X+1506000Y+1267000D03*
X+1292640Y+1267000D03*
X+1887000Y+1013000D03*
X+1673640Y+1013000D03*
X+1506000Y+1013000D03*
X+1292640Y+1013000D03*
X+1887000Y+759000D03*
X+1673640Y+759000D03*
X+1506000Y+759000D03*
X+1292640Y+759000D03*
D44*
X+2014000Y+1902000D03*
X+2776000Y+3172000D03*
X+3411000Y+3680000D03*
X+3284000Y+2918000D03*
D46*
X+4173000Y+4061000D03*
X+3959640Y+4061000D03*
X+4173000Y+3680000D03*
X+3959640Y+3680000D03*
X+4935000Y+3299000D03*
X+4721640Y+3299000D03*
X+4681000Y+2918000D03*
X+4467640Y+2918000D03*
X+4427000Y+2664000D03*
X+4213640Y+2664000D03*
X+4046000Y+2537000D03*
X+3832640Y+2537000D03*
D47*
X+4300000Y+2251000D03*
X+4300000Y+2037640D03*
D46*
X+4935000Y+2156000D03*
X+4721640Y+2156000D03*
X+4935000Y+1775000D03*
X+4721640Y+1775000D03*
X+5316000Y+2156000D03*
X+5102640Y+2156000D03*
X+5316000Y+1775000D03*
X+5102640Y+1775000D03*
X+5824000Y+2156000D03*
X+5610640Y+2156000D03*
D47*
X+5189000Y+2450640D03*
X+5189000Y+2664000D03*
D46*
X+5824000Y+2664000D03*
X+5610640Y+2664000D03*
X+5697000Y+2918000D03*
X+5483640Y+2918000D03*
X+5443000Y+3172000D03*
X+5229640Y+3172000D03*
X+6967000Y+1394000D03*
X+6753640Y+1394000D03*
X+6967000Y+1013000D03*
X+6753640Y+1013000D03*
D44*
X+998000Y+3807000D03*
D48*
X+4808000Y+2494000D03*
X+4588000Y+2494000D03*
X+4588000Y+2664000D03*
X+4808000Y+2664000D03*
D36*
X+7380000Y+457571D03*
D37*
X+7126000Y+457571D03*
X+6872000Y+457571D03*
X+6618000Y+457571D03*
X+6364000Y+457571D03*
X+6110000Y+457571D03*
X+5856000Y+457571D03*
X+5602000Y+457571D03*
X+5348000Y+457571D03*
X+5094000Y+457571D03*
X+4840000Y+457571D03*
X+4586000Y+457571D03*
X+4332000Y+457571D03*
X+4078000Y+457571D03*
X+3824000Y+457571D03*
X+3570000Y+457571D03*
X+3316000Y+457571D03*
X+3062000Y+457571D03*
X+2808000Y+457571D03*
X+2554000Y+457571D03*
X+2554000Y+203571D03*
X+2808000Y+203571D03*
X+3062000Y+203571D03*
X+3316000Y+203571D03*
X+3570000Y+203571D03*
X+3824000Y+203571D03*
X+4078000Y+203571D03*
X+4332000Y+203571D03*
X+4586000Y+203571D03*
X+4840000Y+203571D03*
X+5094000Y+203571D03*
X+5348000Y+203571D03*
X+5602000Y+203571D03*
X+5856000Y+203571D03*
X+6110000Y+203571D03*
X+6364000Y+203571D03*
X+6618000Y+203571D03*
X+6872000Y+203571D03*
X+7126000Y+203571D03*
X+7380000Y+203571D03*
D25*
X-18000Y-3000D02*
X+9982000Y-3000D01*
X+9982000Y+4997000D01*
X-18000Y+4997000D01*
X-18000Y-3000D01*
X+9832000Y+4697000D02*
X+9831498Y+4709258D01*
X+9827422Y+4733775D01*
X+9818906Y+4758292D01*
X+9805032Y+4782809D01*
X+9783806Y+4807161D01*
X+9759289Y+4825555D01*
X+9734772Y+4837411D01*
X+9710255Y+4844315D01*
X+9685738Y+4846953D01*
X+9682000Y+4847000D01*
X+9532000Y+4697000D02*
X+9532502Y+4709258D01*
X+9536578Y+4733775D01*
X+9545094Y+4758292D01*
X+9558968Y+4782809D01*
X+9580194Y+4807161D01*
X+9604711Y+4825555D01*
X+9629228Y+4837411D01*
X+9653745Y+4844315D01*
X+9678262Y+4846953D01*
X+9682000Y+4847000D01*
X+9532000Y+4697000D02*
X+9532502Y+4684742D01*
X+9536578Y+4660225D01*
X+9545094Y+4635708D01*
X+9558968Y+4611191D01*
X+9580194Y+4586839D01*
X+9604711Y+4568445D01*
X+9629228Y+4556589D01*
X+9653745Y+4549685D01*
X+9678262Y+4547047D01*
X+9682000Y+4547000D01*
X+9832000Y+4697000D02*
X+9831498Y+4684742D01*
X+9827422Y+4660225D01*
X+9818906Y+4635708D01*
X+9805032Y+4611191D01*
X+9783806Y+4586839D01*
X+9759289Y+4568445D01*
X+9734772Y+4556589D01*
X+9710255Y+4549685D01*
X+9685738Y+4547047D01*
X+9682000Y+4547000D01*
X+9832000Y+297000D02*
X+9831498Y+309258D01*
X+9827422Y+333775D01*
X+9818906Y+358292D01*
X+9805032Y+382809D01*
X+9783806Y+407161D01*
X+9759289Y+425555D01*
X+9734772Y+437411D01*
X+9710255Y+444315D01*
X+9685738Y+446953D01*
X+9682000Y+447000D01*
X+9532000Y+297000D02*
X+9532502Y+309258D01*
X+9536578Y+333775D01*
X+9545094Y+358292D01*
X+9558968Y+382809D01*
X+9580194Y+407161D01*
X+9604711Y+425555D01*
X+9629228Y+437411D01*
X+9653745Y+444315D01*
X+9678262Y+446953D01*
X+9682000Y+447000D01*
X+9532000Y+297000D02*
X+9532502Y+284742D01*
X+9536578Y+260225D01*
X+9545094Y+235708D01*
X+9558968Y+211191D01*
X+9580194Y+186839D01*
X+9604711Y+168445D01*
X+9629228Y+156589D01*
X+9653745Y+149685D01*
X+9678262Y+147047D01*
X+9682000Y+147000D01*
X+9832000Y+297000D02*
X+9831498Y+284742D01*
X+9827422Y+260225D01*
X+9818906Y+235708D01*
X+9805032Y+211191D01*
X+9783806Y+186839D01*
X+9759289Y+168445D01*
X+9734772Y+156589D01*
X+9710255Y+149685D01*
X+9685738Y+147047D01*
X+9682000Y+147000D01*
X+432000Y+297000D02*
X+431498Y+309258D01*
X+427422Y+333775D01*
X+418906Y+358292D01*
X+405032Y+382809D01*
X+383806Y+407161D01*
X+359289Y+425555D01*
X+334772Y+437411D01*
X+310255Y+444315D01*
X+285738Y+446953D01*
X+282000Y+447000D01*
X+132000Y+297000D02*
X+132502Y+309258D01*
X+136578Y+333775D01*
X+145094Y+358292D01*
X+158968Y+382809D01*
X+180194Y+407161D01*
X+204711Y+425555D01*
X+229228Y+437411D01*
X+253745Y+444315D01*
X+278262Y+446953D01*
X+282000Y+447000D01*
X+132000Y+297000D02*
X+132502Y+284742D01*
X+136578Y+260225D01*
X+145094Y+235708D01*
X+158968Y+211191D01*
X+180194Y+186839D01*
X+204711Y+168445D01*
X+229228Y+156589D01*
X+253745Y+149685D01*
X+278262Y+147047D01*
X+282000Y+147000D01*
X+432000Y+297000D02*
X+431498Y+284742D01*
X+427422Y+260225D01*
X+418906Y+235708D01*
X+405032Y+211191D01*
X+383806Y+186839D01*
X+359289Y+168445D01*
X+334772Y+156589D01*
X+310255Y+149685D01*
X+285738Y+147047D01*
X+282000Y+147000D01*
X+432000Y+4697000D02*
X+431498Y+4709258D01*
X+427422Y+4733775D01*
X+418906Y+4758292D01*
X+405032Y+4782809D01*
X+383806Y+4807161D01*
X+359289Y+4825555D01*
X+334772Y+4837411D01*
X+310255Y+4844315D01*
X+285738Y+4846953D01*
X+282000Y+4847000D01*
X+132000Y+4697000D02*
X+132502Y+4709258D01*
X+136578Y+4733775D01*
X+145094Y+4758292D01*
X+158968Y+4782809D01*
X+180194Y+4807161D01*
X+204711Y+4825555D01*
X+229228Y+4837411D01*
X+253745Y+4844315D01*
X+278262Y+4846953D01*
X+282000Y+4847000D01*
X+132000Y+4697000D02*
X+132502Y+4684742D01*
X+136578Y+4660225D01*
X+145094Y+4635708D01*
X+158968Y+4611191D01*
X+180194Y+4586839D01*
X+204711Y+4568445D01*
X+229228Y+4556589D01*
X+253745Y+4549685D01*
X+278262Y+4547047D01*
X+282000Y+4547000D01*
X+432000Y+4697000D02*
X+431498Y+4684742D01*
X+427422Y+4660225D01*
X+418906Y+4635708D01*
X+405032Y+4611191D01*
X+383806Y+4586839D01*
X+359289Y+4568445D01*
X+334772Y+4556589D01*
X+310255Y+4549685D01*
X+285738Y+4547047D01*
X+282000Y+4547000D01*
M02*
