G04 PROTEUS GERBER X2 FILE*
%TF.GenerationSoftware,Labcenter,Proteus,8.16-SP3-Build36097*%
%TF.CreationDate,2025-11-07T09:35:32+00:00*%
%TF.FileFunction,Paste,Top*%
%TF.FilePolarity,Positive*%
%TF.Part,Single*%
%TF.SameCoordinates,{b300ba1a-dc7e-4a19-be50-5429eaf46598}*%
%FSLAX45Y45*%
%MOMM*%
G01*
%TA.AperFunction,Material*%
%ADD49R,1.270000X1.016000*%
%ADD50R,0.889000X0.635000*%
%AMPPAD033*
4,1,4,
-0.629330,-0.417190,
0.417190,0.629330,
0.629330,0.417190,
-0.417190,-0.629330,
-0.629330,-0.417190,
0*%
%TA.AperFunction,Material*%
%ADD39PPAD033*%
%AMPPAD034*
4,1,4,
-0.629330,0.417190,
-0.417190,0.629330,
0.629330,-0.417190,
0.417190,-0.629330,
-0.629330,0.417190,
0*%
%ADD40PPAD034*%
%TA.AperFunction,Material*%
%ADD51R,1.016000X1.270000*%
%TA.AperFunction,Material*%
%ADD52R,2.032000X0.635000*%
%TA.AperFunction,Material*%
%ADD53R,0.635000X0.889000*%
%TA.AperFunction,Profile*%
%ADD25C,0.101600*%
%TD.AperFunction*%
D49*
X+952900Y+4462700D03*
X+952900Y+4676060D03*
X+1870000Y+4450000D03*
X+1870000Y+4663360D03*
X+1565200Y+4450000D03*
X+1565200Y+4663360D03*
X+1245000Y+4450000D03*
X+1245000Y+4663360D03*
D50*
X+950000Y+4115050D03*
X+950000Y+4350000D03*
X+1248000Y+4104000D03*
X+1248000Y+4338950D03*
X+1567800Y+4104000D03*
X+1567800Y+4338950D03*
X+1863000Y+4104000D03*
X+1863000Y+4338950D03*
D39*
X+3625429Y+2403906D03*
X+3660785Y+2368551D03*
X+3696140Y+2333195D03*
X+3731495Y+2297840D03*
X+3766851Y+2262485D03*
X+3802206Y+2227129D03*
X+3837561Y+2191774D03*
X+3872917Y+2156419D03*
X+3908272Y+2121063D03*
X+3943627Y+2085708D03*
X+3978983Y+2050352D03*
X+4014338Y+2014997D03*
X+4049693Y+1979642D03*
X+4085049Y+1944286D03*
X+4120404Y+1908931D03*
X+4155759Y+1873576D03*
X+4191115Y+1838220D03*
X+4226470Y+1802865D03*
X+4261825Y+1767510D03*
X+4297181Y+1732154D03*
X+4332536Y+1696799D03*
X+4367891Y+1661444D03*
X+4403247Y+1626088D03*
X+4438602Y+1590733D03*
X+4473957Y+1555378D03*
X+4509313Y+1520022D03*
X+4544668Y+1484667D03*
X+4580023Y+1449312D03*
X+4615379Y+1413956D03*
X+4650734Y+1378601D03*
X+4686089Y+1343246D03*
X+4721445Y+1307890D03*
X+4756800Y+1272535D03*
X+4792155Y+1237180D03*
X+4827511Y+1201824D03*
X+4862866Y+1166469D03*
D40*
X+5144295Y+1166469D03*
X+5179650Y+1201824D03*
X+5215005Y+1237180D03*
X+5250361Y+1272535D03*
X+5285716Y+1307890D03*
X+5321071Y+1343246D03*
X+5356427Y+1378601D03*
X+5391782Y+1413956D03*
X+5427137Y+1449312D03*
X+5462493Y+1484667D03*
X+5497848Y+1520022D03*
X+5533203Y+1555378D03*
X+5568559Y+1590733D03*
X+5603914Y+1626088D03*
X+5639269Y+1661444D03*
X+5674625Y+1696799D03*
X+5709980Y+1732154D03*
X+5745335Y+1767510D03*
X+5780691Y+1802865D03*
X+5816046Y+1838220D03*
X+5851401Y+1873576D03*
X+5886757Y+1908931D03*
X+5922112Y+1944286D03*
X+5957467Y+1979642D03*
X+5992823Y+2014997D03*
X+6028178Y+2050352D03*
X+6063533Y+2085708D03*
X+6098889Y+2121063D03*
X+6134244Y+2156419D03*
X+6169599Y+2191774D03*
X+6204955Y+2227129D03*
X+6240310Y+2262485D03*
X+6275665Y+2297840D03*
X+6311021Y+2333195D03*
X+6346376Y+2368551D03*
X+6381731Y+2403906D03*
D39*
X+6381731Y+2685334D03*
X+6346376Y+2720690D03*
X+6311021Y+2756045D03*
X+6275665Y+2791400D03*
X+6240310Y+2826756D03*
X+6204955Y+2862111D03*
X+6169599Y+2897466D03*
X+6134244Y+2932822D03*
X+6098889Y+2968177D03*
X+6063533Y+3003532D03*
X+6028178Y+3038888D03*
X+5992823Y+3074243D03*
X+5957467Y+3109598D03*
X+5922112Y+3144954D03*
X+5886757Y+3180309D03*
X+5851401Y+3215664D03*
X+5816046Y+3251020D03*
X+5780691Y+3286375D03*
X+5745335Y+3321730D03*
X+5709980Y+3357086D03*
X+5674625Y+3392441D03*
X+5639269Y+3427797D03*
X+5603914Y+3463152D03*
X+5568559Y+3498507D03*
X+5533203Y+3533863D03*
X+5497848Y+3569218D03*
X+5462493Y+3604573D03*
X+5427137Y+3639929D03*
X+5391782Y+3675284D03*
X+5356427Y+3710639D03*
X+5321071Y+3745995D03*
X+5285716Y+3781350D03*
X+5250361Y+3816705D03*
X+5215005Y+3852061D03*
X+5179650Y+3887416D03*
X+5144295Y+3922771D03*
D40*
X+4862866Y+3922771D03*
X+4827511Y+3887416D03*
X+4792155Y+3852061D03*
X+4756800Y+3816705D03*
X+4721445Y+3781350D03*
X+4686089Y+3745995D03*
X+4650734Y+3710639D03*
X+4615379Y+3675284D03*
X+4580023Y+3639929D03*
X+4544668Y+3604573D03*
X+4509313Y+3569218D03*
X+4473957Y+3533863D03*
X+4438602Y+3498507D03*
X+4403247Y+3463152D03*
X+4367891Y+3427797D03*
X+4332536Y+3392441D03*
X+4297181Y+3357086D03*
X+4261825Y+3321730D03*
X+4226470Y+3286375D03*
X+4191115Y+3251020D03*
X+4155759Y+3215664D03*
X+4120404Y+3180309D03*
X+4085049Y+3144954D03*
X+4049693Y+3109598D03*
X+4014338Y+3074243D03*
X+3978983Y+3038888D03*
X+3943627Y+3003532D03*
X+3908272Y+2968177D03*
X+3872917Y+2932822D03*
X+3837561Y+2897466D03*
X+3802206Y+2862111D03*
X+3766851Y+2826756D03*
X+3731495Y+2791400D03*
X+3696140Y+2756045D03*
X+3660785Y+2720690D03*
X+3625429Y+2685334D03*
D49*
X+3093500Y+736140D03*
X+3093500Y+949500D03*
X+3396300Y+966485D03*
X+3396300Y+753125D03*
D51*
X+4138100Y+784400D03*
X+4351460Y+784400D03*
X+5319900Y+726400D03*
X+5106540Y+726400D03*
D52*
X+8110000Y+2117900D03*
X+8110000Y+1990900D03*
X+8110000Y+1863900D03*
X+8110000Y+1736900D03*
X+9024400Y+1736900D03*
X+9024400Y+1863900D03*
X+9024400Y+1990900D03*
X+9024400Y+2117900D03*
D51*
X+7236640Y+2800000D03*
X+7450000Y+2800000D03*
D49*
X+8100000Y+1350000D03*
X+8100000Y+1563360D03*
X+8050000Y+2236640D03*
X+8050000Y+2450000D03*
X+9380000Y+784400D03*
X+9380000Y+997760D03*
X+9392700Y+1533700D03*
X+9392700Y+1747060D03*
D51*
X+8516400Y+4365800D03*
X+8729760Y+4365800D03*
X+9202200Y+4200700D03*
X+9415560Y+4200700D03*
X+9202200Y+3870500D03*
X+9415560Y+3870500D03*
X+9202200Y+3718100D03*
X+9415560Y+3718100D03*
D49*
X+8948200Y+3946700D03*
X+8948200Y+4160060D03*
D52*
X+8065550Y+4111800D03*
X+8065550Y+3984800D03*
X+8065550Y+3857800D03*
X+8065550Y+3730800D03*
X+8586250Y+3730800D03*
X+8586250Y+3857800D03*
X+8586250Y+3984800D03*
X+8586250Y+4111800D03*
D49*
X+7805200Y+3908600D03*
X+7805200Y+4121960D03*
D53*
X+7576600Y+4188000D03*
X+7341650Y+4188000D03*
D51*
X+7386100Y+4010200D03*
X+7599460Y+4010200D03*
X+7386100Y+3832400D03*
X+7599460Y+3832400D03*
X+8732300Y+2625900D03*
X+8945660Y+2625900D03*
X+9357800Y+2342700D03*
X+9144440Y+2342700D03*
X+7976640Y+2820000D03*
X+8190000Y+2820000D03*
D25*
X-18000Y-3000D02*
X+9982000Y-3000D01*
X+9982000Y+4997000D01*
X-18000Y+4997000D01*
X-18000Y-3000D01*
X+9832000Y+4697000D02*
X+9831498Y+4709258D01*
X+9827422Y+4733775D01*
X+9818906Y+4758292D01*
X+9805032Y+4782809D01*
X+9783806Y+4807161D01*
X+9759289Y+4825555D01*
X+9734772Y+4837411D01*
X+9710255Y+4844315D01*
X+9685738Y+4846953D01*
X+9682000Y+4847000D01*
X+9532000Y+4697000D02*
X+9532502Y+4709258D01*
X+9536578Y+4733775D01*
X+9545094Y+4758292D01*
X+9558968Y+4782809D01*
X+9580194Y+4807161D01*
X+9604711Y+4825555D01*
X+9629228Y+4837411D01*
X+9653745Y+4844315D01*
X+9678262Y+4846953D01*
X+9682000Y+4847000D01*
X+9532000Y+4697000D02*
X+9532502Y+4684742D01*
X+9536578Y+4660225D01*
X+9545094Y+4635708D01*
X+9558968Y+4611191D01*
X+9580194Y+4586839D01*
X+9604711Y+4568445D01*
X+9629228Y+4556589D01*
X+9653745Y+4549685D01*
X+9678262Y+4547047D01*
X+9682000Y+4547000D01*
X+9832000Y+4697000D02*
X+9831498Y+4684742D01*
X+9827422Y+4660225D01*
X+9818906Y+4635708D01*
X+9805032Y+4611191D01*
X+9783806Y+4586839D01*
X+9759289Y+4568445D01*
X+9734772Y+4556589D01*
X+9710255Y+4549685D01*
X+9685738Y+4547047D01*
X+9682000Y+4547000D01*
X+9832000Y+297000D02*
X+9831498Y+309258D01*
X+9827422Y+333775D01*
X+9818906Y+358292D01*
X+9805032Y+382809D01*
X+9783806Y+407161D01*
X+9759289Y+425555D01*
X+9734772Y+437411D01*
X+9710255Y+444315D01*
X+9685738Y+446953D01*
X+9682000Y+447000D01*
X+9532000Y+297000D02*
X+9532502Y+309258D01*
X+9536578Y+333775D01*
X+9545094Y+358292D01*
X+9558968Y+382809D01*
X+9580194Y+407161D01*
X+9604711Y+425555D01*
X+9629228Y+437411D01*
X+9653745Y+444315D01*
X+9678262Y+446953D01*
X+9682000Y+447000D01*
X+9532000Y+297000D02*
X+9532502Y+284742D01*
X+9536578Y+260225D01*
X+9545094Y+235708D01*
X+9558968Y+211191D01*
X+9580194Y+186839D01*
X+9604711Y+168445D01*
X+9629228Y+156589D01*
X+9653745Y+149685D01*
X+9678262Y+147047D01*
X+9682000Y+147000D01*
X+9832000Y+297000D02*
X+9831498Y+284742D01*
X+9827422Y+260225D01*
X+9818906Y+235708D01*
X+9805032Y+211191D01*
X+9783806Y+186839D01*
X+9759289Y+168445D01*
X+9734772Y+156589D01*
X+9710255Y+149685D01*
X+9685738Y+147047D01*
X+9682000Y+147000D01*
X+432000Y+297000D02*
X+431498Y+309258D01*
X+427422Y+333775D01*
X+418906Y+358292D01*
X+405032Y+382809D01*
X+383806Y+407161D01*
X+359289Y+425555D01*
X+334772Y+437411D01*
X+310255Y+444315D01*
X+285738Y+446953D01*
X+282000Y+447000D01*
X+132000Y+297000D02*
X+132502Y+309258D01*
X+136578Y+333775D01*
X+145094Y+358292D01*
X+158968Y+382809D01*
X+180194Y+407161D01*
X+204711Y+425555D01*
X+229228Y+437411D01*
X+253745Y+444315D01*
X+278262Y+446953D01*
X+282000Y+447000D01*
X+132000Y+297000D02*
X+132502Y+284742D01*
X+136578Y+260225D01*
X+145094Y+235708D01*
X+158968Y+211191D01*
X+180194Y+186839D01*
X+204711Y+168445D01*
X+229228Y+156589D01*
X+253745Y+149685D01*
X+278262Y+147047D01*
X+282000Y+147000D01*
X+432000Y+297000D02*
X+431498Y+284742D01*
X+427422Y+260225D01*
X+418906Y+235708D01*
X+405032Y+211191D01*
X+383806Y+186839D01*
X+359289Y+168445D01*
X+334772Y+156589D01*
X+310255Y+149685D01*
X+285738Y+147047D01*
X+282000Y+147000D01*
X+432000Y+4697000D02*
X+431498Y+4709258D01*
X+427422Y+4733775D01*
X+418906Y+4758292D01*
X+405032Y+4782809D01*
X+383806Y+4807161D01*
X+359289Y+4825555D01*
X+334772Y+4837411D01*
X+310255Y+4844315D01*
X+285738Y+4846953D01*
X+282000Y+4847000D01*
X+132000Y+4697000D02*
X+132502Y+4709258D01*
X+136578Y+4733775D01*
X+145094Y+4758292D01*
X+158968Y+4782809D01*
X+180194Y+4807161D01*
X+204711Y+4825555D01*
X+229228Y+4837411D01*
X+253745Y+4844315D01*
X+278262Y+4846953D01*
X+282000Y+4847000D01*
X+132000Y+4697000D02*
X+132502Y+4684742D01*
X+136578Y+4660225D01*
X+145094Y+4635708D01*
X+158968Y+4611191D01*
X+180194Y+4586839D01*
X+204711Y+4568445D01*
X+229228Y+4556589D01*
X+253745Y+4549685D01*
X+278262Y+4547047D01*
X+282000Y+4547000D01*
X+432000Y+4697000D02*
X+431498Y+4684742D01*
X+427422Y+4660225D01*
X+418906Y+4635708D01*
X+405032Y+4611191D01*
X+383806Y+4586839D01*
X+359289Y+4568445D01*
X+334772Y+4556589D01*
X+310255Y+4549685D01*
X+285738Y+4547047D01*
X+282000Y+4547000D01*
M02*
