G04 PROTEUS GERBER X2 FILE*
%TF.GenerationSoftware,Labcenter,Proteus,8.16-SP3-Build36097*%
%TF.CreationDate,2025-11-07T09:35:32+00:00*%
%TF.FileFunction,Legend,Bot*%
%TF.FilePolarity,Positive*%
%TF.Part,Single*%
%TF.SameCoordinates,{b300ba1a-dc7e-4a19-be50-5429eaf46598}*%
%FSLAX45Y45*%
%MOMM*%
G01*
%TA.AperFunction,Profile*%
%ADD25C,0.101600*%
%TA.AperFunction,Material*%
%ADD73C,0.101600*%
%ADD72C,0.100000*%
%TD.AperFunction*%
D25*
X-18000Y-3000D02*
X+9982000Y-3000D01*
X+9982000Y+4997000D01*
X-18000Y+4997000D01*
X-18000Y-3000D01*
X+9832000Y+4697000D02*
X+9831498Y+4709258D01*
X+9827422Y+4733775D01*
X+9818906Y+4758292D01*
X+9805032Y+4782809D01*
X+9783806Y+4807161D01*
X+9759289Y+4825555D01*
X+9734772Y+4837411D01*
X+9710255Y+4844315D01*
X+9685738Y+4846953D01*
X+9682000Y+4847000D01*
X+9532000Y+4697000D02*
X+9532502Y+4709258D01*
X+9536578Y+4733775D01*
X+9545094Y+4758292D01*
X+9558968Y+4782809D01*
X+9580194Y+4807161D01*
X+9604711Y+4825555D01*
X+9629228Y+4837411D01*
X+9653745Y+4844315D01*
X+9678262Y+4846953D01*
X+9682000Y+4847000D01*
X+9532000Y+4697000D02*
X+9532502Y+4684742D01*
X+9536578Y+4660225D01*
X+9545094Y+4635708D01*
X+9558968Y+4611191D01*
X+9580194Y+4586839D01*
X+9604711Y+4568445D01*
X+9629228Y+4556589D01*
X+9653745Y+4549685D01*
X+9678262Y+4547047D01*
X+9682000Y+4547000D01*
X+9832000Y+4697000D02*
X+9831498Y+4684742D01*
X+9827422Y+4660225D01*
X+9818906Y+4635708D01*
X+9805032Y+4611191D01*
X+9783806Y+4586839D01*
X+9759289Y+4568445D01*
X+9734772Y+4556589D01*
X+9710255Y+4549685D01*
X+9685738Y+4547047D01*
X+9682000Y+4547000D01*
X+9832000Y+297000D02*
X+9831498Y+309258D01*
X+9827422Y+333775D01*
X+9818906Y+358292D01*
X+9805032Y+382809D01*
X+9783806Y+407161D01*
X+9759289Y+425555D01*
X+9734772Y+437411D01*
X+9710255Y+444315D01*
X+9685738Y+446953D01*
X+9682000Y+447000D01*
X+9532000Y+297000D02*
X+9532502Y+309258D01*
X+9536578Y+333775D01*
X+9545094Y+358292D01*
X+9558968Y+382809D01*
X+9580194Y+407161D01*
X+9604711Y+425555D01*
X+9629228Y+437411D01*
X+9653745Y+444315D01*
X+9678262Y+446953D01*
X+9682000Y+447000D01*
X+9532000Y+297000D02*
X+9532502Y+284742D01*
X+9536578Y+260225D01*
X+9545094Y+235708D01*
X+9558968Y+211191D01*
X+9580194Y+186839D01*
X+9604711Y+168445D01*
X+9629228Y+156589D01*
X+9653745Y+149685D01*
X+9678262Y+147047D01*
X+9682000Y+147000D01*
X+9832000Y+297000D02*
X+9831498Y+284742D01*
X+9827422Y+260225D01*
X+9818906Y+235708D01*
X+9805032Y+211191D01*
X+9783806Y+186839D01*
X+9759289Y+168445D01*
X+9734772Y+156589D01*
X+9710255Y+149685D01*
X+9685738Y+147047D01*
X+9682000Y+147000D01*
X+432000Y+297000D02*
X+431498Y+309258D01*
X+427422Y+333775D01*
X+418906Y+358292D01*
X+405032Y+382809D01*
X+383806Y+407161D01*
X+359289Y+425555D01*
X+334772Y+437411D01*
X+310255Y+444315D01*
X+285738Y+446953D01*
X+282000Y+447000D01*
X+132000Y+297000D02*
X+132502Y+309258D01*
X+136578Y+333775D01*
X+145094Y+358292D01*
X+158968Y+382809D01*
X+180194Y+407161D01*
X+204711Y+425555D01*
X+229228Y+437411D01*
X+253745Y+444315D01*
X+278262Y+446953D01*
X+282000Y+447000D01*
X+132000Y+297000D02*
X+132502Y+284742D01*
X+136578Y+260225D01*
X+145094Y+235708D01*
X+158968Y+211191D01*
X+180194Y+186839D01*
X+204711Y+168445D01*
X+229228Y+156589D01*
X+253745Y+149685D01*
X+278262Y+147047D01*
X+282000Y+147000D01*
X+432000Y+297000D02*
X+431498Y+284742D01*
X+427422Y+260225D01*
X+418906Y+235708D01*
X+405032Y+211191D01*
X+383806Y+186839D01*
X+359289Y+168445D01*
X+334772Y+156589D01*
X+310255Y+149685D01*
X+285738Y+147047D01*
X+282000Y+147000D01*
X+432000Y+4697000D02*
X+431498Y+4709258D01*
X+427422Y+4733775D01*
X+418906Y+4758292D01*
X+405032Y+4782809D01*
X+383806Y+4807161D01*
X+359289Y+4825555D01*
X+334772Y+4837411D01*
X+310255Y+4844315D01*
X+285738Y+4846953D01*
X+282000Y+4847000D01*
X+132000Y+4697000D02*
X+132502Y+4709258D01*
X+136578Y+4733775D01*
X+145094Y+4758292D01*
X+158968Y+4782809D01*
X+180194Y+4807161D01*
X+204711Y+4825555D01*
X+229228Y+4837411D01*
X+253745Y+4844315D01*
X+278262Y+4846953D01*
X+282000Y+4847000D01*
X+132000Y+4697000D02*
X+132502Y+4684742D01*
X+136578Y+4660225D01*
X+145094Y+4635708D01*
X+158968Y+4611191D01*
X+180194Y+4586839D01*
X+204711Y+4568445D01*
X+229228Y+4556589D01*
X+253745Y+4549685D01*
X+278262Y+4547047D01*
X+282000Y+4547000D01*
X+432000Y+4697000D02*
X+431498Y+4684742D01*
X+427422Y+4660225D01*
X+418906Y+4635708D01*
X+405032Y+4611191D01*
X+383806Y+4586839D01*
X+359289Y+4568445D01*
X+334772Y+4556589D01*
X+310255Y+4549685D01*
X+285738Y+4547047D01*
X+282000Y+4547000D01*
D73*
X+1432340Y+3865420D02*
X+1363760Y+3865420D01*
X+1432340Y+3743500D02*
X+1361220Y+3743500D01*
X+1559340Y+3939080D02*
X+1559340Y+4015280D01*
X+1492665Y+4015280D01*
X+1479330Y+4002580D01*
X+1479330Y+3989880D01*
X+1492665Y+3977180D01*
X+1559340Y+3977180D01*
X+1492665Y+3977180D02*
X+1479330Y+3964480D01*
X+1479330Y+3939080D01*
X+1372650Y+3964480D02*
X+1452660Y+3964480D01*
X+1399320Y+4015280D01*
X+1399320Y+3939080D01*
X+1265970Y+3964480D02*
X+1345980Y+3964480D01*
X+1292640Y+4015280D01*
X+1292640Y+3939080D01*
X+1432340Y+3611420D02*
X+1363760Y+3611420D01*
X+1432340Y+3489500D02*
X+1361220Y+3489500D01*
X+1209340Y+3535080D02*
X+1209340Y+3611280D01*
X+1142665Y+3611280D01*
X+1129330Y+3598580D01*
X+1129330Y+3585880D01*
X+1142665Y+3573180D01*
X+1209340Y+3573180D01*
X+1142665Y+3573180D02*
X+1129330Y+3560480D01*
X+1129330Y+3535080D01*
X+1089325Y+3598580D02*
X+1075990Y+3611280D01*
X+1035985Y+3611280D01*
X+1022650Y+3598580D01*
X+1022650Y+3585880D01*
X+1035985Y+3573180D01*
X+1022650Y+3560480D01*
X+1022650Y+3547780D01*
X+1035985Y+3535080D01*
X+1075990Y+3535080D01*
X+1089325Y+3547780D01*
X+1062655Y+3573180D02*
X+1035985Y+3573180D01*
X+982645Y+3611280D02*
X+915970Y+3611280D01*
X+915970Y+3598580D01*
X+982645Y+3535080D01*
X+1813340Y+3611420D02*
X+1744760Y+3611420D01*
X+1813340Y+3489500D02*
X+1742220Y+3489500D01*
X+2290340Y+3635080D02*
X+2290340Y+3711280D01*
X+2223665Y+3711280D01*
X+2210330Y+3698580D01*
X+2210330Y+3685880D01*
X+2223665Y+3673180D01*
X+2290340Y+3673180D01*
X+2223665Y+3673180D02*
X+2210330Y+3660480D01*
X+2210330Y+3635080D01*
X+2170325Y+3698580D02*
X+2156990Y+3711280D01*
X+2116985Y+3711280D01*
X+2103650Y+3698580D01*
X+2103650Y+3685880D01*
X+2116985Y+3673180D01*
X+2103650Y+3660480D01*
X+2103650Y+3647780D01*
X+2116985Y+3635080D01*
X+2156990Y+3635080D01*
X+2170325Y+3647780D01*
X+2143655Y+3673180D02*
X+2116985Y+3673180D01*
X+1996970Y+3698580D02*
X+2010305Y+3711280D01*
X+2050310Y+3711280D01*
X+2063645Y+3698580D01*
X+2063645Y+3647780D01*
X+2050310Y+3635080D01*
X+2010305Y+3635080D01*
X+1996970Y+3647780D01*
X+1996970Y+3660480D01*
X+2010305Y+3673180D01*
X+2063645Y+3673180D01*
X+1813340Y+3357420D02*
X+1744760Y+3357420D01*
X+1813340Y+3235500D02*
X+1742220Y+3235500D01*
X+2340340Y+3360080D02*
X+2340340Y+3436280D01*
X+2273665Y+3436280D01*
X+2260330Y+3423580D01*
X+2260330Y+3410880D01*
X+2273665Y+3398180D01*
X+2340340Y+3398180D01*
X+2273665Y+3398180D02*
X+2260330Y+3385480D01*
X+2260330Y+3360080D01*
X+2220325Y+3423580D02*
X+2206990Y+3436280D01*
X+2166985Y+3436280D01*
X+2153650Y+3423580D01*
X+2153650Y+3410880D01*
X+2166985Y+3398180D01*
X+2153650Y+3385480D01*
X+2153650Y+3372780D01*
X+2166985Y+3360080D01*
X+2206990Y+3360080D01*
X+2220325Y+3372780D01*
X+2193655Y+3398180D02*
X+2166985Y+3398180D01*
X+2100310Y+3398180D02*
X+2113645Y+3410880D01*
X+2113645Y+3423580D01*
X+2100310Y+3436280D01*
X+2060305Y+3436280D01*
X+2046970Y+3423580D01*
X+2046970Y+3410880D01*
X+2060305Y+3398180D01*
X+2100310Y+3398180D01*
X+2113645Y+3385480D01*
X+2113645Y+3372780D01*
X+2100310Y+3360080D01*
X+2060305Y+3360080D01*
X+2046970Y+3372780D01*
X+2046970Y+3385480D01*
X+2060305Y+3398180D01*
X+1432340Y+3357420D02*
X+1363760Y+3357420D01*
X+1432340Y+3235500D02*
X+1361220Y+3235500D01*
X+1209340Y+3281080D02*
X+1209340Y+3357280D01*
X+1142665Y+3357280D01*
X+1129330Y+3344580D01*
X+1129330Y+3331880D01*
X+1142665Y+3319180D01*
X+1209340Y+3319180D01*
X+1142665Y+3319180D02*
X+1129330Y+3306480D01*
X+1129330Y+3281080D01*
X+1089325Y+3344580D02*
X+1075990Y+3357280D01*
X+1035985Y+3357280D01*
X+1022650Y+3344580D01*
X+1022650Y+3331880D01*
X+1035985Y+3319180D01*
X+1022650Y+3306480D01*
X+1022650Y+3293780D01*
X+1035985Y+3281080D01*
X+1075990Y+3281080D01*
X+1089325Y+3293780D01*
X+1062655Y+3319180D02*
X+1035985Y+3319180D01*
X+915970Y+3331880D02*
X+929305Y+3319180D01*
X+969310Y+3319180D01*
X+982645Y+3331880D01*
X+982645Y+3344580D01*
X+969310Y+3357280D01*
X+929305Y+3357280D01*
X+915970Y+3344580D01*
X+915970Y+3293780D01*
X+929305Y+3281080D01*
X+969310Y+3281080D01*
X+1813340Y+3103420D02*
X+1744760Y+3103420D01*
X+1813340Y+2981500D02*
X+1742220Y+2981500D01*
X+2290340Y+3083338D02*
X+2290340Y+3159538D01*
X+2223665Y+3159538D01*
X+2210330Y+3146838D01*
X+2210330Y+3134138D01*
X+2223665Y+3121438D01*
X+2290340Y+3121438D01*
X+2223665Y+3121438D02*
X+2210330Y+3108738D01*
X+2210330Y+3083338D01*
X+2103650Y+3108738D02*
X+2183660Y+3108738D01*
X+2130320Y+3159538D01*
X+2130320Y+3083338D01*
X+2076980Y+3096038D02*
X+2076980Y+3146838D01*
X+2063645Y+3159538D01*
X+2010305Y+3159538D01*
X+1996970Y+3146838D01*
X+1996970Y+3096038D01*
X+2010305Y+3083338D01*
X+2063645Y+3083338D01*
X+2076980Y+3096038D01*
X+2076980Y+3083338D02*
X+1996970Y+3159538D01*
X+1432340Y+3103420D02*
X+1363760Y+3103420D01*
X+1432340Y+2981500D02*
X+1361220Y+2981500D01*
X+1209340Y+3027080D02*
X+1209340Y+3103280D01*
X+1142665Y+3103280D01*
X+1129330Y+3090580D01*
X+1129330Y+3077880D01*
X+1142665Y+3065180D01*
X+1209340Y+3065180D01*
X+1142665Y+3065180D02*
X+1129330Y+3052480D01*
X+1129330Y+3027080D01*
X+1022650Y+3052480D02*
X+1102660Y+3052480D01*
X+1049320Y+3103280D01*
X+1049320Y+3027080D01*
X+969310Y+3077880D02*
X+942640Y+3103280D01*
X+942640Y+3027080D01*
X+1813340Y+2849420D02*
X+1744760Y+2849420D01*
X+1813340Y+2727500D02*
X+1742220Y+2727500D01*
X+2234447Y+2914714D02*
X+2180566Y+2968595D01*
X+2133420Y+2921449D01*
X+2132971Y+2903039D01*
X+2141951Y+2894059D01*
X+2160360Y+2894508D01*
X+2207507Y+2941654D01*
X+2160360Y+2894508D02*
X+2159911Y+2876098D01*
X+2177872Y+2858138D01*
X+2084477Y+2800664D02*
X+2141053Y+2857240D01*
X+2067415Y+2855444D01*
X+2121296Y+2801562D01*
X+2029249Y+2799318D02*
X+2010839Y+2798869D01*
X+1982552Y+2770581D01*
X+1982103Y+2752171D01*
X+1991083Y+2743191D01*
X+2009492Y+2743640D01*
X+2037780Y+2771928D01*
X+2056190Y+2772377D01*
X+2074150Y+2754416D01*
X+2027004Y+2707270D01*
X+1432340Y+2849420D02*
X+1363760Y+2849420D01*
X+1432340Y+2727500D02*
X+1361220Y+2727500D01*
X+1209340Y+2741109D02*
X+1209340Y+2817309D01*
X+1142665Y+2817309D01*
X+1129330Y+2804609D01*
X+1129330Y+2791909D01*
X+1142665Y+2779209D01*
X+1209340Y+2779209D01*
X+1142665Y+2779209D02*
X+1129330Y+2766509D01*
X+1129330Y+2741109D01*
X+1022650Y+2766509D02*
X+1102660Y+2766509D01*
X+1049320Y+2817309D01*
X+1049320Y+2741109D01*
X+982645Y+2804609D02*
X+969310Y+2817309D01*
X+929305Y+2817309D01*
X+915970Y+2804609D01*
X+915970Y+2791909D01*
X+929305Y+2779209D01*
X+915970Y+2766509D01*
X+915970Y+2753809D01*
X+929305Y+2741109D01*
X+969310Y+2741109D01*
X+982645Y+2753809D01*
X+955975Y+2779209D02*
X+929305Y+2779209D01*
X+1813340Y+2468420D02*
X+1744760Y+2468420D01*
X+1813340Y+2346500D02*
X+1742220Y+2346500D01*
X+1615383Y+2497357D02*
X+1615383Y+2573557D01*
X+1548708Y+2573557D01*
X+1535373Y+2560857D01*
X+1535373Y+2548157D01*
X+1548708Y+2535457D01*
X+1615383Y+2535457D01*
X+1548708Y+2535457D02*
X+1535373Y+2522757D01*
X+1535373Y+2497357D01*
X+1428693Y+2522757D02*
X+1508703Y+2522757D01*
X+1455363Y+2573557D01*
X+1455363Y+2497357D01*
X+1322013Y+2560857D02*
X+1335348Y+2573557D01*
X+1375353Y+2573557D01*
X+1388688Y+2560857D01*
X+1388688Y+2510057D01*
X+1375353Y+2497357D01*
X+1335348Y+2497357D01*
X+1322013Y+2510057D01*
X+1322013Y+2522757D01*
X+1335348Y+2535457D01*
X+1388688Y+2535457D01*
X+1813340Y+2214420D02*
X+1744760Y+2214420D01*
X+1813340Y+2092500D02*
X+1742220Y+2092500D01*
X+1529323Y+2123186D02*
X+1529323Y+2199386D01*
X+1462648Y+2199386D01*
X+1449313Y+2186686D01*
X+1449313Y+2173986D01*
X+1462648Y+2161286D01*
X+1529323Y+2161286D01*
X+1462648Y+2161286D02*
X+1449313Y+2148586D01*
X+1449313Y+2123186D01*
X+1342633Y+2148586D02*
X+1422643Y+2148586D01*
X+1369303Y+2199386D01*
X+1369303Y+2123186D01*
X+1235953Y+2199386D02*
X+1302628Y+2199386D01*
X+1302628Y+2173986D01*
X+1249288Y+2173986D01*
X+1235953Y+2161286D01*
X+1235953Y+2135886D01*
X+1249288Y+2123186D01*
X+1289293Y+2123186D01*
X+1302628Y+2135886D01*
X+2448340Y+2849420D02*
X+2379760Y+2849420D01*
X+2448340Y+2727500D02*
X+2377220Y+2727500D01*
X+2575340Y+2923080D02*
X+2575340Y+2999280D01*
X+2508665Y+2999280D01*
X+2495330Y+2986580D01*
X+2495330Y+2973880D01*
X+2508665Y+2961180D01*
X+2575340Y+2961180D01*
X+2508665Y+2961180D02*
X+2495330Y+2948480D01*
X+2495330Y+2923080D01*
X+2455325Y+2986580D02*
X+2441990Y+2999280D01*
X+2401985Y+2999280D01*
X+2388650Y+2986580D01*
X+2388650Y+2973880D01*
X+2401985Y+2961180D01*
X+2388650Y+2948480D01*
X+2388650Y+2935780D01*
X+2401985Y+2923080D01*
X+2441990Y+2923080D01*
X+2455325Y+2935780D01*
X+2428655Y+2961180D02*
X+2401985Y+2961180D01*
X+2281970Y+2999280D02*
X+2348645Y+2999280D01*
X+2348645Y+2973880D01*
X+2295305Y+2973880D01*
X+2281970Y+2961180D01*
X+2281970Y+2935780D01*
X+2295305Y+2923080D01*
X+2335310Y+2923080D01*
X+2348645Y+2935780D01*
X+2448340Y+2595420D02*
X+2379760Y+2595420D01*
X+2448340Y+2473500D02*
X+2377220Y+2473500D01*
X+2855412Y+2795620D02*
X+2801531Y+2849501D01*
X+2754385Y+2802355D01*
X+2753936Y+2783945D01*
X+2762916Y+2774965D01*
X+2781325Y+2775414D01*
X+2828472Y+2822560D01*
X+2781325Y+2775414D02*
X+2780876Y+2757004D01*
X+2798837Y+2739044D01*
X+2725648Y+2755658D02*
X+2707238Y+2755209D01*
X+2678951Y+2726921D01*
X+2678502Y+2708511D01*
X+2687482Y+2699531D01*
X+2705891Y+2699980D01*
X+2734179Y+2728268D01*
X+2752589Y+2728717D01*
X+2770549Y+2710756D01*
X+2723403Y+2663610D01*
X+2658745Y+2652834D02*
X+2659194Y+2671243D01*
X+2650214Y+2680224D01*
X+2631804Y+2679775D01*
X+2603517Y+2651487D01*
X+2603068Y+2633077D01*
X+2612048Y+2624097D01*
X+2630457Y+2624546D01*
X+2658745Y+2652834D01*
X+2677155Y+2653283D01*
X+2686135Y+2644302D01*
X+2685686Y+2625893D01*
X+2657398Y+2597605D01*
X+2638989Y+2597156D01*
X+2630008Y+2606136D01*
X+2630457Y+2624546D01*
X+2448340Y+2341420D02*
X+2379760Y+2341420D01*
X+2448340Y+2219500D02*
X+2377220Y+2219500D01*
X+2219231Y+2455700D02*
X+2143031Y+2455700D01*
X+2143031Y+2389025D01*
X+2155731Y+2375690D01*
X+2168431Y+2375690D01*
X+2181131Y+2389025D01*
X+2181131Y+2455700D01*
X+2181131Y+2389025D02*
X+2193831Y+2375690D01*
X+2219231Y+2375690D01*
X+2155731Y+2335685D02*
X+2143031Y+2322350D01*
X+2143031Y+2282345D01*
X+2155731Y+2269010D01*
X+2168431Y+2269010D01*
X+2181131Y+2282345D01*
X+2193831Y+2269010D01*
X+2206531Y+2269010D01*
X+2219231Y+2282345D01*
X+2219231Y+2322350D01*
X+2206531Y+2335685D01*
X+2181131Y+2309015D02*
X+2181131Y+2282345D01*
X+2206531Y+2242340D02*
X+2155731Y+2242340D01*
X+2143031Y+2229005D01*
X+2143031Y+2175665D01*
X+2155731Y+2162330D01*
X+2206531Y+2162330D01*
X+2219231Y+2175665D01*
X+2219231Y+2229005D01*
X+2206531Y+2242340D01*
X+2219231Y+2242340D02*
X+2143031Y+2162330D01*
X+2448340Y+2087420D02*
X+2379760Y+2087420D01*
X+2448340Y+1965500D02*
X+2377220Y+1965500D01*
X+2658920Y+2203700D02*
X+2582720Y+2203700D01*
X+2582720Y+2137025D01*
X+2595420Y+2123690D01*
X+2608120Y+2123690D01*
X+2620820Y+2137025D01*
X+2620820Y+2203700D01*
X+2620820Y+2137025D02*
X+2633520Y+2123690D01*
X+2658920Y+2123690D01*
X+2595420Y+2083685D02*
X+2582720Y+2070350D01*
X+2582720Y+2030345D01*
X+2595420Y+2017010D01*
X+2608120Y+2017010D01*
X+2620820Y+2030345D01*
X+2633520Y+2017010D01*
X+2646220Y+2017010D01*
X+2658920Y+2030345D01*
X+2658920Y+2070350D01*
X+2646220Y+2083685D01*
X+2620820Y+2057015D02*
X+2620820Y+2030345D01*
X+2595420Y+1977005D02*
X+2582720Y+1963670D01*
X+2582720Y+1923665D01*
X+2595420Y+1910330D01*
X+2608120Y+1910330D01*
X+2620820Y+1923665D01*
X+2620820Y+1963670D01*
X+2633520Y+1977005D01*
X+2658920Y+1977005D01*
X+2658920Y+1910330D01*
X+2448340Y+1833420D02*
X+2379760Y+1833420D01*
X+2448340Y+1711500D02*
X+2377220Y+1711500D01*
X+2578840Y+1603580D02*
X+2578840Y+1679780D01*
X+2512165Y+1679780D01*
X+2498830Y+1667080D01*
X+2498830Y+1654380D01*
X+2512165Y+1641680D01*
X+2578840Y+1641680D01*
X+2512165Y+1641680D02*
X+2498830Y+1628980D01*
X+2498830Y+1603580D01*
X+2458825Y+1667080D02*
X+2445490Y+1679780D01*
X+2405485Y+1679780D01*
X+2392150Y+1667080D01*
X+2392150Y+1654380D01*
X+2405485Y+1641680D01*
X+2392150Y+1628980D01*
X+2392150Y+1616280D01*
X+2405485Y+1603580D01*
X+2445490Y+1603580D01*
X+2458825Y+1616280D01*
X+2432155Y+1641680D02*
X+2405485Y+1641680D01*
X+2285470Y+1628980D02*
X+2365480Y+1628980D01*
X+2312140Y+1679780D01*
X+2312140Y+1603580D01*
X+2956340Y+1833420D02*
X+2887760Y+1833420D01*
X+2956340Y+1711500D02*
X+2885220Y+1711500D01*
X+3081475Y+1608945D02*
X+3081475Y+1685145D01*
X+3014800Y+1685145D01*
X+3001465Y+1672445D01*
X+3001465Y+1659745D01*
X+3014800Y+1647045D01*
X+3081475Y+1647045D01*
X+3014800Y+1647045D02*
X+3001465Y+1634345D01*
X+3001465Y+1608945D01*
X+2961460Y+1672445D02*
X+2948125Y+1685145D01*
X+2908120Y+1685145D01*
X+2894785Y+1672445D01*
X+2894785Y+1659745D01*
X+2908120Y+1647045D01*
X+2894785Y+1634345D01*
X+2894785Y+1621645D01*
X+2908120Y+1608945D01*
X+2948125Y+1608945D01*
X+2961460Y+1621645D01*
X+2934790Y+1647045D02*
X+2908120Y+1647045D01*
X+2854780Y+1672445D02*
X+2841445Y+1685145D01*
X+2801440Y+1685145D01*
X+2788105Y+1672445D01*
X+2788105Y+1659745D01*
X+2801440Y+1647045D01*
X+2788105Y+1634345D01*
X+2788105Y+1621645D01*
X+2801440Y+1608945D01*
X+2841445Y+1608945D01*
X+2854780Y+1621645D01*
X+2828110Y+1647045D02*
X+2801440Y+1647045D01*
X+2956340Y+2087420D02*
X+2887760Y+2087420D01*
X+2956340Y+1965500D02*
X+2885220Y+1965500D01*
X+3423964Y+1990080D02*
X+3423964Y+2066280D01*
X+3357289Y+2066280D01*
X+3343954Y+2053580D01*
X+3343954Y+2040880D01*
X+3357289Y+2028180D01*
X+3423964Y+2028180D01*
X+3357289Y+2028180D02*
X+3343954Y+2015480D01*
X+3343954Y+1990080D01*
X+3303949Y+2053580D02*
X+3290614Y+2066280D01*
X+3250609Y+2066280D01*
X+3237274Y+2053580D01*
X+3237274Y+2040880D01*
X+3250609Y+2028180D01*
X+3237274Y+2015480D01*
X+3237274Y+2002780D01*
X+3250609Y+1990080D01*
X+3290614Y+1990080D01*
X+3303949Y+2002780D01*
X+3277279Y+2028180D02*
X+3250609Y+2028180D01*
X+3183934Y+2040880D02*
X+3157264Y+2066280D01*
X+3157264Y+1990080D01*
X+2956340Y+2341420D02*
X+2887760Y+2341420D01*
X+2956340Y+2219500D02*
X+2885220Y+2219500D01*
X+3403669Y+2241109D02*
X+3403669Y+2317309D01*
X+3336994Y+2317309D01*
X+3323659Y+2304609D01*
X+3323659Y+2291909D01*
X+3336994Y+2279209D01*
X+3403669Y+2279209D01*
X+3336994Y+2279209D02*
X+3323659Y+2266509D01*
X+3323659Y+2241109D01*
X+3283654Y+2304609D02*
X+3270319Y+2317309D01*
X+3230314Y+2317309D01*
X+3216979Y+2304609D01*
X+3216979Y+2291909D01*
X+3230314Y+2279209D01*
X+3270319Y+2279209D01*
X+3283654Y+2266509D01*
X+3283654Y+2241109D01*
X+3216979Y+2241109D01*
X+3110299Y+2291909D02*
X+3123634Y+2279209D01*
X+3163639Y+2279209D01*
X+3176974Y+2291909D01*
X+3176974Y+2304609D01*
X+3163639Y+2317309D01*
X+3123634Y+2317309D01*
X+3110299Y+2304609D01*
X+3110299Y+2253809D01*
X+3123634Y+2241109D01*
X+3163639Y+2241109D01*
X+2956340Y+2595420D02*
X+2887760Y+2595420D01*
X+2956340Y+2473500D02*
X+2885220Y+2473500D01*
X+3073649Y+2940896D02*
X+2997449Y+2940896D01*
X+2997449Y+2874221D01*
X+3010149Y+2860886D01*
X+3022849Y+2860886D01*
X+3035549Y+2874221D01*
X+3035549Y+2940896D01*
X+3035549Y+2874221D02*
X+3048249Y+2860886D01*
X+3073649Y+2860886D01*
X+3010149Y+2820881D02*
X+2997449Y+2807546D01*
X+2997449Y+2767541D01*
X+3010149Y+2754206D01*
X+3022849Y+2754206D01*
X+3035549Y+2767541D01*
X+3035549Y+2807546D01*
X+3048249Y+2820881D01*
X+3073649Y+2820881D01*
X+3073649Y+2754206D01*
X+2997449Y+2714201D02*
X+2997449Y+2647526D01*
X+3010149Y+2647526D01*
X+3073649Y+2714201D01*
X+1432340Y+1833420D02*
X+1363760Y+1833420D01*
X+1432340Y+1711500D02*
X+1361220Y+1711500D01*
X+1559340Y+1907080D02*
X+1559340Y+1983280D01*
X+1492665Y+1983280D01*
X+1479330Y+1970580D01*
X+1479330Y+1957880D01*
X+1492665Y+1945180D01*
X+1559340Y+1945180D01*
X+1492665Y+1945180D02*
X+1479330Y+1932480D01*
X+1479330Y+1907080D01*
X+1439325Y+1970580D02*
X+1425990Y+1983280D01*
X+1385985Y+1983280D01*
X+1372650Y+1970580D01*
X+1372650Y+1957880D01*
X+1385985Y+1945180D01*
X+1425990Y+1945180D01*
X+1439325Y+1932480D01*
X+1439325Y+1907080D01*
X+1372650Y+1907080D01*
X+1265970Y+1970580D02*
X+1279305Y+1983280D01*
X+1319310Y+1983280D01*
X+1332645Y+1970580D01*
X+1332645Y+1919780D01*
X+1319310Y+1907080D01*
X+1279305Y+1907080D01*
X+1265970Y+1919780D01*
X+1265970Y+1932480D01*
X+1279305Y+1945180D01*
X+1332645Y+1945180D01*
X+1432340Y+1579420D02*
X+1363760Y+1579420D01*
X+1432340Y+1457500D02*
X+1361220Y+1457500D01*
X+1209340Y+1403080D02*
X+1209340Y+1479280D01*
X+1142665Y+1479280D01*
X+1129330Y+1466580D01*
X+1129330Y+1453880D01*
X+1142665Y+1441180D01*
X+1209340Y+1441180D01*
X+1142665Y+1441180D02*
X+1129330Y+1428480D01*
X+1129330Y+1403080D01*
X+1075990Y+1453880D02*
X+1049320Y+1479280D01*
X+1049320Y+1403080D01*
X+915970Y+1453880D02*
X+929305Y+1441180D01*
X+969310Y+1441180D01*
X+982645Y+1453880D01*
X+982645Y+1466580D01*
X+969310Y+1479280D01*
X+929305Y+1479280D01*
X+915970Y+1466580D01*
X+915970Y+1415780D01*
X+929305Y+1403080D01*
X+969310Y+1403080D01*
X+1813340Y+1579420D02*
X+1744760Y+1579420D01*
X+1813340Y+1457500D02*
X+1742220Y+1457500D01*
X+2387680Y+1459080D02*
X+2387680Y+1535280D01*
X+2321005Y+1535280D01*
X+2307670Y+1522580D01*
X+2307670Y+1509880D01*
X+2321005Y+1497180D01*
X+2387680Y+1497180D01*
X+2321005Y+1497180D02*
X+2307670Y+1484480D01*
X+2307670Y+1459080D01*
X+2254330Y+1509880D02*
X+2227660Y+1535280D01*
X+2227660Y+1459080D01*
X+2147650Y+1497180D02*
X+2160985Y+1509880D01*
X+2160985Y+1522580D01*
X+2147650Y+1535280D01*
X+2107645Y+1535280D01*
X+2094310Y+1522580D01*
X+2094310Y+1509880D01*
X+2107645Y+1497180D01*
X+2147650Y+1497180D01*
X+2160985Y+1484480D01*
X+2160985Y+1471780D01*
X+2147650Y+1459080D01*
X+2107645Y+1459080D01*
X+2094310Y+1471780D01*
X+2094310Y+1484480D01*
X+2107645Y+1497180D01*
X+2067640Y+1459080D02*
X+2067640Y+1535280D01*
X+2000965Y+1535280D01*
X+1987630Y+1522580D01*
X+1987630Y+1509880D01*
X+2000965Y+1497180D01*
X+1987630Y+1484480D01*
X+1987630Y+1471780D01*
X+2000965Y+1459080D01*
X+2067640Y+1459080D01*
X+2067640Y+1497180D02*
X+2000965Y+1497180D01*
X+1813340Y+1325420D02*
X+1744760Y+1325420D01*
X+1813340Y+1203500D02*
X+1742220Y+1203500D01*
X+2290340Y+1249080D02*
X+2290340Y+1325280D01*
X+2223665Y+1325280D01*
X+2210330Y+1312580D01*
X+2210330Y+1299880D01*
X+2223665Y+1287180D01*
X+2290340Y+1287180D01*
X+2223665Y+1287180D02*
X+2210330Y+1274480D01*
X+2210330Y+1249080D01*
X+2170325Y+1312580D02*
X+2156990Y+1325280D01*
X+2116985Y+1325280D01*
X+2103650Y+1312580D01*
X+2103650Y+1299880D01*
X+2116985Y+1287180D01*
X+2156990Y+1287180D01*
X+2170325Y+1274480D01*
X+2170325Y+1249080D01*
X+2103650Y+1249080D01*
X+2076980Y+1261780D02*
X+2076980Y+1312580D01*
X+2063645Y+1325280D01*
X+2010305Y+1325280D01*
X+1996970Y+1312580D01*
X+1996970Y+1261780D01*
X+2010305Y+1249080D01*
X+2063645Y+1249080D01*
X+2076980Y+1261780D01*
X+2076980Y+1249080D02*
X+1996970Y+1325280D01*
X+1432340Y+1325420D02*
X+1363760Y+1325420D01*
X+1432340Y+1203500D02*
X+1361220Y+1203500D01*
X+1209340Y+1199080D02*
X+1209340Y+1275280D01*
X+1142665Y+1275280D01*
X+1129330Y+1262580D01*
X+1129330Y+1249880D01*
X+1142665Y+1237180D01*
X+1209340Y+1237180D01*
X+1142665Y+1237180D02*
X+1129330Y+1224480D01*
X+1129330Y+1199080D01*
X+1089325Y+1262580D02*
X+1075990Y+1275280D01*
X+1035985Y+1275280D01*
X+1022650Y+1262580D01*
X+1022650Y+1249880D01*
X+1035985Y+1237180D01*
X+1075990Y+1237180D01*
X+1089325Y+1224480D01*
X+1089325Y+1199080D01*
X+1022650Y+1199080D01*
X+969310Y+1249880D02*
X+942640Y+1275280D01*
X+942640Y+1199080D01*
X+1813340Y+1071420D02*
X+1744760Y+1071420D01*
X+1813340Y+949500D02*
X+1742220Y+949500D01*
X+2290340Y+995080D02*
X+2290340Y+1071280D01*
X+2223665Y+1071280D01*
X+2210330Y+1058580D01*
X+2210330Y+1045880D01*
X+2223665Y+1033180D01*
X+2290340Y+1033180D01*
X+2223665Y+1033180D02*
X+2210330Y+1020480D01*
X+2210330Y+995080D01*
X+2170325Y+1058580D02*
X+2156990Y+1071280D01*
X+2116985Y+1071280D01*
X+2103650Y+1058580D01*
X+2103650Y+1045880D01*
X+2116985Y+1033180D01*
X+2156990Y+1033180D01*
X+2170325Y+1020480D01*
X+2170325Y+995080D01*
X+2103650Y+995080D01*
X+2063645Y+1058580D02*
X+2050310Y+1071280D01*
X+2010305Y+1071280D01*
X+1996970Y+1058580D01*
X+1996970Y+1045880D01*
X+2010305Y+1033180D01*
X+2050310Y+1033180D01*
X+2063645Y+1020480D01*
X+2063645Y+995080D01*
X+1996970Y+995080D01*
X+1432340Y+1071420D02*
X+1363760Y+1071420D01*
X+1432340Y+949500D02*
X+1361220Y+949500D01*
X+1216371Y+945080D02*
X+1216371Y+1021280D01*
X+1149696Y+1021280D01*
X+1136361Y+1008580D01*
X+1136361Y+995880D01*
X+1149696Y+983180D01*
X+1216371Y+983180D01*
X+1149696Y+983180D02*
X+1136361Y+970480D01*
X+1136361Y+945080D01*
X+1096356Y+1008580D02*
X+1083021Y+1021280D01*
X+1043016Y+1021280D01*
X+1029681Y+1008580D01*
X+1029681Y+995880D01*
X+1043016Y+983180D01*
X+1083021Y+983180D01*
X+1096356Y+970480D01*
X+1096356Y+945080D01*
X+1029681Y+945080D01*
X+989676Y+1008580D02*
X+976341Y+1021280D01*
X+936336Y+1021280D01*
X+923001Y+1008580D01*
X+923001Y+995880D01*
X+936336Y+983180D01*
X+923001Y+970480D01*
X+923001Y+957780D01*
X+936336Y+945080D01*
X+976341Y+945080D01*
X+989676Y+957780D01*
X+963006Y+983180D02*
X+936336Y+983180D01*
X+1813340Y+817420D02*
X+1744760Y+817420D01*
X+1813340Y+695500D02*
X+1742220Y+695500D01*
X+2290340Y+689247D02*
X+2290340Y+765447D01*
X+2223665Y+765447D01*
X+2210330Y+752747D01*
X+2210330Y+740047D01*
X+2223665Y+727347D01*
X+2290340Y+727347D01*
X+2223665Y+727347D02*
X+2210330Y+714647D01*
X+2210330Y+689247D01*
X+2170325Y+752747D02*
X+2156990Y+765447D01*
X+2116985Y+765447D01*
X+2103650Y+752747D01*
X+2103650Y+740047D01*
X+2116985Y+727347D01*
X+2156990Y+727347D01*
X+2170325Y+714647D01*
X+2170325Y+689247D01*
X+2103650Y+689247D01*
X+1996970Y+714647D02*
X+2076980Y+714647D01*
X+2023640Y+765447D01*
X+2023640Y+689247D01*
X+1432340Y+817420D02*
X+1363760Y+817420D01*
X+1432340Y+695500D02*
X+1361220Y+695500D01*
X+1209340Y+691109D02*
X+1209340Y+767309D01*
X+1142665Y+767309D01*
X+1129330Y+754609D01*
X+1129330Y+741909D01*
X+1142665Y+729209D01*
X+1209340Y+729209D01*
X+1142665Y+729209D02*
X+1129330Y+716509D01*
X+1129330Y+691109D01*
X+1089325Y+754609D02*
X+1075990Y+767309D01*
X+1035985Y+767309D01*
X+1022650Y+754609D01*
X+1022650Y+741909D01*
X+1035985Y+729209D01*
X+1075990Y+729209D01*
X+1089325Y+716509D01*
X+1089325Y+691109D01*
X+1022650Y+691109D01*
X+915970Y+767309D02*
X+982645Y+767309D01*
X+982645Y+741909D01*
X+929305Y+741909D01*
X+915970Y+729209D01*
X+915970Y+703809D01*
X+929305Y+691109D01*
X+969310Y+691109D01*
X+982645Y+703809D01*
X+2141000Y+1902000D02*
X+2140573Y+1912409D01*
X+2137101Y+1933228D01*
X+2129845Y+1954047D01*
X+2118017Y+1974866D01*
X+2099920Y+1995524D01*
X+2079101Y+2011045D01*
X+2058282Y+2021030D01*
X+2037463Y+2026814D01*
X+2016644Y+2028972D01*
X+2014000Y+2029000D01*
X+1887000Y+1902000D02*
X+1887427Y+1912409D01*
X+1890899Y+1933228D01*
X+1898155Y+1954047D01*
X+1909983Y+1974866D01*
X+1928080Y+1995524D01*
X+1948899Y+2011045D01*
X+1969718Y+2021030D01*
X+1990537Y+2026814D01*
X+2011356Y+2028972D01*
X+2014000Y+2029000D01*
X+1887000Y+1902000D02*
X+1887427Y+1891591D01*
X+1890899Y+1870772D01*
X+1898155Y+1849953D01*
X+1909983Y+1829134D01*
X+1928080Y+1808476D01*
X+1948899Y+1792955D01*
X+1969718Y+1782970D01*
X+1990537Y+1777186D01*
X+2011356Y+1775028D01*
X+2014000Y+1775000D01*
X+2141000Y+1902000D02*
X+2140573Y+1891591D01*
X+2137101Y+1870772D01*
X+2129845Y+1849953D01*
X+2118017Y+1829134D01*
X+2099920Y+1808476D01*
X+2079101Y+1792955D01*
X+2058282Y+1782970D01*
X+2037463Y+1777186D01*
X+2016644Y+1775028D01*
X+2014000Y+1775000D01*
X+2077500Y+1902000D02*
X+2077283Y+1907247D01*
X+2075518Y+1917742D01*
X+2071826Y+1928237D01*
X+2065798Y+1938732D01*
X+2056576Y+1949112D01*
X+2046081Y+1956800D01*
X+2035586Y+1961718D01*
X+2025091Y+1964524D01*
X+2014596Y+1965497D01*
X+2014000Y+1965500D01*
X+1950500Y+1902000D02*
X+1950717Y+1907247D01*
X+1952482Y+1917742D01*
X+1956174Y+1928237D01*
X+1962202Y+1938732D01*
X+1971424Y+1949112D01*
X+1981919Y+1956800D01*
X+1992414Y+1961718D01*
X+2002909Y+1964524D01*
X+2013404Y+1965497D01*
X+2014000Y+1965500D01*
X+1950500Y+1902000D02*
X+1950717Y+1896753D01*
X+1952482Y+1886258D01*
X+1956174Y+1875763D01*
X+1962202Y+1865268D01*
X+1971424Y+1854888D01*
X+1981919Y+1847200D01*
X+1992414Y+1842282D01*
X+2002909Y+1839476D01*
X+2013404Y+1838503D01*
X+2014000Y+1838500D01*
X+2077500Y+1902000D02*
X+2077283Y+1896753D01*
X+2075518Y+1886258D01*
X+2071826Y+1875763D01*
X+2065798Y+1865268D01*
X+2056576Y+1854888D01*
X+2046081Y+1847200D01*
X+2035586Y+1842282D01*
X+2025091Y+1839476D01*
X+2014596Y+1838503D01*
X+2014000Y+1838500D01*
X+2052100Y+2504120D02*
X+1975900Y+2504120D01*
X+1975900Y+2437445D01*
X+1988600Y+2424110D01*
X+2001300Y+2424110D01*
X+2014000Y+2437445D01*
X+2026700Y+2424110D01*
X+2039400Y+2424110D01*
X+2052100Y+2437445D01*
X+2052100Y+2504120D01*
X+2014000Y+2504120D02*
X+2014000Y+2437445D01*
X+1975900Y+2397440D02*
X+2052100Y+2397440D01*
X+2052100Y+2317430D01*
X+1975900Y+2290760D02*
X+2039400Y+2290760D01*
X+2052100Y+2277425D01*
X+2052100Y+2224085D01*
X+2039400Y+2210750D01*
X+1975900Y+2210750D01*
X+2052100Y+2104070D02*
X+2052100Y+2184080D01*
X+1975900Y+2184080D01*
X+1975900Y+2104070D01*
X+2014000Y+2184080D02*
X+2014000Y+2130740D01*
X+2903000Y+3172000D02*
X+2902573Y+3182409D01*
X+2899101Y+3203228D01*
X+2891845Y+3224047D01*
X+2880017Y+3244866D01*
X+2861920Y+3265524D01*
X+2841101Y+3281045D01*
X+2820282Y+3291030D01*
X+2799463Y+3296814D01*
X+2778644Y+3298972D01*
X+2776000Y+3299000D01*
X+2649000Y+3172000D02*
X+2649427Y+3182409D01*
X+2652899Y+3203228D01*
X+2660155Y+3224047D01*
X+2671983Y+3244866D01*
X+2690080Y+3265524D01*
X+2710899Y+3281045D01*
X+2731718Y+3291030D01*
X+2752537Y+3296814D01*
X+2773356Y+3298972D01*
X+2776000Y+3299000D01*
X+2649000Y+3172000D02*
X+2649427Y+3161591D01*
X+2652899Y+3140772D01*
X+2660155Y+3119953D01*
X+2671983Y+3099134D01*
X+2690080Y+3078476D01*
X+2710899Y+3062955D01*
X+2731718Y+3052970D01*
X+2752537Y+3047186D01*
X+2773356Y+3045028D01*
X+2776000Y+3045000D01*
X+2903000Y+3172000D02*
X+2902573Y+3161591D01*
X+2899101Y+3140772D01*
X+2891845Y+3119953D01*
X+2880017Y+3099134D01*
X+2861920Y+3078476D01*
X+2841101Y+3062955D01*
X+2820282Y+3052970D01*
X+2799463Y+3047186D01*
X+2778644Y+3045028D01*
X+2776000Y+3045000D01*
X+2839500Y+3172000D02*
X+2839283Y+3177247D01*
X+2837518Y+3187742D01*
X+2833826Y+3198237D01*
X+2827798Y+3208732D01*
X+2818576Y+3219112D01*
X+2808081Y+3226800D01*
X+2797586Y+3231718D01*
X+2787091Y+3234524D01*
X+2776596Y+3235497D01*
X+2776000Y+3235500D01*
X+2712500Y+3172000D02*
X+2712717Y+3177247D01*
X+2714482Y+3187742D01*
X+2718174Y+3198237D01*
X+2724202Y+3208732D01*
X+2733424Y+3219112D01*
X+2743919Y+3226800D01*
X+2754414Y+3231718D01*
X+2764909Y+3234524D01*
X+2775404Y+3235497D01*
X+2776000Y+3235500D01*
X+2712500Y+3172000D02*
X+2712717Y+3166753D01*
X+2714482Y+3156258D01*
X+2718174Y+3145763D01*
X+2724202Y+3135268D01*
X+2733424Y+3124888D01*
X+2743919Y+3117200D01*
X+2754414Y+3112282D01*
X+2764909Y+3109476D01*
X+2775404Y+3108503D01*
X+2776000Y+3108500D01*
X+2839500Y+3172000D02*
X+2839283Y+3166753D01*
X+2837518Y+3156258D01*
X+2833826Y+3145763D01*
X+2827798Y+3135268D01*
X+2818576Y+3124888D01*
X+2808081Y+3117200D01*
X+2797586Y+3112282D01*
X+2787091Y+3109476D01*
X+2776596Y+3108503D01*
X+2776000Y+3108500D01*
X+2989360Y+3398060D02*
X+2962690Y+3398060D01*
X+2962690Y+3372660D01*
X+3016030Y+3372660D01*
X+3042700Y+3398060D01*
X+3042700Y+3423460D01*
X+3016030Y+3448860D01*
X+2976025Y+3448860D01*
X+2962690Y+3436160D01*
X+2936020Y+3372660D02*
X+2936020Y+3448860D01*
X+2869345Y+3448860D01*
X+2856010Y+3436160D01*
X+2856010Y+3423460D01*
X+2869345Y+3410760D01*
X+2936020Y+3410760D01*
X+2869345Y+3410760D02*
X+2856010Y+3398060D01*
X+2856010Y+3372660D01*
X+2749330Y+3372660D02*
X+2829340Y+3372660D01*
X+2829340Y+3448860D01*
X+2749330Y+3448860D01*
X+2829340Y+3410760D02*
X+2776000Y+3410760D01*
X+2642650Y+3372660D02*
X+2722660Y+3372660D01*
X+2722660Y+3448860D01*
X+2642650Y+3448860D01*
X+2722660Y+3410760D02*
X+2669320Y+3410760D01*
X+2615980Y+3372660D02*
X+2615980Y+3448860D01*
X+2535970Y+3372660D01*
X+2535970Y+3448860D01*
X+3538000Y+3680000D02*
X+3537573Y+3690409D01*
X+3534101Y+3711228D01*
X+3526845Y+3732047D01*
X+3515017Y+3752866D01*
X+3496920Y+3773524D01*
X+3476101Y+3789045D01*
X+3455282Y+3799030D01*
X+3434463Y+3804814D01*
X+3413644Y+3806972D01*
X+3411000Y+3807000D01*
X+3284000Y+3680000D02*
X+3284427Y+3690409D01*
X+3287899Y+3711228D01*
X+3295155Y+3732047D01*
X+3306983Y+3752866D01*
X+3325080Y+3773524D01*
X+3345899Y+3789045D01*
X+3366718Y+3799030D01*
X+3387537Y+3804814D01*
X+3408356Y+3806972D01*
X+3411000Y+3807000D01*
X+3284000Y+3680000D02*
X+3284427Y+3669591D01*
X+3287899Y+3648772D01*
X+3295155Y+3627953D01*
X+3306983Y+3607134D01*
X+3325080Y+3586476D01*
X+3345899Y+3570955D01*
X+3366718Y+3560970D01*
X+3387537Y+3555186D01*
X+3408356Y+3553028D01*
X+3411000Y+3553000D01*
X+3538000Y+3680000D02*
X+3537573Y+3669591D01*
X+3534101Y+3648772D01*
X+3526845Y+3627953D01*
X+3515017Y+3607134D01*
X+3496920Y+3586476D01*
X+3476101Y+3570955D01*
X+3455282Y+3560970D01*
X+3434463Y+3555186D01*
X+3413644Y+3553028D01*
X+3411000Y+3553000D01*
X+3474500Y+3680000D02*
X+3474283Y+3685247D01*
X+3472518Y+3695742D01*
X+3468826Y+3706237D01*
X+3462798Y+3716732D01*
X+3453576Y+3727112D01*
X+3443081Y+3734800D01*
X+3432586Y+3739718D01*
X+3422091Y+3742524D01*
X+3411596Y+3743497D01*
X+3411000Y+3743500D01*
X+3347500Y+3680000D02*
X+3347717Y+3685247D01*
X+3349482Y+3695742D01*
X+3353174Y+3706237D01*
X+3359202Y+3716732D01*
X+3368424Y+3727112D01*
X+3378919Y+3734800D01*
X+3389414Y+3739718D01*
X+3399909Y+3742524D01*
X+3410404Y+3743497D01*
X+3411000Y+3743500D01*
X+3347500Y+3680000D02*
X+3347717Y+3674753D01*
X+3349482Y+3664258D01*
X+3353174Y+3653763D01*
X+3359202Y+3643268D01*
X+3368424Y+3632888D01*
X+3378919Y+3625200D01*
X+3389414Y+3620282D01*
X+3399909Y+3617476D01*
X+3410404Y+3616503D01*
X+3411000Y+3616500D01*
X+3474500Y+3680000D02*
X+3474283Y+3674753D01*
X+3472518Y+3664258D01*
X+3468826Y+3653763D01*
X+3462798Y+3643268D01*
X+3453576Y+3632888D01*
X+3443081Y+3625200D01*
X+3432586Y+3620282D01*
X+3422091Y+3617476D01*
X+3411596Y+3616503D01*
X+3411000Y+3616500D01*
X+3677700Y+3956860D02*
X+3677700Y+3918760D01*
X+3637695Y+3880660D01*
X+3597690Y+3918760D01*
X+3597690Y+3956860D01*
X+3571020Y+3893360D02*
X+3557685Y+3880660D01*
X+3504345Y+3880660D01*
X+3491010Y+3893360D01*
X+3491010Y+3906060D01*
X+3504345Y+3918760D01*
X+3557685Y+3918760D01*
X+3571020Y+3931460D01*
X+3571020Y+3944160D01*
X+3557685Y+3956860D01*
X+3504345Y+3956860D01*
X+3491010Y+3944160D01*
X+3384330Y+3956860D02*
X+3464340Y+3880660D01*
X+3464340Y+3956860D02*
X+3424335Y+3918760D01*
X+3357660Y+3880660D02*
X+3357660Y+3956860D01*
X+3277650Y+3880660D01*
X+3277650Y+3956860D01*
X+3170970Y+3893360D02*
X+3184305Y+3880660D01*
X+3224310Y+3880660D01*
X+3250980Y+3906060D01*
X+3250980Y+3931460D01*
X+3224310Y+3956860D01*
X+3184305Y+3956860D01*
X+3170970Y+3944160D01*
X+3411000Y+2918000D02*
X+3410573Y+2928409D01*
X+3407101Y+2949228D01*
X+3399845Y+2970047D01*
X+3388017Y+2990866D01*
X+3369920Y+3011524D01*
X+3349101Y+3027045D01*
X+3328282Y+3037030D01*
X+3307463Y+3042814D01*
X+3286644Y+3044972D01*
X+3284000Y+3045000D01*
X+3157000Y+2918000D02*
X+3157427Y+2928409D01*
X+3160899Y+2949228D01*
X+3168155Y+2970047D01*
X+3179983Y+2990866D01*
X+3198080Y+3011524D01*
X+3218899Y+3027045D01*
X+3239718Y+3037030D01*
X+3260537Y+3042814D01*
X+3281356Y+3044972D01*
X+3284000Y+3045000D01*
X+3157000Y+2918000D02*
X+3157427Y+2907591D01*
X+3160899Y+2886772D01*
X+3168155Y+2865953D01*
X+3179983Y+2845134D01*
X+3198080Y+2824476D01*
X+3218899Y+2808955D01*
X+3239718Y+2798970D01*
X+3260537Y+2793186D01*
X+3281356Y+2791028D01*
X+3284000Y+2791000D01*
X+3411000Y+2918000D02*
X+3410573Y+2907591D01*
X+3407101Y+2886772D01*
X+3399845Y+2865953D01*
X+3388017Y+2845134D01*
X+3369920Y+2824476D01*
X+3349101Y+2808955D01*
X+3328282Y+2798970D01*
X+3307463Y+2793186D01*
X+3286644Y+2791028D01*
X+3284000Y+2791000D01*
X+3347500Y+2918000D02*
X+3347283Y+2923247D01*
X+3345518Y+2933742D01*
X+3341826Y+2944237D01*
X+3335798Y+2954732D01*
X+3326576Y+2965112D01*
X+3316081Y+2972800D01*
X+3305586Y+2977718D01*
X+3295091Y+2980524D01*
X+3284596Y+2981497D01*
X+3284000Y+2981500D01*
X+3220500Y+2918000D02*
X+3220717Y+2923247D01*
X+3222482Y+2933742D01*
X+3226174Y+2944237D01*
X+3232202Y+2954732D01*
X+3241424Y+2965112D01*
X+3251919Y+2972800D01*
X+3262414Y+2977718D01*
X+3272909Y+2980524D01*
X+3283404Y+2981497D01*
X+3284000Y+2981500D01*
X+3220500Y+2918000D02*
X+3220717Y+2912753D01*
X+3222482Y+2902258D01*
X+3226174Y+2891763D01*
X+3232202Y+2881268D01*
X+3241424Y+2870888D01*
X+3251919Y+2863200D01*
X+3262414Y+2858282D01*
X+3272909Y+2855476D01*
X+3283404Y+2854503D01*
X+3284000Y+2854500D01*
X+3347500Y+2918000D02*
X+3347283Y+2912753D01*
X+3345518Y+2902258D01*
X+3341826Y+2891763D01*
X+3335798Y+2881268D01*
X+3326576Y+2870888D01*
X+3316081Y+2863200D01*
X+3305586Y+2858282D01*
X+3295091Y+2855476D01*
X+3284596Y+2854503D01*
X+3284000Y+2854500D01*
X+3444020Y+3118660D02*
X+3444020Y+3194860D01*
X+3364010Y+3194860D02*
X+3364010Y+3118660D01*
X+3444020Y+3156760D02*
X+3364010Y+3156760D01*
X+3337340Y+3131360D02*
X+3324005Y+3118660D01*
X+3270665Y+3118660D01*
X+3257330Y+3131360D01*
X+3257330Y+3144060D01*
X+3270665Y+3156760D01*
X+3324005Y+3156760D01*
X+3337340Y+3169460D01*
X+3337340Y+3182160D01*
X+3324005Y+3194860D01*
X+3270665Y+3194860D01*
X+3257330Y+3182160D01*
X+3150650Y+3194860D02*
X+3230660Y+3118660D01*
X+3230660Y+3194860D02*
X+3190655Y+3156760D01*
X+4099340Y+4119420D02*
X+4030760Y+4119420D01*
X+4099340Y+3997500D02*
X+4028220Y+3997500D01*
X+4146330Y+4205780D02*
X+4159665Y+4193080D01*
X+4199670Y+4193080D01*
X+4226340Y+4218480D01*
X+4226340Y+4243880D01*
X+4199670Y+4269280D01*
X+4159665Y+4269280D01*
X+4146330Y+4256580D01*
X+4092990Y+4243880D02*
X+4066320Y+4269280D01*
X+4066320Y+4193080D01*
X+4012980Y+4205780D02*
X+4012980Y+4256580D01*
X+3999645Y+4269280D01*
X+3946305Y+4269280D01*
X+3932970Y+4256580D01*
X+3932970Y+4205780D01*
X+3946305Y+4193080D01*
X+3999645Y+4193080D01*
X+4012980Y+4205780D01*
X+4012980Y+4193080D02*
X+3932970Y+4269280D01*
X+4099340Y+3738420D02*
X+4030760Y+3738420D01*
X+4099340Y+3616500D02*
X+4028220Y+3616500D01*
X+4451853Y+3632912D02*
X+4451853Y+3709112D01*
X+4385178Y+3709112D01*
X+4371843Y+3696412D01*
X+4371843Y+3683712D01*
X+4385178Y+3671012D01*
X+4451853Y+3671012D01*
X+4385178Y+3671012D02*
X+4371843Y+3658312D01*
X+4371843Y+3632912D01*
X+4331838Y+3696412D02*
X+4318503Y+3709112D01*
X+4278498Y+3709112D01*
X+4265163Y+3696412D01*
X+4265163Y+3683712D01*
X+4278498Y+3671012D01*
X+4265163Y+3658312D01*
X+4265163Y+3645612D01*
X+4278498Y+3632912D01*
X+4318503Y+3632912D01*
X+4331838Y+3645612D01*
X+4305168Y+3671012D02*
X+4278498Y+3671012D01*
X+4861340Y+3357420D02*
X+4792760Y+3357420D01*
X+4861340Y+3235500D02*
X+4790220Y+3235500D01*
X+4545029Y+3264632D02*
X+4558364Y+3251932D01*
X+4598369Y+3251932D01*
X+4625039Y+3277332D01*
X+4625039Y+3302732D01*
X+4598369Y+3328132D01*
X+4558364Y+3328132D01*
X+4545029Y+3315432D01*
X+4491689Y+3302732D02*
X+4465019Y+3328132D01*
X+4465019Y+3251932D01*
X+4331669Y+3277332D02*
X+4411679Y+3277332D01*
X+4358339Y+3328132D01*
X+4358339Y+3251932D01*
X+4607340Y+2976420D02*
X+4538760Y+2976420D01*
X+4607340Y+2854500D02*
X+4536220Y+2854500D01*
X+4600990Y+3062780D02*
X+4614325Y+3050080D01*
X+4654330Y+3050080D01*
X+4681000Y+3075480D01*
X+4681000Y+3100880D01*
X+4654330Y+3126280D01*
X+4614325Y+3126280D01*
X+4600990Y+3113580D01*
X+4547650Y+3100880D02*
X+4520980Y+3126280D01*
X+4520980Y+3050080D01*
X+4353340Y+2722420D02*
X+4284760Y+2722420D01*
X+4353340Y+2600500D02*
X+4282220Y+2600500D01*
X+4346990Y+2808780D02*
X+4360325Y+2796080D01*
X+4400330Y+2796080D01*
X+4427000Y+2821480D01*
X+4427000Y+2846880D01*
X+4400330Y+2872280D01*
X+4360325Y+2872280D01*
X+4346990Y+2859580D01*
X+4306985Y+2859580D02*
X+4293650Y+2872280D01*
X+4253645Y+2872280D01*
X+4240310Y+2859580D01*
X+4240310Y+2846880D01*
X+4253645Y+2834180D01*
X+4293650Y+2834180D01*
X+4306985Y+2821480D01*
X+4306985Y+2796080D01*
X+4240310Y+2796080D01*
X+3972340Y+2595420D02*
X+3903760Y+2595420D01*
X+3972340Y+2473500D02*
X+3901220Y+2473500D01*
X+3698386Y+2599384D02*
X+3711721Y+2586684D01*
X+3751726Y+2586684D01*
X+3778396Y+2612084D01*
X+3778396Y+2637484D01*
X+3751726Y+2662884D01*
X+3711721Y+2662884D01*
X+3698386Y+2650184D01*
X+3658381Y+2662884D02*
X+3591706Y+2662884D01*
X+3591706Y+2650184D01*
X+3658381Y+2586684D01*
X+4241580Y+2177340D02*
X+4241580Y+2108760D01*
X+4363500Y+2177340D02*
X+4363500Y+2106220D01*
X+4167920Y+2304340D02*
X+4091720Y+2304340D01*
X+4091720Y+2237665D01*
X+4104420Y+2224330D01*
X+4117120Y+2224330D01*
X+4129820Y+2237665D01*
X+4129820Y+2304340D01*
X+4129820Y+2237665D02*
X+4142520Y+2224330D01*
X+4167920Y+2224330D01*
X+4142520Y+2117650D02*
X+4142520Y+2197660D01*
X+4091720Y+2144320D01*
X+4167920Y+2144320D01*
X+4129820Y+2064310D02*
X+4117120Y+2077645D01*
X+4104420Y+2077645D01*
X+4091720Y+2064310D01*
X+4091720Y+2024305D01*
X+4104420Y+2010970D01*
X+4117120Y+2010970D01*
X+4129820Y+2024305D01*
X+4129820Y+2064310D01*
X+4142520Y+2077645D01*
X+4155220Y+2077645D01*
X+4167920Y+2064310D01*
X+4167920Y+2024305D01*
X+4155220Y+2010970D01*
X+4142520Y+2010970D01*
X+4129820Y+2024305D01*
X+4861340Y+2214420D02*
X+4792760Y+2214420D01*
X+4861340Y+2092500D02*
X+4790220Y+2092500D01*
X+4908330Y+2300780D02*
X+4921665Y+2288080D01*
X+4961670Y+2288080D01*
X+4988340Y+2313480D01*
X+4988340Y+2338880D01*
X+4961670Y+2364280D01*
X+4921665Y+2364280D01*
X+4908330Y+2351580D01*
X+4854990Y+2338880D02*
X+4828320Y+2364280D01*
X+4828320Y+2288080D01*
X+4748310Y+2338880D02*
X+4721640Y+2364280D01*
X+4721640Y+2288080D01*
X+4861340Y+1833420D02*
X+4792760Y+1833420D01*
X+4861340Y+1711500D02*
X+4790220Y+1711500D01*
X+4608178Y+2075190D02*
X+4620878Y+2088525D01*
X+4620878Y+2128530D01*
X+4595478Y+2155200D01*
X+4570078Y+2155200D01*
X+4544678Y+2128530D01*
X+4544678Y+2088525D01*
X+4557378Y+2075190D01*
X+4570078Y+2021850D02*
X+4544678Y+1995180D01*
X+4620878Y+1995180D01*
X+4557378Y+1928505D02*
X+4544678Y+1915170D01*
X+4544678Y+1875165D01*
X+4557378Y+1861830D01*
X+4570078Y+1861830D01*
X+4582778Y+1875165D01*
X+4582778Y+1915170D01*
X+4595478Y+1928505D01*
X+4620878Y+1928505D01*
X+4620878Y+1861830D01*
X+5242340Y+2214420D02*
X+5173760Y+2214420D01*
X+5242340Y+2092500D02*
X+5171220Y+2092500D01*
X+5235990Y+2300780D02*
X+5249325Y+2288080D01*
X+5289330Y+2288080D01*
X+5316000Y+2313480D01*
X+5316000Y+2338880D01*
X+5289330Y+2364280D01*
X+5249325Y+2364280D01*
X+5235990Y+2351580D01*
X+5129310Y+2364280D02*
X+5195985Y+2364280D01*
X+5195985Y+2338880D01*
X+5142645Y+2338880D01*
X+5129310Y+2326180D01*
X+5129310Y+2300780D01*
X+5142645Y+2288080D01*
X+5182650Y+2288080D01*
X+5195985Y+2300780D01*
X+5242340Y+1833420D02*
X+5173760Y+1833420D01*
X+5242340Y+1711500D02*
X+5171220Y+1711500D01*
X+5135990Y+1605379D02*
X+5149325Y+1592679D01*
X+5189330Y+1592679D01*
X+5216000Y+1618079D01*
X+5216000Y+1643479D01*
X+5189330Y+1668879D01*
X+5149325Y+1668879D01*
X+5135990Y+1656179D01*
X+5082650Y+1630779D02*
X+5095985Y+1643479D01*
X+5095985Y+1656179D01*
X+5082650Y+1668879D01*
X+5042645Y+1668879D01*
X+5029310Y+1656179D01*
X+5029310Y+1643479D01*
X+5042645Y+1630779D01*
X+5082650Y+1630779D01*
X+5095985Y+1618079D01*
X+5095985Y+1605379D01*
X+5082650Y+1592679D01*
X+5042645Y+1592679D01*
X+5029310Y+1605379D01*
X+5029310Y+1618079D01*
X+5042645Y+1630779D01*
X+5750340Y+2214420D02*
X+5681760Y+2214420D01*
X+5750340Y+2092500D02*
X+5679220Y+2092500D01*
X+5743990Y+2300780D02*
X+5757325Y+2288080D01*
X+5797330Y+2288080D01*
X+5824000Y+2313480D01*
X+5824000Y+2338880D01*
X+5797330Y+2364280D01*
X+5757325Y+2364280D01*
X+5743990Y+2351580D01*
X+5637310Y+2351580D02*
X+5650645Y+2364280D01*
X+5690650Y+2364280D01*
X+5703985Y+2351580D01*
X+5703985Y+2300780D01*
X+5690650Y+2288080D01*
X+5650645Y+2288080D01*
X+5637310Y+2300780D01*
X+5637310Y+2313480D01*
X+5650645Y+2326180D01*
X+5703985Y+2326180D01*
X+5247420Y+2524300D02*
X+5247420Y+2592880D01*
X+5125500Y+2524300D02*
X+5125500Y+2595420D01*
X+5250208Y+2820902D02*
X+5263543Y+2808202D01*
X+5303548Y+2808202D01*
X+5330218Y+2833602D01*
X+5330218Y+2859002D01*
X+5303548Y+2884402D01*
X+5263543Y+2884402D01*
X+5250208Y+2871702D01*
X+5210203Y+2871702D02*
X+5196868Y+2884402D01*
X+5156863Y+2884402D01*
X+5143528Y+2871702D01*
X+5143528Y+2859002D01*
X+5156863Y+2846302D01*
X+5196868Y+2846302D01*
X+5210203Y+2833602D01*
X+5210203Y+2808202D01*
X+5143528Y+2808202D01*
X+5116858Y+2820902D02*
X+5116858Y+2871702D01*
X+5103523Y+2884402D01*
X+5050183Y+2884402D01*
X+5036848Y+2871702D01*
X+5036848Y+2820902D01*
X+5050183Y+2808202D01*
X+5103523Y+2808202D01*
X+5116858Y+2820902D01*
X+5116858Y+2808202D02*
X+5036848Y+2884402D01*
X+5750340Y+2722420D02*
X+5681760Y+2722420D01*
X+5750340Y+2600500D02*
X+5679220Y+2600500D01*
X+6026248Y+2641038D02*
X+6039583Y+2628338D01*
X+6079588Y+2628338D01*
X+6106258Y+2653738D01*
X+6106258Y+2679138D01*
X+6079588Y+2704538D01*
X+6039583Y+2704538D01*
X+6026248Y+2691838D01*
X+5986243Y+2691838D02*
X+5972908Y+2704538D01*
X+5932903Y+2704538D01*
X+5919568Y+2691838D01*
X+5919568Y+2679138D01*
X+5932903Y+2666438D01*
X+5919568Y+2653738D01*
X+5919568Y+2641038D01*
X+5932903Y+2628338D01*
X+5972908Y+2628338D01*
X+5986243Y+2641038D01*
X+5959573Y+2666438D02*
X+5932903Y+2666438D01*
X+5623340Y+2976420D02*
X+5554760Y+2976420D01*
X+5623340Y+2854500D02*
X+5552220Y+2854500D01*
X+6007808Y+2872780D02*
X+6021143Y+2860080D01*
X+6061148Y+2860080D01*
X+6087818Y+2885480D01*
X+6087818Y+2910880D01*
X+6061148Y+2936280D01*
X+6021143Y+2936280D01*
X+6007808Y+2923580D01*
X+5954468Y+2910880D02*
X+5927798Y+2936280D01*
X+5927798Y+2860080D01*
X+5861123Y+2923580D02*
X+5847788Y+2936280D01*
X+5807783Y+2936280D01*
X+5794448Y+2923580D01*
X+5794448Y+2910880D01*
X+5807783Y+2898180D01*
X+5794448Y+2885480D01*
X+5794448Y+2872780D01*
X+5807783Y+2860080D01*
X+5847788Y+2860080D01*
X+5861123Y+2872780D01*
X+5834453Y+2898180D02*
X+5807783Y+2898180D01*
X+5369340Y+3230420D02*
X+5300760Y+3230420D01*
X+5369340Y+3108500D02*
X+5298220Y+3108500D01*
X+5362990Y+3316780D02*
X+5376325Y+3304080D01*
X+5416330Y+3304080D01*
X+5443000Y+3329480D01*
X+5443000Y+3354880D01*
X+5416330Y+3380280D01*
X+5376325Y+3380280D01*
X+5362990Y+3367580D01*
X+5256310Y+3329480D02*
X+5336320Y+3329480D01*
X+5282980Y+3380280D01*
X+5282980Y+3304080D01*
X+6893340Y+1452420D02*
X+6824760Y+1452420D01*
X+6893340Y+1330500D02*
X+6822220Y+1330500D01*
X+6967000Y+1526080D02*
X+6967000Y+1602280D01*
X+6900325Y+1602280D01*
X+6886990Y+1589580D01*
X+6886990Y+1576880D01*
X+6900325Y+1564180D01*
X+6967000Y+1564180D01*
X+6900325Y+1564180D02*
X+6886990Y+1551480D01*
X+6886990Y+1526080D01*
X+6780310Y+1551480D02*
X+6860320Y+1551480D01*
X+6806980Y+1602280D01*
X+6806980Y+1526080D01*
X+6893340Y+1071420D02*
X+6824760Y+1071420D01*
X+6893340Y+949500D02*
X+6822220Y+949500D01*
X+7186990Y+1007780D02*
X+7200325Y+995080D01*
X+7240330Y+995080D01*
X+7267000Y+1020480D01*
X+7267000Y+1045880D01*
X+7240330Y+1071280D01*
X+7200325Y+1071280D01*
X+7186990Y+1058580D01*
X+7080310Y+1045880D02*
X+7093645Y+1033180D01*
X+7133650Y+1033180D01*
X+7146985Y+1045880D01*
X+7146985Y+1058580D01*
X+7133650Y+1071280D01*
X+7093645Y+1071280D01*
X+7080310Y+1058580D01*
X+7080310Y+1007780D01*
X+7093645Y+995080D01*
X+7133650Y+995080D01*
X+1125000Y+3807000D02*
X+1124573Y+3817409D01*
X+1121101Y+3838228D01*
X+1113845Y+3859047D01*
X+1102017Y+3879866D01*
X+1083920Y+3900524D01*
X+1063101Y+3916045D01*
X+1042282Y+3926030D01*
X+1021463Y+3931814D01*
X+1000644Y+3933972D01*
X+998000Y+3934000D01*
X+871000Y+3807000D02*
X+871427Y+3817409D01*
X+874899Y+3838228D01*
X+882155Y+3859047D01*
X+893983Y+3879866D01*
X+912080Y+3900524D01*
X+932899Y+3916045D01*
X+953718Y+3926030D01*
X+974537Y+3931814D01*
X+995356Y+3933972D01*
X+998000Y+3934000D01*
X+871000Y+3807000D02*
X+871427Y+3796591D01*
X+874899Y+3775772D01*
X+882155Y+3754953D01*
X+893983Y+3734134D01*
X+912080Y+3713476D01*
X+932899Y+3697955D01*
X+953718Y+3687970D01*
X+974537Y+3682186D01*
X+995356Y+3680028D01*
X+998000Y+3680000D01*
X+1125000Y+3807000D02*
X+1124573Y+3796591D01*
X+1121101Y+3775772D01*
X+1113845Y+3754953D01*
X+1102017Y+3734134D01*
X+1083920Y+3713476D01*
X+1063101Y+3697955D01*
X+1042282Y+3687970D01*
X+1021463Y+3682186D01*
X+1000644Y+3680028D01*
X+998000Y+3680000D01*
X+1061500Y+3807000D02*
X+1061283Y+3812247D01*
X+1059518Y+3822742D01*
X+1055826Y+3833237D01*
X+1049798Y+3843732D01*
X+1040576Y+3854112D01*
X+1030081Y+3861800D01*
X+1019586Y+3866718D01*
X+1009091Y+3869524D01*
X+998596Y+3870497D01*
X+998000Y+3870500D01*
X+934500Y+3807000D02*
X+934717Y+3812247D01*
X+936482Y+3822742D01*
X+940174Y+3833237D01*
X+946202Y+3843732D01*
X+955424Y+3854112D01*
X+965919Y+3861800D01*
X+976414Y+3866718D01*
X+986909Y+3869524D01*
X+997404Y+3870497D01*
X+998000Y+3870500D01*
X+934500Y+3807000D02*
X+934717Y+3801753D01*
X+936482Y+3791258D01*
X+940174Y+3780763D01*
X+946202Y+3770268D01*
X+955424Y+3759888D01*
X+965919Y+3752200D01*
X+976414Y+3747282D01*
X+986909Y+3744476D01*
X+997404Y+3743503D01*
X+998000Y+3743500D01*
X+1061500Y+3807000D02*
X+1061283Y+3801753D01*
X+1059518Y+3791258D01*
X+1055826Y+3780763D01*
X+1049798Y+3770268D01*
X+1040576Y+3759888D01*
X+1030081Y+3752200D01*
X+1019586Y+3747282D01*
X+1009091Y+3744476D01*
X+998596Y+3743503D01*
X+998000Y+3743500D01*
X+1158020Y+4007660D02*
X+1158020Y+4083860D01*
X+1091345Y+4083860D01*
X+1078010Y+4071160D01*
X+1078010Y+4058460D01*
X+1091345Y+4045760D01*
X+1158020Y+4045760D01*
X+1091345Y+4045760D02*
X+1078010Y+4033060D01*
X+1078010Y+4007660D01*
X+971330Y+4007660D02*
X+1051340Y+4007660D01*
X+1051340Y+4083860D01*
X+971330Y+4083860D01*
X+1051340Y+4045760D02*
X+998000Y+4045760D01*
X+944660Y+4007660D02*
X+944660Y+4083860D01*
X+891320Y+4083860D01*
X+864650Y+4058460D01*
X+864650Y+4033060D01*
X+891320Y+4007660D01*
X+944660Y+4007660D01*
D72*
X+4808000Y+2399000D02*
X+4813000Y+2394000D01*
X+4808000Y+2389000D01*
X+4803000Y+2394000D01*
X+4808000Y+2399000D01*
D73*
X+4637675Y+2393216D02*
X+4637675Y+2329716D01*
X+4624340Y+2317016D01*
X+4571000Y+2317016D01*
X+4557665Y+2329716D01*
X+4557665Y+2393216D01*
X+4450985Y+2393216D02*
X+4517660Y+2393216D01*
X+4517660Y+2367816D01*
X+4464320Y+2367816D01*
X+4450985Y+2355116D01*
X+4450985Y+2329716D01*
X+4464320Y+2317016D01*
X+4504325Y+2317016D01*
X+4517660Y+2329716D01*
M02*
