G04 PROTEUS GERBER X2 FILE*
%TF.GenerationSoftware,Labcenter,Proteus,8.16-SP3-Build36097*%
%TF.CreationDate,2025-11-07T09:35:32+00:00*%
%TF.FileFunction,Copper,L1,Top*%
%TF.FilePolarity,Positive*%
%TF.Part,Single*%
%TF.SameCoordinates,{b300ba1a-dc7e-4a19-be50-5429eaf46598}*%
%FSLAX45Y45*%
%MOMM*%
G01*
%TA.AperFunction,Conductor*%
%ADD10C,0.254000*%
%TA.AperFunction,ViaPad*%
%ADD11C,0.762000*%
%TA.AperFunction,Conductor*%
%ADD12C,0.635000*%
%TA.AperFunction,WasherPad*%
%ADD13R,1.166720X1.166720*%
%TA.AperFunction,ComponentPad*%
%ADD14C,1.650000*%
%ADD15C,4.800000*%
%TA.AperFunction,SMDPad,CuDef*%
%ADD16R,1.270000X1.016000*%
%TA.AperFunction,ComponentPad*%
%ADD17R,1.778000X1.778000*%
%ADD18C,1.778000*%
%TA.AperFunction,SMDPad,CuDef*%
%ADD19R,0.889000X0.635000*%
%AMPPAD010*
4,1,4,
-0.629330,-0.417190,
0.417190,0.629330,
0.629330,0.417190,
-0.417190,-0.629330,
-0.629330,-0.417190,
0*%
%TA.AperFunction,SMDPad,CuDef*%
%ADD70PPAD010*%
%AMPPAD011*
4,1,4,
-0.629330,0.417190,
-0.417190,0.629330,
0.629330,-0.417190,
0.417190,-0.629330,
-0.629330,0.417190,
0*%
%ADD71PPAD011*%
%TA.AperFunction,SMDPad,CuDef*%
%ADD20R,1.016000X1.270000*%
%TA.AperFunction,SMDPad,CuDef*%
%ADD21R,2.032000X0.635000*%
%TA.AperFunction,ComponentPad*%
%ADD22R,2.032000X2.032000*%
%TA.AperFunction,ComponentPad*%
%ADD23C,2.032000*%
%TA.AperFunction,SMDPad,CuDef*%
%ADD24R,0.635000X0.889000*%
%TA.AperFunction,Profile*%
%ADD25C,0.101600*%
%TD.AperFunction*%
%TA.AperFunction,Conductor*%
G36*
X+2443571Y+4880339D02*
X+2443571Y+4765661D01*
X+2513232Y+4696000D01*
X+2443571Y+4626339D01*
X+2443571Y+4511661D01*
X+2524661Y+4430571D01*
X+2639339Y+4430571D01*
X+2675896Y+4467128D01*
X+2757458Y+4385567D01*
X+2815961Y+4385567D01*
X+3370399Y+3831129D01*
X+3348400Y+3831129D01*
X+3259871Y+3742600D01*
X+3259871Y+3686461D01*
X+2771077Y+4175255D01*
X+2771077Y+4208878D01*
X+2719745Y+4260210D01*
X+2647151Y+4260210D01*
X+2595819Y+4208878D01*
X+2595819Y+4166229D01*
X+1956979Y+4166229D01*
X+1956979Y+4185279D01*
X+1769021Y+4185279D01*
X+1769021Y+4084818D01*
X+1661779Y+4084818D01*
X+1661779Y+4185279D01*
X+1473821Y+4185279D01*
X+1473821Y+4035789D01*
X+1404215Y+4035789D01*
X+1341979Y+4098025D01*
X+1341979Y+4185279D01*
X+1154021Y+4185279D01*
X+1154021Y+4022721D01*
X+1241275Y+4022721D01*
X+1275245Y+3988751D01*
X+1164303Y+3988751D01*
X+1043979Y+4109075D01*
X+1043979Y+4196329D01*
X+856021Y+4196329D01*
X+856021Y+4033771D01*
X+943275Y+4033771D01*
X+1018917Y+3958129D01*
X+935400Y+3958129D01*
X+846871Y+3869600D01*
X+846871Y+3869229D01*
X+228225Y+3869229D01*
X+128271Y+3769275D01*
X+128271Y+2958725D01*
X+318771Y+2768225D01*
X+318771Y+2693346D01*
X+316088Y+2696029D01*
X+206712Y+2696029D01*
X+129371Y+2618688D01*
X+129371Y+2509312D01*
X+189183Y+2449500D01*
X+129371Y+2389688D01*
X+129371Y+2280312D01*
X+189183Y+2220500D01*
X+129371Y+2160688D01*
X+129371Y+2051312D01*
X+189183Y+1991500D01*
X+129371Y+1931688D01*
X+129371Y+1822312D01*
X+189183Y+1762500D01*
X+129371Y+1702688D01*
X+129371Y+1593312D01*
X+206712Y+1515971D01*
X+316088Y+1515971D01*
X+383371Y+1583254D01*
X+383371Y+1479312D01*
X+460712Y+1401971D01*
X+570088Y+1401971D01*
X+647429Y+1479312D01*
X+647429Y+1585771D01*
X+661535Y+1585771D01*
X+661535Y+1540135D01*
X+877265Y+1540135D01*
X+877265Y+1688189D01*
X+976880Y+1688189D01*
X+1046084Y+1618983D01*
X+1009971Y+1582870D01*
X+1009971Y+1510276D01*
X+1061303Y+1458944D01*
X+1133897Y+1458944D01*
X+1159297Y+1484344D01*
X+1313558Y+1484344D01*
X+1362705Y+1435197D01*
X+1435299Y+1435197D01*
X+1486631Y+1486529D01*
X+1486631Y+1559123D01*
X+1435299Y+1610455D01*
X+1362705Y+1610455D01*
X+1361052Y+1608802D01*
X+1232275Y+1608802D01*
X+1028430Y+1812647D01*
X+891764Y+1812647D01*
X+893888Y+1814771D01*
X+1740275Y+1814771D01*
X+1776728Y+1851224D01*
X+1776728Y+2057776D01*
X+1722271Y+2112233D01*
X+2133413Y+2523375D01*
X+2607235Y+2523375D01*
X+2607235Y+2492625D01*
X+2605898Y+2491288D01*
X+2378769Y+2491288D01*
X+2353369Y+2516688D01*
X+2280775Y+2516688D01*
X+2229443Y+2465356D01*
X+2229443Y+2392762D01*
X+2280775Y+2341430D01*
X+2353369Y+2341430D01*
X+2378769Y+2366830D01*
X+2657448Y+2366830D01*
X+2695239Y+2404621D01*
X+2731161Y+2404621D01*
X+2782493Y+2455953D01*
X+2782493Y+2523375D01*
X+3118821Y+2523375D01*
X+3144221Y+2497975D01*
X+3176678Y+2497975D01*
X+3176678Y+2462702D01*
X+3206436Y+2432944D01*
X+3248520Y+2432944D01*
X+3278278Y+2462702D01*
X+3278278Y+2504786D01*
X+3250952Y+2532112D01*
X+3268147Y+2549307D01*
X+3268147Y+2603227D01*
X+3598890Y+2603227D01*
X+3607584Y+2611921D01*
X+3633803Y+2585702D01*
X+3539432Y+2585702D01*
X+2717800Y+1764070D01*
X+2717800Y+1799042D01*
X+2688042Y+1828800D01*
X+2645958Y+1828800D01*
X+2616200Y+1799042D01*
X+2616200Y+1756958D01*
X+2645958Y+1727200D01*
X+2680930Y+1727200D01*
X+2297771Y+1344041D01*
X+2297771Y+417547D01*
X+2269446Y+389222D01*
X+2269446Y+316628D01*
X+2320778Y+265296D01*
X+2393372Y+265296D01*
X+2429989Y+301913D01*
X+2443281Y+288620D01*
X+2415571Y+260910D01*
X+2415571Y+146232D01*
X+2489873Y+71930D01*
X+607526Y+71930D01*
X+635327Y+542471D01*
X+804929Y+712073D01*
X+804929Y+951927D01*
X+635327Y+1121529D01*
X+395473Y+1121529D01*
X+225871Y+951927D01*
X+225871Y+712073D01*
X+389478Y+548466D01*
X+56930Y+556575D01*
X+56930Y+4178492D01*
X+62010Y+4432538D01*
X+568740Y+4431840D01*
X+596680Y+4916990D01*
X+2480222Y+4916990D01*
X+2443571Y+4880339D01*
G37*
%TD.AperFunction*%
%LPC*%
G36*
X+1065929Y+4362371D02*
X+1043979Y+4362371D01*
X+1043979Y+4268721D01*
X+856021Y+4268721D01*
X+856021Y+4362371D01*
X+839871Y+4362371D01*
X+839871Y+4563029D01*
X+1065929Y+4563029D01*
X+1065929Y+4362371D01*
G37*
G36*
X+839871Y+4575731D02*
X+839871Y+4776389D01*
X+1065929Y+4776389D01*
X+1065929Y+4575731D01*
X+839871Y+4575731D01*
G37*
G36*
X+1983029Y+4349671D02*
X+1956979Y+4349671D01*
X+1956979Y+4257671D01*
X+1769021Y+4257671D01*
X+1769021Y+4349671D01*
X+1756971Y+4349671D01*
X+1756971Y+4550329D01*
X+1983029Y+4550329D01*
X+1983029Y+4349671D01*
G37*
G36*
X+1756971Y+4563031D02*
X+1756971Y+4763689D01*
X+1983029Y+4763689D01*
X+1983029Y+4563031D01*
X+1756971Y+4563031D01*
G37*
G36*
X+1678229Y+4349671D02*
X+1661779Y+4349671D01*
X+1661779Y+4257671D01*
X+1473821Y+4257671D01*
X+1473821Y+4349671D01*
X+1452171Y+4349671D01*
X+1452171Y+4550329D01*
X+1678229Y+4550329D01*
X+1678229Y+4349671D01*
G37*
G36*
X+1452171Y+4563031D02*
X+1452171Y+4763689D01*
X+1678229Y+4763689D01*
X+1678229Y+4563031D01*
X+1452171Y+4563031D01*
G37*
G36*
X+1358029Y+4349671D02*
X+1341979Y+4349671D01*
X+1341979Y+4257671D01*
X+1154021Y+4257671D01*
X+1154021Y+4349671D01*
X+1131971Y+4349671D01*
X+1131971Y+4550329D01*
X+1358029Y+4550329D01*
X+1358029Y+4349671D01*
G37*
G36*
X+1131971Y+4563031D02*
X+1131971Y+4763689D01*
X+1358029Y+4763689D01*
X+1358029Y+4563031D01*
X+1131971Y+4563031D01*
G37*
G36*
X+2165129Y+1964600D02*
X+2165129Y+1839400D01*
X+2076600Y+1750871D01*
X+1951400Y+1750871D01*
X+1951137Y+1751133D01*
X+1707535Y+1507531D01*
X+1707535Y+1448012D01*
X+1732936Y+1422612D01*
X+1732936Y+1350018D01*
X+1681604Y+1298686D01*
X+1609010Y+1298686D01*
X+1557678Y+1350018D01*
X+1557678Y+1422612D01*
X+1583078Y+1448012D01*
X+1583079Y+1559083D01*
X+1863133Y+1839137D01*
X+1862871Y+1839400D01*
X+1862871Y+1964600D01*
X+1951400Y+2053129D01*
X+2076600Y+2053129D01*
X+2165129Y+1964600D01*
G37*
G36*
X+677571Y+1307521D02*
X+677571Y+1234927D01*
X+626239Y+1183595D01*
X+553645Y+1183595D01*
X+528245Y+1208995D01*
X+471100Y+1208995D01*
X+445700Y+1183595D01*
X+373106Y+1183595D01*
X+321774Y+1234927D01*
X+321774Y+1307521D01*
X+373106Y+1358853D01*
X+445700Y+1358853D01*
X+471100Y+1333452D01*
X+528244Y+1333452D01*
X+553645Y+1358853D01*
X+626239Y+1358853D01*
X+677571Y+1307521D01*
G37*
%LPD*%
%TA.AperFunction,Conductor*%
G36*
X+9491168Y+4812707D02*
X+9474974Y+4788219D01*
X+9455357Y+4697000D01*
X+9474974Y+4605781D01*
X+9498551Y+4570128D01*
X+9502977Y+4424679D01*
X+9451857Y+4475799D01*
X+9379263Y+4475799D01*
X+9340629Y+4437165D01*
X+9340629Y+4468671D01*
X+9341000Y+4468671D01*
X+9429529Y+4557200D01*
X+9429529Y+4682400D01*
X+9341000Y+4770929D01*
X+9215800Y+4770929D01*
X+9127271Y+4682400D01*
X+9127271Y+4557200D01*
X+9215800Y+4468671D01*
X+9216171Y+4468671D01*
X+9216171Y+4445051D01*
X+9188813Y+4472409D01*
X+9116219Y+4472409D01*
X+9064887Y+4421077D01*
X+9064887Y+4348483D01*
X+9082075Y+4331295D01*
X+9027135Y+4276355D01*
X+9027135Y+4260389D01*
X+8840585Y+4260389D01*
X+8835716Y+4265258D01*
X+8830089Y+4265258D01*
X+8830089Y+4360403D01*
X+8831875Y+4360403D01*
X+8952843Y+4481371D01*
X+8972700Y+4481371D01*
X+9061229Y+4569900D01*
X+9061229Y+4695100D01*
X+8972700Y+4783629D01*
X+8847500Y+4783629D01*
X+8758971Y+4695100D01*
X+8758971Y+4569900D01*
X+8812167Y+4516703D01*
X+8780325Y+4484861D01*
X+8760817Y+4484861D01*
X+8754785Y+4478829D01*
X+8629431Y+4478829D01*
X+8629431Y+4340773D01*
X+8616729Y+4353475D01*
X+8616729Y+4478829D01*
X+8416071Y+4478829D01*
X+8416071Y+4252771D01*
X+8524021Y+4252771D01*
X+8524021Y+4193079D01*
X+8435121Y+4193079D01*
X+8435121Y+3649521D01*
X+8737379Y+3649521D01*
X+8737379Y+3799834D01*
X+9045707Y+3799834D01*
X+9054144Y+3808271D01*
X+9101871Y+3808271D01*
X+9101871Y+3605071D01*
X+9227225Y+3605071D01*
X+9280669Y+3551627D01*
X+9511891Y+3551627D01*
X+9560211Y+3599947D01*
X+9560211Y+3824389D01*
X+9515889Y+3868711D01*
X+9515889Y+3983529D01*
X+9315231Y+3983529D01*
X+9315231Y+3762550D01*
X+9302529Y+3762550D01*
X+9302529Y+3983529D01*
X+9264429Y+3983529D01*
X+9264429Y+4087671D01*
X+9302529Y+4087671D01*
X+9302529Y+4225727D01*
X+9315231Y+4213025D01*
X+9315231Y+4087671D01*
X+9515889Y+4087671D01*
X+9515889Y+4313729D01*
X+9477789Y+4313729D01*
X+9477789Y+4326473D01*
X+9503189Y+4351873D01*
X+9503189Y+4417722D01*
X+9504460Y+4375960D01*
X+9907070Y+4369734D01*
X+9907070Y+1900729D01*
X+9622571Y+1900729D01*
X+9622571Y+1605193D01*
X+9505729Y+1722035D01*
X+9505729Y+1847389D01*
X+9466797Y+1847389D01*
X+9484005Y+1864597D01*
X+9484005Y+1937191D01*
X+9432673Y+1988523D01*
X+9360079Y+1988523D01*
X+9358394Y+1986838D01*
X+9358394Y+2161441D01*
X+9321941Y+2197894D01*
X+9300998Y+2197894D01*
X+9332775Y+2229671D01*
X+9458129Y+2229671D01*
X+9458129Y+2455729D01*
X+9365315Y+2455729D01*
X+9320346Y+2500698D01*
X+8945506Y+2500698D01*
X+8933333Y+2512871D01*
X+9045989Y+2512871D01*
X+9045989Y+2738929D01*
X+8845331Y+2738929D01*
X+8845331Y+2600873D01*
X+8832629Y+2613575D01*
X+8832629Y+2738929D01*
X+8794528Y+2738929D01*
X+8794528Y+3269102D01*
X+8216679Y+3846951D01*
X+8216679Y+4193079D01*
X+8083329Y+4193079D01*
X+8083329Y+4481371D01*
X+8083700Y+4481371D01*
X+8172229Y+4569900D01*
X+8172229Y+4695100D01*
X+8083700Y+4783629D01*
X+7958500Y+4783629D01*
X+7869971Y+4695100D01*
X+7869971Y+4569900D01*
X+7958500Y+4481371D01*
X+7958871Y+4481371D01*
X+7958871Y+4249138D01*
X+7938722Y+4269287D01*
X+7896638Y+4269287D01*
X+7866880Y+4239529D01*
X+7866880Y+4222289D01*
X+7692171Y+4222289D01*
X+7692171Y+4165863D01*
X+7689037Y+4168997D01*
X+7683606Y+4168997D01*
X+7657879Y+4194724D01*
X+7657879Y+4281979D01*
X+7648210Y+4281979D01*
X+7648210Y+4416794D01*
X+7546429Y+4518575D01*
X+7546429Y+4626339D01*
X+7488197Y+4684571D01*
X+7546429Y+4684571D01*
X+7546429Y+4916990D01*
X+9487994Y+4916990D01*
X+9491168Y+4812707D01*
G37*
%TD.AperFunction*%
%LPC*%
G36*
X+8212871Y+4569900D02*
X+8212871Y+4695100D01*
X+8301400Y+4783629D01*
X+8426600Y+4783629D01*
X+8515129Y+4695100D01*
X+8515129Y+4569900D01*
X+8426600Y+4481371D01*
X+8301400Y+4481371D01*
X+8212871Y+4569900D01*
G37*
G36*
X+7673182Y+4305546D02*
X+7673182Y+4347630D01*
X+7702940Y+4377388D01*
X+7745024Y+4377388D01*
X+7774782Y+4347630D01*
X+7774782Y+4305546D01*
X+7745024Y+4275788D01*
X+7702940Y+4275788D01*
X+7673182Y+4305546D01*
G37*
%LPD*%
%TA.AperFunction,Conductor*%
G36*
X+9600158Y+1451598D02*
X+9618385Y+1433371D01*
X+9622571Y+1433371D01*
X+9622571Y+1344471D01*
X+9907070Y+1344471D01*
X+9907070Y+1227629D01*
X+9622571Y+1227629D01*
X+9622571Y+884729D01*
X+9581035Y+884729D01*
X+9493029Y+972735D01*
X+9493029Y+1098089D01*
X+9348226Y+1098089D01*
X+9348226Y+1203780D01*
X+9357088Y+1194918D01*
X+9399172Y+1194918D01*
X+9428930Y+1224676D01*
X+9428930Y+1266760D01*
X+9399172Y+1296518D01*
X+9357088Y+1296518D01*
X+9348226Y+1287656D01*
X+9348226Y+1401222D01*
X+9380375Y+1433371D01*
X+9505729Y+1433371D01*
X+9505729Y+1546027D01*
X+9600158Y+1451598D01*
G37*
%TD.AperFunction*%
%TA.AperFunction,Conductor*%
G36*
X+7350661Y+4430571D02*
X+7458425Y+4430571D01*
X+7523752Y+4365244D01*
X+7523752Y+4281979D01*
X+7504880Y+4281979D01*
X+7499921Y+4286938D01*
X+7477906Y+4286938D01*
X+7496514Y+4305546D01*
X+7496514Y+4347630D01*
X+7466756Y+4377388D01*
X+7424672Y+4377388D01*
X+7394914Y+4347630D01*
X+7394914Y+4305546D01*
X+7418480Y+4281979D01*
X+7260371Y+4281979D01*
X+7260371Y+4094021D01*
X+7285771Y+4094021D01*
X+7285771Y+3719371D01*
X+7486429Y+3719371D01*
X+7486429Y+4035227D01*
X+7499131Y+4022525D01*
X+7499131Y+3719371D01*
X+7699789Y+3719371D01*
X+7699789Y+3808271D01*
X+7817525Y+3808271D01*
X+7830225Y+3795571D01*
X+7878113Y+3795571D01*
X+7866880Y+3784338D01*
X+7866880Y+3742254D01*
X+7896638Y+3712496D01*
X+7914421Y+3712496D01*
X+7914421Y+3649521D01*
X+8216679Y+3649521D01*
X+8216679Y+3670942D01*
X+8670071Y+3217550D01*
X+8670071Y+2803118D01*
X+8485932Y+2987257D01*
X+8055893Y+2987257D01*
X+8001665Y+2933029D01*
X+7876311Y+2933029D01*
X+7876311Y+2807671D01*
X+7834806Y+2766166D01*
X+7550329Y+2766166D01*
X+7550329Y+2913029D01*
X+7349671Y+2913029D01*
X+7349671Y+2774973D01*
X+7336969Y+2787675D01*
X+7336969Y+2913029D01*
X+7136311Y+2913029D01*
X+7136311Y+2825596D01*
X+6797073Y+2486358D01*
X+6404168Y+2486358D01*
X+5774751Y+3115775D01*
X+5774751Y+3117618D01*
X+6340012Y+2552357D01*
X+6514708Y+2727053D01*
X+6513081Y+2728680D01*
X+7216229Y+3431828D01*
X+7216229Y+4435461D01*
X+7281000Y+4500232D01*
X+7350661Y+4430571D01*
G37*
%TD.AperFunction*%
%TA.AperFunction,Conductor*%
G36*
X+7914421Y+4008929D02*
X+7792875Y+4008929D01*
X+7780173Y+4021631D01*
X+7914421Y+4021631D01*
X+7914421Y+4008929D01*
G37*
%TD.AperFunction*%
%TA.AperFunction,Conductor*%
G36*
X+2859850Y+3611938D02*
X+2047641Y+3611938D01*
X+2022241Y+3637338D01*
X+1949647Y+3637338D01*
X+1898315Y+3586006D01*
X+1898315Y+3513412D01*
X+1949647Y+3462080D01*
X+2022241Y+3462080D01*
X+2047641Y+3487480D01*
X+2923244Y+3487480D01*
X+3043335Y+3367389D01*
X+2033365Y+3367389D01*
X+2021082Y+3379672D01*
X+1948488Y+3379672D01*
X+1897156Y+3328340D01*
X+1897156Y+3255746D01*
X+1948488Y+3204414D01*
X+2021082Y+3204414D01*
X+2059599Y+3242931D01*
X+2633202Y+3242931D01*
X+2624871Y+3234600D01*
X+2624871Y+3109400D01*
X+2642042Y+3092229D01*
X+1857513Y+3092229D01*
X+1412863Y+2647579D01*
X+1412863Y+2451601D01*
X+1387463Y+2426201D01*
X+1387463Y+2353607D01*
X+1438795Y+2302275D01*
X+1478483Y+2302275D01*
X+1461771Y+2285563D01*
X+1461771Y+2133225D01*
X+1561725Y+2033271D01*
X+1625225Y+2033271D01*
X+1643185Y+2015311D01*
X+1611355Y+2015311D01*
X+1581597Y+1985553D01*
X+1581597Y+1943469D01*
X+1585837Y+1939229D01*
X+1185936Y+1939229D01*
X+1193296Y+1946589D01*
X+1193296Y+1988673D01*
X+1163538Y+2018431D01*
X+1121454Y+2018431D01*
X+1091696Y+1988673D01*
X+1091696Y+1946589D01*
X+1099056Y+1939229D01*
X+893888Y+1939229D01*
X+841617Y+1991500D01*
X+901429Y+2051312D01*
X+901429Y+2160688D01*
X+841617Y+2220500D01*
X+901429Y+2280312D01*
X+901429Y+2389688D01*
X+841617Y+2449500D01*
X+901429Y+2509312D01*
X+901429Y+2618688D01*
X+824088Y+2696029D01*
X+714712Y+2696029D01*
X+646764Y+2628081D01*
X+606070Y+2628081D01*
X+576312Y+2598323D01*
X+576312Y+2575805D01*
X+570088Y+2582029D01*
X+460712Y+2582029D01*
X+443229Y+2564546D01*
X+443229Y+2819775D01*
X+252729Y+3010275D01*
X+252729Y+3183215D01*
X+395473Y+3040471D01*
X+635327Y+3040471D01*
X+804929Y+3210073D01*
X+804929Y+3449927D01*
X+635327Y+3619529D01*
X+395473Y+3619529D01*
X+252729Y+3476785D01*
X+252729Y+3717725D01*
X+279775Y+3744771D01*
X+846871Y+3744771D01*
X+846871Y+3744400D01*
X+935400Y+3655871D01*
X+1060600Y+3655871D01*
X+1149129Y+3744400D01*
X+1149129Y+3864295D01*
X+2607493Y+3864295D01*
X+2859850Y+3611938D01*
G37*
%TD.AperFunction*%
%LPC*%
G36*
X+1727200Y+3153958D02*
X+1727200Y+3196042D01*
X+1756958Y+3225800D01*
X+1799042Y+3225800D01*
X+1828800Y+3196042D01*
X+1828800Y+3153958D01*
X+1799042Y+3124200D01*
X+1756958Y+3124200D01*
X+1727200Y+3153958D01*
G37*
%LPD*%
%TA.AperFunction,Conductor*%
G36*
X+4940361Y+4341974D02*
X+4940361Y+4316199D01*
X+5153440Y+4103119D01*
X+5123283Y+4072962D01*
X+5123283Y+4037040D01*
X+5082067Y+3995824D01*
X+5082067Y+3970048D01*
X+5082066Y+3951800D01*
X+5011318Y+3881052D01*
X+5295787Y+3596583D01*
X+5187380Y+3488176D01*
X+5187380Y+3507984D01*
X+5157622Y+3537742D01*
X+5115538Y+3537742D01*
X+5085780Y+3507984D01*
X+5085780Y+3465900D01*
X+5115538Y+3436142D01*
X+5135346Y+3436142D01*
X+5131213Y+3432009D01*
X+4864588Y+3432009D01*
X+4864588Y+3437986D01*
X+4920259Y+3493657D01*
X+4920259Y+3805468D01*
X+4995843Y+3881052D01*
X+4878610Y+3998285D01*
X+4930229Y+4049904D01*
X+4930229Y+4435461D01*
X+4940361Y+4445593D01*
X+4940361Y+4341974D01*
G37*
%TD.AperFunction*%
%TA.AperFunction,Conductor*%
G36*
X+3948975Y+3247619D02*
X+3967202Y+3229392D01*
X+3982605Y+3229392D01*
X+3988698Y+3223299D01*
X+3935637Y+3170238D01*
X+3694237Y+3411638D01*
X+3694237Y+3437604D01*
X+3608279Y+3523562D01*
X+3608279Y+3588315D01*
X+3948975Y+3247619D01*
G37*
%TD.AperFunction*%
%TA.AperFunction,Conductor*%
G36*
X+5684695Y+3207673D02*
X+5650293Y+3173271D01*
X+5650293Y+3122192D01*
X+5622900Y+3122192D01*
X+5621490Y+3120782D01*
X+5587310Y+3154961D01*
X+5610526Y+3178177D01*
X+5610526Y+3205570D01*
X+5646468Y+3205570D01*
X+5666633Y+3225735D01*
X+5684695Y+3207673D01*
G37*
%TD.AperFunction*%
%TA.AperFunction,Conductor*%
G36*
X+5385418Y+3506952D02*
X+5562342Y+3330028D01*
X+5505545Y+3330028D01*
X+5300224Y+3124707D01*
X+5300224Y+3077717D01*
X+5274824Y+3052317D01*
X+5274824Y+2979723D01*
X+5326156Y+2928391D01*
X+5398750Y+2928391D01*
X+5450082Y+2979723D01*
X+5450082Y+3052317D01*
X+5426962Y+3075437D01*
X+5519314Y+3167789D01*
X+5530972Y+3156131D01*
X+5513547Y+3156131D01*
X+5462215Y+3104799D01*
X+5462215Y+3032205D01*
X+5513547Y+2980873D01*
X+5549469Y+2980873D01*
X+5589759Y+2940583D01*
X+5698123Y+2940583D01*
X+5736028Y+2978488D01*
X+6258823Y+2455694D01*
X+6102184Y+2299055D01*
X+6063611Y+2337629D01*
X+5991017Y+2337629D01*
X+5939685Y+2286297D01*
X+5939685Y+2213703D01*
X+5978258Y+2175129D01*
X+5816509Y+2013379D01*
X+5816509Y+2036657D01*
X+5765177Y+2087989D01*
X+5692583Y+2087989D01*
X+5649537Y+2044943D01*
X+5649537Y+2350466D01*
X+5674937Y+2375866D01*
X+5674937Y+2448460D01*
X+5623605Y+2499792D01*
X+5551011Y+2499792D01*
X+5499679Y+2448460D01*
X+5499679Y+2375866D01*
X+5525079Y+2350466D01*
X+5525079Y+1899762D01*
X+5613985Y+1810856D01*
X+5612358Y+1809228D01*
X+5597550Y+1794421D01*
X+5423031Y+1619902D01*
X+5423031Y+1643179D01*
X+5371699Y+1694511D01*
X+5299105Y+1694511D01*
X+5247773Y+1643179D01*
X+5247773Y+1570585D01*
X+5299105Y+1519253D01*
X+5322382Y+1519253D01*
X+5207024Y+1403895D01*
X+5134341Y+1476578D01*
X+5134341Y+1526790D01*
X+5083009Y+1578122D01*
X+5010415Y+1578122D01*
X+4959083Y+1526790D01*
X+4959083Y+1481136D01*
X+4935812Y+1481136D01*
X+4859524Y+1557424D01*
X+4859524Y+1566481D01*
X+4884924Y+1591881D01*
X+4884924Y+1664475D01*
X+4833592Y+1715807D01*
X+4773162Y+1715807D01*
X+4773162Y+1744225D01*
X+4394873Y+2122514D01*
X+4350108Y+2122514D01*
X+4249318Y+2223304D01*
X+4310736Y+2223304D01*
X+4520330Y+2432898D01*
X+4520330Y+2711366D01*
X+4563503Y+2711366D01*
X+4564914Y+2709955D01*
X+4739248Y+2709955D01*
X+4764648Y+2684555D01*
X+4837242Y+2684555D01*
X+4888574Y+2735887D01*
X+4888574Y+2808481D01*
X+4837242Y+2859813D01*
X+4764648Y+2859813D01*
X+4739248Y+2834413D01*
X+4623285Y+2834413D01*
X+4623285Y+2835292D01*
X+4571953Y+2886624D01*
X+4520330Y+2886624D01*
X+4520330Y+3211424D01*
X+4490345Y+3241409D01*
X+4490345Y+3307551D01*
X+5182763Y+3307551D01*
X+5383791Y+3508579D01*
X+5385418Y+3506952D01*
G37*
%TD.AperFunction*%
%LPC*%
G36*
X+4878117Y+3168081D02*
X+4878117Y+3132158D01*
X+4906414Y+3103861D01*
X+4909424Y+3106871D01*
X+4982018Y+3106871D01*
X+5033350Y+3055539D01*
X+5033350Y+2982945D01*
X+4982018Y+2931613D01*
X+4909424Y+2931613D01*
X+4884024Y+2957013D01*
X+4877255Y+2957013D01*
X+4790113Y+3044155D01*
X+4754191Y+3044155D01*
X+4702859Y+3095487D01*
X+4702859Y+3168081D01*
X+4754191Y+3219413D01*
X+4826785Y+3219413D01*
X+4878117Y+3168081D01*
G37*
G36*
X+5119797Y+2570740D02*
X+5119797Y+2498146D01*
X+5094396Y+2472745D01*
X+5094396Y+2391577D01*
X+5126190Y+2359784D01*
X+5126190Y+2287190D01*
X+5074858Y+2235858D01*
X+5002264Y+2235858D01*
X+4950932Y+2287190D01*
X+4950932Y+2359784D01*
X+4969939Y+2378791D01*
X+4969939Y+2472746D01*
X+4944539Y+2498146D01*
X+4944539Y+2570740D01*
X+4995871Y+2622072D01*
X+5068465Y+2622072D01*
X+5119797Y+2570740D01*
G37*
G36*
X+5223300Y+2035059D02*
X+5223300Y+2026630D01*
X+5339245Y+2026630D01*
X+5364645Y+2052030D01*
X+5437239Y+2052030D01*
X+5488571Y+2000698D01*
X+5488571Y+1928104D01*
X+5437239Y+1876772D01*
X+5364645Y+1876772D01*
X+5339245Y+1902172D01*
X+5151145Y+1902172D01*
X+5151145Y+1885419D01*
X+5121387Y+1855661D01*
X+5079303Y+1855661D01*
X+5049545Y+1885419D01*
X+5049545Y+1927503D01*
X+5066274Y+1944232D01*
X+5048042Y+1962465D01*
X+5048042Y+2035059D01*
X+5099374Y+2086391D01*
X+5171968Y+2086391D01*
X+5223300Y+2035059D01*
G37*
G36*
X+4670840Y+1887318D02*
X+4670840Y+1929402D01*
X+4700598Y+1959160D01*
X+4742682Y+1959160D01*
X+4772440Y+1929402D01*
X+4772440Y+1887318D01*
X+4742682Y+1857560D01*
X+4700598Y+1857560D01*
X+4670840Y+1887318D01*
G37*
G36*
X+5028246Y+3061035D02*
X+5028246Y+3103119D01*
X+5058004Y+3132877D01*
X+5100088Y+3132877D01*
X+5129846Y+3103119D01*
X+5129846Y+3061035D01*
X+5100088Y+3031277D01*
X+5058004Y+3031277D01*
X+5028246Y+3061035D01*
G37*
G36*
X+5328700Y+2677479D02*
X+5328700Y+2719563D01*
X+5358458Y+2749321D01*
X+5400542Y+2749321D01*
X+5430300Y+2719563D01*
X+5430300Y+2677479D01*
X+5400542Y+2647721D01*
X+5358458Y+2647721D01*
X+5328700Y+2677479D01*
G37*
%LPD*%
%TA.AperFunction,Conductor*%
G36*
X+4137938Y+3000064D02*
X+4137939Y+3000064D01*
X+4264889Y+2873114D01*
X+4334280Y+2873114D01*
X+4359680Y+2847714D01*
X+4395872Y+2847714D01*
X+4395872Y+2484448D01*
X+4259186Y+2347762D01*
X+4027629Y+2347762D01*
X+4027629Y+2416297D01*
X+3976297Y+2467629D01*
X+3919601Y+2467629D01*
X+3801528Y+2585702D01*
X+3700493Y+2585702D01*
X+3811083Y+2696292D01*
X+3811083Y+2688146D01*
X+3840841Y+2658388D01*
X+3882925Y+2658388D01*
X+3912683Y+2688146D01*
X+3912683Y+2730230D01*
X+3882925Y+2759988D01*
X+3874779Y+2759988D01*
X+4126396Y+3011605D01*
X+4137938Y+3000064D01*
G37*
%TD.AperFunction*%
%LPC*%
G36*
X+4085717Y+2883433D02*
X+4085717Y+2925517D01*
X+4115475Y+2955275D01*
X+4157559Y+2955275D01*
X+4187317Y+2925517D01*
X+4187317Y+2883433D01*
X+4157559Y+2853675D01*
X+4115475Y+2853675D01*
X+4085717Y+2883433D01*
G37*
G36*
X+4140200Y+2518958D02*
X+4140200Y+2561042D01*
X+4169958Y+2590800D01*
X+4212042Y+2590800D01*
X+4241800Y+2561042D01*
X+4241800Y+2518958D01*
X+4212042Y+2489200D01*
X+4169958Y+2489200D01*
X+4140200Y+2518958D01*
G37*
%LPD*%
%TA.AperFunction,Conductor*%
G36*
X+8631971Y+2665208D02*
X+8631971Y+2512871D01*
X+8757325Y+2512871D01*
X+8893954Y+2376242D01*
X+9044111Y+2376242D01*
X+9044111Y+2330375D01*
X+8956154Y+2242418D01*
X+8884414Y+2242418D01*
X+8830006Y+2188010D01*
X+8830006Y+2031588D01*
X+8873271Y+1988322D01*
X+8873271Y+1984546D01*
X+8262696Y+1373971D01*
X+8262696Y+1488668D01*
X+8213029Y+1538335D01*
X+8213029Y+1655621D01*
X+8261129Y+1655621D01*
X+8261129Y+1682184D01*
X+8301304Y+1682184D01*
X+8331062Y+1711942D01*
X+8331062Y+1754026D01*
X+8301304Y+1783784D01*
X+8261129Y+1783784D01*
X+8261129Y+1928671D01*
X+8281075Y+1928671D01*
X+8298628Y+1911117D01*
X+8335081Y+1874664D01*
X+8384313Y+1874664D01*
X+8409713Y+1849264D01*
X+8482307Y+1849264D01*
X+8533639Y+1900596D01*
X+8533639Y+1973190D01*
X+8482307Y+2024522D01*
X+8409713Y+2024522D01*
X+8385472Y+2000281D01*
X+8369079Y+2016676D01*
X+8332626Y+2053129D01*
X+8261129Y+2053129D01*
X+8261129Y+2199179D01*
X+8232499Y+2199179D01*
X+8232499Y+2355505D01*
X+8163029Y+2424975D01*
X+8163029Y+2550329D01*
X+8127629Y+2550329D01*
X+8127629Y+2585338D01*
X+8133966Y+2579001D01*
X+8206560Y+2579001D01*
X+8257892Y+2630333D01*
X+8257892Y+2702927D01*
X+8253848Y+2706971D01*
X+8290329Y+2706971D01*
X+8290329Y+2862799D01*
X+8434381Y+2862799D01*
X+8631971Y+2665208D01*
G37*
%TD.AperFunction*%
%TA.AperFunction,Conductor*%
G36*
X+637371Y+2514746D02*
X+625636Y+2526481D01*
X+637371Y+2526481D01*
X+637371Y+2514746D01*
G37*
%TD.AperFunction*%
%TA.AperFunction,Conductor*%
G36*
X+697183Y+2449500D02*
X+647429Y+2399746D01*
X+647429Y+2499254D01*
X+697183Y+2449500D01*
G37*
%TD.AperFunction*%
%TA.AperFunction,Conductor*%
G36*
X+4275283Y+2021331D02*
X+4236320Y+1982368D01*
X+4236320Y+1967711D01*
X+4005893Y+2198137D01*
X+4005894Y+2198138D01*
X+3980728Y+2223304D01*
X+4073310Y+2223304D01*
X+4275283Y+2021331D01*
G37*
%TD.AperFunction*%
%TA.AperFunction,Conductor*%
G36*
X+4506709Y+1834670D02*
X+4480920Y+1834670D01*
X+4454068Y+1807818D01*
X+4454068Y+1811503D01*
X+4386178Y+1879393D01*
X+4386178Y+1884374D01*
X+4411578Y+1909774D01*
X+4411578Y+1929801D01*
X+4506709Y+1834670D01*
G37*
%TD.AperFunction*%
%TA.AperFunction,Conductor*%
G36*
X+4648704Y+1692675D02*
X+4648704Y+1662645D01*
X+4606056Y+1662645D01*
X+4573721Y+1630310D01*
X+4454068Y+1749963D01*
X+4454068Y+1759922D01*
X+4480920Y+1733070D01*
X+4523004Y+1733070D01*
X+4552762Y+1762828D01*
X+4552762Y+1788617D01*
X+4648704Y+1692675D01*
G37*
%TD.AperFunction*%
%TA.AperFunction,Conductor*%
G36*
X+6226082Y+1905866D02*
X+6244309Y+1887639D01*
X+6282724Y+1887639D01*
X+6308124Y+1862239D01*
X+6310598Y+1862239D01*
X+6310598Y+1173747D01*
X+6726715Y+757629D01*
X+6663703Y+757629D01*
X+6612371Y+706297D01*
X+6612371Y+633703D01*
X+6650074Y+596000D01*
X+6560811Y+596000D01*
X+6560811Y+898617D01*
X+5805974Y+1653452D01*
X+6074191Y+1921669D01*
X+6074191Y+1817805D01*
X+6117371Y+1774625D01*
X+6117371Y+1738703D01*
X+6168703Y+1687371D01*
X+6241297Y+1687371D01*
X+6292629Y+1738703D01*
X+6292629Y+1811297D01*
X+6241297Y+1862629D01*
X+6205375Y+1862629D01*
X+6198649Y+1869355D01*
X+6198649Y+1933298D01*
X+6226082Y+1905866D01*
G37*
%TD.AperFunction*%
%TA.AperFunction,Conductor*%
G36*
X+9233936Y+1630235D02*
X+9233936Y+1604460D01*
X+9279671Y+1558725D01*
X+9279671Y+1508675D01*
X+9223768Y+1452772D01*
X+9223768Y+852628D01*
X+9266971Y+809425D01*
X+9266971Y+756880D01*
X+8140835Y+756880D01*
X+8132860Y+764855D01*
X+8426090Y+1058085D01*
X+8426090Y+1152853D01*
X+8438456Y+1140487D01*
X+8480540Y+1140487D01*
X+8510298Y+1170245D01*
X+8510298Y+1212329D01*
X+8490927Y+1231699D01*
X+8914849Y+1655621D01*
X+9175529Y+1655621D01*
X+9175529Y+1778551D01*
X+9233936Y+1778551D01*
X+9233936Y+1630235D01*
G37*
%TD.AperFunction*%
%LPC*%
G36*
X+8655562Y+1047891D02*
X+8655562Y+1089975D01*
X+8685320Y+1119733D01*
X+8727404Y+1119733D01*
X+8757162Y+1089975D01*
X+8757162Y+1047891D01*
X+8727404Y+1018133D01*
X+8685320Y+1018133D01*
X+8655562Y+1047891D01*
G37*
%LPD*%
%TA.AperFunction,Conductor*%
G36*
X+6436353Y+847067D02*
X+6436353Y+580986D01*
X+6421339Y+596000D01*
X+6306806Y+596000D01*
X+6306806Y+940490D01*
X+5699908Y+1547386D01*
X+5717971Y+1565449D01*
X+6436353Y+847067D01*
G37*
%TD.AperFunction*%
%TA.AperFunction,Conductor*%
G36*
X+2804773Y+1140928D02*
X+2804773Y+715059D01*
X+2648526Y+558812D01*
X+2611339Y+596000D01*
X+2496661Y+596000D01*
X+2494281Y+593620D01*
X+2494281Y+838888D01*
X+2800547Y+1145154D01*
X+2804773Y+1140928D01*
G37*
%TD.AperFunction*%
%TA.AperFunction,Conductor*%
G36*
X+8763874Y+4235500D02*
X+8763874Y+4193416D01*
X+8783261Y+4174029D01*
X+8737379Y+4174029D01*
X+8737379Y+4193079D01*
X+8648478Y+4193079D01*
X+8648478Y+4252771D01*
X+8781145Y+4252771D01*
X+8763874Y+4235500D01*
G37*
%TD.AperFunction*%
%TA.AperFunction,Conductor*%
G36*
X+8835171Y+4147733D02*
X+8819246Y+4163658D01*
X+8835171Y+4163658D01*
X+8835171Y+4147733D01*
G37*
%TD.AperFunction*%
%TA.AperFunction,Conductor*%
G36*
X+8960525Y+4047029D02*
X+8935875Y+4047029D01*
X+8923173Y+4059731D01*
X+8973227Y+4059731D01*
X+8960525Y+4047029D01*
G37*
%TD.AperFunction*%
D10*
X+2683448Y+4172581D02*
X+2708849Y+4147180D01*
X+2711148Y+4147180D01*
X+3522473Y+3335855D01*
X+3522473Y+3335782D01*
X+5587308Y+2412163D02*
X+5587308Y+1925537D01*
X+5745335Y+1767510D01*
X+7599460Y+4010200D02*
X+7599460Y+3832400D01*
X+7421660Y+4188000D02*
X+7341650Y+4188000D01*
X+7463624Y+4199309D02*
X+7452315Y+4188000D01*
X+7421660Y+4188000D01*
X+7599460Y+4010200D02*
X+7421660Y+4188000D01*
X+6135680Y+693587D02*
X+5906439Y+693587D01*
X+5454113Y+1145913D01*
X+4389521Y+3157243D02*
X+4389521Y+3187597D01*
X+4261825Y+3315293D01*
X+4261825Y+3321730D01*
X+6860269Y+1385121D02*
X+6849650Y+1385121D01*
X+6913343Y+1321428D01*
X+6913343Y+1171846D01*
X+9202200Y+3870500D02*
X+9202200Y+4200700D01*
X+9202200Y+3870500D02*
X+9028369Y+3870500D01*
X+9019932Y+3862063D01*
X+8759211Y+3862063D01*
X+8636474Y+3984800D01*
X+8586250Y+3984800D01*
X+9415560Y+4200700D02*
X+9278400Y+4337860D01*
X+9278400Y+4619800D01*
X+9415560Y+4200700D02*
X+9415560Y+4388170D01*
X+8948200Y+3946700D02*
X+8783100Y+4111800D01*
X+8586250Y+4111800D01*
X+8586250Y+4295950D01*
X+8516400Y+4365800D01*
X+8948200Y+3946700D02*
X+9089363Y+4087863D01*
X+9089363Y+4250579D01*
X+9152516Y+4313732D01*
X+9152516Y+4384780D01*
X+9415560Y+3870500D02*
X+9426096Y+3870500D01*
X+9497982Y+3798614D01*
X+9497982Y+3625722D01*
X+9486116Y+3613856D01*
X+9306444Y+3613856D01*
X+9202200Y+3718100D01*
X+1870000Y+4450000D02*
X+1864131Y+4425327D01*
X+1863000Y+4424196D01*
X+1863000Y+4338950D01*
X+1565200Y+4450000D02*
X+1562009Y+4399200D01*
X+1562009Y+4344741D01*
X+1567800Y+4338950D01*
X+1245000Y+4450000D02*
X+1256268Y+4399200D01*
X+1256268Y+4347218D01*
X+1248000Y+4338950D01*
X+952900Y+4462700D02*
X+958810Y+4411900D01*
X+950000Y+4403090D01*
X+950000Y+4350000D01*
X+589942Y+1271224D02*
X+409403Y+1271224D01*
X+3291963Y+753125D02*
X+3146388Y+898700D01*
X+3093500Y+949500D01*
X+3220302Y+726250D02*
X+3247177Y+753125D01*
X+3291963Y+753125D01*
X+3396300Y+753125D01*
X+3570000Y+457571D02*
X+3587068Y+445589D01*
X+3599050Y+457571D01*
X+3824000Y+457571D01*
X+3400948Y+1626745D02*
X+3400948Y+1967293D01*
X+3731495Y+2297840D01*
X+8981580Y+2004851D02*
X+9024400Y+1990900D01*
X+8981580Y+2004851D02*
X+8926948Y+2022650D01*
X+8892235Y+2057363D01*
X+8892235Y+2162235D01*
X+8910189Y+2180189D01*
X+8981929Y+2180189D01*
X+9144440Y+2342700D01*
X+8170263Y+2666630D02*
X+8170263Y+2779737D01*
X+8170000Y+2780000D01*
X+8190000Y+2820000D01*
X+5103535Y+723395D02*
X+5106540Y+726400D01*
X+6264322Y+2074988D02*
X+6228652Y+2110658D01*
X+6228652Y+2131348D01*
X+6200000Y+2160000D01*
X+6169599Y+2191774D01*
X+5017125Y+824990D02*
X+5017125Y+827756D01*
X+5103535Y+741346D01*
X+5103535Y+723395D01*
X+7050000Y+2278581D02*
X+7041419Y+2270000D01*
X+6444927Y+2270000D01*
X+8050000Y+2450000D02*
X+8050000Y+2555062D01*
X+8040000Y+2565062D01*
X+6346376Y+2368551D02*
X+6408910Y+2305618D01*
X+6444528Y+2270000D01*
X+6444927Y+2270000D01*
X+6346376Y+2368551D02*
X+6444927Y+2270000D01*
X+8050000Y+2450000D02*
X+8170270Y+2329730D01*
X+8170270Y+2149650D01*
X+8110000Y+2117900D01*
X+8100000Y+1563360D02*
X+7977839Y+1685521D01*
X+7977839Y+1797839D01*
X+8012150Y+1832150D01*
X+8110000Y+1863900D01*
X+4642353Y+1575016D02*
X+4635017Y+1575016D01*
X+4544668Y+1484667D01*
X+4776959Y+3438361D02*
X+4858030Y+3519432D01*
X+4858030Y+3786186D01*
X+4792155Y+3852061D01*
X+4945721Y+3019242D02*
X+4903030Y+3019242D01*
X+4790488Y+3131784D01*
X+4016572Y+3742426D02*
X+4008396Y+3750602D01*
X+4008396Y+3879587D01*
X+5038561Y+2323487D02*
X+5032168Y+2329880D01*
X+5032168Y+2534443D01*
X+5756011Y+1264435D02*
X+5706070Y+1214494D01*
X+5308402Y+1214494D01*
X+5250361Y+1272535D01*
X+8910100Y+4632500D02*
X+8910100Y+4526632D01*
X+8806100Y+4422632D01*
X+8786592Y+4422632D01*
X+8729760Y+4365800D01*
X+5362453Y+3016020D02*
X+5362453Y+3098932D01*
X+5531320Y+3267799D01*
X+5620693Y+3267799D01*
X+5709980Y+3357086D01*
X+9133000Y+2117900D02*
X+9278400Y+2117900D01*
X+9296165Y+2135665D01*
X+9357800Y+2342700D02*
X+9133000Y+2117900D01*
X+8732300Y+2625900D02*
X+8919730Y+2438470D01*
X+9294570Y+2438470D01*
X+9326840Y+2406200D01*
X+9357800Y+2342700D01*
X+8732300Y+2625900D02*
X+8695785Y+2689400D01*
X+8460157Y+2925028D01*
X+8081668Y+2925028D01*
X+7976640Y+2820000D01*
X+9392700Y+1533700D02*
X+9296165Y+1630235D01*
X+9296165Y+2135665D01*
X+8100000Y+1350000D02*
X+7934659Y+1515341D01*
X+7934659Y+2127913D01*
X+8018564Y+2211818D01*
X+7976640Y+2820000D02*
X+7925840Y+2769196D01*
X+7860581Y+2703937D01*
X+7636063Y+2703937D01*
X+8018564Y+2211818D02*
X+8050000Y+2236640D01*
X+8018564Y+2211818D02*
X+8018564Y+2321436D01*
X+7636063Y+2703937D01*
X+6371896Y+2424129D02*
X+6381731Y+2403906D01*
X+6371896Y+2424129D02*
X+6371896Y+2430626D01*
X+5712522Y+3090000D01*
X+7236640Y+2800000D02*
X+7185840Y+2787121D01*
X+6822848Y+2424129D01*
X+6371896Y+2424129D01*
X+5712522Y+3090000D02*
X+5712522Y+3147496D01*
X+5816046Y+3251020D01*
X+5549844Y+3068502D02*
X+5615534Y+3002812D01*
X+5672348Y+3002812D01*
X+5712522Y+3042986D01*
X+5712522Y+3090000D01*
X+5135671Y+1998762D02*
X+5170032Y+1964401D01*
X+5400942Y+1964401D01*
X+8065550Y+4111800D02*
X+8021100Y+4156250D01*
X+8021100Y+4632500D01*
X+7408000Y+4569000D02*
X+7408000Y+4823000D01*
X+8065550Y+4111800D02*
X+8065550Y+3984800D01*
X+8065550Y+3857800D01*
X+7856000Y+3857800D01*
X+7805200Y+3908600D01*
X+9392700Y+1533700D02*
X+9285997Y+1426997D01*
X+9285997Y+878403D01*
X+9380000Y+784400D01*
X+8065550Y+3857800D02*
X+8117826Y+3857800D01*
X+8732300Y+3243326D01*
X+8732300Y+2625900D01*
X+4425908Y+3369780D02*
X+5156988Y+3369780D01*
X+5427137Y+3639929D01*
X+4425908Y+3369780D02*
X+4367891Y+3427797D01*
X+4428116Y+3367572D02*
X+4425908Y+3369780D01*
X+4428116Y+3367572D02*
X+4428116Y+3339757D01*
X+4428116Y+3367572D02*
X+4436694Y+3358994D01*
X+4436694Y+3348335D01*
X+4428116Y+3339757D01*
X+3860610Y+2285533D02*
X+3802206Y+2227129D01*
X+4428116Y+3339757D02*
X+4428116Y+3215634D01*
X+4458101Y+3185649D01*
X+4458101Y+3128837D01*
X+4099085Y+2285533D02*
X+4284961Y+2285533D01*
X+4458101Y+2458673D01*
X+4458101Y+3128837D01*
X+3860610Y+2285533D02*
X+4099085Y+2285533D01*
X+4535656Y+2798995D02*
X+4563878Y+2798995D01*
X+4590689Y+2772184D01*
X+4800945Y+2772184D01*
X+1206500Y+1546573D02*
X+1002655Y+1750418D01*
X+698500Y+1750418D01*
X+635000Y+1813918D01*
X+635000Y+1971600D01*
X+769400Y+2106000D01*
X+1399002Y+1522826D02*
X+1375255Y+1546573D01*
X+1206500Y+1546573D01*
X+1645307Y+1386315D02*
X+1645307Y+1533307D01*
X+2014000Y+1902000D01*
X+1097600Y+1546573D02*
X+1188500Y+1546573D01*
X+1206500Y+1546573D01*
X+1142496Y+1967631D02*
X+1142496Y+2539496D01*
X+1778000Y+3175000D01*
X+7386100Y+3832400D02*
X+7386100Y+3619500D01*
X+7450000Y+3555600D01*
X+7450000Y+2800000D01*
X+1245000Y+4663360D02*
X+952900Y+4663360D01*
X+952900Y+4676060D01*
X+1565200Y+4663360D02*
X+1397000Y+4663360D01*
X+1396999Y+4663359D01*
X+1245000Y+4663359D01*
X+1245000Y+4663360D01*
X+1870000Y+4663360D02*
X+1714500Y+4663360D01*
X+1714499Y+4663359D01*
X+1565200Y+4663359D01*
X+1565200Y+4663360D01*
X+1142496Y+1967631D02*
X+1524000Y+1967631D01*
X+3824000Y+203571D02*
X+3958543Y+338114D01*
X+4127387Y+338114D01*
X+4246844Y+457571D01*
X+4332000Y+457571D01*
X+8280262Y+1732984D02*
X+8155753Y+1732984D01*
X+8144685Y+1744052D01*
X+8110000Y+1736900D01*
X+9773700Y+1076500D02*
X+9604482Y+1245718D01*
X+9378130Y+1245718D01*
X+4721640Y+1908360D02*
X+5096806Y+1910000D01*
X+5100345Y+1906461D01*
X+1632397Y+1964511D02*
X+1629277Y+1967631D01*
X+1524000Y+1967631D01*
X+7805200Y+4121960D02*
X+7901727Y+4218487D01*
X+7917680Y+4218487D01*
X+7805200Y+4121960D02*
X+7805200Y+4245370D01*
X+7723982Y+4326588D02*
X+7805200Y+4245370D01*
X+7386100Y+4010200D02*
X+7279260Y+4117040D01*
X+7279260Y+4254161D01*
X+7351687Y+4326588D01*
X+7445714Y+4326588D01*
X+8364000Y+4632500D02*
X+8229607Y+4766893D01*
X+7961295Y+4766893D01*
X+7805200Y+4610798D01*
X+7805200Y+4245370D01*
X+7386100Y+4010200D02*
X+7386100Y+3832400D01*
X+627112Y+2577281D02*
X+515400Y+2688993D01*
X+515400Y+3330000D01*
X+5379500Y+2698521D02*
X+5379500Y+2781623D01*
X+5079046Y+3082077D01*
X+5136580Y+3486942D02*
X+5136580Y+3561504D01*
X+5321071Y+3745995D01*
X+5922112Y+1944286D02*
X+5922112Y+1943080D01*
X+5922112Y+1944286D02*
X+5922112Y+1943079D01*
X+5922112Y+1943080D01*
X+5980584Y+1884608D02*
X+5980584Y+1884607D01*
X+3861883Y+2709188D02*
X+3852844Y+2718227D01*
X+3852844Y+2740763D01*
X+3766851Y+2826756D01*
X+8948200Y+4160060D02*
X+8893802Y+4214458D01*
X+8814674Y+4214458D01*
X+9415560Y+3718100D02*
X+9409210Y+3711750D01*
X+9315177Y+3711750D01*
X+9415560Y+3718100D02*
X+9394605Y+3718100D01*
X+9334359Y+3778346D01*
X+9334359Y+3956489D01*
X+9354864Y+3976994D01*
X+9487156Y+3976994D01*
X+9546687Y+3917463D01*
X+9546687Y+3226927D01*
X+8945660Y+2625900D01*
X+8364000Y+4632500D02*
X+8683705Y+4632500D01*
X+8898458Y+4847253D01*
X+9046183Y+4699528D01*
X+9046183Y+4258043D01*
X+8948200Y+4160060D01*
X+7917680Y+3763296D02*
X+8033054Y+3763296D01*
X+8065550Y+3730800D01*
X+5559726Y+3199219D02*
X+5559726Y+3155608D01*
X+5643942Y+3071392D01*
X+1979706Y+2577288D02*
X+1841500Y+2577288D01*
X+1524000Y+2259788D01*
X+1524000Y+2159000D01*
X+1587500Y+2095500D01*
X+1651000Y+2095500D01*
X+1714500Y+2032000D01*
X+1714500Y+1877000D01*
X+769400Y+1877000D01*
X+1979706Y+2577288D02*
X+1981100Y+2577288D01*
X+2038257Y+2577288D01*
X+2199970Y+2739001D01*
X+3596000Y+2454000D02*
X+3596000Y+2433335D01*
X+3625429Y+2403906D01*
X+3908272Y+2968177D02*
X+3733312Y+3143137D01*
X+3615906Y+3143137D01*
X+3453892Y+3305151D01*
X+3453892Y+3343371D01*
X+2693263Y+4104000D01*
X+1863000Y+4104000D01*
X+1567800Y+4104000D02*
X+1567800Y+4049137D01*
X+1594347Y+4022590D01*
X+2713608Y+4022590D01*
X+3410712Y+3325486D01*
X+3410712Y+3287266D01*
X+3598824Y+3099154D01*
X+3706585Y+3099154D01*
X+3872917Y+2932822D01*
X+1248000Y+4104000D02*
X+1378440Y+3973560D01*
X+2701573Y+3973560D01*
X+3367532Y+3307601D01*
X+3367532Y+3267800D01*
X+3581205Y+3054127D01*
X+3680900Y+3054127D01*
X+3837561Y+2897466D01*
X+3802206Y+2862111D02*
X+3814623Y+2855527D01*
X+3814623Y+2856032D01*
X+3750465Y+2920190D01*
X+3654077Y+2920190D01*
X+3324352Y+3249915D01*
X+3324352Y+3289716D01*
X+3202978Y+3411090D01*
X+3148703Y+3411090D01*
X+2633270Y+3926523D01*
X+1138527Y+3926523D01*
X+950000Y+4115050D01*
X+6240310Y+2262485D02*
X+6251398Y+2251398D01*
X+6251398Y+2251397D01*
X+6548829Y+1953966D01*
X+7837448Y+1953966D01*
X+6240310Y+2262485D02*
X+6251398Y+2251397D01*
X+7859467Y+1975985D02*
X+7837448Y+1953966D01*
X+7177131Y+395218D02*
X+7126000Y+457571D01*
X+1985944Y+3549709D02*
X+2949019Y+3549709D01*
X+3130818Y+3367910D01*
X+3145292Y+3367910D01*
X+3636192Y+2877010D01*
X+3645885Y+2877010D01*
X+3731495Y+2791400D01*
X+1984785Y+3292043D02*
X+1997902Y+3305160D01*
X+3146977Y+3305160D01*
X+3696092Y+2756045D01*
X+3696140Y+2756045D01*
X+2074538Y+2961419D02*
X+2254255Y+2781702D01*
X+3599773Y+2781702D01*
X+3660785Y+2720690D01*
X+2904693Y+2665456D02*
X+3573115Y+2665456D01*
X+3611310Y+2703651D01*
X+3625429Y+2685334D01*
X+4323949Y+1946071D02*
X+4323949Y+1853618D01*
X+4391839Y+1785728D01*
X+4391839Y+1756068D01*
X+4371391Y+1735620D01*
X+4332536Y+1696799D01*
X+4294447Y+1373070D02*
X+4294447Y+1404908D01*
X+4336171Y+1446632D01*
X+4336171Y+1488302D01*
X+4438602Y+1590733D01*
X+4443991Y+1396399D02*
X+4443991Y+1454700D01*
X+4509313Y+1520022D01*
X+4694365Y+681876D02*
X+4555752Y+822362D01*
X+4555752Y+1354329D01*
X+4615379Y+1413956D01*
X+3696140Y+2333195D02*
X+3320000Y+1957055D01*
X+3320000Y+1540000D01*
X+3396300Y+1463700D01*
X+3396300Y+966485D01*
X+9392700Y+1747060D02*
X+9644160Y+1495600D01*
X+9773700Y+1495600D01*
X+9392700Y+1747060D02*
X+9396376Y+1750736D01*
X+9396376Y+1900894D01*
X+6205000Y+1775000D02*
X+6136420Y+1843580D01*
X+6136420Y+2012821D01*
X+6063533Y+2085708D01*
X+7758524Y+1398926D02*
X+7758524Y+1066269D01*
X+6441408Y+1852881D02*
X+6674782Y+1852881D01*
X+6684083Y+1843580D01*
X+6344421Y+1949868D02*
X+6270084Y+1949868D01*
X+6098889Y+2121063D01*
X+8079138Y+694651D02*
X+9449935Y+694651D01*
X+9577784Y+822500D01*
X+7586945Y+1403712D02*
X+7586945Y+1083179D01*
X+7596350Y+1073774D01*
X+9577784Y+822500D02*
X+9773700Y+822500D01*
X+9577784Y+822500D02*
X+9555260Y+822500D01*
X+9380000Y+997760D01*
X+998000Y+3807000D02*
X+254000Y+3807000D01*
X+190500Y+3743500D01*
X+190500Y+2984500D01*
X+381000Y+2794000D01*
X+381000Y+1714500D01*
X+447500Y+1648000D01*
X+769400Y+1648000D01*
X+9024400Y+1863900D02*
X+9052590Y+1862043D01*
X+9054447Y+1863900D01*
X+9201515Y+1866180D02*
X+9056727Y+1866180D01*
X+9054447Y+1863900D01*
X+9201515Y+1866180D02*
X+9199235Y+1863900D01*
X+9054447Y+1863900D01*
X+9024400Y+1863900D02*
X+9054447Y+1863900D01*
X+7160000Y+2210000D02*
X+6434216Y+2210000D01*
X+6311021Y+2333195D01*
X+1475092Y+2389904D02*
X+1475092Y+2621804D01*
X+1883288Y+3030000D01*
X+2952760Y+3030000D01*
X+3109312Y+3186552D01*
X+3411000Y+3680000D02*
X+3411000Y+3571772D01*
X+3588828Y+3393944D01*
X+3588828Y+3358331D01*
X+3943627Y+3003532D01*
X+2694864Y+2492250D02*
X+2631673Y+2429059D01*
X+2317072Y+2429059D01*
X+4650734Y+1378601D02*
X+4708853Y+1436720D01*
X+4708853Y+1436720D01*
X+7236640Y+2800000D02*
X+7332703Y+2703937D01*
X+7636063Y+2703937D01*
X+9024400Y+2117900D02*
X+9133000Y+2117900D01*
X+8110000Y+1990900D02*
X+8306850Y+1990900D01*
X+8360857Y+1936893D01*
X+8446010Y+1936893D01*
X+5709980Y+1732154D02*
X+5768106Y+1674028D01*
X+5800762Y+1674028D01*
X+5982596Y+1855862D01*
X+5982596Y+1877477D01*
X+5978720Y+1881353D01*
X+5932907Y+1932285D01*
X+5922112Y+1944286D01*
X+5922112Y+1943080D02*
X+5932907Y+1932285D01*
X+5980584Y+1884607D01*
X+5980584Y+1884608D02*
X+5932907Y+1932285D01*
X+5922112Y+1943080D01*
X+4099085Y+2285533D02*
X+4324333Y+2060285D01*
X+4369098Y+2060285D01*
X+4710933Y+1718450D01*
X+4710933Y+1438800D01*
X+4708853Y+1436720D01*
X+4069668Y+1959668D02*
X+4127105Y+2017105D01*
X+4351213Y+2017105D01*
X+4501962Y+1866356D01*
X+4501962Y+1783870D01*
X+4085049Y+1944286D02*
X+4069668Y+1959668D01*
X+4049693Y+1979642D01*
X+4297181Y+1732154D02*
X+4225806Y+1660779D01*
X+4225806Y+1626424D01*
X+4223210Y+1623828D01*
X+4163714Y+3062293D02*
X+4391557Y+3062293D01*
X+4458101Y+3128837D01*
X+4395977Y+2935343D02*
X+4290664Y+2935343D01*
X+4163714Y+3062293D01*
X+4049693Y+3109598D02*
X+4106077Y+3053214D01*
X+4111727Y+3053214D01*
X+4136517Y+3028424D01*
X+4136517Y+2904475D01*
X+4163714Y+3062293D02*
X+4085049Y+3140958D01*
X+4085049Y+3144954D01*
X+3837561Y+2191774D02*
X+3508195Y+1862408D01*
X+3508195Y+706453D01*
X+3455767Y+654025D01*
X+3175615Y+654025D01*
X+3093500Y+736140D01*
X+3588847Y+1191790D02*
X+3670328Y+1273271D01*
X+3670328Y+1312881D01*
X+3800000Y+1248581D02*
X+3940632Y+1389213D01*
X+3940632Y+1477476D01*
X+3975220Y+1512064D01*
X+3975220Y+1619946D01*
X+3979219Y+1623945D01*
X+3979219Y+1767746D01*
X+4120404Y+1908931D01*
X+3908272Y+2121063D02*
X+3625905Y+1838696D01*
X+3625905Y+1496733D01*
X+3763066Y+1359572D01*
X+3763066Y+1308633D01*
X+3731420Y+1276987D01*
X+3731420Y+997107D01*
X+3944127Y+784400D01*
X+4138100Y+784400D01*
X+4350312Y+912601D02*
X+4350312Y+1112164D01*
X+4113352Y+1349124D01*
X+4113352Y+1405936D01*
X+4147940Y+1440524D01*
X+4147940Y+1548406D01*
X+4154630Y+1555096D01*
X+4154630Y+1660315D01*
X+4261825Y+1767510D01*
X+4224371Y+1041698D02*
X+4224371Y+1177040D01*
X+4070172Y+1331239D01*
X+4070172Y+1423821D01*
X+4104760Y+1458409D01*
X+4104760Y+1566291D01*
X+4111450Y+1572981D01*
X+4111450Y+1687845D01*
X+4226470Y+1802865D01*
X+4173000Y+944419D02*
X+4026992Y+1090427D01*
X+4026992Y+1441706D01*
X+4061580Y+1476294D01*
X+4061580Y+1584176D01*
X+4068270Y+1590866D01*
X+4068270Y+1715375D01*
X+4191115Y+1838220D01*
X+3890290Y+935223D02*
X+3983812Y+1028745D01*
X+3983812Y+1459591D01*
X+4018400Y+1494179D01*
X+4018400Y+1602061D01*
X+4025090Y+1608751D01*
X+4025090Y+1742907D01*
X+4155759Y+1873576D01*
X+3694485Y+1525139D02*
X+3760184Y+1459440D01*
X+3861531Y+1459440D01*
X+3932040Y+1529949D01*
X+3932040Y+1637831D01*
X+3936039Y+1641830D01*
X+3936039Y+1936698D01*
X+4014338Y+2014997D01*
X+3863459Y+1558355D02*
X+3863459Y+1630315D01*
X+3892859Y+1659715D01*
X+3892859Y+1964228D01*
X+3978983Y+2050352D01*
X+4216520Y+1520000D02*
X+4226447Y+1520000D01*
X+4367891Y+1661444D01*
X+3824278Y+1688121D02*
X+3824278Y+1966359D01*
X+3943627Y+2085708D01*
X+4403247Y+1626088D02*
X+4285101Y+1507942D01*
X+4285101Y+1490931D01*
X+4224564Y+1430394D01*
X+4224564Y+1420162D01*
X+4181932Y+1377530D01*
X+3766851Y+2262485D02*
X+3661969Y+2157603D01*
X+3661969Y+2124076D01*
X+3227478Y+2483744D02*
X+3372744Y+2483744D01*
X+3455653Y+2566653D01*
X+3793638Y+2566653D01*
X+3820291Y+2540000D01*
X+4191000Y+2540000D01*
X+3372744Y+2483744D02*
X+2667000Y+1778000D01*
X+5319900Y+726400D02*
X+5144880Y+901420D01*
X+4911594Y+901420D01*
X+4871420Y+941594D01*
X+4871420Y+1002050D01*
X+4957835Y+1088465D01*
X+4957835Y+1220712D01*
X+4741827Y+1436720D01*
X+4708853Y+1436720D01*
X+4935437Y+1393507D02*
X+4797295Y+1531649D01*
X+4797295Y+1628178D01*
X+5046712Y+1490493D02*
X+5046712Y+1476204D01*
X+5250361Y+1272555D01*
X+5250361Y+1272535D01*
X+5728880Y+2000360D02*
X+5851401Y+1877839D01*
X+5851401Y+1873576D01*
X+5462493Y+1484667D02*
X+5340278Y+1606882D01*
X+5335402Y+1606882D01*
X+6127865Y+2156419D02*
X+6034284Y+2250000D01*
X+6027314Y+2250000D01*
X+5029418Y+1396512D02*
X+5029418Y+1059418D01*
X+4940000Y+970000D01*
X+6127865Y+2156419D02*
X+6134244Y+2156419D01*
X+1619423Y+2171680D02*
X+1693714Y+2171680D01*
X+2107638Y+2585604D01*
X+3180518Y+2585604D01*
X+3225776Y+1714331D02*
X+3225776Y+1240819D01*
X+2995863Y+1010906D01*
X+2995863Y+645395D01*
X+3063687Y+577571D01*
X+3196000Y+577571D01*
X+3316000Y+457571D01*
X+5103535Y+723395D02*
X+5103535Y+546471D01*
X+5094000Y+457571D01*
X+8100000Y+1350000D02*
X+8055085Y+1299200D01*
X+8055085Y+1132656D01*
X+7380000Y+457571D01*
X+5319900Y+726400D02*
X+5329072Y+662900D01*
X+5329072Y+476499D01*
X+5348000Y+457571D01*
X+6204955Y+2227129D02*
X+6209167Y+2227129D01*
X+6413001Y+2023295D01*
X+6413001Y+1921462D01*
X+6372827Y+1881288D01*
X+6372827Y+1199522D01*
X+7177130Y+395219D01*
X+7177131Y+395218D01*
X+4580023Y+1449312D02*
X+4512572Y+1381861D01*
X+4512572Y+766683D01*
X+4705604Y+573651D01*
X+4705604Y+407205D01*
X+4621385Y+322986D01*
X+4451415Y+322986D01*
X+4332000Y+203571D01*
X+4705604Y+282894D02*
X+4705604Y+270465D01*
X+4652894Y+270465D01*
X+4586000Y+203571D01*
X+4686089Y+1343246D02*
X+4647943Y+1306667D01*
X+4627445Y+1286169D01*
X+4627445Y+1252623D01*
X+4802616Y+1077452D01*
X+4802616Y+943278D01*
X+4962880Y+783014D01*
X+4962880Y+326451D01*
X+4840000Y+203571D01*
X+5144295Y+1166469D02*
X+5482541Y+828223D01*
X+5482541Y+356600D01*
X+5418412Y+292471D01*
X+5348000Y+203571D01*
X+5179650Y+1201824D02*
X+5736584Y+644890D01*
X+5736584Y+310331D01*
X+5690900Y+264647D01*
X+5602000Y+203571D01*
X+5568559Y+1590733D02*
X+6244577Y+914715D01*
X+6244577Y+408136D01*
X+6352445Y+300268D01*
X+6352445Y+292471D01*
X+6364000Y+203571D01*
X+4351460Y+784400D02*
X+4351460Y+771971D01*
X+4588258Y+535173D01*
X+4588258Y+441798D01*
X+4586000Y+457571D01*
X+2945409Y+1254433D02*
X+2945409Y+1214762D01*
X+2937116Y+1206469D01*
X+2937116Y+328455D01*
X+3062000Y+203571D01*
X+3152478Y+1585089D02*
X+2432052Y+864663D01*
X+2432052Y+387854D01*
X+2554000Y+265906D01*
X+2554000Y+203571D01*
X+2808000Y+203571D02*
X+2688601Y+322970D01*
X+2688601Y+510883D01*
X+2867002Y+689284D01*
X+2867002Y+1202625D01*
X+3576775Y+1097653D02*
X+3576775Y+713968D01*
X+3450590Y+587783D01*
X+3450590Y+418601D01*
X+3369026Y+337037D01*
X+3148965Y+337037D01*
X+3117331Y+368671D01*
X+3062000Y+457571D01*
X+3940000Y+2380000D02*
X+3919226Y+2380000D01*
X+3775753Y+2523473D01*
X+3565207Y+2523473D01*
X+2360000Y+1318266D01*
X+2360000Y+355850D01*
X+2357075Y+352925D01*
X+3570000Y+203571D02*
X+3651558Y+203571D01*
X+3785558Y+337571D01*
X+3873596Y+337571D01*
X+3958600Y+422575D01*
X+3958600Y+510613D01*
X+4048127Y+600140D01*
X+4405217Y+600140D01*
X+4407678Y+597679D01*
X+4435870Y+1152037D02*
X+4363027Y+1224880D01*
X+4363027Y+1412423D01*
X+4379351Y+1428747D01*
X+4379351Y+1460772D01*
X+4473957Y+1555378D01*
X+6872000Y+203571D02*
X+6750435Y+82006D01*
X+6411424Y+82006D01*
X+5094000Y+203571D02*
X+5223292Y+74279D01*
X+5733772Y+74279D01*
X+5774164Y+114671D01*
X+5856000Y+203571D01*
X+5674625Y+1696799D02*
X+6498582Y+872842D01*
X+6498582Y+365717D01*
X+6618000Y+246299D01*
X+6618000Y+203571D01*
X+5856000Y+203571D02*
X+5987160Y+72411D01*
X+6401829Y+72411D01*
X+6411424Y+82006D01*
X+6483428Y+154010D01*
X+6484564Y+155146D01*
X+6484564Y+318670D01*
X+6431810Y+371424D01*
X+6364000Y+439234D01*
X+6364000Y+457571D01*
X+6431810Y+371424D01*
X+6433977Y+368671D01*
X+6483428Y+319220D01*
X+6483428Y+154010D01*
X+5856000Y+457571D02*
X+5856000Y+337582D01*
X+5860466Y+337582D01*
X+5860466Y+364086D01*
X+6700000Y+670000D02*
X+6707571Y+677571D01*
X+6721425Y+677571D01*
X+6872000Y+526996D01*
X+6872000Y+457571D01*
X+8100000Y+1563360D02*
X+8200467Y+1462893D01*
X+8200467Y+1152863D01*
X+7735708Y+688104D01*
X+7735708Y+591834D01*
X+7177131Y+395218D02*
X+7247855Y+324494D01*
X+7604495Y+324494D01*
X+8363861Y+1083860D01*
X+8363861Y+1192637D01*
X+8908124Y+1736900D01*
X+9024400Y+1736900D01*
X+8287761Y+1274589D02*
X+8287761Y+1311032D01*
X+8981580Y+2004851D01*
X+8706362Y+1068933D02*
X+8581852Y+1068933D01*
X+8459498Y+1191287D01*
X+9024400Y+1863900D02*
X+8974059Y+1863900D01*
X+7842501Y+732342D01*
X+7842501Y+697911D01*
X+6995451Y+381898D02*
X+6951056Y+337503D01*
X+6719201Y+337503D01*
X+6688033Y+368671D01*
X+6618000Y+457571D01*
X+5215005Y+1237180D02*
X+5218907Y+1236768D01*
X+5271647Y+1178170D01*
X+5271830Y+1178170D01*
X+5290000Y+1160000D01*
X+5322686Y+1160000D01*
X+5975451Y+507235D01*
X+5975451Y+338120D01*
X+6110000Y+203571D01*
X+2582000Y+4569000D02*
X+1870000Y+4569000D01*
X+1870000Y+4663360D01*
X+4297181Y+3357086D02*
X+4238269Y+3415998D01*
X+4184949Y+3415998D01*
X+3797178Y+3803769D01*
X+3797178Y+4027029D01*
X+3757004Y+4067203D01*
X+3598397Y+4067203D01*
X+3209295Y+4456305D01*
X+3209295Y+4688295D01*
X+3344000Y+4823000D01*
X+2836000Y+4823000D02*
X+2716718Y+4703718D01*
X+2716718Y+4514311D01*
X+2783233Y+4447796D01*
X+2841736Y+4447796D01*
X+3546050Y+3743482D01*
X+3546050Y+3497787D01*
X+3632008Y+3411829D01*
X+3632008Y+3385863D01*
X+3978983Y+3038888D01*
X+3090000Y+4823000D02*
X+2968610Y+4701610D01*
X+2968610Y+4485642D01*
X+3692410Y+3761842D01*
X+3692410Y+3653253D01*
X+4010862Y+3334801D01*
X+4036622Y+3334801D01*
X+4155759Y+3215664D01*
X+4226470Y+3286375D02*
X+4066283Y+3446562D01*
X+4057153Y+3446562D01*
X+4120404Y+3180309D02*
X+4119692Y+3180309D01*
X+4008380Y+3291621D01*
X+3992977Y+3291621D01*
X+3649230Y+3635368D01*
X+3649230Y+3730767D01*
X+2836000Y+4543997D01*
X+2836000Y+4569000D01*
X+4191115Y+3251020D02*
X+4064154Y+3377981D01*
X+4028747Y+3377981D01*
X+3882601Y+3524127D01*
X+3882601Y+3632716D01*
X+3090000Y+4425317D01*
X+3090000Y+4569000D01*
X+4473957Y+3533863D02*
X+4336866Y+3670954D01*
X+4336866Y+3783134D01*
X+3718935Y+4401065D01*
X+3717363Y+4401065D01*
X+3717363Y+4688363D01*
X+3852000Y+4823000D01*
X+4332536Y+3392441D02*
X+4259690Y+3465287D01*
X+4196725Y+3465287D01*
X+3840358Y+3821654D01*
X+3840358Y+4044914D01*
X+3774889Y+4110383D01*
X+3769617Y+4110383D01*
X+3344000Y+4536000D01*
X+3344000Y+4569000D01*
X+4403247Y+3463152D02*
X+4250506Y+3615893D01*
X+4250506Y+3737984D01*
X+3834927Y+4153563D01*
X+3826437Y+4153563D01*
X+3478657Y+4501343D01*
X+3478657Y+4703657D01*
X+3598000Y+4823000D01*
X+3598000Y+4569000D02*
X+3598000Y+4451999D01*
X+3853256Y+4196743D01*
X+3852812Y+4196743D01*
X+4293686Y+3755869D01*
X+4293686Y+3643423D01*
X+4438602Y+3498507D01*
X+4755487Y+4162991D02*
X+4725755Y+4133259D01*
X+4725755Y+3918461D01*
X+4792155Y+3852061D01*
X+4756800Y+3816705D02*
X+4682575Y+3890930D01*
X+4682575Y+4466394D01*
X+4748177Y+4531996D01*
X+4748177Y+4703177D01*
X+4868000Y+4823000D01*
X+4721445Y+3781350D02*
X+4639395Y+3863400D01*
X+4639395Y+4543605D01*
X+4614000Y+4569000D01*
X+4686089Y+3745995D02*
X+4596215Y+3835869D01*
X+4596215Y+3905074D01*
X+4494561Y+4006728D01*
X+4494561Y+4703561D01*
X+4614000Y+4823000D01*
X+4334316Y+4232578D02*
X+4334316Y+4093154D01*
X+4553035Y+3874435D01*
X+4553035Y+3808338D01*
X+4650734Y+3710639D01*
X+4615379Y+3675284D02*
X+4509855Y+3780808D01*
X+4509855Y+3856550D01*
X+4240529Y+4125876D01*
X+4240529Y+4703529D01*
X+4360000Y+4823000D01*
X+4106000Y+4569000D02*
X+4106000Y+4197277D01*
X+4466675Y+3836602D01*
X+4466675Y+3753277D01*
X+4580023Y+3639929D01*
X+4544668Y+3604573D02*
X+4423495Y+3725746D01*
X+4423495Y+3818717D01*
X+3986492Y+4255720D01*
X+3986492Y+4703492D01*
X+4106000Y+4823000D01*
X+3852000Y+4569000D02*
X+3852000Y+4329147D01*
X+4380315Y+3800832D01*
X+4380315Y+3698216D01*
X+4509313Y+3569218D01*
X+4868000Y+4569000D02*
X+4868000Y+4075679D01*
X+4768935Y+3976614D01*
X+4768935Y+3946056D01*
X+4818733Y+3896258D01*
X+4827511Y+3887416D01*
X+7805200Y+3908600D02*
X+7680715Y+4033085D01*
X+7680715Y+4089315D01*
X+7663262Y+4106768D01*
X+7657832Y+4106768D01*
X+7576600Y+4188000D01*
X+7408000Y+4569000D02*
X+7585981Y+4391019D01*
X+7585981Y+4232450D01*
X+7576600Y+4188000D01*
X+5210912Y+4036665D02*
X+5144295Y+3970048D01*
X+5144295Y+3922771D01*
X+5122000Y+4569000D02*
X+5122000Y+4283629D01*
X+5351630Y+4053999D01*
X+5351630Y+3847264D01*
X+5285716Y+3781350D01*
X+5250361Y+3816705D02*
X+5308450Y+3874794D01*
X+5308450Y+4036114D01*
X+5002590Y+4341974D01*
X+5002590Y+4699207D01*
X+5037483Y+4734100D01*
X+5122000Y+4823000D01*
X+5391782Y+3675284D02*
X+5449911Y+3733413D01*
X+5449911Y+4320264D01*
X+5256490Y+4513685D01*
X+5256490Y+4703490D01*
X+5376000Y+4823000D01*
X+5462493Y+3604573D02*
X+5524596Y+3666676D01*
X+5524596Y+4395962D01*
X+5440458Y+4480100D01*
X+5376000Y+4569000D01*
X+5533203Y+3533863D02*
X+5593597Y+3594257D01*
X+5593597Y+3629963D01*
X+5586820Y+3636740D01*
X+5586820Y+4443329D01*
X+5510000Y+4520149D01*
X+5510000Y+4703000D01*
X+5630000Y+4823000D01*
X+5630000Y+4569000D02*
X+5630000Y+3654625D01*
X+5662599Y+3622026D01*
X+5662599Y+3521837D01*
X+5603914Y+3463152D01*
X+5639269Y+3427797D02*
X+5749398Y+3537926D01*
X+5749398Y+4678576D01*
X+5804922Y+4734100D01*
X+5884000Y+4823000D01*
X+5674625Y+3392441D02*
X+5884000Y+3601816D01*
X+5884000Y+4569000D01*
X+5952581Y+3699421D02*
X+5952581Y+3599687D01*
X+5709980Y+3357086D01*
X+6169599Y+2897466D02*
X+6280527Y+3008394D01*
X+6280527Y+4010592D01*
X+6780000Y+4510065D01*
X+6780000Y+4703000D01*
X+6900000Y+4823000D01*
X+6646000Y+4569000D02*
X+6646000Y+4437130D01*
X+6237347Y+4028477D01*
X+6237347Y+3106635D01*
X+6098889Y+2968177D01*
X+6028178Y+3038888D02*
X+6194167Y+3204877D01*
X+6194167Y+4046362D01*
X+6526049Y+4378244D01*
X+6526049Y+4703049D01*
X+6646000Y+4823000D01*
X+6392000Y+4569000D02*
X+6150987Y+4327987D01*
X+6150987Y+3303118D01*
X+5957467Y+3109598D01*
X+5886757Y+3180309D02*
X+6107807Y+3401359D01*
X+6107807Y+4345872D01*
X+6272422Y+4510487D01*
X+6272422Y+4703422D01*
X+6392000Y+4823000D01*
X+6138000Y+4569000D02*
X+6138000Y+4437130D01*
X+6064627Y+4363757D01*
X+6064627Y+3428890D01*
X+5851401Y+3215664D01*
X+5745335Y+3321730D02*
X+6021447Y+3597842D01*
X+6021447Y+3783486D01*
X+6018610Y+3786323D01*
X+6018610Y+4703610D01*
X+6138000Y+4823000D01*
X+6900000Y+4569000D02*
X+6323707Y+3992707D01*
X+6323707Y+2974480D01*
X+6267888Y+2918661D01*
X+6204955Y+2862111D01*
X+6381731Y+2685334D02*
X+7154000Y+3457603D01*
X+7154000Y+4569000D01*
X+6311021Y+2756045D02*
X+7034235Y+3479259D01*
X+7034235Y+4694235D01*
X+7074100Y+4734100D01*
X+7154000Y+4823000D01*
D11*
X+3522473Y+3335782D03*
X+2683448Y+4172581D03*
X+5587308Y+2412163D03*
X+7463624Y+4199309D03*
X+5454113Y+1145913D03*
X+4389521Y+3157243D03*
X+4797295Y+1628178D03*
X+6135680Y+693587D03*
X+6913343Y+1171846D03*
X+6860269Y+1385121D03*
X+9415560Y+4388170D03*
X+9152516Y+4384780D03*
X+409403Y+1271224D03*
X+589942Y+1271224D03*
X+3220302Y+726250D03*
X+3225776Y+1714331D03*
X+3400948Y+1626745D03*
X+8170263Y+2666630D03*
X+6264322Y+2074988D03*
X+5017125Y+824990D03*
X+7050000Y+2278581D03*
X+8040000Y+2565062D03*
X+4642353Y+1575016D03*
X+4008396Y+3879587D03*
X+4776959Y+3438361D03*
X+4790488Y+3131784D03*
X+4945721Y+3019242D03*
X+4016572Y+3742426D03*
X+5032168Y+2534443D03*
X+5038561Y+2323487D03*
X+5362453Y+3016020D03*
X+5756011Y+1264435D03*
X+4395977Y+2935343D03*
X+5400942Y+1964401D03*
X+5135671Y+1998762D03*
X+5549844Y+3068502D03*
X+4800945Y+2772184D03*
X+4535656Y+2798995D03*
X+1645307Y+1386315D03*
X+1097600Y+1546573D03*
X+1399002Y+1522826D03*
X+2667000Y+1778000D03*
X+1778000Y+3175000D03*
X+8280262Y+1732984D03*
X+9378130Y+1245718D03*
X+5100345Y+1906461D03*
X+4721640Y+1908360D03*
X+1142496Y+1967631D03*
X+1632397Y+1964511D03*
X+7917680Y+4218487D03*
X+7723982Y+4326588D03*
X+7445714Y+4326588D03*
X+627112Y+2577281D03*
X+5079046Y+3082077D03*
X+5379500Y+2698521D03*
X+5136580Y+3486942D03*
X+3861883Y+2709188D03*
X+8814674Y+4214458D03*
X+9315177Y+3711750D03*
X+7917680Y+3763296D03*
X+5643942Y+3071392D03*
X+5559726Y+3199219D03*
X+2694864Y+2492250D03*
X+2199970Y+2739001D03*
X+1979706Y+2577288D03*
X+2317072Y+2429059D03*
X+3596000Y+2454000D03*
X+8446010Y+1936893D03*
X+7859467Y+1975985D03*
X+4334316Y+4232578D03*
X+1985944Y+3549709D03*
X+1984785Y+3292043D03*
X+2074538Y+2961419D03*
X+2904693Y+2665456D03*
X+3890290Y+935223D03*
X+4173000Y+944419D03*
X+4323949Y+1946071D03*
X+4294447Y+1373070D03*
X+4443991Y+1396399D03*
X+4694365Y+681876D03*
X+4705604Y+282894D03*
X+6205000Y+1775000D03*
X+9396376Y+1900894D03*
X+7758524Y+1066269D03*
X+7758524Y+1398926D03*
X+6684083Y+1843580D03*
X+6441408Y+1852881D03*
X+6344421Y+1949868D03*
X+8079138Y+694651D03*
X+7596350Y+1073774D03*
X+7586945Y+1403712D03*
X+9201515Y+1866180D03*
X+7160000Y+2210000D03*
X+3109312Y+3186552D03*
X+1475092Y+2389904D03*
X+4501962Y+1783870D03*
X+4224371Y+1041698D03*
X+4350312Y+912601D03*
X+2945409Y+1254433D03*
X+3694485Y+1525139D03*
X+4223210Y+1623828D03*
X+3152478Y+1585089D03*
X+4136517Y+2904475D03*
X+2867002Y+1202625D03*
X+3588847Y+1191790D03*
X+3800000Y+1248581D03*
X+3670328Y+1312881D03*
X+3863459Y+1558355D03*
X+4216520Y+1520000D03*
X+3824278Y+1688121D03*
X+4181932Y+1377530D03*
X+3576775Y+1097653D03*
X+3661969Y+2124076D03*
X+3227478Y+2483744D03*
X+4191000Y+2540000D03*
X+4935437Y+1393507D03*
X+5046712Y+1490493D03*
X+5728880Y+2000360D03*
X+5335402Y+1606882D03*
X+6027314Y+2250000D03*
X+5029418Y+1396512D03*
X+4940000Y+970000D03*
X+1619423Y+2171680D03*
X+3180518Y+2585604D03*
X+3940000Y+2380000D03*
X+2357075Y+352925D03*
X+4407678Y+597679D03*
X+4435870Y+1152037D03*
X+8706362Y+1068933D03*
X+5860466Y+364086D03*
X+6700000Y+670000D03*
X+7735708Y+591834D03*
X+8287761Y+1274589D03*
X+8459498Y+1191287D03*
X+7842501Y+697911D03*
X+6995451Y+381898D03*
X+4057153Y+3446562D03*
X+4755487Y+4162991D03*
X+5210912Y+4036665D03*
X+5952581Y+3699421D03*
D12*
X+2443571Y+4880339D02*
X+2443571Y+4765661D01*
X+2513232Y+4696000D01*
X+2443571Y+4626339D01*
X+2443571Y+4511661D01*
X+2524661Y+4430571D01*
X+2639339Y+4430571D01*
X+2675896Y+4467128D01*
X+2757458Y+4385567D01*
X+2815961Y+4385567D01*
X+3370399Y+3831129D01*
X+3348400Y+3831129D01*
X+3259871Y+3742600D01*
X+3259871Y+3686461D01*
X+2771077Y+4175255D01*
X+2771077Y+4208878D01*
X+2719745Y+4260210D01*
X+2647151Y+4260210D01*
X+2595819Y+4208878D01*
X+2595819Y+4166229D01*
X+1956979Y+4166229D01*
X+1956979Y+4185279D01*
X+1769021Y+4185279D01*
X+1769021Y+4084818D01*
X+1661779Y+4084818D01*
X+1661779Y+4185279D01*
X+1473821Y+4185279D01*
X+1473821Y+4035789D01*
X+1404215Y+4035789D01*
X+1341979Y+4098025D01*
X+1341979Y+4185279D01*
X+1154021Y+4185279D01*
X+1154021Y+4022721D01*
X+1241275Y+4022721D01*
X+1275245Y+3988751D01*
X+1164303Y+3988751D01*
X+1043979Y+4109075D01*
X+1043979Y+4196329D01*
X+856021Y+4196329D01*
X+856021Y+4033771D01*
X+943275Y+4033771D01*
X+1018917Y+3958129D01*
X+935400Y+3958129D01*
X+846871Y+3869600D01*
X+846871Y+3869229D01*
X+228225Y+3869229D01*
X+128271Y+3769275D01*
X+128271Y+2958725D01*
X+318771Y+2768225D01*
X+318771Y+2693346D01*
X+316088Y+2696029D01*
X+206712Y+2696029D01*
X+129371Y+2618688D01*
X+129371Y+2509312D01*
X+189183Y+2449500D01*
X+129371Y+2389688D01*
X+129371Y+2280312D01*
X+189183Y+2220500D01*
X+129371Y+2160688D01*
X+129371Y+2051312D01*
X+189183Y+1991500D01*
X+129371Y+1931688D01*
X+129371Y+1822312D01*
X+189183Y+1762500D01*
X+129371Y+1702688D01*
X+129371Y+1593312D01*
X+206712Y+1515971D01*
X+316088Y+1515971D01*
X+383371Y+1583254D01*
X+383371Y+1479312D01*
X+460712Y+1401971D01*
X+570088Y+1401971D01*
X+647429Y+1479312D01*
X+647429Y+1585771D01*
X+661535Y+1585771D01*
X+661535Y+1540135D01*
X+877265Y+1540135D01*
X+877265Y+1688189D01*
X+976880Y+1688189D01*
X+1046084Y+1618983D01*
X+1009971Y+1582870D01*
X+1009971Y+1510276D01*
X+1061303Y+1458944D01*
X+1133897Y+1458944D01*
X+1159297Y+1484344D01*
X+1313558Y+1484344D01*
X+1362705Y+1435197D01*
X+1435299Y+1435197D01*
X+1486631Y+1486529D01*
X+1486631Y+1559123D01*
X+1435299Y+1610455D01*
X+1362705Y+1610455D01*
X+1361052Y+1608802D01*
X+1232275Y+1608802D01*
X+1028430Y+1812647D01*
X+891764Y+1812647D01*
X+893888Y+1814771D01*
X+1740275Y+1814771D01*
X+1776728Y+1851224D01*
X+1776728Y+2057776D01*
X+1722271Y+2112233D01*
X+2133413Y+2523375D01*
X+2607235Y+2523375D01*
X+2607235Y+2492625D01*
X+2605898Y+2491288D01*
X+2378769Y+2491288D01*
X+2353369Y+2516688D01*
X+2280775Y+2516688D01*
X+2229443Y+2465356D01*
X+2229443Y+2392762D01*
X+2280775Y+2341430D01*
X+2353369Y+2341430D01*
X+2378769Y+2366830D01*
X+2657448Y+2366830D01*
X+2695239Y+2404621D01*
X+2731161Y+2404621D01*
X+2782493Y+2455953D01*
X+2782493Y+2523375D01*
X+3118821Y+2523375D01*
X+3144221Y+2497975D01*
X+3176678Y+2497975D01*
X+3176678Y+2462702D01*
X+3206436Y+2432944D01*
X+3248520Y+2432944D01*
X+3278278Y+2462702D01*
X+3278278Y+2504786D01*
X+3250952Y+2532112D01*
X+3268147Y+2549307D01*
X+3268147Y+2603227D01*
X+3598890Y+2603227D01*
X+3607584Y+2611921D01*
X+3633803Y+2585702D01*
X+3539432Y+2585702D01*
X+2717800Y+1764070D01*
X+2717800Y+1799042D01*
X+2688042Y+1828800D01*
X+2645958Y+1828800D01*
X+2616200Y+1799042D01*
X+2616200Y+1756958D01*
X+2645958Y+1727200D01*
X+2680930Y+1727200D01*
X+2297771Y+1344041D01*
X+2297771Y+417547D01*
X+2269446Y+389222D01*
X+2269446Y+316628D01*
X+2320778Y+265296D01*
X+2393372Y+265296D01*
X+2429989Y+301913D01*
X+2443281Y+288620D01*
X+2415571Y+260910D01*
X+2415571Y+146232D01*
X+2489873Y+71930D01*
X+607526Y+71930D01*
X+635327Y+542471D01*
X+804929Y+712073D01*
X+804929Y+951927D01*
X+635327Y+1121529D01*
X+395473Y+1121529D01*
X+225871Y+951927D01*
X+225871Y+712073D01*
X+389478Y+548466D01*
X+56930Y+556575D01*
X+56930Y+4178492D01*
X+62010Y+4432538D01*
X+568740Y+4431840D01*
X+596680Y+4916990D01*
X+2480222Y+4916990D01*
X+2443571Y+4880339D01*
X+1065929Y+4362371D02*
X+1043979Y+4362371D01*
X+1043979Y+4268721D01*
X+856021Y+4268721D01*
X+856021Y+4362371D01*
X+839871Y+4362371D01*
X+839871Y+4563029D01*
X+1065929Y+4563029D01*
X+1065929Y+4362371D01*
X+839871Y+4575731D02*
X+839871Y+4776389D01*
X+1065929Y+4776389D01*
X+1065929Y+4575731D01*
X+839871Y+4575731D01*
X+1983029Y+4349671D02*
X+1956979Y+4349671D01*
X+1956979Y+4257671D01*
X+1769021Y+4257671D01*
X+1769021Y+4349671D01*
X+1756971Y+4349671D01*
X+1756971Y+4550329D01*
X+1983029Y+4550329D01*
X+1983029Y+4349671D01*
X+1756971Y+4563031D02*
X+1756971Y+4763689D01*
X+1983029Y+4763689D01*
X+1983029Y+4563031D01*
X+1756971Y+4563031D01*
X+1678229Y+4349671D02*
X+1661779Y+4349671D01*
X+1661779Y+4257671D01*
X+1473821Y+4257671D01*
X+1473821Y+4349671D01*
X+1452171Y+4349671D01*
X+1452171Y+4550329D01*
X+1678229Y+4550329D01*
X+1678229Y+4349671D01*
X+1452171Y+4563031D02*
X+1452171Y+4763689D01*
X+1678229Y+4763689D01*
X+1678229Y+4563031D01*
X+1452171Y+4563031D01*
X+1358029Y+4349671D02*
X+1341979Y+4349671D01*
X+1341979Y+4257671D01*
X+1154021Y+4257671D01*
X+1154021Y+4349671D01*
X+1131971Y+4349671D01*
X+1131971Y+4550329D01*
X+1358029Y+4550329D01*
X+1358029Y+4349671D01*
X+1131971Y+4563031D02*
X+1131971Y+4763689D01*
X+1358029Y+4763689D01*
X+1358029Y+4563031D01*
X+1131971Y+4563031D01*
X+2165129Y+1964600D02*
X+2165129Y+1839400D01*
X+2076600Y+1750871D01*
X+1951400Y+1750871D01*
X+1951137Y+1751133D01*
X+1707535Y+1507531D01*
X+1707535Y+1448012D01*
X+1732936Y+1422612D01*
X+1732936Y+1350018D01*
X+1681604Y+1298686D01*
X+1609010Y+1298686D01*
X+1557678Y+1350018D01*
X+1557678Y+1422612D01*
X+1583078Y+1448012D01*
X+1583079Y+1559083D01*
X+1863133Y+1839137D01*
X+1862871Y+1839400D01*
X+1862871Y+1964600D01*
X+1951400Y+2053129D01*
X+2076600Y+2053129D01*
X+2165129Y+1964600D01*
X+677571Y+1307521D02*
X+677571Y+1234927D01*
X+626239Y+1183595D01*
X+553645Y+1183595D01*
X+528245Y+1208995D01*
X+471100Y+1208995D01*
X+445700Y+1183595D01*
X+373106Y+1183595D01*
X+321774Y+1234927D01*
X+321774Y+1307521D01*
X+373106Y+1358853D01*
X+445700Y+1358853D01*
X+471100Y+1333452D01*
X+528244Y+1333452D01*
X+553645Y+1358853D01*
X+626239Y+1358853D01*
X+677571Y+1307521D01*
X+9491168Y+4812707D02*
X+9474974Y+4788219D01*
X+9455357Y+4697000D01*
X+9474974Y+4605781D01*
X+9498551Y+4570128D01*
X+9502977Y+4424679D01*
X+9451857Y+4475799D01*
X+9379263Y+4475799D01*
X+9340629Y+4437165D01*
X+9340629Y+4468671D01*
X+9341000Y+4468671D01*
X+9429529Y+4557200D01*
X+9429529Y+4682400D01*
X+9341000Y+4770929D01*
X+9215800Y+4770929D01*
X+9127271Y+4682400D01*
X+9127271Y+4557200D01*
X+9215800Y+4468671D01*
X+9216171Y+4468671D01*
X+9216171Y+4445051D01*
X+9188813Y+4472409D01*
X+9116219Y+4472409D01*
X+9064887Y+4421077D01*
X+9064887Y+4348483D01*
X+9082075Y+4331295D01*
X+9027135Y+4276355D01*
X+9027135Y+4260389D01*
X+8840585Y+4260389D01*
X+8835716Y+4265258D01*
X+8830089Y+4265258D01*
X+8830089Y+4360403D01*
X+8831875Y+4360403D01*
X+8952843Y+4481371D01*
X+8972700Y+4481371D01*
X+9061229Y+4569900D01*
X+9061229Y+4695100D01*
X+8972700Y+4783629D01*
X+8847500Y+4783629D01*
X+8758971Y+4695100D01*
X+8758971Y+4569900D01*
X+8812167Y+4516703D01*
X+8780325Y+4484861D01*
X+8760817Y+4484861D01*
X+8754785Y+4478829D01*
X+8629431Y+4478829D01*
X+8629431Y+4340773D01*
X+8616729Y+4353475D01*
X+8616729Y+4478829D01*
X+8416071Y+4478829D01*
X+8416071Y+4252771D01*
X+8524021Y+4252771D01*
X+8524021Y+4193079D01*
X+8435121Y+4193079D01*
X+8435121Y+3649521D01*
X+8737379Y+3649521D01*
X+8737379Y+3799834D01*
X+9045707Y+3799834D01*
X+9054144Y+3808271D01*
X+9101871Y+3808271D01*
X+9101871Y+3605071D01*
X+9227225Y+3605071D01*
X+9280669Y+3551627D01*
X+9511891Y+3551627D01*
X+9560211Y+3599947D01*
X+9560211Y+3824389D01*
X+9515889Y+3868711D01*
X+9515889Y+3983529D01*
X+9315231Y+3983529D01*
X+9315231Y+3762550D01*
X+9302529Y+3762550D01*
X+9302529Y+3983529D01*
X+9264429Y+3983529D01*
X+9264429Y+4087671D01*
X+9302529Y+4087671D01*
X+9302529Y+4225727D01*
X+9315231Y+4213025D01*
X+9315231Y+4087671D01*
X+9515889Y+4087671D01*
X+9515889Y+4313729D01*
X+9477789Y+4313729D01*
X+9477789Y+4326473D01*
X+9503189Y+4351873D01*
X+9503189Y+4417722D01*
X+9504460Y+4375960D01*
X+9907070Y+4369734D01*
X+9907070Y+1900729D01*
X+9622571Y+1900729D01*
X+9622571Y+1605193D01*
X+9505729Y+1722035D01*
X+9505729Y+1847389D01*
X+9466797Y+1847389D01*
X+9484005Y+1864597D01*
X+9484005Y+1937191D01*
X+9432673Y+1988523D01*
X+9360079Y+1988523D01*
X+9358394Y+1986838D01*
X+9358394Y+2161441D01*
X+9321941Y+2197894D01*
X+9300998Y+2197894D01*
X+9332775Y+2229671D01*
X+9458129Y+2229671D01*
X+9458129Y+2455729D01*
X+9365315Y+2455729D01*
X+9320346Y+2500698D01*
X+8945506Y+2500698D01*
X+8933333Y+2512871D01*
X+9045989Y+2512871D01*
X+9045989Y+2738929D01*
X+8845331Y+2738929D01*
X+8845331Y+2600873D01*
X+8832629Y+2613575D01*
X+8832629Y+2738929D01*
X+8794528Y+2738929D01*
X+8794528Y+3269102D01*
X+8216679Y+3846951D01*
X+8216679Y+4193079D01*
X+8083329Y+4193079D01*
X+8083329Y+4481371D01*
X+8083700Y+4481371D01*
X+8172229Y+4569900D01*
X+8172229Y+4695100D01*
X+8083700Y+4783629D01*
X+7958500Y+4783629D01*
X+7869971Y+4695100D01*
X+7869971Y+4569900D01*
X+7958500Y+4481371D01*
X+7958871Y+4481371D01*
X+7958871Y+4249138D01*
X+7938722Y+4269287D01*
X+7896638Y+4269287D01*
X+7866880Y+4239529D01*
X+7866880Y+4222289D01*
X+7692171Y+4222289D01*
X+7692171Y+4165863D01*
X+7689037Y+4168997D01*
X+7683606Y+4168997D01*
X+7657879Y+4194724D01*
X+7657879Y+4281979D01*
X+7648210Y+4281979D01*
X+7648210Y+4416794D01*
X+7546429Y+4518575D01*
X+7546429Y+4626339D01*
X+7488197Y+4684571D01*
X+7546429Y+4684571D01*
X+7546429Y+4916990D01*
X+9487994Y+4916990D01*
X+9491168Y+4812707D01*
X+8212871Y+4569900D02*
X+8212871Y+4695100D01*
X+8301400Y+4783629D01*
X+8426600Y+4783629D01*
X+8515129Y+4695100D01*
X+8515129Y+4569900D01*
X+8426600Y+4481371D01*
X+8301400Y+4481371D01*
X+8212871Y+4569900D01*
X+7673182Y+4305546D02*
X+7673182Y+4347630D01*
X+7702940Y+4377388D01*
X+7745024Y+4377388D01*
X+7774782Y+4347630D01*
X+7774782Y+4305546D01*
X+7745024Y+4275788D01*
X+7702940Y+4275788D01*
X+7673182Y+4305546D01*
X+9600158Y+1451598D02*
X+9618385Y+1433371D01*
X+9622571Y+1433371D01*
X+9622571Y+1344471D01*
X+9907070Y+1344471D01*
X+9907070Y+1227629D01*
X+9622571Y+1227629D01*
X+9622571Y+884729D01*
X+9581035Y+884729D01*
X+9493029Y+972735D01*
X+9493029Y+1098089D01*
X+9348226Y+1098089D01*
X+9348226Y+1203780D01*
X+9357088Y+1194918D01*
X+9399172Y+1194918D01*
X+9428930Y+1224676D01*
X+9428930Y+1266760D01*
X+9399172Y+1296518D01*
X+9357088Y+1296518D01*
X+9348226Y+1287656D01*
X+9348226Y+1401222D01*
X+9380375Y+1433371D01*
X+9505729Y+1433371D01*
X+9505729Y+1546027D01*
X+9600158Y+1451598D01*
X+7350661Y+4430571D02*
X+7458425Y+4430571D01*
X+7523752Y+4365244D01*
X+7523752Y+4281979D01*
X+7504880Y+4281979D01*
X+7499921Y+4286938D01*
X+7477906Y+4286938D01*
X+7496514Y+4305546D01*
X+7496514Y+4347630D01*
X+7466756Y+4377388D01*
X+7424672Y+4377388D01*
X+7394914Y+4347630D01*
X+7394914Y+4305546D01*
X+7418480Y+4281979D01*
X+7260371Y+4281979D01*
X+7260371Y+4094021D01*
X+7285771Y+4094021D01*
X+7285771Y+3719371D01*
X+7486429Y+3719371D01*
X+7486429Y+4035227D01*
X+7499131Y+4022525D01*
X+7499131Y+3719371D01*
X+7699789Y+3719371D01*
X+7699789Y+3808271D01*
X+7817525Y+3808271D01*
X+7830225Y+3795571D01*
X+7878113Y+3795571D01*
X+7866880Y+3784338D01*
X+7866880Y+3742254D01*
X+7896638Y+3712496D01*
X+7914421Y+3712496D01*
X+7914421Y+3649521D01*
X+8216679Y+3649521D01*
X+8216679Y+3670942D01*
X+8670071Y+3217550D01*
X+8670071Y+2803118D01*
X+8485932Y+2987257D01*
X+8055893Y+2987257D01*
X+8001665Y+2933029D01*
X+7876311Y+2933029D01*
X+7876311Y+2807671D01*
X+7834806Y+2766166D01*
X+7550329Y+2766166D01*
X+7550329Y+2913029D01*
X+7349671Y+2913029D01*
X+7349671Y+2774973D01*
X+7336969Y+2787675D01*
X+7336969Y+2913029D01*
X+7136311Y+2913029D01*
X+7136311Y+2825596D01*
X+6797073Y+2486358D01*
X+6404168Y+2486358D01*
X+5774751Y+3115775D01*
X+5774751Y+3117618D01*
X+6340012Y+2552357D01*
X+6514708Y+2727053D01*
X+6513081Y+2728680D01*
X+7216229Y+3431828D01*
X+7216229Y+4435461D01*
X+7281000Y+4500232D01*
X+7350661Y+4430571D01*
X+7914421Y+4008929D02*
X+7792875Y+4008929D01*
X+7780173Y+4021631D01*
X+7914421Y+4021631D01*
X+7914421Y+4008929D01*
X+2859850Y+3611938D02*
X+2047641Y+3611938D01*
X+2022241Y+3637338D01*
X+1949647Y+3637338D01*
X+1898315Y+3586006D01*
X+1898315Y+3513412D01*
X+1949647Y+3462080D01*
X+2022241Y+3462080D01*
X+2047641Y+3487480D01*
X+2923244Y+3487480D01*
X+3043335Y+3367389D01*
X+2033365Y+3367389D01*
X+2021082Y+3379672D01*
X+1948488Y+3379672D01*
X+1897156Y+3328340D01*
X+1897156Y+3255746D01*
X+1948488Y+3204414D01*
X+2021082Y+3204414D01*
X+2059599Y+3242931D01*
X+2633202Y+3242931D01*
X+2624871Y+3234600D01*
X+2624871Y+3109400D01*
X+2642042Y+3092229D01*
X+1857513Y+3092229D01*
X+1412863Y+2647579D01*
X+1412863Y+2451601D01*
X+1387463Y+2426201D01*
X+1387463Y+2353607D01*
X+1438795Y+2302275D01*
X+1478483Y+2302275D01*
X+1461771Y+2285563D01*
X+1461771Y+2133225D01*
X+1561725Y+2033271D01*
X+1625225Y+2033271D01*
X+1643185Y+2015311D01*
X+1611355Y+2015311D01*
X+1581597Y+1985553D01*
X+1581597Y+1943469D01*
X+1585837Y+1939229D01*
X+1185936Y+1939229D01*
X+1193296Y+1946589D01*
X+1193296Y+1988673D01*
X+1163538Y+2018431D01*
X+1121454Y+2018431D01*
X+1091696Y+1988673D01*
X+1091696Y+1946589D01*
X+1099056Y+1939229D01*
X+893888Y+1939229D01*
X+841617Y+1991500D01*
X+901429Y+2051312D01*
X+901429Y+2160688D01*
X+841617Y+2220500D01*
X+901429Y+2280312D01*
X+901429Y+2389688D01*
X+841617Y+2449500D01*
X+901429Y+2509312D01*
X+901429Y+2618688D01*
X+824088Y+2696029D01*
X+714712Y+2696029D01*
X+646764Y+2628081D01*
X+606070Y+2628081D01*
X+576312Y+2598323D01*
X+576312Y+2575805D01*
X+570088Y+2582029D01*
X+460712Y+2582029D01*
X+443229Y+2564546D01*
X+443229Y+2819775D01*
X+252729Y+3010275D01*
X+252729Y+3183215D01*
X+395473Y+3040471D01*
X+635327Y+3040471D01*
X+804929Y+3210073D01*
X+804929Y+3449927D01*
X+635327Y+3619529D01*
X+395473Y+3619529D01*
X+252729Y+3476785D01*
X+252729Y+3717725D01*
X+279775Y+3744771D01*
X+846871Y+3744771D01*
X+846871Y+3744400D01*
X+935400Y+3655871D01*
X+1060600Y+3655871D01*
X+1149129Y+3744400D01*
X+1149129Y+3864295D01*
X+2607493Y+3864295D01*
X+2859850Y+3611938D01*
X+1727200Y+3153958D02*
X+1727200Y+3196042D01*
X+1756958Y+3225800D01*
X+1799042Y+3225800D01*
X+1828800Y+3196042D01*
X+1828800Y+3153958D01*
X+1799042Y+3124200D01*
X+1756958Y+3124200D01*
X+1727200Y+3153958D01*
X+4940361Y+4341974D02*
X+4940361Y+4316199D01*
X+5153440Y+4103119D01*
X+5123283Y+4072962D01*
X+5123283Y+4037040D01*
X+5082067Y+3995824D01*
X+5082067Y+3970048D01*
X+5082066Y+3951800D01*
X+5011318Y+3881052D01*
X+5295787Y+3596583D01*
X+5187380Y+3488176D01*
X+5187380Y+3507984D01*
X+5157622Y+3537742D01*
X+5115538Y+3537742D01*
X+5085780Y+3507984D01*
X+5085780Y+3465900D01*
X+5115538Y+3436142D01*
X+5135346Y+3436142D01*
X+5131213Y+3432009D01*
X+4864588Y+3432009D01*
X+4864588Y+3437986D01*
X+4920259Y+3493657D01*
X+4920259Y+3805468D01*
X+4995843Y+3881052D01*
X+4878610Y+3998285D01*
X+4930229Y+4049904D01*
X+4930229Y+4435461D01*
X+4940361Y+4445593D01*
X+4940361Y+4341974D01*
X+3948975Y+3247619D02*
X+3967202Y+3229392D01*
X+3982605Y+3229392D01*
X+3988698Y+3223299D01*
X+3935637Y+3170238D01*
X+3694237Y+3411638D01*
X+3694237Y+3437604D01*
X+3608279Y+3523562D01*
X+3608279Y+3588315D01*
X+3948975Y+3247619D01*
X+5684695Y+3207673D02*
X+5650293Y+3173271D01*
X+5650293Y+3122192D01*
X+5622900Y+3122192D01*
X+5621490Y+3120782D01*
X+5587310Y+3154961D01*
X+5610526Y+3178177D01*
X+5610526Y+3205570D01*
X+5646468Y+3205570D01*
X+5666633Y+3225735D01*
X+5684695Y+3207673D01*
X+5385418Y+3506952D02*
X+5562342Y+3330028D01*
X+5505545Y+3330028D01*
X+5300224Y+3124707D01*
X+5300224Y+3077717D01*
X+5274824Y+3052317D01*
X+5274824Y+2979723D01*
X+5326156Y+2928391D01*
X+5398750Y+2928391D01*
X+5450082Y+2979723D01*
X+5450082Y+3052317D01*
X+5426962Y+3075437D01*
X+5519314Y+3167789D01*
X+5530972Y+3156131D01*
X+5513547Y+3156131D01*
X+5462215Y+3104799D01*
X+5462215Y+3032205D01*
X+5513547Y+2980873D01*
X+5549469Y+2980873D01*
X+5589759Y+2940583D01*
X+5698123Y+2940583D01*
X+5736028Y+2978488D01*
X+6258823Y+2455694D01*
X+6102184Y+2299055D01*
X+6063611Y+2337629D01*
X+5991017Y+2337629D01*
X+5939685Y+2286297D01*
X+5939685Y+2213703D01*
X+5978258Y+2175129D01*
X+5816509Y+2013379D01*
X+5816509Y+2036657D01*
X+5765177Y+2087989D01*
X+5692583Y+2087989D01*
X+5649537Y+2044943D01*
X+5649537Y+2350466D01*
X+5674937Y+2375866D01*
X+5674937Y+2448460D01*
X+5623605Y+2499792D01*
X+5551011Y+2499792D01*
X+5499679Y+2448460D01*
X+5499679Y+2375866D01*
X+5525079Y+2350466D01*
X+5525079Y+1899762D01*
X+5613985Y+1810856D01*
X+5612358Y+1809228D01*
X+5597550Y+1794421D01*
X+5423031Y+1619902D01*
X+5423031Y+1643179D01*
X+5371699Y+1694511D01*
X+5299105Y+1694511D01*
X+5247773Y+1643179D01*
X+5247773Y+1570585D01*
X+5299105Y+1519253D01*
X+5322382Y+1519253D01*
X+5207024Y+1403895D01*
X+5134341Y+1476578D01*
X+5134341Y+1526790D01*
X+5083009Y+1578122D01*
X+5010415Y+1578122D01*
X+4959083Y+1526790D01*
X+4959083Y+1481136D01*
X+4935812Y+1481136D01*
X+4859524Y+1557424D01*
X+4859524Y+1566481D01*
X+4884924Y+1591881D01*
X+4884924Y+1664475D01*
X+4833592Y+1715807D01*
X+4773162Y+1715807D01*
X+4773162Y+1744225D01*
X+4394873Y+2122514D01*
X+4350108Y+2122514D01*
X+4249318Y+2223304D01*
X+4310736Y+2223304D01*
X+4520330Y+2432898D01*
X+4520330Y+2711366D01*
X+4563503Y+2711366D01*
X+4564914Y+2709955D01*
X+4739248Y+2709955D01*
X+4764648Y+2684555D01*
X+4837242Y+2684555D01*
X+4888574Y+2735887D01*
X+4888574Y+2808481D01*
X+4837242Y+2859813D01*
X+4764648Y+2859813D01*
X+4739248Y+2834413D01*
X+4623285Y+2834413D01*
X+4623285Y+2835292D01*
X+4571953Y+2886624D01*
X+4520330Y+2886624D01*
X+4520330Y+3211424D01*
X+4490345Y+3241409D01*
X+4490345Y+3307551D01*
X+5182763Y+3307551D01*
X+5383791Y+3508579D01*
X+5385418Y+3506952D01*
X+4878117Y+3168081D02*
X+4878117Y+3132158D01*
X+4906414Y+3103861D01*
X+4909424Y+3106871D01*
X+4982018Y+3106871D01*
X+5033350Y+3055539D01*
X+5033350Y+2982945D01*
X+4982018Y+2931613D01*
X+4909424Y+2931613D01*
X+4884024Y+2957013D01*
X+4877255Y+2957013D01*
X+4790113Y+3044155D01*
X+4754191Y+3044155D01*
X+4702859Y+3095487D01*
X+4702859Y+3168081D01*
X+4754191Y+3219413D01*
X+4826785Y+3219413D01*
X+4878117Y+3168081D01*
X+5119797Y+2570740D02*
X+5119797Y+2498146D01*
X+5094396Y+2472745D01*
X+5094396Y+2391577D01*
X+5126190Y+2359784D01*
X+5126190Y+2287190D01*
X+5074858Y+2235858D01*
X+5002264Y+2235858D01*
X+4950932Y+2287190D01*
X+4950932Y+2359784D01*
X+4969939Y+2378791D01*
X+4969939Y+2472746D01*
X+4944539Y+2498146D01*
X+4944539Y+2570740D01*
X+4995871Y+2622072D01*
X+5068465Y+2622072D01*
X+5119797Y+2570740D01*
X+5223300Y+2035059D02*
X+5223300Y+2026630D01*
X+5339245Y+2026630D01*
X+5364645Y+2052030D01*
X+5437239Y+2052030D01*
X+5488571Y+2000698D01*
X+5488571Y+1928104D01*
X+5437239Y+1876772D01*
X+5364645Y+1876772D01*
X+5339245Y+1902172D01*
X+5151145Y+1902172D01*
X+5151145Y+1885419D01*
X+5121387Y+1855661D01*
X+5079303Y+1855661D01*
X+5049545Y+1885419D01*
X+5049545Y+1927503D01*
X+5066274Y+1944232D01*
X+5048042Y+1962465D01*
X+5048042Y+2035059D01*
X+5099374Y+2086391D01*
X+5171968Y+2086391D01*
X+5223300Y+2035059D01*
X+4670840Y+1887318D02*
X+4670840Y+1929402D01*
X+4700598Y+1959160D01*
X+4742682Y+1959160D01*
X+4772440Y+1929402D01*
X+4772440Y+1887318D01*
X+4742682Y+1857560D01*
X+4700598Y+1857560D01*
X+4670840Y+1887318D01*
X+5028246Y+3061035D02*
X+5028246Y+3103119D01*
X+5058004Y+3132877D01*
X+5100088Y+3132877D01*
X+5129846Y+3103119D01*
X+5129846Y+3061035D01*
X+5100088Y+3031277D01*
X+5058004Y+3031277D01*
X+5028246Y+3061035D01*
X+5328700Y+2677479D02*
X+5328700Y+2719563D01*
X+5358458Y+2749321D01*
X+5400542Y+2749321D01*
X+5430300Y+2719563D01*
X+5430300Y+2677479D01*
X+5400542Y+2647721D01*
X+5358458Y+2647721D01*
X+5328700Y+2677479D01*
X+4137938Y+3000064D02*
X+4137939Y+3000064D01*
X+4264889Y+2873114D01*
X+4334280Y+2873114D01*
X+4359680Y+2847714D01*
X+4395872Y+2847714D01*
X+4395872Y+2484448D01*
X+4259186Y+2347762D01*
X+4027629Y+2347762D01*
X+4027629Y+2416297D01*
X+3976297Y+2467629D01*
X+3919601Y+2467629D01*
X+3801528Y+2585702D01*
X+3700493Y+2585702D01*
X+3811083Y+2696292D01*
X+3811083Y+2688146D01*
X+3840841Y+2658388D01*
X+3882925Y+2658388D01*
X+3912683Y+2688146D01*
X+3912683Y+2730230D01*
X+3882925Y+2759988D01*
X+3874779Y+2759988D01*
X+4126396Y+3011605D01*
X+4137938Y+3000064D01*
X+4085717Y+2883433D02*
X+4085717Y+2925517D01*
X+4115475Y+2955275D01*
X+4157559Y+2955275D01*
X+4187317Y+2925517D01*
X+4187317Y+2883433D01*
X+4157559Y+2853675D01*
X+4115475Y+2853675D01*
X+4085717Y+2883433D01*
X+4140200Y+2518958D02*
X+4140200Y+2561042D01*
X+4169958Y+2590800D01*
X+4212042Y+2590800D01*
X+4241800Y+2561042D01*
X+4241800Y+2518958D01*
X+4212042Y+2489200D01*
X+4169958Y+2489200D01*
X+4140200Y+2518958D01*
X+8631971Y+2665208D02*
X+8631971Y+2512871D01*
X+8757325Y+2512871D01*
X+8893954Y+2376242D01*
X+9044111Y+2376242D01*
X+9044111Y+2330375D01*
X+8956154Y+2242418D01*
X+8884414Y+2242418D01*
X+8830006Y+2188010D01*
X+8830006Y+2031588D01*
X+8873271Y+1988322D01*
X+8873271Y+1984546D01*
X+8262696Y+1373971D01*
X+8262696Y+1488668D01*
X+8213029Y+1538335D01*
X+8213029Y+1655621D01*
X+8261129Y+1655621D01*
X+8261129Y+1682184D01*
X+8301304Y+1682184D01*
X+8331062Y+1711942D01*
X+8331062Y+1754026D01*
X+8301304Y+1783784D01*
X+8261129Y+1783784D01*
X+8261129Y+1928671D01*
X+8281075Y+1928671D01*
X+8298628Y+1911117D01*
X+8335081Y+1874664D01*
X+8384313Y+1874664D01*
X+8409713Y+1849264D01*
X+8482307Y+1849264D01*
X+8533639Y+1900596D01*
X+8533639Y+1973190D01*
X+8482307Y+2024522D01*
X+8409713Y+2024522D01*
X+8385472Y+2000281D01*
X+8369079Y+2016676D01*
X+8332626Y+2053129D01*
X+8261129Y+2053129D01*
X+8261129Y+2199179D01*
X+8232499Y+2199179D01*
X+8232499Y+2355505D01*
X+8163029Y+2424975D01*
X+8163029Y+2550329D01*
X+8127629Y+2550329D01*
X+8127629Y+2585338D01*
X+8133966Y+2579001D01*
X+8206560Y+2579001D01*
X+8257892Y+2630333D01*
X+8257892Y+2702927D01*
X+8253848Y+2706971D01*
X+8290329Y+2706971D01*
X+8290329Y+2862799D01*
X+8434381Y+2862799D01*
X+8631971Y+2665208D01*
X+637371Y+2514746D02*
X+625636Y+2526481D01*
X+637371Y+2526481D01*
X+637371Y+2514746D01*
X+697183Y+2449500D02*
X+647429Y+2399746D01*
X+647429Y+2499254D01*
X+697183Y+2449500D01*
X+4275283Y+2021331D02*
X+4236320Y+1982368D01*
X+4236320Y+1967711D01*
X+4005893Y+2198137D01*
X+4005894Y+2198138D01*
X+3980728Y+2223304D01*
X+4073310Y+2223304D01*
X+4275283Y+2021331D01*
X+4506709Y+1834670D02*
X+4480920Y+1834670D01*
X+4454068Y+1807818D01*
X+4454068Y+1811503D01*
X+4386178Y+1879393D01*
X+4386178Y+1884374D01*
X+4411578Y+1909774D01*
X+4411578Y+1929801D01*
X+4506709Y+1834670D01*
X+4648704Y+1692675D02*
X+4648704Y+1662645D01*
X+4606056Y+1662645D01*
X+4573721Y+1630310D01*
X+4454068Y+1749963D01*
X+4454068Y+1759922D01*
X+4480920Y+1733070D01*
X+4523004Y+1733070D01*
X+4552762Y+1762828D01*
X+4552762Y+1788617D01*
X+4648704Y+1692675D01*
X+6226082Y+1905866D02*
X+6244309Y+1887639D01*
X+6282724Y+1887639D01*
X+6308124Y+1862239D01*
X+6310598Y+1862239D01*
X+6310598Y+1173747D01*
X+6726715Y+757629D01*
X+6663703Y+757629D01*
X+6612371Y+706297D01*
X+6612371Y+633703D01*
X+6650074Y+596000D01*
X+6560811Y+596000D01*
X+6560811Y+898617D01*
X+5805974Y+1653452D01*
X+6074191Y+1921669D01*
X+6074191Y+1817805D01*
X+6117371Y+1774625D01*
X+6117371Y+1738703D01*
X+6168703Y+1687371D01*
X+6241297Y+1687371D01*
X+6292629Y+1738703D01*
X+6292629Y+1811297D01*
X+6241297Y+1862629D01*
X+6205375Y+1862629D01*
X+6198649Y+1869355D01*
X+6198649Y+1933298D01*
X+6226082Y+1905866D01*
X+9233936Y+1630235D02*
X+9233936Y+1604460D01*
X+9279671Y+1558725D01*
X+9279671Y+1508675D01*
X+9223768Y+1452772D01*
X+9223768Y+852628D01*
X+9266971Y+809425D01*
X+9266971Y+756880D01*
X+8140835Y+756880D01*
X+8132860Y+764855D01*
X+8426090Y+1058085D01*
X+8426090Y+1152853D01*
X+8438456Y+1140487D01*
X+8480540Y+1140487D01*
X+8510298Y+1170245D01*
X+8510298Y+1212329D01*
X+8490927Y+1231699D01*
X+8914849Y+1655621D01*
X+9175529Y+1655621D01*
X+9175529Y+1778551D01*
X+9233936Y+1778551D01*
X+9233936Y+1630235D01*
X+8655562Y+1047891D02*
X+8655562Y+1089975D01*
X+8685320Y+1119733D01*
X+8727404Y+1119733D01*
X+8757162Y+1089975D01*
X+8757162Y+1047891D01*
X+8727404Y+1018133D01*
X+8685320Y+1018133D01*
X+8655562Y+1047891D01*
X+6436353Y+847067D02*
X+6436353Y+580986D01*
X+6421339Y+596000D01*
X+6306806Y+596000D01*
X+6306806Y+940490D01*
X+5699908Y+1547386D01*
X+5717971Y+1565449D01*
X+6436353Y+847067D01*
X+2804773Y+1140928D02*
X+2804773Y+715059D01*
X+2648526Y+558812D01*
X+2611339Y+596000D01*
X+2496661Y+596000D01*
X+2494281Y+593620D01*
X+2494281Y+838888D01*
X+2800547Y+1145154D01*
X+2804773Y+1140928D01*
X+8763874Y+4235500D02*
X+8763874Y+4193416D01*
X+8783261Y+4174029D01*
X+8737379Y+4174029D01*
X+8737379Y+4193079D01*
X+8648478Y+4193079D01*
X+8648478Y+4252771D01*
X+8781145Y+4252771D01*
X+8763874Y+4235500D01*
X+8835171Y+4147733D02*
X+8819246Y+4163658D01*
X+8835171Y+4163658D01*
X+8835171Y+4147733D01*
X+8960525Y+4047029D02*
X+8935875Y+4047029D01*
X+8923173Y+4059731D01*
X+8973227Y+4059731D01*
X+8960525Y+4047029D01*
D10*
X+515400Y+1433721D02*
X+515400Y+1534000D01*
X+415121Y+1534000D02*
X+515400Y+1534000D01*
X+615679Y+1534000D02*
X+515400Y+1534000D01*
X+515400Y+2550279D02*
X+515400Y+2450000D01*
X+615679Y+2450000D02*
X+515400Y+2450000D01*
X+515400Y+1089779D02*
X+515400Y+832000D01*
X+515400Y+574221D02*
X+515400Y+832000D01*
X+257621Y+832000D02*
X+515400Y+832000D01*
X+773179Y+832000D02*
X+515400Y+832000D01*
X+515400Y+3587779D02*
X+515400Y+3330000D01*
X+515400Y+3072221D02*
X+515400Y+3330000D01*
X+773179Y+3330000D02*
X+515400Y+3330000D01*
X+1034179Y+4676060D02*
X+952900Y+4676060D01*
X+952900Y+4744639D02*
X+952900Y+4676060D01*
X+871621Y+4676060D02*
X+952900Y+4676060D01*
X+952900Y+4607481D02*
X+952900Y+4676060D01*
X+2475321Y+4823000D02*
X+2582000Y+4823000D01*
X+2475321Y+4569000D02*
X+2582000Y+4569000D01*
X+2582000Y+4462321D02*
X+2582000Y+4569000D01*
X+1951279Y+4663360D02*
X+1870000Y+4663360D01*
X+1870000Y+4731939D02*
X+1870000Y+4663360D01*
X+1788721Y+4663360D02*
X+1870000Y+4663360D01*
X+1870000Y+4594781D02*
X+1870000Y+4663360D01*
X+1646479Y+4663360D02*
X+1565200Y+4663360D01*
X+1565200Y+4731939D02*
X+1565200Y+4663360D01*
X+1483921Y+4663360D02*
X+1565200Y+4663360D01*
X+1565200Y+4594781D02*
X+1565200Y+4663360D01*
X+1326279Y+4663360D02*
X+1245000Y+4663360D01*
X+1245000Y+4731939D02*
X+1245000Y+4663360D01*
X+1163721Y+4663360D02*
X+1245000Y+4663360D01*
X+1245000Y+4594781D02*
X+1245000Y+4663360D01*
X+4114590Y+2044539D02*
X+4049693Y+1979642D01*
X+4149946Y+2009183D02*
X+4085049Y+1944286D01*
X+5987009Y+1879389D02*
X+5922112Y+1944286D01*
X+5857215Y+2009183D02*
X+5922112Y+1944286D01*
X+6210768Y+2362737D02*
X+6275665Y+2297840D01*
X+5857215Y+3080057D02*
X+5922112Y+3144954D01*
X+5256174Y+3681098D02*
X+5321071Y+3745995D01*
X+3984796Y+3174495D02*
X+4049693Y+3109598D01*
X+7518579Y+2800000D02*
X+7450000Y+2800000D01*
X+7450000Y+2881279D02*
X+7450000Y+2800000D01*
X+7381421Y+2800000D02*
X+7450000Y+2800000D01*
X+9893079Y+1076500D02*
X+9773700Y+1076500D01*
X+9773700Y+1195879D02*
X+9773700Y+1076500D01*
X+9654321Y+1076500D02*
X+9773700Y+1076500D01*
X+9893079Y+1749600D02*
X+9773700Y+1749600D01*
X+9773700Y+1868979D02*
X+9773700Y+1749600D01*
X+9654321Y+1749600D02*
X+9773700Y+1749600D01*
X+8244621Y+4632500D02*
X+8364000Y+4632500D01*
X+8483379Y+4632500D02*
X+8364000Y+4632500D01*
X+8364000Y+4513121D02*
X+8364000Y+4632500D01*
X+8364000Y+4751879D02*
X+8364000Y+4632500D01*
X+8948200Y+4228639D02*
X+8948200Y+4160060D01*
X+8866921Y+4160060D02*
X+8948200Y+4160060D01*
X+8948200Y+4091481D02*
X+8948200Y+4160060D01*
X+8065550Y+3681271D02*
X+8065550Y+3730800D01*
X+7805200Y+4190539D02*
X+7805200Y+4121960D01*
X+7805200Y+4053381D02*
X+7805200Y+4121960D01*
X+7454679Y+4010200D02*
X+7386100Y+4010200D01*
X+7317521Y+4010200D02*
X+7386100Y+4010200D01*
X+7386100Y+3751121D02*
X+7386100Y+3832400D01*
X+7454679Y+3832400D02*
X+7386100Y+3832400D01*
X+7317521Y+3832400D02*
X+7386100Y+3832400D01*
X+8945660Y+2544621D02*
X+8945660Y+2625900D01*
X+9014239Y+2625900D02*
X+8945660Y+2625900D01*
X+8945660Y+2707179D02*
X+8945660Y+2625900D01*
X+8877081Y+2625900D02*
X+8945660Y+2625900D01*
X+6364000Y+564250D02*
X+6364000Y+457571D01*
X+2554000Y+564250D02*
X+2554000Y+457571D01*
D13*
X+769400Y+1648000D03*
D14*
X+769400Y+1877000D03*
X+769400Y+2106000D03*
X+769400Y+2335000D03*
X+769400Y+2564000D03*
X+515400Y+1534000D03*
X+515400Y+1762000D03*
X+515400Y+1992000D03*
X+515400Y+2220000D03*
X+515400Y+2450000D03*
X+261400Y+1648000D03*
X+261400Y+1877000D03*
X+261400Y+2106000D03*
X+261400Y+2335000D03*
X+261400Y+2564000D03*
D15*
X+515400Y+832000D03*
X+515400Y+3330000D03*
D16*
X+952900Y+4462700D03*
X+952900Y+4676060D03*
D17*
X+7408000Y+4823000D03*
D18*
X+7154000Y+4823000D03*
X+6900000Y+4823000D03*
X+6646000Y+4823000D03*
X+6392000Y+4823000D03*
X+6138000Y+4823000D03*
X+5884000Y+4823000D03*
X+5630000Y+4823000D03*
X+5376000Y+4823000D03*
X+5122000Y+4823000D03*
X+4868000Y+4823000D03*
X+4614000Y+4823000D03*
X+4360000Y+4823000D03*
X+4106000Y+4823000D03*
X+3852000Y+4823000D03*
X+3598000Y+4823000D03*
X+3344000Y+4823000D03*
X+3090000Y+4823000D03*
X+2836000Y+4823000D03*
X+2582000Y+4823000D03*
X+2582000Y+4569000D03*
X+2836000Y+4569000D03*
X+3090000Y+4569000D03*
X+3344000Y+4569000D03*
X+3598000Y+4569000D03*
X+3852000Y+4569000D03*
X+4106000Y+4569000D03*
X+4360000Y+4569000D03*
X+4614000Y+4569000D03*
X+4868000Y+4569000D03*
X+5122000Y+4569000D03*
X+5376000Y+4569000D03*
X+5630000Y+4569000D03*
X+5884000Y+4569000D03*
X+6138000Y+4569000D03*
X+6392000Y+4569000D03*
X+6646000Y+4569000D03*
X+6900000Y+4569000D03*
X+7154000Y+4569000D03*
X+7408000Y+4569000D03*
D16*
X+1870000Y+4450000D03*
X+1870000Y+4663360D03*
X+1565200Y+4450000D03*
X+1565200Y+4663360D03*
X+1245000Y+4450000D03*
X+1245000Y+4663360D03*
D19*
X+950000Y+4115050D03*
X+950000Y+4350000D03*
X+1248000Y+4104000D03*
X+1248000Y+4338950D03*
X+1567800Y+4104000D03*
X+1567800Y+4338950D03*
X+1863000Y+4104000D03*
X+1863000Y+4338950D03*
D70*
X+3625429Y+2403906D03*
X+3660785Y+2368551D03*
X+3696140Y+2333195D03*
X+3731495Y+2297840D03*
X+3766851Y+2262485D03*
X+3802206Y+2227129D03*
X+3837561Y+2191774D03*
X+3872917Y+2156419D03*
X+3908272Y+2121063D03*
X+3943627Y+2085708D03*
X+3978983Y+2050352D03*
X+4014338Y+2014997D03*
X+4049693Y+1979642D03*
X+4085049Y+1944286D03*
X+4120404Y+1908931D03*
X+4155759Y+1873576D03*
X+4191115Y+1838220D03*
X+4226470Y+1802865D03*
X+4261825Y+1767510D03*
X+4297181Y+1732154D03*
X+4332536Y+1696799D03*
X+4367891Y+1661444D03*
X+4403247Y+1626088D03*
X+4438602Y+1590733D03*
X+4473957Y+1555378D03*
X+4509313Y+1520022D03*
X+4544668Y+1484667D03*
X+4580023Y+1449312D03*
X+4615379Y+1413956D03*
X+4650734Y+1378601D03*
X+4686089Y+1343246D03*
X+4721445Y+1307890D03*
X+4756800Y+1272535D03*
X+4792155Y+1237180D03*
X+4827511Y+1201824D03*
X+4862866Y+1166469D03*
D71*
X+5144295Y+1166469D03*
X+5179650Y+1201824D03*
X+5215005Y+1237180D03*
X+5250361Y+1272535D03*
X+5285716Y+1307890D03*
X+5321071Y+1343246D03*
X+5356427Y+1378601D03*
X+5391782Y+1413956D03*
X+5427137Y+1449312D03*
X+5462493Y+1484667D03*
X+5497848Y+1520022D03*
X+5533203Y+1555378D03*
X+5568559Y+1590733D03*
X+5603914Y+1626088D03*
X+5639269Y+1661444D03*
X+5674625Y+1696799D03*
X+5709980Y+1732154D03*
X+5745335Y+1767510D03*
X+5780691Y+1802865D03*
X+5816046Y+1838220D03*
X+5851401Y+1873576D03*
X+5886757Y+1908931D03*
X+5922112Y+1944286D03*
X+5957467Y+1979642D03*
X+5992823Y+2014997D03*
X+6028178Y+2050352D03*
X+6063533Y+2085708D03*
X+6098889Y+2121063D03*
X+6134244Y+2156419D03*
X+6169599Y+2191774D03*
X+6204955Y+2227129D03*
X+6240310Y+2262485D03*
X+6275665Y+2297840D03*
X+6311021Y+2333195D03*
X+6346376Y+2368551D03*
X+6381731Y+2403906D03*
D70*
X+6381731Y+2685334D03*
X+6346376Y+2720690D03*
X+6311021Y+2756045D03*
X+6275665Y+2791400D03*
X+6240310Y+2826756D03*
X+6204955Y+2862111D03*
X+6169599Y+2897466D03*
X+6134244Y+2932822D03*
X+6098889Y+2968177D03*
X+6063533Y+3003532D03*
X+6028178Y+3038888D03*
X+5992823Y+3074243D03*
X+5957467Y+3109598D03*
X+5922112Y+3144954D03*
X+5886757Y+3180309D03*
X+5851401Y+3215664D03*
X+5816046Y+3251020D03*
X+5780691Y+3286375D03*
X+5745335Y+3321730D03*
X+5709980Y+3357086D03*
X+5674625Y+3392441D03*
X+5639269Y+3427797D03*
X+5603914Y+3463152D03*
X+5568559Y+3498507D03*
X+5533203Y+3533863D03*
X+5497848Y+3569218D03*
X+5462493Y+3604573D03*
X+5427137Y+3639929D03*
X+5391782Y+3675284D03*
X+5356427Y+3710639D03*
X+5321071Y+3745995D03*
X+5285716Y+3781350D03*
X+5250361Y+3816705D03*
X+5215005Y+3852061D03*
X+5179650Y+3887416D03*
X+5144295Y+3922771D03*
D71*
X+4862866Y+3922771D03*
X+4827511Y+3887416D03*
X+4792155Y+3852061D03*
X+4756800Y+3816705D03*
X+4721445Y+3781350D03*
X+4686089Y+3745995D03*
X+4650734Y+3710639D03*
X+4615379Y+3675284D03*
X+4580023Y+3639929D03*
X+4544668Y+3604573D03*
X+4509313Y+3569218D03*
X+4473957Y+3533863D03*
X+4438602Y+3498507D03*
X+4403247Y+3463152D03*
X+4367891Y+3427797D03*
X+4332536Y+3392441D03*
X+4297181Y+3357086D03*
X+4261825Y+3321730D03*
X+4226470Y+3286375D03*
X+4191115Y+3251020D03*
X+4155759Y+3215664D03*
X+4120404Y+3180309D03*
X+4085049Y+3144954D03*
X+4049693Y+3109598D03*
X+4014338Y+3074243D03*
X+3978983Y+3038888D03*
X+3943627Y+3003532D03*
X+3908272Y+2968177D03*
X+3872917Y+2932822D03*
X+3837561Y+2897466D03*
X+3802206Y+2862111D03*
X+3766851Y+2826756D03*
X+3731495Y+2791400D03*
X+3696140Y+2756045D03*
X+3660785Y+2720690D03*
X+3625429Y+2685334D03*
D16*
X+3093500Y+736140D03*
X+3093500Y+949500D03*
X+3396300Y+966485D03*
X+3396300Y+753125D03*
D20*
X+4138100Y+784400D03*
X+4351460Y+784400D03*
X+5319900Y+726400D03*
X+5106540Y+726400D03*
D21*
X+8110000Y+2117900D03*
X+8110000Y+1990900D03*
X+8110000Y+1863900D03*
X+8110000Y+1736900D03*
X+9024400Y+1736900D03*
X+9024400Y+1863900D03*
X+9024400Y+1990900D03*
X+9024400Y+2117900D03*
D20*
X+7236640Y+2800000D03*
X+7450000Y+2800000D03*
D16*
X+8100000Y+1350000D03*
X+8100000Y+1563360D03*
X+8050000Y+2236640D03*
X+8050000Y+2450000D03*
D22*
X+9773700Y+822500D03*
X+9773700Y+1076500D03*
X+9773700Y+1495600D03*
X+9773700Y+1749600D03*
D16*
X+9380000Y+784400D03*
X+9380000Y+997760D03*
X+9392700Y+1533700D03*
X+9392700Y+1747060D03*
D23*
X+8021100Y+4632500D03*
X+8364000Y+4632500D03*
X+8910100Y+4632500D03*
X+9278400Y+4619800D03*
D20*
X+8516400Y+4365800D03*
X+8729760Y+4365800D03*
X+9202200Y+4200700D03*
X+9415560Y+4200700D03*
X+9202200Y+3870500D03*
X+9415560Y+3870500D03*
X+9202200Y+3718100D03*
X+9415560Y+3718100D03*
D16*
X+8948200Y+3946700D03*
X+8948200Y+4160060D03*
D21*
X+8065550Y+4111800D03*
X+8065550Y+3984800D03*
X+8065550Y+3857800D03*
X+8065550Y+3730800D03*
X+8586250Y+3730800D03*
X+8586250Y+3857800D03*
X+8586250Y+3984800D03*
X+8586250Y+4111800D03*
D16*
X+7805200Y+3908600D03*
X+7805200Y+4121960D03*
D24*
X+7576600Y+4188000D03*
X+7341650Y+4188000D03*
D20*
X+7386100Y+4010200D03*
X+7599460Y+4010200D03*
X+7386100Y+3832400D03*
X+7599460Y+3832400D03*
X+8732300Y+2625900D03*
X+8945660Y+2625900D03*
X+9357800Y+2342700D03*
X+9144440Y+2342700D03*
D23*
X+2014000Y+1902000D03*
X+2776000Y+3172000D03*
X+3411000Y+3680000D03*
X+3284000Y+2918000D03*
X+998000Y+3807000D03*
D17*
X+7380000Y+457571D03*
D18*
X+7126000Y+457571D03*
X+6872000Y+457571D03*
X+6618000Y+457571D03*
X+6364000Y+457571D03*
X+6110000Y+457571D03*
X+5856000Y+457571D03*
X+5602000Y+457571D03*
X+5348000Y+457571D03*
X+5094000Y+457571D03*
X+4840000Y+457571D03*
X+4586000Y+457571D03*
X+4332000Y+457571D03*
X+4078000Y+457571D03*
X+3824000Y+457571D03*
X+3570000Y+457571D03*
X+3316000Y+457571D03*
X+3062000Y+457571D03*
X+2808000Y+457571D03*
X+2554000Y+457571D03*
X+2554000Y+203571D03*
X+2808000Y+203571D03*
X+3062000Y+203571D03*
X+3316000Y+203571D03*
X+3570000Y+203571D03*
X+3824000Y+203571D03*
X+4078000Y+203571D03*
X+4332000Y+203571D03*
X+4586000Y+203571D03*
X+4840000Y+203571D03*
X+5094000Y+203571D03*
X+5348000Y+203571D03*
X+5602000Y+203571D03*
X+5856000Y+203571D03*
X+6110000Y+203571D03*
X+6364000Y+203571D03*
X+6618000Y+203571D03*
X+6872000Y+203571D03*
X+7126000Y+203571D03*
X+7380000Y+203571D03*
D20*
X+7976640Y+2820000D03*
X+8190000Y+2820000D03*
D25*
X-18000Y-3000D02*
X+9982000Y-3000D01*
X+9982000Y+4997000D01*
X-18000Y+4997000D01*
X-18000Y-3000D01*
X+9832000Y+4697000D02*
X+9831498Y+4709258D01*
X+9827422Y+4733775D01*
X+9818906Y+4758292D01*
X+9805032Y+4782809D01*
X+9783806Y+4807161D01*
X+9759289Y+4825555D01*
X+9734772Y+4837411D01*
X+9710255Y+4844315D01*
X+9685738Y+4846953D01*
X+9682000Y+4847000D01*
X+9532000Y+4697000D02*
X+9532502Y+4709258D01*
X+9536578Y+4733775D01*
X+9545094Y+4758292D01*
X+9558968Y+4782809D01*
X+9580194Y+4807161D01*
X+9604711Y+4825555D01*
X+9629228Y+4837411D01*
X+9653745Y+4844315D01*
X+9678262Y+4846953D01*
X+9682000Y+4847000D01*
X+9532000Y+4697000D02*
X+9532502Y+4684742D01*
X+9536578Y+4660225D01*
X+9545094Y+4635708D01*
X+9558968Y+4611191D01*
X+9580194Y+4586839D01*
X+9604711Y+4568445D01*
X+9629228Y+4556589D01*
X+9653745Y+4549685D01*
X+9678262Y+4547047D01*
X+9682000Y+4547000D01*
X+9832000Y+4697000D02*
X+9831498Y+4684742D01*
X+9827422Y+4660225D01*
X+9818906Y+4635708D01*
X+9805032Y+4611191D01*
X+9783806Y+4586839D01*
X+9759289Y+4568445D01*
X+9734772Y+4556589D01*
X+9710255Y+4549685D01*
X+9685738Y+4547047D01*
X+9682000Y+4547000D01*
X+9832000Y+297000D02*
X+9831498Y+309258D01*
X+9827422Y+333775D01*
X+9818906Y+358292D01*
X+9805032Y+382809D01*
X+9783806Y+407161D01*
X+9759289Y+425555D01*
X+9734772Y+437411D01*
X+9710255Y+444315D01*
X+9685738Y+446953D01*
X+9682000Y+447000D01*
X+9532000Y+297000D02*
X+9532502Y+309258D01*
X+9536578Y+333775D01*
X+9545094Y+358292D01*
X+9558968Y+382809D01*
X+9580194Y+407161D01*
X+9604711Y+425555D01*
X+9629228Y+437411D01*
X+9653745Y+444315D01*
X+9678262Y+446953D01*
X+9682000Y+447000D01*
X+9532000Y+297000D02*
X+9532502Y+284742D01*
X+9536578Y+260225D01*
X+9545094Y+235708D01*
X+9558968Y+211191D01*
X+9580194Y+186839D01*
X+9604711Y+168445D01*
X+9629228Y+156589D01*
X+9653745Y+149685D01*
X+9678262Y+147047D01*
X+9682000Y+147000D01*
X+9832000Y+297000D02*
X+9831498Y+284742D01*
X+9827422Y+260225D01*
X+9818906Y+235708D01*
X+9805032Y+211191D01*
X+9783806Y+186839D01*
X+9759289Y+168445D01*
X+9734772Y+156589D01*
X+9710255Y+149685D01*
X+9685738Y+147047D01*
X+9682000Y+147000D01*
X+432000Y+297000D02*
X+431498Y+309258D01*
X+427422Y+333775D01*
X+418906Y+358292D01*
X+405032Y+382809D01*
X+383806Y+407161D01*
X+359289Y+425555D01*
X+334772Y+437411D01*
X+310255Y+444315D01*
X+285738Y+446953D01*
X+282000Y+447000D01*
X+132000Y+297000D02*
X+132502Y+309258D01*
X+136578Y+333775D01*
X+145094Y+358292D01*
X+158968Y+382809D01*
X+180194Y+407161D01*
X+204711Y+425555D01*
X+229228Y+437411D01*
X+253745Y+444315D01*
X+278262Y+446953D01*
X+282000Y+447000D01*
X+132000Y+297000D02*
X+132502Y+284742D01*
X+136578Y+260225D01*
X+145094Y+235708D01*
X+158968Y+211191D01*
X+180194Y+186839D01*
X+204711Y+168445D01*
X+229228Y+156589D01*
X+253745Y+149685D01*
X+278262Y+147047D01*
X+282000Y+147000D01*
X+432000Y+297000D02*
X+431498Y+284742D01*
X+427422Y+260225D01*
X+418906Y+235708D01*
X+405032Y+211191D01*
X+383806Y+186839D01*
X+359289Y+168445D01*
X+334772Y+156589D01*
X+310255Y+149685D01*
X+285738Y+147047D01*
X+282000Y+147000D01*
X+432000Y+4697000D02*
X+431498Y+4709258D01*
X+427422Y+4733775D01*
X+418906Y+4758292D01*
X+405032Y+4782809D01*
X+383806Y+4807161D01*
X+359289Y+4825555D01*
X+334772Y+4837411D01*
X+310255Y+4844315D01*
X+285738Y+4846953D01*
X+282000Y+4847000D01*
X+132000Y+4697000D02*
X+132502Y+4709258D01*
X+136578Y+4733775D01*
X+145094Y+4758292D01*
X+158968Y+4782809D01*
X+180194Y+4807161D01*
X+204711Y+4825555D01*
X+229228Y+4837411D01*
X+253745Y+4844315D01*
X+278262Y+4846953D01*
X+282000Y+4847000D01*
X+132000Y+4697000D02*
X+132502Y+4684742D01*
X+136578Y+4660225D01*
X+145094Y+4635708D01*
X+158968Y+4611191D01*
X+180194Y+4586839D01*
X+204711Y+4568445D01*
X+229228Y+4556589D01*
X+253745Y+4549685D01*
X+278262Y+4547047D01*
X+282000Y+4547000D01*
X+432000Y+4697000D02*
X+431498Y+4684742D01*
X+427422Y+4660225D01*
X+418906Y+4635708D01*
X+405032Y+4611191D01*
X+383806Y+4586839D01*
X+359289Y+4568445D01*
X+334772Y+4556589D01*
X+310255Y+4549685D01*
X+285738Y+4547047D01*
X+282000Y+4547000D01*
M02*
