G04 PROTEUS GERBER X2 FILE*
%TF.GenerationSoftware,Labcenter,Proteus,8.16-SP3-Build36097*%
%TF.CreationDate,2025-11-07T09:35:32+00:00*%
%TF.FileFunction,Copper,L2,Bot*%
%TF.FilePolarity,Positive*%
%TF.Part,Single*%
%TF.SameCoordinates,{b300ba1a-dc7e-4a19-be50-5429eaf46598}*%
%FSLAX45Y45*%
%MOMM*%
G01*
%TA.AperFunction,Conductor*%
%ADD10C,0.254000*%
%TA.AperFunction,ViaPad*%
%ADD11C,0.762000*%
%TA.AperFunction,Conductor*%
%ADD12C,0.635000*%
%TA.AperFunction,WasherPad*%
%ADD13R,1.166720X1.166720*%
%TA.AperFunction,ComponentPad*%
%ADD14C,1.650000*%
%ADD15C,4.800000*%
%TA.AperFunction,ComponentPad*%
%ADD17R,1.778000X1.778000*%
%ADD18C,1.778000*%
%TA.AperFunction,ComponentPad*%
%ADD22R,2.032000X2.032000*%
%TA.AperFunction,ComponentPad*%
%ADD23C,2.032000*%
%TA.AperFunction,SMDPad,CuDef*%
%ADD20R,1.016000X1.270000*%
%ADD16R,1.270000X1.016000*%
%TA.AperFunction,SMDPad,CuDef*%
%ADD26R,1.400000X1.200000*%
%TA.AperFunction,Profile*%
%ADD25C,0.101600*%
%TD.AperFunction*%
%TA.AperFunction,Conductor*%
G36*
X+9491168Y+4812707D02*
X+9474974Y+4788219D01*
X+9455357Y+4697000D01*
X+9474974Y+4605781D01*
X+9498550Y+4570129D01*
X+9502977Y+4424679D01*
X+9451857Y+4475799D01*
X+9379263Y+4475799D01*
X+9354383Y+4450919D01*
X+9209434Y+4451787D01*
X+9188813Y+4472409D01*
X+9116219Y+4472409D01*
X+9064887Y+4421077D01*
X+9064887Y+4348483D01*
X+9116219Y+4297151D01*
X+9188813Y+4297151D01*
X+9218842Y+4327180D01*
X+9353600Y+4326203D01*
X+9379263Y+4300541D01*
X+9451857Y+4300541D01*
X+9503189Y+4351873D01*
X+9503189Y+4417721D01*
X+9504460Y+4375960D01*
X+9907070Y+4369734D01*
X+9907070Y+1900729D01*
X+9622571Y+1900729D01*
X+9622571Y+1344471D01*
X+9907070Y+1344471D01*
X+9907070Y+1227629D01*
X+9622571Y+1227629D01*
X+9622571Y+671371D01*
X+9907070Y+671371D01*
X+9907070Y+567961D01*
X+9476520Y+583740D01*
X+9392298Y+71930D01*
X+7444127Y+71930D01*
X+7518429Y+146232D01*
X+7518429Y+260910D01*
X+7505608Y+273730D01*
X+7736083Y+504205D01*
X+7772005Y+504205D01*
X+7823337Y+555537D01*
X+7823337Y+610282D01*
X+7878798Y+610282D01*
X+7925318Y+656802D01*
X+7949698Y+632422D01*
X+8017441Y+632422D01*
X+8042841Y+607022D01*
X+8115435Y+607022D01*
X+8166767Y+658354D01*
X+8166767Y+730948D01*
X+8115435Y+782280D01*
X+8042841Y+782280D01*
X+8017441Y+756880D01*
X+8001248Y+756880D01*
X+7779488Y+978640D01*
X+7794821Y+978640D01*
X+7813565Y+997384D01*
X+8580870Y+997384D01*
X+8655562Y+1072076D01*
X+8655562Y+1047891D01*
X+8685320Y+1018133D01*
X+8727404Y+1018133D01*
X+8757162Y+1047891D01*
X+8757162Y+1089975D01*
X+8727404Y+1119733D01*
X+8703219Y+1119733D01*
X+9396751Y+1813265D01*
X+9432673Y+1813265D01*
X+9484005Y+1864597D01*
X+9484005Y+1937191D01*
X+9432673Y+1988523D01*
X+9360079Y+1988523D01*
X+9308747Y+1937191D01*
X+9308747Y+1901269D01*
X+9289144Y+1881666D01*
X+9289144Y+1902477D01*
X+9237812Y+1953809D01*
X+9165218Y+1953809D01*
X+9138049Y+1926640D01*
X+8792460Y+2272229D01*
X+7221697Y+2272229D01*
X+7196297Y+2297629D01*
X+7157052Y+2297629D01*
X+7362256Y+2502833D01*
X+7978303Y+2502833D01*
X+8003703Y+2477433D01*
X+8076297Y+2477433D01*
X+8127629Y+2528765D01*
X+8127629Y+2571414D01*
X+8163051Y+2571414D01*
X+8170638Y+2579001D01*
X+8206560Y+2579001D01*
X+8257892Y+2630333D01*
X+8257892Y+2702927D01*
X+8206560Y+2754259D01*
X+8133966Y+2754259D01*
X+8082634Y+2702927D01*
X+8082634Y+2695872D01*
X+6385182Y+2695872D01*
X+6026939Y+2337629D01*
X+5991017Y+2337629D01*
X+5939685Y+2286297D01*
X+5939685Y+2250375D01*
X+5924329Y+2235019D01*
X+5924329Y+2269029D01*
X+5723671Y+2269029D01*
X+5723671Y+2143275D01*
X+5710969Y+2130573D01*
X+5710969Y+2269029D01*
X+5510311Y+2269029D01*
X+5510311Y+2042971D01*
X+5647565Y+2042971D01*
X+5641251Y+2036657D01*
X+5641251Y+2000735D01*
X+5416329Y+1775813D01*
X+5416329Y+1876772D01*
X+5437239Y+1876772D01*
X+5488571Y+1928104D01*
X+5488571Y+2000698D01*
X+5437239Y+2052030D01*
X+5416329Y+2052030D01*
X+5416329Y+2269029D01*
X+5215671Y+2269029D01*
X+5215671Y+2042971D01*
X+5355586Y+2042971D01*
X+5313313Y+2000698D01*
X+5313313Y+1964776D01*
X+5253771Y+1905234D01*
X+5253771Y+1888029D01*
X+5215671Y+1888029D01*
X+5215671Y+1661971D01*
X+5266565Y+1661971D01*
X+5247773Y+1643179D01*
X+5247773Y+1570585D01*
X+5277930Y+1540428D01*
X+5196242Y+1458740D01*
X+5134341Y+1458740D01*
X+5134341Y+1526790D01*
X+5083009Y+1578122D01*
X+5047087Y+1578122D01*
X+4997229Y+1627980D01*
X+4997229Y+1661971D01*
X+5202969Y+1661971D01*
X+5202969Y+1888029D01*
X+5151145Y+1888029D01*
X+5151145Y+1911133D01*
X+5171968Y+1911133D01*
X+5223300Y+1962465D01*
X+5223300Y+2035059D01*
X+5202969Y+2055390D01*
X+5202969Y+2269029D01*
X+5169370Y+2269029D01*
X+5169370Y+2343006D01*
X+5176675Y+2350311D01*
X+5302029Y+2350311D01*
X+5302029Y+2436060D01*
X+5467740Y+2601771D01*
X+5510311Y+2601771D01*
X+5510311Y+2550971D01*
X+5638112Y+2550971D01*
X+5586933Y+2499792D01*
X+5551011Y+2499792D01*
X+5499679Y+2448460D01*
X+5499679Y+2375866D01*
X+5551011Y+2324534D01*
X+5623605Y+2324534D01*
X+5674937Y+2375866D01*
X+5674937Y+2411788D01*
X+5763449Y+2500300D01*
X+5906243Y+2500300D01*
X+5968682Y+2562739D01*
X+5968682Y+3028397D01*
X+5184533Y+3812546D01*
X+4877397Y+3812546D01*
X+5123283Y+4058432D01*
X+5123283Y+4000368D01*
X+5174615Y+3949036D01*
X+5247209Y+3949036D01*
X+5298541Y+4000368D01*
X+5298541Y+4036290D01*
X+5399331Y+4137080D01*
X+7401927Y+4137080D01*
X+7427327Y+4111680D01*
X+7499921Y+4111680D01*
X+7551253Y+4163012D01*
X+7551253Y+4235606D01*
X+7499921Y+4286938D01*
X+7477906Y+4286938D01*
X+7496514Y+4305546D01*
X+7496514Y+4347630D01*
X+7466756Y+4377388D01*
X+7424672Y+4377388D01*
X+7394914Y+4347630D01*
X+7394914Y+4305546D01*
X+7420424Y+4280035D01*
X+7401927Y+4261538D01*
X+5347781Y+4261538D01*
X+5210537Y+4124294D01*
X+5189145Y+4124294D01*
X+5534041Y+4469190D01*
X+5572661Y+4430571D01*
X+5687339Y+4430571D01*
X+5757000Y+4500232D01*
X+5826661Y+4430571D01*
X+5941339Y+4430571D01*
X+6011000Y+4500232D01*
X+6080661Y+4430571D01*
X+6195339Y+4430571D01*
X+6265000Y+4500232D01*
X+6334661Y+4430571D01*
X+6449339Y+4430571D01*
X+6519000Y+4500232D01*
X+6588661Y+4430571D01*
X+6703339Y+4430571D01*
X+6773000Y+4500232D01*
X+6842661Y+4430571D01*
X+6957339Y+4430571D01*
X+7027000Y+4500232D01*
X+7096661Y+4430571D01*
X+7211339Y+4430571D01*
X+7281000Y+4500232D01*
X+7350661Y+4430571D01*
X+7465339Y+4430571D01*
X+7546429Y+4511661D01*
X+7546429Y+4626339D01*
X+7488197Y+4684571D01*
X+7546429Y+4684571D01*
X+7546429Y+4922070D01*
X+9487839Y+4922070D01*
X+9491168Y+4812707D01*
G37*
%TD.AperFunction*%
%LPC*%
G36*
X+8847237Y+4783366D02*
X+8847500Y+4783629D01*
X+8972700Y+4783629D01*
X+9061229Y+4695100D01*
X+9061229Y+4569900D01*
X+8972700Y+4481371D01*
X+8847500Y+4481371D01*
X+8758971Y+4569900D01*
X+8758971Y+4695100D01*
X+8759233Y+4695362D01*
X+8748030Y+4706566D01*
X+8503663Y+4706566D01*
X+8515129Y+4695100D01*
X+8515129Y+4569900D01*
X+8426600Y+4481371D01*
X+8301400Y+4481371D01*
X+8215570Y+4567201D01*
X+8215570Y+3876195D01*
X+7933671Y+3594296D01*
X+5969702Y+3594296D01*
X+5952206Y+3611792D01*
X+5916284Y+3611792D01*
X+5864952Y+3663124D01*
X+5864952Y+3735718D01*
X+5916284Y+3787050D01*
X+5988878Y+3787050D01*
X+6040210Y+3735718D01*
X+6040210Y+3718754D01*
X+7882121Y+3718754D01*
X+7886250Y+3722883D01*
X+7866880Y+3742254D01*
X+7866880Y+3784338D01*
X+7896638Y+3814096D01*
X+7938722Y+3814096D01*
X+7958092Y+3794725D01*
X+8091112Y+3927745D01*
X+8091112Y+4488783D01*
X+8083700Y+4481371D01*
X+7958500Y+4481371D01*
X+7869971Y+4569900D01*
X+7869971Y+4695100D01*
X+7958500Y+4783629D01*
X+8083700Y+4783629D01*
X+8160050Y+4707278D01*
X+8283796Y+4831024D01*
X+8799580Y+4831024D01*
X+8847237Y+4783366D01*
G37*
G36*
X+9127271Y+4557200D02*
X+9127271Y+4682400D01*
X+9215800Y+4770929D01*
X+9341000Y+4770929D01*
X+9429529Y+4682400D01*
X+9429529Y+4557200D01*
X+9341000Y+4468671D01*
X+9215800Y+4468671D01*
X+9127271Y+4557200D01*
G37*
G36*
X+9327330Y+1224676D02*
X+9327330Y+1266760D01*
X+9357088Y+1296518D01*
X+9399172Y+1296518D01*
X+9428930Y+1266760D01*
X+9428930Y+1224676D01*
X+9399172Y+1194918D01*
X+9357088Y+1194918D01*
X+9327330Y+1224676D01*
G37*
G36*
X+7866880Y+4197445D02*
X+7866880Y+4239529D01*
X+7896638Y+4269287D01*
X+7938722Y+4269287D01*
X+7968480Y+4239529D01*
X+7968480Y+4197445D01*
X+7938722Y+4167687D01*
X+7896638Y+4167687D01*
X+7866880Y+4197445D01*
G37*
G36*
X+7673182Y+4305546D02*
X+7673182Y+4347630D01*
X+7702940Y+4377388D01*
X+7745024Y+4377388D01*
X+7774782Y+4347630D01*
X+7774782Y+4305546D01*
X+7745024Y+4275788D01*
X+7702940Y+4275788D01*
X+7673182Y+4305546D01*
G37*
G36*
X+8763874Y+4193416D02*
X+8763874Y+4235500D01*
X+8793632Y+4265258D01*
X+8835716Y+4265258D01*
X+8865474Y+4235500D01*
X+8865474Y+4193416D01*
X+8835716Y+4163658D01*
X+8793632Y+4163658D01*
X+8763874Y+4193416D01*
G37*
G36*
X+9264377Y+3690708D02*
X+9264377Y+3732792D01*
X+9294135Y+3762550D01*
X+9336219Y+3762550D01*
X+9365977Y+3732792D01*
X+9365977Y+3690708D01*
X+9336219Y+3660950D01*
X+9294135Y+3660950D01*
X+9264377Y+3690708D01*
G37*
%LPD*%
%TA.AperFunction,Conductor*%
G36*
X+2443571Y+4880339D02*
X+2443571Y+4765661D01*
X+2513232Y+4696000D01*
X+2443571Y+4626339D01*
X+2443571Y+4511661D01*
X+2524661Y+4430571D01*
X+2639339Y+4430571D01*
X+2709000Y+4500232D01*
X+2778661Y+4430571D01*
X+2893339Y+4430571D01*
X+2963000Y+4500232D01*
X+3032661Y+4430571D01*
X+3147339Y+4430571D01*
X+3217000Y+4500232D01*
X+3286661Y+4430571D01*
X+3401339Y+4430571D01*
X+3471000Y+4500232D01*
X+3540661Y+4430571D01*
X+3655339Y+4430571D01*
X+3725000Y+4500232D01*
X+3794661Y+4430571D01*
X+3909339Y+4430571D01*
X+3979000Y+4500232D01*
X+4048661Y+4430571D01*
X+4163339Y+4430571D01*
X+4233000Y+4500232D01*
X+4302661Y+4430571D01*
X+4332088Y+4430571D01*
X+4332088Y+4320207D01*
X+4298019Y+4320207D01*
X+4246687Y+4268875D01*
X+4246687Y+4196281D01*
X+4268939Y+4174029D01*
X+4072671Y+4174029D01*
X+4072671Y+3947971D01*
X+4273329Y+3947971D01*
X+4273329Y+4169639D01*
X+4298019Y+4144949D01*
X+4370613Y+4144949D01*
X+4396013Y+4170349D01*
X+4420091Y+4170349D01*
X+4456544Y+4206802D01*
X+4456544Y+4469776D01*
X+4487000Y+4500232D01*
X+4556661Y+4430571D01*
X+4671339Y+4430571D01*
X+4741000Y+4500232D01*
X+4810661Y+4430571D01*
X+4925339Y+4430571D01*
X+4995000Y+4500232D01*
X+5064661Y+4430571D01*
X+5179339Y+4430571D01*
X+5249000Y+4500232D01*
X+5318661Y+4430571D01*
X+5319414Y+4430571D01*
X+4762079Y+3873236D01*
X+4553736Y+3873236D01*
X+4755862Y+4075362D01*
X+4791784Y+4075362D01*
X+4843116Y+4126694D01*
X+4843116Y+4199288D01*
X+4791784Y+4250620D01*
X+4719190Y+4250620D01*
X+4667858Y+4199288D01*
X+4667858Y+4163366D01*
X+4446308Y+3941816D01*
X+4070093Y+3941816D01*
X+4059969Y+3951940D01*
X+4059969Y+4174029D01*
X+3859311Y+4174029D01*
X+3859311Y+4123229D01*
X+2820804Y+4123229D01*
X+2771077Y+4172956D01*
X+2771077Y+4208878D01*
X+2719745Y+4260210D01*
X+2647151Y+4260210D01*
X+2595819Y+4208878D01*
X+2595819Y+4136284D01*
X+2647151Y+4084952D01*
X+2683073Y+4084952D01*
X+2769254Y+3998771D01*
X+3859311Y+3998771D01*
X+3859311Y+3947971D01*
X+3952854Y+3947971D01*
X+3920767Y+3915884D01*
X+3920767Y+3873236D01*
X+3847605Y+3873236D01*
X+3482561Y+3508192D01*
X+3482561Y+3537832D01*
X+3562129Y+3617400D01*
X+3562129Y+3742600D01*
X+3473600Y+3831129D01*
X+3348400Y+3831129D01*
X+3259871Y+3742600D01*
X+3259871Y+3617400D01*
X+3348400Y+3528871D01*
X+3358103Y+3528871D01*
X+3358103Y+3523347D01*
X+3108937Y+3274181D01*
X+3073015Y+3274181D01*
X+3021683Y+3222849D01*
X+3021683Y+3150255D01*
X+3073015Y+3098923D01*
X+3073292Y+3098923D01*
X+2967771Y+2993402D01*
X+2967771Y+2726304D01*
X+2940990Y+2753085D01*
X+2868396Y+2753085D01*
X+2847540Y+2732229D01*
X+2622329Y+2732229D01*
X+2622329Y+2904029D01*
X+2596033Y+2904029D01*
X+2713137Y+3021133D01*
X+2713400Y+3020871D01*
X+2838600Y+3020871D01*
X+2927129Y+3109400D01*
X+2927129Y+3234600D01*
X+2838600Y+3323129D01*
X+2713400Y+3323129D01*
X+2624871Y+3234600D01*
X+2624871Y+3109400D01*
X+2625133Y+3109137D01*
X+2474274Y+2958278D01*
X+2387914Y+2958278D01*
X+2333665Y+2904029D01*
X+2208311Y+2904029D01*
X+2208311Y+2835346D01*
X+2199595Y+2826630D01*
X+2163673Y+2826630D01*
X+2112341Y+2775298D01*
X+2112341Y+2732229D01*
X+2033775Y+2732229D01*
X+1987329Y+2778675D01*
X+1987329Y+2904029D01*
X+1786671Y+2904029D01*
X+1786671Y+2677971D01*
X+1912025Y+2677971D01*
X+1934244Y+2655752D01*
X+1892077Y+2613585D01*
X+1892077Y+2540991D01*
X+1910039Y+2523029D01*
X+1861975Y+2523029D01*
X+1767499Y+2617505D01*
X+1450819Y+2617505D01*
X+1390353Y+2677971D01*
X+1392969Y+2677971D01*
X+1392969Y+2803325D01*
X+1405671Y+2816027D01*
X+1405671Y+2677971D01*
X+1773969Y+2677971D01*
X+1773969Y+2904029D01*
X+1735869Y+2904029D01*
X+1735869Y+2913478D01*
X+1717376Y+2931971D01*
X+1773969Y+2931971D01*
X+1773969Y+3124200D01*
X+1786671Y+3124200D01*
X+1786671Y+2931971D01*
X+1986909Y+2931971D01*
X+1986909Y+2925122D01*
X+2038241Y+2873790D01*
X+2110835Y+2873790D01*
X+2162167Y+2925122D01*
X+2162167Y+2997716D01*
X+2110835Y+3049048D01*
X+2074913Y+3049048D01*
X+2016732Y+3107229D01*
X+1987329Y+3107229D01*
X+1987329Y+3158029D01*
X+1828800Y+3158029D01*
X+1828800Y+3185971D01*
X+1987329Y+3185971D01*
X+1987329Y+3204414D01*
X+2021082Y+3204414D01*
X+2072414Y+3255746D01*
X+2072414Y+3328340D01*
X+2021082Y+3379672D01*
X+1987329Y+3379672D01*
X+1987329Y+3412029D01*
X+1786671Y+3412029D01*
X+1786671Y+3225800D01*
X+1773969Y+3225800D01*
X+1773969Y+3412029D01*
X+1734975Y+3412029D01*
X+1707033Y+3439971D01*
X+1773969Y+3439971D01*
X+1773969Y+3666029D01*
X+1648615Y+3666029D01*
X+1606329Y+3708315D01*
X+1606329Y+3920029D01*
X+1405671Y+3920029D01*
X+1405671Y+3712614D01*
X+1392969Y+3712614D01*
X+1392969Y+3920029D01*
X+1192311Y+3920029D01*
X+1192311Y+3869229D01*
X+1149129Y+3869229D01*
X+1149129Y+3869600D01*
X+1060600Y+3958129D01*
X+935400Y+3958129D01*
X+846871Y+3869600D01*
X+846871Y+3744400D01*
X+935400Y+3655871D01*
X+1060600Y+3655871D01*
X+1149129Y+3744400D01*
X+1149129Y+3744771D01*
X+1192311Y+3744771D01*
X+1192311Y+3693971D01*
X+1230411Y+3693971D01*
X+1230411Y+3666029D01*
X+1192311Y+3666029D01*
X+1192311Y+3439971D01*
X+1345607Y+3439971D01*
X+1317665Y+3412029D01*
X+1192311Y+3412029D01*
X+1192311Y+3185971D01*
X+1304967Y+3185971D01*
X+1277025Y+3158029D01*
X+1192311Y+3158029D01*
X+1192311Y+2931971D01*
X+1345607Y+2931971D01*
X+1317665Y+2904029D01*
X+1192311Y+2904029D01*
X+1192311Y+2743525D01*
X+550470Y+2743525D01*
X+393429Y+2586484D01*
X+393429Y+2618688D01*
X+316088Y+2696029D01*
X+206712Y+2696029D01*
X+129371Y+2618688D01*
X+129371Y+2509312D01*
X+189183Y+2449500D01*
X+129371Y+2389688D01*
X+129371Y+2280312D01*
X+189183Y+2220500D01*
X+129371Y+2160688D01*
X+129371Y+2051312D01*
X+189183Y+1991500D01*
X+129371Y+1931688D01*
X+129371Y+1822312D01*
X+189183Y+1762500D01*
X+129371Y+1702688D01*
X+129371Y+1593312D01*
X+206712Y+1515971D01*
X+316046Y+1515971D01*
X+316046Y+1276577D01*
X+321774Y+1270849D01*
X+321774Y+1234927D01*
X+373106Y+1183595D01*
X+445700Y+1183595D01*
X+497032Y+1234927D01*
X+497032Y+1307521D01*
X+445700Y+1358853D01*
X+440504Y+1358853D01*
X+440504Y+1422179D01*
X+460712Y+1401971D01*
X+570088Y+1401971D01*
X+647429Y+1479312D01*
X+647429Y+1588688D01*
X+588117Y+1648000D01*
X+647429Y+1707312D01*
X+647429Y+1812254D01*
X+703818Y+1755865D01*
X+661535Y+1755865D01*
X+661535Y+1540135D01*
X+770849Y+1540135D01*
X+589567Y+1358853D01*
X+553645Y+1358853D01*
X+502313Y+1307521D01*
X+502313Y+1234927D01*
X+553645Y+1183595D01*
X+626239Y+1183595D01*
X+677571Y+1234927D01*
X+677571Y+1270849D01*
X+1192311Y+1785589D01*
X+1192311Y+1762675D01*
X+1063838Y+1634202D01*
X+1061303Y+1634202D01*
X+1009971Y+1582870D01*
X+1009971Y+1510276D01*
X+1061303Y+1458944D01*
X+1133897Y+1458944D01*
X+1137442Y+1462489D01*
X+1137442Y+1334194D01*
X+1192311Y+1279325D01*
X+1192311Y+1153971D01*
X+1392969Y+1153971D01*
X+1392969Y+1332667D01*
X+1405671Y+1319965D01*
X+1405671Y+1158001D01*
X+1373699Y+1126029D01*
X+1192311Y+1126029D01*
X+1192311Y+899971D01*
X+1345607Y+899971D01*
X+1317665Y+872029D01*
X+1192311Y+872029D01*
X+1192311Y+645971D01*
X+1392969Y+645971D01*
X+1392969Y+771325D01*
X+1405671Y+784027D01*
X+1405671Y+645971D01*
X+1773969Y+645971D01*
X+1773969Y+872029D01*
X+1648615Y+872029D01*
X+1620673Y+899971D01*
X+1773969Y+899971D01*
X+1773969Y+1126029D01*
X+1638312Y+1126029D01*
X+1610370Y+1153971D01*
X+1773969Y+1153971D01*
X+1773969Y+1279325D01*
X+1786671Y+1292027D01*
X+1786671Y+1153971D01*
X+1912025Y+1153971D01*
X+1939967Y+1126029D01*
X+1786671Y+1126029D01*
X+1786671Y+899971D01*
X+1912025Y+899971D01*
X+1939371Y+872625D01*
X+1912621Y+872625D01*
X+1912025Y+872029D01*
X+1786671Y+872029D01*
X+1786671Y+645971D01*
X+1987329Y+645971D01*
X+1987329Y+748167D01*
X+3132673Y+748167D01*
X+3132673Y+689953D01*
X+3184005Y+638621D01*
X+3256599Y+638621D01*
X+3269570Y+651592D01*
X+3287975Y+651592D01*
X+3343567Y+596000D01*
X+3258661Y+596000D01*
X+3189000Y+526339D01*
X+3119339Y+596000D01*
X+3004661Y+596000D01*
X+2935000Y+526339D01*
X+2865339Y+596000D01*
X+2750661Y+596000D01*
X+2681000Y+526339D01*
X+2611339Y+596000D01*
X+2496661Y+596000D01*
X+2415571Y+514910D01*
X+2415571Y+418355D01*
X+2393372Y+440554D01*
X+2320778Y+440554D01*
X+2269446Y+389222D01*
X+2269446Y+353300D01*
X+2268325Y+352179D01*
X+2269446Y+349472D01*
X+2269446Y+316628D01*
X+2292670Y+293403D01*
X+2300149Y+275349D01*
X+2310725Y+275349D01*
X+2320778Y+265296D01*
X+2393372Y+265296D01*
X+2403425Y+275349D01*
X+2430010Y+275349D01*
X+2415571Y+260910D01*
X+2415571Y+146232D01*
X+2489873Y+71930D01*
X+461563Y+71930D01*
X+464285Y+168368D01*
X+489026Y+205781D01*
X+508643Y+297000D01*
X+489026Y+388219D01*
X+471249Y+415101D01*
X+474845Y+542471D01*
X+635327Y+542471D01*
X+804929Y+712073D01*
X+804929Y+951927D01*
X+635327Y+1121529D01*
X+395473Y+1121529D01*
X+225871Y+951927D01*
X+225871Y+712073D01*
X+301376Y+636568D01*
X+56930Y+646445D01*
X+56930Y+4432454D01*
X+477300Y+4439460D01*
X+477300Y+4588049D01*
X+489026Y+4605781D01*
X+508643Y+4697000D01*
X+489026Y+4788219D01*
X+477300Y+4805951D01*
X+477300Y+4922070D01*
X+2485302Y+4922070D01*
X+2443571Y+4880339D01*
G37*
%TD.AperFunction*%
%LPC*%
G36*
X+395473Y+3619529D02*
X+635327Y+3619529D01*
X+804929Y+3449927D01*
X+804929Y+3210073D01*
X+635327Y+3040471D01*
X+395473Y+3040471D01*
X+225871Y+3210073D01*
X+225871Y+3449927D01*
X+395473Y+3619529D01*
G37*
G36*
X+1987329Y+3637338D02*
X+2022241Y+3637338D01*
X+2073573Y+3586006D01*
X+2073573Y+3513412D01*
X+2022241Y+3462080D01*
X+1987329Y+3462080D01*
X+1987329Y+3439971D01*
X+1786671Y+3439971D01*
X+1786671Y+3666029D01*
X+1987329Y+3666029D01*
X+1987329Y+3637338D01*
G37*
%LPD*%
%TA.AperFunction,Conductor*%
G36*
X+5536042Y+3285029D02*
X+5342671Y+3285029D01*
X+5342671Y+3103649D01*
X+5329969Y+3103649D01*
X+5329969Y+3285029D01*
X+5129311Y+3285029D01*
X+5129311Y+3103654D01*
X+5100088Y+3132877D01*
X+5058004Y+3132877D01*
X+5028246Y+3103119D01*
X+5028246Y+3081471D01*
X+5007418Y+3081471D01*
X+4982018Y+3106871D01*
X+4909424Y+3106871D01*
X+4858092Y+3055539D01*
X+4858092Y+2982945D01*
X+4909424Y+2931613D01*
X+4982018Y+2931613D01*
X+5007418Y+2957013D01*
X+5019120Y+2957013D01*
X+5120362Y+2855771D01*
X+5333407Y+2855771D01*
X+5289527Y+2811891D01*
X+5078844Y+2811891D01*
X+4969939Y+2702986D01*
X+4969939Y+2596140D01*
X+4944539Y+2570740D01*
X+4944539Y+2512869D01*
X+4927529Y+2512869D01*
X+4927529Y+2773529D01*
X+4888574Y+2773529D01*
X+4888574Y+2808481D01*
X+4837242Y+2859813D01*
X+4781329Y+2859813D01*
X+4781329Y+3031029D01*
X+4580671Y+3031029D01*
X+4580671Y+2877906D01*
X+4571953Y+2886624D01*
X+4567969Y+2886624D01*
X+4567969Y+3031029D01*
X+4367311Y+3031029D01*
X+4367311Y+3022972D01*
X+4359680Y+3022972D01*
X+4308348Y+2971640D01*
X+4308348Y+2899046D01*
X+4359680Y+2847714D01*
X+4367311Y+2847714D01*
X+4367311Y+2804971D01*
X+4405411Y+2804971D01*
X+4405411Y+2777029D01*
X+4326671Y+2777029D01*
X+4326671Y+2651675D01*
X+4313969Y+2638973D01*
X+4313969Y+2777029D01*
X+4113311Y+2777029D01*
X+4113311Y+2650029D01*
X+3945671Y+2650029D01*
X+3945671Y+2562333D01*
X+3932969Y+2575035D01*
X+3932969Y+2650029D01*
X+3793741Y+2650029D01*
X+3821470Y+2677758D01*
X+3840841Y+2658388D01*
X+3882925Y+2658388D01*
X+3912683Y+2688146D01*
X+3912683Y+2730230D01*
X+3893312Y+2749600D01*
X+4285762Y+3142050D01*
X+4286316Y+3142050D01*
X+4301892Y+3126474D01*
X+4301892Y+3120946D01*
X+4353224Y+3069614D01*
X+4425818Y+3069614D01*
X+4477150Y+3120946D01*
X+4477150Y+3193540D01*
X+4425818Y+3244872D01*
X+4359502Y+3244872D01*
X+4337866Y+3266508D01*
X+4234212Y+3266508D01*
X+3602771Y+2635067D01*
X+3602771Y+2541629D01*
X+3596374Y+2541629D01*
X+3358866Y+2779137D01*
X+3435129Y+2855400D01*
X+3435129Y+2980600D01*
X+3346600Y+3069129D01*
X+3221400Y+3069129D01*
X+3132871Y+2980600D01*
X+3132871Y+2855400D01*
X+3133133Y+2855137D01*
X+3118289Y+2840293D01*
X+3118289Y+2650029D01*
X+3092229Y+2650029D01*
X+3092229Y+2941852D01*
X+3442353Y+3291976D01*
X+3486176Y+3248153D01*
X+3558770Y+3248153D01*
X+3584170Y+3273553D01*
X+3854558Y+3273554D01*
X+4006438Y+3425434D01*
X+4036111Y+3395762D01*
X+4078195Y+3395762D01*
X+4107953Y+3425520D01*
X+4107953Y+3467604D01*
X+4078280Y+3497276D01*
X+4147975Y+3566971D01*
X+4273329Y+3566971D01*
X+4273329Y+3688090D01*
X+5132981Y+3688090D01*
X+5536042Y+3285029D01*
G37*
%TD.AperFunction*%
%LPC*%
G36*
X+4864588Y+3474658D02*
X+4864588Y+3412029D01*
X+5035329Y+3412029D01*
X+5035329Y+3185971D01*
X+4860227Y+3185971D01*
X+4878117Y+3168081D01*
X+4878117Y+3095487D01*
X+4826785Y+3044155D01*
X+4754191Y+3044155D01*
X+4702859Y+3095487D01*
X+4702859Y+3133350D01*
X+4659411Y+3176798D01*
X+4659411Y+3185971D01*
X+4621311Y+3185971D01*
X+4621311Y+3412029D01*
X+4662623Y+3412029D01*
X+4689330Y+3438736D01*
X+4689330Y+3474658D01*
X+4740662Y+3525990D01*
X+4813256Y+3525990D01*
X+4864588Y+3474658D01*
G37*
G36*
X+5085780Y+3465900D02*
X+5085780Y+3507984D01*
X+5115538Y+3537742D01*
X+5157622Y+3537742D01*
X+5187380Y+3507984D01*
X+5187380Y+3465900D01*
X+5157622Y+3436142D01*
X+5115538Y+3436142D01*
X+5085780Y+3465900D01*
G37*
G36*
X+4085717Y+2883433D02*
X+4085717Y+2925517D01*
X+4115475Y+2955275D01*
X+4157559Y+2955275D01*
X+4187317Y+2925517D01*
X+4187317Y+2883433D01*
X+4157559Y+2853675D01*
X+4115475Y+2853675D01*
X+4085717Y+2883433D01*
G37*
%LPD*%
%TA.AperFunction,Conductor*%
G36*
X+4834671Y+3211527D02*
X+4826785Y+3219413D01*
X+4821969Y+3219413D01*
X+4821969Y+3359445D01*
X+4834671Y+3372147D01*
X+4834671Y+3211527D01*
G37*
%TD.AperFunction*%
%TA.AperFunction,Conductor*%
G36*
X+5571052Y+3250019D02*
X+5543329Y+3250019D01*
X+5543329Y+3277742D01*
X+5571052Y+3250019D01*
G37*
%TD.AperFunction*%
%TA.AperFunction,Conductor*%
G36*
X+1727200Y+3165804D02*
X+1707033Y+3185971D01*
X+1727200Y+3185971D01*
X+1727200Y+3165804D01*
G37*
%TD.AperFunction*%
%TA.AperFunction,Conductor*%
G36*
X+5790042Y+3031029D02*
X+5675421Y+3031029D01*
X+5694742Y+3050350D01*
X+5694742Y+3092434D01*
X+5664984Y+3122192D01*
X+5622900Y+3122192D01*
X+5621489Y+3120781D01*
X+5587310Y+3154961D01*
X+5610526Y+3178177D01*
X+5610526Y+3210545D01*
X+5790042Y+3031029D01*
G37*
%TD.AperFunction*%
%TA.AperFunction,Conductor*%
G36*
X+5129311Y+3058971D02*
X+5281478Y+3058971D01*
X+5274824Y+3052317D01*
X+5274824Y+2980229D01*
X+5171912Y+2980229D01*
X+5110476Y+3041665D01*
X+5129311Y+3060500D01*
X+5129311Y+3058971D01*
G37*
%TD.AperFunction*%
%TA.AperFunction,Conductor*%
G36*
X+1569310Y+2904029D02*
X+1493673Y+2904029D01*
X+1521615Y+2931971D01*
X+1541367Y+2931971D01*
X+1569310Y+2904029D01*
G37*
%TD.AperFunction*%
%TA.AperFunction,Conductor*%
G36*
X+4713316Y+2773529D02*
X+4623285Y+2773529D01*
X+4623285Y+2804971D01*
X+4713316Y+2804971D01*
X+4713316Y+2773529D01*
G37*
%TD.AperFunction*%
%TA.AperFunction,Conductor*%
G36*
X+2421671Y+2732229D02*
X+2408969Y+2732229D01*
X+2408969Y+2803325D01*
X+2421671Y+2816027D01*
X+2421671Y+2732229D01*
G37*
%TD.AperFunction*%
%TA.AperFunction,Conductor*%
G36*
X+5844224Y+2976847D02*
X+5844224Y+2777029D01*
X+5723671Y+2777029D01*
X+5723671Y+2624758D01*
X+5711899Y+2624758D01*
X+5710969Y+2623828D01*
X+5710969Y+2777029D01*
X+5672869Y+2777029D01*
X+5672869Y+2804971D01*
X+5797329Y+2804971D01*
X+5797329Y+3023742D01*
X+5844224Y+2976847D01*
G37*
%TD.AperFunction*%
%TA.AperFunction,Conductor*%
G36*
X+5328700Y+2677479D02*
X+5348070Y+2658109D01*
X+5302029Y+2612068D01*
X+5302029Y+2687433D01*
X+5328700Y+2687433D01*
X+5328700Y+2677479D01*
G37*
%TD.AperFunction*%
%TA.AperFunction,Conductor*%
G36*
X+576312Y+2575805D02*
X+570088Y+2582029D01*
X+564982Y+2582029D01*
X+576312Y+2593359D01*
X+576312Y+2575805D01*
G37*
%TD.AperFunction*%
%TA.AperFunction,Conductor*%
G36*
X+5240930Y+2550969D02*
X+5119797Y+2550969D01*
X+5119797Y+2563671D01*
X+5253632Y+2563671D01*
X+5240930Y+2550969D01*
G37*
%TD.AperFunction*%
%TA.AperFunction,Conductor*%
G36*
X+637371Y+2514746D02*
X+625636Y+2526481D01*
X+637371Y+2526481D01*
X+637371Y+2514746D01*
G37*
%TD.AperFunction*%
%TA.AperFunction,Conductor*%
G36*
X+3176678Y+2478326D02*
X+3157029Y+2497975D01*
X+3176678Y+2497975D01*
X+3176678Y+2478326D01*
G37*
%TD.AperFunction*%
%TA.AperFunction,Conductor*%
G36*
X+697183Y+2449500D02*
X+647429Y+2399746D01*
X+647429Y+2499254D01*
X+697183Y+2449500D01*
G37*
%TD.AperFunction*%
%TA.AperFunction,Conductor*%
G36*
X+697183Y+1991500D02*
X+647429Y+1941746D01*
X+647429Y+2041254D01*
X+697183Y+1991500D01*
G37*
%TD.AperFunction*%
%TA.AperFunction,Conductor*%
G36*
X+5048042Y+2035059D02*
X+5048042Y+1962465D01*
X+5066274Y+1944232D01*
X+5049545Y+1927503D01*
X+5049545Y+1888029D01*
X+4997229Y+1888029D01*
X+4997229Y+2042971D01*
X+5055954Y+2042971D01*
X+5048042Y+2035059D01*
G37*
%TD.AperFunction*%
%TA.AperFunction,Conductor*%
G36*
X+2574967Y+1888029D02*
X+2469033Y+1888029D01*
X+2496975Y+1915971D01*
X+2547025Y+1915971D01*
X+2574967Y+1888029D01*
G37*
%TD.AperFunction*%
%TA.AperFunction,Conductor*%
G36*
X+7013703Y+2190952D02*
X+7072371Y+2190952D01*
X+7072371Y+2173703D01*
X+7123703Y+2122371D01*
X+7196297Y+2122371D01*
X+7221697Y+2147771D01*
X+8740910Y+2147771D01*
X+9130234Y+1758446D01*
X+9165924Y+1758446D01*
X+8529320Y+1121842D01*
X+7826877Y+1121842D01*
X+7794821Y+1153898D01*
X+7722227Y+1153898D01*
X+7681189Y+1112860D01*
X+7632647Y+1161403D01*
X+7560053Y+1161403D01*
X+7508721Y+1110071D01*
X+7508721Y+1037477D01*
X+7560053Y+986145D01*
X+7595975Y+986145D01*
X+7801392Y+780728D01*
X+7780804Y+760140D01*
X+7155433Y+760140D01*
X+6960316Y+565023D01*
X+6929339Y+596000D01*
X+6909228Y+596000D01*
X+7517036Y+1203808D01*
X+8234616Y+1203808D01*
X+8251464Y+1186960D01*
X+8324058Y+1186960D01*
X+8375390Y+1238292D01*
X+8375390Y+1310886D01*
X+8324058Y+1362218D01*
X+8251464Y+1362218D01*
X+8217512Y+1328266D01*
X+7916270Y+1328266D01*
X+7995199Y+1407195D01*
X+7995199Y+1880497D01*
X+8378480Y+1880497D01*
X+8409713Y+1849264D01*
X+8482307Y+1849264D01*
X+8533639Y+1900596D01*
X+8533639Y+1973190D01*
X+8482307Y+2024522D01*
X+8409713Y+2024522D01*
X+8397011Y+2011820D01*
X+7947096Y+2011820D01*
X+7947096Y+2012282D01*
X+7895764Y+2063614D01*
X+7823170Y+2063614D01*
X+7771838Y+2012282D01*
X+7771838Y+1939688D01*
X+7823170Y+1888356D01*
X+7830497Y+1888356D01*
X+7830497Y+1877700D01*
X+7870741Y+1837456D01*
X+7870741Y+1458745D01*
X+7846153Y+1434157D01*
X+7846153Y+1435223D01*
X+7794821Y+1486555D01*
X+7758899Y+1486555D01*
X+7271064Y+1974390D01*
X+6571899Y+1974390D01*
X+6507862Y+1910353D01*
X+6477705Y+1940510D01*
X+6441783Y+1940510D01*
X+6432050Y+1950243D01*
X+6432050Y+1986165D01*
X+6396269Y+2021945D01*
X+6590676Y+2216352D01*
X+6988303Y+2216352D01*
X+7013703Y+2190952D01*
G37*
%TD.AperFunction*%
%LPC*%
G36*
X+8229462Y+1711942D02*
X+8229462Y+1754026D01*
X+8259220Y+1783784D01*
X+8301304Y+1783784D01*
X+8331062Y+1754026D01*
X+8331062Y+1711942D01*
X+8301304Y+1682184D01*
X+8259220Y+1682184D01*
X+8229462Y+1711942D01*
G37*
G36*
X+8408698Y+1170245D02*
X+8408698Y+1212329D01*
X+8438456Y+1242087D01*
X+8480540Y+1242087D01*
X+8510298Y+1212329D01*
X+8510298Y+1170245D01*
X+8480540Y+1140487D01*
X+8438456Y+1140487D01*
X+8408698Y+1170245D01*
G37*
%LPD*%
%TA.AperFunction,Conductor*%
G36*
X+1399267Y+2493049D02*
X+1573311Y+2493049D01*
X+1573311Y+2472229D01*
X+1516693Y+2472229D01*
X+1511389Y+2477533D01*
X+1438795Y+2477533D01*
X+1387463Y+2426201D01*
X+1387463Y+2353607D01*
X+1438795Y+2302275D01*
X+1511389Y+2302275D01*
X+1556885Y+2347771D01*
X+1573311Y+2347771D01*
X+1573311Y+2296971D01*
X+1773969Y+2296971D01*
X+1773969Y+2435027D01*
X+1786671Y+2422325D01*
X+1786671Y+2296971D01*
X+1987329Y+2296971D01*
X+1987329Y+2481661D01*
X+1994219Y+2474771D01*
X+2208311Y+2474771D01*
X+2208311Y+2423971D01*
X+2229443Y+2423971D01*
X+2229443Y+2396029D01*
X+2208311Y+2396029D01*
X+2208311Y+2169971D01*
X+2320967Y+2169971D01*
X+2293025Y+2142029D01*
X+2208311Y+2142029D01*
X+2208311Y+1915971D01*
X+2320967Y+1915971D01*
X+2293025Y+1888029D01*
X+2208311Y+1888029D01*
X+2208311Y+1661971D01*
X+2408969Y+1661971D01*
X+2408969Y+1827965D01*
X+2421671Y+1840667D01*
X+2421671Y+1661971D01*
X+2622329Y+1661971D01*
X+2622329Y+1750829D01*
X+2645958Y+1727200D01*
X+2688042Y+1727200D01*
X+2711919Y+1751077D01*
X+2716311Y+1746685D01*
X+2716311Y+1661971D01*
X+2916969Y+1661971D01*
X+2916969Y+1888029D01*
X+2750975Y+1888029D01*
X+2723033Y+1915971D01*
X+2916969Y+1915971D01*
X+2916969Y+2142029D01*
X+2750975Y+2142029D01*
X+2723033Y+2169971D01*
X+2916969Y+2169971D01*
X+2916969Y+2396029D01*
X+2750975Y+2396029D01*
X+2736772Y+2410232D01*
X+2750511Y+2423971D01*
X+2916969Y+2423971D01*
X+2916969Y+2577827D01*
X+2929671Y+2577827D01*
X+2929671Y+2423971D01*
X+3055025Y+2423971D01*
X+3082966Y+2396029D01*
X+2929671Y+2396029D01*
X+2929671Y+2169971D01*
X+3087304Y+2169971D01*
X+3115246Y+2142029D01*
X+2929671Y+2142029D01*
X+2929671Y+1915971D01*
X+3130329Y+1915971D01*
X+3130329Y+1966771D01*
X+3164849Y+1966771D01*
X+3417246Y+1714374D01*
X+3364651Y+1714374D01*
X+3339251Y+1688974D01*
X+3339137Y+1688974D01*
X+3313405Y+1714706D01*
X+3313405Y+1750628D01*
X+3262073Y+1801960D01*
X+3189479Y+1801960D01*
X+3138147Y+1750628D01*
X+3138147Y+1678034D01*
X+3143463Y+1672718D01*
X+3130329Y+1672718D01*
X+3130329Y+1888029D01*
X+2929671Y+1888029D01*
X+2929671Y+1661971D01*
X+2967771Y+1661971D01*
X+2967771Y+1584806D01*
X+3095115Y+1457462D01*
X+2841227Y+1457462D01*
X+2804773Y+1421008D01*
X+2804773Y+1264322D01*
X+2779373Y+1238922D01*
X+2779373Y+1166328D01*
X+2830705Y+1114996D01*
X+2903299Y+1114996D01*
X+2950070Y+1161767D01*
X+3063716Y+1048122D01*
X+2447882Y+1048122D01*
X+1987329Y+1508675D01*
X+1987329Y+1634029D01*
X+1807782Y+1634029D01*
X+1764263Y+1677548D01*
X+1606329Y+1677548D01*
X+1606329Y+1888029D01*
X+1405671Y+1888029D01*
X+1405671Y+1709333D01*
X+1392969Y+1722035D01*
X+1392969Y+1888029D01*
X+1294751Y+1888029D01*
X+1406353Y+1999631D01*
X+1595675Y+1999631D01*
X+1581597Y+1985553D01*
X+1581597Y+1943469D01*
X+1611355Y+1913711D01*
X+1653439Y+1913711D01*
X+1683197Y+1943469D01*
X+1683197Y+1985553D01*
X+1669119Y+1999631D01*
X+1818635Y+1999631D01*
X+1861975Y+2042971D01*
X+1941242Y+2042971D01*
X+1862871Y+1964600D01*
X+1862871Y+1839400D01*
X+1951400Y+1750871D01*
X+2076600Y+1750871D01*
X+2165129Y+1839400D01*
X+2165129Y+1964600D01*
X+2076600Y+2053129D01*
X+1987329Y+2053129D01*
X+1987329Y+2269029D01*
X+1786671Y+2269029D01*
X+1786671Y+2143675D01*
X+1773969Y+2130973D01*
X+1773969Y+2269029D01*
X+1573311Y+2269029D01*
X+1573311Y+2249494D01*
X+1531794Y+2207977D01*
X+1531794Y+2135383D01*
X+1543088Y+2124089D01*
X+1354803Y+2124089D01*
X+1193296Y+1962582D01*
X+1193296Y+1988673D01*
X+1163538Y+2018431D01*
X+1121454Y+2018431D01*
X+1091696Y+1988673D01*
X+1091696Y+1946589D01*
X+1121454Y+1916831D01*
X+1147545Y+1916831D01*
X+877265Y+1646551D01*
X+877265Y+1755865D01*
X+834982Y+1755865D01*
X+901429Y+1822312D01*
X+901429Y+1931688D01*
X+841617Y+1991500D01*
X+901429Y+2051312D01*
X+901429Y+2160688D01*
X+841617Y+2220500D01*
X+901429Y+2280312D01*
X+901429Y+2389688D01*
X+841617Y+2449500D01*
X+901429Y+2509312D01*
X+901429Y+2618688D01*
X+901050Y+2619067D01*
X+1273249Y+2619067D01*
X+1399267Y+2493049D01*
G37*
%TD.AperFunction*%
%TA.AperFunction,Conductor*%
G36*
X+4950932Y+2359784D02*
X+4950932Y+2287190D01*
X+4969092Y+2269029D01*
X+4834671Y+2269029D01*
X+4834671Y+2042971D01*
X+4872771Y+2042971D01*
X+4872771Y+1888029D01*
X+4834671Y+1888029D01*
X+4834671Y+1714727D01*
X+4833592Y+1715807D01*
X+4821969Y+1715807D01*
X+4821969Y+1888029D01*
X+4772440Y+1888029D01*
X+4772440Y+1929402D01*
X+4742682Y+1959160D01*
X+4700598Y+1959160D01*
X+4670840Y+1929402D01*
X+4670840Y+1888029D01*
X+4621311Y+1888029D01*
X+4621311Y+1742509D01*
X+4532443Y+1742509D01*
X+4552762Y+1762828D01*
X+4552762Y+1804912D01*
X+4523004Y+1834670D01*
X+4480920Y+1834670D01*
X+4452863Y+1806613D01*
X+4421220Y+1838257D01*
X+4380640Y+1878836D01*
X+4411578Y+1909774D01*
X+4411578Y+1937311D01*
X+4413029Y+1937311D01*
X+4413029Y+2137969D01*
X+4287675Y+2137969D01*
X+4274973Y+2150671D01*
X+4413029Y+2150671D01*
X+4413029Y+2276025D01*
X+4521475Y+2384471D01*
X+4927529Y+2384471D01*
X+4927529Y+2388411D01*
X+4979559Y+2388411D01*
X+4950932Y+2359784D01*
G37*
%TD.AperFunction*%
%LPC*%
G36*
X+4621311Y+2269029D02*
X+4821969Y+2269029D01*
X+4821969Y+2042971D01*
X+4621311Y+2042971D01*
X+4621311Y+2269029D01*
G37*
%LPD*%
%TA.AperFunction,Conductor*%
G36*
X+1556317Y+1659321D02*
X+1531025Y+1634029D01*
X+1480975Y+1634029D01*
X+1453033Y+1661971D01*
X+1558967Y+1661971D01*
X+1556317Y+1659321D01*
G37*
%TD.AperFunction*%
%TA.AperFunction,Conductor*%
G36*
X+7079949Y+1359710D02*
X+7098176Y+1341483D01*
X+7280578Y+1341483D01*
X+7235435Y+1296340D01*
X+7235435Y+1193439D01*
X+7067329Y+1025333D01*
X+7067329Y+1126029D01*
X+6991452Y+1126029D01*
X+7000972Y+1135549D01*
X+7000972Y+1208143D01*
X+6949640Y+1259475D01*
X+6877046Y+1259475D01*
X+6825714Y+1208143D01*
X+6825714Y+1173078D01*
X+6778665Y+1126029D01*
X+6653311Y+1126029D01*
X+6653311Y+1000675D01*
X+6408452Y+755816D01*
X+6197377Y+755816D01*
X+6171977Y+781216D01*
X+6099383Y+781216D01*
X+6048051Y+729884D01*
X+6048051Y+657290D01*
X+6099383Y+605958D01*
X+6171977Y+605958D01*
X+6197377Y+631358D01*
X+6460002Y+631358D01*
X+6728615Y+899971D01*
X+6853969Y+899971D01*
X+6853969Y+1025325D01*
X+6866671Y+1038027D01*
X+6866671Y+899971D01*
X+6941967Y+899971D01*
X+6774225Y+732229D01*
X+6761697Y+732229D01*
X+6736297Y+757629D01*
X+6663703Y+757629D01*
X+6612371Y+706297D01*
X+6612371Y+633703D01*
X+6650074Y+596000D01*
X+6560661Y+596000D01*
X+6491000Y+526339D01*
X+6421339Y+596000D01*
X+6306661Y+596000D01*
X+6237000Y+526339D01*
X+6167339Y+596000D01*
X+6059575Y+596000D01*
X+5748863Y+906712D01*
X+5748863Y+1176806D01*
X+5792308Y+1176806D01*
X+5817708Y+1202206D01*
X+6374643Y+1202206D01*
X+6504208Y+1331771D01*
X+6653311Y+1331771D01*
X+6653311Y+1280971D01*
X+6853969Y+1280971D01*
X+6853969Y+1297492D01*
X+6866671Y+1297492D01*
X+6866671Y+1280971D01*
X+7067329Y+1280971D01*
X+7067329Y+1372330D01*
X+7079949Y+1359710D01*
G37*
%TD.AperFunction*%
%TA.AperFunction,Conductor*%
G36*
X+3508371Y+2453625D02*
X+3508371Y+2417703D01*
X+3559703Y+2366371D01*
X+3632297Y+2366371D01*
X+3683629Y+2417703D01*
X+3683629Y+2430367D01*
X+4013996Y+2100000D01*
X+4084418Y+2100000D01*
X+4143817Y+2040601D01*
X+4143817Y+1939652D01*
X+4465418Y+1618051D01*
X+4561462Y+1618051D01*
X+4554724Y+1611313D01*
X+4554724Y+1538719D01*
X+4606056Y+1487387D01*
X+4678650Y+1487387D01*
X+4704050Y+1512787D01*
X+4726526Y+1512787D01*
X+4743298Y+1496015D01*
X+4850753Y+1496015D01*
X+4901969Y+1547231D01*
X+4959083Y+1490117D01*
X+4959083Y+1481136D01*
X+4899140Y+1481136D01*
X+4847808Y+1429804D01*
X+4847808Y+1357210D01*
X+4899140Y+1305878D01*
X+4935062Y+1305878D01*
X+5157255Y+1083685D01*
X+5183031Y+1083685D01*
X+5392415Y+1083684D01*
X+5396641Y+1079459D01*
X+5204401Y+887219D01*
X+5078822Y+887219D01*
X+5053422Y+912619D01*
X+5006545Y+912619D01*
X+5027629Y+933703D01*
X+5027629Y+1006297D01*
X+4976297Y+1057629D01*
X+4903703Y+1057629D01*
X+4852371Y+1006297D01*
X+4852371Y+970375D01*
X+4760336Y+878340D01*
X+4760336Y+739831D01*
X+4730662Y+769505D01*
X+4658068Y+769505D01*
X+4606736Y+718173D01*
X+4606736Y+645579D01*
X+4643375Y+608940D01*
X+4643375Y+595964D01*
X+4643339Y+596000D01*
X+4528661Y+596000D01*
X+4495307Y+562646D01*
X+4495307Y+597304D01*
X+4524324Y+626321D01*
X+4524324Y+1151587D01*
X+4523499Y+1152412D01*
X+4523499Y+1188334D01*
X+4472167Y+1239666D01*
X+4425256Y+1239666D01*
X+4425256Y+1308770D01*
X+4480288Y+1308770D01*
X+4531620Y+1360102D01*
X+4531620Y+1432696D01*
X+4480288Y+1484028D01*
X+4407694Y+1484028D01*
X+4357554Y+1433888D01*
X+4330744Y+1460699D01*
X+4281145Y+1460699D01*
X+4304149Y+1483703D01*
X+4304149Y+1556297D01*
X+4291877Y+1568569D01*
X+4310839Y+1587531D01*
X+4310839Y+1660125D01*
X+4259507Y+1711457D01*
X+4186913Y+1711457D01*
X+4135581Y+1660125D01*
X+4135581Y+1624203D01*
X+3955068Y+1443690D01*
X+3736962Y+1443690D01*
X+3782114Y+1488842D01*
X+3782114Y+1496126D01*
X+3801762Y+1496126D01*
X+3827162Y+1470726D01*
X+3899756Y+1470726D01*
X+3951088Y+1522058D01*
X+3951088Y+1594652D01*
X+3902911Y+1642828D01*
X+3911907Y+1651824D01*
X+3911907Y+1724418D01*
X+3886507Y+1749818D01*
X+3886507Y+1768497D01*
X+3222060Y+2432944D01*
X+3248520Y+2432944D01*
X+3278278Y+2462702D01*
X+3278278Y+2504786D01*
X+3250952Y+2532112D01*
X+3268147Y+2549307D01*
X+3268147Y+2621901D01*
X+3242747Y+2647301D01*
X+3242747Y+2719249D01*
X+3508371Y+2453625D01*
G37*
%TD.AperFunction*%
%LPC*%
G36*
X+3611169Y+2103034D02*
X+3611169Y+2145118D01*
X+3640927Y+2174876D01*
X+3683011Y+2174876D01*
X+3712769Y+2145118D01*
X+3712769Y+2103034D01*
X+3683011Y+2073276D01*
X+3640927Y+2073276D01*
X+3611169Y+2103034D01*
G37*
%LPD*%
D10*
X+5824000Y+2156000D02*
X+5773200Y+2100992D01*
X+5731590Y+2059382D01*
X+5824000Y+2156000D02*
X+5773200Y+2104800D01*
X+5731590Y+2063190D01*
X+5731590Y+2059382D01*
X+4173000Y+3680000D02*
X+3828782Y+3335782D01*
X+3522473Y+3335782D01*
X+2683448Y+4172581D02*
X+2795029Y+4061000D01*
X+3959640Y+4061000D01*
X+4173000Y+3680000D02*
X+4243318Y+3750318D01*
X+5158757Y+3750318D01*
X+5906453Y+3002622D01*
X+5906453Y+2588514D01*
X+5880468Y+2562529D01*
X+5737674Y+2562529D01*
X+5587308Y+2412163D01*
X+4797295Y+1628178D02*
X+4745193Y+1680280D01*
X+4491193Y+1680280D01*
X+4377218Y+1794255D01*
X+4206045Y+1965428D01*
X+4206045Y+2066377D01*
X+4110193Y+2162229D01*
X+4039771Y+2162229D01*
X+3665000Y+2537000D01*
X+3665000Y+2609292D01*
X+4259987Y+3204279D01*
X+4312091Y+3204279D01*
X+4359127Y+3157243D01*
X+4389521Y+3157243D01*
X+6753640Y+1013000D02*
X+6434227Y+693587D01*
X+6135680Y+693587D01*
X+6753640Y+1013000D02*
X+6912486Y+1171846D01*
X+6913343Y+1171846D01*
X+6860269Y+1385121D02*
X+6958121Y+1385121D01*
X+6967000Y+1394000D01*
X+9152516Y+4384780D02*
X+9157591Y+4389855D01*
X+9415560Y+4388170D01*
X+4300000Y+2251000D02*
X+4480000Y+2431000D01*
X+4480000Y+2559517D01*
X+4557510Y+2637027D01*
X+4584273Y+2637027D01*
X+4588000Y+2664000D01*
X+1506000Y+1521000D02*
X+1345884Y+1681116D01*
X+1292945Y+1681116D01*
X+1199670Y+1587841D01*
X+1199670Y+1359970D01*
X+1292640Y+1267000D01*
X+1506000Y+1521000D02*
X+1600319Y+1615319D01*
X+1738488Y+1615319D01*
X+1755035Y+1598772D01*
X+1755035Y+1348395D01*
X+1673640Y+1267000D01*
X+1506000Y+1170337D02*
X+1506000Y+1267000D01*
X+1506000Y+1170337D02*
X+1506000Y+1170326D01*
X+1348674Y+1013000D01*
X+1292640Y+1013000D01*
X+1506000Y+1170337D02*
X+1663337Y+1013000D01*
X+1673640Y+1013000D01*
X+1506000Y+972360D02*
X+1506000Y+1013000D01*
X+1506000Y+972360D02*
X+1506000Y+926640D01*
X+1673640Y+759000D01*
X+1506000Y+972360D02*
X+1292640Y+759000D01*
X+2522000Y+2537000D02*
X+2776000Y+2283000D01*
X+2816640Y+2283000D01*
X+2522000Y+2537000D02*
X+2308640Y+2323640D01*
X+2308640Y+2283000D01*
X+2522000Y+2283000D02*
X+2776000Y+2029000D01*
X+2816640Y+2029000D01*
X+2522000Y+2283000D02*
X+2308640Y+2069640D01*
X+2308640Y+2029000D01*
X+2522000Y+2029000D02*
X+2776000Y+1775000D01*
X+2816640Y+1775000D01*
X+2522000Y+2029000D02*
X+2308640Y+1815640D01*
X+2308640Y+1775000D01*
X+1506000Y+3553000D02*
X+1673640Y+3385360D01*
X+1673640Y+3299000D01*
X+1506000Y+3553000D02*
X+1506000Y+3512360D01*
X+1292640Y+3299000D01*
X+1506000Y+3299000D02*
X+1292640Y+3085640D01*
X+1292640Y+3045000D01*
X+1506000Y+3299000D02*
X+1673640Y+3131360D01*
X+1673640Y+3045000D01*
X+1506000Y+3045000D02*
X+1516343Y+3045000D01*
X+1673640Y+2887703D01*
X+1673640Y+2791000D01*
X+1506000Y+3045000D02*
X+1506000Y+3004360D01*
X+1292640Y+2791000D01*
X+261400Y+2335000D02*
X+261400Y+2366451D01*
X+576245Y+2681296D01*
X+1299024Y+2681296D01*
X+1425043Y+2555277D01*
X+1741723Y+2555277D01*
X+1887000Y+2410000D01*
X+409403Y+1271224D02*
X+378275Y+1302352D01*
X+378275Y+1989125D01*
X+261400Y+2106000D01*
X+589942Y+1271224D02*
X+1380578Y+2061860D01*
X+1792860Y+2061860D01*
X+1887000Y+2156000D01*
X+3400948Y+1626745D02*
X+3313362Y+1626745D01*
X+3225776Y+1714331D01*
X+6027314Y+2250000D02*
X+6410957Y+2633643D01*
X+8137276Y+2633643D01*
X+8170263Y+2666630D01*
X+8040000Y+2565062D02*
X+7336481Y+2565062D01*
X+7050000Y+2278581D01*
X+4642353Y+1575016D02*
X+4752301Y+1575016D01*
X+4769073Y+1558244D01*
X+4824978Y+1558244D01*
X+4935000Y+1668266D01*
X+4935000Y+1775000D02*
X+4935000Y+2145715D01*
X+4945285Y+2156000D01*
X+5038561Y+2323487D02*
X+5038561Y+2249276D01*
X+4945285Y+2156000D01*
X+4935000Y+2156000D01*
X+4721640Y+3299000D02*
X+4721640Y+3383042D01*
X+4776959Y+3438361D01*
X+4721640Y+3299000D02*
X+4721640Y+3202573D01*
X+4792429Y+3131784D01*
X+4790488Y+3131784D01*
X+4016572Y+3742426D02*
X+3959640Y+3685494D01*
X+3959640Y+3680000D01*
X+5483640Y+2918000D02*
X+5315302Y+2749662D01*
X+5104619Y+2749662D01*
X+5032168Y+2677211D01*
X+5032168Y+2534443D01*
X+5362453Y+3016020D02*
X+5460473Y+2918000D01*
X+5483640Y+2918000D02*
X+5460473Y+2918000D01*
X+4945721Y+3019242D02*
X+5044895Y+3019242D01*
X+5146137Y+2918000D01*
X+5460473Y+2918000D01*
X+5756011Y+1264435D02*
X+6348868Y+1264435D01*
X+6478433Y+1394000D01*
X+6753640Y+1394000D01*
X+5189000Y+2450640D02*
X+4851360Y+2450640D01*
X+4808000Y+2494000D01*
X+4808000Y+2664000D01*
X+4467640Y+2918000D02*
X+4450297Y+2935343D01*
X+4395977Y+2935343D01*
X+5461871Y+3153129D02*
X+5443000Y+3172000D01*
X+5610640Y+2664000D02*
X+5610640Y+3004360D01*
X+5461871Y+3153129D01*
X+5400942Y+1964401D02*
X+5316000Y+1879459D01*
X+5316000Y+1775000D01*
X+5102640Y+2156000D02*
X+5135671Y+2122969D01*
X+5135671Y+1998762D01*
X+5102640Y+2156000D02*
X+5107141Y+2160501D01*
X+5107141Y+2368781D01*
X+5189000Y+2450640D01*
X+5228605Y+2450640D01*
X+5441965Y+2664000D01*
X+5610640Y+2664000D01*
X+5549844Y+3068502D02*
X+5465217Y+3153129D01*
X+5461871Y+3153129D01*
X+4808000Y+2664000D02*
X+4808000Y+2765129D01*
X+4800945Y+2772184D01*
X+4535656Y+2798995D02*
X+4467640Y+2730979D01*
X+4427000Y+2664000D02*
X+4427000Y+2690339D01*
X+4467640Y+2730979D01*
X+4467640Y+2918000D02*
X+4467640Y+2730979D01*
X+4427000Y+2664000D02*
X+4467640Y+2704640D01*
X+4467640Y+2730979D01*
X+7126000Y+203571D02*
X+7369321Y+203571D01*
X+7401090Y+171802D01*
X+7380000Y+203571D01*
X+1645307Y+1492667D02*
X+1673640Y+1521000D01*
X+1292640Y+1521000D02*
X+1452662Y+1360978D01*
X+1513618Y+1360978D01*
X+1645307Y+1492667D01*
X+1645307Y+1386315D02*
X+1645307Y+1492667D01*
X+1097600Y+1546573D02*
X+1097600Y+1579960D01*
X+1292640Y+1775000D01*
X+1292640Y+1521000D02*
X+1294466Y+1522826D01*
X+1399002Y+1522826D01*
X+2522000Y+1775000D02*
X+2522000Y+1778000D01*
X+2667000Y+1778000D01*
X+4681000Y+2918000D02*
X+4688480Y+2918000D01*
X+4688480Y+2494000D01*
X+4588000Y+2494000D01*
X+1841500Y+3429000D02*
X+2476500Y+3429000D01*
X+2540000Y+3492500D01*
X+1778000Y+3175000D02*
X+1778000Y+2730500D01*
X+1714500Y+2667000D01*
X+1506000Y+2667000D01*
X+1506000Y+2791000D01*
X+1841500Y+3429000D02*
X+1778000Y+3492500D01*
X+1778000Y+3873500D01*
X+1714500Y+3937000D01*
X+1506000Y+3937000D01*
X+1506000Y+3807000D01*
X+5136580Y+3486942D02*
X+5067522Y+3556000D01*
X+4699000Y+3556000D01*
X+4635500Y+3492500D01*
X+4635500Y+3048000D01*
X+4721640Y+2156000D02*
X+4588000Y+2156000D01*
X+4588000Y+2494000D01*
X+1841500Y+3429000D02*
X+1778000Y+3365500D01*
X+1778000Y+3175000D01*
X+5316000Y+2156000D02*
X+5207000Y+2156000D01*
X+5207000Y+1906461D01*
X+5100345Y+1906461D01*
X+5316000Y+2156000D02*
X+5316000Y+2156001D01*
X+5397500Y+2156001D01*
X+5397501Y+2156000D01*
X+5610640Y+2156000D01*
X+4721640Y+2156000D02*
X+4721640Y+1908360D01*
X+3861883Y+2709188D02*
X+3907071Y+2664000D01*
X+4045998Y+2664000D01*
X+4045999Y+2664000D02*
X+4045998Y+2664000D01*
X+9378130Y+1245718D02*
X+8883147Y+1245718D01*
X+8706362Y+1068933D01*
X+5100345Y+1906461D02*
X+5100345Y+1777295D01*
X+5102640Y+1775000D01*
X+4213640Y+2664000D02*
X+4127500Y+2664000D01*
X+5229640Y+3172000D02*
X+5062000Y+3172000D01*
X+4935000Y+3299000D01*
X+2582000Y+4569000D02*
X+2582000Y+4823000D01*
X+515400Y+1534000D02*
X+515400Y+832000D01*
X+515400Y+1534000D02*
X+680678Y+1699278D01*
X+617956Y+1762000D01*
X+515400Y+1762000D01*
X+515400Y+1992000D01*
X+628366Y+2104966D01*
X+628366Y+2337034D01*
X+515400Y+2450000D01*
X+515400Y+1762000D02*
X+656221Y+1902821D01*
X+656221Y+1931673D01*
X+717636Y+1993088D01*
X+1117039Y+1993088D01*
X+1142496Y+1967631D01*
X+1506000Y+1775000D02*
X+1632397Y+1901397D01*
X+1632397Y+1964511D01*
X+515400Y+832000D02*
X+693531Y+653869D01*
X+1400869Y+653869D01*
X+1506000Y+759000D01*
X+9773700Y+1749600D02*
X+9840375Y+1741879D01*
X+9833575Y+1741879D01*
X+8364000Y+3211454D01*
X+8364000Y+4632500D01*
X+9773700Y+1076500D02*
X+9641056Y+1209144D01*
X+9641056Y+1616956D01*
X+9773700Y+1749600D01*
X+7445714Y+4326588D02*
X+7723982Y+4326588D01*
X+515400Y+2450000D02*
X+515400Y+2465569D01*
X+627112Y+2577281D01*
X+5697000Y+2918000D02*
X+5697000Y+2791000D01*
X+5824000Y+2664000D01*
X+2522000Y+1775000D02*
X+2422479Y+1675479D01*
X+1605521Y+1675479D01*
X+1506000Y+1775000D01*
X+5229640Y+3172000D02*
X+5139717Y+3082077D01*
X+5079046Y+3082077D01*
X+5379500Y+2698521D02*
X+5223521Y+2698521D01*
X+5189000Y+2664000D01*
X+5229640Y+3172000D02*
X+5229640Y+3393882D01*
X+5136580Y+3486942D01*
X+9315177Y+3711750D02*
X+9315177Y+3713955D01*
X+8814674Y+4214458D01*
X+7917680Y+3763296D02*
X+7917680Y+3734497D01*
X+7917680Y+4218487D01*
X+5697000Y+2918000D02*
X+5697000Y+3018334D01*
X+5643942Y+3071392D01*
X+5229640Y+3172000D02*
X+5328292Y+3270652D01*
X+5512355Y+3270652D01*
X+5559726Y+3223281D01*
X+5559726Y+3199219D01*
X+2308640Y+2537000D02*
X+2019994Y+2537000D01*
X+1979706Y+2577288D01*
X+2308640Y+2791000D02*
X+2413689Y+2896049D01*
X+2500049Y+2896049D01*
X+2776000Y+3172000D01*
X+2694864Y+2492250D02*
X+2739614Y+2537000D01*
X+2816640Y+2537000D01*
X+2308640Y+2791000D02*
X+2251969Y+2791000D01*
X+2199970Y+2739001D01*
X+2308640Y+2537000D02*
X+2317072Y+2528568D01*
X+2317072Y+2429059D01*
X+3284000Y+2918000D02*
X+3284000Y+2766000D01*
X+3596000Y+2454000D01*
X+7982470Y+1949591D02*
X+8433312Y+1949591D01*
X+8440177Y+1942726D01*
X+7968740Y+1949591D02*
X+7982470Y+1949591D01*
X+7975605Y+1942726D01*
X+8446010Y+1936893D02*
X+8440177Y+1942726D01*
X+7968740Y+1949591D02*
X+7975605Y+1942726D01*
X+8440177Y+1942726D01*
X+7968740Y+1949591D02*
X+7897199Y+1949591D01*
X+7891530Y+1943922D01*
X+7859467Y+1975985D02*
X+7891530Y+1943922D01*
X+1985944Y+3549709D02*
X+1890291Y+3549709D01*
X+1887000Y+3553000D01*
X+1984785Y+3292043D02*
X+1893957Y+3292043D01*
X+1887000Y+3299000D01*
X+2074538Y+2961419D02*
X+1990957Y+3045000D01*
X+1887000Y+3045000D01*
X+2904693Y+2665456D02*
X+2900149Y+2670000D01*
X+2008000Y+2670000D01*
X+1887000Y+2791000D01*
X+4323949Y+1946071D02*
X+4300000Y+1970020D01*
X+4300000Y+2037640D01*
X+4705604Y+282894D02*
X+4705604Y+670637D01*
X+4694365Y+681876D01*
X+7758524Y+1398926D02*
X+7245289Y+1912161D01*
X+6597674Y+1912161D01*
X+6460513Y+1775000D01*
X+6205000Y+1775000D01*
X+7758524Y+1066269D02*
X+7765180Y+1059613D01*
X+8555095Y+1059613D01*
X+9396376Y+1900894D01*
X+7586945Y+1403712D02*
X+7123951Y+1403712D01*
X+6684083Y+1843580D01*
X+6344421Y+1949868D02*
X+6441408Y+1852881D01*
X+7596350Y+1073774D02*
X+7975473Y+694651D01*
X+8079138Y+694651D01*
X+1292640Y+3807000D02*
X+1292640Y+3553000D01*
X+1390025Y+3650385D01*
X+1576255Y+3650385D01*
X+1673640Y+3553000D01*
X+1292640Y+3807000D02*
X+998000Y+3807000D01*
X+7160000Y+2210000D02*
X+8766685Y+2210000D01*
X+9156010Y+1820675D01*
X+9201515Y+1866180D02*
X+9201515Y+1862043D01*
X+9160147Y+1820675D01*
X+9156010Y+1820675D01*
X+9201515Y+1866180D02*
X+9156010Y+1820675D01*
X+3411000Y+3680000D02*
X+3420332Y+3578400D01*
X+3420332Y+3497572D01*
X+3109312Y+3186552D01*
X+1475092Y+2389904D02*
X+1495188Y+2410000D01*
X+1673640Y+2410000D01*
X+4935000Y+1775000D02*
X+4935000Y+1668266D01*
X+4501962Y+1783870D02*
X+4718796Y+1783870D01*
X+4721640Y+1786714D01*
X+4721640Y+1775000D01*
X+4721640Y+1908360D02*
X+4721640Y+1786714D01*
X+1887000Y+759000D02*
X+1938396Y+810396D01*
X+4296164Y+810396D01*
X+4350312Y+864544D01*
X+4350312Y+912601D01*
X+3694485Y+1525139D02*
X+3190624Y+2029000D01*
X+3030000Y+2029000D01*
X+4136517Y+2904475D02*
X+4136517Y+2743483D01*
X+4162840Y+2717160D01*
X+4213640Y+2664000D01*
X+4294447Y+1373070D02*
X+4058197Y+1136820D01*
X+3712928Y+1136820D01*
X+3605181Y+1029073D01*
X+3170769Y+1029073D01*
X+2945409Y+1254433D01*
X+3890290Y+935223D02*
X+4085210Y+935223D01*
X+4144594Y+875839D01*
X+4216563Y+875839D01*
X+4357885Y+1017161D01*
X+4357885Y+1066236D01*
X+4296820Y+1127301D01*
X+4296820Y+1187781D01*
X+4170223Y+1187781D01*
X+4076082Y+1093640D01*
X+3730813Y+1093640D01*
X+3623066Y+985893D01*
X+2422107Y+985893D01*
X+1887000Y+1521000D01*
X+4173000Y+944419D02*
X+4198401Y+969820D01*
X+4249479Y+969820D01*
X+4304230Y+1024571D01*
X+4304230Y+1058826D01*
X+4230288Y+1132768D01*
X+4230288Y+1144601D01*
X+4141867Y+1056180D01*
X+4099687Y+1056180D01*
X+4093967Y+1050460D01*
X+3748698Y+1050460D01*
X+3640951Y+942713D01*
X+2211287Y+942713D01*
X+1887000Y+1267000D01*
X+1887000Y+1013000D02*
X+2000467Y+899533D01*
X+3658836Y+899533D01*
X+3766583Y+1007280D01*
X+4111852Y+1007280D01*
X+4117572Y+1013000D01*
X+4195673Y+1013000D01*
X+4224371Y+1041698D01*
X+2867002Y+1202625D02*
X+2867002Y+1395233D01*
X+3220204Y+1395233D01*
X+3423647Y+1191790D01*
X+3588847Y+1191790D01*
X+3030000Y+1775000D02*
X+3030000Y+1610581D01*
X+3124072Y+1516509D01*
X+3159993Y+1516509D01*
X+3347510Y+1328992D01*
X+3548631Y+1328992D01*
X+3647623Y+1230000D01*
X+3781419Y+1230000D01*
X+3800000Y+1248581D01*
X+3670328Y+1312881D02*
X+3767314Y+1312881D01*
X+3771594Y+1317161D01*
X+4013681Y+1317161D01*
X+4216520Y+1520000D01*
X+4223210Y+1623828D02*
X+3980843Y+1381461D01*
X+3356106Y+1381461D01*
X+3152478Y+1585089D01*
X+3863459Y+1558355D02*
X+3786924Y+1558355D01*
X+3062279Y+2283000D01*
X+3030000Y+2283000D01*
X+3030000Y+2537000D02*
X+3824278Y+1742722D01*
X+3824278Y+1688121D01*
X+4181932Y+1377530D02*
X+3984402Y+1180000D01*
X+3674044Y+1180000D01*
X+3591697Y+1097653D01*
X+3576775Y+1097653D01*
X+4427000Y+2664000D02*
X+4118889Y+2355889D01*
X+4064111Y+2355889D01*
X+3883000Y+2537000D01*
X+3832640Y+2537000D01*
X+3661969Y+2124076D02*
X+3587146Y+2124076D01*
X+3227478Y+2483744D01*
X+4191000Y+2540000D02*
X+4127500Y+2603500D01*
X+4127500Y+2664000D01*
X+4050000Y+2664000D02*
X+4050000Y+2564001D01*
X+4045999Y+2560000D01*
X+4046000Y+2540000D01*
X+4046000Y+2537000D01*
X+4127500Y+2603500D02*
X+4127500Y+2578100D01*
X+4165600Y+2540000D01*
X+4191000Y+2540000D01*
X+4045999Y+2664000D02*
X+4045999Y+2560000D01*
X+4045999Y+2540001D01*
X+4046000Y+2540000D01*
X+4127500Y+2664000D02*
X+4050000Y+2664000D01*
X+4045999Y+2664000D01*
X+4935437Y+1393507D02*
X+5183031Y+1145913D01*
X+5454113Y+1145913D01*
X+5046712Y+1490493D02*
X+4935000Y+1602205D01*
X+4935000Y+1668266D01*
X+5728880Y+2000360D02*
X+5731590Y+2003070D01*
X+5731590Y+2059382D01*
X+5335402Y+1606882D02*
X+5335402Y+1755598D01*
X+5316000Y+1775000D01*
X+5728880Y+2000360D02*
X+5335402Y+1606882D01*
X+5017125Y+824990D02*
X+5230176Y+824990D01*
X+5643454Y+1238268D01*
X+5643454Y+1454120D01*
X+6264322Y+2074988D01*
X+6027314Y+2250000D02*
X+5905376Y+2128062D01*
X+5905376Y+2079870D01*
X+5222018Y+1396512D01*
X+5029418Y+1396512D01*
X+1673640Y+2156000D02*
X+1657960Y+2171680D01*
X+1619423Y+2171680D01*
X+3180518Y+2585604D02*
X+3180518Y+2814518D01*
X+3284000Y+2918000D01*
X+3570000Y+457571D02*
X+3313750Y+713821D01*
X+3220302Y+713821D01*
X+3220302Y+726250D01*
X+7050000Y+2278581D02*
X+6564901Y+2278581D01*
X+5686634Y+1400314D01*
X+5686634Y+880937D01*
X+6110000Y+457571D01*
X+6364000Y+457571D02*
X+6529000Y+622571D01*
X+6540500Y+622571D01*
X+6667500Y+749571D01*
X+6731000Y+749571D01*
X+6872796Y+891367D01*
X+6872796Y+1013000D01*
X+6967000Y+1013000D01*
X+1506000Y+759000D02*
X+1506000Y+559071D01*
X+1607500Y+457571D01*
X+2554000Y+457571D01*
X+4443991Y+1396399D02*
X+4413959Y+1396399D01*
X+4363027Y+1345467D01*
X+4363027Y+1122159D01*
X+4418893Y+1066293D01*
X+4418893Y+723231D01*
X+4198127Y+502465D01*
X+4198127Y+323698D01*
X+4078000Y+203571D01*
X+4940000Y+970000D02*
X+4822565Y+852565D01*
X+4822565Y+546471D01*
X+4840000Y+457571D01*
X+4300000Y+2037640D02*
X+3929070Y+2408570D01*
X+3921288Y+2408570D01*
X+3940000Y+2389858D01*
X+3940000Y+2380000D01*
X+2357075Y+352925D02*
X+2341728Y+337578D01*
X+2688007Y+337578D01*
X+2808000Y+457571D01*
X+3316000Y+203571D02*
X+3439571Y+80000D01*
X+3700429Y+80000D01*
X+3824000Y+203571D01*
X+3947571Y+80000D01*
X+4970429Y+80000D01*
X+5094000Y+203571D01*
X+4407678Y+597679D02*
X+4462095Y+652096D01*
X+4462095Y+1125812D01*
X+4435870Y+1152037D01*
X+6872000Y+203571D02*
X+7005571Y+70000D01*
X+7719858Y+70000D01*
X+8706362Y+1056504D01*
X+8706362Y+1068933D01*
X+7975605Y+1942726D02*
X+7892726Y+1942726D01*
X+7892726Y+1903475D01*
X+7932970Y+1863231D01*
X+7932970Y+1432970D01*
X+7809217Y+1309217D01*
X+7336316Y+1309217D01*
X+7297664Y+1270565D01*
X+7297664Y+1167664D01*
X+6800000Y+670000D01*
X+6700000Y+670000D01*
X+7735708Y+591834D02*
X+7466869Y+322995D01*
X+7033534Y+322995D01*
X+7023857Y+313318D01*
X+6967045Y+313318D01*
X+6957368Y+322995D01*
X+6815424Y+322995D01*
X+6740000Y+247571D01*
X+6740000Y+156684D01*
X+6657040Y+73724D01*
X+5787467Y+73724D01*
X+5721390Y+139801D01*
X+5721390Y+338181D01*
X+5602000Y+457571D01*
X+5860466Y+364086D02*
X+5886970Y+337582D01*
X+6667581Y+337582D01*
X+6738818Y+408819D01*
X+6738818Y+513594D01*
X+7491261Y+1266037D01*
X+8279209Y+1266037D01*
X+8287761Y+1274589D01*
X+8459498Y+1191287D02*
X+8356341Y+1294444D01*
X+8356341Y+1656905D01*
X+8280262Y+1732984D01*
X+7842501Y+697911D02*
X+7181208Y+697911D01*
X+6995451Y+512154D01*
X+6995451Y+394600D01*
X+6995451Y+381898D01*
X+2582000Y+4569000D02*
X+2582000Y+4191000D01*
X+2600000Y+4173000D01*
X+2600000Y+3492500D01*
X+2540000Y+3492500D01*
X+2600000Y+3492500D02*
X+2857500Y+3492500D01*
X+2921000Y+3429000D01*
X+2921000Y+2857500D01*
X+2854500Y+2791000D01*
X+2522000Y+2791000D01*
X+5376000Y+4823000D02*
X+5376000Y+4752275D01*
X+5495325Y+4632950D01*
X+5495325Y+4518478D01*
X+4787854Y+3811007D01*
X+3873380Y+3811007D01*
X+3030000Y+2967627D01*
X+3030000Y+2537000D01*
X+4334316Y+4232578D02*
X+4394316Y+4232578D01*
X+4394316Y+4534684D01*
X+4360000Y+4569000D01*
X+4596317Y+3048000D02*
X+4681000Y+2963317D01*
X+4687627Y+2956690D01*
X+4687627Y+2946892D01*
X+4681000Y+2918000D01*
X+4681000Y+2963317D01*
X+4681000Y+3048000D01*
X+4635500Y+3048000D01*
X+4213640Y+2664000D02*
X+4318000Y+2664000D01*
X+4318000Y+2984500D01*
X+4381500Y+3048000D01*
X+4596317Y+3048000D01*
X+4635500Y+3048000D01*
X+4057153Y+3446562D02*
X+4197755Y+3446562D01*
X+4596317Y+3048000D01*
X+4008396Y+3879587D02*
X+4472083Y+3879587D01*
X+4755487Y+4162991D01*
X+5210912Y+4036665D02*
X+5373556Y+4199309D01*
X+7463624Y+4199309D01*
X+8910100Y+4632500D02*
X+8773805Y+4768795D01*
X+8309571Y+4768795D01*
X+8153341Y+4612565D01*
X+8153341Y+3901970D01*
X+7907896Y+3656525D01*
X+5995477Y+3656525D01*
X+5952581Y+3699421D01*
D11*
X+3522473Y+3335782D03*
X+2683448Y+4172581D03*
X+5587308Y+2412163D03*
X+7463624Y+4199309D03*
X+5454113Y+1145913D03*
X+4389521Y+3157243D03*
X+4797295Y+1628178D03*
X+6135680Y+693587D03*
X+6913343Y+1171846D03*
X+6860269Y+1385121D03*
X+9415560Y+4388170D03*
X+9152516Y+4384780D03*
X+409403Y+1271224D03*
X+589942Y+1271224D03*
X+3220302Y+726250D03*
X+3225776Y+1714331D03*
X+3400948Y+1626745D03*
X+8170263Y+2666630D03*
X+6264322Y+2074988D03*
X+5017125Y+824990D03*
X+7050000Y+2278581D03*
X+8040000Y+2565062D03*
X+4642353Y+1575016D03*
X+4008396Y+3879587D03*
X+4776959Y+3438361D03*
X+4790488Y+3131784D03*
X+4945721Y+3019242D03*
X+4016572Y+3742426D03*
X+5032168Y+2534443D03*
X+5038561Y+2323487D03*
X+5362453Y+3016020D03*
X+5756011Y+1264435D03*
X+4395977Y+2935343D03*
X+5400942Y+1964401D03*
X+5135671Y+1998762D03*
X+5549844Y+3068502D03*
X+4800945Y+2772184D03*
X+4535656Y+2798995D03*
X+1645307Y+1386315D03*
X+1097600Y+1546573D03*
X+1399002Y+1522826D03*
X+2667000Y+1778000D03*
X+1778000Y+3175000D03*
X+8280262Y+1732984D03*
X+9378130Y+1245718D03*
X+5100345Y+1906461D03*
X+4721640Y+1908360D03*
X+1142496Y+1967631D03*
X+1632397Y+1964511D03*
X+7917680Y+4218487D03*
X+7723982Y+4326588D03*
X+7445714Y+4326588D03*
X+627112Y+2577281D03*
X+5079046Y+3082077D03*
X+5379500Y+2698521D03*
X+5136580Y+3486942D03*
X+3861883Y+2709188D03*
X+8814674Y+4214458D03*
X+9315177Y+3711750D03*
X+7917680Y+3763296D03*
X+5643942Y+3071392D03*
X+5559726Y+3199219D03*
X+2694864Y+2492250D03*
X+2199970Y+2739001D03*
X+1979706Y+2577288D03*
X+2317072Y+2429059D03*
X+3596000Y+2454000D03*
X+8446010Y+1936893D03*
X+7859467Y+1975985D03*
X+4334316Y+4232578D03*
X+1985944Y+3549709D03*
X+1984785Y+3292043D03*
X+2074538Y+2961419D03*
X+2904693Y+2665456D03*
X+3890290Y+935223D03*
X+4173000Y+944419D03*
X+4323949Y+1946071D03*
X+4294447Y+1373070D03*
X+4443991Y+1396399D03*
X+4694365Y+681876D03*
X+4705604Y+282894D03*
X+6205000Y+1775000D03*
X+9396376Y+1900894D03*
X+7758524Y+1066269D03*
X+7758524Y+1398926D03*
X+6684083Y+1843580D03*
X+6441408Y+1852881D03*
X+6344421Y+1949868D03*
X+8079138Y+694651D03*
X+7596350Y+1073774D03*
X+7586945Y+1403712D03*
X+9201515Y+1866180D03*
X+7160000Y+2210000D03*
X+3109312Y+3186552D03*
X+1475092Y+2389904D03*
X+4501962Y+1783870D03*
X+4224371Y+1041698D03*
X+4350312Y+912601D03*
X+2945409Y+1254433D03*
X+3694485Y+1525139D03*
X+4223210Y+1623828D03*
X+3152478Y+1585089D03*
X+4136517Y+2904475D03*
X+2867002Y+1202625D03*
X+3588847Y+1191790D03*
X+3800000Y+1248581D03*
X+3670328Y+1312881D03*
X+3863459Y+1558355D03*
X+4216520Y+1520000D03*
X+3824278Y+1688121D03*
X+4181932Y+1377530D03*
X+3576775Y+1097653D03*
X+3661969Y+2124076D03*
X+3227478Y+2483744D03*
X+4191000Y+2540000D03*
X+4935437Y+1393507D03*
X+5046712Y+1490493D03*
X+5728880Y+2000360D03*
X+5335402Y+1606882D03*
X+6027314Y+2250000D03*
X+5029418Y+1396512D03*
X+4940000Y+970000D03*
X+1619423Y+2171680D03*
X+3180518Y+2585604D03*
X+3940000Y+2380000D03*
X+2357075Y+352925D03*
X+4407678Y+597679D03*
X+4435870Y+1152037D03*
X+8706362Y+1068933D03*
X+5860466Y+364086D03*
X+6700000Y+670000D03*
X+7735708Y+591834D03*
X+8287761Y+1274589D03*
X+8459498Y+1191287D03*
X+7842501Y+697911D03*
X+6995451Y+381898D03*
X+4057153Y+3446562D03*
X+4755487Y+4162991D03*
X+5210912Y+4036665D03*
X+5952581Y+3699421D03*
D12*
X+9491168Y+4812707D02*
X+9474974Y+4788219D01*
X+9455357Y+4697000D01*
X+9474974Y+4605781D01*
X+9498550Y+4570129D01*
X+9502977Y+4424679D01*
X+9451857Y+4475799D01*
X+9379263Y+4475799D01*
X+9354383Y+4450919D01*
X+9209434Y+4451787D01*
X+9188813Y+4472409D01*
X+9116219Y+4472409D01*
X+9064887Y+4421077D01*
X+9064887Y+4348483D01*
X+9116219Y+4297151D01*
X+9188813Y+4297151D01*
X+9218842Y+4327180D01*
X+9353600Y+4326203D01*
X+9379263Y+4300541D01*
X+9451857Y+4300541D01*
X+9503189Y+4351873D01*
X+9503189Y+4417721D01*
X+9504460Y+4375960D01*
X+9907070Y+4369734D01*
X+9907070Y+1900729D01*
X+9622571Y+1900729D01*
X+9622571Y+1344471D01*
X+9907070Y+1344471D01*
X+9907070Y+1227629D01*
X+9622571Y+1227629D01*
X+9622571Y+671371D01*
X+9907070Y+671371D01*
X+9907070Y+567961D01*
X+9476520Y+583740D01*
X+9392298Y+71930D01*
X+7444127Y+71930D01*
X+7518429Y+146232D01*
X+7518429Y+260910D01*
X+7505608Y+273730D01*
X+7736083Y+504205D01*
X+7772005Y+504205D01*
X+7823337Y+555537D01*
X+7823337Y+610282D01*
X+7878798Y+610282D01*
X+7925318Y+656802D01*
X+7949698Y+632422D01*
X+8017441Y+632422D01*
X+8042841Y+607022D01*
X+8115435Y+607022D01*
X+8166767Y+658354D01*
X+8166767Y+730948D01*
X+8115435Y+782280D01*
X+8042841Y+782280D01*
X+8017441Y+756880D01*
X+8001248Y+756880D01*
X+7779488Y+978640D01*
X+7794821Y+978640D01*
X+7813565Y+997384D01*
X+8580870Y+997384D01*
X+8655562Y+1072076D01*
X+8655562Y+1047891D01*
X+8685320Y+1018133D01*
X+8727404Y+1018133D01*
X+8757162Y+1047891D01*
X+8757162Y+1089975D01*
X+8727404Y+1119733D01*
X+8703219Y+1119733D01*
X+9396751Y+1813265D01*
X+9432673Y+1813265D01*
X+9484005Y+1864597D01*
X+9484005Y+1937191D01*
X+9432673Y+1988523D01*
X+9360079Y+1988523D01*
X+9308747Y+1937191D01*
X+9308747Y+1901269D01*
X+9289144Y+1881666D01*
X+9289144Y+1902477D01*
X+9237812Y+1953809D01*
X+9165218Y+1953809D01*
X+9138049Y+1926640D01*
X+8792460Y+2272229D01*
X+7221697Y+2272229D01*
X+7196297Y+2297629D01*
X+7157052Y+2297629D01*
X+7362256Y+2502833D01*
X+7978303Y+2502833D01*
X+8003703Y+2477433D01*
X+8076297Y+2477433D01*
X+8127629Y+2528765D01*
X+8127629Y+2571414D01*
X+8163051Y+2571414D01*
X+8170638Y+2579001D01*
X+8206560Y+2579001D01*
X+8257892Y+2630333D01*
X+8257892Y+2702927D01*
X+8206560Y+2754259D01*
X+8133966Y+2754259D01*
X+8082634Y+2702927D01*
X+8082634Y+2695872D01*
X+6385182Y+2695872D01*
X+6026939Y+2337629D01*
X+5991017Y+2337629D01*
X+5939685Y+2286297D01*
X+5939685Y+2250375D01*
X+5924329Y+2235019D01*
X+5924329Y+2269029D01*
X+5723671Y+2269029D01*
X+5723671Y+2143275D01*
X+5710969Y+2130573D01*
X+5710969Y+2269029D01*
X+5510311Y+2269029D01*
X+5510311Y+2042971D01*
X+5647565Y+2042971D01*
X+5641251Y+2036657D01*
X+5641251Y+2000735D01*
X+5416329Y+1775813D01*
X+5416329Y+1876772D01*
X+5437239Y+1876772D01*
X+5488571Y+1928104D01*
X+5488571Y+2000698D01*
X+5437239Y+2052030D01*
X+5416329Y+2052030D01*
X+5416329Y+2269029D01*
X+5215671Y+2269029D01*
X+5215671Y+2042971D01*
X+5355586Y+2042971D01*
X+5313313Y+2000698D01*
X+5313313Y+1964776D01*
X+5253771Y+1905234D01*
X+5253771Y+1888029D01*
X+5215671Y+1888029D01*
X+5215671Y+1661971D01*
X+5266565Y+1661971D01*
X+5247773Y+1643179D01*
X+5247773Y+1570585D01*
X+5277930Y+1540428D01*
X+5196242Y+1458740D01*
X+5134341Y+1458740D01*
X+5134341Y+1526790D01*
X+5083009Y+1578122D01*
X+5047087Y+1578122D01*
X+4997229Y+1627980D01*
X+4997229Y+1661971D01*
X+5202969Y+1661971D01*
X+5202969Y+1888029D01*
X+5151145Y+1888029D01*
X+5151145Y+1911133D01*
X+5171968Y+1911133D01*
X+5223300Y+1962465D01*
X+5223300Y+2035059D01*
X+5202969Y+2055390D01*
X+5202969Y+2269029D01*
X+5169370Y+2269029D01*
X+5169370Y+2343006D01*
X+5176675Y+2350311D01*
X+5302029Y+2350311D01*
X+5302029Y+2436060D01*
X+5467740Y+2601771D01*
X+5510311Y+2601771D01*
X+5510311Y+2550971D01*
X+5638112Y+2550971D01*
X+5586933Y+2499792D01*
X+5551011Y+2499792D01*
X+5499679Y+2448460D01*
X+5499679Y+2375866D01*
X+5551011Y+2324534D01*
X+5623605Y+2324534D01*
X+5674937Y+2375866D01*
X+5674937Y+2411788D01*
X+5763449Y+2500300D01*
X+5906243Y+2500300D01*
X+5968682Y+2562739D01*
X+5968682Y+3028397D01*
X+5184533Y+3812546D01*
X+4877397Y+3812546D01*
X+5123283Y+4058432D01*
X+5123283Y+4000368D01*
X+5174615Y+3949036D01*
X+5247209Y+3949036D01*
X+5298541Y+4000368D01*
X+5298541Y+4036290D01*
X+5399331Y+4137080D01*
X+7401927Y+4137080D01*
X+7427327Y+4111680D01*
X+7499921Y+4111680D01*
X+7551253Y+4163012D01*
X+7551253Y+4235606D01*
X+7499921Y+4286938D01*
X+7477906Y+4286938D01*
X+7496514Y+4305546D01*
X+7496514Y+4347630D01*
X+7466756Y+4377388D01*
X+7424672Y+4377388D01*
X+7394914Y+4347630D01*
X+7394914Y+4305546D01*
X+7420424Y+4280035D01*
X+7401927Y+4261538D01*
X+5347781Y+4261538D01*
X+5210537Y+4124294D01*
X+5189145Y+4124294D01*
X+5534041Y+4469190D01*
X+5572661Y+4430571D01*
X+5687339Y+4430571D01*
X+5757000Y+4500232D01*
X+5826661Y+4430571D01*
X+5941339Y+4430571D01*
X+6011000Y+4500232D01*
X+6080661Y+4430571D01*
X+6195339Y+4430571D01*
X+6265000Y+4500232D01*
X+6334661Y+4430571D01*
X+6449339Y+4430571D01*
X+6519000Y+4500232D01*
X+6588661Y+4430571D01*
X+6703339Y+4430571D01*
X+6773000Y+4500232D01*
X+6842661Y+4430571D01*
X+6957339Y+4430571D01*
X+7027000Y+4500232D01*
X+7096661Y+4430571D01*
X+7211339Y+4430571D01*
X+7281000Y+4500232D01*
X+7350661Y+4430571D01*
X+7465339Y+4430571D01*
X+7546429Y+4511661D01*
X+7546429Y+4626339D01*
X+7488197Y+4684571D01*
X+7546429Y+4684571D01*
X+7546429Y+4922070D01*
X+9487839Y+4922070D01*
X+9491168Y+4812707D01*
X+8847237Y+4783366D02*
X+8847500Y+4783629D01*
X+8972700Y+4783629D01*
X+9061229Y+4695100D01*
X+9061229Y+4569900D01*
X+8972700Y+4481371D01*
X+8847500Y+4481371D01*
X+8758971Y+4569900D01*
X+8758971Y+4695100D01*
X+8759233Y+4695362D01*
X+8748030Y+4706566D01*
X+8503663Y+4706566D01*
X+8515129Y+4695100D01*
X+8515129Y+4569900D01*
X+8426600Y+4481371D01*
X+8301400Y+4481371D01*
X+8215570Y+4567201D01*
X+8215570Y+3876195D01*
X+7933671Y+3594296D01*
X+5969702Y+3594296D01*
X+5952206Y+3611792D01*
X+5916284Y+3611792D01*
X+5864952Y+3663124D01*
X+5864952Y+3735718D01*
X+5916284Y+3787050D01*
X+5988878Y+3787050D01*
X+6040210Y+3735718D01*
X+6040210Y+3718754D01*
X+7882121Y+3718754D01*
X+7886250Y+3722883D01*
X+7866880Y+3742254D01*
X+7866880Y+3784338D01*
X+7896638Y+3814096D01*
X+7938722Y+3814096D01*
X+7958092Y+3794725D01*
X+8091112Y+3927745D01*
X+8091112Y+4488783D01*
X+8083700Y+4481371D01*
X+7958500Y+4481371D01*
X+7869971Y+4569900D01*
X+7869971Y+4695100D01*
X+7958500Y+4783629D01*
X+8083700Y+4783629D01*
X+8160050Y+4707278D01*
X+8283796Y+4831024D01*
X+8799580Y+4831024D01*
X+8847237Y+4783366D01*
X+9127271Y+4557200D02*
X+9127271Y+4682400D01*
X+9215800Y+4770929D01*
X+9341000Y+4770929D01*
X+9429529Y+4682400D01*
X+9429529Y+4557200D01*
X+9341000Y+4468671D01*
X+9215800Y+4468671D01*
X+9127271Y+4557200D01*
X+9327330Y+1224676D02*
X+9327330Y+1266760D01*
X+9357088Y+1296518D01*
X+9399172Y+1296518D01*
X+9428930Y+1266760D01*
X+9428930Y+1224676D01*
X+9399172Y+1194918D01*
X+9357088Y+1194918D01*
X+9327330Y+1224676D01*
X+7866880Y+4197445D02*
X+7866880Y+4239529D01*
X+7896638Y+4269287D01*
X+7938722Y+4269287D01*
X+7968480Y+4239529D01*
X+7968480Y+4197445D01*
X+7938722Y+4167687D01*
X+7896638Y+4167687D01*
X+7866880Y+4197445D01*
X+7673182Y+4305546D02*
X+7673182Y+4347630D01*
X+7702940Y+4377388D01*
X+7745024Y+4377388D01*
X+7774782Y+4347630D01*
X+7774782Y+4305546D01*
X+7745024Y+4275788D01*
X+7702940Y+4275788D01*
X+7673182Y+4305546D01*
X+8763874Y+4193416D02*
X+8763874Y+4235500D01*
X+8793632Y+4265258D01*
X+8835716Y+4265258D01*
X+8865474Y+4235500D01*
X+8865474Y+4193416D01*
X+8835716Y+4163658D01*
X+8793632Y+4163658D01*
X+8763874Y+4193416D01*
X+9264377Y+3690708D02*
X+9264377Y+3732792D01*
X+9294135Y+3762550D01*
X+9336219Y+3762550D01*
X+9365977Y+3732792D01*
X+9365977Y+3690708D01*
X+9336219Y+3660950D01*
X+9294135Y+3660950D01*
X+9264377Y+3690708D01*
X+2443571Y+4880339D02*
X+2443571Y+4765661D01*
X+2513232Y+4696000D01*
X+2443571Y+4626339D01*
X+2443571Y+4511661D01*
X+2524661Y+4430571D01*
X+2639339Y+4430571D01*
X+2709000Y+4500232D01*
X+2778661Y+4430571D01*
X+2893339Y+4430571D01*
X+2963000Y+4500232D01*
X+3032661Y+4430571D01*
X+3147339Y+4430571D01*
X+3217000Y+4500232D01*
X+3286661Y+4430571D01*
X+3401339Y+4430571D01*
X+3471000Y+4500232D01*
X+3540661Y+4430571D01*
X+3655339Y+4430571D01*
X+3725000Y+4500232D01*
X+3794661Y+4430571D01*
X+3909339Y+4430571D01*
X+3979000Y+4500232D01*
X+4048661Y+4430571D01*
X+4163339Y+4430571D01*
X+4233000Y+4500232D01*
X+4302661Y+4430571D01*
X+4332088Y+4430571D01*
X+4332088Y+4320207D01*
X+4298019Y+4320207D01*
X+4246687Y+4268875D01*
X+4246687Y+4196281D01*
X+4268939Y+4174029D01*
X+4072671Y+4174029D01*
X+4072671Y+3947971D01*
X+4273329Y+3947971D01*
X+4273329Y+4169639D01*
X+4298019Y+4144949D01*
X+4370613Y+4144949D01*
X+4396013Y+4170349D01*
X+4420091Y+4170349D01*
X+4456544Y+4206802D01*
X+4456544Y+4469776D01*
X+4487000Y+4500232D01*
X+4556661Y+4430571D01*
X+4671339Y+4430571D01*
X+4741000Y+4500232D01*
X+4810661Y+4430571D01*
X+4925339Y+4430571D01*
X+4995000Y+4500232D01*
X+5064661Y+4430571D01*
X+5179339Y+4430571D01*
X+5249000Y+4500232D01*
X+5318661Y+4430571D01*
X+5319414Y+4430571D01*
X+4762079Y+3873236D01*
X+4553736Y+3873236D01*
X+4755862Y+4075362D01*
X+4791784Y+4075362D01*
X+4843116Y+4126694D01*
X+4843116Y+4199288D01*
X+4791784Y+4250620D01*
X+4719190Y+4250620D01*
X+4667858Y+4199288D01*
X+4667858Y+4163366D01*
X+4446308Y+3941816D01*
X+4070093Y+3941816D01*
X+4059969Y+3951940D01*
X+4059969Y+4174029D01*
X+3859311Y+4174029D01*
X+3859311Y+4123229D01*
X+2820804Y+4123229D01*
X+2771077Y+4172956D01*
X+2771077Y+4208878D01*
X+2719745Y+4260210D01*
X+2647151Y+4260210D01*
X+2595819Y+4208878D01*
X+2595819Y+4136284D01*
X+2647151Y+4084952D01*
X+2683073Y+4084952D01*
X+2769254Y+3998771D01*
X+3859311Y+3998771D01*
X+3859311Y+3947971D01*
X+3952854Y+3947971D01*
X+3920767Y+3915884D01*
X+3920767Y+3873236D01*
X+3847605Y+3873236D01*
X+3482561Y+3508192D01*
X+3482561Y+3537832D01*
X+3562129Y+3617400D01*
X+3562129Y+3742600D01*
X+3473600Y+3831129D01*
X+3348400Y+3831129D01*
X+3259871Y+3742600D01*
X+3259871Y+3617400D01*
X+3348400Y+3528871D01*
X+3358103Y+3528871D01*
X+3358103Y+3523347D01*
X+3108937Y+3274181D01*
X+3073015Y+3274181D01*
X+3021683Y+3222849D01*
X+3021683Y+3150255D01*
X+3073015Y+3098923D01*
X+3073292Y+3098923D01*
X+2967771Y+2993402D01*
X+2967771Y+2726304D01*
X+2940990Y+2753085D01*
X+2868396Y+2753085D01*
X+2847540Y+2732229D01*
X+2622329Y+2732229D01*
X+2622329Y+2904029D01*
X+2596033Y+2904029D01*
X+2713137Y+3021133D01*
X+2713400Y+3020871D01*
X+2838600Y+3020871D01*
X+2927129Y+3109400D01*
X+2927129Y+3234600D01*
X+2838600Y+3323129D01*
X+2713400Y+3323129D01*
X+2624871Y+3234600D01*
X+2624871Y+3109400D01*
X+2625133Y+3109137D01*
X+2474274Y+2958278D01*
X+2387914Y+2958278D01*
X+2333665Y+2904029D01*
X+2208311Y+2904029D01*
X+2208311Y+2835346D01*
X+2199595Y+2826630D01*
X+2163673Y+2826630D01*
X+2112341Y+2775298D01*
X+2112341Y+2732229D01*
X+2033775Y+2732229D01*
X+1987329Y+2778675D01*
X+1987329Y+2904029D01*
X+1786671Y+2904029D01*
X+1786671Y+2677971D01*
X+1912025Y+2677971D01*
X+1934244Y+2655752D01*
X+1892077Y+2613585D01*
X+1892077Y+2540991D01*
X+1910039Y+2523029D01*
X+1861975Y+2523029D01*
X+1767499Y+2617505D01*
X+1450819Y+2617505D01*
X+1390353Y+2677971D01*
X+1392969Y+2677971D01*
X+1392969Y+2803325D01*
X+1405671Y+2816027D01*
X+1405671Y+2677971D01*
X+1773969Y+2677971D01*
X+1773969Y+2904029D01*
X+1735869Y+2904029D01*
X+1735869Y+2913478D01*
X+1717376Y+2931971D01*
X+1773969Y+2931971D01*
X+1773969Y+3124200D01*
X+1786671Y+3124200D01*
X+1786671Y+2931971D01*
X+1986909Y+2931971D01*
X+1986909Y+2925122D01*
X+2038241Y+2873790D01*
X+2110835Y+2873790D01*
X+2162167Y+2925122D01*
X+2162167Y+2997716D01*
X+2110835Y+3049048D01*
X+2074913Y+3049048D01*
X+2016732Y+3107229D01*
X+1987329Y+3107229D01*
X+1987329Y+3158029D01*
X+1828800Y+3158029D01*
X+1828800Y+3185971D01*
X+1987329Y+3185971D01*
X+1987329Y+3204414D01*
X+2021082Y+3204414D01*
X+2072414Y+3255746D01*
X+2072414Y+3328340D01*
X+2021082Y+3379672D01*
X+1987329Y+3379672D01*
X+1987329Y+3412029D01*
X+1786671Y+3412029D01*
X+1786671Y+3225800D01*
X+1773969Y+3225800D01*
X+1773969Y+3412029D01*
X+1734975Y+3412029D01*
X+1707033Y+3439971D01*
X+1773969Y+3439971D01*
X+1773969Y+3666029D01*
X+1648615Y+3666029D01*
X+1606329Y+3708315D01*
X+1606329Y+3920029D01*
X+1405671Y+3920029D01*
X+1405671Y+3712614D01*
X+1392969Y+3712614D01*
X+1392969Y+3920029D01*
X+1192311Y+3920029D01*
X+1192311Y+3869229D01*
X+1149129Y+3869229D01*
X+1149129Y+3869600D01*
X+1060600Y+3958129D01*
X+935400Y+3958129D01*
X+846871Y+3869600D01*
X+846871Y+3744400D01*
X+935400Y+3655871D01*
X+1060600Y+3655871D01*
X+1149129Y+3744400D01*
X+1149129Y+3744771D01*
X+1192311Y+3744771D01*
X+1192311Y+3693971D01*
X+1230411Y+3693971D01*
X+1230411Y+3666029D01*
X+1192311Y+3666029D01*
X+1192311Y+3439971D01*
X+1345607Y+3439971D01*
X+1317665Y+3412029D01*
X+1192311Y+3412029D01*
X+1192311Y+3185971D01*
X+1304967Y+3185971D01*
X+1277025Y+3158029D01*
X+1192311Y+3158029D01*
X+1192311Y+2931971D01*
X+1345607Y+2931971D01*
X+1317665Y+2904029D01*
X+1192311Y+2904029D01*
X+1192311Y+2743525D01*
X+550470Y+2743525D01*
X+393429Y+2586484D01*
X+393429Y+2618688D01*
X+316088Y+2696029D01*
X+206712Y+2696029D01*
X+129371Y+2618688D01*
X+129371Y+2509312D01*
X+189183Y+2449500D01*
X+129371Y+2389688D01*
X+129371Y+2280312D01*
X+189183Y+2220500D01*
X+129371Y+2160688D01*
X+129371Y+2051312D01*
X+189183Y+1991500D01*
X+129371Y+1931688D01*
X+129371Y+1822312D01*
X+189183Y+1762500D01*
X+129371Y+1702688D01*
X+129371Y+1593312D01*
X+206712Y+1515971D01*
X+316046Y+1515971D01*
X+316046Y+1276577D01*
X+321774Y+1270849D01*
X+321774Y+1234927D01*
X+373106Y+1183595D01*
X+445700Y+1183595D01*
X+497032Y+1234927D01*
X+497032Y+1307521D01*
X+445700Y+1358853D01*
X+440504Y+1358853D01*
X+440504Y+1422179D01*
X+460712Y+1401971D01*
X+570088Y+1401971D01*
X+647429Y+1479312D01*
X+647429Y+1588688D01*
X+588117Y+1648000D01*
X+647429Y+1707312D01*
X+647429Y+1812254D01*
X+703818Y+1755865D01*
X+661535Y+1755865D01*
X+661535Y+1540135D01*
X+770849Y+1540135D01*
X+589567Y+1358853D01*
X+553645Y+1358853D01*
X+502313Y+1307521D01*
X+502313Y+1234927D01*
X+553645Y+1183595D01*
X+626239Y+1183595D01*
X+677571Y+1234927D01*
X+677571Y+1270849D01*
X+1192311Y+1785589D01*
X+1192311Y+1762675D01*
X+1063838Y+1634202D01*
X+1061303Y+1634202D01*
X+1009971Y+1582870D01*
X+1009971Y+1510276D01*
X+1061303Y+1458944D01*
X+1133897Y+1458944D01*
X+1137442Y+1462489D01*
X+1137442Y+1334194D01*
X+1192311Y+1279325D01*
X+1192311Y+1153971D01*
X+1392969Y+1153971D01*
X+1392969Y+1332667D01*
X+1405671Y+1319965D01*
X+1405671Y+1158001D01*
X+1373699Y+1126029D01*
X+1192311Y+1126029D01*
X+1192311Y+899971D01*
X+1345607Y+899971D01*
X+1317665Y+872029D01*
X+1192311Y+872029D01*
X+1192311Y+645971D01*
X+1392969Y+645971D01*
X+1392969Y+771325D01*
X+1405671Y+784027D01*
X+1405671Y+645971D01*
X+1773969Y+645971D01*
X+1773969Y+872029D01*
X+1648615Y+872029D01*
X+1620673Y+899971D01*
X+1773969Y+899971D01*
X+1773969Y+1126029D01*
X+1638312Y+1126029D01*
X+1610370Y+1153971D01*
X+1773969Y+1153971D01*
X+1773969Y+1279325D01*
X+1786671Y+1292027D01*
X+1786671Y+1153971D01*
X+1912025Y+1153971D01*
X+1939967Y+1126029D01*
X+1786671Y+1126029D01*
X+1786671Y+899971D01*
X+1912025Y+899971D01*
X+1939371Y+872625D01*
X+1912621Y+872625D01*
X+1912025Y+872029D01*
X+1786671Y+872029D01*
X+1786671Y+645971D01*
X+1987329Y+645971D01*
X+1987329Y+748167D01*
X+3132673Y+748167D01*
X+3132673Y+689953D01*
X+3184005Y+638621D01*
X+3256599Y+638621D01*
X+3269570Y+651592D01*
X+3287975Y+651592D01*
X+3343567Y+596000D01*
X+3258661Y+596000D01*
X+3189000Y+526339D01*
X+3119339Y+596000D01*
X+3004661Y+596000D01*
X+2935000Y+526339D01*
X+2865339Y+596000D01*
X+2750661Y+596000D01*
X+2681000Y+526339D01*
X+2611339Y+596000D01*
X+2496661Y+596000D01*
X+2415571Y+514910D01*
X+2415571Y+418355D01*
X+2393372Y+440554D01*
X+2320778Y+440554D01*
X+2269446Y+389222D01*
X+2269446Y+353300D01*
X+2268325Y+352179D01*
X+2269446Y+349472D01*
X+2269446Y+316628D01*
X+2292670Y+293403D01*
X+2300149Y+275349D01*
X+2310725Y+275349D01*
X+2320778Y+265296D01*
X+2393372Y+265296D01*
X+2403425Y+275349D01*
X+2430010Y+275349D01*
X+2415571Y+260910D01*
X+2415571Y+146232D01*
X+2489873Y+71930D01*
X+461563Y+71930D01*
X+464285Y+168368D01*
X+489026Y+205781D01*
X+508643Y+297000D01*
X+489026Y+388219D01*
X+471249Y+415101D01*
X+474845Y+542471D01*
X+635327Y+542471D01*
X+804929Y+712073D01*
X+804929Y+951927D01*
X+635327Y+1121529D01*
X+395473Y+1121529D01*
X+225871Y+951927D01*
X+225871Y+712073D01*
X+301376Y+636568D01*
X+56930Y+646445D01*
X+56930Y+4432454D01*
X+477300Y+4439460D01*
X+477300Y+4588049D01*
X+489026Y+4605781D01*
X+508643Y+4697000D01*
X+489026Y+4788219D01*
X+477300Y+4805951D01*
X+477300Y+4922070D01*
X+2485302Y+4922070D01*
X+2443571Y+4880339D01*
X+395473Y+3619529D02*
X+635327Y+3619529D01*
X+804929Y+3449927D01*
X+804929Y+3210073D01*
X+635327Y+3040471D01*
X+395473Y+3040471D01*
X+225871Y+3210073D01*
X+225871Y+3449927D01*
X+395473Y+3619529D01*
X+1987329Y+3637338D02*
X+2022241Y+3637338D01*
X+2073573Y+3586006D01*
X+2073573Y+3513412D01*
X+2022241Y+3462080D01*
X+1987329Y+3462080D01*
X+1987329Y+3439971D01*
X+1786671Y+3439971D01*
X+1786671Y+3666029D01*
X+1987329Y+3666029D01*
X+1987329Y+3637338D01*
X+5536042Y+3285029D02*
X+5342671Y+3285029D01*
X+5342671Y+3103649D01*
X+5329969Y+3103649D01*
X+5329969Y+3285029D01*
X+5129311Y+3285029D01*
X+5129311Y+3103654D01*
X+5100088Y+3132877D01*
X+5058004Y+3132877D01*
X+5028246Y+3103119D01*
X+5028246Y+3081471D01*
X+5007418Y+3081471D01*
X+4982018Y+3106871D01*
X+4909424Y+3106871D01*
X+4858092Y+3055539D01*
X+4858092Y+2982945D01*
X+4909424Y+2931613D01*
X+4982018Y+2931613D01*
X+5007418Y+2957013D01*
X+5019120Y+2957013D01*
X+5120362Y+2855771D01*
X+5333407Y+2855771D01*
X+5289527Y+2811891D01*
X+5078844Y+2811891D01*
X+4969939Y+2702986D01*
X+4969939Y+2596140D01*
X+4944539Y+2570740D01*
X+4944539Y+2512869D01*
X+4927529Y+2512869D01*
X+4927529Y+2773529D01*
X+4888574Y+2773529D01*
X+4888574Y+2808481D01*
X+4837242Y+2859813D01*
X+4781329Y+2859813D01*
X+4781329Y+3031029D01*
X+4580671Y+3031029D01*
X+4580671Y+2877906D01*
X+4571953Y+2886624D01*
X+4567969Y+2886624D01*
X+4567969Y+3031029D01*
X+4367311Y+3031029D01*
X+4367311Y+3022972D01*
X+4359680Y+3022972D01*
X+4308348Y+2971640D01*
X+4308348Y+2899046D01*
X+4359680Y+2847714D01*
X+4367311Y+2847714D01*
X+4367311Y+2804971D01*
X+4405411Y+2804971D01*
X+4405411Y+2777029D01*
X+4326671Y+2777029D01*
X+4326671Y+2651675D01*
X+4313969Y+2638973D01*
X+4313969Y+2777029D01*
X+4113311Y+2777029D01*
X+4113311Y+2650029D01*
X+3945671Y+2650029D01*
X+3945671Y+2562333D01*
X+3932969Y+2575035D01*
X+3932969Y+2650029D01*
X+3793741Y+2650029D01*
X+3821470Y+2677758D01*
X+3840841Y+2658388D01*
X+3882925Y+2658388D01*
X+3912683Y+2688146D01*
X+3912683Y+2730230D01*
X+3893312Y+2749600D01*
X+4285762Y+3142050D01*
X+4286316Y+3142050D01*
X+4301892Y+3126474D01*
X+4301892Y+3120946D01*
X+4353224Y+3069614D01*
X+4425818Y+3069614D01*
X+4477150Y+3120946D01*
X+4477150Y+3193540D01*
X+4425818Y+3244872D01*
X+4359502Y+3244872D01*
X+4337866Y+3266508D01*
X+4234212Y+3266508D01*
X+3602771Y+2635067D01*
X+3602771Y+2541629D01*
X+3596374Y+2541629D01*
X+3358866Y+2779137D01*
X+3435129Y+2855400D01*
X+3435129Y+2980600D01*
X+3346600Y+3069129D01*
X+3221400Y+3069129D01*
X+3132871Y+2980600D01*
X+3132871Y+2855400D01*
X+3133133Y+2855137D01*
X+3118289Y+2840293D01*
X+3118289Y+2650029D01*
X+3092229Y+2650029D01*
X+3092229Y+2941852D01*
X+3442353Y+3291976D01*
X+3486176Y+3248153D01*
X+3558770Y+3248153D01*
X+3584170Y+3273553D01*
X+3854558Y+3273554D01*
X+4006438Y+3425434D01*
X+4036111Y+3395762D01*
X+4078195Y+3395762D01*
X+4107953Y+3425520D01*
X+4107953Y+3467604D01*
X+4078280Y+3497276D01*
X+4147975Y+3566971D01*
X+4273329Y+3566971D01*
X+4273329Y+3688090D01*
X+5132981Y+3688090D01*
X+5536042Y+3285029D01*
X+4864588Y+3474658D02*
X+4864588Y+3412029D01*
X+5035329Y+3412029D01*
X+5035329Y+3185971D01*
X+4860227Y+3185971D01*
X+4878117Y+3168081D01*
X+4878117Y+3095487D01*
X+4826785Y+3044155D01*
X+4754191Y+3044155D01*
X+4702859Y+3095487D01*
X+4702859Y+3133350D01*
X+4659411Y+3176798D01*
X+4659411Y+3185971D01*
X+4621311Y+3185971D01*
X+4621311Y+3412029D01*
X+4662623Y+3412029D01*
X+4689330Y+3438736D01*
X+4689330Y+3474658D01*
X+4740662Y+3525990D01*
X+4813256Y+3525990D01*
X+4864588Y+3474658D01*
X+5085780Y+3465900D02*
X+5085780Y+3507984D01*
X+5115538Y+3537742D01*
X+5157622Y+3537742D01*
X+5187380Y+3507984D01*
X+5187380Y+3465900D01*
X+5157622Y+3436142D01*
X+5115538Y+3436142D01*
X+5085780Y+3465900D01*
X+4085717Y+2883433D02*
X+4085717Y+2925517D01*
X+4115475Y+2955275D01*
X+4157559Y+2955275D01*
X+4187317Y+2925517D01*
X+4187317Y+2883433D01*
X+4157559Y+2853675D01*
X+4115475Y+2853675D01*
X+4085717Y+2883433D01*
X+5571052Y+3250019D02*
X+5543329Y+3250019D01*
X+5543329Y+3277742D01*
X+5571052Y+3250019D01*
X+1727200Y+3165804D02*
X+1707033Y+3185971D01*
X+1727200Y+3185971D01*
X+1727200Y+3165804D01*
X+5790042Y+3031029D02*
X+5675421Y+3031029D01*
X+5694742Y+3050350D01*
X+5694742Y+3092434D01*
X+5664984Y+3122192D01*
X+5622900Y+3122192D01*
X+5621489Y+3120781D01*
X+5587310Y+3154961D01*
X+5610526Y+3178177D01*
X+5610526Y+3210545D01*
X+5790042Y+3031029D01*
X+5129311Y+3058971D02*
X+5281478Y+3058971D01*
X+5274824Y+3052317D01*
X+5274824Y+2980229D01*
X+5171912Y+2980229D01*
X+5110476Y+3041665D01*
X+5129311Y+3060500D01*
X+5129311Y+3058971D01*
X+1569310Y+2904029D02*
X+1493673Y+2904029D01*
X+1521615Y+2931971D01*
X+1541367Y+2931971D01*
X+1569310Y+2904029D01*
X+4713316Y+2773529D02*
X+4623285Y+2773529D01*
X+4623285Y+2804971D01*
X+4713316Y+2804971D01*
X+4713316Y+2773529D01*
X+2421671Y+2732229D02*
X+2408969Y+2732229D01*
X+2408969Y+2803325D01*
X+2421671Y+2816027D01*
X+2421671Y+2732229D01*
X+5844224Y+2976847D02*
X+5844224Y+2777029D01*
X+5723671Y+2777029D01*
X+5723671Y+2624758D01*
X+5711899Y+2624758D01*
X+5710969Y+2623828D01*
X+5710969Y+2777029D01*
X+5672869Y+2777029D01*
X+5672869Y+2804971D01*
X+5797329Y+2804971D01*
X+5797329Y+3023742D01*
X+5844224Y+2976847D01*
X+5328700Y+2677479D02*
X+5348070Y+2658109D01*
X+5302029Y+2612068D01*
X+5302029Y+2687433D01*
X+5328700Y+2687433D01*
X+5328700Y+2677479D01*
X+576312Y+2575805D02*
X+570088Y+2582029D01*
X+564982Y+2582029D01*
X+576312Y+2593359D01*
X+576312Y+2575805D01*
X+5240930Y+2550969D02*
X+5119797Y+2550969D01*
X+5119797Y+2563671D01*
X+5253632Y+2563671D01*
X+5240930Y+2550969D01*
X+637371Y+2514746D02*
X+625636Y+2526481D01*
X+637371Y+2526481D01*
X+637371Y+2514746D01*
X+3176678Y+2478326D02*
X+3157029Y+2497975D01*
X+3176678Y+2497975D01*
X+3176678Y+2478326D01*
X+697183Y+2449500D02*
X+647429Y+2399746D01*
X+647429Y+2499254D01*
X+697183Y+2449500D01*
X+697183Y+1991500D02*
X+647429Y+1941746D01*
X+647429Y+2041254D01*
X+697183Y+1991500D01*
X+5048042Y+2035059D02*
X+5048042Y+1962465D01*
X+5066274Y+1944232D01*
X+5049545Y+1927503D01*
X+5049545Y+1888029D01*
X+4997229Y+1888029D01*
X+4997229Y+2042971D01*
X+5055954Y+2042971D01*
X+5048042Y+2035059D01*
X+2574967Y+1888029D02*
X+2469033Y+1888029D01*
X+2496975Y+1915971D01*
X+2547025Y+1915971D01*
X+2574967Y+1888029D01*
X+7013703Y+2190952D02*
X+7072371Y+2190952D01*
X+7072371Y+2173703D01*
X+7123703Y+2122371D01*
X+7196297Y+2122371D01*
X+7221697Y+2147771D01*
X+8740910Y+2147771D01*
X+9130234Y+1758446D01*
X+9165924Y+1758446D01*
X+8529320Y+1121842D01*
X+7826877Y+1121842D01*
X+7794821Y+1153898D01*
X+7722227Y+1153898D01*
X+7681189Y+1112860D01*
X+7632647Y+1161403D01*
X+7560053Y+1161403D01*
X+7508721Y+1110071D01*
X+7508721Y+1037477D01*
X+7560053Y+986145D01*
X+7595975Y+986145D01*
X+7801392Y+780728D01*
X+7780804Y+760140D01*
X+7155433Y+760140D01*
X+6960316Y+565023D01*
X+6929339Y+596000D01*
X+6909228Y+596000D01*
X+7517036Y+1203808D01*
X+8234616Y+1203808D01*
X+8251464Y+1186960D01*
X+8324058Y+1186960D01*
X+8375390Y+1238292D01*
X+8375390Y+1310886D01*
X+8324058Y+1362218D01*
X+8251464Y+1362218D01*
X+8217512Y+1328266D01*
X+7916270Y+1328266D01*
X+7995199Y+1407195D01*
X+7995199Y+1880497D01*
X+8378480Y+1880497D01*
X+8409713Y+1849264D01*
X+8482307Y+1849264D01*
X+8533639Y+1900596D01*
X+8533639Y+1973190D01*
X+8482307Y+2024522D01*
X+8409713Y+2024522D01*
X+8397011Y+2011820D01*
X+7947096Y+2011820D01*
X+7947096Y+2012282D01*
X+7895764Y+2063614D01*
X+7823170Y+2063614D01*
X+7771838Y+2012282D01*
X+7771838Y+1939688D01*
X+7823170Y+1888356D01*
X+7830497Y+1888356D01*
X+7830497Y+1877700D01*
X+7870741Y+1837456D01*
X+7870741Y+1458745D01*
X+7846153Y+1434157D01*
X+7846153Y+1435223D01*
X+7794821Y+1486555D01*
X+7758899Y+1486555D01*
X+7271064Y+1974390D01*
X+6571899Y+1974390D01*
X+6507862Y+1910353D01*
X+6477705Y+1940510D01*
X+6441783Y+1940510D01*
X+6432050Y+1950243D01*
X+6432050Y+1986165D01*
X+6396269Y+2021945D01*
X+6590676Y+2216352D01*
X+6988303Y+2216352D01*
X+7013703Y+2190952D01*
X+8229462Y+1711942D02*
X+8229462Y+1754026D01*
X+8259220Y+1783784D01*
X+8301304Y+1783784D01*
X+8331062Y+1754026D01*
X+8331062Y+1711942D01*
X+8301304Y+1682184D01*
X+8259220Y+1682184D01*
X+8229462Y+1711942D01*
X+8408698Y+1170245D02*
X+8408698Y+1212329D01*
X+8438456Y+1242087D01*
X+8480540Y+1242087D01*
X+8510298Y+1212329D01*
X+8510298Y+1170245D01*
X+8480540Y+1140487D01*
X+8438456Y+1140487D01*
X+8408698Y+1170245D01*
X+1399267Y+2493049D02*
X+1573311Y+2493049D01*
X+1573311Y+2472229D01*
X+1516693Y+2472229D01*
X+1511389Y+2477533D01*
X+1438795Y+2477533D01*
X+1387463Y+2426201D01*
X+1387463Y+2353607D01*
X+1438795Y+2302275D01*
X+1511389Y+2302275D01*
X+1556885Y+2347771D01*
X+1573311Y+2347771D01*
X+1573311Y+2296971D01*
X+1773969Y+2296971D01*
X+1773969Y+2435027D01*
X+1786671Y+2422325D01*
X+1786671Y+2296971D01*
X+1987329Y+2296971D01*
X+1987329Y+2481661D01*
X+1994219Y+2474771D01*
X+2208311Y+2474771D01*
X+2208311Y+2423971D01*
X+2229443Y+2423971D01*
X+2229443Y+2396029D01*
X+2208311Y+2396029D01*
X+2208311Y+2169971D01*
X+2320967Y+2169971D01*
X+2293025Y+2142029D01*
X+2208311Y+2142029D01*
X+2208311Y+1915971D01*
X+2320967Y+1915971D01*
X+2293025Y+1888029D01*
X+2208311Y+1888029D01*
X+2208311Y+1661971D01*
X+2408969Y+1661971D01*
X+2408969Y+1827965D01*
X+2421671Y+1840667D01*
X+2421671Y+1661971D01*
X+2622329Y+1661971D01*
X+2622329Y+1750829D01*
X+2645958Y+1727200D01*
X+2688042Y+1727200D01*
X+2711919Y+1751077D01*
X+2716311Y+1746685D01*
X+2716311Y+1661971D01*
X+2916969Y+1661971D01*
X+2916969Y+1888029D01*
X+2750975Y+1888029D01*
X+2723033Y+1915971D01*
X+2916969Y+1915971D01*
X+2916969Y+2142029D01*
X+2750975Y+2142029D01*
X+2723033Y+2169971D01*
X+2916969Y+2169971D01*
X+2916969Y+2396029D01*
X+2750975Y+2396029D01*
X+2736772Y+2410232D01*
X+2750511Y+2423971D01*
X+2916969Y+2423971D01*
X+2916969Y+2577827D01*
X+2929671Y+2577827D01*
X+2929671Y+2423971D01*
X+3055025Y+2423971D01*
X+3082966Y+2396029D01*
X+2929671Y+2396029D01*
X+2929671Y+2169971D01*
X+3087304Y+2169971D01*
X+3115246Y+2142029D01*
X+2929671Y+2142029D01*
X+2929671Y+1915971D01*
X+3130329Y+1915971D01*
X+3130329Y+1966771D01*
X+3164849Y+1966771D01*
X+3417246Y+1714374D01*
X+3364651Y+1714374D01*
X+3339251Y+1688974D01*
X+3339137Y+1688974D01*
X+3313405Y+1714706D01*
X+3313405Y+1750628D01*
X+3262073Y+1801960D01*
X+3189479Y+1801960D01*
X+3138147Y+1750628D01*
X+3138147Y+1678034D01*
X+3143463Y+1672718D01*
X+3130329Y+1672718D01*
X+3130329Y+1888029D01*
X+2929671Y+1888029D01*
X+2929671Y+1661971D01*
X+2967771Y+1661971D01*
X+2967771Y+1584806D01*
X+3095115Y+1457462D01*
X+2841227Y+1457462D01*
X+2804773Y+1421008D01*
X+2804773Y+1264322D01*
X+2779373Y+1238922D01*
X+2779373Y+1166328D01*
X+2830705Y+1114996D01*
X+2903299Y+1114996D01*
X+2950070Y+1161767D01*
X+3063716Y+1048122D01*
X+2447882Y+1048122D01*
X+1987329Y+1508675D01*
X+1987329Y+1634029D01*
X+1807782Y+1634029D01*
X+1764263Y+1677548D01*
X+1606329Y+1677548D01*
X+1606329Y+1888029D01*
X+1405671Y+1888029D01*
X+1405671Y+1709333D01*
X+1392969Y+1722035D01*
X+1392969Y+1888029D01*
X+1294751Y+1888029D01*
X+1406353Y+1999631D01*
X+1595675Y+1999631D01*
X+1581597Y+1985553D01*
X+1581597Y+1943469D01*
X+1611355Y+1913711D01*
X+1653439Y+1913711D01*
X+1683197Y+1943469D01*
X+1683197Y+1985553D01*
X+1669119Y+1999631D01*
X+1818635Y+1999631D01*
X+1861975Y+2042971D01*
X+1941242Y+2042971D01*
X+1862871Y+1964600D01*
X+1862871Y+1839400D01*
X+1951400Y+1750871D01*
X+2076600Y+1750871D01*
X+2165129Y+1839400D01*
X+2165129Y+1964600D01*
X+2076600Y+2053129D01*
X+1987329Y+2053129D01*
X+1987329Y+2269029D01*
X+1786671Y+2269029D01*
X+1786671Y+2143675D01*
X+1773969Y+2130973D01*
X+1773969Y+2269029D01*
X+1573311Y+2269029D01*
X+1573311Y+2249494D01*
X+1531794Y+2207977D01*
X+1531794Y+2135383D01*
X+1543088Y+2124089D01*
X+1354803Y+2124089D01*
X+1193296Y+1962582D01*
X+1193296Y+1988673D01*
X+1163538Y+2018431D01*
X+1121454Y+2018431D01*
X+1091696Y+1988673D01*
X+1091696Y+1946589D01*
X+1121454Y+1916831D01*
X+1147545Y+1916831D01*
X+877265Y+1646551D01*
X+877265Y+1755865D01*
X+834982Y+1755865D01*
X+901429Y+1822312D01*
X+901429Y+1931688D01*
X+841617Y+1991500D01*
X+901429Y+2051312D01*
X+901429Y+2160688D01*
X+841617Y+2220500D01*
X+901429Y+2280312D01*
X+901429Y+2389688D01*
X+841617Y+2449500D01*
X+901429Y+2509312D01*
X+901429Y+2618688D01*
X+901050Y+2619067D01*
X+1273249Y+2619067D01*
X+1399267Y+2493049D01*
X+4950932Y+2359784D02*
X+4950932Y+2287190D01*
X+4969092Y+2269029D01*
X+4834671Y+2269029D01*
X+4834671Y+2042971D01*
X+4872771Y+2042971D01*
X+4872771Y+1888029D01*
X+4834671Y+1888029D01*
X+4834671Y+1714727D01*
X+4833592Y+1715807D01*
X+4821969Y+1715807D01*
X+4821969Y+1888029D01*
X+4772440Y+1888029D01*
X+4772440Y+1929402D01*
X+4742682Y+1959160D01*
X+4700598Y+1959160D01*
X+4670840Y+1929402D01*
X+4670840Y+1888029D01*
X+4621311Y+1888029D01*
X+4621311Y+1742509D01*
X+4532443Y+1742509D01*
X+4552762Y+1762828D01*
X+4552762Y+1804912D01*
X+4523004Y+1834670D01*
X+4480920Y+1834670D01*
X+4452863Y+1806613D01*
X+4421220Y+1838257D01*
X+4380640Y+1878836D01*
X+4411578Y+1909774D01*
X+4411578Y+1937311D01*
X+4413029Y+1937311D01*
X+4413029Y+2137969D01*
X+4287675Y+2137969D01*
X+4274973Y+2150671D01*
X+4413029Y+2150671D01*
X+4413029Y+2276025D01*
X+4521475Y+2384471D01*
X+4927529Y+2384471D01*
X+4927529Y+2388411D01*
X+4979559Y+2388411D01*
X+4950932Y+2359784D01*
X+4621311Y+2269029D02*
X+4821969Y+2269029D01*
X+4821969Y+2042971D01*
X+4621311Y+2042971D01*
X+4621311Y+2269029D01*
X+1556317Y+1659321D02*
X+1531025Y+1634029D01*
X+1480975Y+1634029D01*
X+1453033Y+1661971D01*
X+1558967Y+1661971D01*
X+1556317Y+1659321D01*
X+7079949Y+1359710D02*
X+7098176Y+1341483D01*
X+7280578Y+1341483D01*
X+7235435Y+1296340D01*
X+7235435Y+1193439D01*
X+7067329Y+1025333D01*
X+7067329Y+1126029D01*
X+6991452Y+1126029D01*
X+7000972Y+1135549D01*
X+7000972Y+1208143D01*
X+6949640Y+1259475D01*
X+6877046Y+1259475D01*
X+6825714Y+1208143D01*
X+6825714Y+1173078D01*
X+6778665Y+1126029D01*
X+6653311Y+1126029D01*
X+6653311Y+1000675D01*
X+6408452Y+755816D01*
X+6197377Y+755816D01*
X+6171977Y+781216D01*
X+6099383Y+781216D01*
X+6048051Y+729884D01*
X+6048051Y+657290D01*
X+6099383Y+605958D01*
X+6171977Y+605958D01*
X+6197377Y+631358D01*
X+6460002Y+631358D01*
X+6728615Y+899971D01*
X+6853969Y+899971D01*
X+6853969Y+1025325D01*
X+6866671Y+1038027D01*
X+6866671Y+899971D01*
X+6941967Y+899971D01*
X+6774225Y+732229D01*
X+6761697Y+732229D01*
X+6736297Y+757629D01*
X+6663703Y+757629D01*
X+6612371Y+706297D01*
X+6612371Y+633703D01*
X+6650074Y+596000D01*
X+6560661Y+596000D01*
X+6491000Y+526339D01*
X+6421339Y+596000D01*
X+6306661Y+596000D01*
X+6237000Y+526339D01*
X+6167339Y+596000D01*
X+6059575Y+596000D01*
X+5748863Y+906712D01*
X+5748863Y+1176806D01*
X+5792308Y+1176806D01*
X+5817708Y+1202206D01*
X+6374643Y+1202206D01*
X+6504208Y+1331771D01*
X+6653311Y+1331771D01*
X+6653311Y+1280971D01*
X+6853969Y+1280971D01*
X+6853969Y+1297492D01*
X+6866671Y+1297492D01*
X+6866671Y+1280971D01*
X+7067329Y+1280971D01*
X+7067329Y+1372330D01*
X+7079949Y+1359710D01*
X+3508371Y+2453625D02*
X+3508371Y+2417703D01*
X+3559703Y+2366371D01*
X+3632297Y+2366371D01*
X+3683629Y+2417703D01*
X+3683629Y+2430367D01*
X+4013996Y+2100000D01*
X+4084418Y+2100000D01*
X+4143817Y+2040601D01*
X+4143817Y+1939652D01*
X+4465418Y+1618051D01*
X+4561462Y+1618051D01*
X+4554724Y+1611313D01*
X+4554724Y+1538719D01*
X+4606056Y+1487387D01*
X+4678650Y+1487387D01*
X+4704050Y+1512787D01*
X+4726526Y+1512787D01*
X+4743298Y+1496015D01*
X+4850753Y+1496015D01*
X+4901969Y+1547231D01*
X+4959083Y+1490117D01*
X+4959083Y+1481136D01*
X+4899140Y+1481136D01*
X+4847808Y+1429804D01*
X+4847808Y+1357210D01*
X+4899140Y+1305878D01*
X+4935062Y+1305878D01*
X+5157255Y+1083685D01*
X+5183031Y+1083685D01*
X+5392415Y+1083684D01*
X+5396641Y+1079459D01*
X+5204401Y+887219D01*
X+5078822Y+887219D01*
X+5053422Y+912619D01*
X+5006545Y+912619D01*
X+5027629Y+933703D01*
X+5027629Y+1006297D01*
X+4976297Y+1057629D01*
X+4903703Y+1057629D01*
X+4852371Y+1006297D01*
X+4852371Y+970375D01*
X+4760336Y+878340D01*
X+4760336Y+739831D01*
X+4730662Y+769505D01*
X+4658068Y+769505D01*
X+4606736Y+718173D01*
X+4606736Y+645579D01*
X+4643375Y+608940D01*
X+4643375Y+595964D01*
X+4643339Y+596000D01*
X+4528661Y+596000D01*
X+4495307Y+562646D01*
X+4495307Y+597304D01*
X+4524324Y+626321D01*
X+4524324Y+1151587D01*
X+4523499Y+1152412D01*
X+4523499Y+1188334D01*
X+4472167Y+1239666D01*
X+4425256Y+1239666D01*
X+4425256Y+1308770D01*
X+4480288Y+1308770D01*
X+4531620Y+1360102D01*
X+4531620Y+1432696D01*
X+4480288Y+1484028D01*
X+4407694Y+1484028D01*
X+4357554Y+1433888D01*
X+4330744Y+1460699D01*
X+4281145Y+1460699D01*
X+4304149Y+1483703D01*
X+4304149Y+1556297D01*
X+4291877Y+1568569D01*
X+4310839Y+1587531D01*
X+4310839Y+1660125D01*
X+4259507Y+1711457D01*
X+4186913Y+1711457D01*
X+4135581Y+1660125D01*
X+4135581Y+1624203D01*
X+3955068Y+1443690D01*
X+3736962Y+1443690D01*
X+3782114Y+1488842D01*
X+3782114Y+1496126D01*
X+3801762Y+1496126D01*
X+3827162Y+1470726D01*
X+3899756Y+1470726D01*
X+3951088Y+1522058D01*
X+3951088Y+1594652D01*
X+3902911Y+1642828D01*
X+3911907Y+1651824D01*
X+3911907Y+1724418D01*
X+3886507Y+1749818D01*
X+3886507Y+1768497D01*
X+3222060Y+2432944D01*
X+3248520Y+2432944D01*
X+3278278Y+2462702D01*
X+3278278Y+2504786D01*
X+3250952Y+2532112D01*
X+3268147Y+2549307D01*
X+3268147Y+2621901D01*
X+3242747Y+2647301D01*
X+3242747Y+2719249D01*
X+3508371Y+2453625D01*
X+3611169Y+2103034D02*
X+3611169Y+2145118D01*
X+3640927Y+2174876D01*
X+3683011Y+2174876D01*
X+3712769Y+2145118D01*
X+3712769Y+2103034D01*
X+3683011Y+2073276D01*
X+3640927Y+2073276D01*
X+3611169Y+2103034D01*
X+4834671Y+3211527D02*
X+4826785Y+3219413D01*
X+4821969Y+3219413D01*
X+4821969Y+3359445D01*
X+4834671Y+3372147D01*
X+4834671Y+3211527D01*
D10*
X+515400Y+1433721D02*
X+515400Y+1534000D01*
X+615679Y+1534000D02*
X+515400Y+1534000D01*
X+615679Y+1762000D02*
X+515400Y+1762000D01*
X+615679Y+1992000D02*
X+515400Y+1992000D01*
X+615679Y+2450000D02*
X+515400Y+2450000D01*
X+515400Y+1089779D02*
X+515400Y+832000D01*
X+515400Y+574221D02*
X+515400Y+832000D01*
X+257621Y+832000D02*
X+515400Y+832000D01*
X+773179Y+832000D02*
X+515400Y+832000D01*
X+515400Y+3587779D02*
X+515400Y+3330000D01*
X+515400Y+3072221D02*
X+515400Y+3330000D01*
X+257621Y+3330000D02*
X+515400Y+3330000D01*
X+773179Y+3330000D02*
X+515400Y+3330000D01*
X+2475321Y+4823000D02*
X+2582000Y+4823000D01*
X+2475321Y+4569000D02*
X+2582000Y+4569000D01*
X+2582000Y+4462321D02*
X+2582000Y+4569000D01*
X+9893079Y+1076500D02*
X+9773700Y+1076500D01*
X+9773700Y+1195879D02*
X+9773700Y+1076500D01*
X+9654321Y+1076500D02*
X+9773700Y+1076500D01*
X+9893079Y+1749600D02*
X+9773700Y+1749600D01*
X+9773700Y+1868979D02*
X+9773700Y+1749600D01*
X+9654321Y+1749600D02*
X+9773700Y+1749600D01*
X+8483379Y+4632500D02*
X+8364000Y+4632500D01*
X+8364000Y+4513121D02*
X+8364000Y+4632500D01*
X+1574579Y+3807000D02*
X+1506000Y+3807000D01*
X+1506000Y+3888279D02*
X+1506000Y+3807000D01*
X+1437421Y+3807000D02*
X+1506000Y+3807000D01*
X+1506000Y+2709721D02*
X+1506000Y+2791000D01*
X+1506000Y+2872279D02*
X+1506000Y+2791000D01*
X+1437421Y+2791000D02*
X+1506000Y+2791000D01*
X+2590579Y+2791000D02*
X+2522000Y+2791000D01*
X+2453421Y+2791000D02*
X+2522000Y+2791000D01*
X+2522000Y+1693721D02*
X+2522000Y+1775000D01*
X+2522000Y+1856279D02*
X+2522000Y+1775000D01*
X+2453421Y+1775000D02*
X+2522000Y+1775000D01*
X+1506000Y+1693721D02*
X+1506000Y+1775000D01*
X+1574579Y+1775000D02*
X+1506000Y+1775000D01*
X+1506000Y+1856279D02*
X+1506000Y+1775000D01*
X+1437421Y+1775000D02*
X+1506000Y+1775000D01*
X+1506000Y+677721D02*
X+1506000Y+759000D01*
X+1437421Y+759000D02*
X+1506000Y+759000D01*
X+4173000Y+3979721D02*
X+4173000Y+4061000D01*
X+4241579Y+4061000D02*
X+4173000Y+4061000D01*
X+4173000Y+4142279D02*
X+4173000Y+4061000D01*
X+4104421Y+4061000D02*
X+4173000Y+4061000D01*
X+4935000Y+3217721D02*
X+4935000Y+3299000D01*
X+5003579Y+3299000D02*
X+4935000Y+3299000D01*
X+4935000Y+3380279D02*
X+4935000Y+3299000D01*
X+4866421Y+3299000D02*
X+4935000Y+3299000D01*
X+4681000Y+2836721D02*
X+4681000Y+2918000D01*
X+4749579Y+2918000D02*
X+4681000Y+2918000D01*
X+4681000Y+2999279D02*
X+4681000Y+2918000D01*
X+4612421Y+2918000D02*
X+4681000Y+2918000D01*
X+4282219Y+2664000D02*
X+4213640Y+2664000D01*
X+4213640Y+2745279D02*
X+4213640Y+2664000D01*
X+4145061Y+2664000D02*
X+4213640Y+2664000D01*
X+4046000Y+2618279D02*
X+4046000Y+2537000D01*
X+4721640Y+2074721D02*
X+4721640Y+2156000D01*
X+4790219Y+2156000D02*
X+4721640Y+2156000D01*
X+4721640Y+2237279D02*
X+4721640Y+2156000D01*
X+4653061Y+2156000D02*
X+4721640Y+2156000D01*
X+4790219Y+1775000D02*
X+4721640Y+1775000D01*
X+4653061Y+1775000D02*
X+4721640Y+1775000D01*
X+5316000Y+2074721D02*
X+5316000Y+2156000D01*
X+5384579Y+2156000D02*
X+5316000Y+2156000D01*
X+5316000Y+2237279D02*
X+5316000Y+2156000D01*
X+5247421Y+2156000D02*
X+5316000Y+2156000D01*
X+5102640Y+1693721D02*
X+5102640Y+1775000D01*
X+5171219Y+1775000D02*
X+5102640Y+1775000D01*
X+5610640Y+2074721D02*
X+5610640Y+2156000D01*
X+5679219Y+2156000D02*
X+5610640Y+2156000D01*
X+5610640Y+2237279D02*
X+5610640Y+2156000D01*
X+5542061Y+2156000D02*
X+5610640Y+2156000D01*
X+5189000Y+2595421D02*
X+5189000Y+2664000D01*
X+5270279Y+2664000D02*
X+5189000Y+2664000D01*
X+5824000Y+2745279D02*
X+5824000Y+2664000D01*
X+5755421Y+2664000D02*
X+5824000Y+2664000D01*
X+5697000Y+2836721D02*
X+5697000Y+2918000D01*
X+5765579Y+2918000D02*
X+5697000Y+2918000D01*
X+5697000Y+2999279D02*
X+5697000Y+2918000D01*
X+5229640Y+3090721D02*
X+5229640Y+3172000D01*
X+5298219Y+3172000D02*
X+5229640Y+3172000D01*
X+5229640Y+3253279D02*
X+5229640Y+3172000D01*
X+5161061Y+3172000D02*
X+5229640Y+3172000D01*
X+6898421Y+1013000D02*
X+6967000Y+1013000D01*
X+4588000Y+2416221D02*
X+4588000Y+2494000D01*
X+6364000Y+564250D02*
X+6364000Y+457571D01*
X+2447321Y+457571D02*
X+2554000Y+457571D01*
X+2554000Y+564250D02*
X+2554000Y+457571D01*
D13*
X+769400Y+1648000D03*
D14*
X+769400Y+1877000D03*
X+769400Y+2106000D03*
X+769400Y+2335000D03*
X+769400Y+2564000D03*
X+515400Y+1534000D03*
X+515400Y+1762000D03*
X+515400Y+1992000D03*
X+515400Y+2220000D03*
X+515400Y+2450000D03*
X+261400Y+1648000D03*
X+261400Y+1877000D03*
X+261400Y+2106000D03*
X+261400Y+2335000D03*
X+261400Y+2564000D03*
D15*
X+515400Y+832000D03*
X+515400Y+3330000D03*
D17*
X+7408000Y+4823000D03*
D18*
X+7154000Y+4823000D03*
X+6900000Y+4823000D03*
X+6646000Y+4823000D03*
X+6392000Y+4823000D03*
X+6138000Y+4823000D03*
X+5884000Y+4823000D03*
X+5630000Y+4823000D03*
X+5376000Y+4823000D03*
X+5122000Y+4823000D03*
X+4868000Y+4823000D03*
X+4614000Y+4823000D03*
X+4360000Y+4823000D03*
X+4106000Y+4823000D03*
X+3852000Y+4823000D03*
X+3598000Y+4823000D03*
X+3344000Y+4823000D03*
X+3090000Y+4823000D03*
X+2836000Y+4823000D03*
X+2582000Y+4823000D03*
X+2582000Y+4569000D03*
X+2836000Y+4569000D03*
X+3090000Y+4569000D03*
X+3344000Y+4569000D03*
X+3598000Y+4569000D03*
X+3852000Y+4569000D03*
X+4106000Y+4569000D03*
X+4360000Y+4569000D03*
X+4614000Y+4569000D03*
X+4868000Y+4569000D03*
X+5122000Y+4569000D03*
X+5376000Y+4569000D03*
X+5630000Y+4569000D03*
X+5884000Y+4569000D03*
X+6138000Y+4569000D03*
X+6392000Y+4569000D03*
X+6646000Y+4569000D03*
X+6900000Y+4569000D03*
X+7154000Y+4569000D03*
X+7408000Y+4569000D03*
D22*
X+9773700Y+822500D03*
X+9773700Y+1076500D03*
X+9773700Y+1495600D03*
X+9773700Y+1749600D03*
D23*
X+8021100Y+4632500D03*
X+8364000Y+4632500D03*
X+8910100Y+4632500D03*
X+9278400Y+4619800D03*
D20*
X+1506000Y+3807000D03*
X+1292640Y+3807000D03*
X+1506000Y+3553000D03*
X+1292640Y+3553000D03*
X+1887000Y+3553000D03*
X+1673640Y+3553000D03*
X+1887000Y+3299000D03*
X+1673640Y+3299000D03*
X+1506000Y+3299000D03*
X+1292640Y+3299000D03*
X+1887000Y+3045000D03*
X+1673640Y+3045000D03*
X+1506000Y+3045000D03*
X+1292640Y+3045000D03*
X+1887000Y+2791000D03*
X+1673640Y+2791000D03*
X+1506000Y+2791000D03*
X+1292640Y+2791000D03*
X+1887000Y+2410000D03*
X+1673640Y+2410000D03*
X+1887000Y+2156000D03*
X+1673640Y+2156000D03*
X+2522000Y+2791000D03*
X+2308640Y+2791000D03*
X+2522000Y+2537000D03*
X+2308640Y+2537000D03*
X+2522000Y+2283000D03*
X+2308640Y+2283000D03*
X+2522000Y+2029000D03*
X+2308640Y+2029000D03*
X+2522000Y+1775000D03*
X+2308640Y+1775000D03*
X+3030000Y+1775000D03*
X+2816640Y+1775000D03*
X+3030000Y+2029000D03*
X+2816640Y+2029000D03*
X+3030000Y+2283000D03*
X+2816640Y+2283000D03*
X+3030000Y+2537000D03*
X+2816640Y+2537000D03*
X+1506000Y+1775000D03*
X+1292640Y+1775000D03*
X+1506000Y+1521000D03*
X+1292640Y+1521000D03*
X+1887000Y+1521000D03*
X+1673640Y+1521000D03*
X+1887000Y+1267000D03*
X+1673640Y+1267000D03*
X+1506000Y+1267000D03*
X+1292640Y+1267000D03*
X+1887000Y+1013000D03*
X+1673640Y+1013000D03*
X+1506000Y+1013000D03*
X+1292640Y+1013000D03*
X+1887000Y+759000D03*
X+1673640Y+759000D03*
X+1506000Y+759000D03*
X+1292640Y+759000D03*
D23*
X+2014000Y+1902000D03*
X+2776000Y+3172000D03*
X+3411000Y+3680000D03*
X+3284000Y+2918000D03*
D20*
X+4173000Y+4061000D03*
X+3959640Y+4061000D03*
X+4173000Y+3680000D03*
X+3959640Y+3680000D03*
X+4935000Y+3299000D03*
X+4721640Y+3299000D03*
X+4681000Y+2918000D03*
X+4467640Y+2918000D03*
X+4427000Y+2664000D03*
X+4213640Y+2664000D03*
X+4046000Y+2537000D03*
X+3832640Y+2537000D03*
D16*
X+4300000Y+2251000D03*
X+4300000Y+2037640D03*
D20*
X+4935000Y+2156000D03*
X+4721640Y+2156000D03*
X+4935000Y+1775000D03*
X+4721640Y+1775000D03*
X+5316000Y+2156000D03*
X+5102640Y+2156000D03*
X+5316000Y+1775000D03*
X+5102640Y+1775000D03*
X+5824000Y+2156000D03*
X+5610640Y+2156000D03*
D16*
X+5189000Y+2450640D03*
X+5189000Y+2664000D03*
D20*
X+5824000Y+2664000D03*
X+5610640Y+2664000D03*
X+5697000Y+2918000D03*
X+5483640Y+2918000D03*
X+5443000Y+3172000D03*
X+5229640Y+3172000D03*
X+6967000Y+1394000D03*
X+6753640Y+1394000D03*
X+6967000Y+1013000D03*
X+6753640Y+1013000D03*
D23*
X+998000Y+3807000D03*
D26*
X+4808000Y+2494000D03*
X+4588000Y+2494000D03*
X+4588000Y+2664000D03*
X+4808000Y+2664000D03*
D17*
X+7380000Y+457571D03*
D18*
X+7126000Y+457571D03*
X+6872000Y+457571D03*
X+6618000Y+457571D03*
X+6364000Y+457571D03*
X+6110000Y+457571D03*
X+5856000Y+457571D03*
X+5602000Y+457571D03*
X+5348000Y+457571D03*
X+5094000Y+457571D03*
X+4840000Y+457571D03*
X+4586000Y+457571D03*
X+4332000Y+457571D03*
X+4078000Y+457571D03*
X+3824000Y+457571D03*
X+3570000Y+457571D03*
X+3316000Y+457571D03*
X+3062000Y+457571D03*
X+2808000Y+457571D03*
X+2554000Y+457571D03*
X+2554000Y+203571D03*
X+2808000Y+203571D03*
X+3062000Y+203571D03*
X+3316000Y+203571D03*
X+3570000Y+203571D03*
X+3824000Y+203571D03*
X+4078000Y+203571D03*
X+4332000Y+203571D03*
X+4586000Y+203571D03*
X+4840000Y+203571D03*
X+5094000Y+203571D03*
X+5348000Y+203571D03*
X+5602000Y+203571D03*
X+5856000Y+203571D03*
X+6110000Y+203571D03*
X+6364000Y+203571D03*
X+6618000Y+203571D03*
X+6872000Y+203571D03*
X+7126000Y+203571D03*
X+7380000Y+203571D03*
D25*
X-18000Y-3000D02*
X+9982000Y-3000D01*
X+9982000Y+4997000D01*
X-18000Y+4997000D01*
X-18000Y-3000D01*
X+9832000Y+4697000D02*
X+9831498Y+4709258D01*
X+9827422Y+4733775D01*
X+9818906Y+4758292D01*
X+9805032Y+4782809D01*
X+9783806Y+4807161D01*
X+9759289Y+4825555D01*
X+9734772Y+4837411D01*
X+9710255Y+4844315D01*
X+9685738Y+4846953D01*
X+9682000Y+4847000D01*
X+9532000Y+4697000D02*
X+9532502Y+4709258D01*
X+9536578Y+4733775D01*
X+9545094Y+4758292D01*
X+9558968Y+4782809D01*
X+9580194Y+4807161D01*
X+9604711Y+4825555D01*
X+9629228Y+4837411D01*
X+9653745Y+4844315D01*
X+9678262Y+4846953D01*
X+9682000Y+4847000D01*
X+9532000Y+4697000D02*
X+9532502Y+4684742D01*
X+9536578Y+4660225D01*
X+9545094Y+4635708D01*
X+9558968Y+4611191D01*
X+9580194Y+4586839D01*
X+9604711Y+4568445D01*
X+9629228Y+4556589D01*
X+9653745Y+4549685D01*
X+9678262Y+4547047D01*
X+9682000Y+4547000D01*
X+9832000Y+4697000D02*
X+9831498Y+4684742D01*
X+9827422Y+4660225D01*
X+9818906Y+4635708D01*
X+9805032Y+4611191D01*
X+9783806Y+4586839D01*
X+9759289Y+4568445D01*
X+9734772Y+4556589D01*
X+9710255Y+4549685D01*
X+9685738Y+4547047D01*
X+9682000Y+4547000D01*
X+9832000Y+297000D02*
X+9831498Y+309258D01*
X+9827422Y+333775D01*
X+9818906Y+358292D01*
X+9805032Y+382809D01*
X+9783806Y+407161D01*
X+9759289Y+425555D01*
X+9734772Y+437411D01*
X+9710255Y+444315D01*
X+9685738Y+446953D01*
X+9682000Y+447000D01*
X+9532000Y+297000D02*
X+9532502Y+309258D01*
X+9536578Y+333775D01*
X+9545094Y+358292D01*
X+9558968Y+382809D01*
X+9580194Y+407161D01*
X+9604711Y+425555D01*
X+9629228Y+437411D01*
X+9653745Y+444315D01*
X+9678262Y+446953D01*
X+9682000Y+447000D01*
X+9532000Y+297000D02*
X+9532502Y+284742D01*
X+9536578Y+260225D01*
X+9545094Y+235708D01*
X+9558968Y+211191D01*
X+9580194Y+186839D01*
X+9604711Y+168445D01*
X+9629228Y+156589D01*
X+9653745Y+149685D01*
X+9678262Y+147047D01*
X+9682000Y+147000D01*
X+9832000Y+297000D02*
X+9831498Y+284742D01*
X+9827422Y+260225D01*
X+9818906Y+235708D01*
X+9805032Y+211191D01*
X+9783806Y+186839D01*
X+9759289Y+168445D01*
X+9734772Y+156589D01*
X+9710255Y+149685D01*
X+9685738Y+147047D01*
X+9682000Y+147000D01*
X+432000Y+297000D02*
X+431498Y+309258D01*
X+427422Y+333775D01*
X+418906Y+358292D01*
X+405032Y+382809D01*
X+383806Y+407161D01*
X+359289Y+425555D01*
X+334772Y+437411D01*
X+310255Y+444315D01*
X+285738Y+446953D01*
X+282000Y+447000D01*
X+132000Y+297000D02*
X+132502Y+309258D01*
X+136578Y+333775D01*
X+145094Y+358292D01*
X+158968Y+382809D01*
X+180194Y+407161D01*
X+204711Y+425555D01*
X+229228Y+437411D01*
X+253745Y+444315D01*
X+278262Y+446953D01*
X+282000Y+447000D01*
X+132000Y+297000D02*
X+132502Y+284742D01*
X+136578Y+260225D01*
X+145094Y+235708D01*
X+158968Y+211191D01*
X+180194Y+186839D01*
X+204711Y+168445D01*
X+229228Y+156589D01*
X+253745Y+149685D01*
X+278262Y+147047D01*
X+282000Y+147000D01*
X+432000Y+297000D02*
X+431498Y+284742D01*
X+427422Y+260225D01*
X+418906Y+235708D01*
X+405032Y+211191D01*
X+383806Y+186839D01*
X+359289Y+168445D01*
X+334772Y+156589D01*
X+310255Y+149685D01*
X+285738Y+147047D01*
X+282000Y+147000D01*
X+432000Y+4697000D02*
X+431498Y+4709258D01*
X+427422Y+4733775D01*
X+418906Y+4758292D01*
X+405032Y+4782809D01*
X+383806Y+4807161D01*
X+359289Y+4825555D01*
X+334772Y+4837411D01*
X+310255Y+4844315D01*
X+285738Y+4846953D01*
X+282000Y+4847000D01*
X+132000Y+4697000D02*
X+132502Y+4709258D01*
X+136578Y+4733775D01*
X+145094Y+4758292D01*
X+158968Y+4782809D01*
X+180194Y+4807161D01*
X+204711Y+4825555D01*
X+229228Y+4837411D01*
X+253745Y+4844315D01*
X+278262Y+4846953D01*
X+282000Y+4847000D01*
X+132000Y+4697000D02*
X+132502Y+4684742D01*
X+136578Y+4660225D01*
X+145094Y+4635708D01*
X+158968Y+4611191D01*
X+180194Y+4586839D01*
X+204711Y+4568445D01*
X+229228Y+4556589D01*
X+253745Y+4549685D01*
X+278262Y+4547047D01*
X+282000Y+4547000D01*
X+432000Y+4697000D02*
X+431498Y+4684742D01*
X+427422Y+4660225D01*
X+418906Y+4635708D01*
X+405032Y+4611191D01*
X+383806Y+4586839D01*
X+359289Y+4568445D01*
X+334772Y+4556589D01*
X+310255Y+4549685D01*
X+285738Y+4547047D01*
X+282000Y+4547000D01*
M02*
