G04 PROTEUS GERBER X2 FILE*
%TF.GenerationSoftware,Labcenter,Proteus,8.16-SP3-Build36097*%
%TF.CreationDate,2025-11-07T09:33:48+00:00*%
%TF.FileFunction,Plated,1,2,PTH*%
%TF.FilePolarity,Positive*%
%TF.Part,Single*%
%TF.SameCoordinates,{ab98911b-3f69-4870-a6fc-6ca9eaabf26d}*%
%FSLAX45Y45*%
%MOMM*%
G01*
%TA.AperFunction,ViaDrill*%
%ADD54C,0.381000*%
%TA.AperFunction,ComponentDrill*%
%ADD55C,1.110000*%
%TA.AperFunction,ComponentDrill*%
%ADD56C,0.762000*%
%TA.AperFunction,ComponentDrill*%
%ADD57C,1.016000*%
%TD.AperFunction*%
D54*
X+4100000Y+3894726D03*
X+4100000Y+3759398D03*
X+7410000Y+710000D03*
X+4351823Y+4211740D03*
X+4770000Y+2130000D03*
X+3853180Y+4264111D03*
X+5040000Y+2334894D03*
X+5420000Y+2270000D03*
X+5286809Y+1980949D03*
X+4450555Y+4285447D03*
X+3259081Y+4157520D03*
X+1100000Y+4900000D03*
X+1100000Y+4800000D03*
X+1100000Y+4700000D03*
X+1100000Y+4600000D03*
X+1100000Y+4500000D03*
X+1100000Y+4400000D03*
X+1100000Y+4300000D03*
X+1100000Y+4200000D03*
X+1100000Y+4100000D03*
X+1100000Y+4000000D03*
X+1100000Y+3900000D03*
X+1100000Y+3800000D03*
X+1100000Y+3700000D03*
X+1100000Y+3600000D03*
X+1100000Y+3500000D03*
X+1100000Y+3400000D03*
X+1100000Y+3300000D03*
X+1100000Y+3200000D03*
X+1100000Y+3100000D03*
X+1100000Y+3000000D03*
X+1100000Y+2900000D03*
X+1100000Y+2800000D03*
X+1100000Y+2700000D03*
X+1100000Y+2600000D03*
X+1100000Y+2500000D03*
X+1100000Y+2400000D03*
X+1100000Y+2300000D03*
X+1100000Y+2200000D03*
X+1100000Y+2100000D03*
X+1100000Y+2000000D03*
X+1100000Y+1900000D03*
X+1100000Y+1800000D03*
X+1100000Y+1700000D03*
X+1100000Y+1600000D03*
X+1100000Y+1500000D03*
X+1100000Y+1400000D03*
X+1100000Y+1300000D03*
X+1100000Y+1200000D03*
X+1100000Y+1100000D03*
X+1100000Y+1000000D03*
X+1100000Y+900000D03*
X+1100000Y+800000D03*
X+1100000Y+700000D03*
X+1100000Y+600000D03*
X+1100000Y+500000D03*
X+1100000Y+400000D03*
X+1100000Y+300000D03*
X+1100000Y+200000D03*
X+1100000Y+100000D03*
X+7250000Y+3900000D03*
X+7250000Y+4000000D03*
X+7250000Y+4100000D03*
X+7250000Y+4200000D03*
X+7250000Y+3800000D03*
X+7250000Y+3700000D03*
X+7250000Y+3600000D03*
X+7250000Y+3500000D03*
X+7250000Y+3400000D03*
X+7250000Y+3300000D03*
X+7250000Y+3200000D03*
X+7250000Y+3100000D03*
X+7250000Y+3000000D03*
X+7250000Y+2900000D03*
X+7250000Y+2800000D03*
X+7200000Y+780000D03*
X+7200000Y+900000D03*
X+7200000Y+1000000D03*
X+7200000Y+1100000D03*
X+7200000Y+1200000D03*
X+7200000Y+1300000D03*
X+7200000Y+1400000D03*
X+7200000Y+1500000D03*
X+7200000Y+1600000D03*
X+7200000Y+1700000D03*
X+7200000Y+1800000D03*
X+7200000Y+1900000D03*
X+7200000Y+2000000D03*
D55*
X+5660000Y+3410000D03*
X+5406000Y+3410000D03*
X+5152000Y+3410000D03*
X+4898000Y+3410000D03*
X+4644000Y+3410000D03*
X+4390000Y+3410000D03*
X+4136000Y+3410000D03*
X+3882000Y+3410000D03*
X+3882000Y+1781000D03*
X+4136000Y+1781000D03*
X+4390000Y+1781000D03*
X+4644000Y+1781000D03*
X+4898000Y+1781000D03*
X+5152000Y+1781000D03*
X+5406000Y+1781000D03*
X+5660000Y+1781000D03*
D56*
X+2720000Y+3520000D03*
X+2720000Y+3020000D03*
X+2120000Y+3320000D03*
X+1620000Y+3320000D03*
X+4020000Y+1120000D03*
X+5820000Y+1220000D03*
X+5820000Y+820000D03*
X+6320000Y+1220000D03*
X+6320000Y+820000D03*
X+6820000Y+1220000D03*
X+7400000Y+4813120D03*
D57*
X+7146000Y+4813120D03*
X+6892000Y+4813120D03*
X+6638000Y+4813120D03*
X+6384000Y+4813120D03*
X+6130000Y+4813120D03*
X+5876000Y+4813120D03*
X+5622000Y+4813120D03*
X+5368000Y+4813120D03*
X+5114000Y+4813120D03*
X+4860000Y+4813120D03*
X+4606000Y+4813120D03*
X+4352000Y+4813120D03*
X+4098000Y+4813120D03*
X+3844000Y+4813120D03*
X+3590000Y+4813120D03*
X+3336000Y+4813120D03*
X+3082000Y+4813120D03*
X+2828000Y+4813120D03*
X+2574000Y+4813120D03*
X+2574000Y+4559120D03*
X+2828000Y+4559120D03*
X+3082000Y+4559120D03*
X+3336000Y+4559120D03*
X+3590000Y+4559120D03*
X+3844000Y+4559120D03*
X+4098000Y+4559120D03*
X+4352000Y+4559120D03*
X+4606000Y+4559120D03*
X+4860000Y+4559120D03*
X+5114000Y+4559120D03*
X+5368000Y+4559120D03*
X+5622000Y+4559120D03*
X+5876000Y+4559120D03*
X+6130000Y+4559120D03*
X+6384000Y+4559120D03*
X+6638000Y+4559120D03*
X+6892000Y+4559120D03*
X+7146000Y+4559120D03*
X+7400000Y+4559120D03*
D56*
X+7400000Y+460000D03*
D57*
X+7146000Y+460000D03*
X+6892000Y+460000D03*
X+6638000Y+460000D03*
X+6384000Y+460000D03*
X+6130000Y+460000D03*
X+5876000Y+460000D03*
X+5622000Y+460000D03*
X+5368000Y+460000D03*
X+5114000Y+460000D03*
X+4860000Y+460000D03*
X+4606000Y+460000D03*
X+4352000Y+460000D03*
X+4098000Y+460000D03*
X+3844000Y+460000D03*
X+3590000Y+460000D03*
X+3336000Y+460000D03*
X+3082000Y+460000D03*
X+2828000Y+460000D03*
X+2574000Y+460000D03*
X+2574000Y+206000D03*
X+2828000Y+206000D03*
X+3082000Y+206000D03*
X+3336000Y+206000D03*
X+3590000Y+206000D03*
X+3844000Y+206000D03*
X+4098000Y+206000D03*
X+4352000Y+206000D03*
X+4606000Y+206000D03*
X+4860000Y+206000D03*
X+5114000Y+206000D03*
X+5368000Y+206000D03*
X+5622000Y+206000D03*
X+5876000Y+206000D03*
X+6130000Y+206000D03*
X+6384000Y+206000D03*
X+6638000Y+206000D03*
X+6892000Y+206000D03*
X+7146000Y+206000D03*
X+7400000Y+206000D03*
M02*
