G04 PROTEUS GERBER X2 FILE*
%TF.GenerationSoftware,Labcenter,Proteus,8.16-SP3-Build36097*%
%TF.CreationDate,2025-11-07T09:33:48+00:00*%
%TF.FileFunction,Paste,Top*%
%TF.FilePolarity,Positive*%
%TF.Part,Single*%
%TF.SameCoordinates,{ab98911b-3f69-4870-a6fc-6ca9eaabf26d}*%
%FSLAX45Y45*%
%MOMM*%
G01*
%TA.AperFunction,Material*%
%ADD36R,1.016000X1.270000*%
%ADD37R,0.939800X1.447800*%
%ADD38R,1.270000X1.016000*%
%ADD39R,0.700000X1.000000*%
%TA.AperFunction,Profile*%
%ADD22C,0.101600*%
%TD.AperFunction*%
D36*
X+5170000Y+3890000D03*
X+5383360Y+3890000D03*
D37*
X+4720000Y+1120000D03*
X+4920000Y+1120000D03*
D38*
X+7200000Y+2186640D03*
X+7200000Y+2400000D03*
X+7400000Y+2186640D03*
X+7400000Y+2400000D03*
D36*
X+7186640Y+2500000D03*
X+7400000Y+2500000D03*
D39*
X+7430000Y+2500000D03*
D22*
X+9000Y+9000D02*
X+10009000Y+9000D01*
X+10009000Y+5009000D01*
X+9000Y+5009000D01*
X+9000Y+9000D01*
X+9859000Y+4709000D02*
X+9858498Y+4721258D01*
X+9854422Y+4745775D01*
X+9845906Y+4770292D01*
X+9832032Y+4794809D01*
X+9810806Y+4819161D01*
X+9786289Y+4837555D01*
X+9761772Y+4849411D01*
X+9737255Y+4856315D01*
X+9712738Y+4858953D01*
X+9709000Y+4859000D01*
X+9559000Y+4709000D02*
X+9559502Y+4721258D01*
X+9563578Y+4745775D01*
X+9572094Y+4770292D01*
X+9585968Y+4794809D01*
X+9607194Y+4819161D01*
X+9631711Y+4837555D01*
X+9656228Y+4849411D01*
X+9680745Y+4856315D01*
X+9705262Y+4858953D01*
X+9709000Y+4859000D01*
X+9559000Y+4709000D02*
X+9559502Y+4696742D01*
X+9563578Y+4672225D01*
X+9572094Y+4647708D01*
X+9585968Y+4623191D01*
X+9607194Y+4598839D01*
X+9631711Y+4580445D01*
X+9656228Y+4568589D01*
X+9680745Y+4561685D01*
X+9705262Y+4559047D01*
X+9709000Y+4559000D01*
X+9859000Y+4709000D02*
X+9858498Y+4696742D01*
X+9854422Y+4672225D01*
X+9845906Y+4647708D01*
X+9832032Y+4623191D01*
X+9810806Y+4598839D01*
X+9786289Y+4580445D01*
X+9761772Y+4568589D01*
X+9737255Y+4561685D01*
X+9712738Y+4559047D01*
X+9709000Y+4559000D01*
X+9859000Y+309000D02*
X+9858498Y+321258D01*
X+9854422Y+345775D01*
X+9845906Y+370292D01*
X+9832032Y+394809D01*
X+9810806Y+419161D01*
X+9786289Y+437555D01*
X+9761772Y+449411D01*
X+9737255Y+456315D01*
X+9712738Y+458953D01*
X+9709000Y+459000D01*
X+9559000Y+309000D02*
X+9559502Y+321258D01*
X+9563578Y+345775D01*
X+9572094Y+370292D01*
X+9585968Y+394809D01*
X+9607194Y+419161D01*
X+9631711Y+437555D01*
X+9656228Y+449411D01*
X+9680745Y+456315D01*
X+9705262Y+458953D01*
X+9709000Y+459000D01*
X+9559000Y+309000D02*
X+9559502Y+296742D01*
X+9563578Y+272225D01*
X+9572094Y+247708D01*
X+9585968Y+223191D01*
X+9607194Y+198839D01*
X+9631711Y+180445D01*
X+9656228Y+168589D01*
X+9680745Y+161685D01*
X+9705262Y+159047D01*
X+9709000Y+159000D01*
X+9859000Y+309000D02*
X+9858498Y+296742D01*
X+9854422Y+272225D01*
X+9845906Y+247708D01*
X+9832032Y+223191D01*
X+9810806Y+198839D01*
X+9786289Y+180445D01*
X+9761772Y+168589D01*
X+9737255Y+161685D01*
X+9712738Y+159047D01*
X+9709000Y+159000D01*
X+459000Y+309000D02*
X+458498Y+321258D01*
X+454422Y+345775D01*
X+445906Y+370292D01*
X+432032Y+394809D01*
X+410806Y+419161D01*
X+386289Y+437555D01*
X+361772Y+449411D01*
X+337255Y+456315D01*
X+312738Y+458953D01*
X+309000Y+459000D01*
X+159000Y+309000D02*
X+159502Y+321258D01*
X+163578Y+345775D01*
X+172094Y+370292D01*
X+185968Y+394809D01*
X+207194Y+419161D01*
X+231711Y+437555D01*
X+256228Y+449411D01*
X+280745Y+456315D01*
X+305262Y+458953D01*
X+309000Y+459000D01*
X+159000Y+309000D02*
X+159502Y+296742D01*
X+163578Y+272225D01*
X+172094Y+247708D01*
X+185968Y+223191D01*
X+207194Y+198839D01*
X+231711Y+180445D01*
X+256228Y+168589D01*
X+280745Y+161685D01*
X+305262Y+159047D01*
X+309000Y+159000D01*
X+459000Y+309000D02*
X+458498Y+296742D01*
X+454422Y+272225D01*
X+445906Y+247708D01*
X+432032Y+223191D01*
X+410806Y+198839D01*
X+386289Y+180445D01*
X+361772Y+168589D01*
X+337255Y+161685D01*
X+312738Y+159047D01*
X+309000Y+159000D01*
X+459000Y+4709000D02*
X+458498Y+4721258D01*
X+454422Y+4745775D01*
X+445906Y+4770292D01*
X+432032Y+4794809D01*
X+410806Y+4819161D01*
X+386289Y+4837555D01*
X+361772Y+4849411D01*
X+337255Y+4856315D01*
X+312738Y+4858953D01*
X+309000Y+4859000D01*
X+159000Y+4709000D02*
X+159502Y+4721258D01*
X+163578Y+4745775D01*
X+172094Y+4770292D01*
X+185968Y+4794809D01*
X+207194Y+4819161D01*
X+231711Y+4837555D01*
X+256228Y+4849411D01*
X+280745Y+4856315D01*
X+305262Y+4858953D01*
X+309000Y+4859000D01*
X+159000Y+4709000D02*
X+159502Y+4696742D01*
X+163578Y+4672225D01*
X+172094Y+4647708D01*
X+185968Y+4623191D01*
X+207194Y+4598839D01*
X+231711Y+4580445D01*
X+256228Y+4568589D01*
X+280745Y+4561685D01*
X+305262Y+4559047D01*
X+309000Y+4559000D01*
X+459000Y+4709000D02*
X+458498Y+4696742D01*
X+454422Y+4672225D01*
X+445906Y+4647708D01*
X+432032Y+4623191D01*
X+410806Y+4598839D01*
X+386289Y+4580445D01*
X+361772Y+4568589D01*
X+337255Y+4561685D01*
X+312738Y+4559047D01*
X+309000Y+4559000D01*
M02*
