G04 PROTEUS GERBER X2 FILE*
%TF.GenerationSoftware,Labcenter,Proteus,8.16-SP3-Build36097*%
%TF.CreationDate,2025-11-07T09:33:48+00:00*%
%TF.FileFunction,Copper,L1,Top*%
%TF.FilePolarity,Positive*%
%TF.Part,Single*%
%TF.SameCoordinates,{ab98911b-3f69-4870-a6fc-6ca9eaabf26d}*%
%FSLAX45Y45*%
%MOMM*%
G01*
%TA.AperFunction,Conductor*%
%ADD10C,0.254000*%
%ADD11C,2.979420*%
%TA.AperFunction,ViaPad*%
%ADD12C,0.762000*%
%TA.AperFunction,Conductor*%
%ADD13C,0.635000*%
%TA.AperFunction,WasherPad*%
%ADD14R,1.173790X1.173790*%
%TA.AperFunction,ComponentPad*%
%ADD15C,1.660000*%
%TA.AperFunction,SMDPad,CuDef*%
%ADD16R,1.016000X1.270000*%
%TA.AperFunction,ComponentPad*%
%ADD17C,2.032000*%
%TA.AperFunction,SMDPad,CuDef*%
%ADD18R,0.939800X1.447800*%
%ADD19R,1.270000X1.016000*%
%ADD70R,0.700000X1.000000*%
%AMPPAD011*
4,1,20,
-0.500000,0.500000,
0.500000,1.000000,
9.500000,1.000000,
9.500000,-17.000000,
12.500000,-17.000000,
12.500000,19.000000,
19.500000,19.000000,
19.500000,-17.000000,
22.500000,-17.000000,
22.500000,19.000000,
24.500000,19.000000,
24.500000,-19.000000,
17.500000,-19.000000,
17.500000,17.000000,
14.500000,17.000000,
14.500000,-19.000000,
7.500000,-19.000000,
7.500000,-1.000000,
0.500000,-1.000000,
-0.500000,-0.500000,
-0.500000,0.500000,
0*%
%ADD71PPAD011*%
%TA.AperFunction,ComponentPad*%
%ADD20R,1.778000X1.778000*%
%ADD21C,1.778000*%
%TA.AperFunction,Profile*%
%ADD22C,0.101600*%
%TD.AperFunction*%
%TA.AperFunction,Conductor*%
G36*
X+7400000Y+2613029D02*
X+7337692Y+2613029D01*
X+7252221Y+2698500D01*
X+6312221Y+2698500D01*
X+5898500Y+2927048D01*
X+5898500Y+3372334D01*
X+5858500Y+3492221D01*
X+5742221Y+3608500D01*
X+5577779Y+3608500D01*
X+5486351Y+3517072D01*
X+5460895Y+3542529D01*
X+5351105Y+3542529D01*
X+5279000Y+3470424D01*
X+5232229Y+3517195D01*
X+5232229Y+3776971D01*
X+5270329Y+3776971D01*
X+5270329Y+3902325D01*
X+5283031Y+3915027D01*
X+5283031Y+3776971D01*
X+5483689Y+3776971D01*
X+5483689Y+3927772D01*
X+6856656Y+3927772D01*
X+7349575Y+4420691D01*
X+7400000Y+4420691D01*
X+7400000Y+2613029D01*
G37*
%TD.AperFunction*%
%LPC*%
G36*
X+7300800Y+4221042D02*
X+7300800Y+4178958D01*
X+7271842Y+4150000D01*
X+7300800Y+4121042D01*
X+7300800Y+4078958D01*
X+7271842Y+4050000D01*
X+7300800Y+4021042D01*
X+7300800Y+3978958D01*
X+7271842Y+3950000D01*
X+7300800Y+3921042D01*
X+7300800Y+3878958D01*
X+7271842Y+3850000D01*
X+7300800Y+3821042D01*
X+7300800Y+3778958D01*
X+7271842Y+3750000D01*
X+7300800Y+3721042D01*
X+7300800Y+3678958D01*
X+7271842Y+3650000D01*
X+7300800Y+3621042D01*
X+7300800Y+3578958D01*
X+7271842Y+3550000D01*
X+7300800Y+3521042D01*
X+7300800Y+3478958D01*
X+7271842Y+3450000D01*
X+7300800Y+3421042D01*
X+7300800Y+3378958D01*
X+7271842Y+3350000D01*
X+7300800Y+3321042D01*
X+7300800Y+3278958D01*
X+7271842Y+3250000D01*
X+7300800Y+3221042D01*
X+7300800Y+3178958D01*
X+7271842Y+3150000D01*
X+7300800Y+3121042D01*
X+7300800Y+3078958D01*
X+7271842Y+3050000D01*
X+7300800Y+3021042D01*
X+7300800Y+2978958D01*
X+7271842Y+2950000D01*
X+7300800Y+2921042D01*
X+7300800Y+2878958D01*
X+7271842Y+2850000D01*
X+7300800Y+2821042D01*
X+7300800Y+2778958D01*
X+7271042Y+2749200D01*
X+7228958Y+2749200D01*
X+7199200Y+2778958D01*
X+7199200Y+2821042D01*
X+7228158Y+2850000D01*
X+7199200Y+2878958D01*
X+7199200Y+2921042D01*
X+7228158Y+2950000D01*
X+7199200Y+2978958D01*
X+7199200Y+3021042D01*
X+7228158Y+3050000D01*
X+7199200Y+3078958D01*
X+7199200Y+3121042D01*
X+7228158Y+3150000D01*
X+7199200Y+3178958D01*
X+7199200Y+3221042D01*
X+7228158Y+3250000D01*
X+7199200Y+3278958D01*
X+7199200Y+3321042D01*
X+7228158Y+3350000D01*
X+7199200Y+3378958D01*
X+7199200Y+3421042D01*
X+7228158Y+3450000D01*
X+7199200Y+3478958D01*
X+7199200Y+3521042D01*
X+7228158Y+3550000D01*
X+7199200Y+3578958D01*
X+7199200Y+3621042D01*
X+7228158Y+3650000D01*
X+7199200Y+3678958D01*
X+7199200Y+3721042D01*
X+7228158Y+3750000D01*
X+7199200Y+3778958D01*
X+7199200Y+3821042D01*
X+7228158Y+3850000D01*
X+7199200Y+3878958D01*
X+7199200Y+3921042D01*
X+7228158Y+3950000D01*
X+7199200Y+3978958D01*
X+7199200Y+4021042D01*
X+7228158Y+4050000D01*
X+7199200Y+4078958D01*
X+7199200Y+4121042D01*
X+7228158Y+4150000D01*
X+7199200Y+4178958D01*
X+7199200Y+4221042D01*
X+7228958Y+4250800D01*
X+7271042Y+4250800D01*
X+7300800Y+4221042D01*
G37*
%LPD*%
%TA.AperFunction,Conductor*%
G36*
X+2435571Y+4870459D02*
X+2435571Y+4755781D01*
X+2505232Y+4686120D01*
X+2435571Y+4616459D01*
X+2435571Y+4501781D01*
X+2516661Y+4420691D01*
X+2631339Y+4420691D01*
X+2701000Y+4490352D01*
X+2770661Y+4420691D01*
X+2885339Y+4420691D01*
X+2955000Y+4490352D01*
X+3024661Y+4420691D01*
X+3139339Y+4420691D01*
X+3209000Y+4490352D01*
X+3278661Y+4420691D01*
X+3393339Y+4420691D01*
X+3463000Y+4490352D01*
X+3532661Y+4420691D01*
X+3647339Y+4420691D01*
X+3717000Y+4490352D01*
X+3781771Y+4425581D01*
X+3781771Y+4316628D01*
X+3765551Y+4300408D01*
X+3765551Y+4227814D01*
X+3816883Y+4176482D01*
X+3889477Y+4176482D01*
X+3940809Y+4227814D01*
X+3940809Y+4300408D01*
X+3906229Y+4334988D01*
X+3906229Y+4425581D01*
X+3971000Y+4490352D01*
X+4040661Y+4420691D01*
X+4155339Y+4420691D01*
X+4170332Y+4435684D01*
X+4170332Y+4197497D01*
X+3893371Y+3920536D01*
X+3893371Y+3740633D01*
X+3806775Y+3827229D01*
X+3439224Y+3827229D01*
X+3402771Y+3790775D01*
X+2782862Y+3170866D01*
X+2782600Y+3171129D01*
X+2657400Y+3171129D01*
X+2568871Y+3082600D01*
X+2568871Y+2957400D01*
X+2657400Y+2868871D01*
X+2730867Y+2868871D01*
X+2674225Y+2812229D01*
X+2492229Y+2812229D01*
X+2492229Y+3204225D01*
X+2657137Y+3369133D01*
X+2657400Y+3368871D01*
X+2782600Y+3368871D01*
X+2871129Y+3457400D01*
X+2871129Y+3582600D01*
X+2821647Y+3632082D01*
X+3259456Y+4069891D01*
X+3295378Y+4069891D01*
X+3346710Y+4121223D01*
X+3346710Y+4193817D01*
X+3295378Y+4245149D01*
X+3222784Y+4245149D01*
X+3171452Y+4193817D01*
X+3171452Y+4157895D01*
X+2684686Y+3671129D01*
X+2657400Y+3671129D01*
X+2568871Y+3582600D01*
X+2568871Y+3457400D01*
X+2569133Y+3457137D01*
X+2367771Y+3255775D01*
X+2367771Y+2724225D01*
X+2404225Y+2687771D01*
X+2725775Y+2687771D01*
X+2860744Y+2822740D01*
X+3890744Y+2822740D01*
X+4345475Y+3277471D01*
X+4444895Y+3277471D01*
X+4517000Y+3349576D01*
X+4589105Y+3277471D01*
X+4698895Y+3277471D01*
X+4771000Y+3349576D01*
X+4843105Y+3277471D01*
X+4952895Y+3277471D01*
X+4973601Y+3298177D01*
X+4973601Y+2392421D01*
X+4952371Y+2371191D01*
X+4952371Y+2298597D01*
X+5003703Y+2247265D01*
X+5076297Y+2247265D01*
X+5089771Y+2260739D01*
X+5089771Y+1969662D01*
X+4993266Y+1873157D01*
X+4952895Y+1913529D01*
X+4853475Y+1913529D01*
X+4832229Y+1934776D01*
X+4832229Y+2068303D01*
X+4857629Y+2093703D01*
X+4857629Y+2166297D01*
X+4806297Y+2217629D01*
X+4733703Y+2217629D01*
X+4682371Y+2166297D01*
X+4682371Y+2093703D01*
X+4707771Y+2068303D01*
X+4707771Y+1961738D01*
X+4571766Y+1961738D01*
X+4484226Y+1874198D01*
X+4444895Y+1913529D01*
X+4335105Y+1913529D01*
X+4263000Y+1841424D01*
X+4190895Y+1913529D01*
X+4081105Y+1913529D01*
X+4009000Y+1841424D01*
X+3936895Y+1913529D01*
X+3827105Y+1913529D01*
X+3749471Y+1835895D01*
X+3749471Y+1726105D01*
X+3827105Y+1648471D01*
X+3936895Y+1648471D01*
X+4009000Y+1720576D01*
X+4081105Y+1648471D01*
X+4190895Y+1648471D01*
X+4263000Y+1720576D01*
X+4335105Y+1648471D01*
X+4441341Y+1648471D01*
X+4441341Y+1629345D01*
X+4082862Y+1270866D01*
X+4082600Y+1271129D01*
X+3957400Y+1271129D01*
X+3868871Y+1182600D01*
X+3868871Y+1057400D01*
X+3957400Y+968871D01*
X+4082600Y+968871D01*
X+4171129Y+1057400D01*
X+4171129Y+1182600D01*
X+4170866Y+1182862D01*
X+4565799Y+1577795D01*
X+4565799Y+1671777D01*
X+4589105Y+1648471D01*
X+4657771Y+1648471D01*
X+4657771Y+1241919D01*
X+4623481Y+1241919D01*
X+4623481Y+998081D01*
X+4816519Y+998081D01*
X+4816519Y+1241919D01*
X+4782229Y+1241919D01*
X+4782229Y+1709347D01*
X+4843105Y+1648471D01*
X+4952895Y+1648471D01*
X+4957771Y+1653347D01*
X+4957771Y+1245775D01*
X+4953915Y+1241919D01*
X+4823481Y+1241919D01*
X+4823481Y+998081D01*
X+5016519Y+998081D01*
X+5016519Y+1057771D01*
X+5168596Y+1057771D01*
X+5305771Y+920596D01*
X+5305771Y+593539D01*
X+5241000Y+528768D01*
X+5171339Y+598429D01*
X+5056661Y+598429D01*
X+4987000Y+528768D01*
X+4917339Y+598429D01*
X+4802661Y+598429D01*
X+4733000Y+528768D01*
X+4663339Y+598429D01*
X+4548661Y+598429D01*
X+4479000Y+528768D01*
X+4409339Y+598429D01*
X+4294661Y+598429D01*
X+4225000Y+528768D01*
X+4155339Y+598429D01*
X+4040661Y+598429D01*
X+3971000Y+528768D01*
X+3901339Y+598429D01*
X+3786661Y+598429D01*
X+3717000Y+528768D01*
X+3647339Y+598429D01*
X+3532661Y+598429D01*
X+3463000Y+528768D01*
X+3393339Y+598429D01*
X+3278661Y+598429D01*
X+3209000Y+528768D01*
X+3139339Y+598429D01*
X+3024661Y+598429D01*
X+2955000Y+528768D01*
X+2885339Y+598429D01*
X+2770661Y+598429D01*
X+2701000Y+528768D01*
X+2631339Y+598429D01*
X+2516661Y+598429D01*
X+2435571Y+517339D01*
X+2435571Y+402661D01*
X+2505232Y+333000D01*
X+2435571Y+263339D01*
X+2435571Y+148661D01*
X+2500302Y+83930D01*
X+1150800Y+83930D01*
X+1150800Y+121042D01*
X+1121842Y+150000D01*
X+1150800Y+178958D01*
X+1150800Y+221042D01*
X+1121842Y+250000D01*
X+1150800Y+278958D01*
X+1150800Y+321042D01*
X+1121842Y+350000D01*
X+1150800Y+378958D01*
X+1150800Y+421042D01*
X+1121842Y+450000D01*
X+1150800Y+478958D01*
X+1150800Y+521042D01*
X+1121842Y+550000D01*
X+1150800Y+578958D01*
X+1150800Y+621042D01*
X+1121842Y+650000D01*
X+1150800Y+678958D01*
X+1150800Y+721042D01*
X+1121842Y+750000D01*
X+1150800Y+778958D01*
X+1150800Y+821042D01*
X+1121842Y+850000D01*
X+1150800Y+878958D01*
X+1150800Y+921042D01*
X+1121842Y+950000D01*
X+1150800Y+978958D01*
X+1150800Y+1021042D01*
X+1121842Y+1050000D01*
X+1150800Y+1078958D01*
X+1150800Y+1121042D01*
X+1121842Y+1150000D01*
X+1150800Y+1178958D01*
X+1150800Y+1221042D01*
X+1121842Y+1250000D01*
X+1150800Y+1278958D01*
X+1150800Y+1321042D01*
X+1121842Y+1350000D01*
X+1150800Y+1378958D01*
X+1150800Y+1421042D01*
X+1121842Y+1450000D01*
X+1150800Y+1478958D01*
X+1150800Y+1521042D01*
X+1121842Y+1550000D01*
X+1150800Y+1578958D01*
X+1150800Y+1621042D01*
X+1121842Y+1650000D01*
X+1150800Y+1678958D01*
X+1150800Y+1721042D01*
X+1121842Y+1750000D01*
X+1150800Y+1778958D01*
X+1150800Y+1821042D01*
X+1121842Y+1850000D01*
X+1150800Y+1878958D01*
X+1150800Y+1921042D01*
X+1121842Y+1950000D01*
X+1150800Y+1978958D01*
X+1150800Y+2021042D01*
X+1121842Y+2050000D01*
X+1150800Y+2078958D01*
X+1150800Y+2121042D01*
X+1121842Y+2150000D01*
X+1150800Y+2178958D01*
X+1150800Y+2221042D01*
X+1121842Y+2250000D01*
X+1150800Y+2278958D01*
X+1150800Y+2321042D01*
X+1121842Y+2350000D01*
X+1150800Y+2378958D01*
X+1150800Y+2421042D01*
X+1121842Y+2450000D01*
X+1150800Y+2478958D01*
X+1150800Y+2521042D01*
X+1121842Y+2550000D01*
X+1150800Y+2578958D01*
X+1150800Y+2621042D01*
X+1121842Y+2650000D01*
X+1150800Y+2678958D01*
X+1150800Y+2721042D01*
X+1121842Y+2750000D01*
X+1150800Y+2778958D01*
X+1150800Y+2821042D01*
X+1121842Y+2850000D01*
X+1150800Y+2878958D01*
X+1150800Y+2921042D01*
X+1121842Y+2950000D01*
X+1150800Y+2978958D01*
X+1150800Y+3021042D01*
X+1121842Y+3050000D01*
X+1150800Y+3078958D01*
X+1150800Y+3121042D01*
X+1121842Y+3150000D01*
X+1150800Y+3178958D01*
X+1150800Y+3221042D01*
X+1121842Y+3250000D01*
X+1150800Y+3278958D01*
X+1150800Y+3321042D01*
X+1121842Y+3350000D01*
X+1150800Y+3378958D01*
X+1150800Y+3421042D01*
X+1121842Y+3450000D01*
X+1150800Y+3478958D01*
X+1150800Y+3521042D01*
X+1121842Y+3550000D01*
X+1150800Y+3578958D01*
X+1150800Y+3621042D01*
X+1121842Y+3650000D01*
X+1150800Y+3678958D01*
X+1150800Y+3721042D01*
X+1121842Y+3750000D01*
X+1150800Y+3778958D01*
X+1150800Y+3821042D01*
X+1121842Y+3850000D01*
X+1150800Y+3878958D01*
X+1150800Y+3921042D01*
X+1121842Y+3950000D01*
X+1150800Y+3978958D01*
X+1150800Y+4021042D01*
X+1121842Y+4050000D01*
X+1150800Y+4078958D01*
X+1150800Y+4121042D01*
X+1121842Y+4150000D01*
X+1150800Y+4178958D01*
X+1150800Y+4221042D01*
X+1121842Y+4250000D01*
X+1150800Y+4278958D01*
X+1150800Y+4321042D01*
X+1121842Y+4350000D01*
X+1150800Y+4378958D01*
X+1150800Y+4421042D01*
X+1121842Y+4450000D01*
X+1150800Y+4478958D01*
X+1150800Y+4521042D01*
X+1121842Y+4550000D01*
X+1150800Y+4578958D01*
X+1150800Y+4621042D01*
X+1121842Y+4650000D01*
X+1150800Y+4678958D01*
X+1150800Y+4721042D01*
X+1121842Y+4750000D01*
X+1150800Y+4778958D01*
X+1150800Y+4821042D01*
X+1121842Y+4850000D01*
X+1150800Y+4878958D01*
X+1150800Y+4921042D01*
X+1137772Y+4934070D01*
X+2499182Y+4934070D01*
X+2435571Y+4870459D01*
G37*
%TD.AperFunction*%
%LPC*%
G36*
X+1968871Y+3257400D02*
X+1968871Y+3382600D01*
X+2057400Y+3471129D01*
X+2182600Y+3471129D01*
X+2271129Y+3382600D01*
X+2271129Y+3257400D01*
X+2182600Y+3168871D01*
X+2057400Y+3168871D01*
X+1968871Y+3257400D01*
G37*
G36*
X+1468871Y+3257400D02*
X+1468871Y+3382600D01*
X+1557400Y+3471129D01*
X+1682600Y+3471129D01*
X+1771129Y+3382600D01*
X+1771129Y+3257400D01*
X+1682600Y+3168871D01*
X+1557400Y+3168871D01*
X+1468871Y+3257400D01*
G37*
%LPD*%
%TA.AperFunction,Conductor*%
G36*
X+5351105Y+3277471D02*
X+5460895Y+3277471D01*
X+5481729Y+3298305D01*
X+5501500Y+3269500D01*
X+5501500Y+2754048D01*
X+5505625Y+2749922D01*
X+5554130Y+2665359D01*
X+6147779Y+2301500D01*
X+7086971Y+2301500D01*
X+7086971Y+2299671D01*
X+7400000Y+2299671D01*
X+7400000Y+2286969D01*
X+7086971Y+2286969D01*
X+7086971Y+2086311D01*
X+7400000Y+2086311D01*
X+7400000Y+797629D01*
X+7373703Y+797629D01*
X+7322371Y+746297D01*
X+7322371Y+673703D01*
X+7337771Y+658303D01*
X+7337771Y+598429D01*
X+7261571Y+598429D01*
X+7261571Y+540197D01*
X+7203339Y+598429D01*
X+7088661Y+598429D01*
X+7019000Y+528768D01*
X+6949339Y+598429D01*
X+6834661Y+598429D01*
X+6765000Y+528768D01*
X+6695339Y+598429D01*
X+6580661Y+598429D01*
X+6511000Y+528768D01*
X+6441339Y+598429D01*
X+6326661Y+598429D01*
X+6257000Y+528768D01*
X+6187339Y+598429D01*
X+6072661Y+598429D01*
X+6003000Y+528768D01*
X+5933339Y+598429D01*
X+5818661Y+598429D01*
X+5749000Y+528768D01*
X+5679339Y+598429D01*
X+5564661Y+598429D01*
X+5495000Y+528768D01*
X+5440229Y+583539D01*
X+5440229Y+962146D01*
X+5430229Y+972147D01*
X+5344604Y+1057771D01*
X+5745775Y+1057771D01*
X+5757137Y+1069133D01*
X+5757400Y+1068871D01*
X+5882600Y+1068871D01*
X+5971129Y+1157400D01*
X+5971129Y+1282600D01*
X+5882600Y+1371129D01*
X+5757400Y+1371129D01*
X+5668871Y+1282600D01*
X+5668871Y+1182229D01*
X+5070233Y+1182229D01*
X+5082229Y+1194225D01*
X+5082229Y+1663346D01*
X+5097105Y+1648471D01*
X+5145739Y+1648471D01*
X+5196556Y+1597654D01*
X+5754342Y+1597654D01*
X+6057771Y+1294225D01*
X+6057771Y+994225D01*
X+6169133Y+882862D01*
X+6168871Y+882600D01*
X+6168871Y+757400D01*
X+6257400Y+668871D01*
X+6382600Y+668871D01*
X+6471129Y+757400D01*
X+6471129Y+882600D01*
X+6382600Y+971129D01*
X+6257400Y+971129D01*
X+6257137Y+970866D01*
X+6182229Y+1045775D01*
X+6182229Y+1144042D01*
X+6257400Y+1068871D01*
X+6382600Y+1068871D01*
X+6471129Y+1157400D01*
X+6471129Y+1282600D01*
X+6382600Y+1371129D01*
X+6257400Y+1371129D01*
X+6257137Y+1370866D01*
X+5792529Y+1835475D01*
X+5792529Y+1835895D01*
X+5783267Y+1845157D01*
X+6153124Y+1845157D01*
X+6692275Y+1306004D01*
X+6668871Y+1282600D01*
X+6668871Y+1157400D01*
X+6757400Y+1068871D01*
X+6882600Y+1068871D01*
X+6971129Y+1157400D01*
X+6971129Y+1282600D01*
X+6882600Y+1371129D01*
X+6803160Y+1371129D01*
X+6204674Y+1969615D01*
X+5506611Y+1969615D01*
X+5482229Y+1945233D01*
X+5482229Y+2208303D01*
X+5507629Y+2233703D01*
X+5507629Y+2306297D01*
X+5456297Y+2357629D01*
X+5383703Y+2357629D01*
X+5332371Y+2306297D01*
X+5332371Y+2233703D01*
X+5357771Y+2208303D01*
X+5357771Y+2033913D01*
X+5323106Y+2068578D01*
X+5250512Y+2068578D01*
X+5214228Y+2032294D01*
X+5214228Y+3284804D01*
X+5279000Y+3349576D01*
X+5351105Y+3277471D01*
G37*
%TD.AperFunction*%
%LPC*%
G36*
X+5668871Y+757400D02*
X+5668871Y+882600D01*
X+5757400Y+971129D01*
X+5882600Y+971129D01*
X+5971129Y+882600D01*
X+5971129Y+757400D01*
X+5882600Y+668871D01*
X+5757400Y+668871D01*
X+5668871Y+757400D01*
G37*
G36*
X+7149200Y+758958D02*
X+7149200Y+801042D01*
X+7178958Y+830800D01*
X+7221042Y+830800D01*
X+7250800Y+801042D01*
X+7250800Y+758958D01*
X+7221042Y+729200D01*
X+7178958Y+729200D01*
X+7149200Y+758958D01*
G37*
G36*
X+7250800Y+2021042D02*
X+7250800Y+1978958D01*
X+7221842Y+1950000D01*
X+7250800Y+1921042D01*
X+7250800Y+1878958D01*
X+7221842Y+1850000D01*
X+7250800Y+1821042D01*
X+7250800Y+1778958D01*
X+7221842Y+1750000D01*
X+7250800Y+1721042D01*
X+7250800Y+1678958D01*
X+7221842Y+1650000D01*
X+7250800Y+1621042D01*
X+7250800Y+1578958D01*
X+7221842Y+1550000D01*
X+7250800Y+1521042D01*
X+7250800Y+1478958D01*
X+7221842Y+1450000D01*
X+7250800Y+1421042D01*
X+7250800Y+1378958D01*
X+7221842Y+1350000D01*
X+7250800Y+1321042D01*
X+7250800Y+1278958D01*
X+7221842Y+1250000D01*
X+7250800Y+1221042D01*
X+7250800Y+1178958D01*
X+7221842Y+1150000D01*
X+7250800Y+1121042D01*
X+7250800Y+1078958D01*
X+7221842Y+1050000D01*
X+7250800Y+1021042D01*
X+7250800Y+978958D01*
X+7221842Y+950000D01*
X+7250800Y+921042D01*
X+7250800Y+878958D01*
X+7221042Y+849200D01*
X+7178958Y+849200D01*
X+7149200Y+878958D01*
X+7149200Y+921042D01*
X+7178158Y+950000D01*
X+7149200Y+978958D01*
X+7149200Y+1021042D01*
X+7178158Y+1050000D01*
X+7149200Y+1078958D01*
X+7149200Y+1121042D01*
X+7178158Y+1150000D01*
X+7149200Y+1178958D01*
X+7149200Y+1221042D01*
X+7178158Y+1250000D01*
X+7149200Y+1278958D01*
X+7149200Y+1321042D01*
X+7178158Y+1350000D01*
X+7149200Y+1378958D01*
X+7149200Y+1421042D01*
X+7178158Y+1450000D01*
X+7149200Y+1478958D01*
X+7149200Y+1521042D01*
X+7178158Y+1550000D01*
X+7149200Y+1578958D01*
X+7149200Y+1621042D01*
X+7178158Y+1650000D01*
X+7149200Y+1678958D01*
X+7149200Y+1721042D01*
X+7178158Y+1750000D01*
X+7149200Y+1778958D01*
X+7149200Y+1821042D01*
X+7178158Y+1850000D01*
X+7149200Y+1878958D01*
X+7149200Y+1921042D01*
X+7178158Y+1950000D01*
X+7149200Y+1978958D01*
X+7149200Y+2021042D01*
X+7178958Y+2050800D01*
X+7221042Y+2050800D01*
X+7250800Y+2021042D01*
G37*
%LPD*%
%TA.AperFunction,Conductor*%
G36*
X+1049200Y+4921042D02*
X+1049200Y+4878958D01*
X+1078158Y+4850000D01*
X+1049200Y+4821042D01*
X+1049200Y+4778958D01*
X+1078158Y+4750000D01*
X+1049200Y+4721042D01*
X+1049200Y+4678958D01*
X+1078158Y+4650000D01*
X+1049200Y+4621042D01*
X+1049200Y+4578958D01*
X+1078158Y+4550000D01*
X+1049200Y+4521042D01*
X+1049200Y+4478958D01*
X+1078158Y+4450000D01*
X+1049200Y+4421042D01*
X+1049200Y+4378958D01*
X+1078158Y+4350000D01*
X+1049200Y+4321042D01*
X+1049200Y+4278958D01*
X+1078158Y+4250000D01*
X+1049200Y+4221042D01*
X+1049200Y+4178958D01*
X+1078158Y+4150000D01*
X+1049200Y+4121042D01*
X+1049200Y+4078958D01*
X+1078158Y+4050000D01*
X+1049200Y+4021042D01*
X+1049200Y+3978958D01*
X+1078158Y+3950000D01*
X+1049200Y+3921042D01*
X+1049200Y+3878958D01*
X+1078158Y+3850000D01*
X+1049200Y+3821042D01*
X+1049200Y+3778958D01*
X+1078158Y+3750000D01*
X+1049200Y+3721042D01*
X+1049200Y+3678958D01*
X+1078158Y+3650000D01*
X+1049200Y+3621042D01*
X+1049200Y+3578958D01*
X+1078158Y+3550000D01*
X+1049200Y+3521042D01*
X+1049200Y+3478958D01*
X+1078158Y+3450000D01*
X+1049200Y+3421042D01*
X+1049200Y+3378958D01*
X+1078158Y+3350000D01*
X+1049200Y+3321042D01*
X+1049200Y+3278958D01*
X+1078158Y+3250000D01*
X+1049200Y+3221042D01*
X+1049200Y+3178958D01*
X+1078158Y+3150000D01*
X+1049200Y+3121042D01*
X+1049200Y+3078958D01*
X+1078158Y+3050000D01*
X+1049200Y+3021042D01*
X+1049200Y+2978958D01*
X+1078158Y+2950000D01*
X+1049200Y+2921042D01*
X+1049200Y+2878958D01*
X+1078158Y+2850000D01*
X+1049200Y+2821042D01*
X+1049200Y+2778958D01*
X+1078158Y+2750000D01*
X+1049200Y+2721042D01*
X+1049200Y+2678958D01*
X+1078158Y+2650000D01*
X+1049200Y+2621042D01*
X+1049200Y+2578958D01*
X+1078158Y+2550000D01*
X+1049200Y+2521042D01*
X+1049200Y+2478958D01*
X+1078158Y+2450000D01*
X+1049200Y+2421042D01*
X+1049200Y+2378958D01*
X+1078158Y+2350000D01*
X+1049200Y+2321042D01*
X+1049200Y+2278958D01*
X+1078158Y+2250000D01*
X+1049200Y+2221042D01*
X+1049200Y+2178958D01*
X+1078158Y+2150000D01*
X+1049200Y+2121042D01*
X+1049200Y+2078958D01*
X+1078158Y+2050000D01*
X+1049200Y+2021042D01*
X+1049200Y+1978958D01*
X+1078158Y+1950000D01*
X+1049200Y+1921042D01*
X+1049200Y+1878958D01*
X+1078158Y+1850000D01*
X+1049200Y+1821042D01*
X+1049200Y+1778958D01*
X+1078158Y+1750000D01*
X+1049200Y+1721042D01*
X+1049200Y+1678958D01*
X+1078158Y+1650000D01*
X+1049200Y+1621042D01*
X+1049200Y+1578958D01*
X+1078158Y+1550000D01*
X+1049200Y+1521042D01*
X+1049200Y+1478958D01*
X+1078158Y+1450000D01*
X+1049200Y+1421042D01*
X+1049200Y+1378958D01*
X+1078158Y+1350000D01*
X+1049200Y+1321042D01*
X+1049200Y+1278958D01*
X+1078158Y+1250000D01*
X+1049200Y+1221042D01*
X+1049200Y+1178958D01*
X+1078158Y+1150000D01*
X+1049200Y+1121042D01*
X+1049200Y+1078958D01*
X+1078158Y+1050000D01*
X+1049200Y+1021042D01*
X+1049200Y+978958D01*
X+1078158Y+950000D01*
X+1049200Y+921042D01*
X+1049200Y+878958D01*
X+1078158Y+850000D01*
X+1049200Y+821042D01*
X+1049200Y+778958D01*
X+1078158Y+750000D01*
X+1049200Y+721042D01*
X+1049200Y+678958D01*
X+1078158Y+650000D01*
X+1049200Y+621042D01*
X+1049200Y+578958D01*
X+1078158Y+550000D01*
X+1049200Y+521042D01*
X+1049200Y+478958D01*
X+1078158Y+450000D01*
X+1049200Y+421042D01*
X+1049200Y+378958D01*
X+1078158Y+350000D01*
X+1049200Y+321042D01*
X+1049200Y+278958D01*
X+1078158Y+250000D01*
X+1049200Y+221042D01*
X+1049200Y+178958D01*
X+1078158Y+150000D01*
X+1049200Y+121042D01*
X+1049200Y+83930D01*
X+1000339Y+83930D01*
X+1019923Y+4934070D01*
X+1062228Y+4934070D01*
X+1049200Y+4921042D01*
G37*
%TD.AperFunction*%
D10*
X+4720000Y+1120000D02*
X+4720000Y+1705000D01*
X+4644000Y+1781000D01*
X+5194371Y+1120000D02*
X+5720000Y+1120000D01*
X+5820000Y+1220000D01*
X+5406000Y+1781000D02*
X+5532386Y+1907386D01*
X+6178899Y+1907386D01*
X+6764685Y+1321600D01*
X+6820000Y+1220000D01*
X+6320000Y+1220000D02*
X+5759000Y+1781000D01*
X+5660000Y+1781000D01*
X+6320000Y+820000D02*
X+6120000Y+1020000D01*
X+6120000Y+1320000D01*
X+5780117Y+1659883D01*
X+5222331Y+1659883D01*
X+5184214Y+1698000D01*
X+5152000Y+1781000D01*
X+5152000Y+3410000D02*
X+5152000Y+1943887D01*
X+5020000Y+1811887D01*
X+5020000Y+1220000D01*
X+4920000Y+1120000D01*
X+4898000Y+3410000D02*
X+4413274Y+3894726D01*
X+4100000Y+3894726D01*
X+4644000Y+3410000D02*
X+4294602Y+3759398D01*
X+4100000Y+3759398D01*
X+2720000Y+3020000D02*
X+3465000Y+3765000D01*
X+4390000Y+3410000D02*
X+3864969Y+2884969D01*
X+2834969Y+2884969D01*
X+2700000Y+2750000D01*
X+2430000Y+2750000D01*
X+2430000Y+3230000D01*
X+2720000Y+3520000D01*
X+5368000Y+460000D02*
X+5368000Y+946371D01*
X+5194371Y+1120000D01*
X+4966990Y+1120000D01*
X+4920000Y+1120000D01*
X+5378000Y+470000D02*
X+5378000Y+936371D01*
X+5368000Y+946371D01*
X+5194371Y+1120000D02*
X+4966990Y+1120000D01*
X+4920000Y+1120000D01*
X+7146000Y+206000D02*
X+7365266Y+206000D01*
X+7372435Y+198831D01*
X+7400000Y+206000D01*
X+7400000Y+450000D02*
X+7400000Y+460000D01*
X+7400000Y+700000D01*
X+7410000Y+710000D01*
X+3928000Y+3618000D02*
X+4143390Y+3402610D01*
X+4155797Y+3402610D01*
X+4136000Y+3410000D01*
X+3928000Y+3618000D01*
X+3781000Y+3765000D01*
X+3465000Y+3765000D01*
X+4770000Y+2130000D02*
X+4770000Y+1909000D01*
X+4779491Y+1899509D01*
X+4898000Y+1781000D01*
X+4020000Y+1120000D02*
X+4503570Y+1603570D01*
X+4503570Y+1805538D01*
X+4597541Y+1899509D01*
X+4779491Y+1899509D01*
X+5420000Y+2270000D02*
X+5420000Y+1830691D01*
X+5407027Y+1817718D01*
X+5406000Y+1781000D01*
X+5152000Y+1781000D02*
X+5286809Y+1915809D01*
X+5286809Y+1980949D01*
X+4098000Y+4813120D02*
X+4232560Y+4678560D01*
X+4232560Y+4171721D01*
X+3955600Y+3894761D01*
X+3955600Y+3645600D01*
X+3928000Y+3618000D01*
X+4352000Y+4559120D02*
X+4352000Y+4211917D01*
X+4351823Y+4211740D01*
X+3844000Y+4559120D02*
X+3844000Y+4273291D01*
X+3853180Y+4264111D01*
X+4860000Y+4559120D02*
X+4860000Y+3615977D01*
X+5035830Y+3440147D01*
X+5035830Y+2339064D01*
X+5040000Y+2334894D01*
X+4352000Y+4813120D02*
X+4485288Y+4679832D01*
X+4485288Y+4320180D01*
X+4450555Y+4285447D01*
X+3259081Y+4157520D02*
X+2741905Y+3640344D01*
X+2741905Y+3621600D01*
X+2720000Y+3520000D01*
X+5152000Y+3410000D02*
X+5170000Y+3428000D01*
X+5170000Y+3890000D01*
X+7400000Y+4559120D02*
X+6830880Y+3990000D01*
X+5270000Y+3990000D01*
X+5170000Y+3890000D01*
X+1100000Y+4800000D02*
X+1100000Y+4700000D01*
X+1100000Y+4600000D02*
X+1100000Y+4500000D01*
X+1100000Y+4400000D02*
X+1100000Y+4300000D01*
X+1100000Y+4200000D02*
X+1100000Y+4100000D01*
X+1100000Y+4000000D02*
X+1100000Y+3900000D01*
X+1100000Y+3800000D02*
X+1100000Y+3700000D01*
X+1100000Y+3600000D02*
X+1100000Y+3500000D01*
X+1100000Y+3400000D02*
X+1100000Y+3300000D01*
X+1100000Y+3200000D02*
X+1100000Y+3100000D01*
X+1100000Y+3000000D02*
X+1100000Y+2900000D01*
X+1100000Y+2800000D02*
X+1100000Y+2700000D01*
X+1100000Y+2600000D02*
X+1100000Y+2500000D01*
X+1100000Y+2400000D02*
X+1100000Y+2300000D01*
X+1100000Y+2200000D02*
X+1100000Y+2100000D01*
X+1100000Y+2000000D02*
X+1100000Y+1900000D01*
X+1100000Y+1800000D02*
X+1100000Y+1700000D01*
X+1100000Y+1600000D02*
X+1100000Y+1500000D01*
X+1100000Y+1400000D02*
X+1100000Y+1300000D01*
X+1100000Y+1200000D02*
X+1100000Y+1100000D01*
X+1100000Y+1000000D02*
X+1100000Y+900000D01*
X+1100000Y+800000D02*
X+1100000Y+700000D01*
X+1100000Y+600000D02*
X+1100000Y+500000D01*
X+1100000Y+400000D02*
X+1100000Y+300000D01*
X+1100000Y+200000D02*
X+1100000Y+100000D01*
X+7429319Y+2496594D02*
X+7430000Y+2500000D01*
X+7430298Y+2495615D02*
X+7430000Y+2500000D01*
X+7429319Y+2496594D02*
X+7430298Y+2495615D01*
X+7400000Y+2500000D02*
X+7425921Y+2493202D01*
X+7435124Y+2490789D01*
X+7430000Y+2500000D01*
X+7430298Y+2495615D02*
X+7435124Y+2490789D01*
X+7400000Y+2400000D02*
X+7400000Y+2450000D01*
X+7425921Y+2493202D01*
X+7430000Y+2500000D01*
X+7200000Y+2400000D02*
X+7186640Y+2500000D01*
D11*
X+6230000Y+2500000D02*
X+7170000Y+2500000D01*
D10*
X+7186640Y+2500000D02*
X+7135840Y+2506079D01*
X+6250000Y+2590000D01*
X+5700000Y+2836269D01*
X+5580000Y+2890000D01*
X+5644740Y+3327000D01*
X+5660000Y+3410000D01*
D11*
X+5700000Y+3327000D01*
X+5700000Y+2836269D01*
X+5700000Y+2810000D01*
X+6230000Y+2500000D01*
D10*
X+5383360Y+3890000D02*
X+7250000Y+3900000D01*
X+7250000Y+4000000D02*
X+7250000Y+4100000D01*
X+7250000Y+3900000D02*
X+7250000Y+3800000D01*
X+7250000Y+3700000D02*
X+7250000Y+3600000D01*
X+7250000Y+3500000D02*
X+7250000Y+3400000D01*
X+7250000Y+3300000D02*
X+7250000Y+3200000D01*
X+7250000Y+3100000D02*
X+7250000Y+3000000D01*
X+7250000Y+2900000D02*
X+7250000Y+2800000D01*
X+5820000Y+820000D02*
X+5990000Y+650000D01*
X+7200000Y+650000D01*
X+7200000Y+780000D01*
X+7200000Y+900000D02*
X+7200000Y+1000000D01*
X+7200000Y+1100000D02*
X+7200000Y+1200000D01*
X+7200000Y+1300000D02*
X+7200000Y+1400000D01*
X+7200000Y+1500000D02*
X+7200000Y+1600000D01*
X+7200000Y+1700000D02*
X+7200000Y+1800000D01*
X+7200000Y+1900000D02*
X+7200000Y+2000000D01*
D12*
X+4100000Y+3894726D03*
X+4100000Y+3759398D03*
X+7410000Y+710000D03*
X+4351823Y+4211740D03*
X+4770000Y+2130000D03*
X+3853180Y+4264111D03*
X+5040000Y+2334894D03*
X+5420000Y+2270000D03*
X+5286809Y+1980949D03*
X+4450555Y+4285447D03*
X+3259081Y+4157520D03*
X+1100000Y+4900000D03*
X+1100000Y+4800000D03*
X+1100000Y+4700000D03*
X+1100000Y+4600000D03*
X+1100000Y+4500000D03*
X+1100000Y+4400000D03*
X+1100000Y+4300000D03*
X+1100000Y+4200000D03*
X+1100000Y+4100000D03*
X+1100000Y+4000000D03*
X+1100000Y+3900000D03*
X+1100000Y+3800000D03*
X+1100000Y+3700000D03*
X+1100000Y+3600000D03*
X+1100000Y+3500000D03*
X+1100000Y+3400000D03*
X+1100000Y+3300000D03*
X+1100000Y+3200000D03*
X+1100000Y+3100000D03*
X+1100000Y+3000000D03*
X+1100000Y+2900000D03*
X+1100000Y+2800000D03*
X+1100000Y+2700000D03*
X+1100000Y+2600000D03*
X+1100000Y+2500000D03*
X+1100000Y+2400000D03*
X+1100000Y+2300000D03*
X+1100000Y+2200000D03*
X+1100000Y+2100000D03*
X+1100000Y+2000000D03*
X+1100000Y+1900000D03*
X+1100000Y+1800000D03*
X+1100000Y+1700000D03*
X+1100000Y+1600000D03*
X+1100000Y+1500000D03*
X+1100000Y+1400000D03*
X+1100000Y+1300000D03*
X+1100000Y+1200000D03*
X+1100000Y+1100000D03*
X+1100000Y+1000000D03*
X+1100000Y+900000D03*
X+1100000Y+800000D03*
X+1100000Y+700000D03*
X+1100000Y+600000D03*
X+1100000Y+500000D03*
X+1100000Y+400000D03*
X+1100000Y+300000D03*
X+1100000Y+200000D03*
X+1100000Y+100000D03*
X+7250000Y+3900000D03*
X+7250000Y+4000000D03*
X+7250000Y+4100000D03*
X+7250000Y+4200000D03*
X+7250000Y+3800000D03*
X+7250000Y+3700000D03*
X+7250000Y+3600000D03*
X+7250000Y+3500000D03*
X+7250000Y+3400000D03*
X+7250000Y+3300000D03*
X+7250000Y+3200000D03*
X+7250000Y+3100000D03*
X+7250000Y+3000000D03*
X+7250000Y+2900000D03*
X+7250000Y+2800000D03*
X+7200000Y+780000D03*
X+7200000Y+900000D03*
X+7200000Y+1000000D03*
X+7200000Y+1100000D03*
X+7200000Y+1200000D03*
X+7200000Y+1300000D03*
X+7200000Y+1400000D03*
X+7200000Y+1500000D03*
X+7200000Y+1600000D03*
X+7200000Y+1700000D03*
X+7200000Y+1800000D03*
X+7200000Y+1900000D03*
X+7200000Y+2000000D03*
D13*
X+7400000Y+2613029D02*
X+7337692Y+2613029D01*
X+7252221Y+2698500D01*
X+6312221Y+2698500D01*
X+5898500Y+2927048D01*
X+5898500Y+3372334D01*
X+5858500Y+3492221D01*
X+5742221Y+3608500D01*
X+5577779Y+3608500D01*
X+5486351Y+3517072D01*
X+5460895Y+3542529D01*
X+5351105Y+3542529D01*
X+5279000Y+3470424D01*
X+5232229Y+3517195D01*
X+5232229Y+3776971D01*
X+5270329Y+3776971D01*
X+5270329Y+3902325D01*
X+5283031Y+3915027D01*
X+5283031Y+3776971D01*
X+5483689Y+3776971D01*
X+5483689Y+3927772D01*
X+6856656Y+3927772D01*
X+7349575Y+4420691D01*
X+7400000Y+4420691D01*
X+7400000Y+2613029D01*
X+7300800Y+4221042D02*
X+7300800Y+4178958D01*
X+7271842Y+4150000D01*
X+7300800Y+4121042D01*
X+7300800Y+4078958D01*
X+7271842Y+4050000D01*
X+7300800Y+4021042D01*
X+7300800Y+3978958D01*
X+7271842Y+3950000D01*
X+7300800Y+3921042D01*
X+7300800Y+3878958D01*
X+7271842Y+3850000D01*
X+7300800Y+3821042D01*
X+7300800Y+3778958D01*
X+7271842Y+3750000D01*
X+7300800Y+3721042D01*
X+7300800Y+3678958D01*
X+7271842Y+3650000D01*
X+7300800Y+3621042D01*
X+7300800Y+3578958D01*
X+7271842Y+3550000D01*
X+7300800Y+3521042D01*
X+7300800Y+3478958D01*
X+7271842Y+3450000D01*
X+7300800Y+3421042D01*
X+7300800Y+3378958D01*
X+7271842Y+3350000D01*
X+7300800Y+3321042D01*
X+7300800Y+3278958D01*
X+7271842Y+3250000D01*
X+7300800Y+3221042D01*
X+7300800Y+3178958D01*
X+7271842Y+3150000D01*
X+7300800Y+3121042D01*
X+7300800Y+3078958D01*
X+7271842Y+3050000D01*
X+7300800Y+3021042D01*
X+7300800Y+2978958D01*
X+7271842Y+2950000D01*
X+7300800Y+2921042D01*
X+7300800Y+2878958D01*
X+7271842Y+2850000D01*
X+7300800Y+2821042D01*
X+7300800Y+2778958D01*
X+7271042Y+2749200D01*
X+7228958Y+2749200D01*
X+7199200Y+2778958D01*
X+7199200Y+2821042D01*
X+7228158Y+2850000D01*
X+7199200Y+2878958D01*
X+7199200Y+2921042D01*
X+7228158Y+2950000D01*
X+7199200Y+2978958D01*
X+7199200Y+3021042D01*
X+7228158Y+3050000D01*
X+7199200Y+3078958D01*
X+7199200Y+3121042D01*
X+7228158Y+3150000D01*
X+7199200Y+3178958D01*
X+7199200Y+3221042D01*
X+7228158Y+3250000D01*
X+7199200Y+3278958D01*
X+7199200Y+3321042D01*
X+7228158Y+3350000D01*
X+7199200Y+3378958D01*
X+7199200Y+3421042D01*
X+7228158Y+3450000D01*
X+7199200Y+3478958D01*
X+7199200Y+3521042D01*
X+7228158Y+3550000D01*
X+7199200Y+3578958D01*
X+7199200Y+3621042D01*
X+7228158Y+3650000D01*
X+7199200Y+3678958D01*
X+7199200Y+3721042D01*
X+7228158Y+3750000D01*
X+7199200Y+3778958D01*
X+7199200Y+3821042D01*
X+7228158Y+3850000D01*
X+7199200Y+3878958D01*
X+7199200Y+3921042D01*
X+7228158Y+3950000D01*
X+7199200Y+3978958D01*
X+7199200Y+4021042D01*
X+7228158Y+4050000D01*
X+7199200Y+4078958D01*
X+7199200Y+4121042D01*
X+7228158Y+4150000D01*
X+7199200Y+4178958D01*
X+7199200Y+4221042D01*
X+7228958Y+4250800D01*
X+7271042Y+4250800D01*
X+7300800Y+4221042D01*
X+2435571Y+4870459D02*
X+2435571Y+4755781D01*
X+2505232Y+4686120D01*
X+2435571Y+4616459D01*
X+2435571Y+4501781D01*
X+2516661Y+4420691D01*
X+2631339Y+4420691D01*
X+2701000Y+4490352D01*
X+2770661Y+4420691D01*
X+2885339Y+4420691D01*
X+2955000Y+4490352D01*
X+3024661Y+4420691D01*
X+3139339Y+4420691D01*
X+3209000Y+4490352D01*
X+3278661Y+4420691D01*
X+3393339Y+4420691D01*
X+3463000Y+4490352D01*
X+3532661Y+4420691D01*
X+3647339Y+4420691D01*
X+3717000Y+4490352D01*
X+3781771Y+4425581D01*
X+3781771Y+4316628D01*
X+3765551Y+4300408D01*
X+3765551Y+4227814D01*
X+3816883Y+4176482D01*
X+3889477Y+4176482D01*
X+3940809Y+4227814D01*
X+3940809Y+4300408D01*
X+3906229Y+4334988D01*
X+3906229Y+4425581D01*
X+3971000Y+4490352D01*
X+4040661Y+4420691D01*
X+4155339Y+4420691D01*
X+4170332Y+4435684D01*
X+4170332Y+4197497D01*
X+3893371Y+3920536D01*
X+3893371Y+3740633D01*
X+3806775Y+3827229D01*
X+3439224Y+3827229D01*
X+3402771Y+3790775D01*
X+2782862Y+3170866D01*
X+2782600Y+3171129D01*
X+2657400Y+3171129D01*
X+2568871Y+3082600D01*
X+2568871Y+2957400D01*
X+2657400Y+2868871D01*
X+2730867Y+2868871D01*
X+2674225Y+2812229D01*
X+2492229Y+2812229D01*
X+2492229Y+3204225D01*
X+2657137Y+3369133D01*
X+2657400Y+3368871D01*
X+2782600Y+3368871D01*
X+2871129Y+3457400D01*
X+2871129Y+3582600D01*
X+2821647Y+3632082D01*
X+3259456Y+4069891D01*
X+3295378Y+4069891D01*
X+3346710Y+4121223D01*
X+3346710Y+4193817D01*
X+3295378Y+4245149D01*
X+3222784Y+4245149D01*
X+3171452Y+4193817D01*
X+3171452Y+4157895D01*
X+2684686Y+3671129D01*
X+2657400Y+3671129D01*
X+2568871Y+3582600D01*
X+2568871Y+3457400D01*
X+2569133Y+3457137D01*
X+2367771Y+3255775D01*
X+2367771Y+2724225D01*
X+2404225Y+2687771D01*
X+2725775Y+2687771D01*
X+2860744Y+2822740D01*
X+3890744Y+2822740D01*
X+4345475Y+3277471D01*
X+4444895Y+3277471D01*
X+4517000Y+3349576D01*
X+4589105Y+3277471D01*
X+4698895Y+3277471D01*
X+4771000Y+3349576D01*
X+4843105Y+3277471D01*
X+4952895Y+3277471D01*
X+4973601Y+3298177D01*
X+4973601Y+2392421D01*
X+4952371Y+2371191D01*
X+4952371Y+2298597D01*
X+5003703Y+2247265D01*
X+5076297Y+2247265D01*
X+5089771Y+2260739D01*
X+5089771Y+1969662D01*
X+4993266Y+1873157D01*
X+4952895Y+1913529D01*
X+4853475Y+1913529D01*
X+4832229Y+1934776D01*
X+4832229Y+2068303D01*
X+4857629Y+2093703D01*
X+4857629Y+2166297D01*
X+4806297Y+2217629D01*
X+4733703Y+2217629D01*
X+4682371Y+2166297D01*
X+4682371Y+2093703D01*
X+4707771Y+2068303D01*
X+4707771Y+1961738D01*
X+4571766Y+1961738D01*
X+4484226Y+1874198D01*
X+4444895Y+1913529D01*
X+4335105Y+1913529D01*
X+4263000Y+1841424D01*
X+4190895Y+1913529D01*
X+4081105Y+1913529D01*
X+4009000Y+1841424D01*
X+3936895Y+1913529D01*
X+3827105Y+1913529D01*
X+3749471Y+1835895D01*
X+3749471Y+1726105D01*
X+3827105Y+1648471D01*
X+3936895Y+1648471D01*
X+4009000Y+1720576D01*
X+4081105Y+1648471D01*
X+4190895Y+1648471D01*
X+4263000Y+1720576D01*
X+4335105Y+1648471D01*
X+4441341Y+1648471D01*
X+4441341Y+1629345D01*
X+4082862Y+1270866D01*
X+4082600Y+1271129D01*
X+3957400Y+1271129D01*
X+3868871Y+1182600D01*
X+3868871Y+1057400D01*
X+3957400Y+968871D01*
X+4082600Y+968871D01*
X+4171129Y+1057400D01*
X+4171129Y+1182600D01*
X+4170866Y+1182862D01*
X+4565799Y+1577795D01*
X+4565799Y+1671777D01*
X+4589105Y+1648471D01*
X+4657771Y+1648471D01*
X+4657771Y+1241919D01*
X+4623481Y+1241919D01*
X+4623481Y+998081D01*
X+4816519Y+998081D01*
X+4816519Y+1241919D01*
X+4782229Y+1241919D01*
X+4782229Y+1709347D01*
X+4843105Y+1648471D01*
X+4952895Y+1648471D01*
X+4957771Y+1653347D01*
X+4957771Y+1245775D01*
X+4953915Y+1241919D01*
X+4823481Y+1241919D01*
X+4823481Y+998081D01*
X+5016519Y+998081D01*
X+5016519Y+1057771D01*
X+5168596Y+1057771D01*
X+5305771Y+920596D01*
X+5305771Y+593539D01*
X+5241000Y+528768D01*
X+5171339Y+598429D01*
X+5056661Y+598429D01*
X+4987000Y+528768D01*
X+4917339Y+598429D01*
X+4802661Y+598429D01*
X+4733000Y+528768D01*
X+4663339Y+598429D01*
X+4548661Y+598429D01*
X+4479000Y+528768D01*
X+4409339Y+598429D01*
X+4294661Y+598429D01*
X+4225000Y+528768D01*
X+4155339Y+598429D01*
X+4040661Y+598429D01*
X+3971000Y+528768D01*
X+3901339Y+598429D01*
X+3786661Y+598429D01*
X+3717000Y+528768D01*
X+3647339Y+598429D01*
X+3532661Y+598429D01*
X+3463000Y+528768D01*
X+3393339Y+598429D01*
X+3278661Y+598429D01*
X+3209000Y+528768D01*
X+3139339Y+598429D01*
X+3024661Y+598429D01*
X+2955000Y+528768D01*
X+2885339Y+598429D01*
X+2770661Y+598429D01*
X+2701000Y+528768D01*
X+2631339Y+598429D01*
X+2516661Y+598429D01*
X+2435571Y+517339D01*
X+2435571Y+402661D01*
X+2505232Y+333000D01*
X+2435571Y+263339D01*
X+2435571Y+148661D01*
X+2500302Y+83930D01*
X+1150800Y+83930D01*
X+1150800Y+121042D01*
X+1121842Y+150000D01*
X+1150800Y+178958D01*
X+1150800Y+221042D01*
X+1121842Y+250000D01*
X+1150800Y+278958D01*
X+1150800Y+321042D01*
X+1121842Y+350000D01*
X+1150800Y+378958D01*
X+1150800Y+421042D01*
X+1121842Y+450000D01*
X+1150800Y+478958D01*
X+1150800Y+521042D01*
X+1121842Y+550000D01*
X+1150800Y+578958D01*
X+1150800Y+621042D01*
X+1121842Y+650000D01*
X+1150800Y+678958D01*
X+1150800Y+721042D01*
X+1121842Y+750000D01*
X+1150800Y+778958D01*
X+1150800Y+821042D01*
X+1121842Y+850000D01*
X+1150800Y+878958D01*
X+1150800Y+921042D01*
X+1121842Y+950000D01*
X+1150800Y+978958D01*
X+1150800Y+1021042D01*
X+1121842Y+1050000D01*
X+1150800Y+1078958D01*
X+1150800Y+1121042D01*
X+1121842Y+1150000D01*
X+1150800Y+1178958D01*
X+1150800Y+1221042D01*
X+1121842Y+1250000D01*
X+1150800Y+1278958D01*
X+1150800Y+1321042D01*
X+1121842Y+1350000D01*
X+1150800Y+1378958D01*
X+1150800Y+1421042D01*
X+1121842Y+1450000D01*
X+1150800Y+1478958D01*
X+1150800Y+1521042D01*
X+1121842Y+1550000D01*
X+1150800Y+1578958D01*
X+1150800Y+1621042D01*
X+1121842Y+1650000D01*
X+1150800Y+1678958D01*
X+1150800Y+1721042D01*
X+1121842Y+1750000D01*
X+1150800Y+1778958D01*
X+1150800Y+1821042D01*
X+1121842Y+1850000D01*
X+1150800Y+1878958D01*
X+1150800Y+1921042D01*
X+1121842Y+1950000D01*
X+1150800Y+1978958D01*
X+1150800Y+2021042D01*
X+1121842Y+2050000D01*
X+1150800Y+2078958D01*
X+1150800Y+2121042D01*
X+1121842Y+2150000D01*
X+1150800Y+2178958D01*
X+1150800Y+2221042D01*
X+1121842Y+2250000D01*
X+1150800Y+2278958D01*
X+1150800Y+2321042D01*
X+1121842Y+2350000D01*
X+1150800Y+2378958D01*
X+1150800Y+2421042D01*
X+1121842Y+2450000D01*
X+1150800Y+2478958D01*
X+1150800Y+2521042D01*
X+1121842Y+2550000D01*
X+1150800Y+2578958D01*
X+1150800Y+2621042D01*
X+1121842Y+2650000D01*
X+1150800Y+2678958D01*
X+1150800Y+2721042D01*
X+1121842Y+2750000D01*
X+1150800Y+2778958D01*
X+1150800Y+2821042D01*
X+1121842Y+2850000D01*
X+1150800Y+2878958D01*
X+1150800Y+2921042D01*
X+1121842Y+2950000D01*
X+1150800Y+2978958D01*
X+1150800Y+3021042D01*
X+1121842Y+3050000D01*
X+1150800Y+3078958D01*
X+1150800Y+3121042D01*
X+1121842Y+3150000D01*
X+1150800Y+3178958D01*
X+1150800Y+3221042D01*
X+1121842Y+3250000D01*
X+1150800Y+3278958D01*
X+1150800Y+3321042D01*
X+1121842Y+3350000D01*
X+1150800Y+3378958D01*
X+1150800Y+3421042D01*
X+1121842Y+3450000D01*
X+1150800Y+3478958D01*
X+1150800Y+3521042D01*
X+1121842Y+3550000D01*
X+1150800Y+3578958D01*
X+1150800Y+3621042D01*
X+1121842Y+3650000D01*
X+1150800Y+3678958D01*
X+1150800Y+3721042D01*
X+1121842Y+3750000D01*
X+1150800Y+3778958D01*
X+1150800Y+3821042D01*
X+1121842Y+3850000D01*
X+1150800Y+3878958D01*
X+1150800Y+3921042D01*
X+1121842Y+3950000D01*
X+1150800Y+3978958D01*
X+1150800Y+4021042D01*
X+1121842Y+4050000D01*
X+1150800Y+4078958D01*
X+1150800Y+4121042D01*
X+1121842Y+4150000D01*
X+1150800Y+4178958D01*
X+1150800Y+4221042D01*
X+1121842Y+4250000D01*
X+1150800Y+4278958D01*
X+1150800Y+4321042D01*
X+1121842Y+4350000D01*
X+1150800Y+4378958D01*
X+1150800Y+4421042D01*
X+1121842Y+4450000D01*
X+1150800Y+4478958D01*
X+1150800Y+4521042D01*
X+1121842Y+4550000D01*
X+1150800Y+4578958D01*
X+1150800Y+4621042D01*
X+1121842Y+4650000D01*
X+1150800Y+4678958D01*
X+1150800Y+4721042D01*
X+1121842Y+4750000D01*
X+1150800Y+4778958D01*
X+1150800Y+4821042D01*
X+1121842Y+4850000D01*
X+1150800Y+4878958D01*
X+1150800Y+4921042D01*
X+1137772Y+4934070D01*
X+2499182Y+4934070D01*
X+2435571Y+4870459D01*
X+1968871Y+3257400D02*
X+1968871Y+3382600D01*
X+2057400Y+3471129D01*
X+2182600Y+3471129D01*
X+2271129Y+3382600D01*
X+2271129Y+3257400D01*
X+2182600Y+3168871D01*
X+2057400Y+3168871D01*
X+1968871Y+3257400D01*
X+1468871Y+3257400D02*
X+1468871Y+3382600D01*
X+1557400Y+3471129D01*
X+1682600Y+3471129D01*
X+1771129Y+3382600D01*
X+1771129Y+3257400D01*
X+1682600Y+3168871D01*
X+1557400Y+3168871D01*
X+1468871Y+3257400D01*
X+5351105Y+3277471D02*
X+5460895Y+3277471D01*
X+5481729Y+3298305D01*
X+5501500Y+3269500D01*
X+5501500Y+2754048D01*
X+5505625Y+2749922D01*
X+5554130Y+2665359D01*
X+6147779Y+2301500D01*
X+7086971Y+2301500D01*
X+7086971Y+2299671D01*
X+7400000Y+2299671D01*
X+7400000Y+2286969D01*
X+7086971Y+2286969D01*
X+7086971Y+2086311D01*
X+7400000Y+2086311D01*
X+7400000Y+797629D01*
X+7373703Y+797629D01*
X+7322371Y+746297D01*
X+7322371Y+673703D01*
X+7337771Y+658303D01*
X+7337771Y+598429D01*
X+7261571Y+598429D01*
X+7261571Y+540197D01*
X+7203339Y+598429D01*
X+7088661Y+598429D01*
X+7019000Y+528768D01*
X+6949339Y+598429D01*
X+6834661Y+598429D01*
X+6765000Y+528768D01*
X+6695339Y+598429D01*
X+6580661Y+598429D01*
X+6511000Y+528768D01*
X+6441339Y+598429D01*
X+6326661Y+598429D01*
X+6257000Y+528768D01*
X+6187339Y+598429D01*
X+6072661Y+598429D01*
X+6003000Y+528768D01*
X+5933339Y+598429D01*
X+5818661Y+598429D01*
X+5749000Y+528768D01*
X+5679339Y+598429D01*
X+5564661Y+598429D01*
X+5495000Y+528768D01*
X+5440229Y+583539D01*
X+5440229Y+962146D01*
X+5430229Y+972147D01*
X+5344604Y+1057771D01*
X+5745775Y+1057771D01*
X+5757137Y+1069133D01*
X+5757400Y+1068871D01*
X+5882600Y+1068871D01*
X+5971129Y+1157400D01*
X+5971129Y+1282600D01*
X+5882600Y+1371129D01*
X+5757400Y+1371129D01*
X+5668871Y+1282600D01*
X+5668871Y+1182229D01*
X+5070233Y+1182229D01*
X+5082229Y+1194225D01*
X+5082229Y+1663346D01*
X+5097105Y+1648471D01*
X+5145739Y+1648471D01*
X+5196556Y+1597654D01*
X+5754342Y+1597654D01*
X+6057771Y+1294225D01*
X+6057771Y+994225D01*
X+6169133Y+882862D01*
X+6168871Y+882600D01*
X+6168871Y+757400D01*
X+6257400Y+668871D01*
X+6382600Y+668871D01*
X+6471129Y+757400D01*
X+6471129Y+882600D01*
X+6382600Y+971129D01*
X+6257400Y+971129D01*
X+6257137Y+970866D01*
X+6182229Y+1045775D01*
X+6182229Y+1144042D01*
X+6257400Y+1068871D01*
X+6382600Y+1068871D01*
X+6471129Y+1157400D01*
X+6471129Y+1282600D01*
X+6382600Y+1371129D01*
X+6257400Y+1371129D01*
X+6257137Y+1370866D01*
X+5792529Y+1835475D01*
X+5792529Y+1835895D01*
X+5783267Y+1845157D01*
X+6153124Y+1845157D01*
X+6692275Y+1306004D01*
X+6668871Y+1282600D01*
X+6668871Y+1157400D01*
X+6757400Y+1068871D01*
X+6882600Y+1068871D01*
X+6971129Y+1157400D01*
X+6971129Y+1282600D01*
X+6882600Y+1371129D01*
X+6803160Y+1371129D01*
X+6204674Y+1969615D01*
X+5506611Y+1969615D01*
X+5482229Y+1945233D01*
X+5482229Y+2208303D01*
X+5507629Y+2233703D01*
X+5507629Y+2306297D01*
X+5456297Y+2357629D01*
X+5383703Y+2357629D01*
X+5332371Y+2306297D01*
X+5332371Y+2233703D01*
X+5357771Y+2208303D01*
X+5357771Y+2033913D01*
X+5323106Y+2068578D01*
X+5250512Y+2068578D01*
X+5214228Y+2032294D01*
X+5214228Y+3284804D01*
X+5279000Y+3349576D01*
X+5351105Y+3277471D01*
X+5668871Y+757400D02*
X+5668871Y+882600D01*
X+5757400Y+971129D01*
X+5882600Y+971129D01*
X+5971129Y+882600D01*
X+5971129Y+757400D01*
X+5882600Y+668871D01*
X+5757400Y+668871D01*
X+5668871Y+757400D01*
X+7149200Y+758958D02*
X+7149200Y+801042D01*
X+7178958Y+830800D01*
X+7221042Y+830800D01*
X+7250800Y+801042D01*
X+7250800Y+758958D01*
X+7221042Y+729200D01*
X+7178958Y+729200D01*
X+7149200Y+758958D01*
X+7250800Y+2021042D02*
X+7250800Y+1978958D01*
X+7221842Y+1950000D01*
X+7250800Y+1921042D01*
X+7250800Y+1878958D01*
X+7221842Y+1850000D01*
X+7250800Y+1821042D01*
X+7250800Y+1778958D01*
X+7221842Y+1750000D01*
X+7250800Y+1721042D01*
X+7250800Y+1678958D01*
X+7221842Y+1650000D01*
X+7250800Y+1621042D01*
X+7250800Y+1578958D01*
X+7221842Y+1550000D01*
X+7250800Y+1521042D01*
X+7250800Y+1478958D01*
X+7221842Y+1450000D01*
X+7250800Y+1421042D01*
X+7250800Y+1378958D01*
X+7221842Y+1350000D01*
X+7250800Y+1321042D01*
X+7250800Y+1278958D01*
X+7221842Y+1250000D01*
X+7250800Y+1221042D01*
X+7250800Y+1178958D01*
X+7221842Y+1150000D01*
X+7250800Y+1121042D01*
X+7250800Y+1078958D01*
X+7221842Y+1050000D01*
X+7250800Y+1021042D01*
X+7250800Y+978958D01*
X+7221842Y+950000D01*
X+7250800Y+921042D01*
X+7250800Y+878958D01*
X+7221042Y+849200D01*
X+7178958Y+849200D01*
X+7149200Y+878958D01*
X+7149200Y+921042D01*
X+7178158Y+950000D01*
X+7149200Y+978958D01*
X+7149200Y+1021042D01*
X+7178158Y+1050000D01*
X+7149200Y+1078958D01*
X+7149200Y+1121042D01*
X+7178158Y+1150000D01*
X+7149200Y+1178958D01*
X+7149200Y+1221042D01*
X+7178158Y+1250000D01*
X+7149200Y+1278958D01*
X+7149200Y+1321042D01*
X+7178158Y+1350000D01*
X+7149200Y+1378958D01*
X+7149200Y+1421042D01*
X+7178158Y+1450000D01*
X+7149200Y+1478958D01*
X+7149200Y+1521042D01*
X+7178158Y+1550000D01*
X+7149200Y+1578958D01*
X+7149200Y+1621042D01*
X+7178158Y+1650000D01*
X+7149200Y+1678958D01*
X+7149200Y+1721042D01*
X+7178158Y+1750000D01*
X+7149200Y+1778958D01*
X+7149200Y+1821042D01*
X+7178158Y+1850000D01*
X+7149200Y+1878958D01*
X+7149200Y+1921042D01*
X+7178158Y+1950000D01*
X+7149200Y+1978958D01*
X+7149200Y+2021042D01*
X+7178958Y+2050800D01*
X+7221042Y+2050800D01*
X+7250800Y+2021042D01*
X+1049200Y+4921042D02*
X+1049200Y+4878958D01*
X+1078158Y+4850000D01*
X+1049200Y+4821042D01*
X+1049200Y+4778958D01*
X+1078158Y+4750000D01*
X+1049200Y+4721042D01*
X+1049200Y+4678958D01*
X+1078158Y+4650000D01*
X+1049200Y+4621042D01*
X+1049200Y+4578958D01*
X+1078158Y+4550000D01*
X+1049200Y+4521042D01*
X+1049200Y+4478958D01*
X+1078158Y+4450000D01*
X+1049200Y+4421042D01*
X+1049200Y+4378958D01*
X+1078158Y+4350000D01*
X+1049200Y+4321042D01*
X+1049200Y+4278958D01*
X+1078158Y+4250000D01*
X+1049200Y+4221042D01*
X+1049200Y+4178958D01*
X+1078158Y+4150000D01*
X+1049200Y+4121042D01*
X+1049200Y+4078958D01*
X+1078158Y+4050000D01*
X+1049200Y+4021042D01*
X+1049200Y+3978958D01*
X+1078158Y+3950000D01*
X+1049200Y+3921042D01*
X+1049200Y+3878958D01*
X+1078158Y+3850000D01*
X+1049200Y+3821042D01*
X+1049200Y+3778958D01*
X+1078158Y+3750000D01*
X+1049200Y+3721042D01*
X+1049200Y+3678958D01*
X+1078158Y+3650000D01*
X+1049200Y+3621042D01*
X+1049200Y+3578958D01*
X+1078158Y+3550000D01*
X+1049200Y+3521042D01*
X+1049200Y+3478958D01*
X+1078158Y+3450000D01*
X+1049200Y+3421042D01*
X+1049200Y+3378958D01*
X+1078158Y+3350000D01*
X+1049200Y+3321042D01*
X+1049200Y+3278958D01*
X+1078158Y+3250000D01*
X+1049200Y+3221042D01*
X+1049200Y+3178958D01*
X+1078158Y+3150000D01*
X+1049200Y+3121042D01*
X+1049200Y+3078958D01*
X+1078158Y+3050000D01*
X+1049200Y+3021042D01*
X+1049200Y+2978958D01*
X+1078158Y+2950000D01*
X+1049200Y+2921042D01*
X+1049200Y+2878958D01*
X+1078158Y+2850000D01*
X+1049200Y+2821042D01*
X+1049200Y+2778958D01*
X+1078158Y+2750000D01*
X+1049200Y+2721042D01*
X+1049200Y+2678958D01*
X+1078158Y+2650000D01*
X+1049200Y+2621042D01*
X+1049200Y+2578958D01*
X+1078158Y+2550000D01*
X+1049200Y+2521042D01*
X+1049200Y+2478958D01*
X+1078158Y+2450000D01*
X+1049200Y+2421042D01*
X+1049200Y+2378958D01*
X+1078158Y+2350000D01*
X+1049200Y+2321042D01*
X+1049200Y+2278958D01*
X+1078158Y+2250000D01*
X+1049200Y+2221042D01*
X+1049200Y+2178958D01*
X+1078158Y+2150000D01*
X+1049200Y+2121042D01*
X+1049200Y+2078958D01*
X+1078158Y+2050000D01*
X+1049200Y+2021042D01*
X+1049200Y+1978958D01*
X+1078158Y+1950000D01*
X+1049200Y+1921042D01*
X+1049200Y+1878958D01*
X+1078158Y+1850000D01*
X+1049200Y+1821042D01*
X+1049200Y+1778958D01*
X+1078158Y+1750000D01*
X+1049200Y+1721042D01*
X+1049200Y+1678958D01*
X+1078158Y+1650000D01*
X+1049200Y+1621042D01*
X+1049200Y+1578958D01*
X+1078158Y+1550000D01*
X+1049200Y+1521042D01*
X+1049200Y+1478958D01*
X+1078158Y+1450000D01*
X+1049200Y+1421042D01*
X+1049200Y+1378958D01*
X+1078158Y+1350000D01*
X+1049200Y+1321042D01*
X+1049200Y+1278958D01*
X+1078158Y+1250000D01*
X+1049200Y+1221042D01*
X+1049200Y+1178958D01*
X+1078158Y+1150000D01*
X+1049200Y+1121042D01*
X+1049200Y+1078958D01*
X+1078158Y+1050000D01*
X+1049200Y+1021042D01*
X+1049200Y+978958D01*
X+1078158Y+950000D01*
X+1049200Y+921042D01*
X+1049200Y+878958D01*
X+1078158Y+850000D01*
X+1049200Y+821042D01*
X+1049200Y+778958D01*
X+1078158Y+750000D01*
X+1049200Y+721042D01*
X+1049200Y+678958D01*
X+1078158Y+650000D01*
X+1049200Y+621042D01*
X+1049200Y+578958D01*
X+1078158Y+550000D01*
X+1049200Y+521042D01*
X+1049200Y+478958D01*
X+1078158Y+450000D01*
X+1049200Y+421042D01*
X+1049200Y+378958D01*
X+1078158Y+350000D01*
X+1049200Y+321042D01*
X+1049200Y+278958D01*
X+1078158Y+250000D01*
X+1049200Y+221042D01*
X+1049200Y+178958D01*
X+1078158Y+150000D01*
X+1049200Y+121042D01*
X+1049200Y+83930D01*
X+1000339Y+83930D01*
X+1019923Y+4934070D01*
X+1062228Y+4934070D01*
X+1049200Y+4921042D01*
D10*
X+5406000Y+3510779D02*
X+5406000Y+3410000D01*
X+5406000Y+3309221D02*
X+5406000Y+3410000D01*
X+5383360Y+3808721D02*
X+5383360Y+3890000D01*
X+5451939Y+3890000D02*
X+5383360Y+3890000D01*
X+5314781Y+3890000D02*
X+5383360Y+3890000D01*
X+5700621Y+820000D02*
X+5820000Y+820000D01*
X+5939379Y+820000D02*
X+5820000Y+820000D01*
X+5820000Y+700621D02*
X+5820000Y+820000D01*
X+5820000Y+939379D02*
X+5820000Y+820000D01*
X+7200000Y+2255219D02*
X+7200000Y+2186640D01*
X+7118721Y+2186640D02*
X+7200000Y+2186640D01*
X+7200000Y+2118061D02*
X+7200000Y+2186640D01*
X+7400000Y+2255219D02*
X+7400000Y+2186640D01*
X+7400000Y+2118061D02*
X+7400000Y+2186640D01*
X+2467321Y+4813120D02*
X+2574000Y+4813120D01*
X+2574000Y+4919799D02*
X+2574000Y+4813120D01*
X+2467321Y+4559120D02*
X+2574000Y+4559120D01*
X+2574000Y+4452441D02*
X+2574000Y+4559120D01*
X+6384000Y+566679D02*
X+6384000Y+460000D01*
X+4352000Y+566679D02*
X+4352000Y+460000D01*
X+2467321Y+460000D02*
X+2574000Y+460000D01*
X+2574000Y+566679D02*
X+2574000Y+460000D01*
D14*
X+5660000Y+3410000D03*
D15*
X+5406000Y+3410000D03*
X+5152000Y+3410000D03*
X+4898000Y+3410000D03*
X+4644000Y+3410000D03*
X+4390000Y+3410000D03*
X+4136000Y+3410000D03*
X+3882000Y+3410000D03*
X+3882000Y+1781000D03*
X+4136000Y+1781000D03*
X+4390000Y+1781000D03*
X+4644000Y+1781000D03*
X+4898000Y+1781000D03*
X+5152000Y+1781000D03*
X+5406000Y+1781000D03*
X+5660000Y+1781000D03*
D16*
X+5170000Y+3890000D03*
X+5383360Y+3890000D03*
D17*
X+2720000Y+3520000D03*
X+2720000Y+3020000D03*
X+2120000Y+3320000D03*
X+1620000Y+3320000D03*
X+4020000Y+1120000D03*
D18*
X+4720000Y+1120000D03*
X+4920000Y+1120000D03*
D17*
X+5820000Y+1220000D03*
X+5820000Y+820000D03*
X+6320000Y+1220000D03*
X+6320000Y+820000D03*
X+6820000Y+1220000D03*
D19*
X+7200000Y+2186640D03*
X+7200000Y+2400000D03*
X+7400000Y+2186640D03*
X+7400000Y+2400000D03*
D16*
X+7186640Y+2500000D03*
X+7400000Y+2500000D03*
D70*
X+7430000Y+2500000D03*
D71*
X+7500000Y+2500000D03*
D20*
X+7400000Y+4813120D03*
D21*
X+7146000Y+4813120D03*
X+6892000Y+4813120D03*
X+6638000Y+4813120D03*
X+6384000Y+4813120D03*
X+6130000Y+4813120D03*
X+5876000Y+4813120D03*
X+5622000Y+4813120D03*
X+5368000Y+4813120D03*
X+5114000Y+4813120D03*
X+4860000Y+4813120D03*
X+4606000Y+4813120D03*
X+4352000Y+4813120D03*
X+4098000Y+4813120D03*
X+3844000Y+4813120D03*
X+3590000Y+4813120D03*
X+3336000Y+4813120D03*
X+3082000Y+4813120D03*
X+2828000Y+4813120D03*
X+2574000Y+4813120D03*
X+2574000Y+4559120D03*
X+2828000Y+4559120D03*
X+3082000Y+4559120D03*
X+3336000Y+4559120D03*
X+3590000Y+4559120D03*
X+3844000Y+4559120D03*
X+4098000Y+4559120D03*
X+4352000Y+4559120D03*
X+4606000Y+4559120D03*
X+4860000Y+4559120D03*
X+5114000Y+4559120D03*
X+5368000Y+4559120D03*
X+5622000Y+4559120D03*
X+5876000Y+4559120D03*
X+6130000Y+4559120D03*
X+6384000Y+4559120D03*
X+6638000Y+4559120D03*
X+6892000Y+4559120D03*
X+7146000Y+4559120D03*
X+7400000Y+4559120D03*
D20*
X+7400000Y+460000D03*
D21*
X+7146000Y+460000D03*
X+6892000Y+460000D03*
X+6638000Y+460000D03*
X+6384000Y+460000D03*
X+6130000Y+460000D03*
X+5876000Y+460000D03*
X+5622000Y+460000D03*
X+5368000Y+460000D03*
X+5114000Y+460000D03*
X+4860000Y+460000D03*
X+4606000Y+460000D03*
X+4352000Y+460000D03*
X+4098000Y+460000D03*
X+3844000Y+460000D03*
X+3590000Y+460000D03*
X+3336000Y+460000D03*
X+3082000Y+460000D03*
X+2828000Y+460000D03*
X+2574000Y+460000D03*
X+2574000Y+206000D03*
X+2828000Y+206000D03*
X+3082000Y+206000D03*
X+3336000Y+206000D03*
X+3590000Y+206000D03*
X+3844000Y+206000D03*
X+4098000Y+206000D03*
X+4352000Y+206000D03*
X+4606000Y+206000D03*
X+4860000Y+206000D03*
X+5114000Y+206000D03*
X+5368000Y+206000D03*
X+5622000Y+206000D03*
X+5876000Y+206000D03*
X+6130000Y+206000D03*
X+6384000Y+206000D03*
X+6638000Y+206000D03*
X+6892000Y+206000D03*
X+7146000Y+206000D03*
X+7400000Y+206000D03*
D22*
X+9000Y+9000D02*
X+10009000Y+9000D01*
X+10009000Y+5009000D01*
X+9000Y+5009000D01*
X+9000Y+9000D01*
X+9859000Y+4709000D02*
X+9858498Y+4721258D01*
X+9854422Y+4745775D01*
X+9845906Y+4770292D01*
X+9832032Y+4794809D01*
X+9810806Y+4819161D01*
X+9786289Y+4837555D01*
X+9761772Y+4849411D01*
X+9737255Y+4856315D01*
X+9712738Y+4858953D01*
X+9709000Y+4859000D01*
X+9559000Y+4709000D02*
X+9559502Y+4721258D01*
X+9563578Y+4745775D01*
X+9572094Y+4770292D01*
X+9585968Y+4794809D01*
X+9607194Y+4819161D01*
X+9631711Y+4837555D01*
X+9656228Y+4849411D01*
X+9680745Y+4856315D01*
X+9705262Y+4858953D01*
X+9709000Y+4859000D01*
X+9559000Y+4709000D02*
X+9559502Y+4696742D01*
X+9563578Y+4672225D01*
X+9572094Y+4647708D01*
X+9585968Y+4623191D01*
X+9607194Y+4598839D01*
X+9631711Y+4580445D01*
X+9656228Y+4568589D01*
X+9680745Y+4561685D01*
X+9705262Y+4559047D01*
X+9709000Y+4559000D01*
X+9859000Y+4709000D02*
X+9858498Y+4696742D01*
X+9854422Y+4672225D01*
X+9845906Y+4647708D01*
X+9832032Y+4623191D01*
X+9810806Y+4598839D01*
X+9786289Y+4580445D01*
X+9761772Y+4568589D01*
X+9737255Y+4561685D01*
X+9712738Y+4559047D01*
X+9709000Y+4559000D01*
X+9859000Y+309000D02*
X+9858498Y+321258D01*
X+9854422Y+345775D01*
X+9845906Y+370292D01*
X+9832032Y+394809D01*
X+9810806Y+419161D01*
X+9786289Y+437555D01*
X+9761772Y+449411D01*
X+9737255Y+456315D01*
X+9712738Y+458953D01*
X+9709000Y+459000D01*
X+9559000Y+309000D02*
X+9559502Y+321258D01*
X+9563578Y+345775D01*
X+9572094Y+370292D01*
X+9585968Y+394809D01*
X+9607194Y+419161D01*
X+9631711Y+437555D01*
X+9656228Y+449411D01*
X+9680745Y+456315D01*
X+9705262Y+458953D01*
X+9709000Y+459000D01*
X+9559000Y+309000D02*
X+9559502Y+296742D01*
X+9563578Y+272225D01*
X+9572094Y+247708D01*
X+9585968Y+223191D01*
X+9607194Y+198839D01*
X+9631711Y+180445D01*
X+9656228Y+168589D01*
X+9680745Y+161685D01*
X+9705262Y+159047D01*
X+9709000Y+159000D01*
X+9859000Y+309000D02*
X+9858498Y+296742D01*
X+9854422Y+272225D01*
X+9845906Y+247708D01*
X+9832032Y+223191D01*
X+9810806Y+198839D01*
X+9786289Y+180445D01*
X+9761772Y+168589D01*
X+9737255Y+161685D01*
X+9712738Y+159047D01*
X+9709000Y+159000D01*
X+459000Y+309000D02*
X+458498Y+321258D01*
X+454422Y+345775D01*
X+445906Y+370292D01*
X+432032Y+394809D01*
X+410806Y+419161D01*
X+386289Y+437555D01*
X+361772Y+449411D01*
X+337255Y+456315D01*
X+312738Y+458953D01*
X+309000Y+459000D01*
X+159000Y+309000D02*
X+159502Y+321258D01*
X+163578Y+345775D01*
X+172094Y+370292D01*
X+185968Y+394809D01*
X+207194Y+419161D01*
X+231711Y+437555D01*
X+256228Y+449411D01*
X+280745Y+456315D01*
X+305262Y+458953D01*
X+309000Y+459000D01*
X+159000Y+309000D02*
X+159502Y+296742D01*
X+163578Y+272225D01*
X+172094Y+247708D01*
X+185968Y+223191D01*
X+207194Y+198839D01*
X+231711Y+180445D01*
X+256228Y+168589D01*
X+280745Y+161685D01*
X+305262Y+159047D01*
X+309000Y+159000D01*
X+459000Y+309000D02*
X+458498Y+296742D01*
X+454422Y+272225D01*
X+445906Y+247708D01*
X+432032Y+223191D01*
X+410806Y+198839D01*
X+386289Y+180445D01*
X+361772Y+168589D01*
X+337255Y+161685D01*
X+312738Y+159047D01*
X+309000Y+159000D01*
X+459000Y+4709000D02*
X+458498Y+4721258D01*
X+454422Y+4745775D01*
X+445906Y+4770292D01*
X+432032Y+4794809D01*
X+410806Y+4819161D01*
X+386289Y+4837555D01*
X+361772Y+4849411D01*
X+337255Y+4856315D01*
X+312738Y+4858953D01*
X+309000Y+4859000D01*
X+159000Y+4709000D02*
X+159502Y+4721258D01*
X+163578Y+4745775D01*
X+172094Y+4770292D01*
X+185968Y+4794809D01*
X+207194Y+4819161D01*
X+231711Y+4837555D01*
X+256228Y+4849411D01*
X+280745Y+4856315D01*
X+305262Y+4858953D01*
X+309000Y+4859000D01*
X+159000Y+4709000D02*
X+159502Y+4696742D01*
X+163578Y+4672225D01*
X+172094Y+4647708D01*
X+185968Y+4623191D01*
X+207194Y+4598839D01*
X+231711Y+4580445D01*
X+256228Y+4568589D01*
X+280745Y+4561685D01*
X+305262Y+4559047D01*
X+309000Y+4559000D01*
X+459000Y+4709000D02*
X+458498Y+4696742D01*
X+454422Y+4672225D01*
X+445906Y+4647708D01*
X+432032Y+4623191D01*
X+410806Y+4598839D01*
X+386289Y+4580445D01*
X+361772Y+4568589D01*
X+337255Y+4561685D01*
X+312738Y+4559047D01*
X+309000Y+4559000D01*
M02*
