G04 PROTEUS GERBER X2 FILE*
%TF.GenerationSoftware,Labcenter,Proteus,8.16-SP3-Build36097*%
%TF.CreationDate,2025-11-07T09:33:48+00:00*%
%TF.FileFunction,Soldermask,Top*%
%TF.FilePolarity,Negative*%
%TF.Part,Single*%
%TF.SameCoordinates,{ab98911b-3f69-4870-a6fc-6ca9eaabf26d}*%
%FSLAX45Y45*%
%MOMM*%
G01*
%TA.AperFunction,Material*%
%ADD28C,1.016000*%
%AMPPAD021*
4,1,4,
0.586890,0.586890,
0.586890,-0.586890,
-0.586890,-0.586890,
-0.586890,0.586890,
0.586890,0.586890,
0*%
%TA.AperFunction,Material*%
%ADD29PPAD021*%
%ADD72C,1.660000*%
%AMPPAD023*
4,1,36,
-0.508000,0.762000,
0.508000,0.762000,
0.533590,0.759420,
0.557430,0.752020,
0.579000,0.740310,
0.597800,0.724800,
0.613310,0.706000,
0.625020,0.684430,
0.632420,0.660590,
0.635000,0.635000,
0.635000,-0.635000,
0.632420,-0.660590,
0.625020,-0.684430,
0.613310,-0.706000,
0.597800,-0.724800,
0.579000,-0.740310,
0.557430,-0.752020,
0.533590,-0.759420,
0.508000,-0.762000,
-0.508000,-0.762000,
-0.533590,-0.759420,
-0.557430,-0.752020,
-0.579000,-0.740310,
-0.597800,-0.724800,
-0.613310,-0.706000,
-0.625020,-0.684430,
-0.632420,-0.660590,
-0.635000,-0.635000,
-0.635000,0.635000,
-0.632420,0.660590,
-0.625020,0.684430,
-0.613310,0.706000,
-0.597800,0.724800,
-0.579000,0.740310,
-0.557430,0.752020,
-0.533590,0.759420,
-0.508000,0.762000,
0*%
%TA.AperFunction,Material*%
%ADD73PPAD023*%
%TA.AperFunction,Material*%
%ADD30C,2.286000*%
%AMPPAD025*
4,1,4,
-0.469900,0.723900,
0.469900,0.723900,
0.469900,-0.723900,
-0.469900,-0.723900,
-0.469900,0.723900,
0*%
%TA.AperFunction,Material*%
%ADD31PPAD025*%
%AMPPAD026*
4,1,36,
-0.762000,-0.508000,
-0.762000,0.508000,
-0.759420,0.533590,
-0.752020,0.557430,
-0.740310,0.579000,
-0.724800,0.597800,
-0.706000,0.613310,
-0.684430,0.625020,
-0.660590,0.632420,
-0.635000,0.635000,
0.635000,0.635000,
0.660590,0.632420,
0.684430,0.625020,
0.706000,0.613310,
0.724800,0.597800,
0.740310,0.579000,
0.752020,0.557430,
0.759420,0.533590,
0.762000,0.508000,
0.762000,-0.508000,
0.759420,-0.533590,
0.752020,-0.557430,
0.740310,-0.579000,
0.724800,-0.597800,
0.706000,-0.613310,
0.684430,-0.625020,
0.660590,-0.632420,
0.635000,-0.635000,
-0.635000,-0.635000,
-0.660590,-0.632420,
-0.684430,-0.625020,
-0.706000,-0.613310,
-0.724800,-0.597800,
-0.740310,-0.579000,
-0.752020,-0.557430,
-0.759420,-0.533590,
-0.762000,-0.508000,
0*%
%ADD32PPAD026*%
%AMPPAD027*
4,1,36,
-0.350000,0.627000,
0.350000,0.627000,
0.375590,0.624420,
0.399430,0.617020,
0.421000,0.605310,
0.439800,0.589800,
0.455310,0.571000,
0.467020,0.549430,
0.474420,0.525590,
0.477000,0.500000,
0.477000,-0.500000,
0.474420,-0.525590,
0.467020,-0.549430,
0.455310,-0.571000,
0.439800,-0.589800,
0.421000,-0.605310,
0.399430,-0.617020,
0.375590,-0.624420,
0.350000,-0.627000,
-0.350000,-0.627000,
-0.375590,-0.624420,
-0.399430,-0.617020,
-0.421000,-0.605310,
-0.439800,-0.589800,
-0.455310,-0.571000,
-0.467020,-0.549430,
-0.474420,-0.525590,
-0.477000,-0.500000,
-0.477000,0.500000,
-0.474420,0.525590,
-0.467020,0.549430,
-0.455310,0.571000,
-0.439800,0.589800,
-0.421000,0.605310,
-0.399430,0.617020,
-0.375590,0.624420,
-0.350000,0.627000,
0*%
%ADD33PPAD027*%
%AMPPAD028*
4,1,36,
0.889000,-1.016000,
-0.889000,-1.016000,
-0.914590,-1.013420,
-0.938430,-1.006020,
-0.960000,-0.994310,
-0.978800,-0.978800,
-0.994310,-0.960000,
-1.006020,-0.938430,
-1.013420,-0.914590,
-1.016000,-0.889000,
-1.016000,0.889000,
-1.013420,0.914590,
-1.006020,0.938430,
-0.994310,0.960000,
-0.978800,0.978800,
-0.960000,0.994310,
-0.938430,1.006020,
-0.914590,1.013420,
-0.889000,1.016000,
0.889000,1.016000,
0.914590,1.013420,
0.938430,1.006020,
0.960000,0.994310,
0.978800,0.978800,
0.994310,0.960000,
1.006020,0.938430,
1.013420,0.914590,
1.016000,0.889000,
1.016000,-0.889000,
1.013420,-0.914590,
1.006020,-0.938430,
0.994310,-0.960000,
0.978800,-0.978800,
0.960000,-0.994310,
0.938430,-1.006020,
0.914590,-1.013420,
0.889000,-1.016000,
0*%
%TA.AperFunction,Material*%
%ADD34PPAD028*%
%ADD35C,2.032000*%
%TA.AperFunction,Profile*%
%ADD22C,0.101600*%
%TD.AperFunction*%
D28*
X+4100000Y+3894726D03*
X+4100000Y+3759398D03*
X+7410000Y+710000D03*
X+4351823Y+4211740D03*
X+4770000Y+2130000D03*
X+3853180Y+4264111D03*
X+5040000Y+2334894D03*
X+5420000Y+2270000D03*
X+5286809Y+1980949D03*
X+4450555Y+4285447D03*
X+3259081Y+4157520D03*
X+1100000Y+4900000D03*
X+1100000Y+4800000D03*
X+1100000Y+4700000D03*
X+1100000Y+4600000D03*
X+1100000Y+4500000D03*
X+1100000Y+4400000D03*
X+1100000Y+4300000D03*
X+1100000Y+4200000D03*
X+1100000Y+4100000D03*
X+1100000Y+4000000D03*
X+1100000Y+3900000D03*
X+1100000Y+3800000D03*
X+1100000Y+3700000D03*
X+1100000Y+3600000D03*
X+1100000Y+3500000D03*
X+1100000Y+3400000D03*
X+1100000Y+3300000D03*
X+1100000Y+3200000D03*
X+1100000Y+3100000D03*
X+1100000Y+3000000D03*
X+1100000Y+2900000D03*
X+1100000Y+2800000D03*
X+1100000Y+2700000D03*
X+1100000Y+2600000D03*
X+1100000Y+2500000D03*
X+1100000Y+2400000D03*
X+1100000Y+2300000D03*
X+1100000Y+2200000D03*
X+1100000Y+2100000D03*
X+1100000Y+2000000D03*
X+1100000Y+1900000D03*
X+1100000Y+1800000D03*
X+1100000Y+1700000D03*
X+1100000Y+1600000D03*
X+1100000Y+1500000D03*
X+1100000Y+1400000D03*
X+1100000Y+1300000D03*
X+1100000Y+1200000D03*
X+1100000Y+1100000D03*
X+1100000Y+1000000D03*
X+1100000Y+900000D03*
X+1100000Y+800000D03*
X+1100000Y+700000D03*
X+1100000Y+600000D03*
X+1100000Y+500000D03*
X+1100000Y+400000D03*
X+1100000Y+300000D03*
X+1100000Y+200000D03*
X+1100000Y+100000D03*
X+7250000Y+3900000D03*
X+7250000Y+4000000D03*
X+7250000Y+4100000D03*
X+7250000Y+4200000D03*
X+7250000Y+3800000D03*
X+7250000Y+3700000D03*
X+7250000Y+3600000D03*
X+7250000Y+3500000D03*
X+7250000Y+3400000D03*
X+7250000Y+3300000D03*
X+7250000Y+3200000D03*
X+7250000Y+3100000D03*
X+7250000Y+3000000D03*
X+7250000Y+2900000D03*
X+7250000Y+2800000D03*
X+7200000Y+780000D03*
X+7200000Y+900000D03*
X+7200000Y+1000000D03*
X+7200000Y+1100000D03*
X+7200000Y+1200000D03*
X+7200000Y+1300000D03*
X+7200000Y+1400000D03*
X+7200000Y+1500000D03*
X+7200000Y+1600000D03*
X+7200000Y+1700000D03*
X+7200000Y+1800000D03*
X+7200000Y+1900000D03*
X+7200000Y+2000000D03*
D29*
X+5660000Y+3410000D03*
D72*
X+5406000Y+3410000D03*
X+5152000Y+3410000D03*
X+4898000Y+3410000D03*
X+4644000Y+3410000D03*
X+4390000Y+3410000D03*
X+4136000Y+3410000D03*
X+3882000Y+3410000D03*
X+3882000Y+1781000D03*
X+4136000Y+1781000D03*
X+4390000Y+1781000D03*
X+4644000Y+1781000D03*
X+4898000Y+1781000D03*
X+5152000Y+1781000D03*
X+5406000Y+1781000D03*
X+5660000Y+1781000D03*
D73*
X+5170000Y+3890000D03*
X+5383360Y+3890000D03*
D30*
X+2720000Y+3520000D03*
X+2720000Y+3020000D03*
X+2120000Y+3320000D03*
X+1620000Y+3320000D03*
X+4020000Y+1120000D03*
D31*
X+4720000Y+1120000D03*
X+4920000Y+1120000D03*
D30*
X+5820000Y+1220000D03*
X+5820000Y+820000D03*
X+6320000Y+1220000D03*
X+6320000Y+820000D03*
X+6820000Y+1220000D03*
D32*
X+7200000Y+2186640D03*
X+7200000Y+2400000D03*
X+7400000Y+2186640D03*
X+7400000Y+2400000D03*
D73*
X+7186640Y+2500000D03*
X+7400000Y+2500000D03*
D33*
X+7430000Y+2500000D03*
D34*
X+7400000Y+4813120D03*
D35*
X+7146000Y+4813120D03*
X+6892000Y+4813120D03*
X+6638000Y+4813120D03*
X+6384000Y+4813120D03*
X+6130000Y+4813120D03*
X+5876000Y+4813120D03*
X+5622000Y+4813120D03*
X+5368000Y+4813120D03*
X+5114000Y+4813120D03*
X+4860000Y+4813120D03*
X+4606000Y+4813120D03*
X+4352000Y+4813120D03*
X+4098000Y+4813120D03*
X+3844000Y+4813120D03*
X+3590000Y+4813120D03*
X+3336000Y+4813120D03*
X+3082000Y+4813120D03*
X+2828000Y+4813120D03*
X+2574000Y+4813120D03*
X+2574000Y+4559120D03*
X+2828000Y+4559120D03*
X+3082000Y+4559120D03*
X+3336000Y+4559120D03*
X+3590000Y+4559120D03*
X+3844000Y+4559120D03*
X+4098000Y+4559120D03*
X+4352000Y+4559120D03*
X+4606000Y+4559120D03*
X+4860000Y+4559120D03*
X+5114000Y+4559120D03*
X+5368000Y+4559120D03*
X+5622000Y+4559120D03*
X+5876000Y+4559120D03*
X+6130000Y+4559120D03*
X+6384000Y+4559120D03*
X+6638000Y+4559120D03*
X+6892000Y+4559120D03*
X+7146000Y+4559120D03*
X+7400000Y+4559120D03*
D34*
X+7400000Y+460000D03*
D35*
X+7146000Y+460000D03*
X+6892000Y+460000D03*
X+6638000Y+460000D03*
X+6384000Y+460000D03*
X+6130000Y+460000D03*
X+5876000Y+460000D03*
X+5622000Y+460000D03*
X+5368000Y+460000D03*
X+5114000Y+460000D03*
X+4860000Y+460000D03*
X+4606000Y+460000D03*
X+4352000Y+460000D03*
X+4098000Y+460000D03*
X+3844000Y+460000D03*
X+3590000Y+460000D03*
X+3336000Y+460000D03*
X+3082000Y+460000D03*
X+2828000Y+460000D03*
X+2574000Y+460000D03*
X+2574000Y+206000D03*
X+2828000Y+206000D03*
X+3082000Y+206000D03*
X+3336000Y+206000D03*
X+3590000Y+206000D03*
X+3844000Y+206000D03*
X+4098000Y+206000D03*
X+4352000Y+206000D03*
X+4606000Y+206000D03*
X+4860000Y+206000D03*
X+5114000Y+206000D03*
X+5368000Y+206000D03*
X+5622000Y+206000D03*
X+5876000Y+206000D03*
X+6130000Y+206000D03*
X+6384000Y+206000D03*
X+6638000Y+206000D03*
X+6892000Y+206000D03*
X+7146000Y+206000D03*
X+7400000Y+206000D03*
D22*
X+9000Y+9000D02*
X+10009000Y+9000D01*
X+10009000Y+5009000D01*
X+9000Y+5009000D01*
X+9000Y+9000D01*
X+9859000Y+4709000D02*
X+9858498Y+4721258D01*
X+9854422Y+4745775D01*
X+9845906Y+4770292D01*
X+9832032Y+4794809D01*
X+9810806Y+4819161D01*
X+9786289Y+4837555D01*
X+9761772Y+4849411D01*
X+9737255Y+4856315D01*
X+9712738Y+4858953D01*
X+9709000Y+4859000D01*
X+9559000Y+4709000D02*
X+9559502Y+4721258D01*
X+9563578Y+4745775D01*
X+9572094Y+4770292D01*
X+9585968Y+4794809D01*
X+9607194Y+4819161D01*
X+9631711Y+4837555D01*
X+9656228Y+4849411D01*
X+9680745Y+4856315D01*
X+9705262Y+4858953D01*
X+9709000Y+4859000D01*
X+9559000Y+4709000D02*
X+9559502Y+4696742D01*
X+9563578Y+4672225D01*
X+9572094Y+4647708D01*
X+9585968Y+4623191D01*
X+9607194Y+4598839D01*
X+9631711Y+4580445D01*
X+9656228Y+4568589D01*
X+9680745Y+4561685D01*
X+9705262Y+4559047D01*
X+9709000Y+4559000D01*
X+9859000Y+4709000D02*
X+9858498Y+4696742D01*
X+9854422Y+4672225D01*
X+9845906Y+4647708D01*
X+9832032Y+4623191D01*
X+9810806Y+4598839D01*
X+9786289Y+4580445D01*
X+9761772Y+4568589D01*
X+9737255Y+4561685D01*
X+9712738Y+4559047D01*
X+9709000Y+4559000D01*
X+9859000Y+309000D02*
X+9858498Y+321258D01*
X+9854422Y+345775D01*
X+9845906Y+370292D01*
X+9832032Y+394809D01*
X+9810806Y+419161D01*
X+9786289Y+437555D01*
X+9761772Y+449411D01*
X+9737255Y+456315D01*
X+9712738Y+458953D01*
X+9709000Y+459000D01*
X+9559000Y+309000D02*
X+9559502Y+321258D01*
X+9563578Y+345775D01*
X+9572094Y+370292D01*
X+9585968Y+394809D01*
X+9607194Y+419161D01*
X+9631711Y+437555D01*
X+9656228Y+449411D01*
X+9680745Y+456315D01*
X+9705262Y+458953D01*
X+9709000Y+459000D01*
X+9559000Y+309000D02*
X+9559502Y+296742D01*
X+9563578Y+272225D01*
X+9572094Y+247708D01*
X+9585968Y+223191D01*
X+9607194Y+198839D01*
X+9631711Y+180445D01*
X+9656228Y+168589D01*
X+9680745Y+161685D01*
X+9705262Y+159047D01*
X+9709000Y+159000D01*
X+9859000Y+309000D02*
X+9858498Y+296742D01*
X+9854422Y+272225D01*
X+9845906Y+247708D01*
X+9832032Y+223191D01*
X+9810806Y+198839D01*
X+9786289Y+180445D01*
X+9761772Y+168589D01*
X+9737255Y+161685D01*
X+9712738Y+159047D01*
X+9709000Y+159000D01*
X+459000Y+309000D02*
X+458498Y+321258D01*
X+454422Y+345775D01*
X+445906Y+370292D01*
X+432032Y+394809D01*
X+410806Y+419161D01*
X+386289Y+437555D01*
X+361772Y+449411D01*
X+337255Y+456315D01*
X+312738Y+458953D01*
X+309000Y+459000D01*
X+159000Y+309000D02*
X+159502Y+321258D01*
X+163578Y+345775D01*
X+172094Y+370292D01*
X+185968Y+394809D01*
X+207194Y+419161D01*
X+231711Y+437555D01*
X+256228Y+449411D01*
X+280745Y+456315D01*
X+305262Y+458953D01*
X+309000Y+459000D01*
X+159000Y+309000D02*
X+159502Y+296742D01*
X+163578Y+272225D01*
X+172094Y+247708D01*
X+185968Y+223191D01*
X+207194Y+198839D01*
X+231711Y+180445D01*
X+256228Y+168589D01*
X+280745Y+161685D01*
X+305262Y+159047D01*
X+309000Y+159000D01*
X+459000Y+309000D02*
X+458498Y+296742D01*
X+454422Y+272225D01*
X+445906Y+247708D01*
X+432032Y+223191D01*
X+410806Y+198839D01*
X+386289Y+180445D01*
X+361772Y+168589D01*
X+337255Y+161685D01*
X+312738Y+159047D01*
X+309000Y+159000D01*
X+459000Y+4709000D02*
X+458498Y+4721258D01*
X+454422Y+4745775D01*
X+445906Y+4770292D01*
X+432032Y+4794809D01*
X+410806Y+4819161D01*
X+386289Y+4837555D01*
X+361772Y+4849411D01*
X+337255Y+4856315D01*
X+312738Y+4858953D01*
X+309000Y+4859000D01*
X+159000Y+4709000D02*
X+159502Y+4721258D01*
X+163578Y+4745775D01*
X+172094Y+4770292D01*
X+185968Y+4794809D01*
X+207194Y+4819161D01*
X+231711Y+4837555D01*
X+256228Y+4849411D01*
X+280745Y+4856315D01*
X+305262Y+4858953D01*
X+309000Y+4859000D01*
X+159000Y+4709000D02*
X+159502Y+4696742D01*
X+163578Y+4672225D01*
X+172094Y+4647708D01*
X+185968Y+4623191D01*
X+207194Y+4598839D01*
X+231711Y+4580445D01*
X+256228Y+4568589D01*
X+280745Y+4561685D01*
X+305262Y+4559047D01*
X+309000Y+4559000D01*
X+459000Y+4709000D02*
X+458498Y+4696742D01*
X+454422Y+4672225D01*
X+445906Y+4647708D01*
X+432032Y+4623191D01*
X+410806Y+4598839D01*
X+386289Y+4580445D01*
X+361772Y+4568589D01*
X+337255Y+4561685D01*
X+312738Y+4559047D01*
X+309000Y+4559000D01*
M02*
