G04 PROTEUS GERBER X2 FILE*
%TF.GenerationSoftware,Labcenter,Proteus,8.16-SP3-Build36097*%
%TF.CreationDate,2025-11-07T09:33:48+00:00*%
%TF.FileFunction,Copper,L2,Bot*%
%TF.FilePolarity,Positive*%
%TF.Part,Single*%
%TF.SameCoordinates,{ab98911b-3f69-4870-a6fc-6ca9eaabf26d}*%
%FSLAX45Y45*%
%MOMM*%
G01*
%TA.AperFunction,Conductor*%
%ADD10C,0.254000*%
%TA.AperFunction,ViaPad*%
%ADD12C,0.762000*%
%TA.AperFunction,WasherPad*%
%ADD14R,1.173790X1.173790*%
%TA.AperFunction,ComponentPad*%
%ADD15C,1.660000*%
%TA.AperFunction,ComponentPad*%
%ADD17C,2.032000*%
%TA.AperFunction,ComponentPad*%
%ADD20R,1.778000X1.778000*%
%ADD21C,1.778000*%
%TA.AperFunction,Profile*%
%ADD22C,0.101600*%
%TD.AperFunction*%
%TA.AperFunction,Conductor*%
G36*
X+7400000Y+4932499D02*
X+7280621Y+4932499D01*
X+7280621Y+4693741D01*
X+7356821Y+4693741D01*
X+7356821Y+4678499D01*
X+7350552Y+4678499D01*
X+7280621Y+4608568D01*
X+7280621Y+4509672D01*
X+7350552Y+4439741D01*
X+7400000Y+4439741D01*
X+7400000Y+778579D01*
X+7381594Y+778579D01*
X+7356194Y+753179D01*
X+7218080Y+753179D01*
X+7231750Y+766849D01*
X+7231750Y+793151D01*
X+7213151Y+811750D01*
X+7186849Y+811750D01*
X+7168250Y+793151D01*
X+7168250Y+766849D01*
X+7181920Y+753179D01*
X+6889101Y+753179D01*
X+6810521Y+674599D01*
X+6256465Y+674599D01*
X+5863179Y+1067885D01*
X+5863179Y+1087921D01*
X+5874709Y+1087921D01*
X+5952079Y+1165291D01*
X+5952079Y+1274709D01*
X+5874709Y+1352079D01*
X+5765291Y+1352079D01*
X+5687921Y+1274709D01*
X+5687921Y+1165291D01*
X+5765291Y+1087921D01*
X+5776821Y+1087921D01*
X+5776821Y+1032115D01*
X+5856857Y+952079D01*
X+5765291Y+952079D01*
X+5687921Y+874709D01*
X+5687921Y+765291D01*
X+5765291Y+687921D01*
X+5874709Y+687921D01*
X+5952079Y+765291D01*
X+5952079Y+856857D01*
X+6220695Y+588241D01*
X+6846291Y+588241D01*
X+6924871Y+666821D01*
X+7356194Y+666821D01*
X+7381594Y+641421D01*
X+7400000Y+641421D01*
X+7400000Y+579379D01*
X+7280621Y+579379D01*
X+7280621Y+340621D01*
X+7400000Y+340621D01*
X+7400000Y+325379D01*
X+7350552Y+325379D01*
X+7280621Y+255448D01*
X+7280621Y+156552D01*
X+7350552Y+86621D01*
X+7400000Y+86621D01*
X+7400000Y+64880D01*
X+1020000Y+64880D01*
X+1020000Y+4953120D01*
X+7400000Y+4953120D01*
X+7400000Y+4932499D01*
G37*
%TD.AperFunction*%
%LPC*%
G36*
X+5749168Y+3320832D02*
X+5570832Y+3320832D01*
X+5570832Y+3499168D01*
X+5749168Y+3499168D01*
X+5749168Y+3320832D01*
G37*
G36*
X+5358995Y+3523479D02*
X+5453005Y+3523479D01*
X+5519479Y+3457005D01*
X+5519479Y+3362995D01*
X+5453005Y+3296521D01*
X+5358995Y+3296521D01*
X+5292521Y+3362995D01*
X+5292521Y+3457005D01*
X+5358995Y+3523479D01*
G37*
G36*
X+5104995Y+3523479D02*
X+5199005Y+3523479D01*
X+5265479Y+3457005D01*
X+5265479Y+3362995D01*
X+5199005Y+3296521D01*
X+5104995Y+3296521D01*
X+5038521Y+3362995D01*
X+5038521Y+3457005D01*
X+5104995Y+3523479D01*
G37*
G36*
X+4725379Y+4862568D02*
X+4725379Y+4763672D01*
X+4655448Y+4693741D01*
X+4568247Y+4693741D01*
X+4583489Y+4678499D01*
X+4655448Y+4678499D01*
X+4725379Y+4608568D01*
X+4725379Y+4509672D01*
X+4655448Y+4439741D01*
X+4556552Y+4439741D01*
X+4486621Y+4509672D01*
X+4486621Y+4608568D01*
X+4508956Y+4630903D01*
X+4489381Y+4650478D01*
X+4429469Y+4650478D01*
X+4471379Y+4608568D01*
X+4471379Y+4509672D01*
X+4440189Y+4478482D01*
X+4452583Y+4478482D01*
X+4801651Y+4129414D01*
X+4801651Y+3474135D01*
X+4850995Y+3523479D01*
X+4945005Y+3523479D01*
X+5011479Y+3457005D01*
X+5011479Y+3362995D01*
X+4945005Y+3296521D01*
X+4902687Y+3296521D01*
X+5703179Y+2496029D01*
X+5703179Y+1894479D01*
X+5707005Y+1894479D01*
X+5773479Y+1828005D01*
X+5773479Y+1733995D01*
X+5707005Y+1667521D01*
X+5612995Y+1667521D01*
X+5546521Y+1733995D01*
X+5546521Y+1828005D01*
X+5612995Y+1894479D01*
X+5616821Y+1894479D01*
X+5616821Y+2460259D01*
X+4735782Y+3341298D01*
X+4691005Y+3296521D01*
X+4596995Y+3296521D01*
X+4570175Y+3323341D01*
X+4570175Y+2390889D01*
X+4762485Y+2198579D01*
X+4798406Y+2198579D01*
X+4838579Y+2158406D01*
X+4838579Y+2101594D01*
X+4798406Y+2061421D01*
X+4741594Y+2061421D01*
X+4701421Y+2101594D01*
X+4701421Y+2137515D01*
X+4483817Y+2355119D01*
X+4483817Y+3343333D01*
X+4437005Y+3296521D01*
X+4342995Y+3296521D01*
X+4316557Y+3322959D01*
X+4316557Y+2169507D01*
X+4594290Y+1891774D01*
X+4596995Y+1894479D01*
X+4691005Y+1894479D01*
X+4740431Y+1845053D01*
X+4919505Y+2024127D01*
X+5233002Y+2024127D01*
X+5258403Y+2049528D01*
X+5315215Y+2049528D01*
X+5355388Y+2009355D01*
X+5355388Y+1952543D01*
X+5315215Y+1912370D01*
X+5258403Y+1912370D01*
X+5233003Y+1937770D01*
X+4955276Y+1937770D01*
X+4911985Y+1894479D01*
X+4945005Y+1894479D01*
X+5011479Y+1828005D01*
X+5011479Y+1733995D01*
X+4945005Y+1667521D01*
X+4850995Y+1667521D01*
X+4803724Y+1714791D01*
X+4709336Y+1620403D01*
X+3800905Y+1620403D01*
X+2333695Y+3087613D01*
X+1595538Y+3087613D01*
X+1436821Y+3246330D01*
X+1436821Y+3691112D01*
X+2482001Y+4736292D01*
X+2454621Y+4763672D01*
X+2454621Y+4862568D01*
X+2524552Y+4932499D01*
X+2623448Y+4932499D01*
X+2693379Y+4862568D01*
X+2693379Y+4763672D01*
X+2666543Y+4736836D01*
X+2735457Y+4736836D01*
X+2708621Y+4763672D01*
X+2708621Y+4862568D01*
X+2778552Y+4932499D01*
X+2877448Y+4932499D01*
X+2947379Y+4862568D01*
X+2947379Y+4763672D01*
X+2920543Y+4736836D01*
X+2989457Y+4736836D01*
X+2962621Y+4763672D01*
X+2962621Y+4862568D01*
X+3032552Y+4932499D01*
X+3131448Y+4932499D01*
X+3201379Y+4862568D01*
X+3201379Y+4763672D01*
X+3174543Y+4736836D01*
X+3243457Y+4736836D01*
X+3216621Y+4763672D01*
X+3216621Y+4862568D01*
X+3286552Y+4932499D01*
X+3385448Y+4932499D01*
X+3455379Y+4862568D01*
X+3455379Y+4763672D01*
X+3428543Y+4736836D01*
X+3497457Y+4736836D01*
X+3470621Y+4763672D01*
X+3470621Y+4862568D01*
X+3540552Y+4932499D01*
X+3639448Y+4932499D01*
X+3709379Y+4862568D01*
X+3709379Y+4763672D01*
X+3682543Y+4736836D01*
X+3751457Y+4736836D01*
X+3724621Y+4763672D01*
X+3724621Y+4862568D01*
X+3794552Y+4932499D01*
X+3893448Y+4932499D01*
X+3963379Y+4862568D01*
X+3963379Y+4763672D01*
X+3936543Y+4736836D01*
X+4005457Y+4736836D01*
X+3978621Y+4763672D01*
X+3978621Y+4862568D01*
X+4048552Y+4932499D01*
X+4147448Y+4932499D01*
X+4217379Y+4862568D01*
X+4217379Y+4763672D01*
X+4190543Y+4736836D01*
X+4259457Y+4736836D01*
X+4232621Y+4763672D01*
X+4232621Y+4862568D01*
X+4302552Y+4932499D01*
X+4401448Y+4932499D01*
X+4471379Y+4862568D01*
X+4471379Y+4763672D01*
X+4444543Y+4736836D01*
X+4513457Y+4736836D01*
X+4486621Y+4763672D01*
X+4486621Y+4862568D01*
X+4556552Y+4932499D01*
X+4655448Y+4932499D01*
X+4725379Y+4862568D01*
G37*
G36*
X+5104995Y+1894479D02*
X+5199005Y+1894479D01*
X+5265479Y+1828005D01*
X+5265479Y+1733995D01*
X+5199005Y+1667521D01*
X+5104995Y+1667521D01*
X+5038521Y+1733995D01*
X+5038521Y+1828005D01*
X+5104995Y+1894479D01*
G37*
G36*
X+5358995Y+1894479D02*
X+5453005Y+1894479D01*
X+5519479Y+1828005D01*
X+5519479Y+1733995D01*
X+5453005Y+1667521D01*
X+5358995Y+1667521D01*
X+5292521Y+1733995D01*
X+5292521Y+1828005D01*
X+5358995Y+1894479D01*
G37*
G36*
X+3887921Y+1065291D02*
X+3887921Y+1174709D01*
X+3965291Y+1252079D01*
X+4074709Y+1252079D01*
X+4152079Y+1174709D01*
X+4152079Y+1065291D01*
X+4074709Y+987921D01*
X+3965291Y+987921D01*
X+3887921Y+1065291D01*
G37*
G36*
X+6187921Y+1165291D02*
X+6187921Y+1274709D01*
X+6265291Y+1352079D01*
X+6374709Y+1352079D01*
X+6452079Y+1274709D01*
X+6452079Y+1165291D01*
X+6374709Y+1087921D01*
X+6265291Y+1087921D01*
X+6187921Y+1165291D01*
G37*
G36*
X+6187921Y+765291D02*
X+6187921Y+874709D01*
X+6265291Y+952079D01*
X+6374709Y+952079D01*
X+6452079Y+874709D01*
X+6452079Y+765291D01*
X+6374709Y+687921D01*
X+6265291Y+687921D01*
X+6187921Y+765291D01*
G37*
G36*
X+6687921Y+1165291D02*
X+6687921Y+1274709D01*
X+6765291Y+1352079D01*
X+6874709Y+1352079D01*
X+6952079Y+1274709D01*
X+6952079Y+1165291D01*
X+6874709Y+1087921D01*
X+6765291Y+1087921D01*
X+6687921Y+1165291D01*
G37*
G36*
X+7265379Y+4862568D02*
X+7265379Y+4763672D01*
X+7195448Y+4693741D01*
X+7096552Y+4693741D01*
X+7026621Y+4763672D01*
X+7026621Y+4862568D01*
X+7096552Y+4932499D01*
X+7195448Y+4932499D01*
X+7265379Y+4862568D01*
G37*
G36*
X+7011379Y+4862568D02*
X+7011379Y+4763672D01*
X+6941448Y+4693741D01*
X+6842552Y+4693741D01*
X+6772621Y+4763672D01*
X+6772621Y+4862568D01*
X+6842552Y+4932499D01*
X+6941448Y+4932499D01*
X+7011379Y+4862568D01*
G37*
G36*
X+6757379Y+4862568D02*
X+6757379Y+4763672D01*
X+6687448Y+4693741D01*
X+6588552Y+4693741D01*
X+6518621Y+4763672D01*
X+6518621Y+4862568D01*
X+6588552Y+4932499D01*
X+6687448Y+4932499D01*
X+6757379Y+4862568D01*
G37*
G36*
X+6503379Y+4862568D02*
X+6503379Y+4763672D01*
X+6433448Y+4693741D01*
X+6334552Y+4693741D01*
X+6264621Y+4763672D01*
X+6264621Y+4862568D01*
X+6334552Y+4932499D01*
X+6433448Y+4932499D01*
X+6503379Y+4862568D01*
G37*
G36*
X+6249379Y+4862568D02*
X+6249379Y+4763672D01*
X+6179448Y+4693741D01*
X+6080552Y+4693741D01*
X+6010621Y+4763672D01*
X+6010621Y+4862568D01*
X+6080552Y+4932499D01*
X+6179448Y+4932499D01*
X+6249379Y+4862568D01*
G37*
G36*
X+5995379Y+4862568D02*
X+5995379Y+4763672D01*
X+5925448Y+4693741D01*
X+5826552Y+4693741D01*
X+5756621Y+4763672D01*
X+5756621Y+4862568D01*
X+5826552Y+4932499D01*
X+5925448Y+4932499D01*
X+5995379Y+4862568D01*
G37*
G36*
X+5741379Y+4862568D02*
X+5741379Y+4763672D01*
X+5671448Y+4693741D01*
X+5572552Y+4693741D01*
X+5502621Y+4763672D01*
X+5502621Y+4862568D01*
X+5572552Y+4932499D01*
X+5671448Y+4932499D01*
X+5741379Y+4862568D01*
G37*
G36*
X+5487379Y+4862568D02*
X+5487379Y+4763672D01*
X+5417448Y+4693741D01*
X+5318552Y+4693741D01*
X+5248621Y+4763672D01*
X+5248621Y+4862568D01*
X+5318552Y+4932499D01*
X+5417448Y+4932499D01*
X+5487379Y+4862568D01*
G37*
G36*
X+5233379Y+4862568D02*
X+5233379Y+4763672D01*
X+5163448Y+4693741D01*
X+5064552Y+4693741D01*
X+4994621Y+4763672D01*
X+4994621Y+4862568D01*
X+5064552Y+4932499D01*
X+5163448Y+4932499D01*
X+5233379Y+4862568D01*
G37*
G36*
X+4979379Y+4862568D02*
X+4979379Y+4763672D01*
X+4909448Y+4693741D01*
X+4810552Y+4693741D01*
X+4740621Y+4763672D01*
X+4740621Y+4862568D01*
X+4810552Y+4932499D01*
X+4909448Y+4932499D01*
X+4979379Y+4862568D01*
G37*
G36*
X+4979379Y+4608568D02*
X+4979379Y+4509672D01*
X+4909448Y+4439741D01*
X+4810552Y+4439741D01*
X+4740621Y+4509672D01*
X+4740621Y+4608568D01*
X+4810552Y+4678499D01*
X+4909448Y+4678499D01*
X+4979379Y+4608568D01*
G37*
G36*
X+5233379Y+4608568D02*
X+5233379Y+4509672D01*
X+5163448Y+4439741D01*
X+5064552Y+4439741D01*
X+4994621Y+4509672D01*
X+4994621Y+4608568D01*
X+5064552Y+4678499D01*
X+5163448Y+4678499D01*
X+5233379Y+4608568D01*
G37*
G36*
X+5487379Y+4608568D02*
X+5487379Y+4509672D01*
X+5417448Y+4439741D01*
X+5318552Y+4439741D01*
X+5248621Y+4509672D01*
X+5248621Y+4608568D01*
X+5318552Y+4678499D01*
X+5417448Y+4678499D01*
X+5487379Y+4608568D01*
G37*
G36*
X+5741379Y+4608568D02*
X+5741379Y+4509672D01*
X+5671448Y+4439741D01*
X+5572552Y+4439741D01*
X+5502621Y+4509672D01*
X+5502621Y+4608568D01*
X+5572552Y+4678499D01*
X+5671448Y+4678499D01*
X+5741379Y+4608568D01*
G37*
G36*
X+5995379Y+4608568D02*
X+5995379Y+4509672D01*
X+5925448Y+4439741D01*
X+5826552Y+4439741D01*
X+5756621Y+4509672D01*
X+5756621Y+4608568D01*
X+5826552Y+4678499D01*
X+5925448Y+4678499D01*
X+5995379Y+4608568D01*
G37*
G36*
X+6249379Y+4608568D02*
X+6249379Y+4509672D01*
X+6179448Y+4439741D01*
X+6080552Y+4439741D01*
X+6010621Y+4509672D01*
X+6010621Y+4608568D01*
X+6080552Y+4678499D01*
X+6179448Y+4678499D01*
X+6249379Y+4608568D01*
G37*
G36*
X+6503379Y+4608568D02*
X+6503379Y+4509672D01*
X+6433448Y+4439741D01*
X+6334552Y+4439741D01*
X+6264621Y+4509672D01*
X+6264621Y+4608568D01*
X+6334552Y+4678499D01*
X+6433448Y+4678499D01*
X+6503379Y+4608568D01*
G37*
G36*
X+6757379Y+4608568D02*
X+6757379Y+4509672D01*
X+6687448Y+4439741D01*
X+6588552Y+4439741D01*
X+6518621Y+4509672D01*
X+6518621Y+4608568D01*
X+6588552Y+4678499D01*
X+6687448Y+4678499D01*
X+6757379Y+4608568D01*
G37*
G36*
X+7011379Y+4608568D02*
X+7011379Y+4509672D01*
X+6941448Y+4439741D01*
X+6842552Y+4439741D01*
X+6772621Y+4509672D01*
X+6772621Y+4608568D01*
X+6842552Y+4678499D01*
X+6941448Y+4678499D01*
X+7011379Y+4608568D01*
G37*
G36*
X+7265379Y+4608568D02*
X+7265379Y+4509672D01*
X+7195448Y+4439741D01*
X+7096552Y+4439741D01*
X+7026621Y+4509672D01*
X+7026621Y+4608568D01*
X+7096552Y+4678499D01*
X+7195448Y+4678499D01*
X+7265379Y+4608568D01*
G37*
G36*
X+7265379Y+509448D02*
X+7265379Y+410552D01*
X+7195448Y+340621D01*
X+7096552Y+340621D01*
X+7026621Y+410552D01*
X+7026621Y+509448D01*
X+7096552Y+579379D01*
X+7195448Y+579379D01*
X+7265379Y+509448D01*
G37*
G36*
X+7011379Y+509448D02*
X+7011379Y+410552D01*
X+6941448Y+340621D01*
X+6842552Y+340621D01*
X+6772621Y+410552D01*
X+6772621Y+509448D01*
X+6842552Y+579379D01*
X+6941448Y+579379D01*
X+7011379Y+509448D01*
G37*
G36*
X+6757379Y+509448D02*
X+6757379Y+410552D01*
X+6687448Y+340621D01*
X+6588552Y+340621D01*
X+6518621Y+410552D01*
X+6518621Y+509448D01*
X+6588552Y+579379D01*
X+6687448Y+579379D01*
X+6757379Y+509448D01*
G37*
G36*
X+6503379Y+509448D02*
X+6503379Y+410552D01*
X+6433448Y+340621D01*
X+6334552Y+340621D01*
X+6264621Y+410552D01*
X+6264621Y+509448D01*
X+6334552Y+579379D01*
X+6433448Y+579379D01*
X+6503379Y+509448D01*
G37*
G36*
X+6249379Y+509448D02*
X+6249379Y+410552D01*
X+6179448Y+340621D01*
X+6080552Y+340621D01*
X+6010621Y+410552D01*
X+6010621Y+509448D01*
X+6080552Y+579379D01*
X+6179448Y+579379D01*
X+6249379Y+509448D01*
G37*
G36*
X+5995379Y+509448D02*
X+5995379Y+410552D01*
X+5925448Y+340621D01*
X+5826552Y+340621D01*
X+5756621Y+410552D01*
X+5756621Y+509448D01*
X+5826552Y+579379D01*
X+5925448Y+579379D01*
X+5995379Y+509448D01*
G37*
G36*
X+5741379Y+509448D02*
X+5741379Y+410552D01*
X+5671448Y+340621D01*
X+5572552Y+340621D01*
X+5502621Y+410552D01*
X+5502621Y+509448D01*
X+5572552Y+579379D01*
X+5671448Y+579379D01*
X+5741379Y+509448D01*
G37*
G36*
X+5487379Y+509448D02*
X+5487379Y+410552D01*
X+5417448Y+340621D01*
X+5318552Y+340621D01*
X+5248621Y+410552D01*
X+5248621Y+509448D01*
X+5318552Y+579379D01*
X+5417448Y+579379D01*
X+5487379Y+509448D01*
G37*
G36*
X+5233379Y+509448D02*
X+5233379Y+410552D01*
X+5163448Y+340621D01*
X+5064552Y+340621D01*
X+4994621Y+410552D01*
X+4994621Y+509448D01*
X+5064552Y+579379D01*
X+5163448Y+579379D01*
X+5233379Y+509448D01*
G37*
G36*
X+4979379Y+509448D02*
X+4979379Y+410552D01*
X+4909448Y+340621D01*
X+4810552Y+340621D01*
X+4740621Y+410552D01*
X+4740621Y+509448D01*
X+4810552Y+579379D01*
X+4909448Y+579379D01*
X+4979379Y+509448D01*
G37*
G36*
X+4725379Y+509448D02*
X+4725379Y+410552D01*
X+4655448Y+340621D01*
X+4556552Y+340621D01*
X+4486621Y+410552D01*
X+4486621Y+509448D01*
X+4556552Y+579379D01*
X+4655448Y+579379D01*
X+4725379Y+509448D01*
G37*
G36*
X+4471379Y+509448D02*
X+4471379Y+410552D01*
X+4401448Y+340621D01*
X+4302552Y+340621D01*
X+4232621Y+410552D01*
X+4232621Y+509448D01*
X+4302552Y+579379D01*
X+4401448Y+579379D01*
X+4471379Y+509448D01*
G37*
G36*
X+4217379Y+509448D02*
X+4217379Y+410552D01*
X+4147448Y+340621D01*
X+4048552Y+340621D01*
X+3978621Y+410552D01*
X+3978621Y+509448D01*
X+4048552Y+579379D01*
X+4147448Y+579379D01*
X+4217379Y+509448D01*
G37*
G36*
X+3963379Y+509448D02*
X+3963379Y+410552D01*
X+3893448Y+340621D01*
X+3794552Y+340621D01*
X+3724621Y+410552D01*
X+3724621Y+509448D01*
X+3794552Y+579379D01*
X+3893448Y+579379D01*
X+3963379Y+509448D01*
G37*
G36*
X+3709379Y+509448D02*
X+3709379Y+410552D01*
X+3639448Y+340621D01*
X+3540552Y+340621D01*
X+3470621Y+410552D01*
X+3470621Y+509448D01*
X+3540552Y+579379D01*
X+3639448Y+579379D01*
X+3709379Y+509448D01*
G37*
G36*
X+3455379Y+509448D02*
X+3455379Y+410552D01*
X+3385448Y+340621D01*
X+3286552Y+340621D01*
X+3216621Y+410552D01*
X+3216621Y+509448D01*
X+3286552Y+579379D01*
X+3385448Y+579379D01*
X+3455379Y+509448D01*
G37*
G36*
X+3201379Y+509448D02*
X+3201379Y+410552D01*
X+3131448Y+340621D01*
X+3032552Y+340621D01*
X+2962621Y+410552D01*
X+2962621Y+509448D01*
X+3032552Y+579379D01*
X+3131448Y+579379D01*
X+3201379Y+509448D01*
G37*
G36*
X+2947379Y+509448D02*
X+2947379Y+410552D01*
X+2877448Y+340621D01*
X+2778552Y+340621D01*
X+2708621Y+410552D01*
X+2708621Y+509448D01*
X+2778552Y+579379D01*
X+2877448Y+579379D01*
X+2947379Y+509448D01*
G37*
G36*
X+2693379Y+509448D02*
X+2693379Y+410552D01*
X+2623448Y+340621D01*
X+2524552Y+340621D01*
X+2454621Y+410552D01*
X+2454621Y+509448D01*
X+2524552Y+579379D01*
X+2623448Y+579379D01*
X+2693379Y+509448D01*
G37*
G36*
X+2693379Y+255448D02*
X+2693379Y+156552D01*
X+2623448Y+86621D01*
X+2524552Y+86621D01*
X+2454621Y+156552D01*
X+2454621Y+255448D01*
X+2524552Y+325379D01*
X+2623448Y+325379D01*
X+2693379Y+255448D01*
G37*
G36*
X+2947379Y+255448D02*
X+2947379Y+156552D01*
X+2877448Y+86621D01*
X+2778552Y+86621D01*
X+2708621Y+156552D01*
X+2708621Y+255448D01*
X+2778552Y+325379D01*
X+2877448Y+325379D01*
X+2947379Y+255448D01*
G37*
G36*
X+3201379Y+255448D02*
X+3201379Y+156552D01*
X+3131448Y+86621D01*
X+3032552Y+86621D01*
X+2962621Y+156552D01*
X+2962621Y+255448D01*
X+3032552Y+325379D01*
X+3131448Y+325379D01*
X+3201379Y+255448D01*
G37*
G36*
X+3455379Y+255448D02*
X+3455379Y+156552D01*
X+3385448Y+86621D01*
X+3286552Y+86621D01*
X+3216621Y+156552D01*
X+3216621Y+255448D01*
X+3286552Y+325379D01*
X+3385448Y+325379D01*
X+3455379Y+255448D01*
G37*
G36*
X+3709379Y+255448D02*
X+3709379Y+156552D01*
X+3639448Y+86621D01*
X+3540552Y+86621D01*
X+3470621Y+156552D01*
X+3470621Y+255448D01*
X+3540552Y+325379D01*
X+3639448Y+325379D01*
X+3709379Y+255448D01*
G37*
G36*
X+3963379Y+255448D02*
X+3963379Y+156552D01*
X+3893448Y+86621D01*
X+3794552Y+86621D01*
X+3724621Y+156552D01*
X+3724621Y+255448D01*
X+3794552Y+325379D01*
X+3893448Y+325379D01*
X+3963379Y+255448D01*
G37*
G36*
X+4217379Y+255448D02*
X+4217379Y+156552D01*
X+4147448Y+86621D01*
X+4048552Y+86621D01*
X+3978621Y+156552D01*
X+3978621Y+255448D01*
X+4048552Y+325379D01*
X+4147448Y+325379D01*
X+4217379Y+255448D01*
G37*
G36*
X+4471379Y+255448D02*
X+4471379Y+156552D01*
X+4401448Y+86621D01*
X+4302552Y+86621D01*
X+4232621Y+156552D01*
X+4232621Y+255448D01*
X+4302552Y+325379D01*
X+4401448Y+325379D01*
X+4471379Y+255448D01*
G37*
G36*
X+4725379Y+255448D02*
X+4725379Y+156552D01*
X+4655448Y+86621D01*
X+4556552Y+86621D01*
X+4486621Y+156552D01*
X+4486621Y+255448D01*
X+4556552Y+325379D01*
X+4655448Y+325379D01*
X+4725379Y+255448D01*
G37*
G36*
X+4979379Y+255448D02*
X+4979379Y+156552D01*
X+4909448Y+86621D01*
X+4810552Y+86621D01*
X+4740621Y+156552D01*
X+4740621Y+255448D01*
X+4810552Y+325379D01*
X+4909448Y+325379D01*
X+4979379Y+255448D01*
G37*
G36*
X+5233379Y+255448D02*
X+5233379Y+156552D01*
X+5163448Y+86621D01*
X+5064552Y+86621D01*
X+4994621Y+156552D01*
X+4994621Y+255448D01*
X+5064552Y+325379D01*
X+5163448Y+325379D01*
X+5233379Y+255448D01*
G37*
G36*
X+5487379Y+255448D02*
X+5487379Y+156552D01*
X+5417448Y+86621D01*
X+5318552Y+86621D01*
X+5248621Y+156552D01*
X+5248621Y+255448D01*
X+5318552Y+325379D01*
X+5417448Y+325379D01*
X+5487379Y+255448D01*
G37*
G36*
X+5741379Y+255448D02*
X+5741379Y+156552D01*
X+5671448Y+86621D01*
X+5572552Y+86621D01*
X+5502621Y+156552D01*
X+5502621Y+255448D01*
X+5572552Y+325379D01*
X+5671448Y+325379D01*
X+5741379Y+255448D01*
G37*
G36*
X+5995379Y+255448D02*
X+5995379Y+156552D01*
X+5925448Y+86621D01*
X+5826552Y+86621D01*
X+5756621Y+156552D01*
X+5756621Y+255448D01*
X+5826552Y+325379D01*
X+5925448Y+325379D01*
X+5995379Y+255448D01*
G37*
G36*
X+6249379Y+255448D02*
X+6249379Y+156552D01*
X+6179448Y+86621D01*
X+6080552Y+86621D01*
X+6010621Y+156552D01*
X+6010621Y+255448D01*
X+6080552Y+325379D01*
X+6179448Y+325379D01*
X+6249379Y+255448D01*
G37*
G36*
X+6503379Y+255448D02*
X+6503379Y+156552D01*
X+6433448Y+86621D01*
X+6334552Y+86621D01*
X+6264621Y+156552D01*
X+6264621Y+255448D01*
X+6334552Y+325379D01*
X+6433448Y+325379D01*
X+6503379Y+255448D01*
G37*
G36*
X+6757379Y+255448D02*
X+6757379Y+156552D01*
X+6687448Y+86621D01*
X+6588552Y+86621D01*
X+6518621Y+156552D01*
X+6518621Y+255448D01*
X+6588552Y+325379D01*
X+6687448Y+325379D01*
X+6757379Y+255448D01*
G37*
G36*
X+7011379Y+255448D02*
X+7011379Y+156552D01*
X+6941448Y+86621D01*
X+6842552Y+86621D01*
X+6772621Y+156552D01*
X+6772621Y+255448D01*
X+6842552Y+325379D01*
X+6941448Y+325379D01*
X+7011379Y+255448D01*
G37*
G36*
X+7265379Y+255448D02*
X+7265379Y+156552D01*
X+7195448Y+86621D01*
X+7096552Y+86621D01*
X+7026621Y+156552D01*
X+7026621Y+255448D01*
X+7096552Y+325379D01*
X+7195448Y+325379D01*
X+7265379Y+255448D01*
G37*
G36*
X+5093806Y+2378073D02*
X+5372991Y+2378073D01*
X+5412485Y+2338579D01*
X+5448406Y+2338579D01*
X+5488579Y+2298406D01*
X+5488579Y+2241594D01*
X+5448406Y+2201421D01*
X+5391594Y+2201421D01*
X+5351421Y+2241594D01*
X+5351421Y+2277515D01*
X+5337221Y+2291715D01*
X+5093806Y+2291715D01*
X+5068406Y+2266315D01*
X+5011594Y+2266315D01*
X+4971421Y+2306488D01*
X+4971421Y+2363300D01*
X+5011594Y+2403473D01*
X+5068406Y+2403473D01*
X+5093806Y+2378073D01*
G37*
G36*
X+1068250Y+4886849D02*
X+1068250Y+4913151D01*
X+1086849Y+4931750D01*
X+1113151Y+4931750D01*
X+1131750Y+4913151D01*
X+1131750Y+4886849D01*
X+1113151Y+4868250D01*
X+1086849Y+4868250D01*
X+1068250Y+4886849D01*
G37*
G36*
X+1068250Y+4786849D02*
X+1068250Y+4813151D01*
X+1086849Y+4831750D01*
X+1113151Y+4831750D01*
X+1131750Y+4813151D01*
X+1131750Y+4786849D01*
X+1113151Y+4768250D01*
X+1086849Y+4768250D01*
X+1068250Y+4786849D01*
G37*
G36*
X+1068250Y+4686849D02*
X+1068250Y+4713151D01*
X+1086849Y+4731750D01*
X+1113151Y+4731750D01*
X+1131750Y+4713151D01*
X+1131750Y+4686849D01*
X+1113151Y+4668250D01*
X+1086849Y+4668250D01*
X+1068250Y+4686849D01*
G37*
G36*
X+1068250Y+4586849D02*
X+1068250Y+4613151D01*
X+1086849Y+4631750D01*
X+1113151Y+4631750D01*
X+1131750Y+4613151D01*
X+1131750Y+4586849D01*
X+1113151Y+4568250D01*
X+1086849Y+4568250D01*
X+1068250Y+4586849D01*
G37*
G36*
X+1068250Y+4486849D02*
X+1068250Y+4513151D01*
X+1086849Y+4531750D01*
X+1113151Y+4531750D01*
X+1131750Y+4513151D01*
X+1131750Y+4486849D01*
X+1113151Y+4468250D01*
X+1086849Y+4468250D01*
X+1068250Y+4486849D01*
G37*
G36*
X+1068250Y+4386849D02*
X+1068250Y+4413151D01*
X+1086849Y+4431750D01*
X+1113151Y+4431750D01*
X+1131750Y+4413151D01*
X+1131750Y+4386849D01*
X+1113151Y+4368250D01*
X+1086849Y+4368250D01*
X+1068250Y+4386849D01*
G37*
G36*
X+1068250Y+4286849D02*
X+1068250Y+4313151D01*
X+1086849Y+4331750D01*
X+1113151Y+4331750D01*
X+1131750Y+4313151D01*
X+1131750Y+4286849D01*
X+1113151Y+4268250D01*
X+1086849Y+4268250D01*
X+1068250Y+4286849D01*
G37*
G36*
X+1068250Y+4186849D02*
X+1068250Y+4213151D01*
X+1086849Y+4231750D01*
X+1113151Y+4231750D01*
X+1131750Y+4213151D01*
X+1131750Y+4186849D01*
X+1113151Y+4168250D01*
X+1086849Y+4168250D01*
X+1068250Y+4186849D01*
G37*
G36*
X+1068250Y+4086849D02*
X+1068250Y+4113151D01*
X+1086849Y+4131750D01*
X+1113151Y+4131750D01*
X+1131750Y+4113151D01*
X+1131750Y+4086849D01*
X+1113151Y+4068250D01*
X+1086849Y+4068250D01*
X+1068250Y+4086849D01*
G37*
G36*
X+1068250Y+3986849D02*
X+1068250Y+4013151D01*
X+1086849Y+4031750D01*
X+1113151Y+4031750D01*
X+1131750Y+4013151D01*
X+1131750Y+3986849D01*
X+1113151Y+3968250D01*
X+1086849Y+3968250D01*
X+1068250Y+3986849D01*
G37*
G36*
X+1068250Y+3886849D02*
X+1068250Y+3913151D01*
X+1086849Y+3931750D01*
X+1113151Y+3931750D01*
X+1131750Y+3913151D01*
X+1131750Y+3886849D01*
X+1113151Y+3868250D01*
X+1086849Y+3868250D01*
X+1068250Y+3886849D01*
G37*
G36*
X+1068250Y+3786849D02*
X+1068250Y+3813151D01*
X+1086849Y+3831750D01*
X+1113151Y+3831750D01*
X+1131750Y+3813151D01*
X+1131750Y+3786849D01*
X+1113151Y+3768250D01*
X+1086849Y+3768250D01*
X+1068250Y+3786849D01*
G37*
G36*
X+1068250Y+3686849D02*
X+1068250Y+3713151D01*
X+1086849Y+3731750D01*
X+1113151Y+3731750D01*
X+1131750Y+3713151D01*
X+1131750Y+3686849D01*
X+1113151Y+3668250D01*
X+1086849Y+3668250D01*
X+1068250Y+3686849D01*
G37*
G36*
X+1068250Y+3586849D02*
X+1068250Y+3613151D01*
X+1086849Y+3631750D01*
X+1113151Y+3631750D01*
X+1131750Y+3613151D01*
X+1131750Y+3586849D01*
X+1113151Y+3568250D01*
X+1086849Y+3568250D01*
X+1068250Y+3586849D01*
G37*
G36*
X+1068250Y+3486849D02*
X+1068250Y+3513151D01*
X+1086849Y+3531750D01*
X+1113151Y+3531750D01*
X+1131750Y+3513151D01*
X+1131750Y+3486849D01*
X+1113151Y+3468250D01*
X+1086849Y+3468250D01*
X+1068250Y+3486849D01*
G37*
G36*
X+1068250Y+3386849D02*
X+1068250Y+3413151D01*
X+1086849Y+3431750D01*
X+1113151Y+3431750D01*
X+1131750Y+3413151D01*
X+1131750Y+3386849D01*
X+1113151Y+3368250D01*
X+1086849Y+3368250D01*
X+1068250Y+3386849D01*
G37*
G36*
X+1068250Y+3286849D02*
X+1068250Y+3313151D01*
X+1086849Y+3331750D01*
X+1113151Y+3331750D01*
X+1131750Y+3313151D01*
X+1131750Y+3286849D01*
X+1113151Y+3268250D01*
X+1086849Y+3268250D01*
X+1068250Y+3286849D01*
G37*
G36*
X+1068250Y+3186849D02*
X+1068250Y+3213151D01*
X+1086849Y+3231750D01*
X+1113151Y+3231750D01*
X+1131750Y+3213151D01*
X+1131750Y+3186849D01*
X+1113151Y+3168250D01*
X+1086849Y+3168250D01*
X+1068250Y+3186849D01*
G37*
G36*
X+1068250Y+3086849D02*
X+1068250Y+3113151D01*
X+1086849Y+3131750D01*
X+1113151Y+3131750D01*
X+1131750Y+3113151D01*
X+1131750Y+3086849D01*
X+1113151Y+3068250D01*
X+1086849Y+3068250D01*
X+1068250Y+3086849D01*
G37*
G36*
X+1068250Y+2986849D02*
X+1068250Y+3013151D01*
X+1086849Y+3031750D01*
X+1113151Y+3031750D01*
X+1131750Y+3013151D01*
X+1131750Y+2986849D01*
X+1113151Y+2968250D01*
X+1086849Y+2968250D01*
X+1068250Y+2986849D01*
G37*
G36*
X+1068250Y+2886849D02*
X+1068250Y+2913151D01*
X+1086849Y+2931750D01*
X+1113151Y+2931750D01*
X+1131750Y+2913151D01*
X+1131750Y+2886849D01*
X+1113151Y+2868250D01*
X+1086849Y+2868250D01*
X+1068250Y+2886849D01*
G37*
G36*
X+1068250Y+2786849D02*
X+1068250Y+2813151D01*
X+1086849Y+2831750D01*
X+1113151Y+2831750D01*
X+1131750Y+2813151D01*
X+1131750Y+2786849D01*
X+1113151Y+2768250D01*
X+1086849Y+2768250D01*
X+1068250Y+2786849D01*
G37*
G36*
X+1068250Y+2686849D02*
X+1068250Y+2713151D01*
X+1086849Y+2731750D01*
X+1113151Y+2731750D01*
X+1131750Y+2713151D01*
X+1131750Y+2686849D01*
X+1113151Y+2668250D01*
X+1086849Y+2668250D01*
X+1068250Y+2686849D01*
G37*
G36*
X+1068250Y+2586849D02*
X+1068250Y+2613151D01*
X+1086849Y+2631750D01*
X+1113151Y+2631750D01*
X+1131750Y+2613151D01*
X+1131750Y+2586849D01*
X+1113151Y+2568250D01*
X+1086849Y+2568250D01*
X+1068250Y+2586849D01*
G37*
G36*
X+1068250Y+2486849D02*
X+1068250Y+2513151D01*
X+1086849Y+2531750D01*
X+1113151Y+2531750D01*
X+1131750Y+2513151D01*
X+1131750Y+2486849D01*
X+1113151Y+2468250D01*
X+1086849Y+2468250D01*
X+1068250Y+2486849D01*
G37*
G36*
X+1068250Y+2386849D02*
X+1068250Y+2413151D01*
X+1086849Y+2431750D01*
X+1113151Y+2431750D01*
X+1131750Y+2413151D01*
X+1131750Y+2386849D01*
X+1113151Y+2368250D01*
X+1086849Y+2368250D01*
X+1068250Y+2386849D01*
G37*
G36*
X+1068250Y+2286849D02*
X+1068250Y+2313151D01*
X+1086849Y+2331750D01*
X+1113151Y+2331750D01*
X+1131750Y+2313151D01*
X+1131750Y+2286849D01*
X+1113151Y+2268250D01*
X+1086849Y+2268250D01*
X+1068250Y+2286849D01*
G37*
G36*
X+1068250Y+2186849D02*
X+1068250Y+2213151D01*
X+1086849Y+2231750D01*
X+1113151Y+2231750D01*
X+1131750Y+2213151D01*
X+1131750Y+2186849D01*
X+1113151Y+2168250D01*
X+1086849Y+2168250D01*
X+1068250Y+2186849D01*
G37*
G36*
X+1068250Y+2086849D02*
X+1068250Y+2113151D01*
X+1086849Y+2131750D01*
X+1113151Y+2131750D01*
X+1131750Y+2113151D01*
X+1131750Y+2086849D01*
X+1113151Y+2068250D01*
X+1086849Y+2068250D01*
X+1068250Y+2086849D01*
G37*
G36*
X+1068250Y+1986849D02*
X+1068250Y+2013151D01*
X+1086849Y+2031750D01*
X+1113151Y+2031750D01*
X+1131750Y+2013151D01*
X+1131750Y+1986849D01*
X+1113151Y+1968250D01*
X+1086849Y+1968250D01*
X+1068250Y+1986849D01*
G37*
G36*
X+1068250Y+1886849D02*
X+1068250Y+1913151D01*
X+1086849Y+1931750D01*
X+1113151Y+1931750D01*
X+1131750Y+1913151D01*
X+1131750Y+1886849D01*
X+1113151Y+1868250D01*
X+1086849Y+1868250D01*
X+1068250Y+1886849D01*
G37*
G36*
X+1068250Y+1786849D02*
X+1068250Y+1813151D01*
X+1086849Y+1831750D01*
X+1113151Y+1831750D01*
X+1131750Y+1813151D01*
X+1131750Y+1786849D01*
X+1113151Y+1768250D01*
X+1086849Y+1768250D01*
X+1068250Y+1786849D01*
G37*
G36*
X+1068250Y+1686849D02*
X+1068250Y+1713151D01*
X+1086849Y+1731750D01*
X+1113151Y+1731750D01*
X+1131750Y+1713151D01*
X+1131750Y+1686849D01*
X+1113151Y+1668250D01*
X+1086849Y+1668250D01*
X+1068250Y+1686849D01*
G37*
G36*
X+1068250Y+1586849D02*
X+1068250Y+1613151D01*
X+1086849Y+1631750D01*
X+1113151Y+1631750D01*
X+1131750Y+1613151D01*
X+1131750Y+1586849D01*
X+1113151Y+1568250D01*
X+1086849Y+1568250D01*
X+1068250Y+1586849D01*
G37*
G36*
X+1068250Y+1486849D02*
X+1068250Y+1513151D01*
X+1086849Y+1531750D01*
X+1113151Y+1531750D01*
X+1131750Y+1513151D01*
X+1131750Y+1486849D01*
X+1113151Y+1468250D01*
X+1086849Y+1468250D01*
X+1068250Y+1486849D01*
G37*
G36*
X+1068250Y+1386849D02*
X+1068250Y+1413151D01*
X+1086849Y+1431750D01*
X+1113151Y+1431750D01*
X+1131750Y+1413151D01*
X+1131750Y+1386849D01*
X+1113151Y+1368250D01*
X+1086849Y+1368250D01*
X+1068250Y+1386849D01*
G37*
G36*
X+1068250Y+1286849D02*
X+1068250Y+1313151D01*
X+1086849Y+1331750D01*
X+1113151Y+1331750D01*
X+1131750Y+1313151D01*
X+1131750Y+1286849D01*
X+1113151Y+1268250D01*
X+1086849Y+1268250D01*
X+1068250Y+1286849D01*
G37*
G36*
X+1068250Y+1186849D02*
X+1068250Y+1213151D01*
X+1086849Y+1231750D01*
X+1113151Y+1231750D01*
X+1131750Y+1213151D01*
X+1131750Y+1186849D01*
X+1113151Y+1168250D01*
X+1086849Y+1168250D01*
X+1068250Y+1186849D01*
G37*
G36*
X+1068250Y+1086849D02*
X+1068250Y+1113151D01*
X+1086849Y+1131750D01*
X+1113151Y+1131750D01*
X+1131750Y+1113151D01*
X+1131750Y+1086849D01*
X+1113151Y+1068250D01*
X+1086849Y+1068250D01*
X+1068250Y+1086849D01*
G37*
G36*
X+1068250Y+986849D02*
X+1068250Y+1013151D01*
X+1086849Y+1031750D01*
X+1113151Y+1031750D01*
X+1131750Y+1013151D01*
X+1131750Y+986849D01*
X+1113151Y+968250D01*
X+1086849Y+968250D01*
X+1068250Y+986849D01*
G37*
G36*
X+1068250Y+886849D02*
X+1068250Y+913151D01*
X+1086849Y+931750D01*
X+1113151Y+931750D01*
X+1131750Y+913151D01*
X+1131750Y+886849D01*
X+1113151Y+868250D01*
X+1086849Y+868250D01*
X+1068250Y+886849D01*
G37*
G36*
X+1068250Y+786849D02*
X+1068250Y+813151D01*
X+1086849Y+831750D01*
X+1113151Y+831750D01*
X+1131750Y+813151D01*
X+1131750Y+786849D01*
X+1113151Y+768250D01*
X+1086849Y+768250D01*
X+1068250Y+786849D01*
G37*
G36*
X+1068250Y+686849D02*
X+1068250Y+713151D01*
X+1086849Y+731750D01*
X+1113151Y+731750D01*
X+1131750Y+713151D01*
X+1131750Y+686849D01*
X+1113151Y+668250D01*
X+1086849Y+668250D01*
X+1068250Y+686849D01*
G37*
G36*
X+1068250Y+586849D02*
X+1068250Y+613151D01*
X+1086849Y+631750D01*
X+1113151Y+631750D01*
X+1131750Y+613151D01*
X+1131750Y+586849D01*
X+1113151Y+568250D01*
X+1086849Y+568250D01*
X+1068250Y+586849D01*
G37*
G36*
X+1068250Y+486849D02*
X+1068250Y+513151D01*
X+1086849Y+531750D01*
X+1113151Y+531750D01*
X+1131750Y+513151D01*
X+1131750Y+486849D01*
X+1113151Y+468250D01*
X+1086849Y+468250D01*
X+1068250Y+486849D01*
G37*
G36*
X+1068250Y+386849D02*
X+1068250Y+413151D01*
X+1086849Y+431750D01*
X+1113151Y+431750D01*
X+1131750Y+413151D01*
X+1131750Y+386849D01*
X+1113151Y+368250D01*
X+1086849Y+368250D01*
X+1068250Y+386849D01*
G37*
G36*
X+1068250Y+286849D02*
X+1068250Y+313151D01*
X+1086849Y+331750D01*
X+1113151Y+331750D01*
X+1131750Y+313151D01*
X+1131750Y+286849D01*
X+1113151Y+268250D01*
X+1086849Y+268250D01*
X+1068250Y+286849D01*
G37*
G36*
X+1068250Y+186849D02*
X+1068250Y+213151D01*
X+1086849Y+231750D01*
X+1113151Y+231750D01*
X+1131750Y+213151D01*
X+1131750Y+186849D01*
X+1113151Y+168250D01*
X+1086849Y+168250D01*
X+1068250Y+186849D01*
G37*
G36*
X+1068250Y+86849D02*
X+1068250Y+113151D01*
X+1086849Y+131750D01*
X+1113151Y+131750D01*
X+1131750Y+113151D01*
X+1131750Y+86849D01*
X+1113151Y+68250D01*
X+1086849Y+68250D01*
X+1068250Y+86849D01*
G37*
G36*
X+7218250Y+3886849D02*
X+7218250Y+3913151D01*
X+7236849Y+3931750D01*
X+7263151Y+3931750D01*
X+7281750Y+3913151D01*
X+7281750Y+3886849D01*
X+7263151Y+3868250D01*
X+7236849Y+3868250D01*
X+7218250Y+3886849D01*
G37*
G36*
X+7218250Y+3986849D02*
X+7218250Y+4013151D01*
X+7236849Y+4031750D01*
X+7263151Y+4031750D01*
X+7281750Y+4013151D01*
X+7281750Y+3986849D01*
X+7263151Y+3968250D01*
X+7236849Y+3968250D01*
X+7218250Y+3986849D01*
G37*
G36*
X+7218250Y+4086849D02*
X+7218250Y+4113151D01*
X+7236849Y+4131750D01*
X+7263151Y+4131750D01*
X+7281750Y+4113151D01*
X+7281750Y+4086849D01*
X+7263151Y+4068250D01*
X+7236849Y+4068250D01*
X+7218250Y+4086849D01*
G37*
G36*
X+7218250Y+4186849D02*
X+7218250Y+4213151D01*
X+7236849Y+4231750D01*
X+7263151Y+4231750D01*
X+7281750Y+4213151D01*
X+7281750Y+4186849D01*
X+7263151Y+4168250D01*
X+7236849Y+4168250D01*
X+7218250Y+4186849D01*
G37*
G36*
X+7218250Y+3786849D02*
X+7218250Y+3813151D01*
X+7236849Y+3831750D01*
X+7263151Y+3831750D01*
X+7281750Y+3813151D01*
X+7281750Y+3786849D01*
X+7263151Y+3768250D01*
X+7236849Y+3768250D01*
X+7218250Y+3786849D01*
G37*
G36*
X+7218250Y+3686849D02*
X+7218250Y+3713151D01*
X+7236849Y+3731750D01*
X+7263151Y+3731750D01*
X+7281750Y+3713151D01*
X+7281750Y+3686849D01*
X+7263151Y+3668250D01*
X+7236849Y+3668250D01*
X+7218250Y+3686849D01*
G37*
G36*
X+7218250Y+3586849D02*
X+7218250Y+3613151D01*
X+7236849Y+3631750D01*
X+7263151Y+3631750D01*
X+7281750Y+3613151D01*
X+7281750Y+3586849D01*
X+7263151Y+3568250D01*
X+7236849Y+3568250D01*
X+7218250Y+3586849D01*
G37*
G36*
X+7218250Y+3486849D02*
X+7218250Y+3513151D01*
X+7236849Y+3531750D01*
X+7263151Y+3531750D01*
X+7281750Y+3513151D01*
X+7281750Y+3486849D01*
X+7263151Y+3468250D01*
X+7236849Y+3468250D01*
X+7218250Y+3486849D01*
G37*
G36*
X+7218250Y+3386849D02*
X+7218250Y+3413151D01*
X+7236849Y+3431750D01*
X+7263151Y+3431750D01*
X+7281750Y+3413151D01*
X+7281750Y+3386849D01*
X+7263151Y+3368250D01*
X+7236849Y+3368250D01*
X+7218250Y+3386849D01*
G37*
G36*
X+7218250Y+3286849D02*
X+7218250Y+3313151D01*
X+7236849Y+3331750D01*
X+7263151Y+3331750D01*
X+7281750Y+3313151D01*
X+7281750Y+3286849D01*
X+7263151Y+3268250D01*
X+7236849Y+3268250D01*
X+7218250Y+3286849D01*
G37*
G36*
X+7218250Y+3186849D02*
X+7218250Y+3213151D01*
X+7236849Y+3231750D01*
X+7263151Y+3231750D01*
X+7281750Y+3213151D01*
X+7281750Y+3186849D01*
X+7263151Y+3168250D01*
X+7236849Y+3168250D01*
X+7218250Y+3186849D01*
G37*
G36*
X+7218250Y+3086849D02*
X+7218250Y+3113151D01*
X+7236849Y+3131750D01*
X+7263151Y+3131750D01*
X+7281750Y+3113151D01*
X+7281750Y+3086849D01*
X+7263151Y+3068250D01*
X+7236849Y+3068250D01*
X+7218250Y+3086849D01*
G37*
G36*
X+7218250Y+2986849D02*
X+7218250Y+3013151D01*
X+7236849Y+3031750D01*
X+7263151Y+3031750D01*
X+7281750Y+3013151D01*
X+7281750Y+2986849D01*
X+7263151Y+2968250D01*
X+7236849Y+2968250D01*
X+7218250Y+2986849D01*
G37*
G36*
X+7218250Y+2886849D02*
X+7218250Y+2913151D01*
X+7236849Y+2931750D01*
X+7263151Y+2931750D01*
X+7281750Y+2913151D01*
X+7281750Y+2886849D01*
X+7263151Y+2868250D01*
X+7236849Y+2868250D01*
X+7218250Y+2886849D01*
G37*
G36*
X+7218250Y+2786849D02*
X+7218250Y+2813151D01*
X+7236849Y+2831750D01*
X+7263151Y+2831750D01*
X+7281750Y+2813151D01*
X+7281750Y+2786849D01*
X+7263151Y+2768250D01*
X+7236849Y+2768250D01*
X+7218250Y+2786849D01*
G37*
G36*
X+7168250Y+886849D02*
X+7168250Y+913151D01*
X+7186849Y+931750D01*
X+7213151Y+931750D01*
X+7231750Y+913151D01*
X+7231750Y+886849D01*
X+7213151Y+868250D01*
X+7186849Y+868250D01*
X+7168250Y+886849D01*
G37*
G36*
X+7168250Y+986849D02*
X+7168250Y+1013151D01*
X+7186849Y+1031750D01*
X+7213151Y+1031750D01*
X+7231750Y+1013151D01*
X+7231750Y+986849D01*
X+7213151Y+968250D01*
X+7186849Y+968250D01*
X+7168250Y+986849D01*
G37*
G36*
X+7168250Y+1086849D02*
X+7168250Y+1113151D01*
X+7186849Y+1131750D01*
X+7213151Y+1131750D01*
X+7231750Y+1113151D01*
X+7231750Y+1086849D01*
X+7213151Y+1068250D01*
X+7186849Y+1068250D01*
X+7168250Y+1086849D01*
G37*
G36*
X+7168250Y+1186849D02*
X+7168250Y+1213151D01*
X+7186849Y+1231750D01*
X+7213151Y+1231750D01*
X+7231750Y+1213151D01*
X+7231750Y+1186849D01*
X+7213151Y+1168250D01*
X+7186849Y+1168250D01*
X+7168250Y+1186849D01*
G37*
G36*
X+7168250Y+1286849D02*
X+7168250Y+1313151D01*
X+7186849Y+1331750D01*
X+7213151Y+1331750D01*
X+7231750Y+1313151D01*
X+7231750Y+1286849D01*
X+7213151Y+1268250D01*
X+7186849Y+1268250D01*
X+7168250Y+1286849D01*
G37*
G36*
X+7168250Y+1386849D02*
X+7168250Y+1413151D01*
X+7186849Y+1431750D01*
X+7213151Y+1431750D01*
X+7231750Y+1413151D01*
X+7231750Y+1386849D01*
X+7213151Y+1368250D01*
X+7186849Y+1368250D01*
X+7168250Y+1386849D01*
G37*
G36*
X+7168250Y+1486849D02*
X+7168250Y+1513151D01*
X+7186849Y+1531750D01*
X+7213151Y+1531750D01*
X+7231750Y+1513151D01*
X+7231750Y+1486849D01*
X+7213151Y+1468250D01*
X+7186849Y+1468250D01*
X+7168250Y+1486849D01*
G37*
G36*
X+7168250Y+1586849D02*
X+7168250Y+1613151D01*
X+7186849Y+1631750D01*
X+7213151Y+1631750D01*
X+7231750Y+1613151D01*
X+7231750Y+1586849D01*
X+7213151Y+1568250D01*
X+7186849Y+1568250D01*
X+7168250Y+1586849D01*
G37*
G36*
X+7168250Y+1686849D02*
X+7168250Y+1713151D01*
X+7186849Y+1731750D01*
X+7213151Y+1731750D01*
X+7231750Y+1713151D01*
X+7231750Y+1686849D01*
X+7213151Y+1668250D01*
X+7186849Y+1668250D01*
X+7168250Y+1686849D01*
G37*
G36*
X+7168250Y+1786849D02*
X+7168250Y+1813151D01*
X+7186849Y+1831750D01*
X+7213151Y+1831750D01*
X+7231750Y+1813151D01*
X+7231750Y+1786849D01*
X+7213151Y+1768250D01*
X+7186849Y+1768250D01*
X+7168250Y+1786849D01*
G37*
G36*
X+7168250Y+1886849D02*
X+7168250Y+1913151D01*
X+7186849Y+1931750D01*
X+7213151Y+1931750D01*
X+7231750Y+1913151D01*
X+7231750Y+1886849D01*
X+7213151Y+1868250D01*
X+7186849Y+1868250D01*
X+7168250Y+1886849D01*
G37*
G36*
X+7168250Y+1986849D02*
X+7168250Y+2013151D01*
X+7186849Y+2031750D01*
X+7213151Y+2031750D01*
X+7231750Y+2013151D01*
X+7231750Y+1986849D01*
X+7213151Y+1968250D01*
X+7186849Y+1968250D01*
X+7168250Y+1986849D01*
G37*
%LPD*%
%TA.AperFunction,Conductor*%
G36*
X+2708621Y+4608568D02*
X+2708621Y+4509672D01*
X+2713054Y+4505238D01*
X+1659895Y+3452079D01*
X+1565291Y+3452079D01*
X+1523179Y+3409967D01*
X+1523179Y+3655342D01*
X+2454621Y+4586784D01*
X+2454621Y+4509672D01*
X+2524552Y+4439741D01*
X+2623448Y+4439741D01*
X+2693379Y+4509672D01*
X+2693379Y+4608568D01*
X+2651469Y+4650478D01*
X+2750531Y+4650478D01*
X+2708621Y+4608568D01*
G37*
%TD.AperFunction*%
D10*
X+4100000Y+3894726D02*
X+3345274Y+3894726D01*
X+3020000Y+4220000D01*
X+4100000Y+3759398D02*
X+3147103Y+3759398D01*
X+2574562Y+3186857D01*
X+1779946Y+3186857D01*
X+1721600Y+3245203D01*
X+1620000Y+3320000D01*
X+2120000Y+3320000D02*
X+3020000Y+4220000D01*
X+4351823Y+4211740D02*
X+4351823Y+3608663D01*
X+4526996Y+3433490D01*
X+4526996Y+2373004D01*
X+4770000Y+2130000D01*
X+3853180Y+4264111D02*
X+4273378Y+3843913D01*
X+4273378Y+2151622D01*
X+4644000Y+1781000D01*
X+5040000Y+2334894D02*
X+5355106Y+2334894D01*
X+5420000Y+2270000D01*
X+2828000Y+4559120D02*
X+1620000Y+3351120D01*
X+1620000Y+3320000D01*
X+3020000Y+4220000D02*
X+3082000Y+4282000D01*
X+3082000Y+4559120D01*
X+5286809Y+1980949D02*
X+4937391Y+1980949D01*
X+4763864Y+1807422D01*
X+4763864Y+1735995D01*
X+4691451Y+1663582D01*
X+3818790Y+1663582D01*
X+2351580Y+3130792D01*
X+1613423Y+3130792D01*
X+1480000Y+3264215D01*
X+1480000Y+3673227D01*
X+2500430Y+4693657D01*
X+4507267Y+4693657D01*
X+4552904Y+4648020D01*
X+4606000Y+4559120D01*
X+4450555Y+4285447D02*
X+4424553Y+4285447D01*
X+4377308Y+4332692D01*
X+3434253Y+4332692D01*
X+3259081Y+4157520D01*
X+5660000Y+1781000D02*
X+5660000Y+2478144D01*
X+4758472Y+3379672D01*
X+4758472Y+4111529D01*
X+4434698Y+4435303D01*
X+4221817Y+4435303D01*
X+4098000Y+4559120D01*
X+7400000Y+4559120D02*
X+7400000Y+4724220D01*
X+7400000Y+4813120D01*
X+1100000Y+4900000D02*
X+1100000Y+4800000D01*
X+1100000Y+4700000D02*
X+1100000Y+4600000D01*
X+1100000Y+4500000D02*
X+1100000Y+4400000D01*
X+1100000Y+4300000D02*
X+1100000Y+4200000D01*
X+1100000Y+4100000D02*
X+1100000Y+4000000D01*
X+1100000Y+3900000D02*
X+1100000Y+3800000D01*
X+1100000Y+3700000D02*
X+1100000Y+3600000D01*
X+1100000Y+3500000D02*
X+1100000Y+3400000D01*
X+1100000Y+3300000D02*
X+1100000Y+3200000D01*
X+1100000Y+3100000D02*
X+1100000Y+3000000D01*
X+1100000Y+2900000D02*
X+1100000Y+2800000D01*
X+1100000Y+2700000D02*
X+1100000Y+2600000D01*
X+1100000Y+2500000D02*
X+1100000Y+2400000D01*
X+1100000Y+2300000D02*
X+1100000Y+2200000D01*
X+1100000Y+2100000D02*
X+1100000Y+2000000D01*
X+1100000Y+1900000D02*
X+1100000Y+1800000D01*
X+1100000Y+1700000D02*
X+1100000Y+1600000D01*
X+1100000Y+1500000D02*
X+1100000Y+1400000D01*
X+1100000Y+1300000D02*
X+1100000Y+1200000D01*
X+1100000Y+1100000D02*
X+1100000Y+1000000D01*
X+1100000Y+900000D02*
X+1100000Y+800000D01*
X+1100000Y+700000D02*
X+1100000Y+600000D01*
X+1100000Y+500000D02*
X+1100000Y+400000D01*
X+1100000Y+300000D02*
X+1100000Y+200000D01*
X+1100000Y+100000D02*
X+1766867Y+100000D01*
X+2406435Y+739568D01*
X+5739568Y+739568D01*
X+5820000Y+820000D01*
X+7410000Y+710000D02*
X+6906986Y+710000D01*
X+6828406Y+631420D01*
X+6238580Y+631420D01*
X+5820000Y+1050000D01*
X+5820000Y+1220000D01*
X+7250000Y+3900000D02*
X+7250000Y+4000000D01*
X+7250000Y+4100000D02*
X+7250000Y+4200000D01*
X+7250000Y+3800000D02*
X+7250000Y+3700000D01*
X+7250000Y+3600000D02*
X+7250000Y+3500000D01*
X+7250000Y+3400000D02*
X+7250000Y+3300000D01*
X+7250000Y+3200000D02*
X+7250000Y+3100000D01*
X+7250000Y+3000000D02*
X+7250000Y+2900000D01*
X+7200000Y+780000D02*
X+7200000Y+900000D01*
X+7200000Y+1000000D02*
X+7200000Y+1100000D01*
X+7200000Y+1200000D02*
X+7200000Y+1300000D01*
X+7200000Y+1400000D02*
X+7200000Y+1500000D01*
X+7200000Y+1600000D02*
X+7200000Y+1700000D01*
X+7200000Y+1800000D02*
X+7200000Y+1900000D01*
D12*
X+4100000Y+3894726D03*
X+4100000Y+3759398D03*
X+7410000Y+710000D03*
X+4351823Y+4211740D03*
X+4770000Y+2130000D03*
X+3853180Y+4264111D03*
X+5040000Y+2334894D03*
X+5420000Y+2270000D03*
X+5286809Y+1980949D03*
X+4450555Y+4285447D03*
X+3259081Y+4157520D03*
X+1100000Y+4900000D03*
X+1100000Y+4800000D03*
X+1100000Y+4700000D03*
X+1100000Y+4600000D03*
X+1100000Y+4500000D03*
X+1100000Y+4400000D03*
X+1100000Y+4300000D03*
X+1100000Y+4200000D03*
X+1100000Y+4100000D03*
X+1100000Y+4000000D03*
X+1100000Y+3900000D03*
X+1100000Y+3800000D03*
X+1100000Y+3700000D03*
X+1100000Y+3600000D03*
X+1100000Y+3500000D03*
X+1100000Y+3400000D03*
X+1100000Y+3300000D03*
X+1100000Y+3200000D03*
X+1100000Y+3100000D03*
X+1100000Y+3000000D03*
X+1100000Y+2900000D03*
X+1100000Y+2800000D03*
X+1100000Y+2700000D03*
X+1100000Y+2600000D03*
X+1100000Y+2500000D03*
X+1100000Y+2400000D03*
X+1100000Y+2300000D03*
X+1100000Y+2200000D03*
X+1100000Y+2100000D03*
X+1100000Y+2000000D03*
X+1100000Y+1900000D03*
X+1100000Y+1800000D03*
X+1100000Y+1700000D03*
X+1100000Y+1600000D03*
X+1100000Y+1500000D03*
X+1100000Y+1400000D03*
X+1100000Y+1300000D03*
X+1100000Y+1200000D03*
X+1100000Y+1100000D03*
X+1100000Y+1000000D03*
X+1100000Y+900000D03*
X+1100000Y+800000D03*
X+1100000Y+700000D03*
X+1100000Y+600000D03*
X+1100000Y+500000D03*
X+1100000Y+400000D03*
X+1100000Y+300000D03*
X+1100000Y+200000D03*
X+1100000Y+100000D03*
X+7250000Y+3900000D03*
X+7250000Y+4000000D03*
X+7250000Y+4100000D03*
X+7250000Y+4200000D03*
X+7250000Y+3800000D03*
X+7250000Y+3700000D03*
X+7250000Y+3600000D03*
X+7250000Y+3500000D03*
X+7250000Y+3400000D03*
X+7250000Y+3300000D03*
X+7250000Y+3200000D03*
X+7250000Y+3100000D03*
X+7250000Y+3000000D03*
X+7250000Y+2900000D03*
X+7250000Y+2800000D03*
X+7200000Y+780000D03*
X+7200000Y+900000D03*
X+7200000Y+1000000D03*
X+7200000Y+1100000D03*
X+7200000Y+1200000D03*
X+7200000Y+1300000D03*
X+7200000Y+1400000D03*
X+7200000Y+1500000D03*
X+7200000Y+1600000D03*
X+7200000Y+1700000D03*
X+7200000Y+1800000D03*
X+7200000Y+1900000D03*
X+7200000Y+2000000D03*
D10*
X+7400000Y+4932499D02*
X+7280621Y+4932499D01*
X+7280621Y+4693741D01*
X+7356821Y+4693741D01*
X+7356821Y+4678499D01*
X+7350552Y+4678499D01*
X+7280621Y+4608568D01*
X+7280621Y+4509672D01*
X+7350552Y+4439741D01*
X+7400000Y+4439741D01*
X+7400000Y+778579D01*
X+7381594Y+778579D01*
X+7356194Y+753179D01*
X+7218080Y+753179D01*
X+7231750Y+766849D01*
X+7231750Y+793151D01*
X+7213151Y+811750D01*
X+7186849Y+811750D01*
X+7168250Y+793151D01*
X+7168250Y+766849D01*
X+7181920Y+753179D01*
X+6889101Y+753179D01*
X+6810521Y+674599D01*
X+6256465Y+674599D01*
X+5863179Y+1067885D01*
X+5863179Y+1087921D01*
X+5874709Y+1087921D01*
X+5952079Y+1165291D01*
X+5952079Y+1274709D01*
X+5874709Y+1352079D01*
X+5765291Y+1352079D01*
X+5687921Y+1274709D01*
X+5687921Y+1165291D01*
X+5765291Y+1087921D01*
X+5776821Y+1087921D01*
X+5776821Y+1032115D01*
X+5856857Y+952079D01*
X+5765291Y+952079D01*
X+5687921Y+874709D01*
X+5687921Y+765291D01*
X+5765291Y+687921D01*
X+5874709Y+687921D01*
X+5952079Y+765291D01*
X+5952079Y+856857D01*
X+6220695Y+588241D01*
X+6846291Y+588241D01*
X+6924871Y+666821D01*
X+7356194Y+666821D01*
X+7381594Y+641421D01*
X+7400000Y+641421D01*
X+7400000Y+579379D01*
X+7280621Y+579379D01*
X+7280621Y+340621D01*
X+7400000Y+340621D01*
X+7400000Y+325379D01*
X+7350552Y+325379D01*
X+7280621Y+255448D01*
X+7280621Y+156552D01*
X+7350552Y+86621D01*
X+7400000Y+86621D01*
X+7400000Y+64880D01*
X+1020000Y+64880D01*
X+1020000Y+4953120D01*
X+7400000Y+4953120D01*
X+7400000Y+4932499D01*
X+5749168Y+3320832D02*
X+5570832Y+3320832D01*
X+5570832Y+3499168D01*
X+5749168Y+3499168D01*
X+5749168Y+3320832D01*
X+5358995Y+3523479D02*
X+5453005Y+3523479D01*
X+5519479Y+3457005D01*
X+5519479Y+3362995D01*
X+5453005Y+3296521D01*
X+5358995Y+3296521D01*
X+5292521Y+3362995D01*
X+5292521Y+3457005D01*
X+5358995Y+3523479D01*
X+5104995Y+3523479D02*
X+5199005Y+3523479D01*
X+5265479Y+3457005D01*
X+5265479Y+3362995D01*
X+5199005Y+3296521D01*
X+5104995Y+3296521D01*
X+5038521Y+3362995D01*
X+5038521Y+3457005D01*
X+5104995Y+3523479D01*
X+4725379Y+4862568D02*
X+4725379Y+4763672D01*
X+4655448Y+4693741D01*
X+4568247Y+4693741D01*
X+4583489Y+4678499D01*
X+4655448Y+4678499D01*
X+4725379Y+4608568D01*
X+4725379Y+4509672D01*
X+4655448Y+4439741D01*
X+4556552Y+4439741D01*
X+4486621Y+4509672D01*
X+4486621Y+4608568D01*
X+4508956Y+4630903D01*
X+4489381Y+4650478D01*
X+4429469Y+4650478D01*
X+4471379Y+4608568D01*
X+4471379Y+4509672D01*
X+4440189Y+4478482D01*
X+4452583Y+4478482D01*
X+4801651Y+4129414D01*
X+4801651Y+3474135D01*
X+4850995Y+3523479D01*
X+4945005Y+3523479D01*
X+5011479Y+3457005D01*
X+5011479Y+3362995D01*
X+4945005Y+3296521D01*
X+4902687Y+3296521D01*
X+5703179Y+2496029D01*
X+5703179Y+1894479D01*
X+5707005Y+1894479D01*
X+5773479Y+1828005D01*
X+5773479Y+1733995D01*
X+5707005Y+1667521D01*
X+5612995Y+1667521D01*
X+5546521Y+1733995D01*
X+5546521Y+1828005D01*
X+5612995Y+1894479D01*
X+5616821Y+1894479D01*
X+5616821Y+2460259D01*
X+4735782Y+3341298D01*
X+4691005Y+3296521D01*
X+4596995Y+3296521D01*
X+4570175Y+3323341D01*
X+4570175Y+2390889D01*
X+4762485Y+2198579D01*
X+4798406Y+2198579D01*
X+4838579Y+2158406D01*
X+4838579Y+2101594D01*
X+4798406Y+2061421D01*
X+4741594Y+2061421D01*
X+4701421Y+2101594D01*
X+4701421Y+2137515D01*
X+4483817Y+2355119D01*
X+4483817Y+3343333D01*
X+4437005Y+3296521D01*
X+4342995Y+3296521D01*
X+4316557Y+3322959D01*
X+4316557Y+2169507D01*
X+4594290Y+1891774D01*
X+4596995Y+1894479D01*
X+4691005Y+1894479D01*
X+4740431Y+1845053D01*
X+4919505Y+2024127D01*
X+5233002Y+2024127D01*
X+5258403Y+2049528D01*
X+5315215Y+2049528D01*
X+5355388Y+2009355D01*
X+5355388Y+1952543D01*
X+5315215Y+1912370D01*
X+5258403Y+1912370D01*
X+5233003Y+1937770D01*
X+4955276Y+1937770D01*
X+4911985Y+1894479D01*
X+4945005Y+1894479D01*
X+5011479Y+1828005D01*
X+5011479Y+1733995D01*
X+4945005Y+1667521D01*
X+4850995Y+1667521D01*
X+4803724Y+1714791D01*
X+4709336Y+1620403D01*
X+3800905Y+1620403D01*
X+2333695Y+3087613D01*
X+1595538Y+3087613D01*
X+1436821Y+3246330D01*
X+1436821Y+3691112D01*
X+2482001Y+4736292D01*
X+2454621Y+4763672D01*
X+2454621Y+4862568D01*
X+2524552Y+4932499D01*
X+2623448Y+4932499D01*
X+2693379Y+4862568D01*
X+2693379Y+4763672D01*
X+2666543Y+4736836D01*
X+2735457Y+4736836D01*
X+2708621Y+4763672D01*
X+2708621Y+4862568D01*
X+2778552Y+4932499D01*
X+2877448Y+4932499D01*
X+2947379Y+4862568D01*
X+2947379Y+4763672D01*
X+2920543Y+4736836D01*
X+2989457Y+4736836D01*
X+2962621Y+4763672D01*
X+2962621Y+4862568D01*
X+3032552Y+4932499D01*
X+3131448Y+4932499D01*
X+3201379Y+4862568D01*
X+3201379Y+4763672D01*
X+3174543Y+4736836D01*
X+3243457Y+4736836D01*
X+3216621Y+4763672D01*
X+3216621Y+4862568D01*
X+3286552Y+4932499D01*
X+3385448Y+4932499D01*
X+3455379Y+4862568D01*
X+3455379Y+4763672D01*
X+3428543Y+4736836D01*
X+3497457Y+4736836D01*
X+3470621Y+4763672D01*
X+3470621Y+4862568D01*
X+3540552Y+4932499D01*
X+3639448Y+4932499D01*
X+3709379Y+4862568D01*
X+3709379Y+4763672D01*
X+3682543Y+4736836D01*
X+3751457Y+4736836D01*
X+3724621Y+4763672D01*
X+3724621Y+4862568D01*
X+3794552Y+4932499D01*
X+3893448Y+4932499D01*
X+3963379Y+4862568D01*
X+3963379Y+4763672D01*
X+3936543Y+4736836D01*
X+4005457Y+4736836D01*
X+3978621Y+4763672D01*
X+3978621Y+4862568D01*
X+4048552Y+4932499D01*
X+4147448Y+4932499D01*
X+4217379Y+4862568D01*
X+4217379Y+4763672D01*
X+4190543Y+4736836D01*
X+4259457Y+4736836D01*
X+4232621Y+4763672D01*
X+4232621Y+4862568D01*
X+4302552Y+4932499D01*
X+4401448Y+4932499D01*
X+4471379Y+4862568D01*
X+4471379Y+4763672D01*
X+4444543Y+4736836D01*
X+4513457Y+4736836D01*
X+4486621Y+4763672D01*
X+4486621Y+4862568D01*
X+4556552Y+4932499D01*
X+4655448Y+4932499D01*
X+4725379Y+4862568D01*
X+5104995Y+1894479D02*
X+5199005Y+1894479D01*
X+5265479Y+1828005D01*
X+5265479Y+1733995D01*
X+5199005Y+1667521D01*
X+5104995Y+1667521D01*
X+5038521Y+1733995D01*
X+5038521Y+1828005D01*
X+5104995Y+1894479D01*
X+5358995Y+1894479D02*
X+5453005Y+1894479D01*
X+5519479Y+1828005D01*
X+5519479Y+1733995D01*
X+5453005Y+1667521D01*
X+5358995Y+1667521D01*
X+5292521Y+1733995D01*
X+5292521Y+1828005D01*
X+5358995Y+1894479D01*
X+3887921Y+1065291D02*
X+3887921Y+1174709D01*
X+3965291Y+1252079D01*
X+4074709Y+1252079D01*
X+4152079Y+1174709D01*
X+4152079Y+1065291D01*
X+4074709Y+987921D01*
X+3965291Y+987921D01*
X+3887921Y+1065291D01*
X+6187921Y+1165291D02*
X+6187921Y+1274709D01*
X+6265291Y+1352079D01*
X+6374709Y+1352079D01*
X+6452079Y+1274709D01*
X+6452079Y+1165291D01*
X+6374709Y+1087921D01*
X+6265291Y+1087921D01*
X+6187921Y+1165291D01*
X+6187921Y+765291D02*
X+6187921Y+874709D01*
X+6265291Y+952079D01*
X+6374709Y+952079D01*
X+6452079Y+874709D01*
X+6452079Y+765291D01*
X+6374709Y+687921D01*
X+6265291Y+687921D01*
X+6187921Y+765291D01*
X+6687921Y+1165291D02*
X+6687921Y+1274709D01*
X+6765291Y+1352079D01*
X+6874709Y+1352079D01*
X+6952079Y+1274709D01*
X+6952079Y+1165291D01*
X+6874709Y+1087921D01*
X+6765291Y+1087921D01*
X+6687921Y+1165291D01*
X+7265379Y+4862568D02*
X+7265379Y+4763672D01*
X+7195448Y+4693741D01*
X+7096552Y+4693741D01*
X+7026621Y+4763672D01*
X+7026621Y+4862568D01*
X+7096552Y+4932499D01*
X+7195448Y+4932499D01*
X+7265379Y+4862568D01*
X+7011379Y+4862568D02*
X+7011379Y+4763672D01*
X+6941448Y+4693741D01*
X+6842552Y+4693741D01*
X+6772621Y+4763672D01*
X+6772621Y+4862568D01*
X+6842552Y+4932499D01*
X+6941448Y+4932499D01*
X+7011379Y+4862568D01*
X+6757379Y+4862568D02*
X+6757379Y+4763672D01*
X+6687448Y+4693741D01*
X+6588552Y+4693741D01*
X+6518621Y+4763672D01*
X+6518621Y+4862568D01*
X+6588552Y+4932499D01*
X+6687448Y+4932499D01*
X+6757379Y+4862568D01*
X+6503379Y+4862568D02*
X+6503379Y+4763672D01*
X+6433448Y+4693741D01*
X+6334552Y+4693741D01*
X+6264621Y+4763672D01*
X+6264621Y+4862568D01*
X+6334552Y+4932499D01*
X+6433448Y+4932499D01*
X+6503379Y+4862568D01*
X+6249379Y+4862568D02*
X+6249379Y+4763672D01*
X+6179448Y+4693741D01*
X+6080552Y+4693741D01*
X+6010621Y+4763672D01*
X+6010621Y+4862568D01*
X+6080552Y+4932499D01*
X+6179448Y+4932499D01*
X+6249379Y+4862568D01*
X+5995379Y+4862568D02*
X+5995379Y+4763672D01*
X+5925448Y+4693741D01*
X+5826552Y+4693741D01*
X+5756621Y+4763672D01*
X+5756621Y+4862568D01*
X+5826552Y+4932499D01*
X+5925448Y+4932499D01*
X+5995379Y+4862568D01*
X+5741379Y+4862568D02*
X+5741379Y+4763672D01*
X+5671448Y+4693741D01*
X+5572552Y+4693741D01*
X+5502621Y+4763672D01*
X+5502621Y+4862568D01*
X+5572552Y+4932499D01*
X+5671448Y+4932499D01*
X+5741379Y+4862568D01*
X+5487379Y+4862568D02*
X+5487379Y+4763672D01*
X+5417448Y+4693741D01*
X+5318552Y+4693741D01*
X+5248621Y+4763672D01*
X+5248621Y+4862568D01*
X+5318552Y+4932499D01*
X+5417448Y+4932499D01*
X+5487379Y+4862568D01*
X+5233379Y+4862568D02*
X+5233379Y+4763672D01*
X+5163448Y+4693741D01*
X+5064552Y+4693741D01*
X+4994621Y+4763672D01*
X+4994621Y+4862568D01*
X+5064552Y+4932499D01*
X+5163448Y+4932499D01*
X+5233379Y+4862568D01*
X+4979379Y+4862568D02*
X+4979379Y+4763672D01*
X+4909448Y+4693741D01*
X+4810552Y+4693741D01*
X+4740621Y+4763672D01*
X+4740621Y+4862568D01*
X+4810552Y+4932499D01*
X+4909448Y+4932499D01*
X+4979379Y+4862568D01*
X+4979379Y+4608568D02*
X+4979379Y+4509672D01*
X+4909448Y+4439741D01*
X+4810552Y+4439741D01*
X+4740621Y+4509672D01*
X+4740621Y+4608568D01*
X+4810552Y+4678499D01*
X+4909448Y+4678499D01*
X+4979379Y+4608568D01*
X+5233379Y+4608568D02*
X+5233379Y+4509672D01*
X+5163448Y+4439741D01*
X+5064552Y+4439741D01*
X+4994621Y+4509672D01*
X+4994621Y+4608568D01*
X+5064552Y+4678499D01*
X+5163448Y+4678499D01*
X+5233379Y+4608568D01*
X+5487379Y+4608568D02*
X+5487379Y+4509672D01*
X+5417448Y+4439741D01*
X+5318552Y+4439741D01*
X+5248621Y+4509672D01*
X+5248621Y+4608568D01*
X+5318552Y+4678499D01*
X+5417448Y+4678499D01*
X+5487379Y+4608568D01*
X+5741379Y+4608568D02*
X+5741379Y+4509672D01*
X+5671448Y+4439741D01*
X+5572552Y+4439741D01*
X+5502621Y+4509672D01*
X+5502621Y+4608568D01*
X+5572552Y+4678499D01*
X+5671448Y+4678499D01*
X+5741379Y+4608568D01*
X+5995379Y+4608568D02*
X+5995379Y+4509672D01*
X+5925448Y+4439741D01*
X+5826552Y+4439741D01*
X+5756621Y+4509672D01*
X+5756621Y+4608568D01*
X+5826552Y+4678499D01*
X+5925448Y+4678499D01*
X+5995379Y+4608568D01*
X+6249379Y+4608568D02*
X+6249379Y+4509672D01*
X+6179448Y+4439741D01*
X+6080552Y+4439741D01*
X+6010621Y+4509672D01*
X+6010621Y+4608568D01*
X+6080552Y+4678499D01*
X+6179448Y+4678499D01*
X+6249379Y+4608568D01*
X+6503379Y+4608568D02*
X+6503379Y+4509672D01*
X+6433448Y+4439741D01*
X+6334552Y+4439741D01*
X+6264621Y+4509672D01*
X+6264621Y+4608568D01*
X+6334552Y+4678499D01*
X+6433448Y+4678499D01*
X+6503379Y+4608568D01*
X+6757379Y+4608568D02*
X+6757379Y+4509672D01*
X+6687448Y+4439741D01*
X+6588552Y+4439741D01*
X+6518621Y+4509672D01*
X+6518621Y+4608568D01*
X+6588552Y+4678499D01*
X+6687448Y+4678499D01*
X+6757379Y+4608568D01*
X+7011379Y+4608568D02*
X+7011379Y+4509672D01*
X+6941448Y+4439741D01*
X+6842552Y+4439741D01*
X+6772621Y+4509672D01*
X+6772621Y+4608568D01*
X+6842552Y+4678499D01*
X+6941448Y+4678499D01*
X+7011379Y+4608568D01*
X+7265379Y+4608568D02*
X+7265379Y+4509672D01*
X+7195448Y+4439741D01*
X+7096552Y+4439741D01*
X+7026621Y+4509672D01*
X+7026621Y+4608568D01*
X+7096552Y+4678499D01*
X+7195448Y+4678499D01*
X+7265379Y+4608568D01*
X+7265379Y+509448D02*
X+7265379Y+410552D01*
X+7195448Y+340621D01*
X+7096552Y+340621D01*
X+7026621Y+410552D01*
X+7026621Y+509448D01*
X+7096552Y+579379D01*
X+7195448Y+579379D01*
X+7265379Y+509448D01*
X+7011379Y+509448D02*
X+7011379Y+410552D01*
X+6941448Y+340621D01*
X+6842552Y+340621D01*
X+6772621Y+410552D01*
X+6772621Y+509448D01*
X+6842552Y+579379D01*
X+6941448Y+579379D01*
X+7011379Y+509448D01*
X+6757379Y+509448D02*
X+6757379Y+410552D01*
X+6687448Y+340621D01*
X+6588552Y+340621D01*
X+6518621Y+410552D01*
X+6518621Y+509448D01*
X+6588552Y+579379D01*
X+6687448Y+579379D01*
X+6757379Y+509448D01*
X+6503379Y+509448D02*
X+6503379Y+410552D01*
X+6433448Y+340621D01*
X+6334552Y+340621D01*
X+6264621Y+410552D01*
X+6264621Y+509448D01*
X+6334552Y+579379D01*
X+6433448Y+579379D01*
X+6503379Y+509448D01*
X+6249379Y+509448D02*
X+6249379Y+410552D01*
X+6179448Y+340621D01*
X+6080552Y+340621D01*
X+6010621Y+410552D01*
X+6010621Y+509448D01*
X+6080552Y+579379D01*
X+6179448Y+579379D01*
X+6249379Y+509448D01*
X+5995379Y+509448D02*
X+5995379Y+410552D01*
X+5925448Y+340621D01*
X+5826552Y+340621D01*
X+5756621Y+410552D01*
X+5756621Y+509448D01*
X+5826552Y+579379D01*
X+5925448Y+579379D01*
X+5995379Y+509448D01*
X+5741379Y+509448D02*
X+5741379Y+410552D01*
X+5671448Y+340621D01*
X+5572552Y+340621D01*
X+5502621Y+410552D01*
X+5502621Y+509448D01*
X+5572552Y+579379D01*
X+5671448Y+579379D01*
X+5741379Y+509448D01*
X+5487379Y+509448D02*
X+5487379Y+410552D01*
X+5417448Y+340621D01*
X+5318552Y+340621D01*
X+5248621Y+410552D01*
X+5248621Y+509448D01*
X+5318552Y+579379D01*
X+5417448Y+579379D01*
X+5487379Y+509448D01*
X+5233379Y+509448D02*
X+5233379Y+410552D01*
X+5163448Y+340621D01*
X+5064552Y+340621D01*
X+4994621Y+410552D01*
X+4994621Y+509448D01*
X+5064552Y+579379D01*
X+5163448Y+579379D01*
X+5233379Y+509448D01*
X+4979379Y+509448D02*
X+4979379Y+410552D01*
X+4909448Y+340621D01*
X+4810552Y+340621D01*
X+4740621Y+410552D01*
X+4740621Y+509448D01*
X+4810552Y+579379D01*
X+4909448Y+579379D01*
X+4979379Y+509448D01*
X+4725379Y+509448D02*
X+4725379Y+410552D01*
X+4655448Y+340621D01*
X+4556552Y+340621D01*
X+4486621Y+410552D01*
X+4486621Y+509448D01*
X+4556552Y+579379D01*
X+4655448Y+579379D01*
X+4725379Y+509448D01*
X+4471379Y+509448D02*
X+4471379Y+410552D01*
X+4401448Y+340621D01*
X+4302552Y+340621D01*
X+4232621Y+410552D01*
X+4232621Y+509448D01*
X+4302552Y+579379D01*
X+4401448Y+579379D01*
X+4471379Y+509448D01*
X+4217379Y+509448D02*
X+4217379Y+410552D01*
X+4147448Y+340621D01*
X+4048552Y+340621D01*
X+3978621Y+410552D01*
X+3978621Y+509448D01*
X+4048552Y+579379D01*
X+4147448Y+579379D01*
X+4217379Y+509448D01*
X+3963379Y+509448D02*
X+3963379Y+410552D01*
X+3893448Y+340621D01*
X+3794552Y+340621D01*
X+3724621Y+410552D01*
X+3724621Y+509448D01*
X+3794552Y+579379D01*
X+3893448Y+579379D01*
X+3963379Y+509448D01*
X+3709379Y+509448D02*
X+3709379Y+410552D01*
X+3639448Y+340621D01*
X+3540552Y+340621D01*
X+3470621Y+410552D01*
X+3470621Y+509448D01*
X+3540552Y+579379D01*
X+3639448Y+579379D01*
X+3709379Y+509448D01*
X+3455379Y+509448D02*
X+3455379Y+410552D01*
X+3385448Y+340621D01*
X+3286552Y+340621D01*
X+3216621Y+410552D01*
X+3216621Y+509448D01*
X+3286552Y+579379D01*
X+3385448Y+579379D01*
X+3455379Y+509448D01*
X+3201379Y+509448D02*
X+3201379Y+410552D01*
X+3131448Y+340621D01*
X+3032552Y+340621D01*
X+2962621Y+410552D01*
X+2962621Y+509448D01*
X+3032552Y+579379D01*
X+3131448Y+579379D01*
X+3201379Y+509448D01*
X+2947379Y+509448D02*
X+2947379Y+410552D01*
X+2877448Y+340621D01*
X+2778552Y+340621D01*
X+2708621Y+410552D01*
X+2708621Y+509448D01*
X+2778552Y+579379D01*
X+2877448Y+579379D01*
X+2947379Y+509448D01*
X+2693379Y+509448D02*
X+2693379Y+410552D01*
X+2623448Y+340621D01*
X+2524552Y+340621D01*
X+2454621Y+410552D01*
X+2454621Y+509448D01*
X+2524552Y+579379D01*
X+2623448Y+579379D01*
X+2693379Y+509448D01*
X+2693379Y+255448D02*
X+2693379Y+156552D01*
X+2623448Y+86621D01*
X+2524552Y+86621D01*
X+2454621Y+156552D01*
X+2454621Y+255448D01*
X+2524552Y+325379D01*
X+2623448Y+325379D01*
X+2693379Y+255448D01*
X+2947379Y+255448D02*
X+2947379Y+156552D01*
X+2877448Y+86621D01*
X+2778552Y+86621D01*
X+2708621Y+156552D01*
X+2708621Y+255448D01*
X+2778552Y+325379D01*
X+2877448Y+325379D01*
X+2947379Y+255448D01*
X+3201379Y+255448D02*
X+3201379Y+156552D01*
X+3131448Y+86621D01*
X+3032552Y+86621D01*
X+2962621Y+156552D01*
X+2962621Y+255448D01*
X+3032552Y+325379D01*
X+3131448Y+325379D01*
X+3201379Y+255448D01*
X+3455379Y+255448D02*
X+3455379Y+156552D01*
X+3385448Y+86621D01*
X+3286552Y+86621D01*
X+3216621Y+156552D01*
X+3216621Y+255448D01*
X+3286552Y+325379D01*
X+3385448Y+325379D01*
X+3455379Y+255448D01*
X+3709379Y+255448D02*
X+3709379Y+156552D01*
X+3639448Y+86621D01*
X+3540552Y+86621D01*
X+3470621Y+156552D01*
X+3470621Y+255448D01*
X+3540552Y+325379D01*
X+3639448Y+325379D01*
X+3709379Y+255448D01*
X+3963379Y+255448D02*
X+3963379Y+156552D01*
X+3893448Y+86621D01*
X+3794552Y+86621D01*
X+3724621Y+156552D01*
X+3724621Y+255448D01*
X+3794552Y+325379D01*
X+3893448Y+325379D01*
X+3963379Y+255448D01*
X+4217379Y+255448D02*
X+4217379Y+156552D01*
X+4147448Y+86621D01*
X+4048552Y+86621D01*
X+3978621Y+156552D01*
X+3978621Y+255448D01*
X+4048552Y+325379D01*
X+4147448Y+325379D01*
X+4217379Y+255448D01*
X+4471379Y+255448D02*
X+4471379Y+156552D01*
X+4401448Y+86621D01*
X+4302552Y+86621D01*
X+4232621Y+156552D01*
X+4232621Y+255448D01*
X+4302552Y+325379D01*
X+4401448Y+325379D01*
X+4471379Y+255448D01*
X+4725379Y+255448D02*
X+4725379Y+156552D01*
X+4655448Y+86621D01*
X+4556552Y+86621D01*
X+4486621Y+156552D01*
X+4486621Y+255448D01*
X+4556552Y+325379D01*
X+4655448Y+325379D01*
X+4725379Y+255448D01*
X+4979379Y+255448D02*
X+4979379Y+156552D01*
X+4909448Y+86621D01*
X+4810552Y+86621D01*
X+4740621Y+156552D01*
X+4740621Y+255448D01*
X+4810552Y+325379D01*
X+4909448Y+325379D01*
X+4979379Y+255448D01*
X+5233379Y+255448D02*
X+5233379Y+156552D01*
X+5163448Y+86621D01*
X+5064552Y+86621D01*
X+4994621Y+156552D01*
X+4994621Y+255448D01*
X+5064552Y+325379D01*
X+5163448Y+325379D01*
X+5233379Y+255448D01*
X+5487379Y+255448D02*
X+5487379Y+156552D01*
X+5417448Y+86621D01*
X+5318552Y+86621D01*
X+5248621Y+156552D01*
X+5248621Y+255448D01*
X+5318552Y+325379D01*
X+5417448Y+325379D01*
X+5487379Y+255448D01*
X+5741379Y+255448D02*
X+5741379Y+156552D01*
X+5671448Y+86621D01*
X+5572552Y+86621D01*
X+5502621Y+156552D01*
X+5502621Y+255448D01*
X+5572552Y+325379D01*
X+5671448Y+325379D01*
X+5741379Y+255448D01*
X+5995379Y+255448D02*
X+5995379Y+156552D01*
X+5925448Y+86621D01*
X+5826552Y+86621D01*
X+5756621Y+156552D01*
X+5756621Y+255448D01*
X+5826552Y+325379D01*
X+5925448Y+325379D01*
X+5995379Y+255448D01*
X+6249379Y+255448D02*
X+6249379Y+156552D01*
X+6179448Y+86621D01*
X+6080552Y+86621D01*
X+6010621Y+156552D01*
X+6010621Y+255448D01*
X+6080552Y+325379D01*
X+6179448Y+325379D01*
X+6249379Y+255448D01*
X+6503379Y+255448D02*
X+6503379Y+156552D01*
X+6433448Y+86621D01*
X+6334552Y+86621D01*
X+6264621Y+156552D01*
X+6264621Y+255448D01*
X+6334552Y+325379D01*
X+6433448Y+325379D01*
X+6503379Y+255448D01*
X+6757379Y+255448D02*
X+6757379Y+156552D01*
X+6687448Y+86621D01*
X+6588552Y+86621D01*
X+6518621Y+156552D01*
X+6518621Y+255448D01*
X+6588552Y+325379D01*
X+6687448Y+325379D01*
X+6757379Y+255448D01*
X+7011379Y+255448D02*
X+7011379Y+156552D01*
X+6941448Y+86621D01*
X+6842552Y+86621D01*
X+6772621Y+156552D01*
X+6772621Y+255448D01*
X+6842552Y+325379D01*
X+6941448Y+325379D01*
X+7011379Y+255448D01*
X+7265379Y+255448D02*
X+7265379Y+156552D01*
X+7195448Y+86621D01*
X+7096552Y+86621D01*
X+7026621Y+156552D01*
X+7026621Y+255448D01*
X+7096552Y+325379D01*
X+7195448Y+325379D01*
X+7265379Y+255448D01*
X+5093806Y+2378073D02*
X+5372991Y+2378073D01*
X+5412485Y+2338579D01*
X+5448406Y+2338579D01*
X+5488579Y+2298406D01*
X+5488579Y+2241594D01*
X+5448406Y+2201421D01*
X+5391594Y+2201421D01*
X+5351421Y+2241594D01*
X+5351421Y+2277515D01*
X+5337221Y+2291715D01*
X+5093806Y+2291715D01*
X+5068406Y+2266315D01*
X+5011594Y+2266315D01*
X+4971421Y+2306488D01*
X+4971421Y+2363300D01*
X+5011594Y+2403473D01*
X+5068406Y+2403473D01*
X+5093806Y+2378073D01*
X+1068250Y+4886849D02*
X+1068250Y+4913151D01*
X+1086849Y+4931750D01*
X+1113151Y+4931750D01*
X+1131750Y+4913151D01*
X+1131750Y+4886849D01*
X+1113151Y+4868250D01*
X+1086849Y+4868250D01*
X+1068250Y+4886849D01*
X+1068250Y+4786849D02*
X+1068250Y+4813151D01*
X+1086849Y+4831750D01*
X+1113151Y+4831750D01*
X+1131750Y+4813151D01*
X+1131750Y+4786849D01*
X+1113151Y+4768250D01*
X+1086849Y+4768250D01*
X+1068250Y+4786849D01*
X+1068250Y+4686849D02*
X+1068250Y+4713151D01*
X+1086849Y+4731750D01*
X+1113151Y+4731750D01*
X+1131750Y+4713151D01*
X+1131750Y+4686849D01*
X+1113151Y+4668250D01*
X+1086849Y+4668250D01*
X+1068250Y+4686849D01*
X+1068250Y+4586849D02*
X+1068250Y+4613151D01*
X+1086849Y+4631750D01*
X+1113151Y+4631750D01*
X+1131750Y+4613151D01*
X+1131750Y+4586849D01*
X+1113151Y+4568250D01*
X+1086849Y+4568250D01*
X+1068250Y+4586849D01*
X+1068250Y+4486849D02*
X+1068250Y+4513151D01*
X+1086849Y+4531750D01*
X+1113151Y+4531750D01*
X+1131750Y+4513151D01*
X+1131750Y+4486849D01*
X+1113151Y+4468250D01*
X+1086849Y+4468250D01*
X+1068250Y+4486849D01*
X+1068250Y+4386849D02*
X+1068250Y+4413151D01*
X+1086849Y+4431750D01*
X+1113151Y+4431750D01*
X+1131750Y+4413151D01*
X+1131750Y+4386849D01*
X+1113151Y+4368250D01*
X+1086849Y+4368250D01*
X+1068250Y+4386849D01*
X+1068250Y+4286849D02*
X+1068250Y+4313151D01*
X+1086849Y+4331750D01*
X+1113151Y+4331750D01*
X+1131750Y+4313151D01*
X+1131750Y+4286849D01*
X+1113151Y+4268250D01*
X+1086849Y+4268250D01*
X+1068250Y+4286849D01*
X+1068250Y+4186849D02*
X+1068250Y+4213151D01*
X+1086849Y+4231750D01*
X+1113151Y+4231750D01*
X+1131750Y+4213151D01*
X+1131750Y+4186849D01*
X+1113151Y+4168250D01*
X+1086849Y+4168250D01*
X+1068250Y+4186849D01*
X+1068250Y+4086849D02*
X+1068250Y+4113151D01*
X+1086849Y+4131750D01*
X+1113151Y+4131750D01*
X+1131750Y+4113151D01*
X+1131750Y+4086849D01*
X+1113151Y+4068250D01*
X+1086849Y+4068250D01*
X+1068250Y+4086849D01*
X+1068250Y+3986849D02*
X+1068250Y+4013151D01*
X+1086849Y+4031750D01*
X+1113151Y+4031750D01*
X+1131750Y+4013151D01*
X+1131750Y+3986849D01*
X+1113151Y+3968250D01*
X+1086849Y+3968250D01*
X+1068250Y+3986849D01*
X+1068250Y+3886849D02*
X+1068250Y+3913151D01*
X+1086849Y+3931750D01*
X+1113151Y+3931750D01*
X+1131750Y+3913151D01*
X+1131750Y+3886849D01*
X+1113151Y+3868250D01*
X+1086849Y+3868250D01*
X+1068250Y+3886849D01*
X+1068250Y+3786849D02*
X+1068250Y+3813151D01*
X+1086849Y+3831750D01*
X+1113151Y+3831750D01*
X+1131750Y+3813151D01*
X+1131750Y+3786849D01*
X+1113151Y+3768250D01*
X+1086849Y+3768250D01*
X+1068250Y+3786849D01*
X+1068250Y+3686849D02*
X+1068250Y+3713151D01*
X+1086849Y+3731750D01*
X+1113151Y+3731750D01*
X+1131750Y+3713151D01*
X+1131750Y+3686849D01*
X+1113151Y+3668250D01*
X+1086849Y+3668250D01*
X+1068250Y+3686849D01*
X+1068250Y+3586849D02*
X+1068250Y+3613151D01*
X+1086849Y+3631750D01*
X+1113151Y+3631750D01*
X+1131750Y+3613151D01*
X+1131750Y+3586849D01*
X+1113151Y+3568250D01*
X+1086849Y+3568250D01*
X+1068250Y+3586849D01*
X+1068250Y+3486849D02*
X+1068250Y+3513151D01*
X+1086849Y+3531750D01*
X+1113151Y+3531750D01*
X+1131750Y+3513151D01*
X+1131750Y+3486849D01*
X+1113151Y+3468250D01*
X+1086849Y+3468250D01*
X+1068250Y+3486849D01*
X+1068250Y+3386849D02*
X+1068250Y+3413151D01*
X+1086849Y+3431750D01*
X+1113151Y+3431750D01*
X+1131750Y+3413151D01*
X+1131750Y+3386849D01*
X+1113151Y+3368250D01*
X+1086849Y+3368250D01*
X+1068250Y+3386849D01*
X+1068250Y+3286849D02*
X+1068250Y+3313151D01*
X+1086849Y+3331750D01*
X+1113151Y+3331750D01*
X+1131750Y+3313151D01*
X+1131750Y+3286849D01*
X+1113151Y+3268250D01*
X+1086849Y+3268250D01*
X+1068250Y+3286849D01*
X+1068250Y+3186849D02*
X+1068250Y+3213151D01*
X+1086849Y+3231750D01*
X+1113151Y+3231750D01*
X+1131750Y+3213151D01*
X+1131750Y+3186849D01*
X+1113151Y+3168250D01*
X+1086849Y+3168250D01*
X+1068250Y+3186849D01*
X+1068250Y+3086849D02*
X+1068250Y+3113151D01*
X+1086849Y+3131750D01*
X+1113151Y+3131750D01*
X+1131750Y+3113151D01*
X+1131750Y+3086849D01*
X+1113151Y+3068250D01*
X+1086849Y+3068250D01*
X+1068250Y+3086849D01*
X+1068250Y+2986849D02*
X+1068250Y+3013151D01*
X+1086849Y+3031750D01*
X+1113151Y+3031750D01*
X+1131750Y+3013151D01*
X+1131750Y+2986849D01*
X+1113151Y+2968250D01*
X+1086849Y+2968250D01*
X+1068250Y+2986849D01*
X+1068250Y+2886849D02*
X+1068250Y+2913151D01*
X+1086849Y+2931750D01*
X+1113151Y+2931750D01*
X+1131750Y+2913151D01*
X+1131750Y+2886849D01*
X+1113151Y+2868250D01*
X+1086849Y+2868250D01*
X+1068250Y+2886849D01*
X+1068250Y+2786849D02*
X+1068250Y+2813151D01*
X+1086849Y+2831750D01*
X+1113151Y+2831750D01*
X+1131750Y+2813151D01*
X+1131750Y+2786849D01*
X+1113151Y+2768250D01*
X+1086849Y+2768250D01*
X+1068250Y+2786849D01*
X+1068250Y+2686849D02*
X+1068250Y+2713151D01*
X+1086849Y+2731750D01*
X+1113151Y+2731750D01*
X+1131750Y+2713151D01*
X+1131750Y+2686849D01*
X+1113151Y+2668250D01*
X+1086849Y+2668250D01*
X+1068250Y+2686849D01*
X+1068250Y+2586849D02*
X+1068250Y+2613151D01*
X+1086849Y+2631750D01*
X+1113151Y+2631750D01*
X+1131750Y+2613151D01*
X+1131750Y+2586849D01*
X+1113151Y+2568250D01*
X+1086849Y+2568250D01*
X+1068250Y+2586849D01*
X+1068250Y+2486849D02*
X+1068250Y+2513151D01*
X+1086849Y+2531750D01*
X+1113151Y+2531750D01*
X+1131750Y+2513151D01*
X+1131750Y+2486849D01*
X+1113151Y+2468250D01*
X+1086849Y+2468250D01*
X+1068250Y+2486849D01*
X+1068250Y+2386849D02*
X+1068250Y+2413151D01*
X+1086849Y+2431750D01*
X+1113151Y+2431750D01*
X+1131750Y+2413151D01*
X+1131750Y+2386849D01*
X+1113151Y+2368250D01*
X+1086849Y+2368250D01*
X+1068250Y+2386849D01*
X+1068250Y+2286849D02*
X+1068250Y+2313151D01*
X+1086849Y+2331750D01*
X+1113151Y+2331750D01*
X+1131750Y+2313151D01*
X+1131750Y+2286849D01*
X+1113151Y+2268250D01*
X+1086849Y+2268250D01*
X+1068250Y+2286849D01*
X+1068250Y+2186849D02*
X+1068250Y+2213151D01*
X+1086849Y+2231750D01*
X+1113151Y+2231750D01*
X+1131750Y+2213151D01*
X+1131750Y+2186849D01*
X+1113151Y+2168250D01*
X+1086849Y+2168250D01*
X+1068250Y+2186849D01*
X+1068250Y+2086849D02*
X+1068250Y+2113151D01*
X+1086849Y+2131750D01*
X+1113151Y+2131750D01*
X+1131750Y+2113151D01*
X+1131750Y+2086849D01*
X+1113151Y+2068250D01*
X+1086849Y+2068250D01*
X+1068250Y+2086849D01*
X+1068250Y+1986849D02*
X+1068250Y+2013151D01*
X+1086849Y+2031750D01*
X+1113151Y+2031750D01*
X+1131750Y+2013151D01*
X+1131750Y+1986849D01*
X+1113151Y+1968250D01*
X+1086849Y+1968250D01*
X+1068250Y+1986849D01*
X+1068250Y+1886849D02*
X+1068250Y+1913151D01*
X+1086849Y+1931750D01*
X+1113151Y+1931750D01*
X+1131750Y+1913151D01*
X+1131750Y+1886849D01*
X+1113151Y+1868250D01*
X+1086849Y+1868250D01*
X+1068250Y+1886849D01*
X+1068250Y+1786849D02*
X+1068250Y+1813151D01*
X+1086849Y+1831750D01*
X+1113151Y+1831750D01*
X+1131750Y+1813151D01*
X+1131750Y+1786849D01*
X+1113151Y+1768250D01*
X+1086849Y+1768250D01*
X+1068250Y+1786849D01*
X+1068250Y+1686849D02*
X+1068250Y+1713151D01*
X+1086849Y+1731750D01*
X+1113151Y+1731750D01*
X+1131750Y+1713151D01*
X+1131750Y+1686849D01*
X+1113151Y+1668250D01*
X+1086849Y+1668250D01*
X+1068250Y+1686849D01*
X+1068250Y+1586849D02*
X+1068250Y+1613151D01*
X+1086849Y+1631750D01*
X+1113151Y+1631750D01*
X+1131750Y+1613151D01*
X+1131750Y+1586849D01*
X+1113151Y+1568250D01*
X+1086849Y+1568250D01*
X+1068250Y+1586849D01*
X+1068250Y+1486849D02*
X+1068250Y+1513151D01*
X+1086849Y+1531750D01*
X+1113151Y+1531750D01*
X+1131750Y+1513151D01*
X+1131750Y+1486849D01*
X+1113151Y+1468250D01*
X+1086849Y+1468250D01*
X+1068250Y+1486849D01*
X+1068250Y+1386849D02*
X+1068250Y+1413151D01*
X+1086849Y+1431750D01*
X+1113151Y+1431750D01*
X+1131750Y+1413151D01*
X+1131750Y+1386849D01*
X+1113151Y+1368250D01*
X+1086849Y+1368250D01*
X+1068250Y+1386849D01*
X+1068250Y+1286849D02*
X+1068250Y+1313151D01*
X+1086849Y+1331750D01*
X+1113151Y+1331750D01*
X+1131750Y+1313151D01*
X+1131750Y+1286849D01*
X+1113151Y+1268250D01*
X+1086849Y+1268250D01*
X+1068250Y+1286849D01*
X+1068250Y+1186849D02*
X+1068250Y+1213151D01*
X+1086849Y+1231750D01*
X+1113151Y+1231750D01*
X+1131750Y+1213151D01*
X+1131750Y+1186849D01*
X+1113151Y+1168250D01*
X+1086849Y+1168250D01*
X+1068250Y+1186849D01*
X+1068250Y+1086849D02*
X+1068250Y+1113151D01*
X+1086849Y+1131750D01*
X+1113151Y+1131750D01*
X+1131750Y+1113151D01*
X+1131750Y+1086849D01*
X+1113151Y+1068250D01*
X+1086849Y+1068250D01*
X+1068250Y+1086849D01*
X+1068250Y+986849D02*
X+1068250Y+1013151D01*
X+1086849Y+1031750D01*
X+1113151Y+1031750D01*
X+1131750Y+1013151D01*
X+1131750Y+986849D01*
X+1113151Y+968250D01*
X+1086849Y+968250D01*
X+1068250Y+986849D01*
X+1068250Y+886849D02*
X+1068250Y+913151D01*
X+1086849Y+931750D01*
X+1113151Y+931750D01*
X+1131750Y+913151D01*
X+1131750Y+886849D01*
X+1113151Y+868250D01*
X+1086849Y+868250D01*
X+1068250Y+886849D01*
X+1068250Y+786849D02*
X+1068250Y+813151D01*
X+1086849Y+831750D01*
X+1113151Y+831750D01*
X+1131750Y+813151D01*
X+1131750Y+786849D01*
X+1113151Y+768250D01*
X+1086849Y+768250D01*
X+1068250Y+786849D01*
X+1068250Y+686849D02*
X+1068250Y+713151D01*
X+1086849Y+731750D01*
X+1113151Y+731750D01*
X+1131750Y+713151D01*
X+1131750Y+686849D01*
X+1113151Y+668250D01*
X+1086849Y+668250D01*
X+1068250Y+686849D01*
X+1068250Y+586849D02*
X+1068250Y+613151D01*
X+1086849Y+631750D01*
X+1113151Y+631750D01*
X+1131750Y+613151D01*
X+1131750Y+586849D01*
X+1113151Y+568250D01*
X+1086849Y+568250D01*
X+1068250Y+586849D01*
X+1068250Y+486849D02*
X+1068250Y+513151D01*
X+1086849Y+531750D01*
X+1113151Y+531750D01*
X+1131750Y+513151D01*
X+1131750Y+486849D01*
X+1113151Y+468250D01*
X+1086849Y+468250D01*
X+1068250Y+486849D01*
X+1068250Y+386849D02*
X+1068250Y+413151D01*
X+1086849Y+431750D01*
X+1113151Y+431750D01*
X+1131750Y+413151D01*
X+1131750Y+386849D01*
X+1113151Y+368250D01*
X+1086849Y+368250D01*
X+1068250Y+386849D01*
X+1068250Y+286849D02*
X+1068250Y+313151D01*
X+1086849Y+331750D01*
X+1113151Y+331750D01*
X+1131750Y+313151D01*
X+1131750Y+286849D01*
X+1113151Y+268250D01*
X+1086849Y+268250D01*
X+1068250Y+286849D01*
X+1068250Y+186849D02*
X+1068250Y+213151D01*
X+1086849Y+231750D01*
X+1113151Y+231750D01*
X+1131750Y+213151D01*
X+1131750Y+186849D01*
X+1113151Y+168250D01*
X+1086849Y+168250D01*
X+1068250Y+186849D01*
X+1068250Y+86849D02*
X+1068250Y+113151D01*
X+1086849Y+131750D01*
X+1113151Y+131750D01*
X+1131750Y+113151D01*
X+1131750Y+86849D01*
X+1113151Y+68250D01*
X+1086849Y+68250D01*
X+1068250Y+86849D01*
X+7218250Y+3886849D02*
X+7218250Y+3913151D01*
X+7236849Y+3931750D01*
X+7263151Y+3931750D01*
X+7281750Y+3913151D01*
X+7281750Y+3886849D01*
X+7263151Y+3868250D01*
X+7236849Y+3868250D01*
X+7218250Y+3886849D01*
X+7218250Y+3986849D02*
X+7218250Y+4013151D01*
X+7236849Y+4031750D01*
X+7263151Y+4031750D01*
X+7281750Y+4013151D01*
X+7281750Y+3986849D01*
X+7263151Y+3968250D01*
X+7236849Y+3968250D01*
X+7218250Y+3986849D01*
X+7218250Y+4086849D02*
X+7218250Y+4113151D01*
X+7236849Y+4131750D01*
X+7263151Y+4131750D01*
X+7281750Y+4113151D01*
X+7281750Y+4086849D01*
X+7263151Y+4068250D01*
X+7236849Y+4068250D01*
X+7218250Y+4086849D01*
X+7218250Y+4186849D02*
X+7218250Y+4213151D01*
X+7236849Y+4231750D01*
X+7263151Y+4231750D01*
X+7281750Y+4213151D01*
X+7281750Y+4186849D01*
X+7263151Y+4168250D01*
X+7236849Y+4168250D01*
X+7218250Y+4186849D01*
X+7218250Y+3786849D02*
X+7218250Y+3813151D01*
X+7236849Y+3831750D01*
X+7263151Y+3831750D01*
X+7281750Y+3813151D01*
X+7281750Y+3786849D01*
X+7263151Y+3768250D01*
X+7236849Y+3768250D01*
X+7218250Y+3786849D01*
X+7218250Y+3686849D02*
X+7218250Y+3713151D01*
X+7236849Y+3731750D01*
X+7263151Y+3731750D01*
X+7281750Y+3713151D01*
X+7281750Y+3686849D01*
X+7263151Y+3668250D01*
X+7236849Y+3668250D01*
X+7218250Y+3686849D01*
X+7218250Y+3586849D02*
X+7218250Y+3613151D01*
X+7236849Y+3631750D01*
X+7263151Y+3631750D01*
X+7281750Y+3613151D01*
X+7281750Y+3586849D01*
X+7263151Y+3568250D01*
X+7236849Y+3568250D01*
X+7218250Y+3586849D01*
X+7218250Y+3486849D02*
X+7218250Y+3513151D01*
X+7236849Y+3531750D01*
X+7263151Y+3531750D01*
X+7281750Y+3513151D01*
X+7281750Y+3486849D01*
X+7263151Y+3468250D01*
X+7236849Y+3468250D01*
X+7218250Y+3486849D01*
X+7218250Y+3386849D02*
X+7218250Y+3413151D01*
X+7236849Y+3431750D01*
X+7263151Y+3431750D01*
X+7281750Y+3413151D01*
X+7281750Y+3386849D01*
X+7263151Y+3368250D01*
X+7236849Y+3368250D01*
X+7218250Y+3386849D01*
X+7218250Y+3286849D02*
X+7218250Y+3313151D01*
X+7236849Y+3331750D01*
X+7263151Y+3331750D01*
X+7281750Y+3313151D01*
X+7281750Y+3286849D01*
X+7263151Y+3268250D01*
X+7236849Y+3268250D01*
X+7218250Y+3286849D01*
X+7218250Y+3186849D02*
X+7218250Y+3213151D01*
X+7236849Y+3231750D01*
X+7263151Y+3231750D01*
X+7281750Y+3213151D01*
X+7281750Y+3186849D01*
X+7263151Y+3168250D01*
X+7236849Y+3168250D01*
X+7218250Y+3186849D01*
X+7218250Y+3086849D02*
X+7218250Y+3113151D01*
X+7236849Y+3131750D01*
X+7263151Y+3131750D01*
X+7281750Y+3113151D01*
X+7281750Y+3086849D01*
X+7263151Y+3068250D01*
X+7236849Y+3068250D01*
X+7218250Y+3086849D01*
X+7218250Y+2986849D02*
X+7218250Y+3013151D01*
X+7236849Y+3031750D01*
X+7263151Y+3031750D01*
X+7281750Y+3013151D01*
X+7281750Y+2986849D01*
X+7263151Y+2968250D01*
X+7236849Y+2968250D01*
X+7218250Y+2986849D01*
X+7218250Y+2886849D02*
X+7218250Y+2913151D01*
X+7236849Y+2931750D01*
X+7263151Y+2931750D01*
X+7281750Y+2913151D01*
X+7281750Y+2886849D01*
X+7263151Y+2868250D01*
X+7236849Y+2868250D01*
X+7218250Y+2886849D01*
X+7218250Y+2786849D02*
X+7218250Y+2813151D01*
X+7236849Y+2831750D01*
X+7263151Y+2831750D01*
X+7281750Y+2813151D01*
X+7281750Y+2786849D01*
X+7263151Y+2768250D01*
X+7236849Y+2768250D01*
X+7218250Y+2786849D01*
X+7168250Y+886849D02*
X+7168250Y+913151D01*
X+7186849Y+931750D01*
X+7213151Y+931750D01*
X+7231750Y+913151D01*
X+7231750Y+886849D01*
X+7213151Y+868250D01*
X+7186849Y+868250D01*
X+7168250Y+886849D01*
X+7168250Y+986849D02*
X+7168250Y+1013151D01*
X+7186849Y+1031750D01*
X+7213151Y+1031750D01*
X+7231750Y+1013151D01*
X+7231750Y+986849D01*
X+7213151Y+968250D01*
X+7186849Y+968250D01*
X+7168250Y+986849D01*
X+7168250Y+1086849D02*
X+7168250Y+1113151D01*
X+7186849Y+1131750D01*
X+7213151Y+1131750D01*
X+7231750Y+1113151D01*
X+7231750Y+1086849D01*
X+7213151Y+1068250D01*
X+7186849Y+1068250D01*
X+7168250Y+1086849D01*
X+7168250Y+1186849D02*
X+7168250Y+1213151D01*
X+7186849Y+1231750D01*
X+7213151Y+1231750D01*
X+7231750Y+1213151D01*
X+7231750Y+1186849D01*
X+7213151Y+1168250D01*
X+7186849Y+1168250D01*
X+7168250Y+1186849D01*
X+7168250Y+1286849D02*
X+7168250Y+1313151D01*
X+7186849Y+1331750D01*
X+7213151Y+1331750D01*
X+7231750Y+1313151D01*
X+7231750Y+1286849D01*
X+7213151Y+1268250D01*
X+7186849Y+1268250D01*
X+7168250Y+1286849D01*
X+7168250Y+1386849D02*
X+7168250Y+1413151D01*
X+7186849Y+1431750D01*
X+7213151Y+1431750D01*
X+7231750Y+1413151D01*
X+7231750Y+1386849D01*
X+7213151Y+1368250D01*
X+7186849Y+1368250D01*
X+7168250Y+1386849D01*
X+7168250Y+1486849D02*
X+7168250Y+1513151D01*
X+7186849Y+1531750D01*
X+7213151Y+1531750D01*
X+7231750Y+1513151D01*
X+7231750Y+1486849D01*
X+7213151Y+1468250D01*
X+7186849Y+1468250D01*
X+7168250Y+1486849D01*
X+7168250Y+1586849D02*
X+7168250Y+1613151D01*
X+7186849Y+1631750D01*
X+7213151Y+1631750D01*
X+7231750Y+1613151D01*
X+7231750Y+1586849D01*
X+7213151Y+1568250D01*
X+7186849Y+1568250D01*
X+7168250Y+1586849D01*
X+7168250Y+1686849D02*
X+7168250Y+1713151D01*
X+7186849Y+1731750D01*
X+7213151Y+1731750D01*
X+7231750Y+1713151D01*
X+7231750Y+1686849D01*
X+7213151Y+1668250D01*
X+7186849Y+1668250D01*
X+7168250Y+1686849D01*
X+7168250Y+1786849D02*
X+7168250Y+1813151D01*
X+7186849Y+1831750D01*
X+7213151Y+1831750D01*
X+7231750Y+1813151D01*
X+7231750Y+1786849D01*
X+7213151Y+1768250D01*
X+7186849Y+1768250D01*
X+7168250Y+1786849D01*
X+7168250Y+1886849D02*
X+7168250Y+1913151D01*
X+7186849Y+1931750D01*
X+7213151Y+1931750D01*
X+7231750Y+1913151D01*
X+7231750Y+1886849D01*
X+7213151Y+1868250D01*
X+7186849Y+1868250D01*
X+7168250Y+1886849D01*
X+7168250Y+1986849D02*
X+7168250Y+2013151D01*
X+7186849Y+2031750D01*
X+7213151Y+2031750D01*
X+7231750Y+2013151D01*
X+7231750Y+1986849D01*
X+7213151Y+1968250D01*
X+7186849Y+1968250D01*
X+7168250Y+1986849D01*
X+2708621Y+4608568D02*
X+2708621Y+4509672D01*
X+2713054Y+4505238D01*
X+1659895Y+3452079D01*
X+1565291Y+3452079D01*
X+1523179Y+3409967D01*
X+1523179Y+3655342D01*
X+2454621Y+4586784D01*
X+2454621Y+4509672D01*
X+2524552Y+4439741D01*
X+2623448Y+4439741D01*
X+2693379Y+4509672D01*
X+2693379Y+4608568D01*
X+2651469Y+4650478D01*
X+2750531Y+4650478D01*
X+2708621Y+4608568D01*
X+5406000Y+3510779D02*
X+5406000Y+3410000D01*
X+5406000Y+3309221D02*
X+5406000Y+3410000D01*
X+5305221Y+3410000D02*
X+5406000Y+3410000D01*
X+5506779Y+3410000D02*
X+5406000Y+3410000D01*
X+5700621Y+820000D02*
X+5820000Y+820000D01*
X+5939379Y+820000D02*
X+5820000Y+820000D01*
X+5820000Y+700621D02*
X+5820000Y+820000D01*
X+5820000Y+939379D02*
X+5820000Y+820000D01*
X+2680679Y+4813120D02*
X+2574000Y+4813120D01*
X+2467321Y+4813120D02*
X+2574000Y+4813120D01*
X+2574000Y+4919799D02*
X+2574000Y+4813120D01*
X+2680679Y+4559120D02*
X+2574000Y+4559120D01*
X+2467321Y+4559120D02*
X+2574000Y+4559120D01*
X+2574000Y+4452441D02*
X+2574000Y+4559120D01*
X+6490679Y+460000D02*
X+6384000Y+460000D01*
X+6277321Y+460000D02*
X+6384000Y+460000D01*
X+6384000Y+566679D02*
X+6384000Y+460000D01*
X+6384000Y+353321D02*
X+6384000Y+460000D01*
X+4458679Y+460000D02*
X+4352000Y+460000D01*
X+4245321Y+460000D02*
X+4352000Y+460000D01*
X+4352000Y+566679D02*
X+4352000Y+460000D01*
X+4352000Y+353321D02*
X+4352000Y+460000D01*
X+2680679Y+460000D02*
X+2574000Y+460000D01*
X+2467321Y+460000D02*
X+2574000Y+460000D01*
X+2574000Y+566679D02*
X+2574000Y+460000D01*
X+2574000Y+353321D02*
X+2574000Y+460000D01*
X+3442679Y+206000D02*
X+3336000Y+206000D01*
X+3229321Y+206000D02*
X+3336000Y+206000D01*
X+3336000Y+312679D02*
X+3336000Y+206000D01*
X+3336000Y+99321D02*
X+3336000Y+206000D01*
X+3950679Y+206000D02*
X+3844000Y+206000D01*
X+3737321Y+206000D02*
X+3844000Y+206000D01*
X+3844000Y+312679D02*
X+3844000Y+206000D01*
X+3844000Y+99321D02*
X+3844000Y+206000D01*
X+5220679Y+206000D02*
X+5114000Y+206000D01*
X+5007321Y+206000D02*
X+5114000Y+206000D01*
X+5114000Y+312679D02*
X+5114000Y+206000D01*
X+5114000Y+99321D02*
X+5114000Y+206000D01*
X+5982679Y+206000D02*
X+5876000Y+206000D01*
X+5769321Y+206000D02*
X+5876000Y+206000D01*
X+5876000Y+312679D02*
X+5876000Y+206000D01*
X+5876000Y+99321D02*
X+5876000Y+206000D01*
X+6998679Y+206000D02*
X+6892000Y+206000D01*
X+6785321Y+206000D02*
X+6892000Y+206000D01*
X+6892000Y+312679D02*
X+6892000Y+206000D01*
X+6892000Y+99321D02*
X+6892000Y+206000D01*
D14*
X+5660000Y+3410000D03*
D15*
X+5406000Y+3410000D03*
X+5152000Y+3410000D03*
X+4898000Y+3410000D03*
X+4644000Y+3410000D03*
X+4390000Y+3410000D03*
X+4136000Y+3410000D03*
X+3882000Y+3410000D03*
X+3882000Y+1781000D03*
X+4136000Y+1781000D03*
X+4390000Y+1781000D03*
X+4644000Y+1781000D03*
X+4898000Y+1781000D03*
X+5152000Y+1781000D03*
X+5406000Y+1781000D03*
X+5660000Y+1781000D03*
D17*
X+2720000Y+3520000D03*
X+2720000Y+3020000D03*
X+2120000Y+3320000D03*
X+1620000Y+3320000D03*
X+4020000Y+1120000D03*
X+5820000Y+1220000D03*
X+5820000Y+820000D03*
X+6320000Y+1220000D03*
X+6320000Y+820000D03*
X+6820000Y+1220000D03*
D20*
X+7400000Y+4813120D03*
D21*
X+7146000Y+4813120D03*
X+6892000Y+4813120D03*
X+6638000Y+4813120D03*
X+6384000Y+4813120D03*
X+6130000Y+4813120D03*
X+5876000Y+4813120D03*
X+5622000Y+4813120D03*
X+5368000Y+4813120D03*
X+5114000Y+4813120D03*
X+4860000Y+4813120D03*
X+4606000Y+4813120D03*
X+4352000Y+4813120D03*
X+4098000Y+4813120D03*
X+3844000Y+4813120D03*
X+3590000Y+4813120D03*
X+3336000Y+4813120D03*
X+3082000Y+4813120D03*
X+2828000Y+4813120D03*
X+2574000Y+4813120D03*
X+2574000Y+4559120D03*
X+2828000Y+4559120D03*
X+3082000Y+4559120D03*
X+3336000Y+4559120D03*
X+3590000Y+4559120D03*
X+3844000Y+4559120D03*
X+4098000Y+4559120D03*
X+4352000Y+4559120D03*
X+4606000Y+4559120D03*
X+4860000Y+4559120D03*
X+5114000Y+4559120D03*
X+5368000Y+4559120D03*
X+5622000Y+4559120D03*
X+5876000Y+4559120D03*
X+6130000Y+4559120D03*
X+6384000Y+4559120D03*
X+6638000Y+4559120D03*
X+6892000Y+4559120D03*
X+7146000Y+4559120D03*
X+7400000Y+4559120D03*
D20*
X+7400000Y+460000D03*
D21*
X+7146000Y+460000D03*
X+6892000Y+460000D03*
X+6638000Y+460000D03*
X+6384000Y+460000D03*
X+6130000Y+460000D03*
X+5876000Y+460000D03*
X+5622000Y+460000D03*
X+5368000Y+460000D03*
X+5114000Y+460000D03*
X+4860000Y+460000D03*
X+4606000Y+460000D03*
X+4352000Y+460000D03*
X+4098000Y+460000D03*
X+3844000Y+460000D03*
X+3590000Y+460000D03*
X+3336000Y+460000D03*
X+3082000Y+460000D03*
X+2828000Y+460000D03*
X+2574000Y+460000D03*
X+2574000Y+206000D03*
X+2828000Y+206000D03*
X+3082000Y+206000D03*
X+3336000Y+206000D03*
X+3590000Y+206000D03*
X+3844000Y+206000D03*
X+4098000Y+206000D03*
X+4352000Y+206000D03*
X+4606000Y+206000D03*
X+4860000Y+206000D03*
X+5114000Y+206000D03*
X+5368000Y+206000D03*
X+5622000Y+206000D03*
X+5876000Y+206000D03*
X+6130000Y+206000D03*
X+6384000Y+206000D03*
X+6638000Y+206000D03*
X+6892000Y+206000D03*
X+7146000Y+206000D03*
X+7400000Y+206000D03*
D22*
X+9000Y+9000D02*
X+10009000Y+9000D01*
X+10009000Y+5009000D01*
X+9000Y+5009000D01*
X+9000Y+9000D01*
X+9859000Y+4709000D02*
X+9858498Y+4721258D01*
X+9854422Y+4745775D01*
X+9845906Y+4770292D01*
X+9832032Y+4794809D01*
X+9810806Y+4819161D01*
X+9786289Y+4837555D01*
X+9761772Y+4849411D01*
X+9737255Y+4856315D01*
X+9712738Y+4858953D01*
X+9709000Y+4859000D01*
X+9559000Y+4709000D02*
X+9559502Y+4721258D01*
X+9563578Y+4745775D01*
X+9572094Y+4770292D01*
X+9585968Y+4794809D01*
X+9607194Y+4819161D01*
X+9631711Y+4837555D01*
X+9656228Y+4849411D01*
X+9680745Y+4856315D01*
X+9705262Y+4858953D01*
X+9709000Y+4859000D01*
X+9559000Y+4709000D02*
X+9559502Y+4696742D01*
X+9563578Y+4672225D01*
X+9572094Y+4647708D01*
X+9585968Y+4623191D01*
X+9607194Y+4598839D01*
X+9631711Y+4580445D01*
X+9656228Y+4568589D01*
X+9680745Y+4561685D01*
X+9705262Y+4559047D01*
X+9709000Y+4559000D01*
X+9859000Y+4709000D02*
X+9858498Y+4696742D01*
X+9854422Y+4672225D01*
X+9845906Y+4647708D01*
X+9832032Y+4623191D01*
X+9810806Y+4598839D01*
X+9786289Y+4580445D01*
X+9761772Y+4568589D01*
X+9737255Y+4561685D01*
X+9712738Y+4559047D01*
X+9709000Y+4559000D01*
X+9859000Y+309000D02*
X+9858498Y+321258D01*
X+9854422Y+345775D01*
X+9845906Y+370292D01*
X+9832032Y+394809D01*
X+9810806Y+419161D01*
X+9786289Y+437555D01*
X+9761772Y+449411D01*
X+9737255Y+456315D01*
X+9712738Y+458953D01*
X+9709000Y+459000D01*
X+9559000Y+309000D02*
X+9559502Y+321258D01*
X+9563578Y+345775D01*
X+9572094Y+370292D01*
X+9585968Y+394809D01*
X+9607194Y+419161D01*
X+9631711Y+437555D01*
X+9656228Y+449411D01*
X+9680745Y+456315D01*
X+9705262Y+458953D01*
X+9709000Y+459000D01*
X+9559000Y+309000D02*
X+9559502Y+296742D01*
X+9563578Y+272225D01*
X+9572094Y+247708D01*
X+9585968Y+223191D01*
X+9607194Y+198839D01*
X+9631711Y+180445D01*
X+9656228Y+168589D01*
X+9680745Y+161685D01*
X+9705262Y+159047D01*
X+9709000Y+159000D01*
X+9859000Y+309000D02*
X+9858498Y+296742D01*
X+9854422Y+272225D01*
X+9845906Y+247708D01*
X+9832032Y+223191D01*
X+9810806Y+198839D01*
X+9786289Y+180445D01*
X+9761772Y+168589D01*
X+9737255Y+161685D01*
X+9712738Y+159047D01*
X+9709000Y+159000D01*
X+459000Y+309000D02*
X+458498Y+321258D01*
X+454422Y+345775D01*
X+445906Y+370292D01*
X+432032Y+394809D01*
X+410806Y+419161D01*
X+386289Y+437555D01*
X+361772Y+449411D01*
X+337255Y+456315D01*
X+312738Y+458953D01*
X+309000Y+459000D01*
X+159000Y+309000D02*
X+159502Y+321258D01*
X+163578Y+345775D01*
X+172094Y+370292D01*
X+185968Y+394809D01*
X+207194Y+419161D01*
X+231711Y+437555D01*
X+256228Y+449411D01*
X+280745Y+456315D01*
X+305262Y+458953D01*
X+309000Y+459000D01*
X+159000Y+309000D02*
X+159502Y+296742D01*
X+163578Y+272225D01*
X+172094Y+247708D01*
X+185968Y+223191D01*
X+207194Y+198839D01*
X+231711Y+180445D01*
X+256228Y+168589D01*
X+280745Y+161685D01*
X+305262Y+159047D01*
X+309000Y+159000D01*
X+459000Y+309000D02*
X+458498Y+296742D01*
X+454422Y+272225D01*
X+445906Y+247708D01*
X+432032Y+223191D01*
X+410806Y+198839D01*
X+386289Y+180445D01*
X+361772Y+168589D01*
X+337255Y+161685D01*
X+312738Y+159047D01*
X+309000Y+159000D01*
X+459000Y+4709000D02*
X+458498Y+4721258D01*
X+454422Y+4745775D01*
X+445906Y+4770292D01*
X+432032Y+4794809D01*
X+410806Y+4819161D01*
X+386289Y+4837555D01*
X+361772Y+4849411D01*
X+337255Y+4856315D01*
X+312738Y+4858953D01*
X+309000Y+4859000D01*
X+159000Y+4709000D02*
X+159502Y+4721258D01*
X+163578Y+4745775D01*
X+172094Y+4770292D01*
X+185968Y+4794809D01*
X+207194Y+4819161D01*
X+231711Y+4837555D01*
X+256228Y+4849411D01*
X+280745Y+4856315D01*
X+305262Y+4858953D01*
X+309000Y+4859000D01*
X+159000Y+4709000D02*
X+159502Y+4696742D01*
X+163578Y+4672225D01*
X+172094Y+4647708D01*
X+185968Y+4623191D01*
X+207194Y+4598839D01*
X+231711Y+4580445D01*
X+256228Y+4568589D01*
X+280745Y+4561685D01*
X+305262Y+4559047D01*
X+309000Y+4559000D01*
X+459000Y+4709000D02*
X+458498Y+4696742D01*
X+454422Y+4672225D01*
X+445906Y+4647708D01*
X+432032Y+4623191D01*
X+410806Y+4598839D01*
X+386289Y+4580445D01*
X+361772Y+4568589D01*
X+337255Y+4561685D01*
X+312738Y+4559047D01*
X+309000Y+4559000D01*
M02*
