G04 PROTEUS GERBER X2 FILE*
%TF.GenerationSoftware,Labcenter,Proteus,8.16-SP3-Build36097*%
%TF.CreationDate,2025-11-07T09:34:26+00:00*%
%TF.FileFunction,AssemblyDrawing,Top*%
%TF.FilePolarity,Positive*%
%TF.Part,Single*%
%TF.SameCoordinates,{86f2edb6-a998-41b4-a695-59585592bfa3}*%
%FSLAX45Y45*%
%MOMM*%
G01*
%TA.AperFunction,Profile*%
%ADD20C,0.101600*%
%TA.AperFunction,Material*%
%ADD72C,0.101600*%
%ADD62C,0.812800*%
%ADD63C,0.930620*%
%ADD64C,0.508000*%
%ADD65C,0.076200*%
%ADD66C,0.440000*%
%ADD67C,0.150100*%
%ADD68C,0.084660*%
%ADD69C,0.050800*%
%ADD73C,0.063500*%
%ADD74C,0.036280*%
%ADD75C,0.042330*%
%ADD76C,0.317200*%
%ADD77C,0.711200*%
%ADD78C,0.284480*%
%ADD79C,1.063690*%
%TD.AperFunction*%
D20*
X-5528000Y-2391260D02*
X+4472000Y-2391260D01*
X+4472000Y+2608740D01*
X-5528000Y+2608740D01*
X-5528000Y-2391260D01*
X+4322000Y+2308740D02*
X+4321498Y+2320998D01*
X+4317422Y+2345515D01*
X+4308906Y+2370032D01*
X+4295032Y+2394549D01*
X+4273806Y+2418901D01*
X+4249289Y+2437295D01*
X+4224772Y+2449151D01*
X+4200255Y+2456055D01*
X+4175738Y+2458693D01*
X+4172000Y+2458740D01*
X+4022000Y+2308740D02*
X+4022502Y+2320998D01*
X+4026578Y+2345515D01*
X+4035094Y+2370032D01*
X+4048968Y+2394549D01*
X+4070194Y+2418901D01*
X+4094711Y+2437295D01*
X+4119228Y+2449151D01*
X+4143745Y+2456055D01*
X+4168262Y+2458693D01*
X+4172000Y+2458740D01*
X+4022000Y+2308740D02*
X+4022502Y+2296482D01*
X+4026578Y+2271965D01*
X+4035094Y+2247448D01*
X+4048968Y+2222931D01*
X+4070194Y+2198579D01*
X+4094711Y+2180185D01*
X+4119228Y+2168329D01*
X+4143745Y+2161425D01*
X+4168262Y+2158787D01*
X+4172000Y+2158740D01*
X+4322000Y+2308740D02*
X+4321498Y+2296482D01*
X+4317422Y+2271965D01*
X+4308906Y+2247448D01*
X+4295032Y+2222931D01*
X+4273806Y+2198579D01*
X+4249289Y+2180185D01*
X+4224772Y+2168329D01*
X+4200255Y+2161425D01*
X+4175738Y+2158787D01*
X+4172000Y+2158740D01*
X+4322000Y-2091260D02*
X+4321498Y-2079002D01*
X+4317422Y-2054485D01*
X+4308906Y-2029968D01*
X+4295032Y-2005451D01*
X+4273806Y-1981099D01*
X+4249289Y-1962705D01*
X+4224772Y-1950849D01*
X+4200255Y-1943945D01*
X+4175738Y-1941307D01*
X+4172000Y-1941260D01*
X+4022000Y-2091260D02*
X+4022502Y-2079002D01*
X+4026578Y-2054485D01*
X+4035094Y-2029968D01*
X+4048968Y-2005451D01*
X+4070194Y-1981099D01*
X+4094711Y-1962705D01*
X+4119228Y-1950849D01*
X+4143745Y-1943945D01*
X+4168262Y-1941307D01*
X+4172000Y-1941260D01*
X+4022000Y-2091260D02*
X+4022502Y-2103518D01*
X+4026578Y-2128035D01*
X+4035094Y-2152552D01*
X+4048968Y-2177069D01*
X+4070194Y-2201421D01*
X+4094711Y-2219815D01*
X+4119228Y-2231671D01*
X+4143745Y-2238575D01*
X+4168262Y-2241213D01*
X+4172000Y-2241260D01*
X+4322000Y-2091260D02*
X+4321498Y-2103518D01*
X+4317422Y-2128035D01*
X+4308906Y-2152552D01*
X+4295032Y-2177069D01*
X+4273806Y-2201421D01*
X+4249289Y-2219815D01*
X+4224772Y-2231671D01*
X+4200255Y-2238575D01*
X+4175738Y-2241213D01*
X+4172000Y-2241260D01*
X-5078000Y-2091260D02*
X-5078502Y-2079002D01*
X-5082578Y-2054485D01*
X-5091094Y-2029968D01*
X-5104968Y-2005451D01*
X-5126194Y-1981099D01*
X-5150711Y-1962705D01*
X-5175228Y-1950849D01*
X-5199745Y-1943945D01*
X-5224262Y-1941307D01*
X-5228000Y-1941260D01*
X-5378000Y-2091260D02*
X-5377498Y-2079002D01*
X-5373422Y-2054485D01*
X-5364906Y-2029968D01*
X-5351032Y-2005451D01*
X-5329806Y-1981099D01*
X-5305289Y-1962705D01*
X-5280772Y-1950849D01*
X-5256255Y-1943945D01*
X-5231738Y-1941307D01*
X-5228000Y-1941260D01*
X-5378000Y-2091260D02*
X-5377498Y-2103518D01*
X-5373422Y-2128035D01*
X-5364906Y-2152552D01*
X-5351032Y-2177069D01*
X-5329806Y-2201421D01*
X-5305289Y-2219815D01*
X-5280772Y-2231671D01*
X-5256255Y-2238575D01*
X-5231738Y-2241213D01*
X-5228000Y-2241260D01*
X-5078000Y-2091260D02*
X-5078502Y-2103518D01*
X-5082578Y-2128035D01*
X-5091094Y-2152552D01*
X-5104968Y-2177069D01*
X-5126194Y-2201421D01*
X-5150711Y-2219815D01*
X-5175228Y-2231671D01*
X-5199745Y-2238575D01*
X-5224262Y-2241213D01*
X-5228000Y-2241260D01*
X-5078000Y+2308740D02*
X-5078502Y+2320998D01*
X-5082578Y+2345515D01*
X-5091094Y+2370032D01*
X-5104968Y+2394549D01*
X-5126194Y+2418901D01*
X-5150711Y+2437295D01*
X-5175228Y+2449151D01*
X-5199745Y+2456055D01*
X-5224262Y+2458693D01*
X-5228000Y+2458740D01*
X-5378000Y+2308740D02*
X-5377498Y+2320998D01*
X-5373422Y+2345515D01*
X-5364906Y+2370032D01*
X-5351032Y+2394549D01*
X-5329806Y+2418901D01*
X-5305289Y+2437295D01*
X-5280772Y+2449151D01*
X-5256255Y+2456055D01*
X-5231738Y+2458693D01*
X-5228000Y+2458740D01*
X-5378000Y+2308740D02*
X-5377498Y+2296482D01*
X-5373422Y+2271965D01*
X-5364906Y+2247448D01*
X-5351032Y+2222931D01*
X-5329806Y+2198579D01*
X-5305289Y+2180185D01*
X-5280772Y+2168329D01*
X-5256255Y+2161425D01*
X-5231738Y+2158787D01*
X-5228000Y+2158740D01*
X-5078000Y+2308740D02*
X-5078502Y+2296482D01*
X-5082578Y+2271965D01*
X-5091094Y+2247448D01*
X-5104968Y+2222931D01*
X-5126194Y+2198579D01*
X-5150711Y+2180185D01*
X-5175228Y+2168329D01*
X-5199745Y+2161425D01*
X-5224262Y+2158787D01*
X-5228000Y+2158740D01*
D72*
X-4085080Y-1045080D02*
X-147920Y-1045080D01*
X-147920Y+1625080D01*
X-4085080Y+1625080D01*
X-4085080Y-1045080D01*
D62*
X-280000Y+520000D02*
X-280000Y+520000D01*
D63*
X-3040423Y+10812D02*
X-3040423Y+569187D01*
X-2726337Y+290000D01*
X-2412251Y+569187D01*
X-2412251Y+10812D01*
X-1574688Y+196937D02*
X-2202860Y+196937D01*
X-1784079Y+569187D01*
X-1784079Y+10812D01*
D72*
X-5320800Y+1276500D02*
X-5005840Y+1276500D01*
X-5005840Y+1408580D01*
X-5320800Y+1408580D01*
X-5320800Y+1276500D01*
D64*
X-5056640Y+1340000D02*
X-5056640Y+1340000D01*
D65*
X-5270000Y+1319680D02*
X-5270000Y+1365400D01*
X-5227138Y+1365400D01*
X-5218565Y+1357780D01*
X-5218565Y+1350160D01*
X-5227138Y+1342540D01*
X-5270000Y+1342540D01*
X-5227138Y+1342540D02*
X-5218565Y+1334920D01*
X-5218565Y+1319680D01*
X-5184275Y+1350160D02*
X-5167130Y+1365400D01*
X-5167130Y+1319680D01*
D72*
X-5320800Y+976500D02*
X-5005840Y+976500D01*
X-5005840Y+1108580D01*
X-5320800Y+1108580D01*
X-5320800Y+976500D01*
D64*
X-5056640Y+1040000D02*
X-5056640Y+1040000D01*
D65*
X-5270000Y+1019680D02*
X-5270000Y+1065400D01*
X-5227138Y+1065400D01*
X-5218565Y+1057780D01*
X-5218565Y+1050160D01*
X-5227138Y+1042540D01*
X-5270000Y+1042540D01*
X-5227138Y+1042540D02*
X-5218565Y+1034920D01*
X-5218565Y+1019680D01*
X-5192848Y+1057780D02*
X-5184275Y+1065400D01*
X-5158558Y+1065400D01*
X-5149985Y+1057780D01*
X-5149985Y+1050160D01*
X-5158558Y+1042540D01*
X-5184275Y+1042540D01*
X-5192848Y+1034920D01*
X-5192848Y+1019680D01*
X-5149985Y+1019680D01*
D72*
X-4559160Y+2246420D02*
X-4244200Y+2246420D01*
X-4244200Y+2378500D01*
X-4559160Y+2378500D01*
X-4559160Y+2246420D01*
D64*
X-4508360Y+2315000D02*
X-4508360Y+2315000D01*
D65*
X-4380725Y+2297220D02*
X-4389298Y+2289600D01*
X-4415015Y+2289600D01*
X-4432160Y+2304840D01*
X-4432160Y+2320080D01*
X-4415015Y+2335320D01*
X-4389298Y+2335320D01*
X-4380725Y+2327700D01*
X-4346435Y+2320080D02*
X-4329290Y+2335320D01*
X-4329290Y+2289600D01*
D72*
X-4665000Y+1720000D02*
X-4155000Y+1720000D01*
X-4155000Y+2160000D01*
X-4665000Y+2160000D01*
X-4665000Y+1720000D01*
D66*
X-4210000Y+2130000D02*
X-4210000Y+2130000D01*
D67*
X-4545090Y+1959030D02*
X-4545090Y+1883980D01*
X-4528204Y+1868970D01*
X-4460659Y+1868970D01*
X-4443773Y+1883980D01*
X-4443773Y+1959030D01*
X-4376228Y+1929010D02*
X-4342455Y+1959030D01*
X-4342455Y+1868970D01*
D72*
X+2537920Y+2147920D02*
X+2802080Y+2147920D01*
X+2802080Y+2412080D01*
X+2537920Y+2412080D01*
X+2537920Y+2147920D01*
D68*
X+2565226Y+2296933D02*
X+2574751Y+2305399D01*
X+2603326Y+2305399D01*
X+2612851Y+2296933D01*
X+2612851Y+2288466D01*
X+2603326Y+2280000D01*
X+2612851Y+2271533D01*
X+2612851Y+2263066D01*
X+2603326Y+2254600D01*
X+2574751Y+2254600D01*
X+2565226Y+2263066D01*
X+2584276Y+2280000D02*
X+2603326Y+2280000D01*
X+2631901Y+2305399D02*
X+2631901Y+2280000D01*
X+2660475Y+2254600D01*
X+2689050Y+2280000D01*
X+2689050Y+2305399D01*
X+2717624Y+2296933D02*
X+2727149Y+2305399D01*
X+2755724Y+2305399D01*
X+2765249Y+2296933D01*
X+2765249Y+2288466D01*
X+2755724Y+2280000D01*
X+2765249Y+2271533D01*
X+2765249Y+2263066D01*
X+2755724Y+2254600D01*
X+2727149Y+2254600D01*
X+2717624Y+2263066D01*
X+2736674Y+2280000D02*
X+2755724Y+2280000D01*
D72*
X+2537920Y+1747920D02*
X+2802080Y+1747920D01*
X+2802080Y+2012080D01*
X+2537920Y+2012080D01*
X+2537920Y+1747920D01*
D68*
X+2593801Y+1871533D02*
X+2612851Y+1871533D01*
X+2612851Y+1854600D01*
X+2574751Y+1854600D01*
X+2555702Y+1871533D01*
X+2555702Y+1888466D01*
X+2574751Y+1905399D01*
X+2603326Y+1905399D01*
X+2612851Y+1896933D01*
X+2631901Y+1854600D02*
X+2631901Y+1905399D01*
X+2689050Y+1854600D01*
X+2689050Y+1905399D01*
X+2708100Y+1854600D02*
X+2708100Y+1905399D01*
X+2746199Y+1905399D01*
X+2765249Y+1888466D01*
X+2765249Y+1871533D01*
X+2746199Y+1854600D01*
X+2708100Y+1854600D01*
D72*
X+3417920Y+1797920D02*
X+3682080Y+1797920D01*
X+3682080Y+2062080D01*
X+3417920Y+2062080D01*
X+3417920Y+1797920D01*
D69*
X+3435700Y+1914760D02*
X+3435700Y+1945240D01*
X+3452845Y+1930000D01*
X+3469990Y+1945240D01*
X+3469990Y+1914760D01*
X+3487135Y+1940160D02*
X+3492850Y+1945240D01*
X+3509995Y+1945240D01*
X+3515710Y+1940160D01*
X+3515710Y+1935080D01*
X+3509995Y+1930000D01*
X+3492850Y+1930000D01*
X+3487135Y+1924920D01*
X+3487135Y+1914760D01*
X+3515710Y+1914760D01*
X+3527140Y+1909680D02*
X+3561430Y+1909680D01*
X+3572860Y+1935080D02*
X+3584290Y+1945240D01*
X+3595720Y+1945240D01*
X+3607150Y+1935080D01*
X+3607150Y+1924920D01*
X+3595720Y+1914760D01*
X+3584290Y+1914760D01*
X+3572860Y+1924920D01*
X+3572860Y+1935080D01*
X+3618580Y+1914760D02*
X+3618580Y+1945240D01*
X+3652870Y+1914760D01*
X+3652870Y+1945240D01*
D72*
X+3027920Y+1307920D02*
X+3292080Y+1307920D01*
X+3292080Y+1572080D01*
X+3027920Y+1572080D01*
X+3027920Y+1307920D01*
D69*
X+3079990Y+1455240D02*
X+3051415Y+1455240D01*
X+3051415Y+1445080D01*
X+3074275Y+1445080D01*
X+3079990Y+1440000D01*
X+3079990Y+1429840D01*
X+3074275Y+1424760D01*
X+3057130Y+1424760D01*
X+3051415Y+1429840D01*
X+3091420Y+1455240D02*
X+3091420Y+1440000D01*
X+3108565Y+1424760D01*
X+3125710Y+1440000D01*
X+3125710Y+1455240D01*
X+3137140Y+1419680D02*
X+3171430Y+1419680D01*
X+3217150Y+1429840D02*
X+3211435Y+1424760D01*
X+3194290Y+1424760D01*
X+3182860Y+1434920D01*
X+3182860Y+1445080D01*
X+3194290Y+1455240D01*
X+3211435Y+1455240D01*
X+3217150Y+1450160D01*
X+3262870Y+1424760D02*
X+3228580Y+1424760D01*
X+3228580Y+1455240D01*
X+3262870Y+1455240D01*
X+3228580Y+1440000D02*
X+3251440Y+1440000D01*
D72*
X+3647920Y+1297920D02*
X+3912080Y+1297920D01*
X+3912080Y+1562080D01*
X+3647920Y+1562080D01*
X+3647920Y+1297920D01*
D69*
X+3699990Y+1445240D02*
X+3671415Y+1445240D01*
X+3671415Y+1435080D01*
X+3694275Y+1435080D01*
X+3699990Y+1430000D01*
X+3699990Y+1419840D01*
X+3694275Y+1414760D01*
X+3677130Y+1414760D01*
X+3671415Y+1419840D01*
X+3711420Y+1445240D02*
X+3711420Y+1430000D01*
X+3728565Y+1414760D01*
X+3745710Y+1430000D01*
X+3745710Y+1445240D01*
X+3757140Y+1409680D02*
X+3791430Y+1409680D01*
X+3802860Y+1445240D02*
X+3802860Y+1419840D01*
X+3808575Y+1414760D01*
X+3831435Y+1414760D01*
X+3837150Y+1419840D01*
X+3837150Y+1445240D01*
X+3848580Y+1414760D02*
X+3848580Y+1445240D01*
X+3877155Y+1445240D01*
X+3882870Y+1440160D01*
X+3882870Y+1435080D01*
X+3877155Y+1430000D01*
X+3848580Y+1430000D01*
D72*
X+3037920Y+557920D02*
X+3302080Y+557920D01*
X+3302080Y+822080D01*
X+3037920Y+822080D01*
X+3037920Y+557920D01*
D73*
X+3098562Y+670950D02*
X+3055700Y+670950D01*
X+3055700Y+709050D01*
X+3098562Y+709050D01*
X+3055700Y+690000D02*
X+3084275Y+690000D01*
X+3112850Y+670950D02*
X+3112850Y+709050D01*
X+3155712Y+670950D01*
X+3155712Y+709050D01*
X+3212862Y+709050D02*
X+3177143Y+709050D01*
X+3177143Y+696350D01*
X+3205718Y+696350D01*
X+3212862Y+690000D01*
X+3212862Y+677300D01*
X+3205718Y+670950D01*
X+3184287Y+670950D01*
X+3177143Y+677300D01*
X+3227150Y+709050D02*
X+3227150Y+690000D01*
X+3248581Y+670950D01*
X+3270012Y+690000D01*
X+3270012Y+709050D01*
D72*
X+3037920Y+157920D02*
X+3302080Y+157920D01*
X+3302080Y+422080D01*
X+3037920Y+422080D01*
X+3037920Y+157920D01*
D69*
X+3089990Y+274760D02*
X+3055700Y+274760D01*
X+3055700Y+305240D01*
X+3089990Y+305240D01*
X+3055700Y+290000D02*
X+3078560Y+290000D01*
X+3101420Y+274760D02*
X+3101420Y+305240D01*
X+3135710Y+274760D01*
X+3135710Y+305240D01*
X+3158570Y+295080D02*
X+3170000Y+305240D01*
X+3170000Y+274760D01*
X+3192860Y+305240D02*
X+3192860Y+290000D01*
X+3210005Y+274760D01*
X+3227150Y+290000D01*
X+3227150Y+305240D01*
X+3272870Y+284920D02*
X+3238580Y+284920D01*
X+3261440Y+305240D01*
X+3261440Y+274760D01*
D72*
X+3747920Y+137920D02*
X+4012080Y+137920D01*
X+4012080Y+402080D01*
X+3747920Y+402080D01*
X+3747920Y+137920D01*
D69*
X+3799990Y+285240D02*
X+3771415Y+285240D01*
X+3771415Y+275080D01*
X+3794275Y+275080D01*
X+3799990Y+270000D01*
X+3799990Y+259840D01*
X+3794275Y+254760D01*
X+3777130Y+254760D01*
X+3771415Y+259840D01*
X+3811420Y+285240D02*
X+3811420Y+270000D01*
X+3828565Y+254760D01*
X+3845710Y+270000D01*
X+3845710Y+285240D01*
X+3857140Y+249680D02*
X+3891430Y+249680D01*
X+3902860Y+254760D02*
X+3902860Y+285240D01*
X+3920005Y+270000D01*
X+3937150Y+285240D01*
X+3937150Y+254760D01*
X+3982870Y+264920D02*
X+3948580Y+264920D01*
X+3971440Y+285240D01*
X+3971440Y+254760D01*
D72*
X+417920Y+717920D02*
X+682080Y+717920D01*
X+682080Y+982080D01*
X+417920Y+982080D01*
X+417920Y+717920D01*
D74*
X+439786Y+860886D02*
X+456114Y+860886D01*
X+447950Y+860886D02*
X+447950Y+839115D01*
X+439786Y+839115D02*
X+456114Y+839115D01*
X+492852Y+842743D02*
X+488770Y+839115D01*
X+476524Y+839115D01*
X+468360Y+846372D01*
X+468360Y+853629D01*
X+476524Y+860886D01*
X+488770Y+860886D01*
X+492852Y+857257D01*
X+525508Y+839115D02*
X+501016Y+839115D01*
X+501016Y+860886D01*
X+525508Y+860886D01*
X+501016Y+850000D02*
X+517344Y+850000D01*
X+533672Y+839115D02*
X+533672Y+860886D01*
X+545918Y+850000D01*
X+558164Y+860886D01*
X+558164Y+839115D01*
X+566328Y+853629D02*
X+574492Y+860886D01*
X+582656Y+860886D01*
X+590820Y+853629D01*
X+590820Y+846372D01*
X+582656Y+839115D01*
X+574492Y+839115D01*
X+566328Y+846372D01*
X+566328Y+853629D01*
X+598984Y+842743D02*
X+603066Y+839115D01*
X+619394Y+839115D01*
X+623476Y+842743D01*
X+623476Y+846372D01*
X+619394Y+850000D01*
X+603066Y+850000D01*
X+598984Y+853629D01*
X+598984Y+857257D01*
X+603066Y+860886D01*
X+619394Y+860886D01*
X+623476Y+857257D01*
X+635722Y+860886D02*
X+652050Y+860886D01*
X+643886Y+860886D02*
X+643886Y+839115D01*
X+635722Y+839115D02*
X+652050Y+839115D01*
D72*
X+1447920Y+707920D02*
X+1712080Y+707920D01*
X+1712080Y+972080D01*
X+1447920Y+972080D01*
X+1447920Y+707920D01*
D69*
X+1465700Y+824760D02*
X+1465700Y+855240D01*
X+1494275Y+855240D01*
X+1499990Y+850160D01*
X+1499990Y+845080D01*
X+1494275Y+840000D01*
X+1499990Y+834920D01*
X+1499990Y+829840D01*
X+1494275Y+824760D01*
X+1465700Y+824760D01*
X+1465700Y+840000D02*
X+1494275Y+840000D01*
X+1511420Y+824760D02*
X+1511420Y+855240D01*
X+1528565Y+840000D01*
X+1545710Y+855240D01*
X+1545710Y+824760D01*
X+1591430Y+824760D02*
X+1557140Y+824760D01*
X+1557140Y+855240D01*
X+1591430Y+855240D01*
X+1557140Y+840000D02*
X+1580000Y+840000D01*
X+1637150Y+829840D02*
X+1631435Y+824760D01*
X+1614290Y+824760D01*
X+1602860Y+834920D01*
X+1602860Y+845080D01*
X+1614290Y+855240D01*
X+1631435Y+855240D01*
X+1637150Y+850160D01*
X+1648580Y+829840D02*
X+1654295Y+824760D01*
X+1677155Y+824760D01*
X+1682870Y+829840D01*
X+1682870Y+834920D01*
X+1677155Y+840000D01*
X+1654295Y+840000D01*
X+1648580Y+845080D01*
X+1648580Y+850160D01*
X+1654295Y+855240D01*
X+1677155Y+855240D01*
X+1682870Y+850160D01*
D72*
X+467920Y+137920D02*
X+732080Y+137920D01*
X+732080Y+402080D01*
X+467920Y+402080D01*
X+467920Y+137920D01*
D74*
X+489786Y+280886D02*
X+506114Y+280886D01*
X+497950Y+280886D02*
X+497950Y+259115D01*
X+489786Y+259115D02*
X+506114Y+259115D01*
X+542852Y+262743D02*
X+538770Y+259115D01*
X+526524Y+259115D01*
X+518360Y+266372D01*
X+518360Y+273629D01*
X+526524Y+280886D01*
X+538770Y+280886D01*
X+542852Y+277257D01*
X+575508Y+259115D02*
X+551016Y+259115D01*
X+551016Y+280886D01*
X+575508Y+280886D01*
X+551016Y+270000D02*
X+567344Y+270000D01*
X+583672Y+259115D02*
X+583672Y+280886D01*
X+595918Y+270000D01*
X+608164Y+280886D01*
X+608164Y+259115D01*
X+620410Y+280886D02*
X+636738Y+280886D01*
X+628574Y+280886D02*
X+628574Y+259115D01*
X+620410Y+259115D02*
X+636738Y+259115D01*
X+648984Y+262743D02*
X+653066Y+259115D01*
X+669394Y+259115D01*
X+673476Y+262743D01*
X+673476Y+266372D01*
X+669394Y+270000D01*
X+653066Y+270000D01*
X+648984Y+273629D01*
X+648984Y+277257D01*
X+653066Y+280886D01*
X+669394Y+280886D01*
X+673476Y+277257D01*
X+681640Y+273629D02*
X+689804Y+280886D01*
X+697968Y+280886D01*
X+706132Y+273629D01*
X+706132Y+266372D01*
X+697968Y+259115D01*
X+689804Y+259115D01*
X+681640Y+266372D01*
X+681640Y+273629D01*
D72*
X+477920Y-352080D02*
X+742080Y-352080D01*
X+742080Y-87920D01*
X+477920Y-87920D01*
X+477920Y-352080D01*
D75*
X+500465Y-207300D02*
X+519514Y-207300D01*
X+509990Y-207300D02*
X+509990Y-232700D01*
X+500465Y-232700D02*
X+519514Y-232700D01*
X+562376Y-228467D02*
X+557613Y-232700D01*
X+543326Y-232700D01*
X+533802Y-224233D01*
X+533802Y-215767D01*
X+543326Y-207300D01*
X+557613Y-207300D01*
X+562376Y-211533D01*
X+600475Y-232700D02*
X+571901Y-232700D01*
X+571901Y-207300D01*
X+600475Y-207300D01*
X+571901Y-220000D02*
X+590950Y-220000D01*
X+610000Y-228467D02*
X+614762Y-232700D01*
X+633811Y-232700D01*
X+638574Y-228467D01*
X+638574Y-224233D01*
X+633811Y-220000D01*
X+614762Y-220000D01*
X+610000Y-215767D01*
X+610000Y-211533D01*
X+614762Y-207300D01*
X+633811Y-207300D01*
X+638574Y-211533D01*
X+676673Y-228467D02*
X+671910Y-232700D01*
X+657623Y-232700D01*
X+648099Y-224233D01*
X+648099Y-215767D01*
X+657623Y-207300D01*
X+671910Y-207300D01*
X+676673Y-211533D01*
X+686198Y-207300D02*
X+686198Y-232700D01*
X+714772Y-207300D02*
X+700485Y-220000D01*
X+714772Y-232700D01*
X+686198Y-220000D02*
X+700485Y-220000D01*
D72*
X+1277920Y-622080D02*
X+1542080Y-622080D01*
X+1542080Y-357920D01*
X+1277920Y-357920D01*
X+1277920Y-622080D01*
D69*
X+1295700Y-505240D02*
X+1295700Y-484920D01*
X+1307130Y-474760D01*
X+1318560Y-474760D01*
X+1329990Y-484920D01*
X+1329990Y-505240D01*
X+1295700Y-495080D02*
X+1329990Y-495080D01*
X+1341420Y-505240D02*
X+1341420Y-474760D01*
X+1364280Y-474760D01*
X+1375710Y-484920D01*
X+1375710Y-495080D01*
X+1364280Y-505240D01*
X+1341420Y-505240D01*
X+1421430Y-500160D02*
X+1415715Y-505240D01*
X+1398570Y-505240D01*
X+1387140Y-495080D01*
X+1387140Y-484920D01*
X+1398570Y-474760D01*
X+1415715Y-474760D01*
X+1421430Y-479840D01*
X+1467150Y-500160D02*
X+1461435Y-505240D01*
X+1444290Y-505240D01*
X+1432860Y-495080D01*
X+1432860Y-484920D01*
X+1444290Y-474760D01*
X+1461435Y-474760D01*
X+1467150Y-479840D01*
X+1478580Y-500160D02*
X+1484295Y-505240D01*
X+1507155Y-505240D01*
X+1512870Y-500160D01*
X+1512870Y-495080D01*
X+1507155Y-490000D01*
X+1484295Y-490000D01*
X+1478580Y-484920D01*
X+1478580Y-479840D01*
X+1484295Y-474760D01*
X+1507155Y-474760D01*
X+1512870Y-479840D01*
D72*
X+2077920Y-592080D02*
X+2342080Y-592080D01*
X+2342080Y-327920D01*
X+2077920Y-327920D01*
X+2077920Y-592080D01*
D68*
X+2152851Y-476934D02*
X+2143326Y-485400D01*
X+2114751Y-485400D01*
X+2095702Y-468467D01*
X+2095702Y-451534D01*
X+2114751Y-434601D01*
X+2143326Y-434601D01*
X+2152851Y-443067D01*
X+2171901Y-485400D02*
X+2171901Y-434601D01*
X+2229050Y-434601D02*
X+2229050Y-485400D01*
X+2171901Y-460000D02*
X+2229050Y-460000D01*
X+2248100Y-476934D02*
X+2248100Y-443067D01*
X+2257624Y-434601D01*
X+2295724Y-434601D01*
X+2305249Y-443067D01*
X+2305249Y-476934D01*
X+2295724Y-485400D01*
X+2257624Y-485400D01*
X+2248100Y-476934D01*
X+2248100Y-485400D02*
X+2305249Y-434601D01*
D72*
X+2477920Y-592080D02*
X+2742080Y-592080D01*
X+2742080Y-327920D01*
X+2477920Y-327920D01*
X+2477920Y-592080D01*
D68*
X+2552851Y-476934D02*
X+2543326Y-485400D01*
X+2514751Y-485400D01*
X+2495702Y-468467D01*
X+2495702Y-451534D01*
X+2514751Y-434601D01*
X+2543326Y-434601D01*
X+2552851Y-443067D01*
X+2571901Y-485400D02*
X+2571901Y-434601D01*
X+2629050Y-434601D02*
X+2629050Y-485400D01*
X+2571901Y-460000D02*
X+2629050Y-460000D01*
X+2657624Y-443067D02*
X+2667149Y-434601D01*
X+2695724Y-434601D01*
X+2705249Y-443067D01*
X+2705249Y-451534D01*
X+2695724Y-460000D01*
X+2667149Y-460000D01*
X+2657624Y-468467D01*
X+2657624Y-485400D01*
X+2705249Y-485400D01*
D72*
X+2077920Y-992080D02*
X+2342080Y-992080D01*
X+2342080Y-727920D01*
X+2077920Y-727920D01*
X+2077920Y-992080D01*
D68*
X+2152851Y-876934D02*
X+2143326Y-885400D01*
X+2114751Y-885400D01*
X+2095702Y-868467D01*
X+2095702Y-851534D01*
X+2114751Y-834601D01*
X+2143326Y-834601D01*
X+2152851Y-843067D01*
X+2171901Y-885400D02*
X+2171901Y-834601D01*
X+2229050Y-834601D02*
X+2229050Y-885400D01*
X+2171901Y-860000D02*
X+2229050Y-860000D01*
X+2267149Y-851534D02*
X+2286199Y-834601D01*
X+2286199Y-885400D01*
D72*
X+2477920Y-992080D02*
X+2742080Y-992080D01*
X+2742080Y-727920D01*
X+2477920Y-727920D01*
X+2477920Y-992080D01*
D68*
X+2552851Y-876934D02*
X+2543326Y-885400D01*
X+2514751Y-885400D01*
X+2495702Y-868467D01*
X+2495702Y-851534D01*
X+2514751Y-834601D01*
X+2543326Y-834601D01*
X+2552851Y-843067D01*
X+2571901Y-885400D02*
X+2571901Y-834601D01*
X+2629050Y-834601D02*
X+2629050Y-885400D01*
X+2571901Y-860000D02*
X+2629050Y-860000D01*
X+2657624Y-843067D02*
X+2667149Y-834601D01*
X+2695724Y-834601D01*
X+2705249Y-843067D01*
X+2705249Y-851534D01*
X+2695724Y-860000D01*
X+2705249Y-868467D01*
X+2705249Y-876934D01*
X+2695724Y-885400D01*
X+2667149Y-885400D01*
X+2657624Y-876934D01*
X+2676674Y-860000D02*
X+2695724Y-860000D01*
D72*
X-4862080Y+1207920D02*
X-4597920Y+1207920D01*
X-4597920Y+1472080D01*
X-4862080Y+1472080D01*
X-4862080Y+1207920D01*
D68*
X-4844298Y+1323066D02*
X-4834774Y+1314600D01*
X-4796674Y+1314600D01*
X-4787149Y+1323066D01*
X-4787149Y+1331533D01*
X-4796674Y+1340000D01*
X-4834774Y+1340000D01*
X-4844298Y+1348466D01*
X-4844298Y+1356933D01*
X-4834774Y+1365399D01*
X-4796674Y+1365399D01*
X-4787149Y+1356933D01*
X-4710950Y+1323066D02*
X-4720475Y+1314600D01*
X-4749050Y+1314600D01*
X-4768099Y+1331533D01*
X-4768099Y+1348466D01*
X-4749050Y+1365399D01*
X-4720475Y+1365399D01*
X-4710950Y+1356933D01*
X-4691900Y+1365399D02*
X-4691900Y+1314600D01*
X-4634751Y+1314600D01*
D72*
X-4862080Y+907920D02*
X-4597920Y+907920D01*
X-4597920Y+1172080D01*
X-4862080Y+1172080D01*
X-4862080Y+907920D01*
D68*
X-4844298Y+1023066D02*
X-4834774Y+1014600D01*
X-4796674Y+1014600D01*
X-4787149Y+1023066D01*
X-4787149Y+1031533D01*
X-4796674Y+1040000D01*
X-4834774Y+1040000D01*
X-4844298Y+1048466D01*
X-4844298Y+1056933D01*
X-4834774Y+1065399D01*
X-4796674Y+1065399D01*
X-4787149Y+1056933D01*
X-4768099Y+1014600D02*
X-4768099Y+1065399D01*
X-4730000Y+1065399D01*
X-4710950Y+1048466D01*
X-4710950Y+1031533D01*
X-4730000Y+1014600D01*
X-4768099Y+1014600D01*
X-4691900Y+1014600D02*
X-4691900Y+1048466D01*
X-4672851Y+1065399D01*
X-4653801Y+1065399D01*
X-4634751Y+1048466D01*
X-4634751Y+1014600D01*
X-4691900Y+1031533D02*
X-4634751Y+1031533D01*
D72*
X-2922080Y+207920D02*
X-2657920Y+207920D01*
X-2657920Y+472080D01*
X-2922080Y+472080D01*
X-2922080Y+207920D01*
D75*
X-2885248Y+335767D02*
X-2875723Y+335767D01*
X-2875723Y+327300D01*
X-2894773Y+327300D01*
X-2904297Y+335767D01*
X-2904297Y+344233D01*
X-2894773Y+352700D01*
X-2880486Y+352700D01*
X-2875723Y+348467D01*
X-2866198Y+327300D02*
X-2866198Y+352700D01*
X-2842387Y+352700D01*
X-2837624Y+348467D01*
X-2837624Y+344233D01*
X-2842387Y+340000D01*
X-2866198Y+340000D01*
X-2828099Y+331533D02*
X-2823337Y+327300D01*
X-2804288Y+327300D01*
X-2799525Y+331533D01*
X-2799525Y+335767D01*
X-2804288Y+340000D01*
X-2823337Y+340000D01*
X-2828099Y+344233D01*
X-2828099Y+348467D01*
X-2823337Y+352700D01*
X-2804288Y+352700D01*
X-2799525Y+348467D01*
X-2790000Y+323067D02*
X-2761426Y+323067D01*
X-2751901Y+352700D02*
X-2723327Y+352700D01*
X-2737614Y+352700D02*
X-2737614Y+327300D01*
X-2713802Y+352700D02*
X-2685228Y+327300D01*
X-2713802Y+327300D02*
X-2685228Y+352700D01*
D72*
X-2922080Y-292080D02*
X-2657920Y-292080D01*
X-2657920Y-27920D01*
X-2922080Y-27920D01*
X-2922080Y-292080D01*
D75*
X-2885248Y-164233D02*
X-2875723Y-164233D01*
X-2875723Y-172700D01*
X-2894773Y-172700D01*
X-2904297Y-164233D01*
X-2904297Y-155767D01*
X-2894773Y-147300D01*
X-2880486Y-147300D01*
X-2875723Y-151533D01*
X-2866198Y-172700D02*
X-2866198Y-147300D01*
X-2842387Y-147300D01*
X-2837624Y-151533D01*
X-2837624Y-155767D01*
X-2842387Y-160000D01*
X-2866198Y-160000D01*
X-2828099Y-168467D02*
X-2823337Y-172700D01*
X-2804288Y-172700D01*
X-2799525Y-168467D01*
X-2799525Y-164233D01*
X-2804288Y-160000D01*
X-2823337Y-160000D01*
X-2828099Y-155767D01*
X-2828099Y-151533D01*
X-2823337Y-147300D01*
X-2804288Y-147300D01*
X-2799525Y-151533D01*
X-2790000Y-176933D02*
X-2761426Y-176933D01*
X-2751901Y-172700D02*
X-2751901Y-147300D01*
X-2728090Y-147300D01*
X-2723327Y-151533D01*
X-2723327Y-155767D01*
X-2728090Y-160000D01*
X-2751901Y-160000D01*
X-2728090Y-160000D02*
X-2723327Y-164233D01*
X-2723327Y-172700D01*
X-2713802Y-147300D02*
X-2685228Y-172700D01*
X-2713802Y-172700D02*
X-2685228Y-147300D01*
D72*
X-5014800Y-2373420D02*
X-3434640Y-2373420D01*
X-3434640Y-1053260D01*
X-5014800Y-1053260D01*
X-5014800Y-2373420D01*
D62*
X-3590000Y-2220000D02*
X-3590000Y-2220000D01*
D76*
X-4608200Y-1808500D02*
X-4608200Y-1618180D01*
X-4501145Y-1713340D01*
X-4394090Y-1618180D01*
X-4394090Y-1808500D01*
X-4287035Y-1649900D02*
X-4251350Y-1618180D01*
X-4144295Y-1618180D01*
X-4108610Y-1649900D01*
X-4108610Y-1681620D01*
X-4144295Y-1713340D01*
X-4108610Y-1745060D01*
X-4108610Y-1776780D01*
X-4144295Y-1808500D01*
X-4251350Y-1808500D01*
X-4287035Y-1776780D01*
X-4215665Y-1713340D02*
X-4144295Y-1713340D01*
D72*
X+4107920Y-1722080D02*
X+4372080Y-1722080D01*
X+4372080Y-1457920D01*
X+4107920Y-1457920D01*
X+4107920Y-1722080D01*
D68*
X+4125702Y-1615400D02*
X+4125702Y-1564601D01*
X+4173326Y-1564601D01*
X+4182851Y-1573067D01*
X+4182851Y-1581534D01*
X+4173326Y-1590000D01*
X+4125702Y-1590000D01*
X+4211425Y-1573067D02*
X+4220950Y-1564601D01*
X+4249525Y-1564601D01*
X+4259050Y-1573067D01*
X+4259050Y-1581534D01*
X+4249525Y-1590000D01*
X+4220950Y-1590000D01*
X+4211425Y-1598467D01*
X+4211425Y-1615400D01*
X+4259050Y-1615400D01*
X+4335249Y-1564601D02*
X+4287624Y-1564601D01*
X+4287624Y-1581534D01*
X+4325724Y-1581534D01*
X+4335249Y-1590000D01*
X+4335249Y-1606934D01*
X+4325724Y-1615400D01*
X+4297149Y-1615400D01*
X+4287624Y-1606934D01*
D72*
X-3082080Y+2027920D02*
X+2008080Y+2027920D01*
X+2008080Y+2546080D01*
X-3082080Y+2546080D01*
X-3082080Y+2027920D01*
D77*
X+1876000Y+2414000D02*
X+1876000Y+2414000D01*
D78*
X-876852Y+2258552D02*
X-876852Y+2230104D01*
X-844848Y+2201656D01*
X-716832Y+2201656D01*
X-684828Y+2230104D01*
X-684828Y+2372344D01*
X-556812Y+2315448D02*
X-492804Y+2372344D01*
X-492804Y+2201656D01*
D72*
X-3082080Y-2314700D02*
X+2008080Y-2314700D01*
X+2008080Y-1796540D01*
X-3082080Y-1796540D01*
X-3082080Y-2314700D01*
D77*
X+1876000Y-1928620D02*
X+1876000Y-1928620D01*
D78*
X-876852Y-2084068D02*
X-876852Y-2112516D01*
X-844848Y-2140964D01*
X-716832Y-2140964D01*
X-684828Y-2112516D01*
X-684828Y-1970276D01*
X-588816Y-1998724D02*
X-556812Y-1970276D01*
X-460800Y-1970276D01*
X-428796Y-1998724D01*
X-428796Y-2027172D01*
X-460800Y-2055620D01*
X-556812Y-2055620D01*
X-588816Y-2084068D01*
X-588816Y-2140964D01*
X-428796Y-2140964D01*
D72*
X-135080Y-1602080D02*
X+4475080Y-1602080D01*
X+4475080Y+1745080D01*
X-135080Y+1745080D01*
X-135080Y-1602080D01*
D62*
X+0Y-1470000D02*
X+0Y-1470000D01*
D79*
X+1300537Y-247608D02*
X+1300537Y+390608D01*
X+1659533Y+71500D01*
X+2018529Y+390608D01*
X+2018529Y-247608D01*
X+2377525Y+284239D02*
X+2497190Y+390608D01*
X+2856186Y+390608D01*
X+2975852Y+284239D01*
X+2975852Y+177869D01*
X+2856186Y+71500D01*
X+2497190Y+71500D01*
X+2377525Y-34869D01*
X+2377525Y-247608D01*
X+2975852Y-247608D01*
M02*
