G04 PROTEUS GERBER X2 FILE*
%TF.GenerationSoftware,Labcenter,Proteus,8.16-SP3-Build36097*%
%TF.CreationDate,2025-11-07T09:34:26+00:00*%
%TF.FileFunction,Soldermask,Bot*%
%TF.FilePolarity,Negative*%
%TF.Part,Single*%
%TF.SameCoordinates,{86f2edb6-a998-41b4-a695-59585592bfa3}*%
%FSLAX45Y45*%
%MOMM*%
G01*
%TA.AperFunction,Material*%
%ADD34C,1.016000*%
%AMPPAD029*
4,1,36,
1.143000,1.016000,
1.143000,-1.016000,
1.140420,-1.041590,
1.133020,-1.065430,
1.121310,-1.087000,
1.105800,-1.105800,
1.087000,-1.121310,
1.065430,-1.133020,
1.041590,-1.140420,
1.016000,-1.143000,
-1.016000,-1.143000,
-1.041590,-1.140420,
-1.065430,-1.133020,
-1.087000,-1.121310,
-1.105800,-1.105800,
-1.121310,-1.087000,
-1.133020,-1.065430,
-1.140420,-1.041590,
-1.143000,-1.016000,
-1.143000,1.016000,
-1.140420,1.041590,
-1.133020,1.065430,
-1.121310,1.087000,
-1.105800,1.105800,
-1.087000,1.121310,
-1.065430,1.133020,
-1.041590,1.140420,
-1.016000,1.143000,
1.016000,1.143000,
1.041590,1.140420,
1.065430,1.133020,
1.087000,1.121310,
1.105800,1.105800,
1.121310,1.087000,
1.133020,1.065430,
1.140420,1.041590,
1.143000,1.016000,
0*%
%TA.AperFunction,Material*%
%ADD35PPAD029*%
%TA.AperFunction,Material*%
%ADD38C,2.286000*%
%AMPPAD039*
4,1,36,
0.508000,0.762000,
-0.508000,0.762000,
-0.533590,0.759420,
-0.557430,0.752020,
-0.579000,0.740310,
-0.597800,0.724800,
-0.613310,0.706000,
-0.625020,0.684430,
-0.632420,0.660590,
-0.635000,0.635000,
-0.635000,-0.635000,
-0.632420,-0.660590,
-0.625020,-0.684430,
-0.613310,-0.706000,
-0.597800,-0.724800,
-0.579000,-0.740310,
-0.557430,-0.752020,
-0.533590,-0.759420,
-0.508000,-0.762000,
0.508000,-0.762000,
0.533590,-0.759420,
0.557430,-0.752020,
0.579000,-0.740310,
0.597800,-0.724800,
0.613310,-0.706000,
0.625020,-0.684430,
0.632420,-0.660590,
0.635000,-0.635000,
0.635000,0.635000,
0.632420,0.660590,
0.625020,0.684430,
0.613310,0.706000,
0.597800,0.724800,
0.579000,0.740310,
0.557430,0.752020,
0.533590,0.759420,
0.508000,0.762000,
0*%
%TA.AperFunction,Material*%
%ADD45PPAD039*%
%AMPPAD033*
4,1,36,
-1.143000,1.016000,
-1.143000,-1.016000,
-1.140420,-1.041590,
-1.133020,-1.065430,
-1.121310,-1.087000,
-1.105800,-1.105800,
-1.087000,-1.121310,
-1.065430,-1.133020,
-1.041590,-1.140420,
-1.016000,-1.143000,
1.016000,-1.143000,
1.041590,-1.140420,
1.065430,-1.133020,
1.087000,-1.121310,
1.105800,-1.105800,
1.121310,-1.087000,
1.133020,-1.065430,
1.140420,-1.041590,
1.143000,-1.016000,
1.143000,1.016000,
1.140420,1.041590,
1.133020,1.065430,
1.121310,1.087000,
1.105800,1.105800,
1.087000,1.121310,
1.065430,1.133020,
1.041590,1.140420,
1.016000,1.143000,
-1.016000,1.143000,
-1.041590,1.140420,
-1.065430,1.133020,
-1.087000,1.121310,
-1.105800,1.105800,
-1.121310,1.087000,
-1.133020,1.065430,
-1.140420,1.041590,
-1.143000,1.016000,
0*%
%TA.AperFunction,Material*%
%ADD39PPAD033*%
%ADD40C,2.054000*%
%AMPPAD040*
4,1,36,
0.762000,-0.508000,
0.762000,0.508000,
0.759420,0.533590,
0.752020,0.557430,
0.740310,0.579000,
0.724800,0.597800,
0.706000,0.613310,
0.684430,0.625020,
0.660590,0.632420,
0.635000,0.635000,
-0.635000,0.635000,
-0.660590,0.632420,
-0.684430,0.625020,
-0.706000,0.613310,
-0.724800,0.597800,
-0.740310,0.579000,
-0.752020,0.557430,
-0.759420,0.533590,
-0.762000,0.508000,
-0.762000,-0.508000,
-0.759420,-0.533590,
-0.752020,-0.557430,
-0.740310,-0.579000,
-0.724800,-0.597800,
-0.706000,-0.613310,
-0.684430,-0.625020,
-0.660590,-0.632420,
-0.635000,-0.635000,
0.635000,-0.635000,
0.660590,-0.632420,
0.684430,-0.625020,
0.706000,-0.613310,
0.724800,-0.597800,
0.740310,-0.579000,
0.752020,-0.557430,
0.759420,-0.533590,
0.762000,-0.508000,
0*%
%TA.AperFunction,Material*%
%ADD46PPAD040*%
%AMPPAD041*
4,1,4,
0.469900,-0.304800,
0.469900,0.304800,
-0.469900,0.304800,
-0.469900,-0.304800,
0.469900,-0.304800,
0*%
%TA.AperFunction,Material*%
%ADD47PPAD041*%
%AMPPAD042*
4,1,36,
-0.444500,-0.635000,
0.444500,-0.635000,
0.470090,-0.632420,
0.493930,-0.625020,
0.515500,-0.613310,
0.534300,-0.597800,
0.549810,-0.579000,
0.561520,-0.557430,
0.568920,-0.533590,
0.571500,-0.508000,
0.571500,0.508000,
0.568920,0.533590,
0.561520,0.557430,
0.549810,0.579000,
0.534300,0.597800,
0.515500,0.613310,
0.493930,0.625020,
0.470090,0.632420,
0.444500,0.635000,
-0.444500,0.635000,
-0.470090,0.632420,
-0.493930,0.625020,
-0.515500,0.613310,
-0.534300,0.597800,
-0.549810,0.579000,
-0.561520,0.557430,
-0.568920,0.533590,
-0.571500,0.508000,
-0.571500,-0.508000,
-0.568920,-0.533590,
-0.561520,-0.557430,
-0.549810,-0.579000,
-0.534300,-0.597800,
-0.515500,-0.613310,
-0.493930,-0.625020,
-0.470090,-0.632420,
-0.444500,-0.635000,
0*%
%ADD48PPAD042*%
%AMPPAD043*
4,1,4,
0.304800,0.469900,
-0.304800,0.469900,
-0.304800,-0.469900,
0.304800,-0.469900,
0.304800,0.469900,
0*%
%ADD49PPAD043*%
%AMPPAD044*
4,1,36,
-0.444500,0.254000,
-0.444500,-0.254000,
-0.441920,-0.279590,
-0.434520,-0.303430,
-0.422810,-0.325000,
-0.407300,-0.343800,
-0.388500,-0.359310,
-0.366930,-0.371020,
-0.343090,-0.378420,
-0.317500,-0.381000,
0.317500,-0.381000,
0.343090,-0.378420,
0.366930,-0.371020,
0.388500,-0.359310,
0.407300,-0.343800,
0.422810,-0.325000,
0.434520,-0.303430,
0.441920,-0.279590,
0.444500,-0.254000,
0.444500,0.254000,
0.441920,0.279590,
0.434520,0.303430,
0.422810,0.325000,
0.407300,0.343800,
0.388500,0.359310,
0.366930,0.371020,
0.343090,0.378420,
0.317500,0.381000,
-0.317500,0.381000,
-0.343090,0.378420,
-0.366930,0.371020,
-0.388500,0.359310,
-0.407300,0.343800,
-0.422810,0.325000,
-0.434520,0.303430,
-0.441920,0.279590,
-0.444500,0.254000,
0*%
%TA.AperFunction,Material*%
%ADD50PPAD044*%
%AMPPAD045*
4,1,4,
2.050000,-0.925000,
2.050000,0.925000,
-2.050000,0.925000,
-2.050000,-0.925000,
2.050000,-0.925000,
0*%
%TA.AperFunction,Material*%
%ADD51PPAD045*%
%AMPPAD046*
4,1,4,
2.000000,1.000000,
-2.000000,1.000000,
-2.000000,-1.000000,
2.000000,-1.000000,
2.000000,1.000000,
0*%
%ADD52PPAD046*%
%AMPPAD035*
4,1,36,
-0.635000,-0.762000,
0.635000,-0.762000,
0.660590,-0.759420,
0.684430,-0.752020,
0.706000,-0.740310,
0.724800,-0.724800,
0.740310,-0.706000,
0.752020,-0.684430,
0.759420,-0.660590,
0.762000,-0.635000,
0.762000,0.635000,
0.759420,0.660590,
0.752020,0.684430,
0.740310,0.706000,
0.724800,0.724800,
0.706000,0.740310,
0.684430,0.752020,
0.660590,0.759420,
0.635000,0.762000,
-0.635000,0.762000,
-0.660590,0.759420,
-0.684430,0.752020,
-0.706000,0.740310,
-0.724800,0.724800,
-0.740310,0.706000,
-0.752020,0.684430,
-0.759420,0.660590,
-0.762000,0.635000,
-0.762000,-0.635000,
-0.759420,-0.660590,
-0.752020,-0.684430,
-0.740310,-0.706000,
-0.724800,-0.724800,
-0.706000,-0.740310,
-0.684430,-0.752020,
-0.660590,-0.759420,
-0.635000,-0.762000,
0*%
%TA.AperFunction,Material*%
%ADD41PPAD035*%
%ADD42C,1.524000*%
%AMPPAD037*
4,1,36,
0.889000,-1.016000,
-0.889000,-1.016000,
-0.914590,-1.013420,
-0.938430,-1.006020,
-0.960000,-0.994310,
-0.978800,-0.978800,
-0.994310,-0.960000,
-1.006020,-0.938430,
-1.013420,-0.914590,
-1.016000,-0.889000,
-1.016000,0.889000,
-1.013420,0.914590,
-1.006020,0.938430,
-0.994310,0.960000,
-0.978800,0.978800,
-0.960000,0.994310,
-0.938430,1.006020,
-0.914590,1.013420,
-0.889000,1.016000,
0.889000,1.016000,
0.914590,1.013420,
0.938430,1.006020,
0.960000,0.994310,
0.978800,0.978800,
0.994310,0.960000,
1.006020,0.938430,
1.013420,0.914590,
1.016000,0.889000,
1.016000,-0.889000,
1.013420,-0.914590,
1.006020,-0.938430,
0.994310,-0.960000,
0.978800,-0.978800,
0.960000,-0.994310,
0.938430,-1.006020,
0.914590,-1.013420,
0.889000,-1.016000,
0*%
%TA.AperFunction,Material*%
%ADD43PPAD037*%
%ADD44C,2.032000*%
%TA.AperFunction,Profile*%
%ADD20C,0.101600*%
%TD.AperFunction*%
D34*
X+160000Y-530000D03*
X+110000Y+670000D03*
X+2010000Y+1560000D03*
X+1150000Y+1660000D03*
X-557000Y-632000D03*
X+1665500Y-1076500D03*
X-190000Y+1740000D03*
X+23360Y-620000D03*
X+1660000Y+1250000D03*
X-2030000Y-1220000D03*
X-874500Y-822500D03*
X-50000Y+80000D03*
X+290000Y+80000D03*
X-1470000Y+330000D03*
X-610000Y+330000D03*
X-48037Y-61963D03*
X+214706Y-68824D03*
X-980000Y+12000D03*
X+1133360Y-1200000D03*
X+2210000Y-1200000D03*
X+2850000Y-460000D03*
X-1030000Y-750000D03*
X+2610000Y-1130000D03*
X-686000Y-840000D03*
X+800000Y-1200000D03*
X+80000Y-1200000D03*
X-620500Y-251000D03*
X+14500Y-1076500D03*
X-1255500Y+1844500D03*
X-2970000Y+1844500D03*
X-176000Y-1013000D03*
X-4113000Y+2289000D03*
X+1580000Y-1300000D03*
X+300000Y-1290000D03*
X+2046500Y+1463500D03*
X-1100000Y+1480000D03*
X-60000Y+1010000D03*
X+160000Y+1010000D03*
X+2770000Y-660000D03*
X+300000Y-500000D03*
X-2208000Y-1584500D03*
X-3795500Y-759000D03*
X-4113000Y+66500D03*
X-1954000Y+66500D03*
X-49000Y+447500D03*
X-1255500Y+130000D03*
X-2230000Y-980000D03*
X-2620000Y-980000D03*
X+400000Y-190000D03*
X-80000Y-190000D03*
X-80000Y-490000D03*
X-303000Y+1146000D03*
X-3900000Y-1966000D03*
X-3900000Y-880000D03*
X+893971Y+603016D03*
X-2912000Y-1712000D03*
X-1255500Y-251000D03*
X-2335000Y+1717500D03*
X-2462000Y-1775000D03*
X-3986000Y-505000D03*
X-2208000Y-1076500D03*
X-130000Y+2010000D03*
D35*
X-280000Y+520000D03*
X-280000Y+266000D03*
X-280000Y+12000D03*
D38*
X+2670000Y+2280000D03*
X+2670000Y+1880000D03*
X+3550000Y+1930000D03*
X+3160000Y+1440000D03*
X+3780000Y+1430000D03*
X+3170000Y+690000D03*
X+3170000Y+290000D03*
X+3880000Y+270000D03*
X+550000Y+850000D03*
X+1580000Y+840000D03*
X+600000Y+270000D03*
X+610000Y-220000D03*
X+1410000Y-490000D03*
X+2210000Y-460000D03*
X+2610000Y-460000D03*
X+2210000Y-860000D03*
X+2610000Y-860000D03*
X-4730000Y+1340000D03*
X-4730000Y+1040000D03*
X-2790000Y+340000D03*
X-2790000Y-160000D03*
D45*
X+363360Y+1740000D03*
X+150000Y+1740000D03*
X-876640Y+1840000D03*
X-1090000Y+1840000D03*
X-1090000Y+1640000D03*
X-876640Y+1640000D03*
D39*
X-4970000Y+740000D03*
D40*
X-4970000Y+486000D03*
X-4970000Y+232000D03*
X-4970000Y-22000D03*
X-4970000Y-276000D03*
X-4970000Y-530000D03*
D45*
X-1319920Y-1490000D03*
X-1533280Y-1490000D03*
X+923360Y+1340000D03*
X+710000Y+1340000D03*
D46*
X+23360Y-960000D03*
X+23360Y-746640D03*
D45*
X+1133360Y-860000D03*
X+920000Y-860000D03*
X+1126720Y-1070000D03*
X+913360Y-1070000D03*
D47*
X+516000Y-765000D03*
X+516000Y-955000D03*
X+286000Y-860000D03*
D45*
X+513360Y-610000D03*
X+300000Y-610000D03*
D48*
X-190000Y+1540000D03*
X-96020Y+1349500D03*
X-283980Y+1349500D03*
D49*
X+230000Y+1455000D03*
X+420000Y+1455000D03*
X+325000Y+1225000D03*
D46*
X+1156640Y+1336640D03*
X+1156640Y+1550000D03*
D50*
X+1646220Y+1534920D03*
X+1646220Y+1440940D03*
X+1646220Y+1344420D03*
X+1407460Y+1344420D03*
X+1407460Y+1534920D03*
D46*
X+1866640Y+1346640D03*
X+1866640Y+1560000D03*
D51*
X+2310000Y+1298000D03*
X+2310000Y+1662000D03*
D52*
X-335000Y+940000D03*
X-1045000Y+940000D03*
D45*
X+323360Y+840000D03*
X+110000Y+840000D03*
D46*
X-656640Y+173360D03*
X-656640Y-40000D03*
D41*
X-1790000Y-498000D03*
D42*
X-1536000Y-498000D03*
X-1282000Y-498000D03*
X-1028000Y-498000D03*
X-774000Y-498000D03*
X-520000Y-498000D03*
X-266000Y-498000D03*
X-266000Y-1260000D03*
X-520000Y-1260000D03*
X-774000Y-1260000D03*
X-1028000Y-1260000D03*
X-1282000Y-1260000D03*
X-1536000Y-1260000D03*
X-1790000Y-1260000D03*
D35*
X-3590000Y-2220000D03*
D40*
X-3590000Y-1966000D03*
X-3590000Y-1712000D03*
X-3590000Y-1458000D03*
X-3590000Y-1204000D03*
D47*
X-360000Y+1835000D03*
X-360000Y+1645000D03*
X-590000Y+1740000D03*
D38*
X+4240000Y-1590000D03*
D43*
X+1876000Y+2414000D03*
D44*
X+1622000Y+2414000D03*
X+1368000Y+2414000D03*
X+1114000Y+2414000D03*
X+860000Y+2414000D03*
X+606000Y+2414000D03*
X+352000Y+2414000D03*
X+98000Y+2414000D03*
X-156000Y+2414000D03*
X-410000Y+2414000D03*
X-664000Y+2414000D03*
X-918000Y+2414000D03*
X-1172000Y+2414000D03*
X-1426000Y+2414000D03*
X-1680000Y+2414000D03*
X-1934000Y+2414000D03*
X-2188000Y+2414000D03*
X-2442000Y+2414000D03*
X-2696000Y+2414000D03*
X-2950000Y+2414000D03*
X-2950000Y+2160000D03*
X-2696000Y+2160000D03*
X-2442000Y+2160000D03*
X-2188000Y+2160000D03*
X-1934000Y+2160000D03*
X-1680000Y+2160000D03*
X-1426000Y+2160000D03*
X-1172000Y+2160000D03*
X-918000Y+2160000D03*
X-664000Y+2160000D03*
X-410000Y+2160000D03*
X-156000Y+2160000D03*
X+98000Y+2160000D03*
X+352000Y+2160000D03*
X+606000Y+2160000D03*
X+860000Y+2160000D03*
X+1114000Y+2160000D03*
X+1368000Y+2160000D03*
X+1622000Y+2160000D03*
X+1876000Y+2160000D03*
D43*
X+1876000Y-1928620D03*
D44*
X+1622000Y-1928620D03*
X+1368000Y-1928620D03*
X+1114000Y-1928620D03*
X+860000Y-1928620D03*
X+606000Y-1928620D03*
X+352000Y-1928620D03*
X+98000Y-1928620D03*
X-156000Y-1928620D03*
X-410000Y-1928620D03*
X-664000Y-1928620D03*
X-918000Y-1928620D03*
X-1172000Y-1928620D03*
X-1426000Y-1928620D03*
X-1680000Y-1928620D03*
X-1934000Y-1928620D03*
X-2188000Y-1928620D03*
X-2442000Y-1928620D03*
X-2696000Y-1928620D03*
X-2950000Y-1928620D03*
X-2950000Y-2182620D03*
X-2696000Y-2182620D03*
X-2442000Y-2182620D03*
X-2188000Y-2182620D03*
X-1934000Y-2182620D03*
X-1680000Y-2182620D03*
X-1426000Y-2182620D03*
X-1172000Y-2182620D03*
X-918000Y-2182620D03*
X-664000Y-2182620D03*
X-410000Y-2182620D03*
X-156000Y-2182620D03*
X+98000Y-2182620D03*
X+352000Y-2182620D03*
X+606000Y-2182620D03*
X+860000Y-2182620D03*
X+1114000Y-2182620D03*
X+1368000Y-2182620D03*
X+1622000Y-2182620D03*
X+1876000Y-2182620D03*
D35*
X+0Y-1470000D03*
D40*
X+254000Y-1470000D03*
X+508000Y-1470000D03*
X+762000Y-1470000D03*
X+1016000Y-1470000D03*
X+1270000Y-1470000D03*
D20*
X-5528000Y-2391260D02*
X+4472000Y-2391260D01*
X+4472000Y+2608740D01*
X-5528000Y+2608740D01*
X-5528000Y-2391260D01*
X+4322000Y+2308740D02*
X+4321498Y+2320998D01*
X+4317422Y+2345515D01*
X+4308906Y+2370032D01*
X+4295032Y+2394549D01*
X+4273806Y+2418901D01*
X+4249289Y+2437295D01*
X+4224772Y+2449151D01*
X+4200255Y+2456055D01*
X+4175738Y+2458693D01*
X+4172000Y+2458740D01*
X+4022000Y+2308740D02*
X+4022502Y+2320998D01*
X+4026578Y+2345515D01*
X+4035094Y+2370032D01*
X+4048968Y+2394549D01*
X+4070194Y+2418901D01*
X+4094711Y+2437295D01*
X+4119228Y+2449151D01*
X+4143745Y+2456055D01*
X+4168262Y+2458693D01*
X+4172000Y+2458740D01*
X+4022000Y+2308740D02*
X+4022502Y+2296482D01*
X+4026578Y+2271965D01*
X+4035094Y+2247448D01*
X+4048968Y+2222931D01*
X+4070194Y+2198579D01*
X+4094711Y+2180185D01*
X+4119228Y+2168329D01*
X+4143745Y+2161425D01*
X+4168262Y+2158787D01*
X+4172000Y+2158740D01*
X+4322000Y+2308740D02*
X+4321498Y+2296482D01*
X+4317422Y+2271965D01*
X+4308906Y+2247448D01*
X+4295032Y+2222931D01*
X+4273806Y+2198579D01*
X+4249289Y+2180185D01*
X+4224772Y+2168329D01*
X+4200255Y+2161425D01*
X+4175738Y+2158787D01*
X+4172000Y+2158740D01*
X+4322000Y-2091260D02*
X+4321498Y-2079002D01*
X+4317422Y-2054485D01*
X+4308906Y-2029968D01*
X+4295032Y-2005451D01*
X+4273806Y-1981099D01*
X+4249289Y-1962705D01*
X+4224772Y-1950849D01*
X+4200255Y-1943945D01*
X+4175738Y-1941307D01*
X+4172000Y-1941260D01*
X+4022000Y-2091260D02*
X+4022502Y-2079002D01*
X+4026578Y-2054485D01*
X+4035094Y-2029968D01*
X+4048968Y-2005451D01*
X+4070194Y-1981099D01*
X+4094711Y-1962705D01*
X+4119228Y-1950849D01*
X+4143745Y-1943945D01*
X+4168262Y-1941307D01*
X+4172000Y-1941260D01*
X+4022000Y-2091260D02*
X+4022502Y-2103518D01*
X+4026578Y-2128035D01*
X+4035094Y-2152552D01*
X+4048968Y-2177069D01*
X+4070194Y-2201421D01*
X+4094711Y-2219815D01*
X+4119228Y-2231671D01*
X+4143745Y-2238575D01*
X+4168262Y-2241213D01*
X+4172000Y-2241260D01*
X+4322000Y-2091260D02*
X+4321498Y-2103518D01*
X+4317422Y-2128035D01*
X+4308906Y-2152552D01*
X+4295032Y-2177069D01*
X+4273806Y-2201421D01*
X+4249289Y-2219815D01*
X+4224772Y-2231671D01*
X+4200255Y-2238575D01*
X+4175738Y-2241213D01*
X+4172000Y-2241260D01*
X-5078000Y-2091260D02*
X-5078502Y-2079002D01*
X-5082578Y-2054485D01*
X-5091094Y-2029968D01*
X-5104968Y-2005451D01*
X-5126194Y-1981099D01*
X-5150711Y-1962705D01*
X-5175228Y-1950849D01*
X-5199745Y-1943945D01*
X-5224262Y-1941307D01*
X-5228000Y-1941260D01*
X-5378000Y-2091260D02*
X-5377498Y-2079002D01*
X-5373422Y-2054485D01*
X-5364906Y-2029968D01*
X-5351032Y-2005451D01*
X-5329806Y-1981099D01*
X-5305289Y-1962705D01*
X-5280772Y-1950849D01*
X-5256255Y-1943945D01*
X-5231738Y-1941307D01*
X-5228000Y-1941260D01*
X-5378000Y-2091260D02*
X-5377498Y-2103518D01*
X-5373422Y-2128035D01*
X-5364906Y-2152552D01*
X-5351032Y-2177069D01*
X-5329806Y-2201421D01*
X-5305289Y-2219815D01*
X-5280772Y-2231671D01*
X-5256255Y-2238575D01*
X-5231738Y-2241213D01*
X-5228000Y-2241260D01*
X-5078000Y-2091260D02*
X-5078502Y-2103518D01*
X-5082578Y-2128035D01*
X-5091094Y-2152552D01*
X-5104968Y-2177069D01*
X-5126194Y-2201421D01*
X-5150711Y-2219815D01*
X-5175228Y-2231671D01*
X-5199745Y-2238575D01*
X-5224262Y-2241213D01*
X-5228000Y-2241260D01*
X-5078000Y+2308740D02*
X-5078502Y+2320998D01*
X-5082578Y+2345515D01*
X-5091094Y+2370032D01*
X-5104968Y+2394549D01*
X-5126194Y+2418901D01*
X-5150711Y+2437295D01*
X-5175228Y+2449151D01*
X-5199745Y+2456055D01*
X-5224262Y+2458693D01*
X-5228000Y+2458740D01*
X-5378000Y+2308740D02*
X-5377498Y+2320998D01*
X-5373422Y+2345515D01*
X-5364906Y+2370032D01*
X-5351032Y+2394549D01*
X-5329806Y+2418901D01*
X-5305289Y+2437295D01*
X-5280772Y+2449151D01*
X-5256255Y+2456055D01*
X-5231738Y+2458693D01*
X-5228000Y+2458740D01*
X-5378000Y+2308740D02*
X-5377498Y+2296482D01*
X-5373422Y+2271965D01*
X-5364906Y+2247448D01*
X-5351032Y+2222931D01*
X-5329806Y+2198579D01*
X-5305289Y+2180185D01*
X-5280772Y+2168329D01*
X-5256255Y+2161425D01*
X-5231738Y+2158787D01*
X-5228000Y+2158740D01*
X-5078000Y+2308740D02*
X-5078502Y+2296482D01*
X-5082578Y+2271965D01*
X-5091094Y+2247448D01*
X-5104968Y+2222931D01*
X-5126194Y+2198579D01*
X-5150711Y+2180185D01*
X-5175228Y+2168329D01*
X-5199745Y+2161425D01*
X-5224262Y+2158787D01*
X-5228000Y+2158740D01*
M02*
