G04 PROTEUS GERBER X2 FILE*
%TF.GenerationSoftware,Labcenter,Proteus,8.16-SP3-Build36097*%
%TF.CreationDate,2025-11-07T09:34:26+00:00*%
%TF.FileFunction,Copper,L1,Top*%
%TF.FilePolarity,Positive*%
%TF.Part,Single*%
%TF.SameCoordinates,{86f2edb6-a998-41b4-a695-59585592bfa3}*%
%FSLAX45Y45*%
%MOMM*%
G01*
%TA.AperFunction,Conductor*%
%ADD10C,0.254000*%
%TA.AperFunction,ViaPad*%
%ADD11C,0.762000*%
%TA.AperFunction,Conductor*%
%ADD12C,0.635000*%
%TA.AperFunction,ComponentPad*%
%ADD13R,2.032000X2.032000*%
%TA.AperFunction,SMDPad,CuDef*%
%ADD14R,1.016000X1.270000*%
%TA.AperFunction,SMDPad,CuDef*%
%ADD15R,1.100000X0.600000*%
%TA.AperFunction,ComponentPad*%
%ADD16C,2.032000*%
%TA.AperFunction,ComponentPad*%
%ADD17C,1.800000*%
%TA.AperFunction,ComponentPad*%
%ADD18R,1.270000X1.270000*%
%ADD19C,1.270000*%
%TA.AperFunction,ComponentPad*%
%ADD70R,1.778000X1.778000*%
%ADD71C,1.778000*%
%TA.AperFunction,Profile*%
%ADD20C,0.101600*%
%TD.AperFunction*%
%TA.AperFunction,Conductor*%
G36*
X-3088429Y+2471339D02*
X-3088429Y+2356661D01*
X-3018768Y+2287000D01*
X-3088429Y+2217339D01*
X-3088429Y+2102661D01*
X-3007339Y+2021571D01*
X-2892661Y+2021571D01*
X-2823000Y+2091232D01*
X-2753339Y+2021571D01*
X-2638661Y+2021571D01*
X-2569000Y+2091232D01*
X-2499339Y+2021571D01*
X-2384661Y+2021571D01*
X-2315000Y+2091232D01*
X-2245339Y+2021571D01*
X-2130661Y+2021571D01*
X-2061000Y+2091232D01*
X-1991339Y+2021571D01*
X-1876661Y+2021571D01*
X-1807000Y+2091232D01*
X-1737339Y+2021571D01*
X-1622661Y+2021571D01*
X-1553000Y+2091232D01*
X-1483339Y+2021571D01*
X-1368661Y+2021571D01*
X-1299000Y+2091232D01*
X-1229339Y+2021571D01*
X-1114661Y+2021571D01*
X-1045000Y+2091232D01*
X-975339Y+2021571D01*
X-860661Y+2021571D01*
X-791000Y+2091232D01*
X-721339Y+2021571D01*
X-606661Y+2021571D01*
X-537000Y+2091232D01*
X-467339Y+2021571D01*
X-352661Y+2021571D01*
X-283000Y+2091232D01*
X-217629Y+2025861D01*
X-217629Y+1973703D01*
X-214155Y+1970229D01*
X-265275Y+1970229D01*
X-455775Y+1779729D01*
X-2273303Y+1779729D01*
X-2298703Y+1805129D01*
X-2371297Y+1805129D01*
X-2422629Y+1753797D01*
X-2422629Y+1681203D01*
X-2371297Y+1629871D01*
X-2298703Y+1629871D01*
X-2273303Y+1655271D01*
X-404225Y+1655271D01*
X-252229Y+1807267D01*
X-252229Y+1801697D01*
X-277629Y+1776297D01*
X-277629Y+1703703D01*
X-226297Y+1652371D01*
X-153703Y+1652371D01*
X-128303Y+1677771D01*
X-38869Y+1677771D01*
X-38869Y+1097629D01*
X-96297Y+1097629D01*
X-121697Y+1072229D01*
X-252845Y+1072229D01*
X-215371Y+1109703D01*
X-215371Y+1182297D01*
X-266703Y+1233629D01*
X-302625Y+1233629D01*
X-721725Y+1652729D01*
X-1154275Y+1652729D01*
X-1254229Y+1552775D01*
X-1254229Y+573229D01*
X-1916275Y+573229D01*
X-1941275Y+548229D01*
X-4834905Y+548229D01*
X-4875547Y+588871D01*
X-4818871Y+588871D01*
X-4818871Y+891129D01*
X-5033125Y+891129D01*
X-5068967Y+926971D01*
X-4956311Y+926971D01*
X-4956311Y+977771D01*
X-4881129Y+977771D01*
X-4881129Y+977400D01*
X-4792600Y+888871D01*
X-4667400Y+888871D01*
X-4578871Y+977400D01*
X-4578871Y+1102600D01*
X-4579134Y+1102862D01*
X-4454643Y+1227353D01*
X-4454643Y+1960899D01*
X-4505471Y+2011727D01*
X-4505471Y+2135908D01*
X-4314529Y+2135908D01*
X-4314529Y+1670471D01*
X-4105471Y+1670471D01*
X-4105471Y+2209529D01*
X-4142771Y+2209529D01*
X-4142771Y+2246929D01*
X-4134042Y+2238200D01*
X-4091958Y+2238200D01*
X-4062200Y+2267958D01*
X-4062200Y+2310042D01*
X-4091958Y+2339800D01*
X-4134042Y+2339800D01*
X-4163800Y+2310042D01*
X-4163800Y+2271804D01*
X-4194671Y+2302675D01*
X-4194671Y+2428029D01*
X-4395329Y+2428029D01*
X-4395329Y+2260366D01*
X-4408031Y+2260366D01*
X-4408031Y+2428029D01*
X-4608689Y+2428029D01*
X-4608689Y+2260366D01*
X-4721638Y+2260366D01*
X-4860510Y+2121494D01*
X-4860510Y+1547494D01*
X-4865775Y+1542229D01*
X-5285775Y+1542229D01*
X-5332229Y+1495775D01*
X-5332229Y+1453029D01*
X-5370329Y+1453029D01*
X-5370329Y+1226971D01*
X-5332229Y+1226971D01*
X-5332229Y+1153029D01*
X-5370329Y+1153029D01*
X-5370329Y+926971D01*
X-5244975Y+926971D01*
X-5121129Y+803125D01*
X-5121129Y+588871D01*
X-5064453Y+588871D01*
X-5109529Y+543795D01*
X-5109529Y+428205D01*
X-5040324Y+359000D01*
X-5109529Y+289795D01*
X-5109529Y+174205D01*
X-5040324Y+105000D01*
X-5109529Y+35795D01*
X-5109529Y-79795D01*
X-5040324Y-149000D01*
X-5109529Y-218205D01*
X-5109529Y-333795D01*
X-5040324Y-403000D01*
X-5109529Y-472205D01*
X-5109529Y-587795D01*
X-5027795Y-669529D01*
X-4912205Y-669529D01*
X-4830471Y-587795D01*
X-4830471Y-472205D01*
X-4899676Y-403000D01*
X-4830471Y-333795D01*
X-4830471Y-218205D01*
X-4899676Y-149000D01*
X-4834905Y-84229D01*
X-3415275Y-84229D01*
X-2741775Y-757729D01*
X-1674225Y-757729D01*
X-1574271Y-657775D01*
X-1574271Y-611029D01*
X-1489182Y-611029D01*
X-1474729Y-596576D01*
X-1474729Y-1161424D01*
X-1489182Y-1146971D01*
X-1582818Y-1146971D01*
X-1649029Y-1213182D01*
X-1649029Y-1306818D01*
X-1582818Y-1373029D01*
X-1493033Y-1373029D01*
X-1869228Y-1749224D01*
X-1869228Y-1797624D01*
X-1876661Y-1790191D01*
X-1991339Y-1790191D01*
X-2061000Y-1859852D01*
X-2130661Y-1790191D01*
X-2245339Y-1790191D01*
X-2315000Y-1859852D01*
X-2374371Y-1800481D01*
X-2374371Y-1738703D01*
X-2425703Y-1687371D01*
X-2498297Y-1687371D01*
X-2548077Y-1737151D01*
X-2824371Y-1737151D01*
X-2824371Y-1675703D01*
X-2853345Y-1646729D01*
X-2269697Y-1646729D01*
X-2244297Y-1672129D01*
X-2171703Y-1672129D01*
X-2120371Y-1620797D01*
X-2120371Y-1548203D01*
X-2171703Y-1496871D01*
X-2244297Y-1496871D01*
X-2269697Y-1522271D01*
X-3456947Y-1522271D01*
X-3450471Y-1515795D01*
X-3450471Y-1400205D01*
X-3519676Y-1331000D01*
X-3454905Y-1266229D01*
X-2107697Y-1266229D01*
X-2066297Y-1307629D01*
X-1993703Y-1307629D01*
X-1942371Y-1256297D01*
X-1942371Y-1183703D01*
X-1993703Y-1132371D01*
X-2066297Y-1132371D01*
X-2075697Y-1141771D01*
X-2149345Y-1141771D01*
X-2120371Y-1112797D01*
X-2120371Y-1040203D01*
X-2143324Y-1017250D01*
X-2142371Y-1016297D01*
X-2142371Y-943703D01*
X-2193703Y-892371D01*
X-2266297Y-892371D01*
X-2291697Y-917771D01*
X-2558303Y-917771D01*
X-2583703Y-892371D01*
X-2656297Y-892371D01*
X-2707629Y-943703D01*
X-2707629Y-1014271D01*
X-2944225Y-1014271D01*
X-3515725Y-442771D01*
X-3924303Y-442771D01*
X-3949703Y-417371D01*
X-4022297Y-417371D01*
X-4073629Y-468703D01*
X-4073629Y-541297D01*
X-4022297Y-592629D01*
X-3949703Y-592629D01*
X-3924303Y-567229D01*
X-3567275Y-567229D01*
X-2995775Y-1138729D01*
X-2269697Y-1138729D01*
X-2266655Y-1141771D01*
X-3454905Y-1141771D01*
X-3532205Y-1064471D01*
X-3647795Y-1064471D01*
X-3729529Y-1146205D01*
X-3729529Y-1261795D01*
X-3660324Y-1331000D01*
X-3729529Y-1400205D01*
X-3729529Y-1498967D01*
X-3733271Y-1495225D01*
X-3733271Y-820697D01*
X-3707871Y-795297D01*
X-3707871Y-722703D01*
X-3759203Y-671371D01*
X-3831797Y-671371D01*
X-3883129Y-722703D01*
X-3883129Y-792371D01*
X-3936297Y-792371D01*
X-3987629Y-843703D01*
X-3987629Y-916297D01*
X-3962229Y-941697D01*
X-3962229Y-1904303D01*
X-3987629Y-1929703D01*
X-3987629Y-2002297D01*
X-3936297Y-2053629D01*
X-3863703Y-2053629D01*
X-3812371Y-2002297D01*
X-3812371Y-1929703D01*
X-3837771Y-1904303D01*
X-3837771Y-1566733D01*
X-3757775Y-1646729D01*
X-3722053Y-1646729D01*
X-3729529Y-1654205D01*
X-3729529Y-1769795D01*
X-3660324Y-1839000D01*
X-3729529Y-1908205D01*
X-3729529Y-2023795D01*
X-3684453Y-2068871D01*
X-3741129Y-2068871D01*
X-3741129Y-2316330D01*
X-4967175Y-2316330D01*
X-4940000Y-1800000D01*
X-5453070Y-1826538D01*
X-5453070Y+1980000D01*
X-4940000Y+1980000D01*
X-4931068Y+2533810D01*
X-3025958Y+2533810D01*
X-3088429Y+2471339D01*
G37*
%TD.AperFunction*%
%LPC*%
G36*
X-1903029Y-1306818D02*
X-1903029Y-1213182D01*
X-1836818Y-1146971D01*
X-1743182Y-1146971D01*
X-1676971Y-1213182D01*
X-1676971Y-1306818D01*
X-1743182Y-1373029D01*
X-1836818Y-1373029D01*
X-1903029Y-1306818D01*
G37*
G36*
X-1306300Y+1823458D02*
X-1306300Y+1865542D01*
X-1276542Y+1895300D01*
X-1234458Y+1895300D01*
X-1204700Y+1865542D01*
X-1204700Y+1823458D01*
X-1234458Y+1793700D01*
X-1276542Y+1793700D01*
X-1306300Y+1823458D01*
G37*
G36*
X-3020800Y+1823458D02*
X-3020800Y+1865542D01*
X-2991042Y+1895300D01*
X-2948958Y+1895300D01*
X-2919200Y+1865542D01*
X-2919200Y+1823458D01*
X-2948958Y+1793700D01*
X-2991042Y+1793700D01*
X-3020800Y+1823458D01*
G37*
%LPD*%
%TA.AperFunction,Conductor*%
G36*
X-1125775Y+947771D02*
X-121697Y+947771D01*
X-96297Y+922371D01*
X-38869Y+922371D01*
X-38869Y+779373D01*
X-86725Y+827229D01*
X-455775Y+827229D01*
X-555729Y+727275D01*
X-555729Y+399655D01*
X-573703Y+417629D01*
X-646297Y+417629D01*
X-671697Y+392229D01*
X-1408303Y+392229D01*
X-1433703Y+417629D01*
X-1506297Y+417629D01*
X-1557629Y+366297D01*
X-1557629Y+293703D01*
X-1506297Y+242371D01*
X-1433703Y+242371D01*
X-1408303Y+267771D01*
X-671697Y+267771D01*
X-646297Y+242371D01*
X-573703Y+242371D01*
X-555729Y+260345D01*
X-555729Y+219275D01*
X-582775Y+192229D01*
X-1193803Y+192229D01*
X-1219203Y+217629D01*
X-1291797Y+217629D01*
X-1343129Y+166297D01*
X-1343129Y+93703D01*
X-1323655Y+74229D01*
X-1815775Y+74229D01*
X-1852229Y+37775D01*
X-1852229Y-384971D01*
X-1903029Y-384971D01*
X-1903029Y-611029D01*
X-1703533Y-611029D01*
X-1725775Y-633271D01*
X-2690225Y-633271D01*
X-3327767Y+4271D01*
X-2015697Y+4271D01*
X-1990297Y-21129D01*
X-1917703Y-21129D01*
X-1866371Y+30203D01*
X-1866371Y+102797D01*
X-1917703Y+154129D01*
X-1990297Y+154129D01*
X-2015697Y+128729D01*
X-4051303Y+128729D01*
X-4076703Y+154129D01*
X-4149297Y+154129D01*
X-4200629Y+102797D01*
X-4200629Y+40229D01*
X-4834905Y+40229D01*
X-4899676Y+105000D01*
X-4830471Y+174205D01*
X-4830471Y+289795D01*
X-4899676Y+359000D01*
X-4834905Y+423771D01*
X-2919958Y+423771D01*
X-2941129Y+402600D01*
X-2941129Y+277400D01*
X-2852600Y+188871D01*
X-2727400Y+188871D01*
X-2638871Y+277400D01*
X-2638871Y+402600D01*
X-2660042Y+423771D01*
X-1889725Y+423771D01*
X-1864725Y+448771D01*
X-1166224Y+448771D01*
X-1129771Y+485224D01*
X-1129771Y+951767D01*
X-1125775Y+947771D01*
G37*
%TD.AperFunction*%
%LPC*%
G36*
X-2941129Y-222600D02*
X-2941129Y-97400D01*
X-2852600Y-8871D01*
X-2727400Y-8871D01*
X-2638871Y-97400D01*
X-2638871Y-222600D01*
X-2727400Y-311129D01*
X-2852600Y-311129D01*
X-2941129Y-222600D01*
G37*
%LPD*%
%TA.AperFunction,Conductor*%
G36*
X-111229Y+675725D02*
X-111229Y+509197D01*
X-128871Y+491555D01*
X-128871Y+671129D01*
X-431129Y+671129D01*
X-431129Y+74229D01*
X-524767Y+74229D01*
X-431271Y+167725D01*
X-431271Y+675725D01*
X-404225Y+702771D01*
X-138275Y+702771D01*
X-111229Y+675725D01*
G37*
%TD.AperFunction*%
%TA.AperFunction,Conductor*%
G36*
X-283502Y-234002D02*
X-265275Y-252229D01*
X-142229Y-252229D01*
X-142229Y-428303D01*
X-159040Y-445114D01*
X-219182Y-384971D01*
X-312818Y-384971D01*
X-379029Y-451182D01*
X-379029Y-544818D01*
X-366076Y-557771D01*
X-419924Y-557771D01*
X-406971Y-544818D01*
X-406971Y-451182D01*
X-473182Y-384971D01*
X-566818Y-384971D01*
X-633029Y-451182D01*
X-633029Y-544818D01*
X-613387Y-564461D01*
X-644629Y-595703D01*
X-644629Y-641471D01*
X-785225Y-641471D01*
X-812271Y-614425D01*
X-812271Y-611029D01*
X-727182Y-611029D01*
X-660971Y-544818D01*
X-660971Y-451182D01*
X-727182Y-384971D01*
X-812271Y-384971D01*
X-812271Y-225225D01*
X-851267Y-186229D01*
X-331275Y-186229D01*
X-283502Y-234002D01*
G37*
%TD.AperFunction*%
%LPC*%
G36*
X-671300Y-272042D02*
X-671300Y-229958D01*
X-641542Y-200200D01*
X-599458Y-200200D01*
X-569700Y-229958D01*
X-569700Y-272042D01*
X-599458Y-301800D01*
X-641542Y-301800D01*
X-671300Y-272042D01*
G37*
%LPD*%
%TA.AperFunction,Conductor*%
G36*
X-936729Y-640200D02*
X-936729Y-665975D01*
X-914933Y-687771D01*
X-968303Y-687771D01*
X-993703Y-662371D01*
X-1066297Y-662371D01*
X-1117629Y-713703D01*
X-1117629Y-786297D01*
X-1066297Y-837629D01*
X-993703Y-837629D01*
X-968303Y-812229D01*
X-962129Y-812229D01*
X-962129Y-858797D01*
X-910797Y-910129D01*
X-874875Y-910129D01*
X-796275Y-988729D01*
X-223571Y-988729D01*
X-226800Y-991958D01*
X-226800Y-1034042D01*
X-197042Y-1063800D01*
X-154958Y-1063800D01*
X-125200Y-1034042D01*
X-125200Y-991958D01*
X-128429Y-988729D01*
X+1489725Y-988729D01*
X+1577871Y-1076875D01*
X+1577871Y-1112797D01*
X+1602845Y-1137771D01*
X+1195057Y-1137771D01*
X+1169657Y-1112371D01*
X+1097063Y-1112371D01*
X+1045731Y-1163703D01*
X+1045731Y-1236297D01*
X+1047205Y-1237771D01*
X+886155Y-1237771D01*
X+887629Y-1236297D01*
X+887629Y-1163703D01*
X+836297Y-1112371D01*
X+763703Y-1112371D01*
X+738303Y-1137771D01*
X+141697Y-1137771D01*
X+116297Y-1112371D01*
X+50471Y-1112371D01*
X+65300Y-1097542D01*
X+65300Y-1055458D01*
X+35542Y-1025700D01*
X-6542Y-1025700D01*
X-36300Y-1055458D01*
X-36300Y-1097542D01*
X-6542Y-1127300D01*
X+28774Y-1127300D01*
X-7629Y-1163703D01*
X-7629Y-1236297D01*
X+43703Y-1287629D01*
X+116297Y-1287629D01*
X+141697Y-1262229D01*
X+212371Y-1262229D01*
X+212371Y-1326297D01*
X+216545Y-1330471D01*
X+196205Y-1330471D01*
X+151129Y-1375547D01*
X+151129Y-1318871D01*
X-151129Y-1318871D01*
X-151129Y-1621129D01*
X+151129Y-1621129D01*
X+151129Y-1564453D01*
X+196205Y-1609529D01*
X+311795Y-1609529D01*
X+381000Y-1540324D01*
X+450205Y-1609529D01*
X+565795Y-1609529D01*
X+635000Y-1540324D01*
X+704205Y-1609529D01*
X+819795Y-1609529D01*
X+889000Y-1540324D01*
X+958205Y-1609529D01*
X+1073795Y-1609529D01*
X+1143000Y-1540324D01*
X+1212205Y-1609529D01*
X+1327795Y-1609529D01*
X+1405095Y-1532229D01*
X+1969725Y-1532229D01*
X+2047771Y-1610275D01*
X+2047771Y-2075303D01*
X+2006111Y-2116963D01*
X+1956197Y-2067049D01*
X+2014429Y-2067049D01*
X+2014429Y-1790191D01*
X+1825575Y-1790191D01*
X+1730775Y-1695391D01*
X-10775Y-1695391D01*
X-105575Y-1790191D01*
X-213339Y-1790191D01*
X-283000Y-1859852D01*
X-352661Y-1790191D01*
X-467339Y-1790191D01*
X-537000Y-1859852D01*
X-606661Y-1790191D01*
X-721339Y-1790191D01*
X-728771Y-1797623D01*
X-728771Y-1660075D01*
X-1015817Y-1373029D01*
X-981182Y-1373029D01*
X-914971Y-1306818D01*
X-914971Y-1213182D01*
X-981182Y-1146971D01*
X-1074818Y-1146971D01*
X-1117771Y-1189924D01*
X-1117771Y-568076D01*
X-1074818Y-611029D01*
X-981182Y-611029D01*
X-936729Y-566576D01*
X-936729Y-640200D01*
G37*
%TD.AperFunction*%
%LPC*%
G36*
X-379029Y-1306818D02*
X-379029Y-1213182D01*
X-312818Y-1146971D01*
X-219182Y-1146971D01*
X-152971Y-1213182D01*
X-152971Y-1306818D01*
X-219182Y-1373029D01*
X-312818Y-1373029D01*
X-379029Y-1306818D01*
G37*
G36*
X-633029Y-1306818D02*
X-633029Y-1213182D01*
X-566818Y-1146971D01*
X-473182Y-1146971D01*
X-406971Y-1213182D01*
X-406971Y-1306818D01*
X-473182Y-1373029D01*
X-566818Y-1373029D01*
X-633029Y-1306818D01*
G37*
G36*
X-887029Y-1306818D02*
X-887029Y-1213182D01*
X-820818Y-1146971D01*
X-727182Y-1146971D01*
X-660971Y-1213182D01*
X-660971Y-1306818D01*
X-727182Y-1373029D01*
X-820818Y-1373029D01*
X-887029Y-1306818D01*
G37*
%LPD*%
%TA.AperFunction,Conductor*%
G36*
X-1328818Y-611029D02*
X-1242229Y-611029D01*
X-1242229Y-1146971D01*
X-1328818Y-1146971D01*
X-1350271Y-1168424D01*
X-1350271Y-589577D01*
X-1328818Y-611029D01*
G37*
%TD.AperFunction*%
%TA.AperFunction,Conductor*%
G36*
X-853229Y-1711625D02*
X-853229Y-1797623D01*
X-860661Y-1790191D01*
X-975339Y-1790191D01*
X-1045000Y-1859852D01*
X-1114661Y-1790191D01*
X-1229339Y-1790191D01*
X-1299000Y-1859852D01*
X-1368661Y-1790191D01*
X-1483339Y-1790191D01*
X-1553000Y-1859852D01*
X-1622661Y-1790191D01*
X-1734187Y-1790191D01*
X-1350271Y-1406275D01*
X-1350271Y-1351576D01*
X-1328818Y-1373029D01*
X-1235182Y-1373029D01*
X-1213504Y-1351351D01*
X-853229Y-1711625D01*
G37*
%TD.AperFunction*%
D10*
X+110000Y+670000D02*
X+110000Y-480000D01*
X+160000Y-530000D01*
X+2010000Y+1560000D02*
X+2010000Y+1780000D01*
X+1150000Y+1660000D02*
X+1150000Y+1780000D01*
X+2010000Y+1780000D01*
X+2010000Y+1890000D01*
X+2568400Y+1890000D01*
X+2670000Y+1880000D01*
X+23360Y-620000D02*
X-545000Y-620000D01*
X-557000Y-632000D01*
X+1876000Y-1928620D02*
X+1705000Y-1757620D01*
X+15000Y-1757620D01*
X-156000Y-1928620D01*
X-874500Y-822500D02*
X-770500Y-926500D01*
X+1515500Y-926500D01*
X+1665500Y-1076500D01*
X+23360Y-620000D02*
X+23360Y+1740000D01*
X-190000Y+1740000D01*
X+1660000Y+1250000D02*
X+1660000Y+1090000D01*
X+1010000Y+1090000D01*
X+1010000Y+1850000D01*
X-190000Y+1850000D01*
X-190000Y+1740000D01*
X-3590000Y-1204000D02*
X-2030000Y-1204000D01*
X-2030000Y-1220000D01*
X-4210000Y+2130000D02*
X-4205000Y+2130000D01*
X-4205000Y+2225000D01*
X-4295000Y+2315000D01*
X-5270000Y+1040000D02*
X-4974206Y+744206D01*
X-4962294Y+744206D01*
X-4970000Y+740000D01*
X-5270000Y+1340000D02*
X-5270000Y+1040000D01*
X-5270000Y+1340000D02*
X-5270000Y+1470000D01*
X-5260000Y+1480000D01*
X-4840000Y+1480000D01*
X-4798282Y+1521718D01*
X-4798282Y+2095718D01*
X-4695863Y+2198137D01*
X-4278137Y+2198137D01*
X-4210000Y+2130000D01*
X+1876000Y-2182620D02*
X+1622000Y-2182620D01*
X-280000Y+266000D02*
X-158400Y+188400D01*
X-50000Y+80000D01*
X+290000Y+80000D02*
X+290000Y-360000D01*
X+720000Y-360000D01*
X+870000Y-210000D01*
X+3400000Y-210000D01*
X+3880000Y+270000D01*
X-610000Y+330000D02*
X-1470000Y+330000D01*
X-280000Y+12000D02*
X-122000Y+12000D01*
X-48037Y-61963D01*
X+214706Y-68824D02*
X+210000Y-410000D01*
X+750000Y-410000D01*
X+880000Y-280000D01*
X+2030000Y-280000D01*
X+2210000Y-460000D01*
X-980000Y+12000D02*
X-1790000Y+12000D01*
X-1790000Y-498000D01*
X-280000Y+12000D02*
X-980000Y+12000D01*
X+2210000Y-1200000D02*
X+1133360Y-1200000D01*
X-1030000Y-750000D02*
X+2000000Y-750000D01*
X+2000000Y-1010000D01*
X+2850000Y-1010000D01*
X+2850000Y-460000D01*
X+2850000Y-470000D01*
X+2850000Y-460000D01*
X-686000Y-840000D02*
X+1910000Y-840000D01*
X+1910000Y-1130000D01*
X+2610000Y-1130000D01*
X+1410000Y-490000D02*
X+980000Y-490000D01*
X+800000Y-670000D01*
X+80000Y-1200000D02*
X+800000Y-1200000D01*
X-2950000Y-1928620D02*
X-2823000Y-2055620D01*
X-2315000Y-2055620D01*
X-2188000Y-2182620D01*
X+254000Y-1470000D02*
X+231420Y-1447420D01*
X+231420Y-1330500D01*
X+78000Y-1330500D01*
X+11420Y-1263920D01*
X+11420Y-1079580D01*
X+14500Y-1076500D01*
X-366500Y-1775000D02*
X-366500Y-1203500D01*
X-176000Y-1013000D01*
X-1172000Y-1928620D02*
X-1299000Y-2055620D01*
X-1553000Y-2055620D01*
X-1680000Y-2182620D01*
X-1282000Y-1260000D02*
X-1282000Y-1648000D01*
X-1255500Y-1674500D01*
X-1255500Y-1775000D01*
X-4113000Y+2289000D02*
X-4113000Y+1880000D01*
X-4210000Y+1880000D01*
X-4113000Y+2289000D02*
X-4113000Y+2416000D01*
X-4508360Y+2416000D01*
X-4508360Y+2315000D01*
X-266000Y-498000D02*
X-513000Y-251000D01*
X-620500Y-251000D01*
X-176000Y-1013000D02*
X-49000Y-1013000D01*
X+14500Y-1076500D01*
X-2970000Y+1844500D02*
X-1255500Y+1844500D01*
X+508000Y-1470000D02*
X+581370Y-1380000D01*
X+661370Y-1300000D01*
X+1580000Y-1300000D01*
X+508000Y-1470000D02*
X+430000Y-1380000D01*
X+300000Y-1290000D01*
X+1750000Y+1450000D02*
X+2046500Y+1450000D01*
X+3058400Y+1450000D01*
X+3160000Y+1440000D01*
X+1750000Y+1450000D02*
X+1863500Y+1336500D01*
X+2046500Y+1336500D01*
X+2046500Y+1450000D01*
X+2046500Y+1463500D01*
X-60000Y+1010000D02*
X-1100000Y+1010000D01*
X-1100000Y+1480000D01*
X+160000Y+1010000D02*
X+2450000Y+1010000D01*
X+3170000Y+290000D01*
X+2770000Y-660000D02*
X+2770000Y-690000D01*
X+2170000Y-690000D01*
X+1810000Y-330000D01*
X+1020000Y-330000D01*
X+850000Y-500000D01*
X+395500Y-500000D01*
X+300000Y-500000D02*
X+395500Y-500000D01*
X-4730000Y+1040000D02*
X-4516872Y+1253128D01*
X-4516872Y+1935124D01*
X-4581748Y+2000000D01*
X-4610000Y+2000000D01*
X-4730000Y+1040000D02*
X-5056640Y+1040000D01*
X-3795500Y-759000D02*
X-3795500Y-1521000D01*
X-3732000Y-1584500D01*
X-2208000Y-1584500D01*
X-4730000Y+1340000D02*
X-4730000Y+2024326D01*
X-4624326Y+2130000D01*
X-4610000Y+2130000D01*
X-4730000Y+1340000D02*
X-5056640Y+1340000D01*
X-1954000Y+66500D02*
X-4113000Y+66500D01*
X-1255500Y+130000D02*
X-557000Y+130000D01*
X-493500Y+193500D01*
X-493500Y+701500D01*
X-430000Y+765000D01*
X-112500Y+765000D01*
X-49000Y+701500D01*
X-49000Y+447500D01*
X-2620000Y-980000D02*
X-2230000Y-980000D01*
X-80000Y-190000D02*
X-239500Y-190000D01*
X-305500Y-124000D01*
X-1573000Y-124000D01*
X-1636500Y-187500D01*
X-1636500Y-632000D01*
X-1700000Y-695500D01*
X-2716000Y-695500D01*
X-3389500Y-22000D01*
X-4970000Y-22000D01*
X-80000Y-490000D02*
X-80000Y-190000D01*
X+400000Y-190000D02*
X+400000Y+270000D01*
X+600000Y+270000D01*
X-1192000Y+511000D02*
X-1890500Y+511000D01*
X-1915500Y+486000D01*
X-4970000Y+486000D01*
X-1192000Y+638000D02*
X-1192000Y+511000D01*
X-1192000Y+638000D02*
X-1192000Y+1527000D01*
X-1128500Y+1590500D01*
X-747500Y+1590500D01*
X-303000Y+1146000D01*
X-2912000Y-1712000D02*
X-3590000Y-1712000D01*
X-3900000Y-880000D02*
X-3900000Y-1966000D01*
X+860000Y-1928620D02*
X+769180Y-2019440D01*
X+712115Y-2019440D01*
X+675935Y-2055620D01*
X+479000Y-2055620D01*
X+352000Y-2182620D01*
X+893971Y+603016D02*
X+1343016Y+603016D01*
X+1580000Y+840000D01*
X+1368000Y-2182620D02*
X+1495000Y-2055620D01*
X+2046500Y-2055620D01*
X+2046500Y-1775000D01*
X+1983000Y-1711500D01*
X+1003500Y-1711500D01*
X+762000Y-1470000D01*
X-1172000Y-1928620D02*
X-1172000Y-1775000D01*
X-1255500Y-1775000D01*
X-366500Y-1775000D02*
X-460000Y-1775000D01*
X-537000Y-1852000D01*
X-537000Y-2055620D01*
X-410000Y-2182620D01*
X+395500Y-500000D02*
X+395500Y-632000D01*
X+323800Y-703700D01*
X-811000Y-703700D01*
X-874500Y-640200D01*
X-874500Y-251000D01*
X-950700Y-174800D01*
X-1349000Y-174800D01*
X-1412500Y-238300D01*
X-1412500Y-1380500D01*
X-1807000Y-1775000D01*
X-1807000Y-2055620D01*
X-1934000Y-2182620D01*
X-3590000Y-1966000D02*
X-3590000Y-1948620D01*
X-3414500Y-1948620D01*
X-3053120Y-2310000D01*
X+986620Y-2310000D01*
X+1114000Y-2182620D01*
X+1876000Y-2182620D02*
X+2028458Y-2182620D01*
X+2110000Y-2101078D01*
X+2110000Y-1584500D01*
X+1995500Y-1470000D01*
X+1270000Y-1470000D01*
X+550000Y+850000D02*
X+1249852Y+150148D01*
X+3557768Y+150148D01*
X+3821075Y+413455D01*
X+3937752Y+413455D01*
X+4020000Y+331207D01*
X+4020000Y-252143D01*
X+1954154Y-2317989D01*
X+1327190Y-2317989D01*
X+1235226Y-2226025D01*
X+1235226Y-2134938D01*
X+1162908Y-2062620D01*
X+730000Y-2062620D01*
X+694900Y-2097720D01*
X+606000Y-2182620D01*
X-1255500Y-251000D02*
X-1285500Y-251000D01*
X-1180000Y-356500D01*
X-1180000Y-1296850D01*
X-791000Y-1685850D01*
X-791000Y-2055620D01*
X-664000Y-2182620D01*
X+1750000Y+1450000D02*
X+1157500Y+1450000D01*
X+1067300Y+1540200D01*
X+1067300Y+1908000D01*
X-239500Y+1908000D01*
X-430000Y+1717500D01*
X-2335000Y+1717500D01*
X-2462000Y-1775000D02*
X-2486380Y-1799380D01*
X-3063500Y-1799380D01*
X-3127000Y-1862880D01*
X-3127000Y-2005620D01*
X-2950000Y-2182620D01*
X-3986000Y-505000D02*
X-3541500Y-505000D01*
X-2970000Y-1076500D01*
X-2208000Y-1076500D01*
X-130000Y+2010000D02*
X-105000Y+2035000D01*
X+3253000Y+2035000D01*
X+3316500Y+1971500D01*
X+3316500Y+836500D01*
X+3170000Y+690000D01*
D11*
X+160000Y-530000D03*
X+110000Y+670000D03*
X+2010000Y+1560000D03*
X+1150000Y+1660000D03*
X-557000Y-632000D03*
X+1665500Y-1076500D03*
X-190000Y+1740000D03*
X+23360Y-620000D03*
X+1660000Y+1250000D03*
X-2030000Y-1220000D03*
X-874500Y-822500D03*
X-50000Y+80000D03*
X+290000Y+80000D03*
X-1470000Y+330000D03*
X-610000Y+330000D03*
X-48037Y-61963D03*
X+214706Y-68824D03*
X-980000Y+12000D03*
X+1133360Y-1200000D03*
X+2210000Y-1200000D03*
X+2850000Y-460000D03*
X-1030000Y-750000D03*
X+2610000Y-1130000D03*
X-686000Y-840000D03*
X+800000Y-1200000D03*
X+80000Y-1200000D03*
X-620500Y-251000D03*
X+14500Y-1076500D03*
X-1255500Y+1844500D03*
X-2970000Y+1844500D03*
X-176000Y-1013000D03*
X-4113000Y+2289000D03*
X+1580000Y-1300000D03*
X+300000Y-1290000D03*
X+2046500Y+1463500D03*
X-1100000Y+1480000D03*
X-60000Y+1010000D03*
X+160000Y+1010000D03*
X+2770000Y-660000D03*
X+300000Y-500000D03*
X-2208000Y-1584500D03*
X-3795500Y-759000D03*
X-4113000Y+66500D03*
X-1954000Y+66500D03*
X-49000Y+447500D03*
X-1255500Y+130000D03*
X-2230000Y-980000D03*
X-2620000Y-980000D03*
X+400000Y-190000D03*
X-80000Y-190000D03*
X-80000Y-490000D03*
X-303000Y+1146000D03*
X-3900000Y-1966000D03*
X-3900000Y-880000D03*
X+893971Y+603016D03*
X-2912000Y-1712000D03*
X-1255500Y-251000D03*
X-2335000Y+1717500D03*
X-2462000Y-1775000D03*
X-3986000Y-505000D03*
X-2208000Y-1076500D03*
X-130000Y+2010000D03*
D12*
X-3088429Y+2471339D02*
X-3088429Y+2356661D01*
X-3018768Y+2287000D01*
X-3088429Y+2217339D01*
X-3088429Y+2102661D01*
X-3007339Y+2021571D01*
X-2892661Y+2021571D01*
X-2823000Y+2091232D01*
X-2753339Y+2021571D01*
X-2638661Y+2021571D01*
X-2569000Y+2091232D01*
X-2499339Y+2021571D01*
X-2384661Y+2021571D01*
X-2315000Y+2091232D01*
X-2245339Y+2021571D01*
X-2130661Y+2021571D01*
X-2061000Y+2091232D01*
X-1991339Y+2021571D01*
X-1876661Y+2021571D01*
X-1807000Y+2091232D01*
X-1737339Y+2021571D01*
X-1622661Y+2021571D01*
X-1553000Y+2091232D01*
X-1483339Y+2021571D01*
X-1368661Y+2021571D01*
X-1299000Y+2091232D01*
X-1229339Y+2021571D01*
X-1114661Y+2021571D01*
X-1045000Y+2091232D01*
X-975339Y+2021571D01*
X-860661Y+2021571D01*
X-791000Y+2091232D01*
X-721339Y+2021571D01*
X-606661Y+2021571D01*
X-537000Y+2091232D01*
X-467339Y+2021571D01*
X-352661Y+2021571D01*
X-283000Y+2091232D01*
X-217629Y+2025861D01*
X-217629Y+1973703D01*
X-214155Y+1970229D01*
X-265275Y+1970229D01*
X-455775Y+1779729D01*
X-2273303Y+1779729D01*
X-2298703Y+1805129D01*
X-2371297Y+1805129D01*
X-2422629Y+1753797D01*
X-2422629Y+1681203D01*
X-2371297Y+1629871D01*
X-2298703Y+1629871D01*
X-2273303Y+1655271D01*
X-404225Y+1655271D01*
X-252229Y+1807267D01*
X-252229Y+1801697D01*
X-277629Y+1776297D01*
X-277629Y+1703703D01*
X-226297Y+1652371D01*
X-153703Y+1652371D01*
X-128303Y+1677771D01*
X-38869Y+1677771D01*
X-38869Y+1097629D01*
X-96297Y+1097629D01*
X-121697Y+1072229D01*
X-252845Y+1072229D01*
X-215371Y+1109703D01*
X-215371Y+1182297D01*
X-266703Y+1233629D01*
X-302625Y+1233629D01*
X-721725Y+1652729D01*
X-1154275Y+1652729D01*
X-1254229Y+1552775D01*
X-1254229Y+573229D01*
X-1916275Y+573229D01*
X-1941275Y+548229D01*
X-4834905Y+548229D01*
X-4875547Y+588871D01*
X-4818871Y+588871D01*
X-4818871Y+891129D01*
X-5033125Y+891129D01*
X-5068967Y+926971D01*
X-4956311Y+926971D01*
X-4956311Y+977771D01*
X-4881129Y+977771D01*
X-4881129Y+977400D01*
X-4792600Y+888871D01*
X-4667400Y+888871D01*
X-4578871Y+977400D01*
X-4578871Y+1102600D01*
X-4579134Y+1102862D01*
X-4454643Y+1227353D01*
X-4454643Y+1960899D01*
X-4505471Y+2011727D01*
X-4505471Y+2135908D01*
X-4314529Y+2135908D01*
X-4314529Y+1670471D01*
X-4105471Y+1670471D01*
X-4105471Y+2209529D01*
X-4142771Y+2209529D01*
X-4142771Y+2246929D01*
X-4134042Y+2238200D01*
X-4091958Y+2238200D01*
X-4062200Y+2267958D01*
X-4062200Y+2310042D01*
X-4091958Y+2339800D01*
X-4134042Y+2339800D01*
X-4163800Y+2310042D01*
X-4163800Y+2271804D01*
X-4194671Y+2302675D01*
X-4194671Y+2428029D01*
X-4395329Y+2428029D01*
X-4395329Y+2260366D01*
X-4408031Y+2260366D01*
X-4408031Y+2428029D01*
X-4608689Y+2428029D01*
X-4608689Y+2260366D01*
X-4721638Y+2260366D01*
X-4860510Y+2121494D01*
X-4860510Y+1547494D01*
X-4865775Y+1542229D01*
X-5285775Y+1542229D01*
X-5332229Y+1495775D01*
X-5332229Y+1453029D01*
X-5370329Y+1453029D01*
X-5370329Y+1226971D01*
X-5332229Y+1226971D01*
X-5332229Y+1153029D01*
X-5370329Y+1153029D01*
X-5370329Y+926971D01*
X-5244975Y+926971D01*
X-5121129Y+803125D01*
X-5121129Y+588871D01*
X-5064453Y+588871D01*
X-5109529Y+543795D01*
X-5109529Y+428205D01*
X-5040324Y+359000D01*
X-5109529Y+289795D01*
X-5109529Y+174205D01*
X-5040324Y+105000D01*
X-5109529Y+35795D01*
X-5109529Y-79795D01*
X-5040324Y-149000D01*
X-5109529Y-218205D01*
X-5109529Y-333795D01*
X-5040324Y-403000D01*
X-5109529Y-472205D01*
X-5109529Y-587795D01*
X-5027795Y-669529D01*
X-4912205Y-669529D01*
X-4830471Y-587795D01*
X-4830471Y-472205D01*
X-4899676Y-403000D01*
X-4830471Y-333795D01*
X-4830471Y-218205D01*
X-4899676Y-149000D01*
X-4834905Y-84229D01*
X-3415275Y-84229D01*
X-2741775Y-757729D01*
X-1674225Y-757729D01*
X-1574271Y-657775D01*
X-1574271Y-611029D01*
X-1489182Y-611029D01*
X-1474729Y-596576D01*
X-1474729Y-1161424D01*
X-1489182Y-1146971D01*
X-1582818Y-1146971D01*
X-1649029Y-1213182D01*
X-1649029Y-1306818D01*
X-1582818Y-1373029D01*
X-1493033Y-1373029D01*
X-1869228Y-1749224D01*
X-1869228Y-1797624D01*
X-1876661Y-1790191D01*
X-1991339Y-1790191D01*
X-2061000Y-1859852D01*
X-2130661Y-1790191D01*
X-2245339Y-1790191D01*
X-2315000Y-1859852D01*
X-2374371Y-1800481D01*
X-2374371Y-1738703D01*
X-2425703Y-1687371D01*
X-2498297Y-1687371D01*
X-2548077Y-1737151D01*
X-2824371Y-1737151D01*
X-2824371Y-1675703D01*
X-2853345Y-1646729D01*
X-2269697Y-1646729D01*
X-2244297Y-1672129D01*
X-2171703Y-1672129D01*
X-2120371Y-1620797D01*
X-2120371Y-1548203D01*
X-2171703Y-1496871D01*
X-2244297Y-1496871D01*
X-2269697Y-1522271D01*
X-3456947Y-1522271D01*
X-3450471Y-1515795D01*
X-3450471Y-1400205D01*
X-3519676Y-1331000D01*
X-3454905Y-1266229D01*
X-2107697Y-1266229D01*
X-2066297Y-1307629D01*
X-1993703Y-1307629D01*
X-1942371Y-1256297D01*
X-1942371Y-1183703D01*
X-1993703Y-1132371D01*
X-2066297Y-1132371D01*
X-2075697Y-1141771D01*
X-2149345Y-1141771D01*
X-2120371Y-1112797D01*
X-2120371Y-1040203D01*
X-2143324Y-1017250D01*
X-2142371Y-1016297D01*
X-2142371Y-943703D01*
X-2193703Y-892371D01*
X-2266297Y-892371D01*
X-2291697Y-917771D01*
X-2558303Y-917771D01*
X-2583703Y-892371D01*
X-2656297Y-892371D01*
X-2707629Y-943703D01*
X-2707629Y-1014271D01*
X-2944225Y-1014271D01*
X-3515725Y-442771D01*
X-3924303Y-442771D01*
X-3949703Y-417371D01*
X-4022297Y-417371D01*
X-4073629Y-468703D01*
X-4073629Y-541297D01*
X-4022297Y-592629D01*
X-3949703Y-592629D01*
X-3924303Y-567229D01*
X-3567275Y-567229D01*
X-2995775Y-1138729D01*
X-2269697Y-1138729D01*
X-2266655Y-1141771D01*
X-3454905Y-1141771D01*
X-3532205Y-1064471D01*
X-3647795Y-1064471D01*
X-3729529Y-1146205D01*
X-3729529Y-1261795D01*
X-3660324Y-1331000D01*
X-3729529Y-1400205D01*
X-3729529Y-1498967D01*
X-3733271Y-1495225D01*
X-3733271Y-820697D01*
X-3707871Y-795297D01*
X-3707871Y-722703D01*
X-3759203Y-671371D01*
X-3831797Y-671371D01*
X-3883129Y-722703D01*
X-3883129Y-792371D01*
X-3936297Y-792371D01*
X-3987629Y-843703D01*
X-3987629Y-916297D01*
X-3962229Y-941697D01*
X-3962229Y-1904303D01*
X-3987629Y-1929703D01*
X-3987629Y-2002297D01*
X-3936297Y-2053629D01*
X-3863703Y-2053629D01*
X-3812371Y-2002297D01*
X-3812371Y-1929703D01*
X-3837771Y-1904303D01*
X-3837771Y-1566733D01*
X-3757775Y-1646729D01*
X-3722053Y-1646729D01*
X-3729529Y-1654205D01*
X-3729529Y-1769795D01*
X-3660324Y-1839000D01*
X-3729529Y-1908205D01*
X-3729529Y-2023795D01*
X-3684453Y-2068871D01*
X-3741129Y-2068871D01*
X-3741129Y-2316330D01*
X-4967175Y-2316330D01*
X-4940000Y-1800000D01*
X-5453070Y-1826538D01*
X-5453070Y+1980000D01*
X-4940000Y+1980000D01*
X-4931068Y+2533810D01*
X-3025958Y+2533810D01*
X-3088429Y+2471339D01*
X-1903029Y-1306818D02*
X-1903029Y-1213182D01*
X-1836818Y-1146971D01*
X-1743182Y-1146971D01*
X-1676971Y-1213182D01*
X-1676971Y-1306818D01*
X-1743182Y-1373029D01*
X-1836818Y-1373029D01*
X-1903029Y-1306818D01*
X-1306300Y+1823458D02*
X-1306300Y+1865542D01*
X-1276542Y+1895300D01*
X-1234458Y+1895300D01*
X-1204700Y+1865542D01*
X-1204700Y+1823458D01*
X-1234458Y+1793700D01*
X-1276542Y+1793700D01*
X-1306300Y+1823458D01*
X-3020800Y+1823458D02*
X-3020800Y+1865542D01*
X-2991042Y+1895300D01*
X-2948958Y+1895300D01*
X-2919200Y+1865542D01*
X-2919200Y+1823458D01*
X-2948958Y+1793700D01*
X-2991042Y+1793700D01*
X-3020800Y+1823458D01*
X-1125775Y+947771D02*
X-121697Y+947771D01*
X-96297Y+922371D01*
X-38869Y+922371D01*
X-38869Y+779373D01*
X-86725Y+827229D01*
X-455775Y+827229D01*
X-555729Y+727275D01*
X-555729Y+399655D01*
X-573703Y+417629D01*
X-646297Y+417629D01*
X-671697Y+392229D01*
X-1408303Y+392229D01*
X-1433703Y+417629D01*
X-1506297Y+417629D01*
X-1557629Y+366297D01*
X-1557629Y+293703D01*
X-1506297Y+242371D01*
X-1433703Y+242371D01*
X-1408303Y+267771D01*
X-671697Y+267771D01*
X-646297Y+242371D01*
X-573703Y+242371D01*
X-555729Y+260345D01*
X-555729Y+219275D01*
X-582775Y+192229D01*
X-1193803Y+192229D01*
X-1219203Y+217629D01*
X-1291797Y+217629D01*
X-1343129Y+166297D01*
X-1343129Y+93703D01*
X-1323655Y+74229D01*
X-1815775Y+74229D01*
X-1852229Y+37775D01*
X-1852229Y-384971D01*
X-1903029Y-384971D01*
X-1903029Y-611029D01*
X-1703533Y-611029D01*
X-1725775Y-633271D01*
X-2690225Y-633271D01*
X-3327767Y+4271D01*
X-2015697Y+4271D01*
X-1990297Y-21129D01*
X-1917703Y-21129D01*
X-1866371Y+30203D01*
X-1866371Y+102797D01*
X-1917703Y+154129D01*
X-1990297Y+154129D01*
X-2015697Y+128729D01*
X-4051303Y+128729D01*
X-4076703Y+154129D01*
X-4149297Y+154129D01*
X-4200629Y+102797D01*
X-4200629Y+40229D01*
X-4834905Y+40229D01*
X-4899676Y+105000D01*
X-4830471Y+174205D01*
X-4830471Y+289795D01*
X-4899676Y+359000D01*
X-4834905Y+423771D01*
X-2919958Y+423771D01*
X-2941129Y+402600D01*
X-2941129Y+277400D01*
X-2852600Y+188871D01*
X-2727400Y+188871D01*
X-2638871Y+277400D01*
X-2638871Y+402600D01*
X-2660042Y+423771D01*
X-1889725Y+423771D01*
X-1864725Y+448771D01*
X-1166224Y+448771D01*
X-1129771Y+485224D01*
X-1129771Y+951767D01*
X-1125775Y+947771D01*
X-2941129Y-222600D02*
X-2941129Y-97400D01*
X-2852600Y-8871D01*
X-2727400Y-8871D01*
X-2638871Y-97400D01*
X-2638871Y-222600D01*
X-2727400Y-311129D01*
X-2852600Y-311129D01*
X-2941129Y-222600D01*
X-111229Y+675725D02*
X-111229Y+509197D01*
X-128871Y+491555D01*
X-128871Y+671129D01*
X-431129Y+671129D01*
X-431129Y+74229D01*
X-524767Y+74229D01*
X-431271Y+167725D01*
X-431271Y+675725D01*
X-404225Y+702771D01*
X-138275Y+702771D01*
X-111229Y+675725D01*
X-283502Y-234002D02*
X-265275Y-252229D01*
X-142229Y-252229D01*
X-142229Y-428303D01*
X-159040Y-445114D01*
X-219182Y-384971D01*
X-312818Y-384971D01*
X-379029Y-451182D01*
X-379029Y-544818D01*
X-366076Y-557771D01*
X-419924Y-557771D01*
X-406971Y-544818D01*
X-406971Y-451182D01*
X-473182Y-384971D01*
X-566818Y-384971D01*
X-633029Y-451182D01*
X-633029Y-544818D01*
X-613387Y-564461D01*
X-644629Y-595703D01*
X-644629Y-641471D01*
X-785225Y-641471D01*
X-812271Y-614425D01*
X-812271Y-611029D01*
X-727182Y-611029D01*
X-660971Y-544818D01*
X-660971Y-451182D01*
X-727182Y-384971D01*
X-812271Y-384971D01*
X-812271Y-225225D01*
X-851267Y-186229D01*
X-331275Y-186229D01*
X-283502Y-234002D01*
X-671300Y-272042D02*
X-671300Y-229958D01*
X-641542Y-200200D01*
X-599458Y-200200D01*
X-569700Y-229958D01*
X-569700Y-272042D01*
X-599458Y-301800D01*
X-641542Y-301800D01*
X-671300Y-272042D01*
X-936729Y-640200D02*
X-936729Y-665975D01*
X-914933Y-687771D01*
X-968303Y-687771D01*
X-993703Y-662371D01*
X-1066297Y-662371D01*
X-1117629Y-713703D01*
X-1117629Y-786297D01*
X-1066297Y-837629D01*
X-993703Y-837629D01*
X-968303Y-812229D01*
X-962129Y-812229D01*
X-962129Y-858797D01*
X-910797Y-910129D01*
X-874875Y-910129D01*
X-796275Y-988729D01*
X-223571Y-988729D01*
X-226800Y-991958D01*
X-226800Y-1034042D01*
X-197042Y-1063800D01*
X-154958Y-1063800D01*
X-125200Y-1034042D01*
X-125200Y-991958D01*
X-128429Y-988729D01*
X+1489725Y-988729D01*
X+1577871Y-1076875D01*
X+1577871Y-1112797D01*
X+1602845Y-1137771D01*
X+1195057Y-1137771D01*
X+1169657Y-1112371D01*
X+1097063Y-1112371D01*
X+1045731Y-1163703D01*
X+1045731Y-1236297D01*
X+1047205Y-1237771D01*
X+886155Y-1237771D01*
X+887629Y-1236297D01*
X+887629Y-1163703D01*
X+836297Y-1112371D01*
X+763703Y-1112371D01*
X+738303Y-1137771D01*
X+141697Y-1137771D01*
X+116297Y-1112371D01*
X+50471Y-1112371D01*
X+65300Y-1097542D01*
X+65300Y-1055458D01*
X+35542Y-1025700D01*
X-6542Y-1025700D01*
X-36300Y-1055458D01*
X-36300Y-1097542D01*
X-6542Y-1127300D01*
X+28774Y-1127300D01*
X-7629Y-1163703D01*
X-7629Y-1236297D01*
X+43703Y-1287629D01*
X+116297Y-1287629D01*
X+141697Y-1262229D01*
X+212371Y-1262229D01*
X+212371Y-1326297D01*
X+216545Y-1330471D01*
X+196205Y-1330471D01*
X+151129Y-1375547D01*
X+151129Y-1318871D01*
X-151129Y-1318871D01*
X-151129Y-1621129D01*
X+151129Y-1621129D01*
X+151129Y-1564453D01*
X+196205Y-1609529D01*
X+311795Y-1609529D01*
X+381000Y-1540324D01*
X+450205Y-1609529D01*
X+565795Y-1609529D01*
X+635000Y-1540324D01*
X+704205Y-1609529D01*
X+819795Y-1609529D01*
X+889000Y-1540324D01*
X+958205Y-1609529D01*
X+1073795Y-1609529D01*
X+1143000Y-1540324D01*
X+1212205Y-1609529D01*
X+1327795Y-1609529D01*
X+1405095Y-1532229D01*
X+1969725Y-1532229D01*
X+2047771Y-1610275D01*
X+2047771Y-2075303D01*
X+2006111Y-2116963D01*
X+1956197Y-2067049D01*
X+2014429Y-2067049D01*
X+2014429Y-1790191D01*
X+1825575Y-1790191D01*
X+1730775Y-1695391D01*
X-10775Y-1695391D01*
X-105575Y-1790191D01*
X-213339Y-1790191D01*
X-283000Y-1859852D01*
X-352661Y-1790191D01*
X-467339Y-1790191D01*
X-537000Y-1859852D01*
X-606661Y-1790191D01*
X-721339Y-1790191D01*
X-728771Y-1797623D01*
X-728771Y-1660075D01*
X-1015817Y-1373029D01*
X-981182Y-1373029D01*
X-914971Y-1306818D01*
X-914971Y-1213182D01*
X-981182Y-1146971D01*
X-1074818Y-1146971D01*
X-1117771Y-1189924D01*
X-1117771Y-568076D01*
X-1074818Y-611029D01*
X-981182Y-611029D01*
X-936729Y-566576D01*
X-936729Y-640200D01*
X-379029Y-1306818D02*
X-379029Y-1213182D01*
X-312818Y-1146971D01*
X-219182Y-1146971D01*
X-152971Y-1213182D01*
X-152971Y-1306818D01*
X-219182Y-1373029D01*
X-312818Y-1373029D01*
X-379029Y-1306818D01*
X-633029Y-1306818D02*
X-633029Y-1213182D01*
X-566818Y-1146971D01*
X-473182Y-1146971D01*
X-406971Y-1213182D01*
X-406971Y-1306818D01*
X-473182Y-1373029D01*
X-566818Y-1373029D01*
X-633029Y-1306818D01*
X-887029Y-1306818D02*
X-887029Y-1213182D01*
X-820818Y-1146971D01*
X-727182Y-1146971D01*
X-660971Y-1213182D01*
X-660971Y-1306818D01*
X-727182Y-1373029D01*
X-820818Y-1373029D01*
X-887029Y-1306818D01*
X-1328818Y-611029D02*
X-1242229Y-611029D01*
X-1242229Y-1146971D01*
X-1328818Y-1146971D01*
X-1350271Y-1168424D01*
X-1350271Y-589577D01*
X-1328818Y-611029D01*
X-853229Y-1711625D02*
X-853229Y-1797623D01*
X-860661Y-1790191D01*
X-975339Y-1790191D01*
X-1045000Y-1859852D01*
X-1114661Y-1790191D01*
X-1229339Y-1790191D01*
X-1299000Y-1859852D01*
X-1368661Y-1790191D01*
X-1483339Y-1790191D01*
X-1553000Y-1859852D01*
X-1622661Y-1790191D01*
X-1734187Y-1790191D01*
X-1350271Y-1406275D01*
X-1350271Y-1351576D01*
X-1328818Y-1373029D01*
X-1235182Y-1373029D01*
X-1213504Y-1351351D01*
X-853229Y-1711625D01*
D10*
X-399379Y+520000D02*
X-280000Y+520000D01*
X-160621Y+520000D02*
X-280000Y+520000D01*
X-280000Y+639379D02*
X-280000Y+520000D01*
X-4439781Y+2315000D02*
X-4508360Y+2315000D01*
X-4508360Y+2396279D02*
X-4508360Y+2315000D01*
X-4576939Y+2315000D02*
X-4508360Y+2315000D01*
X-4137221Y+1880000D02*
X-4210000Y+1880000D01*
X-4282779Y+1880000D02*
X-4210000Y+1880000D01*
X-5077779Y+232000D02*
X-4970000Y+232000D01*
X-4862221Y+232000D02*
X-4970000Y+232000D01*
X-347279Y-498000D02*
X-266000Y-498000D01*
X-266000Y-416721D02*
X-266000Y-498000D01*
X-1282000Y-1341279D02*
X-1282000Y-1260000D01*
X-1282000Y-1178721D02*
X-1282000Y-1260000D01*
X-3697779Y-1458000D02*
X-3590000Y-1458000D01*
X-3482221Y-1458000D02*
X-3590000Y-1458000D01*
X-3056679Y+2414000D02*
X-2950000Y+2414000D01*
X-2950000Y+2520679D02*
X-2950000Y+2414000D01*
X-3056679Y+2160000D02*
X-2950000Y+2160000D01*
X-2950000Y+2053321D02*
X-2950000Y+2160000D01*
X-1172000Y-1821941D02*
X-1172000Y-1928620D01*
X+254000Y-1577779D02*
X+254000Y-1470000D01*
X+762000Y-1577779D02*
X+762000Y-1470000D01*
D13*
X-280000Y+520000D03*
X-280000Y+266000D03*
X-280000Y+12000D03*
D14*
X-5056640Y+1340000D03*
X-5270000Y+1340000D03*
X-5056640Y+1040000D03*
X-5270000Y+1040000D03*
X-4508360Y+2315000D03*
X-4295000Y+2315000D03*
D15*
X-4210000Y+2130000D03*
X-4210000Y+2000000D03*
X-4210000Y+1880000D03*
X-4210000Y+1750000D03*
X-4610000Y+1750000D03*
X-4610000Y+1880000D03*
X-4610000Y+2000000D03*
X-4610000Y+2130000D03*
D16*
X+2670000Y+2280000D03*
X+2670000Y+1880000D03*
X+3550000Y+1930000D03*
X+3160000Y+1440000D03*
X+3780000Y+1430000D03*
X+3170000Y+690000D03*
X+3170000Y+290000D03*
X+3880000Y+270000D03*
X+550000Y+850000D03*
X+1580000Y+840000D03*
X+600000Y+270000D03*
X+610000Y-220000D03*
X+1410000Y-490000D03*
X+2210000Y-460000D03*
X+2610000Y-460000D03*
X+2210000Y-860000D03*
X+2610000Y-860000D03*
X-4730000Y+1340000D03*
X-4730000Y+1040000D03*
X-2790000Y+340000D03*
X-2790000Y-160000D03*
D13*
X-4970000Y+740000D03*
D17*
X-4970000Y+486000D03*
X-4970000Y+232000D03*
X-4970000Y-22000D03*
X-4970000Y-276000D03*
X-4970000Y-530000D03*
D18*
X-1790000Y-498000D03*
D19*
X-1536000Y-498000D03*
X-1282000Y-498000D03*
X-1028000Y-498000D03*
X-774000Y-498000D03*
X-520000Y-498000D03*
X-266000Y-498000D03*
X-266000Y-1260000D03*
X-520000Y-1260000D03*
X-774000Y-1260000D03*
X-1028000Y-1260000D03*
X-1282000Y-1260000D03*
X-1536000Y-1260000D03*
X-1790000Y-1260000D03*
D13*
X-3590000Y-2220000D03*
D17*
X-3590000Y-1966000D03*
X-3590000Y-1712000D03*
X-3590000Y-1458000D03*
X-3590000Y-1204000D03*
D16*
X+4240000Y-1590000D03*
D70*
X+1876000Y+2414000D03*
D71*
X+1622000Y+2414000D03*
X+1368000Y+2414000D03*
X+1114000Y+2414000D03*
X+860000Y+2414000D03*
X+606000Y+2414000D03*
X+352000Y+2414000D03*
X+98000Y+2414000D03*
X-156000Y+2414000D03*
X-410000Y+2414000D03*
X-664000Y+2414000D03*
X-918000Y+2414000D03*
X-1172000Y+2414000D03*
X-1426000Y+2414000D03*
X-1680000Y+2414000D03*
X-1934000Y+2414000D03*
X-2188000Y+2414000D03*
X-2442000Y+2414000D03*
X-2696000Y+2414000D03*
X-2950000Y+2414000D03*
X-2950000Y+2160000D03*
X-2696000Y+2160000D03*
X-2442000Y+2160000D03*
X-2188000Y+2160000D03*
X-1934000Y+2160000D03*
X-1680000Y+2160000D03*
X-1426000Y+2160000D03*
X-1172000Y+2160000D03*
X-918000Y+2160000D03*
X-664000Y+2160000D03*
X-410000Y+2160000D03*
X-156000Y+2160000D03*
X+98000Y+2160000D03*
X+352000Y+2160000D03*
X+606000Y+2160000D03*
X+860000Y+2160000D03*
X+1114000Y+2160000D03*
X+1368000Y+2160000D03*
X+1622000Y+2160000D03*
X+1876000Y+2160000D03*
D70*
X+1876000Y-1928620D03*
D71*
X+1622000Y-1928620D03*
X+1368000Y-1928620D03*
X+1114000Y-1928620D03*
X+860000Y-1928620D03*
X+606000Y-1928620D03*
X+352000Y-1928620D03*
X+98000Y-1928620D03*
X-156000Y-1928620D03*
X-410000Y-1928620D03*
X-664000Y-1928620D03*
X-918000Y-1928620D03*
X-1172000Y-1928620D03*
X-1426000Y-1928620D03*
X-1680000Y-1928620D03*
X-1934000Y-1928620D03*
X-2188000Y-1928620D03*
X-2442000Y-1928620D03*
X-2696000Y-1928620D03*
X-2950000Y-1928620D03*
X-2950000Y-2182620D03*
X-2696000Y-2182620D03*
X-2442000Y-2182620D03*
X-2188000Y-2182620D03*
X-1934000Y-2182620D03*
X-1680000Y-2182620D03*
X-1426000Y-2182620D03*
X-1172000Y-2182620D03*
X-918000Y-2182620D03*
X-664000Y-2182620D03*
X-410000Y-2182620D03*
X-156000Y-2182620D03*
X+98000Y-2182620D03*
X+352000Y-2182620D03*
X+606000Y-2182620D03*
X+860000Y-2182620D03*
X+1114000Y-2182620D03*
X+1368000Y-2182620D03*
X+1622000Y-2182620D03*
X+1876000Y-2182620D03*
D13*
X+0Y-1470000D03*
D17*
X+254000Y-1470000D03*
X+508000Y-1470000D03*
X+762000Y-1470000D03*
X+1016000Y-1470000D03*
X+1270000Y-1470000D03*
D20*
X-5528000Y-2391260D02*
X+4472000Y-2391260D01*
X+4472000Y+2608740D01*
X-5528000Y+2608740D01*
X-5528000Y-2391260D01*
X+4322000Y+2308740D02*
X+4321498Y+2320998D01*
X+4317422Y+2345515D01*
X+4308906Y+2370032D01*
X+4295032Y+2394549D01*
X+4273806Y+2418901D01*
X+4249289Y+2437295D01*
X+4224772Y+2449151D01*
X+4200255Y+2456055D01*
X+4175738Y+2458693D01*
X+4172000Y+2458740D01*
X+4022000Y+2308740D02*
X+4022502Y+2320998D01*
X+4026578Y+2345515D01*
X+4035094Y+2370032D01*
X+4048968Y+2394549D01*
X+4070194Y+2418901D01*
X+4094711Y+2437295D01*
X+4119228Y+2449151D01*
X+4143745Y+2456055D01*
X+4168262Y+2458693D01*
X+4172000Y+2458740D01*
X+4022000Y+2308740D02*
X+4022502Y+2296482D01*
X+4026578Y+2271965D01*
X+4035094Y+2247448D01*
X+4048968Y+2222931D01*
X+4070194Y+2198579D01*
X+4094711Y+2180185D01*
X+4119228Y+2168329D01*
X+4143745Y+2161425D01*
X+4168262Y+2158787D01*
X+4172000Y+2158740D01*
X+4322000Y+2308740D02*
X+4321498Y+2296482D01*
X+4317422Y+2271965D01*
X+4308906Y+2247448D01*
X+4295032Y+2222931D01*
X+4273806Y+2198579D01*
X+4249289Y+2180185D01*
X+4224772Y+2168329D01*
X+4200255Y+2161425D01*
X+4175738Y+2158787D01*
X+4172000Y+2158740D01*
X+4322000Y-2091260D02*
X+4321498Y-2079002D01*
X+4317422Y-2054485D01*
X+4308906Y-2029968D01*
X+4295032Y-2005451D01*
X+4273806Y-1981099D01*
X+4249289Y-1962705D01*
X+4224772Y-1950849D01*
X+4200255Y-1943945D01*
X+4175738Y-1941307D01*
X+4172000Y-1941260D01*
X+4022000Y-2091260D02*
X+4022502Y-2079002D01*
X+4026578Y-2054485D01*
X+4035094Y-2029968D01*
X+4048968Y-2005451D01*
X+4070194Y-1981099D01*
X+4094711Y-1962705D01*
X+4119228Y-1950849D01*
X+4143745Y-1943945D01*
X+4168262Y-1941307D01*
X+4172000Y-1941260D01*
X+4022000Y-2091260D02*
X+4022502Y-2103518D01*
X+4026578Y-2128035D01*
X+4035094Y-2152552D01*
X+4048968Y-2177069D01*
X+4070194Y-2201421D01*
X+4094711Y-2219815D01*
X+4119228Y-2231671D01*
X+4143745Y-2238575D01*
X+4168262Y-2241213D01*
X+4172000Y-2241260D01*
X+4322000Y-2091260D02*
X+4321498Y-2103518D01*
X+4317422Y-2128035D01*
X+4308906Y-2152552D01*
X+4295032Y-2177069D01*
X+4273806Y-2201421D01*
X+4249289Y-2219815D01*
X+4224772Y-2231671D01*
X+4200255Y-2238575D01*
X+4175738Y-2241213D01*
X+4172000Y-2241260D01*
X-5078000Y-2091260D02*
X-5078502Y-2079002D01*
X-5082578Y-2054485D01*
X-5091094Y-2029968D01*
X-5104968Y-2005451D01*
X-5126194Y-1981099D01*
X-5150711Y-1962705D01*
X-5175228Y-1950849D01*
X-5199745Y-1943945D01*
X-5224262Y-1941307D01*
X-5228000Y-1941260D01*
X-5378000Y-2091260D02*
X-5377498Y-2079002D01*
X-5373422Y-2054485D01*
X-5364906Y-2029968D01*
X-5351032Y-2005451D01*
X-5329806Y-1981099D01*
X-5305289Y-1962705D01*
X-5280772Y-1950849D01*
X-5256255Y-1943945D01*
X-5231738Y-1941307D01*
X-5228000Y-1941260D01*
X-5378000Y-2091260D02*
X-5377498Y-2103518D01*
X-5373422Y-2128035D01*
X-5364906Y-2152552D01*
X-5351032Y-2177069D01*
X-5329806Y-2201421D01*
X-5305289Y-2219815D01*
X-5280772Y-2231671D01*
X-5256255Y-2238575D01*
X-5231738Y-2241213D01*
X-5228000Y-2241260D01*
X-5078000Y-2091260D02*
X-5078502Y-2103518D01*
X-5082578Y-2128035D01*
X-5091094Y-2152552D01*
X-5104968Y-2177069D01*
X-5126194Y-2201421D01*
X-5150711Y-2219815D01*
X-5175228Y-2231671D01*
X-5199745Y-2238575D01*
X-5224262Y-2241213D01*
X-5228000Y-2241260D01*
X-5078000Y+2308740D02*
X-5078502Y+2320998D01*
X-5082578Y+2345515D01*
X-5091094Y+2370032D01*
X-5104968Y+2394549D01*
X-5126194Y+2418901D01*
X-5150711Y+2437295D01*
X-5175228Y+2449151D01*
X-5199745Y+2456055D01*
X-5224262Y+2458693D01*
X-5228000Y+2458740D01*
X-5378000Y+2308740D02*
X-5377498Y+2320998D01*
X-5373422Y+2345515D01*
X-5364906Y+2370032D01*
X-5351032Y+2394549D01*
X-5329806Y+2418901D01*
X-5305289Y+2437295D01*
X-5280772Y+2449151D01*
X-5256255Y+2456055D01*
X-5231738Y+2458693D01*
X-5228000Y+2458740D01*
X-5378000Y+2308740D02*
X-5377498Y+2296482D01*
X-5373422Y+2271965D01*
X-5364906Y+2247448D01*
X-5351032Y+2222931D01*
X-5329806Y+2198579D01*
X-5305289Y+2180185D01*
X-5280772Y+2168329D01*
X-5256255Y+2161425D01*
X-5231738Y+2158787D01*
X-5228000Y+2158740D01*
X-5078000Y+2308740D02*
X-5078502Y+2296482D01*
X-5082578Y+2271965D01*
X-5091094Y+2247448D01*
X-5104968Y+2222931D01*
X-5126194Y+2198579D01*
X-5150711Y+2180185D01*
X-5175228Y+2168329D01*
X-5199745Y+2161425D01*
X-5224262Y+2158787D01*
X-5228000Y+2158740D01*
M02*
