G04 PROTEUS GERBER X2 FILE*
%TF.GenerationSoftware,Labcenter,Proteus,8.16-SP3-Build36097*%
%TF.CreationDate,2025-11-07T09:34:26+00:00*%
%TF.FileFunction,Copper,L2,Bot*%
%TF.FilePolarity,Positive*%
%TF.Part,Single*%
%TF.SameCoordinates,{86f2edb6-a998-41b4-a695-59585592bfa3}*%
%FSLAX45Y45*%
%MOMM*%
G01*
%TA.AperFunction,Conductor*%
%ADD10C,0.254000*%
%TA.AperFunction,ViaPad*%
%ADD11C,0.762000*%
%TA.AperFunction,Conductor*%
%ADD12C,0.635000*%
%TA.AperFunction,ComponentPad*%
%ADD13R,2.032000X2.032000*%
%TA.AperFunction,ComponentPad*%
%ADD16C,2.032000*%
%TA.AperFunction,SMDPad,CuDef*%
%ADD14R,1.016000X1.270000*%
%TA.AperFunction,ComponentPad*%
%ADD17C,1.800000*%
%TA.AperFunction,SMDPad,CuDef*%
%ADD21R,1.270000X1.016000*%
%TA.AperFunction,SMDPad,CuDef*%
%ADD22R,0.939800X0.609600*%
%ADD23R,0.889000X1.016000*%
%ADD24R,0.609600X0.939800*%
%TA.AperFunction,SMDPad,CuDef*%
%ADD25R,0.635000X0.508000*%
%TA.AperFunction,SMDPad,CuDef*%
%ADD26R,4.100000X1.850000*%
%ADD27R,4.000000X2.000000*%
%TA.AperFunction,ComponentPad*%
%ADD18R,1.270000X1.270000*%
%ADD19C,1.270000*%
%TA.AperFunction,ComponentPad*%
%ADD70R,1.778000X1.778000*%
%ADD71C,1.778000*%
%TA.AperFunction,Profile*%
%ADD20C,0.101600*%
%TD.AperFunction*%
%TA.AperFunction,Conductor*%
G36*
X-3088429Y+2471339D02*
X-3088429Y+2356661D01*
X-3018768Y+2287000D01*
X-3088429Y+2217339D01*
X-3088429Y+2102661D01*
X-3007339Y+2021571D01*
X-2892661Y+2021571D01*
X-2823000Y+2091232D01*
X-2753339Y+2021571D01*
X-2638661Y+2021571D01*
X-2569000Y+2091232D01*
X-2514636Y+2036868D01*
X-2542229Y+2009275D01*
X-2542229Y+180233D01*
X-2639134Y+277137D01*
X-2638871Y+277400D01*
X-2638871Y+402600D01*
X-2727400Y+491129D01*
X-2852600Y+491129D01*
X-2941129Y+402600D01*
X-2941129Y+277400D01*
X-2852600Y+188871D01*
X-2727400Y+188871D01*
X-2727138Y+189133D01*
X-2592229Y+54225D01*
X-2592229Y-892371D01*
X-2656297Y-892371D01*
X-2681697Y-917771D01*
X-3459767Y-917771D01*
X-2852863Y-310867D01*
X-2852600Y-311129D01*
X-2727400Y-311129D01*
X-2638871Y-222600D01*
X-2638871Y-97400D01*
X-2727400Y-8871D01*
X-2852600Y-8871D01*
X-2941129Y-97400D01*
X-2941129Y-222600D01*
X-2940867Y-222863D01*
X-3535775Y-817771D01*
X-3730345Y-817771D01*
X-3707871Y-795297D01*
X-3707871Y-722703D01*
X-3733272Y-697303D01*
X-3733272Y+431276D01*
X-4579134Y+1277137D01*
X-4578871Y+1277400D01*
X-4578871Y+1402600D01*
X-4667400Y+1491129D01*
X-4792600Y+1491129D01*
X-4881129Y+1402600D01*
X-4881129Y+1277400D01*
X-4793729Y+1190000D01*
X-4881129Y+1102600D01*
X-4881129Y+977400D01*
X-4792600Y+888871D01*
X-4667400Y+888871D01*
X-4667138Y+889133D01*
X-4048229Y+270225D01*
X-4048229Y+125655D01*
X-4076703Y+154129D01*
X-4149297Y+154129D01*
X-4200629Y+102797D01*
X-4200629Y+66875D01*
X-4354275Y-86771D01*
X-4837447Y-86771D01*
X-4830471Y-79795D01*
X-4830471Y+35795D01*
X-4899676Y+105000D01*
X-4830471Y+174205D01*
X-4830471Y+289795D01*
X-4899676Y+359000D01*
X-4830471Y+428205D01*
X-4830471Y+543795D01*
X-4875547Y+588871D01*
X-4818871Y+588871D01*
X-4818871Y+891129D01*
X-5121129Y+891129D01*
X-5121129Y+676875D01*
X-5272229Y+525775D01*
X-5272229Y-635775D01*
X-4641775Y-1266229D01*
X-3725095Y-1266229D01*
X-3660324Y-1331000D01*
X-3729529Y-1400205D01*
X-3729529Y-1515795D01*
X-3660324Y-1585000D01*
X-3729529Y-1654205D01*
X-3729529Y-1769795D01*
X-3660324Y-1839000D01*
X-3725096Y-1903772D01*
X-3838303Y-1903772D01*
X-3863703Y-1878371D01*
X-3936297Y-1878371D01*
X-3987629Y-1929703D01*
X-3987629Y-2002297D01*
X-3936297Y-2053629D01*
X-3863703Y-2053629D01*
X-3838303Y-2028229D01*
X-3725095Y-2028229D01*
X-3684453Y-2068871D01*
X-3741129Y-2068871D01*
X-3741129Y-2316330D01*
X-4948464Y-2316330D01*
X-4940000Y-1800000D01*
X-5453070Y-1808846D01*
X-5453070Y+1989162D01*
X-4940000Y+1980000D01*
X-4922135Y+2533810D01*
X-3025958Y+2533810D01*
X-3088429Y+2471339D01*
G37*
%TD.AperFunction*%
%LPC*%
G36*
X-3020800Y+1823458D02*
X-3020800Y+1865542D01*
X-2991042Y+1895300D01*
X-2948958Y+1895300D01*
X-2919200Y+1865542D01*
X-2919200Y+1823458D01*
X-2948958Y+1793700D01*
X-2991042Y+1793700D01*
X-3020800Y+1823458D01*
G37*
G36*
X-4163800Y+2267958D02*
X-4163800Y+2310042D01*
X-4134042Y+2339800D01*
X-4091958Y+2339800D01*
X-4062200Y+2310042D01*
X-4062200Y+2267958D01*
X-4091958Y+2238200D01*
X-4134042Y+2238200D01*
X-4163800Y+2267958D01*
G37*
%LPD*%
%TA.AperFunction,Conductor*%
G36*
X-5109529Y-478475D02*
X-5109529Y-587795D01*
X-5027795Y-669529D01*
X-4912205Y-669529D01*
X-4830471Y-587795D01*
X-4830471Y-503533D01*
X-4291775Y-1042229D01*
X-2681697Y-1042229D01*
X-2656297Y-1067629D01*
X-2592229Y-1067629D01*
X-2592229Y-1304225D01*
X-2912375Y-1624371D01*
X-2948297Y-1624371D01*
X-2999629Y-1675703D01*
X-2999629Y-1748297D01*
X-2957735Y-1790191D01*
X-3007339Y-1790191D01*
X-3088429Y-1871281D01*
X-3088429Y-1985959D01*
X-3018768Y-2055620D01*
X-3088429Y-2125281D01*
X-3088429Y-2239959D01*
X-3012058Y-2316330D01*
X-3438871Y-2316330D01*
X-3438871Y-2068871D01*
X-3495547Y-2068871D01*
X-3450471Y-2023795D01*
X-3450471Y-1908205D01*
X-3519676Y-1839000D01*
X-3450471Y-1769795D01*
X-3450471Y-1654205D01*
X-3519676Y-1585000D01*
X-3450471Y-1515795D01*
X-3450471Y-1400205D01*
X-3519676Y-1331000D01*
X-3450471Y-1261795D01*
X-3450471Y-1146205D01*
X-3532205Y-1064471D01*
X-3647795Y-1064471D01*
X-3725096Y-1141772D01*
X-3738814Y-1141772D01*
X-3900000Y-1141771D01*
X-4590225Y-1141771D01*
X-5147771Y-584225D01*
X-5147771Y-440233D01*
X-5109529Y-478475D01*
G37*
%TD.AperFunction*%
%TA.AperFunction,Conductor*%
G36*
X+2437966Y+1804029D02*
X+2055471Y+1804029D01*
X+2055471Y+1724229D01*
X+1486225Y+1724229D01*
X+1371845Y+1609849D01*
X+1326181Y+1609849D01*
X+1326181Y+1459991D01*
X+1488739Y+1459991D01*
X+1488739Y+1550735D01*
X+1537775Y+1599771D01*
X+1564941Y+1599771D01*
X+1564941Y+1269491D01*
X+1572371Y+1269491D01*
X+1572371Y+1222229D01*
X+1535775Y+1222229D01*
X+1532228Y+1225777D01*
X+1488514Y+1269491D01*
X+1488739Y+1269491D01*
X+1488739Y+1419349D01*
X+1326181Y+1419349D01*
X+1326181Y+1406649D01*
X+1269669Y+1406649D01*
X+1269669Y+1436969D01*
X+1043611Y+1436969D01*
X+1043611Y+1398869D01*
X+1023689Y+1398869D01*
X+1023689Y+1453029D01*
X+823031Y+1453029D01*
X+823031Y+1226971D01*
X+1023689Y+1226971D01*
X+1023689Y+1274411D01*
X+1043611Y+1274411D01*
X+1043611Y+1236311D01*
X+1087771Y+1236311D01*
X+1087771Y+594206D01*
X+948152Y+733825D01*
X+647554Y+733825D01*
X+701129Y+787400D01*
X+701129Y+912600D01*
X+612600Y+1001129D01*
X+487400Y+1001129D01*
X+487137Y+1000866D01*
X+359522Y+1128481D01*
X+405009Y+1128481D01*
X+405009Y+1277771D01*
X+609671Y+1277771D01*
X+609671Y+1226971D01*
X+810329Y+1226971D01*
X+810329Y+1453029D01*
X+609671Y+1453029D01*
X+609671Y+1402228D01*
X+500009Y+1402228D01*
X+500009Y+1551519D01*
X+403130Y+1551519D01*
X+425589Y+1573978D01*
X+425589Y+1626971D01*
X+463689Y+1626971D01*
X+463689Y+1853029D01*
X+263031Y+1853029D01*
X+263031Y+1626971D01*
X+301131Y+1626971D01*
X+301131Y+1625528D01*
X+231355Y+1555752D01*
X+231355Y+1551519D01*
X+149991Y+1551519D01*
X+149991Y+1402228D01*
X-2041Y+1402228D01*
X-2041Y+1449829D01*
X-96021Y+1449829D01*
X-96021Y+1497771D01*
X+15775Y+1497771D01*
X+52229Y+1534225D01*
X+52229Y+1626971D01*
X+250329Y+1626971D01*
X+250329Y+1853029D01*
X+212229Y+1853029D01*
X+212229Y+1988775D01*
X+185229Y+2015776D01*
X+167386Y+2033618D01*
X+225000Y+2091232D01*
X+294661Y+2021571D01*
X+409339Y+2021571D01*
X+479000Y+2091232D01*
X+548661Y+2021571D01*
X+663339Y+2021571D01*
X+733000Y+2091232D01*
X+802661Y+2021571D01*
X+917339Y+2021571D01*
X+987000Y+2091232D01*
X+1056661Y+2021571D01*
X+1171339Y+2021571D01*
X+1241000Y+2091232D01*
X+1310661Y+2021571D01*
X+1425339Y+2021571D01*
X+1495000Y+2091232D01*
X+1564661Y+2021571D01*
X+1679339Y+2021571D01*
X+1749000Y+2091232D01*
X+1818661Y+2021571D01*
X+1933339Y+2021571D01*
X+2014429Y+2102661D01*
X+2014429Y+2217339D01*
X+1956197Y+2275571D01*
X+1966424Y+2275571D01*
X+2437966Y+1804029D01*
G37*
%TD.AperFunction*%
%LPC*%
G36*
X+1237629Y+1696297D02*
X+1237629Y+1650329D01*
X+1269669Y+1650329D01*
X+1269669Y+1449671D01*
X+1043611Y+1449671D01*
X+1043611Y+1650329D01*
X+1062371Y+1650329D01*
X+1062371Y+1696297D01*
X+1113703Y+1747629D01*
X+1186297Y+1747629D01*
X+1237629Y+1696297D01*
G37*
%LPD*%
%TA.AperFunction,Conductor*%
G36*
X-1190329Y+1726971D02*
X-1190329Y+1702228D01*
X-1281276Y+1702228D01*
X-1381229Y+1602275D01*
X-1381229Y+346275D01*
X-1382371Y+345133D01*
X-1382371Y+366297D01*
X-1407771Y+391697D01*
X-1407771Y+1844225D01*
X-1374225Y+1877771D01*
X-1294071Y+1877771D01*
X-1306300Y+1865542D01*
X-1306300Y+1823458D01*
X-1276542Y+1793700D01*
X-1234458Y+1793700D01*
X-1204700Y+1823458D01*
X-1204700Y+1865542D01*
X-1216929Y+1877771D01*
X-1190329Y+1877771D01*
X-1190329Y+1726971D01*
G37*
%TD.AperFunction*%
%TA.AperFunction,Conductor*%
G36*
X-976969Y+1726971D02*
X-976969Y+1526971D01*
X-776311Y+1526971D01*
X-776311Y+1772771D01*
X-686519Y+1772771D01*
X-686519Y+1659991D01*
X-493481Y+1659991D01*
X-493481Y+1677771D01*
X-456519Y+1677771D01*
X-456519Y+1564991D01*
X-283979Y+1564991D01*
X-283979Y+1449829D01*
X-377959Y+1449829D01*
X-377959Y+1411729D01*
X-447799Y+1411729D01*
X-642228Y+1217300D01*
X-642228Y+789538D01*
X-490461Y+637771D01*
X-431129Y+637771D01*
X-431129Y+386057D01*
X-548299Y+392224D01*
X-573703Y+417629D01*
X-646297Y+417629D01*
X-697629Y+366297D01*
X-697629Y+293703D01*
X-677615Y+273689D01*
X-769669Y+273689D01*
X-769669Y+235589D01*
X-1005775Y+235589D01*
X-1042229Y+199135D01*
X-1042229Y+73697D01*
X-1067629Y+48297D01*
X-1067629Y-24297D01*
X-1016297Y-75629D01*
X-943703Y-75629D01*
X-892371Y-24297D01*
X-892371Y+48297D01*
X-917771Y+73697D01*
X-917771Y+111131D01*
X-769669Y+111131D01*
X-769669Y+73031D01*
X-543611Y+73031D01*
X-543611Y+267349D01*
X-431129Y+261429D01*
X-431129Y-139129D01*
X-153055Y-139129D01*
X-167629Y-153703D01*
X-167629Y-226297D01*
X-136155Y-257771D01*
X-569700Y-257771D01*
X-569700Y-229958D01*
X-599458Y-200200D01*
X-641542Y-200200D01*
X-671300Y-229958D01*
X-671300Y-257771D01*
X-1167871Y-257771D01*
X-1167871Y-214703D01*
X-1193271Y-189303D01*
X-1193271Y+68303D01*
X-1167871Y+93703D01*
X-1167871Y+166297D01*
X-1219203Y+217629D01*
X-1291797Y+217629D01*
X-1343129Y+166297D01*
X-1343129Y+93703D01*
X-1317729Y+68303D01*
X-1317729Y-188771D01*
X-1610725Y-188771D01*
X-1866371Y+66875D01*
X-1866371Y+102797D01*
X-1917703Y+154129D01*
X-1990297Y+154129D01*
X-2041629Y+102797D01*
X-2041629Y+30203D01*
X-1990297Y-21129D01*
X-1954375Y-21129D01*
X-1717733Y-257771D01*
X-2155775Y-257771D01*
X-2192229Y-294225D01*
X-2192229Y-893845D01*
X-2193703Y-892371D01*
X-2266297Y-892371D01*
X-2302771Y-928845D01*
X-2302771Y+167725D01*
X-2275725Y+194771D01*
X-1356725Y+194771D01*
X-1256771Y+294725D01*
X-1256771Y+790471D01*
X-795471Y+790471D01*
X-795471Y+1089529D01*
X-1256771Y+1089529D01*
X-1256771Y+1550725D01*
X-1229725Y+1577771D01*
X-1190329Y+1577771D01*
X-1190329Y+1526971D01*
X-1176955Y+1526971D01*
X-1187629Y+1516297D01*
X-1187629Y+1443703D01*
X-1136297Y+1392371D01*
X-1063703Y+1392371D01*
X-1012371Y+1443703D01*
X-1012371Y+1516297D01*
X-1023046Y+1526971D01*
X-989671Y+1526971D01*
X-989671Y+1877771D01*
X-976969Y+1877771D01*
X-976969Y+1726971D01*
G37*
%TD.AperFunction*%
%LPC*%
G36*
X-769669Y-140329D02*
X-769669Y+60329D01*
X-543611Y+60329D01*
X-543611Y-140329D01*
X-769669Y-140329D01*
G37*
%LPD*%
%TA.AperFunction,Conductor*%
G36*
X-53132Y+535129D02*
X-85297Y+535129D01*
X-128871Y+491555D01*
X-128871Y+610868D01*
X-53132Y+535129D01*
G37*
%TD.AperFunction*%
%TA.AperFunction,Conductor*%
G36*
X-5109529Y+428205D02*
X-5040324Y+359000D01*
X-5109529Y+289795D01*
X-5109529Y+174205D01*
X-5040324Y+105000D01*
X-5109529Y+35795D01*
X-5109529Y-79795D01*
X-5096914Y-92410D01*
X-5147771Y-143267D01*
X-5147771Y+474225D01*
X-5109529Y+512467D01*
X-5109529Y+428205D01*
G37*
%TD.AperFunction*%
%TA.AperFunction,Conductor*%
G36*
X+97771Y-859671D02*
X-17771Y-859671D01*
X-17771Y-846969D01*
X+97771Y-846969D01*
X+97771Y-859671D01*
G37*
%TD.AperFunction*%
%TA.AperFunction,Conductor*%
G36*
X-379029Y-544818D02*
X-312818Y-611029D01*
X-219182Y-611029D01*
X-152971Y-544818D01*
X-152971Y-540955D01*
X-142229Y-551697D01*
X-142229Y-974929D01*
X-154958Y-962200D01*
X-197042Y-962200D01*
X-226800Y-991958D01*
X-226800Y-1034042D01*
X-197042Y-1063800D01*
X-154958Y-1063800D01*
X-142229Y-1051071D01*
X-142229Y-1067771D01*
X-799775Y-1067771D01*
X-836229Y-1104225D01*
X-836229Y-1162382D01*
X-887029Y-1213182D01*
X-887029Y-1306818D01*
X-836229Y-1357619D01*
X-836228Y-1418396D01*
X-766853Y-1487771D01*
X-822225Y-1487771D01*
X-959075Y-1350922D01*
X-914971Y-1306818D01*
X-914971Y-1213182D01*
X-981182Y-1146971D01*
X-1074818Y-1146971D01*
X-1141029Y-1213182D01*
X-1141029Y-1306818D01*
X-1090229Y-1357618D01*
X-1090229Y-1545542D01*
X-1219591Y-1545542D01*
X-1219591Y-1376971D01*
X-1420249Y-1376971D01*
X-1420249Y-1545542D01*
X-1432951Y-1545542D01*
X-1432951Y-1376971D01*
X-1473771Y-1376971D01*
X-1473771Y-1357618D01*
X-1422971Y-1306818D01*
X-1422971Y-1234975D01*
X-1072725Y-884729D01*
X-936197Y-884729D01*
X-910797Y-910129D01*
X-874875Y-910129D01*
X-773275Y-1011729D01*
X-594725Y-1011729D01*
X-494771Y-911775D01*
X-494771Y-693697D01*
X-469371Y-668297D01*
X-469371Y-607218D01*
X-406971Y-544818D01*
X-406971Y-452228D01*
X-379029Y-452228D01*
X-379029Y-544818D01*
G37*
%TD.AperFunction*%
%LPC*%
G36*
X-1395029Y-1306818D02*
X-1395029Y-1213182D01*
X-1328818Y-1146971D01*
X-1235182Y-1146971D01*
X-1168971Y-1213182D01*
X-1168971Y-1306818D01*
X-1235182Y-1373029D01*
X-1328818Y-1373029D01*
X-1395029Y-1306818D01*
G37*
%LPD*%
%TA.AperFunction,Conductor*%
G36*
X+97771Y-1112371D02*
X+50471Y-1112371D01*
X+65300Y-1097542D01*
X+65300Y-1060329D01*
X+97771Y-1060329D01*
X+97771Y-1112371D01*
G37*
%TD.AperFunction*%
%TA.AperFunction,Conductor*%
G36*
X-6542Y-1127300D02*
X+28774Y-1127300D01*
X+18303Y-1137771D01*
X-17771Y-1137771D01*
X-17771Y-1116071D01*
X-6542Y-1127300D01*
G37*
%TD.AperFunction*%
%TA.AperFunction,Conductor*%
G36*
X+793127Y-607771D02*
X+774224Y-607771D01*
X+737771Y-644224D01*
X+737771Y-1138303D01*
X+712371Y-1163703D01*
X+712371Y-1236297D01*
X+763703Y-1287629D01*
X+836297Y-1287629D01*
X+887629Y-1236297D01*
X+887629Y-1183029D01*
X+947771Y-1183029D01*
X+947771Y-1340905D01*
X+889000Y-1399676D01*
X+819795Y-1330471D01*
X+704205Y-1330471D01*
X+635000Y-1399676D01*
X+565795Y-1330471D01*
X+450205Y-1330471D01*
X+381000Y-1399676D01*
X+347625Y-1366301D01*
X+387629Y-1326297D01*
X+387629Y-1253703D01*
X+362229Y-1228303D01*
X+362229Y-940009D01*
X+382519Y-940009D01*
X+382519Y-779991D01*
X+222229Y-779991D01*
X+222229Y-723029D01*
X+400329Y-723029D01*
X+400329Y-496971D01*
X+387629Y-496971D01*
X+387629Y-463703D01*
X+376154Y-452228D01*
X+637584Y-452228D01*
X+793127Y-607771D01*
G37*
%TD.AperFunction*%
%LPC*%
G36*
X+613689Y-723029D02*
X+612519Y-723029D01*
X+612519Y-845009D01*
X+419481Y-845009D01*
X+419481Y-723029D01*
X+413031Y-723029D01*
X+413031Y-496971D01*
X+613689Y-496971D01*
X+613689Y-723029D01*
G37*
G36*
X+612519Y-874991D02*
X+612519Y-1035009D01*
X+419481Y-1035009D01*
X+419481Y-874991D01*
X+612519Y-874991D01*
G37*
%LPD*%
%TA.AperFunction,Conductor*%
G36*
X+1212205Y-1609529D02*
X+1327795Y-1609529D01*
X+1367771Y-1569553D01*
X+1367771Y-1617772D01*
X+151129Y-1617772D01*
X+151129Y-1564453D01*
X+196205Y-1609529D01*
X+311795Y-1609529D01*
X+381000Y-1540324D01*
X+450205Y-1609529D01*
X+565795Y-1609529D01*
X+635000Y-1540324D01*
X+704205Y-1609529D01*
X+819795Y-1609529D01*
X+889000Y-1540324D01*
X+958205Y-1609529D01*
X+1073795Y-1609529D01*
X+1143000Y-1540324D01*
X+1212205Y-1609529D01*
G37*
%TD.AperFunction*%
%TA.AperFunction,Conductor*%
G36*
X+1517771Y-1238303D02*
X+1492371Y-1263703D01*
X+1492371Y-1336297D01*
X+1543703Y-1387629D01*
X+1616297Y-1387629D01*
X+1667629Y-1336297D01*
X+1667629Y-1263703D01*
X+1642229Y-1238303D01*
X+1642229Y-1171233D01*
X+1813771Y-1342775D01*
X+1813771Y-1790191D01*
X+1737571Y-1790191D01*
X+1737571Y-1848423D01*
X+1679339Y-1790191D01*
X+1564661Y-1790191D01*
X+1495000Y-1859852D01*
X+1425339Y-1790191D01*
X+1310661Y-1790191D01*
X+1241000Y-1859852D01*
X+1171339Y-1790191D01*
X+1056661Y-1790191D01*
X+987000Y-1859852D01*
X+917339Y-1790191D01*
X+802661Y-1790191D01*
X+733000Y-1859852D01*
X+663339Y-1790191D01*
X+548661Y-1790191D01*
X+528428Y-1810424D01*
X+460232Y-1742228D01*
X+1455776Y-1742228D01*
X+1492229Y-1705775D01*
X+1492229Y-621500D01*
X+1517771Y-595958D01*
X+1517771Y-1238303D01*
G37*
%TD.AperFunction*%
D10*
X+160000Y-530000D02*
X+160000Y-1160000D01*
X+160000Y-1310000D01*
X+0Y-1470000D01*
X+110000Y+840000D02*
X+13906Y+840000D01*
X+7929Y+845977D01*
X-759Y+845977D01*
X-759Y+938314D01*
X-333314Y+938314D01*
X-335000Y+940000D01*
X+110000Y+840000D02*
X+110000Y+670000D01*
X+920000Y-860000D02*
X+970800Y-880800D01*
X+1010000Y-920000D01*
X+1010000Y-1380000D01*
X+1016000Y-1470000D01*
X+516000Y-765000D02*
X+516000Y-673500D01*
X+513360Y-610000D01*
X-876640Y+1840000D02*
X-825840Y+1835000D01*
X-360000Y+1835000D01*
X-876640Y+1840000D02*
X-876640Y+1640000D01*
X-96020Y+1349500D02*
X-96020Y+1230000D01*
X+320000Y+1230000D01*
X+325000Y+1225000D01*
X-96020Y+1349500D02*
X-51570Y+1340000D01*
X+710000Y+1340000D01*
X+2010000Y+1560000D02*
X+1930140Y+1560000D01*
X+1866640Y+1560000D01*
X+1150000Y+1660000D02*
X+1150000Y+1600800D01*
X+1156640Y+1550000D01*
X+363360Y+1740000D02*
X+363360Y+1599753D01*
X+293583Y+1529976D01*
X+293583Y+1455000D01*
X+230000Y+1455000D01*
X+1407460Y+1534920D02*
X+1407460Y+1557460D01*
X+1490000Y+1640000D01*
X+1512000Y+1662000D01*
X+2310000Y+1662000D01*
X-1536000Y-1260000D02*
X-1098500Y-822500D01*
X-874500Y-822500D01*
X-747500Y-949500D01*
X-620500Y-949500D01*
X-557000Y-886000D01*
X-557000Y-632000D01*
X-1536000Y-1260000D02*
X-1790000Y-1260000D01*
X-190000Y+1740000D02*
X-590000Y+1740000D01*
X+23360Y-620000D02*
X+23360Y-746640D01*
X-4970000Y+740000D02*
X-5210000Y+500000D01*
X-5210000Y-610000D01*
X-4616000Y-1204000D01*
X-3900000Y-1204000D01*
X-3590000Y-1204000D01*
X+1646220Y+1344420D02*
X+1660000Y+1319020D01*
X+1660000Y+1250000D01*
X-1790000Y-1260000D02*
X-2030000Y-1260000D01*
X-2030000Y-1220000D01*
X-1536000Y-1260000D02*
X-1536000Y-1426500D01*
X-1533280Y-1490000D01*
X+1866640Y+1346640D02*
X+1930140Y+1344420D01*
X+2013580Y+1344420D01*
X+2060000Y+1298000D01*
X+2310000Y+1298000D01*
X+1876000Y+2414000D02*
X+1876000Y+2160000D01*
X+1646220Y+1344420D02*
X+1864420Y+1344420D01*
X+1866640Y+1346640D01*
X+1270000Y-1470000D02*
X+1270000Y-770000D01*
X+1180000Y-680000D01*
X+1180000Y+530000D01*
X+1150000Y+530000D01*
X+1156640Y+1336640D02*
X+1150000Y+1330000D01*
X+1150000Y+530000D01*
X+311625Y+561625D02*
X+280000Y+530000D01*
X+40001Y+530000D01*
X-129999Y+700000D01*
X-464686Y+700000D01*
X-580000Y+815314D01*
X-580000Y+1191524D01*
X-422024Y+1349500D01*
X-283980Y+1349500D01*
X+311626Y+561624D02*
X+311625Y+776500D01*
X+311625Y+561625D02*
X+311626Y+561624D01*
X+311626Y+551788D01*
X+321462Y+551788D01*
X+311626Y+561624D02*
X+321462Y+551788D01*
X+323360Y+840000D02*
X+313523Y+786770D01*
X+311625Y+776500D02*
X+311626Y+776500D01*
X+323360Y+840000D02*
X+313523Y+840000D01*
X+313523Y+830163D01*
X+313523Y+786770D02*
X+313523Y+830163D01*
X+323360Y+840000D02*
X+313523Y+830163D01*
X+311626Y+776500D02*
X+311625Y+828265D01*
X+313523Y+830163D01*
X+311626Y+561624D02*
X+311626Y+776500D01*
X+313523Y+786770D02*
X+311626Y+776500D01*
X+1156640Y+1336640D02*
X+926720Y+1336640D01*
X+1156640Y+1336640D02*
X+1164420Y+1344420D01*
X+1407460Y+1344420D01*
X+926720Y+1336640D02*
X+923360Y+1340000D01*
X+1156640Y+1336640D02*
X+1176640Y+1336640D01*
X+1407460Y+1344420D02*
X+1407460Y+1262541D01*
X+1470000Y+1200001D01*
X+1470000Y+1200000D01*
X+1510000Y+1160000D01*
X+3260000Y+1160000D01*
X+3330000Y+1230000D01*
X+3330000Y+2122656D01*
X+3780000Y+2122656D01*
X+3780000Y+1430000D01*
X+290000Y+80000D02*
X-50000Y+80000D01*
X-190000Y+1540000D02*
X-145550Y+1560000D01*
X-10000Y+1560000D01*
X-10000Y+1940000D01*
X-1400000Y+1940000D01*
X-1470000Y+1870000D01*
X-1470000Y+330000D01*
X-280000Y+266000D02*
X-360000Y+320000D01*
X-550000Y+330000D01*
X-610000Y+330000D01*
X-190000Y+1540000D02*
X-190000Y+1630000D01*
X-313010Y+1630000D01*
X-360000Y+1645000D01*
X+214706Y-68824D02*
X-48037Y-61963D01*
X-980000Y+12000D02*
X-980000Y+173360D01*
X-656640Y+173360D01*
X+1133360Y-1200000D02*
X+1133360Y-1006500D01*
X+2210000Y-1200000D02*
X+2210000Y-860000D01*
X+1133360Y-860000D02*
X+1133360Y-1006500D01*
X+1133360Y-860000D02*
X+663360Y-390000D01*
X-1428000Y-390000D01*
X-1536000Y-498000D01*
X+1133360Y-1006500D02*
X+1126720Y-1070000D01*
X+2850000Y-460000D02*
X+2610000Y-460000D01*
X-1030000Y-750000D02*
X-1282000Y-498000D01*
X+2610000Y-1130000D02*
X+2610000Y-860000D01*
X-686000Y-840000D02*
X-1028000Y-498000D01*
X+1410000Y-490000D02*
X+1430000Y-591600D01*
X+1430000Y-1680000D01*
X-56000Y-1680000D01*
X-266000Y-1470000D01*
X-266000Y-1260000D01*
X+800000Y-1200000D02*
X+800000Y-670000D01*
X-266000Y-1260000D02*
X-206000Y-1200000D01*
X+80000Y-1200000D01*
X-620500Y+574500D02*
X-811000Y+765000D01*
X-811000Y+955500D01*
X-874500Y+1400000D02*
X-811000Y+1336500D01*
X-811000Y+955500D01*
X-4113000Y+2289000D02*
X-4938500Y+1463500D01*
X-4938500Y+1019000D01*
X-4748000Y+828500D01*
X-4748000Y+454000D01*
X-4970000Y+232000D01*
X-1282000Y-1260000D02*
X-1035000Y-1013000D01*
X-430000Y-1013000D01*
X-366500Y-949500D01*
X+860000Y-1928620D02*
X+1031000Y-1757620D01*
X+1127500Y-1757620D01*
X+1241000Y-1871120D01*
X+1241000Y-2055620D01*
X+1368000Y-2182620D01*
X-1090000Y+1840000D02*
X-1001500Y+1840000D01*
X-1001500Y+1527000D01*
X-874500Y+1400000D01*
X+516000Y-955000D02*
X+635000Y-955000D01*
X+635000Y-1343000D01*
X+762000Y-1470000D01*
X-874500Y+955500D02*
X-811000Y+955500D01*
X+420000Y+1455000D02*
X+420000Y+1590500D01*
X+459000Y+1629500D01*
X+459000Y+1844500D01*
X+268500Y+1844500D01*
X+268500Y+1641338D01*
X+205000Y+1641338D01*
X+14612Y+1450950D01*
X-823550Y+1450950D01*
X-874500Y+1400000D01*
X-266000Y-498000D02*
X-266000Y-849000D01*
X-366500Y-949500D01*
X+762000Y-1330500D02*
X+840000Y-1330500D01*
X+913360Y-1257140D01*
X+913360Y-1070000D01*
X-620500Y+574500D02*
X-620500Y+511000D01*
X-656640Y-40000D02*
X-557000Y-40000D01*
X-557000Y+257000D01*
X-684000Y+257000D01*
X-684000Y+447500D01*
X-620500Y+511000D01*
X-557000Y+511000D01*
X-548000Y+520000D01*
X-280000Y+520000D01*
X+420000Y+1455000D02*
X+1221000Y+1455000D01*
X+1235060Y+1440940D01*
X+1646220Y+1440940D01*
X-1282000Y-1260000D02*
X-1282000Y-1356080D01*
X-1319920Y-1394000D01*
X-1319920Y-1490000D01*
X-656640Y-40000D02*
X-656640Y-214860D01*
X-620500Y-251000D01*
X-874500Y+955500D02*
X-922500Y+955500D01*
X-938000Y+940000D01*
X-1045000Y+940000D01*
X+14500Y-1076500D02*
X+23360Y-1067640D01*
X+23360Y-960000D01*
X-1090000Y+1840000D02*
X-1251000Y+1840000D01*
X-1255500Y+1844500D01*
X+516000Y-955000D02*
X+381000Y-955000D01*
X+381000Y-1343000D01*
X+254000Y-1470000D01*
X-2188000Y-2182620D02*
X-2061000Y-2055620D01*
X-1807000Y-2055620D01*
X-1680000Y-2182620D01*
X-2950000Y+2414000D02*
X-2950000Y+2160000D01*
X-366500Y-949500D02*
X-303000Y-1013000D01*
X-176000Y-1013000D01*
X+762000Y-1470000D02*
X+762000Y-1330500D01*
X+1580000Y-1300000D02*
X+1580000Y-560000D01*
X+1880000Y-260000D01*
X+3040000Y-260000D01*
X+3180000Y-120000D01*
X+3550000Y+250000D01*
X+3550000Y+1930000D01*
X+300000Y-1290000D02*
X+300000Y-890480D01*
X+286000Y-860000D01*
X+1750000Y+1450000D02*
X+2033000Y+1450000D01*
X+2046500Y+1463500D01*
X+1750000Y+1450000D02*
X+1750000Y+1530000D01*
X+1677970Y+1530000D01*
X+1646220Y+1534920D01*
X-1090000Y+1640000D02*
X-1100000Y+1576500D01*
X-1100000Y+1480000D01*
X+160000Y+1010000D02*
X-60000Y+1010000D01*
X+2770000Y-660000D02*
X+3310000Y-660000D01*
X+4240000Y-1590000D01*
X+300000Y-500000D02*
X+300000Y-610000D01*
X-4730000Y+1340000D02*
X-3795500Y+405500D01*
X-3795500Y-759000D01*
X-4113000Y+66500D02*
X-4328500Y-149000D01*
X-5065500Y-149000D01*
X-5129000Y-212500D01*
X-5129000Y-371000D01*
X-4970000Y-530000D01*
X-1255500Y-251000D02*
X-1636500Y-251000D01*
X-1954000Y+66500D01*
X-1255500Y+130000D02*
X-1255500Y-251000D01*
X-2130000Y-980000D02*
X-2130000Y-1607771D01*
X-2230000Y-980000D02*
X-2130000Y-980000D01*
X-2130000Y-320000D01*
X+510000Y-320000D01*
X+610000Y-220000D01*
X-1028000Y-1370000D02*
X-1028000Y-1260000D01*
X-2130000Y-1607771D02*
X-1028000Y-1607771D01*
X-1028000Y-1370000D01*
X-2620000Y-980000D02*
X-4266000Y-980000D01*
X-4970000Y-276000D01*
X-80000Y-190000D02*
X+400000Y-190000D01*
X-774000Y-1260000D02*
X-774000Y-1130000D01*
X-80000Y-1130000D01*
X-80000Y-490000D01*
X-303000Y+1146000D02*
X+254000Y+1146000D01*
X+550000Y+850000D01*
X-2912000Y-1712000D02*
X-2530000Y-1330000D01*
X-2530000Y+80000D01*
X-2790000Y+340000D01*
X-3590000Y-1966000D02*
X-3900000Y-1966000D01*
X-3900000Y-880000D02*
X-3510000Y-880000D01*
X-2790000Y-160000D01*
X+893971Y+603016D02*
X+738455Y+447500D01*
X-49000Y+447500D01*
X+1150000Y+530000D02*
X+1063973Y+530000D01*
X+922377Y+671596D01*
X+441270Y+671596D01*
X+321462Y+551788D01*
X+1876000Y-1928620D02*
X+1876000Y-1317000D01*
X+1635500Y-1076500D01*
X+1665500Y-1076500D01*
X-2950000Y-1928620D02*
X-3102000Y-1928620D01*
X-3590000Y-1440620D01*
X-3590000Y-1458000D01*
X-1090000Y+1640000D02*
X-1255500Y+1640000D01*
X-1319000Y+1576500D01*
X-1319000Y+320500D01*
X-1382500Y+257000D01*
X-2301500Y+257000D01*
X-2365000Y+193500D01*
X-2365000Y-1805020D01*
X-2315000Y-1855020D01*
X-2315000Y-2055620D01*
X-2442000Y-2182620D01*
X-2208000Y-1584500D02*
X-2208000Y-1711500D01*
X-904500Y-1711500D01*
X-791000Y-1825000D01*
X-791000Y-2055620D01*
X-918000Y-2182620D01*
X-1028000Y-1370000D02*
X-848000Y-1550000D01*
X-498004Y-1550000D01*
X-280000Y-1768004D01*
X-280000Y-2058620D01*
X-156000Y-2182620D01*
X-774000Y-1260000D02*
X-774000Y-1392620D01*
X-694000Y-1472620D01*
X-490833Y-1472620D01*
X-30000Y-1877254D01*
X-30000Y-2054620D01*
X+98000Y-2182620D01*
X-520000Y-1260000D02*
X-520000Y-1310000D01*
X-60000Y-1770000D01*
X+400000Y-1770000D01*
X+480000Y-1850000D01*
X+480000Y-2062620D01*
X+517100Y-2099720D01*
X+606000Y-2182620D01*
X-2912000Y-1712000D02*
X-2820000Y-1804000D01*
X-2820000Y-2310000D01*
X+732620Y-2310000D01*
X+860000Y-2182620D01*
X-2335000Y+1717500D02*
X-2420000Y+1632500D01*
X-2420000Y-1733000D01*
X-2462000Y-1775000D01*
X-4730000Y+1040000D02*
X-3986000Y+296000D01*
X-3986000Y-505000D01*
X-2208000Y-1076500D02*
X-2284200Y-1152700D01*
X-2284200Y-1715800D01*
X-2242380Y-1757620D01*
X-1158500Y-1757620D01*
X-1045000Y-1871120D01*
X-1045000Y-2055620D01*
X-1172000Y-2182620D01*
X+2310000Y+1298000D02*
X+2350000Y+1298000D01*
X+2610000Y+1558000D01*
X+2610000Y+1720000D01*
X+1994900Y+2335100D01*
X+1906000Y+2414000D01*
X+1876000Y+2414000D01*
X+1876000Y+2424000D01*
X+2046000Y+2424000D01*
X+2200000Y+2270000D01*
X+2670000Y+2270000D01*
X+2670000Y+2280000D01*
X-2950000Y+2414000D02*
X-3968000Y+2414000D01*
X-4113000Y+2269000D01*
X-4113000Y+2289000D01*
X-2950000Y+2160000D02*
X-2950000Y+1854500D01*
X-2960000Y+1844500D01*
X-2970000Y+1844500D01*
X-130000Y+2010000D02*
X-2403500Y+2010000D01*
X-2428500Y+2035000D01*
X-2480000Y+1983500D01*
X-2480000Y-1509000D01*
X-2569000Y-1598000D01*
X-2569000Y-2055620D01*
X-2696000Y-2182620D01*
X+150000Y+1740000D02*
X+150000Y+1963000D01*
X+123000Y+1990000D01*
X-110000Y+1990000D01*
X-130000Y+2010000D01*
D11*
X+160000Y-530000D03*
X+110000Y+670000D03*
X+2010000Y+1560000D03*
X+1150000Y+1660000D03*
X-557000Y-632000D03*
X+1665500Y-1076500D03*
X-190000Y+1740000D03*
X+23360Y-620000D03*
X+1660000Y+1250000D03*
X-2030000Y-1220000D03*
X-874500Y-822500D03*
X-50000Y+80000D03*
X+290000Y+80000D03*
X-1470000Y+330000D03*
X-610000Y+330000D03*
X-48037Y-61963D03*
X+214706Y-68824D03*
X-980000Y+12000D03*
X+1133360Y-1200000D03*
X+2210000Y-1200000D03*
X+2850000Y-460000D03*
X-1030000Y-750000D03*
X+2610000Y-1130000D03*
X-686000Y-840000D03*
X+800000Y-1200000D03*
X+80000Y-1200000D03*
X-620500Y-251000D03*
X+14500Y-1076500D03*
X-1255500Y+1844500D03*
X-2970000Y+1844500D03*
X-176000Y-1013000D03*
X-4113000Y+2289000D03*
X+1580000Y-1300000D03*
X+300000Y-1290000D03*
X+2046500Y+1463500D03*
X-1100000Y+1480000D03*
X-60000Y+1010000D03*
X+160000Y+1010000D03*
X+2770000Y-660000D03*
X+300000Y-500000D03*
X-2208000Y-1584500D03*
X-3795500Y-759000D03*
X-4113000Y+66500D03*
X-1954000Y+66500D03*
X-49000Y+447500D03*
X-1255500Y+130000D03*
X-2230000Y-980000D03*
X-2620000Y-980000D03*
X+400000Y-190000D03*
X-80000Y-190000D03*
X-80000Y-490000D03*
X-303000Y+1146000D03*
X-3900000Y-1966000D03*
X-3900000Y-880000D03*
X+893971Y+603016D03*
X-2912000Y-1712000D03*
X-1255500Y-251000D03*
X-2335000Y+1717500D03*
X-2462000Y-1775000D03*
X-3986000Y-505000D03*
X-2208000Y-1076500D03*
X-130000Y+2010000D03*
D12*
X-3088429Y+2471339D02*
X-3088429Y+2356661D01*
X-3018768Y+2287000D01*
X-3088429Y+2217339D01*
X-3088429Y+2102661D01*
X-3007339Y+2021571D01*
X-2892661Y+2021571D01*
X-2823000Y+2091232D01*
X-2753339Y+2021571D01*
X-2638661Y+2021571D01*
X-2569000Y+2091232D01*
X-2514636Y+2036868D01*
X-2542229Y+2009275D01*
X-2542229Y+180233D01*
X-2639134Y+277137D01*
X-2638871Y+277400D01*
X-2638871Y+402600D01*
X-2727400Y+491129D01*
X-2852600Y+491129D01*
X-2941129Y+402600D01*
X-2941129Y+277400D01*
X-2852600Y+188871D01*
X-2727400Y+188871D01*
X-2727138Y+189133D01*
X-2592229Y+54225D01*
X-2592229Y-892371D01*
X-2656297Y-892371D01*
X-2681697Y-917771D01*
X-3459767Y-917771D01*
X-2852863Y-310867D01*
X-2852600Y-311129D01*
X-2727400Y-311129D01*
X-2638871Y-222600D01*
X-2638871Y-97400D01*
X-2727400Y-8871D01*
X-2852600Y-8871D01*
X-2941129Y-97400D01*
X-2941129Y-222600D01*
X-2940867Y-222863D01*
X-3535775Y-817771D01*
X-3730345Y-817771D01*
X-3707871Y-795297D01*
X-3707871Y-722703D01*
X-3733272Y-697303D01*
X-3733272Y+431276D01*
X-4579134Y+1277137D01*
X-4578871Y+1277400D01*
X-4578871Y+1402600D01*
X-4667400Y+1491129D01*
X-4792600Y+1491129D01*
X-4881129Y+1402600D01*
X-4881129Y+1277400D01*
X-4793729Y+1190000D01*
X-4881129Y+1102600D01*
X-4881129Y+977400D01*
X-4792600Y+888871D01*
X-4667400Y+888871D01*
X-4667138Y+889133D01*
X-4048229Y+270225D01*
X-4048229Y+125655D01*
X-4076703Y+154129D01*
X-4149297Y+154129D01*
X-4200629Y+102797D01*
X-4200629Y+66875D01*
X-4354275Y-86771D01*
X-4837447Y-86771D01*
X-4830471Y-79795D01*
X-4830471Y+35795D01*
X-4899676Y+105000D01*
X-4830471Y+174205D01*
X-4830471Y+289795D01*
X-4899676Y+359000D01*
X-4830471Y+428205D01*
X-4830471Y+543795D01*
X-4875547Y+588871D01*
X-4818871Y+588871D01*
X-4818871Y+891129D01*
X-5121129Y+891129D01*
X-5121129Y+676875D01*
X-5272229Y+525775D01*
X-5272229Y-635775D01*
X-4641775Y-1266229D01*
X-3725095Y-1266229D01*
X-3660324Y-1331000D01*
X-3729529Y-1400205D01*
X-3729529Y-1515795D01*
X-3660324Y-1585000D01*
X-3729529Y-1654205D01*
X-3729529Y-1769795D01*
X-3660324Y-1839000D01*
X-3725096Y-1903772D01*
X-3838303Y-1903772D01*
X-3863703Y-1878371D01*
X-3936297Y-1878371D01*
X-3987629Y-1929703D01*
X-3987629Y-2002297D01*
X-3936297Y-2053629D01*
X-3863703Y-2053629D01*
X-3838303Y-2028229D01*
X-3725095Y-2028229D01*
X-3684453Y-2068871D01*
X-3741129Y-2068871D01*
X-3741129Y-2316330D01*
X-4948464Y-2316330D01*
X-4940000Y-1800000D01*
X-5453070Y-1808846D01*
X-5453070Y+1989162D01*
X-4940000Y+1980000D01*
X-4922135Y+2533810D01*
X-3025958Y+2533810D01*
X-3088429Y+2471339D01*
X-3020800Y+1823458D02*
X-3020800Y+1865542D01*
X-2991042Y+1895300D01*
X-2948958Y+1895300D01*
X-2919200Y+1865542D01*
X-2919200Y+1823458D01*
X-2948958Y+1793700D01*
X-2991042Y+1793700D01*
X-3020800Y+1823458D01*
X-4163800Y+2267958D02*
X-4163800Y+2310042D01*
X-4134042Y+2339800D01*
X-4091958Y+2339800D01*
X-4062200Y+2310042D01*
X-4062200Y+2267958D01*
X-4091958Y+2238200D01*
X-4134042Y+2238200D01*
X-4163800Y+2267958D01*
X-5109529Y-478475D02*
X-5109529Y-587795D01*
X-5027795Y-669529D01*
X-4912205Y-669529D01*
X-4830471Y-587795D01*
X-4830471Y-503533D01*
X-4291775Y-1042229D01*
X-2681697Y-1042229D01*
X-2656297Y-1067629D01*
X-2592229Y-1067629D01*
X-2592229Y-1304225D01*
X-2912375Y-1624371D01*
X-2948297Y-1624371D01*
X-2999629Y-1675703D01*
X-2999629Y-1748297D01*
X-2957735Y-1790191D01*
X-3007339Y-1790191D01*
X-3088429Y-1871281D01*
X-3088429Y-1985959D01*
X-3018768Y-2055620D01*
X-3088429Y-2125281D01*
X-3088429Y-2239959D01*
X-3012058Y-2316330D01*
X-3438871Y-2316330D01*
X-3438871Y-2068871D01*
X-3495547Y-2068871D01*
X-3450471Y-2023795D01*
X-3450471Y-1908205D01*
X-3519676Y-1839000D01*
X-3450471Y-1769795D01*
X-3450471Y-1654205D01*
X-3519676Y-1585000D01*
X-3450471Y-1515795D01*
X-3450471Y-1400205D01*
X-3519676Y-1331000D01*
X-3450471Y-1261795D01*
X-3450471Y-1146205D01*
X-3532205Y-1064471D01*
X-3647795Y-1064471D01*
X-3725096Y-1141772D01*
X-3738814Y-1141772D01*
X-3900000Y-1141771D01*
X-4590225Y-1141771D01*
X-5147771Y-584225D01*
X-5147771Y-440233D01*
X-5109529Y-478475D01*
X+2437966Y+1804029D02*
X+2055471Y+1804029D01*
X+2055471Y+1724229D01*
X+1486225Y+1724229D01*
X+1371845Y+1609849D01*
X+1326181Y+1609849D01*
X+1326181Y+1459991D01*
X+1488739Y+1459991D01*
X+1488739Y+1550735D01*
X+1537775Y+1599771D01*
X+1564941Y+1599771D01*
X+1564941Y+1269491D01*
X+1572371Y+1269491D01*
X+1572371Y+1222229D01*
X+1535775Y+1222229D01*
X+1532228Y+1225777D01*
X+1488514Y+1269491D01*
X+1488739Y+1269491D01*
X+1488739Y+1419349D01*
X+1326181Y+1419349D01*
X+1326181Y+1406649D01*
X+1269669Y+1406649D01*
X+1269669Y+1436969D01*
X+1043611Y+1436969D01*
X+1043611Y+1398869D01*
X+1023689Y+1398869D01*
X+1023689Y+1453029D01*
X+823031Y+1453029D01*
X+823031Y+1226971D01*
X+1023689Y+1226971D01*
X+1023689Y+1274411D01*
X+1043611Y+1274411D01*
X+1043611Y+1236311D01*
X+1087771Y+1236311D01*
X+1087771Y+594206D01*
X+948152Y+733825D01*
X+647554Y+733825D01*
X+701129Y+787400D01*
X+701129Y+912600D01*
X+612600Y+1001129D01*
X+487400Y+1001129D01*
X+487137Y+1000866D01*
X+359522Y+1128481D01*
X+405009Y+1128481D01*
X+405009Y+1277771D01*
X+609671Y+1277771D01*
X+609671Y+1226971D01*
X+810329Y+1226971D01*
X+810329Y+1453029D01*
X+609671Y+1453029D01*
X+609671Y+1402228D01*
X+500009Y+1402228D01*
X+500009Y+1551519D01*
X+403130Y+1551519D01*
X+425589Y+1573978D01*
X+425589Y+1626971D01*
X+463689Y+1626971D01*
X+463689Y+1853029D01*
X+263031Y+1853029D01*
X+263031Y+1626971D01*
X+301131Y+1626971D01*
X+301131Y+1625528D01*
X+231355Y+1555752D01*
X+231355Y+1551519D01*
X+149991Y+1551519D01*
X+149991Y+1402228D01*
X-2041Y+1402228D01*
X-2041Y+1449829D01*
X-96021Y+1449829D01*
X-96021Y+1497771D01*
X+15775Y+1497771D01*
X+52229Y+1534225D01*
X+52229Y+1626971D01*
X+250329Y+1626971D01*
X+250329Y+1853029D01*
X+212229Y+1853029D01*
X+212229Y+1988775D01*
X+185229Y+2015776D01*
X+167386Y+2033618D01*
X+225000Y+2091232D01*
X+294661Y+2021571D01*
X+409339Y+2021571D01*
X+479000Y+2091232D01*
X+548661Y+2021571D01*
X+663339Y+2021571D01*
X+733000Y+2091232D01*
X+802661Y+2021571D01*
X+917339Y+2021571D01*
X+987000Y+2091232D01*
X+1056661Y+2021571D01*
X+1171339Y+2021571D01*
X+1241000Y+2091232D01*
X+1310661Y+2021571D01*
X+1425339Y+2021571D01*
X+1495000Y+2091232D01*
X+1564661Y+2021571D01*
X+1679339Y+2021571D01*
X+1749000Y+2091232D01*
X+1818661Y+2021571D01*
X+1933339Y+2021571D01*
X+2014429Y+2102661D01*
X+2014429Y+2217339D01*
X+1956197Y+2275571D01*
X+1966424Y+2275571D01*
X+2437966Y+1804029D01*
X+1237629Y+1696297D02*
X+1237629Y+1650329D01*
X+1269669Y+1650329D01*
X+1269669Y+1449671D01*
X+1043611Y+1449671D01*
X+1043611Y+1650329D01*
X+1062371Y+1650329D01*
X+1062371Y+1696297D01*
X+1113703Y+1747629D01*
X+1186297Y+1747629D01*
X+1237629Y+1696297D01*
X-1190329Y+1726971D02*
X-1190329Y+1702228D01*
X-1281276Y+1702228D01*
X-1381229Y+1602275D01*
X-1381229Y+346275D01*
X-1382371Y+345133D01*
X-1382371Y+366297D01*
X-1407771Y+391697D01*
X-1407771Y+1844225D01*
X-1374225Y+1877771D01*
X-1294071Y+1877771D01*
X-1306300Y+1865542D01*
X-1306300Y+1823458D01*
X-1276542Y+1793700D01*
X-1234458Y+1793700D01*
X-1204700Y+1823458D01*
X-1204700Y+1865542D01*
X-1216929Y+1877771D01*
X-1190329Y+1877771D01*
X-1190329Y+1726971D01*
X-976969Y+1726971D02*
X-976969Y+1526971D01*
X-776311Y+1526971D01*
X-776311Y+1772771D01*
X-686519Y+1772771D01*
X-686519Y+1659991D01*
X-493481Y+1659991D01*
X-493481Y+1677771D01*
X-456519Y+1677771D01*
X-456519Y+1564991D01*
X-283979Y+1564991D01*
X-283979Y+1449829D01*
X-377959Y+1449829D01*
X-377959Y+1411729D01*
X-447799Y+1411729D01*
X-642228Y+1217300D01*
X-642228Y+789538D01*
X-490461Y+637771D01*
X-431129Y+637771D01*
X-431129Y+386057D01*
X-548299Y+392224D01*
X-573703Y+417629D01*
X-646297Y+417629D01*
X-697629Y+366297D01*
X-697629Y+293703D01*
X-677615Y+273689D01*
X-769669Y+273689D01*
X-769669Y+235589D01*
X-1005775Y+235589D01*
X-1042229Y+199135D01*
X-1042229Y+73697D01*
X-1067629Y+48297D01*
X-1067629Y-24297D01*
X-1016297Y-75629D01*
X-943703Y-75629D01*
X-892371Y-24297D01*
X-892371Y+48297D01*
X-917771Y+73697D01*
X-917771Y+111131D01*
X-769669Y+111131D01*
X-769669Y+73031D01*
X-543611Y+73031D01*
X-543611Y+267349D01*
X-431129Y+261429D01*
X-431129Y-139129D01*
X-153055Y-139129D01*
X-167629Y-153703D01*
X-167629Y-226297D01*
X-136155Y-257771D01*
X-569700Y-257771D01*
X-569700Y-229958D01*
X-599458Y-200200D01*
X-641542Y-200200D01*
X-671300Y-229958D01*
X-671300Y-257771D01*
X-1167871Y-257771D01*
X-1167871Y-214703D01*
X-1193271Y-189303D01*
X-1193271Y+68303D01*
X-1167871Y+93703D01*
X-1167871Y+166297D01*
X-1219203Y+217629D01*
X-1291797Y+217629D01*
X-1343129Y+166297D01*
X-1343129Y+93703D01*
X-1317729Y+68303D01*
X-1317729Y-188771D01*
X-1610725Y-188771D01*
X-1866371Y+66875D01*
X-1866371Y+102797D01*
X-1917703Y+154129D01*
X-1990297Y+154129D01*
X-2041629Y+102797D01*
X-2041629Y+30203D01*
X-1990297Y-21129D01*
X-1954375Y-21129D01*
X-1717733Y-257771D01*
X-2155775Y-257771D01*
X-2192229Y-294225D01*
X-2192229Y-893845D01*
X-2193703Y-892371D01*
X-2266297Y-892371D01*
X-2302771Y-928845D01*
X-2302771Y+167725D01*
X-2275725Y+194771D01*
X-1356725Y+194771D01*
X-1256771Y+294725D01*
X-1256771Y+790471D01*
X-795471Y+790471D01*
X-795471Y+1089529D01*
X-1256771Y+1089529D01*
X-1256771Y+1550725D01*
X-1229725Y+1577771D01*
X-1190329Y+1577771D01*
X-1190329Y+1526971D01*
X-1176955Y+1526971D01*
X-1187629Y+1516297D01*
X-1187629Y+1443703D01*
X-1136297Y+1392371D01*
X-1063703Y+1392371D01*
X-1012371Y+1443703D01*
X-1012371Y+1516297D01*
X-1023046Y+1526971D01*
X-989671Y+1526971D01*
X-989671Y+1877771D01*
X-976969Y+1877771D01*
X-976969Y+1726971D01*
X-769669Y-140329D02*
X-769669Y+60329D01*
X-543611Y+60329D01*
X-543611Y-140329D01*
X-769669Y-140329D01*
X-53132Y+535129D02*
X-85297Y+535129D01*
X-128871Y+491555D01*
X-128871Y+610868D01*
X-53132Y+535129D01*
X-5109529Y+428205D02*
X-5040324Y+359000D01*
X-5109529Y+289795D01*
X-5109529Y+174205D01*
X-5040324Y+105000D01*
X-5109529Y+35795D01*
X-5109529Y-79795D01*
X-5096914Y-92410D01*
X-5147771Y-143267D01*
X-5147771Y+474225D01*
X-5109529Y+512467D01*
X-5109529Y+428205D01*
X+97771Y-859671D02*
X-17771Y-859671D01*
X-17771Y-846969D01*
X+97771Y-846969D01*
X+97771Y-859671D01*
X-379029Y-544818D02*
X-312818Y-611029D01*
X-219182Y-611029D01*
X-152971Y-544818D01*
X-152971Y-540955D01*
X-142229Y-551697D01*
X-142229Y-974929D01*
X-154958Y-962200D01*
X-197042Y-962200D01*
X-226800Y-991958D01*
X-226800Y-1034042D01*
X-197042Y-1063800D01*
X-154958Y-1063800D01*
X-142229Y-1051071D01*
X-142229Y-1067771D01*
X-799775Y-1067771D01*
X-836229Y-1104225D01*
X-836229Y-1162382D01*
X-887029Y-1213182D01*
X-887029Y-1306818D01*
X-836229Y-1357619D01*
X-836228Y-1418396D01*
X-766853Y-1487771D01*
X-822225Y-1487771D01*
X-959075Y-1350922D01*
X-914971Y-1306818D01*
X-914971Y-1213182D01*
X-981182Y-1146971D01*
X-1074818Y-1146971D01*
X-1141029Y-1213182D01*
X-1141029Y-1306818D01*
X-1090229Y-1357618D01*
X-1090229Y-1545542D01*
X-1219591Y-1545542D01*
X-1219591Y-1376971D01*
X-1420249Y-1376971D01*
X-1420249Y-1545542D01*
X-1432951Y-1545542D01*
X-1432951Y-1376971D01*
X-1473771Y-1376971D01*
X-1473771Y-1357618D01*
X-1422971Y-1306818D01*
X-1422971Y-1234975D01*
X-1072725Y-884729D01*
X-936197Y-884729D01*
X-910797Y-910129D01*
X-874875Y-910129D01*
X-773275Y-1011729D01*
X-594725Y-1011729D01*
X-494771Y-911775D01*
X-494771Y-693697D01*
X-469371Y-668297D01*
X-469371Y-607218D01*
X-406971Y-544818D01*
X-406971Y-452228D01*
X-379029Y-452228D01*
X-379029Y-544818D01*
X-1395029Y-1306818D02*
X-1395029Y-1213182D01*
X-1328818Y-1146971D01*
X-1235182Y-1146971D01*
X-1168971Y-1213182D01*
X-1168971Y-1306818D01*
X-1235182Y-1373029D01*
X-1328818Y-1373029D01*
X-1395029Y-1306818D01*
X+97771Y-1112371D02*
X+50471Y-1112371D01*
X+65300Y-1097542D01*
X+65300Y-1060329D01*
X+97771Y-1060329D01*
X+97771Y-1112371D01*
X-6542Y-1127300D02*
X+28774Y-1127300D01*
X+18303Y-1137771D01*
X-17771Y-1137771D01*
X-17771Y-1116071D01*
X-6542Y-1127300D01*
X+793127Y-607771D02*
X+774224Y-607771D01*
X+737771Y-644224D01*
X+737771Y-1138303D01*
X+712371Y-1163703D01*
X+712371Y-1236297D01*
X+763703Y-1287629D01*
X+836297Y-1287629D01*
X+887629Y-1236297D01*
X+887629Y-1183029D01*
X+947771Y-1183029D01*
X+947771Y-1340905D01*
X+889000Y-1399676D01*
X+819795Y-1330471D01*
X+704205Y-1330471D01*
X+635000Y-1399676D01*
X+565795Y-1330471D01*
X+450205Y-1330471D01*
X+381000Y-1399676D01*
X+347625Y-1366301D01*
X+387629Y-1326297D01*
X+387629Y-1253703D01*
X+362229Y-1228303D01*
X+362229Y-940009D01*
X+382519Y-940009D01*
X+382519Y-779991D01*
X+222229Y-779991D01*
X+222229Y-723029D01*
X+400329Y-723029D01*
X+400329Y-496971D01*
X+387629Y-496971D01*
X+387629Y-463703D01*
X+376154Y-452228D01*
X+637584Y-452228D01*
X+793127Y-607771D01*
X+613689Y-723029D02*
X+612519Y-723029D01*
X+612519Y-845009D01*
X+419481Y-845009D01*
X+419481Y-723029D01*
X+413031Y-723029D01*
X+413031Y-496971D01*
X+613689Y-496971D01*
X+613689Y-723029D01*
X+612519Y-874991D02*
X+612519Y-1035009D01*
X+419481Y-1035009D01*
X+419481Y-874991D01*
X+612519Y-874991D01*
X+1212205Y-1609529D02*
X+1327795Y-1609529D01*
X+1367771Y-1569553D01*
X+1367771Y-1617772D01*
X+151129Y-1617772D01*
X+151129Y-1564453D01*
X+196205Y-1609529D01*
X+311795Y-1609529D01*
X+381000Y-1540324D01*
X+450205Y-1609529D01*
X+565795Y-1609529D01*
X+635000Y-1540324D01*
X+704205Y-1609529D01*
X+819795Y-1609529D01*
X+889000Y-1540324D01*
X+958205Y-1609529D01*
X+1073795Y-1609529D01*
X+1143000Y-1540324D01*
X+1212205Y-1609529D01*
X+1517771Y-1238303D02*
X+1492371Y-1263703D01*
X+1492371Y-1336297D01*
X+1543703Y-1387629D01*
X+1616297Y-1387629D01*
X+1667629Y-1336297D01*
X+1667629Y-1263703D01*
X+1642229Y-1238303D01*
X+1642229Y-1171233D01*
X+1813771Y-1342775D01*
X+1813771Y-1790191D01*
X+1737571Y-1790191D01*
X+1737571Y-1848423D01*
X+1679339Y-1790191D01*
X+1564661Y-1790191D01*
X+1495000Y-1859852D01*
X+1425339Y-1790191D01*
X+1310661Y-1790191D01*
X+1241000Y-1859852D01*
X+1171339Y-1790191D01*
X+1056661Y-1790191D01*
X+987000Y-1859852D01*
X+917339Y-1790191D01*
X+802661Y-1790191D01*
X+733000Y-1859852D01*
X+663339Y-1790191D01*
X+548661Y-1790191D01*
X+528428Y-1810424D01*
X+460232Y-1742228D01*
X+1455776Y-1742228D01*
X+1492229Y-1705775D01*
X+1492229Y-621500D01*
X+1517771Y-595958D01*
X+1517771Y-1238303D01*
D10*
X-399379Y+520000D02*
X-280000Y+520000D01*
X-160621Y+520000D02*
X-280000Y+520000D01*
X-1021421Y+1840000D02*
X-1090000Y+1840000D01*
X-1158579Y+1840000D02*
X-1090000Y+1840000D01*
X-5077779Y+232000D02*
X-4970000Y+232000D01*
X-4862221Y+232000D02*
X-4970000Y+232000D01*
X-1251341Y-1490000D02*
X-1319920Y-1490000D01*
X-1319920Y-1408721D02*
X-1319920Y-1490000D01*
X-1388499Y-1490000D02*
X-1319920Y-1490000D01*
X+23360Y-891421D02*
X+23360Y-960000D01*
X+913360Y-1151279D02*
X+913360Y-1070000D01*
X+451231Y-955000D02*
X+516000Y-955000D01*
X+516000Y-1003259D02*
X+516000Y-955000D01*
X+580769Y-955000D02*
X+516000Y-955000D01*
X+516000Y-906741D02*
X+516000Y-955000D01*
X+468259Y+1455000D02*
X+420000Y+1455000D01*
X+420000Y+1519769D02*
X+420000Y+1455000D01*
X+1596691Y+1440940D02*
X+1646220Y+1440940D01*
X-1045000Y+822221D02*
X-1045000Y+940000D01*
X-827221Y+940000D02*
X-1045000Y+940000D01*
X-1045000Y+1057779D02*
X-1045000Y+940000D01*
X-575361Y-40000D02*
X-656640Y-40000D01*
X-656640Y+28579D02*
X-656640Y-40000D01*
X-737919Y-40000D02*
X-656640Y-40000D01*
X-656640Y-108579D02*
X-656640Y-40000D01*
X-347279Y-498000D02*
X-266000Y-498000D01*
X-266000Y-579279D02*
X-266000Y-498000D01*
X-1363279Y-1260000D02*
X-1282000Y-1260000D01*
X-1200721Y-1260000D02*
X-1282000Y-1260000D01*
X-1282000Y-1341279D02*
X-1282000Y-1260000D01*
X-1282000Y-1178721D02*
X-1282000Y-1260000D01*
X-3697779Y-1458000D02*
X-3590000Y-1458000D01*
X-3482221Y-1458000D02*
X-3590000Y-1458000D01*
X-3056679Y+2414000D02*
X-2950000Y+2414000D01*
X-2950000Y+2520679D02*
X-2950000Y+2414000D01*
X-3056679Y+2160000D02*
X-2950000Y+2160000D01*
X-2950000Y+2053321D02*
X-2950000Y+2160000D01*
X+860000Y-1821941D02*
X+860000Y-1928620D01*
X-3056679Y-1928620D02*
X-2950000Y-1928620D01*
X+254000Y-1577779D02*
X+254000Y-1470000D01*
X+762000Y-1577779D02*
X+762000Y-1470000D01*
X+762000Y-1362221D02*
X+762000Y-1470000D01*
D13*
X-280000Y+520000D03*
X-280000Y+266000D03*
X-280000Y+12000D03*
D16*
X+2670000Y+2280000D03*
X+2670000Y+1880000D03*
X+3550000Y+1930000D03*
X+3160000Y+1440000D03*
X+3780000Y+1430000D03*
X+3170000Y+690000D03*
X+3170000Y+290000D03*
X+3880000Y+270000D03*
X+550000Y+850000D03*
X+1580000Y+840000D03*
X+600000Y+270000D03*
X+610000Y-220000D03*
X+1410000Y-490000D03*
X+2210000Y-460000D03*
X+2610000Y-460000D03*
X+2210000Y-860000D03*
X+2610000Y-860000D03*
X-4730000Y+1340000D03*
X-4730000Y+1040000D03*
X-2790000Y+340000D03*
X-2790000Y-160000D03*
D14*
X+363360Y+1740000D03*
X+150000Y+1740000D03*
X-876640Y+1840000D03*
X-1090000Y+1840000D03*
X-1090000Y+1640000D03*
X-876640Y+1640000D03*
D13*
X-4970000Y+740000D03*
D17*
X-4970000Y+486000D03*
X-4970000Y+232000D03*
X-4970000Y-22000D03*
X-4970000Y-276000D03*
X-4970000Y-530000D03*
D14*
X-1319920Y-1490000D03*
X-1533280Y-1490000D03*
X+923360Y+1340000D03*
X+710000Y+1340000D03*
D21*
X+23360Y-960000D03*
X+23360Y-746640D03*
D14*
X+1133360Y-860000D03*
X+920000Y-860000D03*
X+1126720Y-1070000D03*
X+913360Y-1070000D03*
D22*
X+516000Y-765000D03*
X+516000Y-955000D03*
X+286000Y-860000D03*
D14*
X+513360Y-610000D03*
X+300000Y-610000D03*
D23*
X-190000Y+1540000D03*
X-96020Y+1349500D03*
X-283980Y+1349500D03*
D24*
X+230000Y+1455000D03*
X+420000Y+1455000D03*
X+325000Y+1225000D03*
D21*
X+1156640Y+1336640D03*
X+1156640Y+1550000D03*
D25*
X+1646220Y+1534920D03*
X+1646220Y+1440940D03*
X+1646220Y+1344420D03*
X+1407460Y+1344420D03*
X+1407460Y+1534920D03*
D21*
X+1866640Y+1346640D03*
X+1866640Y+1560000D03*
D26*
X+2310000Y+1298000D03*
X+2310000Y+1662000D03*
D27*
X-335000Y+940000D03*
X-1045000Y+940000D03*
D14*
X+323360Y+840000D03*
X+110000Y+840000D03*
D21*
X-656640Y+173360D03*
X-656640Y-40000D03*
D18*
X-1790000Y-498000D03*
D19*
X-1536000Y-498000D03*
X-1282000Y-498000D03*
X-1028000Y-498000D03*
X-774000Y-498000D03*
X-520000Y-498000D03*
X-266000Y-498000D03*
X-266000Y-1260000D03*
X-520000Y-1260000D03*
X-774000Y-1260000D03*
X-1028000Y-1260000D03*
X-1282000Y-1260000D03*
X-1536000Y-1260000D03*
X-1790000Y-1260000D03*
D13*
X-3590000Y-2220000D03*
D17*
X-3590000Y-1966000D03*
X-3590000Y-1712000D03*
X-3590000Y-1458000D03*
X-3590000Y-1204000D03*
D22*
X-360000Y+1835000D03*
X-360000Y+1645000D03*
X-590000Y+1740000D03*
D16*
X+4240000Y-1590000D03*
D70*
X+1876000Y+2414000D03*
D71*
X+1622000Y+2414000D03*
X+1368000Y+2414000D03*
X+1114000Y+2414000D03*
X+860000Y+2414000D03*
X+606000Y+2414000D03*
X+352000Y+2414000D03*
X+98000Y+2414000D03*
X-156000Y+2414000D03*
X-410000Y+2414000D03*
X-664000Y+2414000D03*
X-918000Y+2414000D03*
X-1172000Y+2414000D03*
X-1426000Y+2414000D03*
X-1680000Y+2414000D03*
X-1934000Y+2414000D03*
X-2188000Y+2414000D03*
X-2442000Y+2414000D03*
X-2696000Y+2414000D03*
X-2950000Y+2414000D03*
X-2950000Y+2160000D03*
X-2696000Y+2160000D03*
X-2442000Y+2160000D03*
X-2188000Y+2160000D03*
X-1934000Y+2160000D03*
X-1680000Y+2160000D03*
X-1426000Y+2160000D03*
X-1172000Y+2160000D03*
X-918000Y+2160000D03*
X-664000Y+2160000D03*
X-410000Y+2160000D03*
X-156000Y+2160000D03*
X+98000Y+2160000D03*
X+352000Y+2160000D03*
X+606000Y+2160000D03*
X+860000Y+2160000D03*
X+1114000Y+2160000D03*
X+1368000Y+2160000D03*
X+1622000Y+2160000D03*
X+1876000Y+2160000D03*
D70*
X+1876000Y-1928620D03*
D71*
X+1622000Y-1928620D03*
X+1368000Y-1928620D03*
X+1114000Y-1928620D03*
X+860000Y-1928620D03*
X+606000Y-1928620D03*
X+352000Y-1928620D03*
X+98000Y-1928620D03*
X-156000Y-1928620D03*
X-410000Y-1928620D03*
X-664000Y-1928620D03*
X-918000Y-1928620D03*
X-1172000Y-1928620D03*
X-1426000Y-1928620D03*
X-1680000Y-1928620D03*
X-1934000Y-1928620D03*
X-2188000Y-1928620D03*
X-2442000Y-1928620D03*
X-2696000Y-1928620D03*
X-2950000Y-1928620D03*
X-2950000Y-2182620D03*
X-2696000Y-2182620D03*
X-2442000Y-2182620D03*
X-2188000Y-2182620D03*
X-1934000Y-2182620D03*
X-1680000Y-2182620D03*
X-1426000Y-2182620D03*
X-1172000Y-2182620D03*
X-918000Y-2182620D03*
X-664000Y-2182620D03*
X-410000Y-2182620D03*
X-156000Y-2182620D03*
X+98000Y-2182620D03*
X+352000Y-2182620D03*
X+606000Y-2182620D03*
X+860000Y-2182620D03*
X+1114000Y-2182620D03*
X+1368000Y-2182620D03*
X+1622000Y-2182620D03*
X+1876000Y-2182620D03*
D13*
X+0Y-1470000D03*
D17*
X+254000Y-1470000D03*
X+508000Y-1470000D03*
X+762000Y-1470000D03*
X+1016000Y-1470000D03*
X+1270000Y-1470000D03*
D20*
X-5528000Y-2391260D02*
X+4472000Y-2391260D01*
X+4472000Y+2608740D01*
X-5528000Y+2608740D01*
X-5528000Y-2391260D01*
X+4322000Y+2308740D02*
X+4321498Y+2320998D01*
X+4317422Y+2345515D01*
X+4308906Y+2370032D01*
X+4295032Y+2394549D01*
X+4273806Y+2418901D01*
X+4249289Y+2437295D01*
X+4224772Y+2449151D01*
X+4200255Y+2456055D01*
X+4175738Y+2458693D01*
X+4172000Y+2458740D01*
X+4022000Y+2308740D02*
X+4022502Y+2320998D01*
X+4026578Y+2345515D01*
X+4035094Y+2370032D01*
X+4048968Y+2394549D01*
X+4070194Y+2418901D01*
X+4094711Y+2437295D01*
X+4119228Y+2449151D01*
X+4143745Y+2456055D01*
X+4168262Y+2458693D01*
X+4172000Y+2458740D01*
X+4022000Y+2308740D02*
X+4022502Y+2296482D01*
X+4026578Y+2271965D01*
X+4035094Y+2247448D01*
X+4048968Y+2222931D01*
X+4070194Y+2198579D01*
X+4094711Y+2180185D01*
X+4119228Y+2168329D01*
X+4143745Y+2161425D01*
X+4168262Y+2158787D01*
X+4172000Y+2158740D01*
X+4322000Y+2308740D02*
X+4321498Y+2296482D01*
X+4317422Y+2271965D01*
X+4308906Y+2247448D01*
X+4295032Y+2222931D01*
X+4273806Y+2198579D01*
X+4249289Y+2180185D01*
X+4224772Y+2168329D01*
X+4200255Y+2161425D01*
X+4175738Y+2158787D01*
X+4172000Y+2158740D01*
X+4322000Y-2091260D02*
X+4321498Y-2079002D01*
X+4317422Y-2054485D01*
X+4308906Y-2029968D01*
X+4295032Y-2005451D01*
X+4273806Y-1981099D01*
X+4249289Y-1962705D01*
X+4224772Y-1950849D01*
X+4200255Y-1943945D01*
X+4175738Y-1941307D01*
X+4172000Y-1941260D01*
X+4022000Y-2091260D02*
X+4022502Y-2079002D01*
X+4026578Y-2054485D01*
X+4035094Y-2029968D01*
X+4048968Y-2005451D01*
X+4070194Y-1981099D01*
X+4094711Y-1962705D01*
X+4119228Y-1950849D01*
X+4143745Y-1943945D01*
X+4168262Y-1941307D01*
X+4172000Y-1941260D01*
X+4022000Y-2091260D02*
X+4022502Y-2103518D01*
X+4026578Y-2128035D01*
X+4035094Y-2152552D01*
X+4048968Y-2177069D01*
X+4070194Y-2201421D01*
X+4094711Y-2219815D01*
X+4119228Y-2231671D01*
X+4143745Y-2238575D01*
X+4168262Y-2241213D01*
X+4172000Y-2241260D01*
X+4322000Y-2091260D02*
X+4321498Y-2103518D01*
X+4317422Y-2128035D01*
X+4308906Y-2152552D01*
X+4295032Y-2177069D01*
X+4273806Y-2201421D01*
X+4249289Y-2219815D01*
X+4224772Y-2231671D01*
X+4200255Y-2238575D01*
X+4175738Y-2241213D01*
X+4172000Y-2241260D01*
X-5078000Y-2091260D02*
X-5078502Y-2079002D01*
X-5082578Y-2054485D01*
X-5091094Y-2029968D01*
X-5104968Y-2005451D01*
X-5126194Y-1981099D01*
X-5150711Y-1962705D01*
X-5175228Y-1950849D01*
X-5199745Y-1943945D01*
X-5224262Y-1941307D01*
X-5228000Y-1941260D01*
X-5378000Y-2091260D02*
X-5377498Y-2079002D01*
X-5373422Y-2054485D01*
X-5364906Y-2029968D01*
X-5351032Y-2005451D01*
X-5329806Y-1981099D01*
X-5305289Y-1962705D01*
X-5280772Y-1950849D01*
X-5256255Y-1943945D01*
X-5231738Y-1941307D01*
X-5228000Y-1941260D01*
X-5378000Y-2091260D02*
X-5377498Y-2103518D01*
X-5373422Y-2128035D01*
X-5364906Y-2152552D01*
X-5351032Y-2177069D01*
X-5329806Y-2201421D01*
X-5305289Y-2219815D01*
X-5280772Y-2231671D01*
X-5256255Y-2238575D01*
X-5231738Y-2241213D01*
X-5228000Y-2241260D01*
X-5078000Y-2091260D02*
X-5078502Y-2103518D01*
X-5082578Y-2128035D01*
X-5091094Y-2152552D01*
X-5104968Y-2177069D01*
X-5126194Y-2201421D01*
X-5150711Y-2219815D01*
X-5175228Y-2231671D01*
X-5199745Y-2238575D01*
X-5224262Y-2241213D01*
X-5228000Y-2241260D01*
X-5078000Y+2308740D02*
X-5078502Y+2320998D01*
X-5082578Y+2345515D01*
X-5091094Y+2370032D01*
X-5104968Y+2394549D01*
X-5126194Y+2418901D01*
X-5150711Y+2437295D01*
X-5175228Y+2449151D01*
X-5199745Y+2456055D01*
X-5224262Y+2458693D01*
X-5228000Y+2458740D01*
X-5378000Y+2308740D02*
X-5377498Y+2320998D01*
X-5373422Y+2345515D01*
X-5364906Y+2370032D01*
X-5351032Y+2394549D01*
X-5329806Y+2418901D01*
X-5305289Y+2437295D01*
X-5280772Y+2449151D01*
X-5256255Y+2456055D01*
X-5231738Y+2458693D01*
X-5228000Y+2458740D01*
X-5378000Y+2308740D02*
X-5377498Y+2296482D01*
X-5373422Y+2271965D01*
X-5364906Y+2247448D01*
X-5351032Y+2222931D01*
X-5329806Y+2198579D01*
X-5305289Y+2180185D01*
X-5280772Y+2168329D01*
X-5256255Y+2161425D01*
X-5231738Y+2158787D01*
X-5228000Y+2158740D01*
X-5078000Y+2308740D02*
X-5078502Y+2296482D01*
X-5082578Y+2271965D01*
X-5091094Y+2247448D01*
X-5104968Y+2222931D01*
X-5126194Y+2198579D01*
X-5150711Y+2180185D01*
X-5175228Y+2168329D01*
X-5199745Y+2161425D01*
X-5224262Y+2158787D01*
X-5228000Y+2158740D01*
M02*
