G04 PROTEUS GERBER X2 FILE*
%TF.GenerationSoftware,Labcenter,Proteus,8.16-SP3-Build36097*%
%TF.CreationDate,2025-11-07T09:34:26+00:00*%
%TF.FileFunction,AssemblyDrawing,Bot*%
%TF.FilePolarity,Positive*%
%TF.Part,Single*%
%TF.SameCoordinates,{86f2edb6-a998-41b4-a695-59585592bfa3}*%
%FSLAX45Y45*%
%MOMM*%
G01*
%TA.AperFunction,Profile*%
%ADD20C,0.101600*%
%TA.AperFunction,Material*%
%ADD72C,0.101600*%
%ADD64C,0.508000*%
%ADD65C,0.076200*%
%ADD62C,0.812800*%
%ADD80C,0.911120*%
%ADD33C,0.050000*%
%ADD81C,0.375920*%
%ADD82C,0.115000*%
%ADD83C,0.406400*%
%ADD84C,0.096520*%
%ADD85C,0.254000*%
%ADD86C,0.093130*%
%ADD32C,0.100000*%
%ADD87C,1.640000*%
%ADD88C,0.204500*%
%ADD89C,1.600000*%
%ADD90C,0.255160*%
%ADD66C,0.440230*%
%TD.AperFunction*%
D20*
X-5528000Y-2391260D02*
X+4472000Y-2391260D01*
X+4472000Y+2608740D01*
X-5528000Y+2608740D01*
X-5528000Y-2391260D01*
X+4322000Y+2308740D02*
X+4321498Y+2320998D01*
X+4317422Y+2345515D01*
X+4308906Y+2370032D01*
X+4295032Y+2394549D01*
X+4273806Y+2418901D01*
X+4249289Y+2437295D01*
X+4224772Y+2449151D01*
X+4200255Y+2456055D01*
X+4175738Y+2458693D01*
X+4172000Y+2458740D01*
X+4022000Y+2308740D02*
X+4022502Y+2320998D01*
X+4026578Y+2345515D01*
X+4035094Y+2370032D01*
X+4048968Y+2394549D01*
X+4070194Y+2418901D01*
X+4094711Y+2437295D01*
X+4119228Y+2449151D01*
X+4143745Y+2456055D01*
X+4168262Y+2458693D01*
X+4172000Y+2458740D01*
X+4022000Y+2308740D02*
X+4022502Y+2296482D01*
X+4026578Y+2271965D01*
X+4035094Y+2247448D01*
X+4048968Y+2222931D01*
X+4070194Y+2198579D01*
X+4094711Y+2180185D01*
X+4119228Y+2168329D01*
X+4143745Y+2161425D01*
X+4168262Y+2158787D01*
X+4172000Y+2158740D01*
X+4322000Y+2308740D02*
X+4321498Y+2296482D01*
X+4317422Y+2271965D01*
X+4308906Y+2247448D01*
X+4295032Y+2222931D01*
X+4273806Y+2198579D01*
X+4249289Y+2180185D01*
X+4224772Y+2168329D01*
X+4200255Y+2161425D01*
X+4175738Y+2158787D01*
X+4172000Y+2158740D01*
X+4322000Y-2091260D02*
X+4321498Y-2079002D01*
X+4317422Y-2054485D01*
X+4308906Y-2029968D01*
X+4295032Y-2005451D01*
X+4273806Y-1981099D01*
X+4249289Y-1962705D01*
X+4224772Y-1950849D01*
X+4200255Y-1943945D01*
X+4175738Y-1941307D01*
X+4172000Y-1941260D01*
X+4022000Y-2091260D02*
X+4022502Y-2079002D01*
X+4026578Y-2054485D01*
X+4035094Y-2029968D01*
X+4048968Y-2005451D01*
X+4070194Y-1981099D01*
X+4094711Y-1962705D01*
X+4119228Y-1950849D01*
X+4143745Y-1943945D01*
X+4168262Y-1941307D01*
X+4172000Y-1941260D01*
X+4022000Y-2091260D02*
X+4022502Y-2103518D01*
X+4026578Y-2128035D01*
X+4035094Y-2152552D01*
X+4048968Y-2177069D01*
X+4070194Y-2201421D01*
X+4094711Y-2219815D01*
X+4119228Y-2231671D01*
X+4143745Y-2238575D01*
X+4168262Y-2241213D01*
X+4172000Y-2241260D01*
X+4322000Y-2091260D02*
X+4321498Y-2103518D01*
X+4317422Y-2128035D01*
X+4308906Y-2152552D01*
X+4295032Y-2177069D01*
X+4273806Y-2201421D01*
X+4249289Y-2219815D01*
X+4224772Y-2231671D01*
X+4200255Y-2238575D01*
X+4175738Y-2241213D01*
X+4172000Y-2241260D01*
X-5078000Y-2091260D02*
X-5078502Y-2079002D01*
X-5082578Y-2054485D01*
X-5091094Y-2029968D01*
X-5104968Y-2005451D01*
X-5126194Y-1981099D01*
X-5150711Y-1962705D01*
X-5175228Y-1950849D01*
X-5199745Y-1943945D01*
X-5224262Y-1941307D01*
X-5228000Y-1941260D01*
X-5378000Y-2091260D02*
X-5377498Y-2079002D01*
X-5373422Y-2054485D01*
X-5364906Y-2029968D01*
X-5351032Y-2005451D01*
X-5329806Y-1981099D01*
X-5305289Y-1962705D01*
X-5280772Y-1950849D01*
X-5256255Y-1943945D01*
X-5231738Y-1941307D01*
X-5228000Y-1941260D01*
X-5378000Y-2091260D02*
X-5377498Y-2103518D01*
X-5373422Y-2128035D01*
X-5364906Y-2152552D01*
X-5351032Y-2177069D01*
X-5329806Y-2201421D01*
X-5305289Y-2219815D01*
X-5280772Y-2231671D01*
X-5256255Y-2238575D01*
X-5231738Y-2241213D01*
X-5228000Y-2241260D01*
X-5078000Y-2091260D02*
X-5078502Y-2103518D01*
X-5082578Y-2128035D01*
X-5091094Y-2152552D01*
X-5104968Y-2177069D01*
X-5126194Y-2201421D01*
X-5150711Y-2219815D01*
X-5175228Y-2231671D01*
X-5199745Y-2238575D01*
X-5224262Y-2241213D01*
X-5228000Y-2241260D01*
X-5078000Y+2308740D02*
X-5078502Y+2320998D01*
X-5082578Y+2345515D01*
X-5091094Y+2370032D01*
X-5104968Y+2394549D01*
X-5126194Y+2418901D01*
X-5150711Y+2437295D01*
X-5175228Y+2449151D01*
X-5199745Y+2456055D01*
X-5224262Y+2458693D01*
X-5228000Y+2458740D01*
X-5378000Y+2308740D02*
X-5377498Y+2320998D01*
X-5373422Y+2345515D01*
X-5364906Y+2370032D01*
X-5351032Y+2394549D01*
X-5329806Y+2418901D01*
X-5305289Y+2437295D01*
X-5280772Y+2449151D01*
X-5256255Y+2456055D01*
X-5231738Y+2458693D01*
X-5228000Y+2458740D01*
X-5378000Y+2308740D02*
X-5377498Y+2296482D01*
X-5373422Y+2271965D01*
X-5364906Y+2247448D01*
X-5351032Y+2222931D01*
X-5329806Y+2198579D01*
X-5305289Y+2180185D01*
X-5280772Y+2168329D01*
X-5256255Y+2161425D01*
X-5231738Y+2158787D01*
X-5228000Y+2158740D01*
X-5078000Y+2308740D02*
X-5078502Y+2296482D01*
X-5082578Y+2271965D01*
X-5091094Y+2247448D01*
X-5104968Y+2222931D01*
X-5126194Y+2198579D01*
X-5150711Y+2180185D01*
X-5175228Y+2168329D01*
X-5199745Y+2161425D01*
X-5224262Y+2158787D01*
X-5228000Y+2158740D01*
D72*
X+99200Y+1671420D02*
X+414160Y+1671420D01*
X+414160Y+1803500D01*
X+99200Y+1803500D01*
X+99200Y+1671420D01*
D64*
X+363360Y+1740000D02*
X+363360Y+1740000D01*
D65*
X+287160Y+1714600D02*
X+287160Y+1760320D01*
X+244298Y+1760320D01*
X+235725Y+1752700D01*
X+235725Y+1745080D01*
X+244298Y+1737460D01*
X+287160Y+1737460D01*
X+244298Y+1737460D02*
X+235725Y+1729840D01*
X+235725Y+1714600D01*
X+210008Y+1760320D02*
X+167145Y+1760320D01*
X+167145Y+1752700D01*
X+210008Y+1714600D01*
D72*
X-1140800Y+1771420D02*
X-825840Y+1771420D01*
X-825840Y+1903500D01*
X-1140800Y+1903500D01*
X-1140800Y+1771420D01*
D64*
X-876640Y+1840000D02*
X-876640Y+1840000D01*
D65*
X-952840Y+1814600D02*
X-952840Y+1860320D01*
X-995702Y+1860320D01*
X-1004275Y+1852700D01*
X-1004275Y+1845080D01*
X-995702Y+1837460D01*
X-952840Y+1837460D01*
X-995702Y+1837460D02*
X-1004275Y+1829840D01*
X-1004275Y+1814600D01*
X-1038565Y+1837460D02*
X-1029992Y+1845080D01*
X-1029992Y+1852700D01*
X-1038565Y+1860320D01*
X-1064282Y+1860320D01*
X-1072855Y+1852700D01*
X-1072855Y+1845080D01*
X-1064282Y+1837460D01*
X-1038565Y+1837460D01*
X-1029992Y+1829840D01*
X-1029992Y+1822220D01*
X-1038565Y+1814600D01*
X-1064282Y+1814600D01*
X-1072855Y+1822220D01*
X-1072855Y+1829840D01*
X-1064282Y+1837460D01*
D72*
X-1140800Y+1576500D02*
X-825840Y+1576500D01*
X-825840Y+1708580D01*
X-1140800Y+1708580D01*
X-1140800Y+1576500D01*
D64*
X-1090000Y+1640000D02*
X-1090000Y+1640000D01*
D65*
X-876640Y+1619680D02*
X-876640Y+1665400D01*
X-919502Y+1665400D01*
X-928075Y+1657780D01*
X-928075Y+1650160D01*
X-919502Y+1642540D01*
X-876640Y+1642540D01*
X-919502Y+1642540D02*
X-928075Y+1634920D01*
X-928075Y+1619680D01*
X-996655Y+1650160D02*
X-988082Y+1642540D01*
X-962365Y+1642540D01*
X-953792Y+1650160D01*
X-953792Y+1657780D01*
X-962365Y+1665400D01*
X-988082Y+1665400D01*
X-996655Y+1657780D01*
X-996655Y+1627300D01*
X-988082Y+1619680D01*
X-962365Y+1619680D01*
D72*
X-5375080Y-885080D02*
X-1364920Y-885080D01*
X-1364920Y+1125080D01*
X-5375080Y+1125080D01*
X-5375080Y-885080D01*
D62*
X-4970000Y+740000D02*
X-4970000Y+740000D01*
D80*
X-2327132Y-153336D02*
X-2327132Y+393336D01*
X-2634635Y+120000D01*
X-2942138Y+393336D01*
X-2942138Y-153336D01*
X-3352142Y+211112D02*
X-3557144Y+393336D01*
X-3557144Y-153336D01*
D72*
X-1584080Y-1558580D02*
X-1269120Y-1558580D01*
X-1269120Y-1426500D01*
X-1584080Y-1426500D01*
X-1584080Y-1558580D01*
D64*
X-1319920Y-1490000D02*
X-1319920Y-1490000D01*
D65*
X-1447555Y-1507780D02*
X-1438982Y-1515400D01*
X-1413265Y-1515400D01*
X-1396120Y-1500160D01*
X-1396120Y-1484920D01*
X-1413265Y-1469680D01*
X-1438982Y-1469680D01*
X-1447555Y-1477300D01*
X-1473272Y-1477300D02*
X-1481845Y-1469680D01*
X-1507562Y-1469680D01*
X-1516135Y-1477300D01*
X-1516135Y-1484920D01*
X-1507562Y-1492540D01*
X-1516135Y-1500160D01*
X-1516135Y-1507780D01*
X-1507562Y-1515400D01*
X-1481845Y-1515400D01*
X-1473272Y-1507780D01*
X-1490417Y-1492540D02*
X-1507562Y-1492540D01*
D72*
X+659200Y+1271420D02*
X+974160Y+1271420D01*
X+974160Y+1403500D01*
X+659200Y+1403500D01*
X+659200Y+1271420D01*
D64*
X+923360Y+1340000D02*
X+923360Y+1340000D01*
D65*
X+847160Y+1314600D02*
X+847160Y+1360320D01*
X+804298Y+1360320D01*
X+795725Y+1352700D01*
X+795725Y+1345080D01*
X+804298Y+1337460D01*
X+847160Y+1337460D01*
X+804298Y+1337460D02*
X+795725Y+1329840D01*
X+795725Y+1314600D01*
X+727145Y+1352700D02*
X+735718Y+1360320D01*
X+761435Y+1360320D01*
X+770008Y+1352700D01*
X+770008Y+1322220D01*
X+761435Y+1314600D01*
X+735718Y+1314600D01*
X+727145Y+1322220D01*
X+727145Y+1329840D01*
X+735718Y+1337460D01*
X+770008Y+1337460D01*
D72*
X-45220Y-1010800D02*
X+86860Y-1010800D01*
X+86860Y-695840D01*
X-45220Y-695840D01*
X-45220Y-1010800D01*
D64*
X+23360Y-960000D02*
X+23360Y-960000D01*
D65*
X+36060Y-798075D02*
X+43680Y-789502D01*
X+43680Y-763785D01*
X+28440Y-746640D01*
X+13200Y-746640D01*
X-2040Y-763785D01*
X-2040Y-789502D01*
X+5580Y-798075D01*
X+5580Y-823792D02*
X-2040Y-832365D01*
X-2040Y-858082D01*
X+5580Y-866655D01*
X+13200Y-866655D01*
X+20820Y-858082D01*
X+20820Y-832365D01*
X+28440Y-823792D01*
X+43680Y-823792D01*
X+43680Y-866655D01*
D72*
X+869200Y-928580D02*
X+1184160Y-928580D01*
X+1184160Y-796500D01*
X+869200Y-796500D01*
X+869200Y-928580D01*
D64*
X+1133360Y-860000D02*
X+1133360Y-860000D01*
D65*
X+1057160Y-885400D02*
X+1057160Y-839680D01*
X+1014298Y-839680D01*
X+1005725Y-847300D01*
X+1005725Y-854920D01*
X+1014298Y-862540D01*
X+1057160Y-862540D01*
X+1014298Y-862540D02*
X+1005725Y-870160D01*
X+1005725Y-885400D01*
X+937145Y-870160D02*
X+988580Y-870160D01*
X+954290Y-839680D01*
X+954290Y-885400D01*
D72*
X+862560Y-1138580D02*
X+1177520Y-1138580D01*
X+1177520Y-1006500D01*
X+862560Y-1006500D01*
X+862560Y-1138580D01*
D64*
X+1126720Y-1070000D02*
X+1126720Y-1070000D01*
D65*
X+1050520Y-1095400D02*
X+1050520Y-1049680D01*
X+1007658Y-1049680D01*
X+999085Y-1057300D01*
X+999085Y-1064920D01*
X+1007658Y-1072540D01*
X+1050520Y-1072540D01*
X+1007658Y-1072540D02*
X+999085Y-1080160D01*
X+999085Y-1095400D01*
X+930505Y-1049680D02*
X+973368Y-1049680D01*
X+973368Y-1064920D01*
X+939078Y-1064920D01*
X+930505Y-1072540D01*
X+930505Y-1087780D01*
X+939078Y-1095400D01*
X+964795Y-1095400D01*
X+973368Y-1087780D01*
D33*
X+591000Y-1040000D02*
X+211000Y-1040000D01*
X+211000Y-680000D01*
X+591000Y-680000D01*
X+591000Y-1040000D01*
X+401000Y-810000D02*
X+401000Y-910000D01*
X+351000Y-860000D02*
X+451000Y-860000D01*
D81*
X+516000Y-765000D02*
X+516000Y-765000D01*
D82*
X+341352Y-756493D02*
X+318350Y-782369D01*
X+318350Y-808246D01*
X+341352Y-834123D01*
X+364353Y-834123D01*
X+387355Y-808246D01*
X+387355Y-782369D01*
X+364353Y-756493D01*
X+341352Y-756493D01*
X+364353Y-808246D02*
X+387355Y-834123D01*
X+364353Y-937630D02*
X+364353Y-860000D01*
X+318350Y-911753D01*
X+387355Y-911753D01*
D72*
X+249200Y-678580D02*
X+564160Y-678580D01*
X+564160Y-546500D01*
X+249200Y-546500D01*
X+249200Y-678580D01*
D64*
X+513360Y-610000D02*
X+513360Y-610000D01*
D65*
X+471450Y-635400D02*
X+471450Y-589680D01*
X+428588Y-589680D01*
X+420015Y-597300D01*
X+420015Y-604920D01*
X+428588Y-612540D01*
X+471450Y-612540D01*
X+428588Y-612540D02*
X+420015Y-620160D01*
X+420015Y-635400D01*
X+385725Y-604920D02*
X+368580Y-589680D01*
X+368580Y-635400D01*
X+317145Y-604920D02*
X+300000Y-589680D01*
X+300000Y-635400D01*
D72*
X-339860Y+1298700D02*
X-40140Y+1298700D01*
X-40140Y+1590800D01*
X-339860Y+1590800D01*
X-339860Y+1298700D01*
D83*
X-190000Y+1540000D02*
X-190000Y+1540000D01*
D84*
X-103132Y+1418842D02*
X-124849Y+1438146D01*
X-146566Y+1438146D01*
X-168283Y+1418842D01*
X-168283Y+1399538D01*
X-146566Y+1380234D01*
X-124849Y+1380234D01*
X-103132Y+1399538D01*
X-103132Y+1418842D01*
X-146566Y+1399538D02*
X-168283Y+1380234D01*
X-200858Y+1428494D02*
X-211717Y+1438146D01*
X-244292Y+1438146D01*
X-255151Y+1428494D01*
X-255151Y+1418842D01*
X-244292Y+1409190D01*
X-211717Y+1409190D01*
X-200858Y+1399538D01*
X-200858Y+1380234D01*
X-255151Y+1380234D01*
D33*
X+505000Y+1530000D02*
X+505000Y+1150000D01*
X+145000Y+1150000D01*
X+145000Y+1530000D01*
X+505000Y+1530000D01*
X+275000Y+1340000D02*
X+375000Y+1340000D01*
X+325000Y+1290000D02*
X+325000Y+1390000D01*
D81*
X+230000Y+1455000D02*
X+230000Y+1455000D01*
D82*
X+428507Y+1303352D02*
X+402631Y+1326354D01*
X+376754Y+1326354D01*
X+350877Y+1303352D01*
X+350877Y+1280351D01*
X+376754Y+1257349D01*
X+402631Y+1257349D01*
X+428507Y+1280351D01*
X+428507Y+1303352D01*
X+376754Y+1280351D02*
X+350877Y+1257349D01*
X+299124Y+1303352D02*
X+273247Y+1326354D01*
X+273247Y+1257349D01*
D72*
X+1088060Y+1285840D02*
X+1220140Y+1285840D01*
X+1220140Y+1600800D01*
X+1088060Y+1600800D01*
X+1088060Y+1285840D01*
D64*
X+1156640Y+1336640D02*
X+1156640Y+1336640D01*
D65*
X+1169340Y+1498565D02*
X+1176960Y+1507138D01*
X+1176960Y+1532855D01*
X+1161720Y+1550000D01*
X+1146480Y+1550000D01*
X+1131240Y+1532855D01*
X+1131240Y+1507138D01*
X+1138860Y+1498565D01*
X+1161720Y+1429985D02*
X+1161720Y+1481420D01*
X+1131240Y+1447130D01*
X+1176960Y+1447130D01*
D72*
X+1375710Y+1292350D02*
X+1677970Y+1292350D01*
X+1677970Y+1581910D01*
X+1375710Y+1581910D01*
X+1375710Y+1292350D01*
D85*
X+1646220Y+1534920D02*
X+1646220Y+1534920D01*
D86*
X+1476675Y+1520949D02*
X+1523242Y+1520949D01*
X+1532555Y+1510472D01*
X+1532555Y+1468563D01*
X+1523242Y+1458085D01*
X+1476675Y+1458085D01*
X+1485988Y+1426653D02*
X+1476675Y+1416176D01*
X+1476675Y+1384744D01*
X+1485988Y+1374266D01*
X+1495302Y+1374266D01*
X+1504615Y+1384744D01*
X+1513928Y+1374266D01*
X+1523242Y+1374266D01*
X+1532555Y+1384744D01*
X+1532555Y+1416176D01*
X+1523242Y+1426653D01*
X+1504615Y+1405698D02*
X+1504615Y+1384744D01*
D72*
X+1798060Y+1295840D02*
X+1930140Y+1295840D01*
X+1930140Y+1610800D01*
X+1798060Y+1610800D01*
X+1798060Y+1295840D01*
D64*
X+1866640Y+1346640D02*
X+1866640Y+1346640D01*
D65*
X+1879340Y+1508565D02*
X+1886960Y+1517138D01*
X+1886960Y+1542855D01*
X+1871720Y+1560000D01*
X+1856480Y+1560000D01*
X+1841240Y+1542855D01*
X+1841240Y+1517138D01*
X+1848860Y+1508565D01*
X+1841240Y+1439985D02*
X+1841240Y+1482848D01*
X+1856480Y+1482848D01*
X+1856480Y+1448558D01*
X+1864100Y+1439985D01*
X+1879340Y+1439985D01*
X+1886960Y+1448558D01*
X+1886960Y+1474275D01*
X+1879340Y+1482848D01*
D32*
X+1960000Y+1105000D02*
X+2660000Y+1105000D01*
X+2660000Y+1855000D01*
X+1960000Y+1855000D01*
X+1960000Y+1105000D01*
D87*
X+2310000Y+1298000D02*
X+2310000Y+1298000D01*
D88*
X+2494050Y+1681350D02*
X+2494050Y+1558650D01*
X+2356013Y+1558650D01*
X+2263988Y+1640450D02*
X+2217975Y+1681350D01*
X+2217975Y+1558650D01*
D33*
X-1325000Y+425000D02*
X+15000Y+425000D01*
X+15000Y+1455000D01*
X-1325000Y+1455000D01*
X-1325000Y+425000D01*
D89*
X-335000Y+940000D02*
X-335000Y+940000D01*
D90*
X-820216Y+997413D02*
X-794699Y+1026120D01*
X-794699Y+1112239D01*
X-845733Y+1169651D01*
X-896766Y+1169651D01*
X-947800Y+1112239D01*
X-947800Y+1026120D01*
X-922283Y+997413D01*
X-922283Y+767762D02*
X-947800Y+796469D01*
X-947800Y+882588D01*
X-922283Y+911294D01*
X-820216Y+911294D01*
X-794699Y+882588D01*
X-794699Y+796469D01*
X-820216Y+767762D01*
X-845733Y+767762D01*
X-871250Y+796469D01*
X-871250Y+911294D01*
D72*
X+59200Y+771420D02*
X+374160Y+771420D01*
X+374160Y+903500D01*
X+59200Y+903500D01*
X+59200Y+771420D01*
D64*
X+323360Y+840000D02*
X+323360Y+840000D01*
D65*
X+281450Y+814600D02*
X+281450Y+860320D01*
X+238588Y+860320D01*
X+230015Y+852700D01*
X+230015Y+845080D01*
X+238588Y+837460D01*
X+281450Y+837460D01*
X+238588Y+837460D02*
X+230015Y+829840D01*
X+230015Y+814600D01*
X+195725Y+845080D02*
X+178580Y+860320D01*
X+178580Y+814600D01*
X+144290Y+822220D02*
X+144290Y+852700D01*
X+135718Y+860320D01*
X+101428Y+860320D01*
X+92855Y+852700D01*
X+92855Y+822220D01*
X+101428Y+814600D01*
X+135718Y+814600D01*
X+144290Y+822220D01*
X+144290Y+814600D02*
X+92855Y+860320D01*
D72*
X-720140Y-90800D02*
X-588060Y-90800D01*
X-588060Y+224160D01*
X-720140Y+224160D01*
X-720140Y-90800D01*
D64*
X-656640Y+173360D02*
X-656640Y+173360D01*
D65*
X-631240Y+97160D02*
X-676960Y+97160D01*
X-676960Y+54298D01*
X-669340Y+45725D01*
X-661720Y+45725D01*
X-654100Y+54298D01*
X-654100Y+97160D01*
X-654100Y+54298D02*
X-646480Y+45725D01*
X-631240Y+45725D01*
X-669340Y+20008D02*
X-676960Y+11435D01*
X-676960Y-14282D01*
X-669340Y-22855D01*
X-661720Y-22855D01*
X-654100Y-14282D01*
X-646480Y-22855D01*
X-638860Y-22855D01*
X-631240Y-14282D01*
X-631240Y+11435D01*
X-638860Y+20008D01*
X-654100Y+2863D02*
X-654100Y-14282D01*
D72*
X-1922080Y-1323500D02*
X-133920Y-1323500D01*
X-133920Y-434500D01*
X-1922080Y-434500D01*
X-1922080Y-1323500D01*
D64*
X-1790000Y-498000D02*
X-1790000Y-498000D01*
D66*
X-1345468Y-1011069D02*
X-1345468Y-790953D01*
X-1295942Y-746930D01*
X-1097838Y-746930D01*
X-1048312Y-790953D01*
X-1048312Y-1011069D01*
X-899734Y-967046D02*
X-850208Y-1011069D01*
X-701630Y-1011069D01*
X-652104Y-967046D01*
X-652104Y-923023D01*
X-701630Y-879000D01*
X-850208Y-879000D01*
X-899734Y-834976D01*
X-899734Y-746930D01*
X-652104Y-746930D01*
D33*
X-285000Y+1560000D02*
X-665000Y+1560000D01*
X-665000Y+1920000D01*
X-285000Y+1920000D01*
X-285000Y+1560000D01*
X-475000Y+1790000D02*
X-475000Y+1690000D01*
X-525000Y+1740000D02*
X-425000Y+1740000D01*
D81*
X-360000Y+1835000D02*
X-360000Y+1835000D01*
D82*
X-534648Y+1843507D02*
X-557650Y+1817631D01*
X-557650Y+1791754D01*
X-534648Y+1765877D01*
X-511647Y+1765877D01*
X-488645Y+1791754D01*
X-488645Y+1817631D01*
X-511647Y+1843507D01*
X-534648Y+1843507D01*
X-511647Y+1791754D02*
X-488645Y+1765877D01*
X-546149Y+1727062D02*
X-557650Y+1714124D01*
X-557650Y+1675309D01*
X-546149Y+1662370D01*
X-534648Y+1662370D01*
X-523148Y+1675309D01*
X-511647Y+1662370D01*
X-500146Y+1662370D01*
X-488645Y+1675309D01*
X-488645Y+1714124D01*
X-500146Y+1727062D01*
X-523148Y+1701185D02*
X-523148Y+1675309D01*
M02*
