G04 PROTEUS GERBER X2 FILE*
%TF.GenerationSoftware,Labcenter,Proteus,8.16-SP3-Build36097*%
%TF.CreationDate,2025-11-07T09:34:26+00:00*%
%TF.FileFunction,Plated,1,2,PTH*%
%TF.FilePolarity,Positive*%
%TF.Part,Single*%
%TF.SameCoordinates,{86f2edb6-a998-41b4-a695-59585592bfa3}*%
%FSLAX45Y45*%
%MOMM*%
G01*
%TA.AperFunction,ViaDrill*%
%ADD91C,0.381000*%
%TA.AperFunction,ComponentDrill*%
%ADD92C,1.016000*%
%TA.AperFunction,ComponentDrill*%
%ADD93C,0.762000*%
%TA.AperFunction,ComponentDrill*%
%ADD94C,0.800000*%
%TD.AperFunction*%
D91*
X+160000Y-530000D03*
X+110000Y+670000D03*
X+2010000Y+1560000D03*
X+1150000Y+1660000D03*
X-557000Y-632000D03*
X+1665500Y-1076500D03*
X-190000Y+1740000D03*
X+23360Y-620000D03*
X+1660000Y+1250000D03*
X-2030000Y-1220000D03*
X-874500Y-822500D03*
X-50000Y+80000D03*
X+290000Y+80000D03*
X-1470000Y+330000D03*
X-610000Y+330000D03*
X-48037Y-61963D03*
X+214706Y-68824D03*
X-980000Y+12000D03*
X+1133360Y-1200000D03*
X+2210000Y-1200000D03*
X+2850000Y-460000D03*
X-1030000Y-750000D03*
X+2610000Y-1130000D03*
X-686000Y-840000D03*
X+800000Y-1200000D03*
X+80000Y-1200000D03*
X-620500Y-251000D03*
X+14500Y-1076500D03*
X-1255500Y+1844500D03*
X-2970000Y+1844500D03*
X-176000Y-1013000D03*
X-4113000Y+2289000D03*
X+1580000Y-1300000D03*
X+300000Y-1290000D03*
X+2046500Y+1463500D03*
X-1100000Y+1480000D03*
X-60000Y+1010000D03*
X+160000Y+1010000D03*
X+2770000Y-660000D03*
X+300000Y-500000D03*
X-2208000Y-1584500D03*
X-3795500Y-759000D03*
X-4113000Y+66500D03*
X-1954000Y+66500D03*
X-49000Y+447500D03*
X-1255500Y+130000D03*
X-2230000Y-980000D03*
X-2620000Y-980000D03*
X+400000Y-190000D03*
X-80000Y-190000D03*
X-80000Y-490000D03*
X-303000Y+1146000D03*
X-3900000Y-1966000D03*
X-3900000Y-880000D03*
X+893971Y+603016D03*
X-2912000Y-1712000D03*
X-1255500Y-251000D03*
X-2335000Y+1717500D03*
X-2462000Y-1775000D03*
X-3986000Y-505000D03*
X-2208000Y-1076500D03*
X-130000Y+2010000D03*
D92*
X-280000Y+520000D03*
X-280000Y+266000D03*
X-280000Y+12000D03*
D93*
X+2670000Y+2280000D03*
X+2670000Y+1880000D03*
X+3550000Y+1930000D03*
X+3160000Y+1440000D03*
X+3780000Y+1430000D03*
X+3170000Y+690000D03*
X+3170000Y+290000D03*
X+3880000Y+270000D03*
X+550000Y+850000D03*
X+1580000Y+840000D03*
X+600000Y+270000D03*
X+610000Y-220000D03*
X+1410000Y-490000D03*
X+2210000Y-460000D03*
X+2610000Y-460000D03*
X+2210000Y-860000D03*
X+2610000Y-860000D03*
X-4730000Y+1340000D03*
X-4730000Y+1040000D03*
X-2790000Y+340000D03*
X-2790000Y-160000D03*
D92*
X-4970000Y+740000D03*
D94*
X-4970000Y+486000D03*
X-4970000Y+232000D03*
X-4970000Y-22000D03*
X-4970000Y-276000D03*
X-4970000Y-530000D03*
D93*
X-1790000Y-498000D03*
X-1536000Y-498000D03*
X-1282000Y-498000D03*
X-1028000Y-498000D03*
X-774000Y-498000D03*
X-520000Y-498000D03*
X-266000Y-498000D03*
X-266000Y-1260000D03*
X-520000Y-1260000D03*
X-774000Y-1260000D03*
X-1028000Y-1260000D03*
X-1282000Y-1260000D03*
X-1536000Y-1260000D03*
X-1790000Y-1260000D03*
D92*
X-3590000Y-2220000D03*
D94*
X-3590000Y-1966000D03*
X-3590000Y-1712000D03*
X-3590000Y-1458000D03*
X-3590000Y-1204000D03*
D93*
X+4240000Y-1590000D03*
X+1876000Y+2414000D03*
D92*
X+1622000Y+2414000D03*
X+1368000Y+2414000D03*
X+1114000Y+2414000D03*
X+860000Y+2414000D03*
X+606000Y+2414000D03*
X+352000Y+2414000D03*
X+98000Y+2414000D03*
X-156000Y+2414000D03*
X-410000Y+2414000D03*
X-664000Y+2414000D03*
X-918000Y+2414000D03*
X-1172000Y+2414000D03*
X-1426000Y+2414000D03*
X-1680000Y+2414000D03*
X-1934000Y+2414000D03*
X-2188000Y+2414000D03*
X-2442000Y+2414000D03*
X-2696000Y+2414000D03*
X-2950000Y+2414000D03*
X-2950000Y+2160000D03*
X-2696000Y+2160000D03*
X-2442000Y+2160000D03*
X-2188000Y+2160000D03*
X-1934000Y+2160000D03*
X-1680000Y+2160000D03*
X-1426000Y+2160000D03*
X-1172000Y+2160000D03*
X-918000Y+2160000D03*
X-664000Y+2160000D03*
X-410000Y+2160000D03*
X-156000Y+2160000D03*
X+98000Y+2160000D03*
X+352000Y+2160000D03*
X+606000Y+2160000D03*
X+860000Y+2160000D03*
X+1114000Y+2160000D03*
X+1368000Y+2160000D03*
X+1622000Y+2160000D03*
X+1876000Y+2160000D03*
D93*
X+1876000Y-1928620D03*
D92*
X+1622000Y-1928620D03*
X+1368000Y-1928620D03*
X+1114000Y-1928620D03*
X+860000Y-1928620D03*
X+606000Y-1928620D03*
X+352000Y-1928620D03*
X+98000Y-1928620D03*
X-156000Y-1928620D03*
X-410000Y-1928620D03*
X-664000Y-1928620D03*
X-918000Y-1928620D03*
X-1172000Y-1928620D03*
X-1426000Y-1928620D03*
X-1680000Y-1928620D03*
X-1934000Y-1928620D03*
X-2188000Y-1928620D03*
X-2442000Y-1928620D03*
X-2696000Y-1928620D03*
X-2950000Y-1928620D03*
X-2950000Y-2182620D03*
X-2696000Y-2182620D03*
X-2442000Y-2182620D03*
X-2188000Y-2182620D03*
X-1934000Y-2182620D03*
X-1680000Y-2182620D03*
X-1426000Y-2182620D03*
X-1172000Y-2182620D03*
X-918000Y-2182620D03*
X-664000Y-2182620D03*
X-410000Y-2182620D03*
X-156000Y-2182620D03*
X+98000Y-2182620D03*
X+352000Y-2182620D03*
X+606000Y-2182620D03*
X+860000Y-2182620D03*
X+1114000Y-2182620D03*
X+1368000Y-2182620D03*
X+1622000Y-2182620D03*
X+1876000Y-2182620D03*
X+0Y-1470000D03*
D94*
X+254000Y-1470000D03*
X+508000Y-1470000D03*
X+762000Y-1470000D03*
X+1016000Y-1470000D03*
X+1270000Y-1470000D03*
M02*
