G04 PROTEUS GERBER X2 FILE*
%TF.GenerationSoftware,Labcenter,Proteus,8.16-SP3-Build36097*%
%TF.CreationDate,2025-11-07T09:36:06+00:00*%
%TF.FileFunction,NonPlated,1,2,NPTH*%
%TF.FilePolarity,Positive*%
%TF.Part,Single*%
%TF.SameCoordinates,{7cfba198-d274-4d3b-beed-790fb78b42e9}*%
%FSLAX45Y45*%
%MOMM*%
G01*
%TA.AperFunction,Profile*%
%ADD30C,0.101600*%
%TD.AperFunction*%
D30*
X-14000Y+13000D02*
X+9986000Y+13000D01*
X+9986000Y+5013000D01*
X-14000Y+5013000D01*
X-14000Y+13000D01*
X+9836000Y+4713000D02*
X+9835498Y+4725258D01*
X+9831422Y+4749775D01*
X+9822906Y+4774292D01*
X+9809032Y+4798809D01*
X+9787806Y+4823161D01*
X+9763289Y+4841555D01*
X+9738772Y+4853411D01*
X+9714255Y+4860315D01*
X+9689738Y+4862953D01*
X+9686000Y+4863000D01*
X+9536000Y+4713000D02*
X+9536502Y+4725258D01*
X+9540578Y+4749775D01*
X+9549094Y+4774292D01*
X+9562968Y+4798809D01*
X+9584194Y+4823161D01*
X+9608711Y+4841555D01*
X+9633228Y+4853411D01*
X+9657745Y+4860315D01*
X+9682262Y+4862953D01*
X+9686000Y+4863000D01*
X+9536000Y+4713000D02*
X+9536502Y+4700742D01*
X+9540578Y+4676225D01*
X+9549094Y+4651708D01*
X+9562968Y+4627191D01*
X+9584194Y+4602839D01*
X+9608711Y+4584445D01*
X+9633228Y+4572589D01*
X+9657745Y+4565685D01*
X+9682262Y+4563047D01*
X+9686000Y+4563000D01*
X+9836000Y+4713000D02*
X+9835498Y+4700742D01*
X+9831422Y+4676225D01*
X+9822906Y+4651708D01*
X+9809032Y+4627191D01*
X+9787806Y+4602839D01*
X+9763289Y+4584445D01*
X+9738772Y+4572589D01*
X+9714255Y+4565685D01*
X+9689738Y+4563047D01*
X+9686000Y+4563000D01*
X+9836000Y+313000D02*
X+9835498Y+325258D01*
X+9831422Y+349775D01*
X+9822906Y+374292D01*
X+9809032Y+398809D01*
X+9787806Y+423161D01*
X+9763289Y+441555D01*
X+9738772Y+453411D01*
X+9714255Y+460315D01*
X+9689738Y+462953D01*
X+9686000Y+463000D01*
X+9536000Y+313000D02*
X+9536502Y+325258D01*
X+9540578Y+349775D01*
X+9549094Y+374292D01*
X+9562968Y+398809D01*
X+9584194Y+423161D01*
X+9608711Y+441555D01*
X+9633228Y+453411D01*
X+9657745Y+460315D01*
X+9682262Y+462953D01*
X+9686000Y+463000D01*
X+9536000Y+313000D02*
X+9536502Y+300742D01*
X+9540578Y+276225D01*
X+9549094Y+251708D01*
X+9562968Y+227191D01*
X+9584194Y+202839D01*
X+9608711Y+184445D01*
X+9633228Y+172589D01*
X+9657745Y+165685D01*
X+9682262Y+163047D01*
X+9686000Y+163000D01*
X+9836000Y+313000D02*
X+9835498Y+300742D01*
X+9831422Y+276225D01*
X+9822906Y+251708D01*
X+9809032Y+227191D01*
X+9787806Y+202839D01*
X+9763289Y+184445D01*
X+9738772Y+172589D01*
X+9714255Y+165685D01*
X+9689738Y+163047D01*
X+9686000Y+163000D01*
X+436000Y+313000D02*
X+435498Y+325258D01*
X+431422Y+349775D01*
X+422906Y+374292D01*
X+409032Y+398809D01*
X+387806Y+423161D01*
X+363289Y+441555D01*
X+338772Y+453411D01*
X+314255Y+460315D01*
X+289738Y+462953D01*
X+286000Y+463000D01*
X+136000Y+313000D02*
X+136502Y+325258D01*
X+140578Y+349775D01*
X+149094Y+374292D01*
X+162968Y+398809D01*
X+184194Y+423161D01*
X+208711Y+441555D01*
X+233228Y+453411D01*
X+257745Y+460315D01*
X+282262Y+462953D01*
X+286000Y+463000D01*
X+136000Y+313000D02*
X+136502Y+300742D01*
X+140578Y+276225D01*
X+149094Y+251708D01*
X+162968Y+227191D01*
X+184194Y+202839D01*
X+208711Y+184445D01*
X+233228Y+172589D01*
X+257745Y+165685D01*
X+282262Y+163047D01*
X+286000Y+163000D01*
X+436000Y+313000D02*
X+435498Y+300742D01*
X+431422Y+276225D01*
X+422906Y+251708D01*
X+409032Y+227191D01*
X+387806Y+202839D01*
X+363289Y+184445D01*
X+338772Y+172589D01*
X+314255Y+165685D01*
X+289738Y+163047D01*
X+286000Y+163000D01*
X+436000Y+4713000D02*
X+435498Y+4725258D01*
X+431422Y+4749775D01*
X+422906Y+4774292D01*
X+409032Y+4798809D01*
X+387806Y+4823161D01*
X+363289Y+4841555D01*
X+338772Y+4853411D01*
X+314255Y+4860315D01*
X+289738Y+4862953D01*
X+286000Y+4863000D01*
X+136000Y+4713000D02*
X+136502Y+4725258D01*
X+140578Y+4749775D01*
X+149094Y+4774292D01*
X+162968Y+4798809D01*
X+184194Y+4823161D01*
X+208711Y+4841555D01*
X+233228Y+4853411D01*
X+257745Y+4860315D01*
X+282262Y+4862953D01*
X+286000Y+4863000D01*
X+136000Y+4713000D02*
X+136502Y+4700742D01*
X+140578Y+4676225D01*
X+149094Y+4651708D01*
X+162968Y+4627191D01*
X+184194Y+4602839D01*
X+208711Y+4584445D01*
X+233228Y+4572589D01*
X+257745Y+4565685D01*
X+282262Y+4563047D01*
X+286000Y+4563000D01*
X+436000Y+4713000D02*
X+435498Y+4700742D01*
X+431422Y+4676225D01*
X+422906Y+4651708D01*
X+409032Y+4627191D01*
X+387806Y+4602839D01*
X+363289Y+4584445D01*
X+338772Y+4572589D01*
X+314255Y+4565685D01*
X+289738Y+4563047D01*
X+286000Y+4563000D01*
M02*
