G04 PROTEUS GERBER X2 FILE*
%TF.GenerationSoftware,Labcenter,Proteus,8.16-SP3-Build36097*%
%TF.CreationDate,2025-11-07T09:36:06+00:00*%
%TF.FileFunction,Copper,L2,Bot*%
%TF.FilePolarity,Positive*%
%TF.Part,Single*%
%TF.SameCoordinates,{7cfba198-d274-4d3b-beed-790fb78b42e9}*%
%FSLAX45Y45*%
%MOMM*%
G01*
%TA.AperFunction,Conductor*%
%ADD10C,0.254000*%
%TA.AperFunction,ViaPad*%
%ADD11C,0.762000*%
%TA.AperFunction,ComponentPad*%
%ADD15R,1.778000X1.778000*%
%ADD16C,1.778000*%
%TA.AperFunction,ComponentPad*%
%ADD17C,1.600000*%
%TA.AperFunction,ComponentPad*%
%ADD18C,2.200000*%
%TA.AperFunction,ComponentPad*%
%ADD71C,2.032000*%
%TA.AperFunction,WasherPad*%
%ADD20R,0.601040X0.601040*%
%TA.AperFunction,ComponentPad*%
%ADD21C,0.850000*%
%TA.AperFunction,ComponentPad*%
%ADD72C,1.950000*%
%TA.AperFunction,Profile*%
%ADD30C,0.101600*%
%TD.AperFunction*%
%TA.AperFunction,Conductor*%
G36*
X+9490000Y+4500000D02*
X+9930120Y+4500000D01*
X+9930120Y+550000D01*
X+9490000Y+550000D01*
X+9490000Y+68880D01*
X+7039944Y+68880D01*
X+7072118Y+101054D01*
X+7076552Y+96621D01*
X+7175448Y+96621D01*
X+7245379Y+166552D01*
X+7245379Y+265448D01*
X+7175448Y+335379D01*
X+7076552Y+335379D01*
X+7006621Y+265448D01*
X+7006621Y+166552D01*
X+7011054Y+162118D01*
X+6974865Y+125929D01*
X+6950756Y+125929D01*
X+6991379Y+166552D01*
X+6991379Y+265448D01*
X+6921448Y+335379D01*
X+6822552Y+335379D01*
X+6752621Y+265448D01*
X+6752621Y+166552D01*
X+6793244Y+125929D01*
X+6696756Y+125929D01*
X+6737379Y+166552D01*
X+6737379Y+265448D01*
X+6667448Y+335379D01*
X+6568552Y+335379D01*
X+6498621Y+265448D01*
X+6498621Y+166552D01*
X+6539244Y+125929D01*
X+6442756Y+125929D01*
X+6483379Y+166552D01*
X+6483379Y+265448D01*
X+6413448Y+335379D01*
X+6314552Y+335379D01*
X+6244621Y+265448D01*
X+6244621Y+166552D01*
X+6285244Y+125929D01*
X+6188756Y+125929D01*
X+6229379Y+166552D01*
X+6229379Y+265448D01*
X+6159448Y+335379D01*
X+6060552Y+335379D01*
X+5990621Y+265448D01*
X+5990621Y+166552D01*
X+6031244Y+125929D01*
X+5934756Y+125929D01*
X+5975379Y+166552D01*
X+5975379Y+265448D01*
X+5905448Y+335379D01*
X+5806552Y+335379D01*
X+5736621Y+265448D01*
X+5736621Y+166552D01*
X+5777244Y+125929D01*
X+5680756Y+125929D01*
X+5721379Y+166552D01*
X+5721379Y+265448D01*
X+5651448Y+335379D01*
X+5552552Y+335379D01*
X+5482621Y+265448D01*
X+5482621Y+166552D01*
X+5523244Y+125929D01*
X+5426756Y+125929D01*
X+5467379Y+166552D01*
X+5467379Y+265448D01*
X+5397448Y+335379D01*
X+5298552Y+335379D01*
X+5228621Y+265448D01*
X+5228621Y+166552D01*
X+5269244Y+125929D01*
X+5172756Y+125929D01*
X+5213379Y+166552D01*
X+5213379Y+265448D01*
X+5143448Y+335379D01*
X+5044552Y+335379D01*
X+4974621Y+265448D01*
X+4974621Y+166552D01*
X+5015244Y+125929D01*
X+4918756Y+125929D01*
X+4959379Y+166552D01*
X+4959379Y+265448D01*
X+4889448Y+335379D01*
X+4790552Y+335379D01*
X+4720621Y+265448D01*
X+4720621Y+166552D01*
X+4761244Y+125929D01*
X+4664756Y+125929D01*
X+4705379Y+166552D01*
X+4705379Y+265448D01*
X+4635448Y+335379D01*
X+4536552Y+335379D01*
X+4466621Y+265448D01*
X+4466621Y+166552D01*
X+4507244Y+125929D01*
X+4410756Y+125929D01*
X+4451379Y+166552D01*
X+4451379Y+265448D01*
X+4381448Y+335379D01*
X+4282552Y+335379D01*
X+4212621Y+265448D01*
X+4212621Y+166552D01*
X+4253244Y+125929D01*
X+4156756Y+125929D01*
X+4197379Y+166552D01*
X+4197379Y+265448D01*
X+4127448Y+335379D01*
X+4028552Y+335379D01*
X+3958621Y+265448D01*
X+3958621Y+166552D01*
X+3999244Y+125929D01*
X+3902756Y+125929D01*
X+3943379Y+166552D01*
X+3943379Y+265448D01*
X+3873448Y+335379D01*
X+3774552Y+335379D01*
X+3704621Y+265448D01*
X+3704621Y+166552D01*
X+3745244Y+125929D01*
X+3648756Y+125929D01*
X+3689379Y+166552D01*
X+3689379Y+265448D01*
X+3619448Y+335379D01*
X+3520552Y+335379D01*
X+3450621Y+265448D01*
X+3450621Y+166552D01*
X+3491244Y+125929D01*
X+3394756Y+125929D01*
X+3435379Y+166552D01*
X+3435379Y+265448D01*
X+3365448Y+335379D01*
X+3266552Y+335379D01*
X+3196621Y+265448D01*
X+3196621Y+166552D01*
X+3237244Y+125929D01*
X+3140756Y+125929D01*
X+3181379Y+166552D01*
X+3181379Y+265448D01*
X+3111448Y+335379D01*
X+3012552Y+335379D01*
X+2942621Y+265448D01*
X+2942621Y+166552D01*
X+2983244Y+125929D01*
X+2886756Y+125929D01*
X+2927379Y+166552D01*
X+2927379Y+265448D01*
X+2857448Y+335379D01*
X+2758552Y+335379D01*
X+2688621Y+265448D01*
X+2688621Y+166552D01*
X+2729244Y+125929D01*
X+2632756Y+125929D01*
X+2673379Y+166552D01*
X+2673379Y+265448D01*
X+2603448Y+335379D01*
X+2504552Y+335379D01*
X+2434621Y+265448D01*
X+2434621Y+166552D01*
X+2475244Y+125929D01*
X+1325135Y+125929D01*
X+1291543Y+159521D01*
X+1365762Y+159521D01*
X+1420000Y+213759D01*
X+1474238Y+159521D01*
X+1565762Y+159521D01*
X+1603787Y+197546D01*
X+1671812Y+129521D01*
X+1788188Y+129521D01*
X+1870479Y+211812D01*
X+1870479Y+328188D01*
X+1788188Y+410479D01*
X+1671812Y+410479D01*
X+1603787Y+342454D01*
X+1565762Y+380479D01*
X+1474238Y+380479D01*
X+1420000Y+326241D01*
X+1365762Y+380479D01*
X+1274238Y+380479D01*
X+1220000Y+326241D01*
X+1165762Y+380479D01*
X+1074238Y+380479D01*
X+1036213Y+342454D01*
X+968188Y+410479D01*
X+851812Y+410479D01*
X+769521Y+328188D01*
X+769521Y+211812D01*
X+851812Y+129521D01*
X+968188Y+129521D01*
X+1036213Y+197546D01*
X+1074238Y+159521D01*
X+1165762Y+159521D01*
X+1167588Y+161347D01*
X+1260056Y+68880D01*
X+490000Y+68880D01*
X+490000Y+500000D01*
X+41880Y+500000D01*
X+41880Y+2150000D01*
X+140000Y+2150000D01*
X+140000Y+3000000D01*
X+41880Y+3000000D01*
X+41880Y+3300000D01*
X+90000Y+3300000D01*
X+90000Y+3350000D01*
X+490000Y+3350000D01*
X+490000Y+4100000D01*
X+90000Y+4100000D01*
X+90000Y+4150000D01*
X+41880Y+4150000D01*
X+41880Y+4500000D01*
X+490000Y+4500000D01*
X+490000Y+4713212D01*
X+565291Y+4637921D01*
X+674709Y+4637921D01*
X+752079Y+4715291D01*
X+752079Y+4824709D01*
X+674709Y+4902079D01*
X+565291Y+4902079D01*
X+490000Y+4826788D01*
X+490000Y+4957120D01*
X+9490000Y+4957120D01*
X+9490000Y+4500000D01*
G37*
%TD.AperFunction*%
%LPC*%
G36*
X+7489379Y+4700621D02*
X+7250621Y+4700621D01*
X+7250621Y+4939379D01*
X+7489379Y+4939379D01*
X+7489379Y+4700621D01*
G37*
G36*
X+7235379Y+4869448D02*
X+7235379Y+4770552D01*
X+7165448Y+4700621D01*
X+7066552Y+4700621D01*
X+6996621Y+4770552D01*
X+6996621Y+4869448D01*
X+7066552Y+4939379D01*
X+7165448Y+4939379D01*
X+7235379Y+4869448D01*
G37*
G36*
X+6981379Y+4869448D02*
X+6981379Y+4770552D01*
X+6911448Y+4700621D01*
X+6812552Y+4700621D01*
X+6742621Y+4770552D01*
X+6742621Y+4869448D01*
X+6812552Y+4939379D01*
X+6911448Y+4939379D01*
X+6981379Y+4869448D01*
G37*
G36*
X+6727379Y+4869448D02*
X+6727379Y+4770552D01*
X+6657448Y+4700621D01*
X+6558552Y+4700621D01*
X+6488621Y+4770552D01*
X+6488621Y+4869448D01*
X+6558552Y+4939379D01*
X+6657448Y+4939379D01*
X+6727379Y+4869448D01*
G37*
G36*
X+6473379Y+4869448D02*
X+6473379Y+4770552D01*
X+6403448Y+4700621D01*
X+6304552Y+4700621D01*
X+6234621Y+4770552D01*
X+6234621Y+4869448D01*
X+6304552Y+4939379D01*
X+6403448Y+4939379D01*
X+6473379Y+4869448D01*
G37*
G36*
X+6219379Y+4869448D02*
X+6219379Y+4770552D01*
X+6149448Y+4700621D01*
X+6050552Y+4700621D01*
X+5980621Y+4770552D01*
X+5980621Y+4869448D01*
X+6050552Y+4939379D01*
X+6149448Y+4939379D01*
X+6219379Y+4869448D01*
G37*
G36*
X+5965379Y+4869448D02*
X+5965379Y+4770552D01*
X+5895448Y+4700621D01*
X+5796552Y+4700621D01*
X+5726621Y+4770552D01*
X+5726621Y+4869448D01*
X+5796552Y+4939379D01*
X+5895448Y+4939379D01*
X+5965379Y+4869448D01*
G37*
G36*
X+5711379Y+4869448D02*
X+5711379Y+4770552D01*
X+5641448Y+4700621D01*
X+5542552Y+4700621D01*
X+5472621Y+4770552D01*
X+5472621Y+4869448D01*
X+5542552Y+4939379D01*
X+5641448Y+4939379D01*
X+5711379Y+4869448D01*
G37*
G36*
X+5457379Y+4869448D02*
X+5457379Y+4770552D01*
X+5387448Y+4700621D01*
X+5288552Y+4700621D01*
X+5218621Y+4770552D01*
X+5218621Y+4869448D01*
X+5288552Y+4939379D01*
X+5387448Y+4939379D01*
X+5457379Y+4869448D01*
G37*
G36*
X+5203379Y+4869448D02*
X+5203379Y+4770552D01*
X+5133448Y+4700621D01*
X+5034552Y+4700621D01*
X+4964621Y+4770552D01*
X+4964621Y+4869448D01*
X+5034552Y+4939379D01*
X+5133448Y+4939379D01*
X+5203379Y+4869448D01*
G37*
G36*
X+4949379Y+4869448D02*
X+4949379Y+4770552D01*
X+4879448Y+4700621D01*
X+4780552Y+4700621D01*
X+4710621Y+4770552D01*
X+4710621Y+4869448D01*
X+4780552Y+4939379D01*
X+4879448Y+4939379D01*
X+4949379Y+4869448D01*
G37*
G36*
X+4695379Y+4869448D02*
X+4695379Y+4770552D01*
X+4625448Y+4700621D01*
X+4526552Y+4700621D01*
X+4456621Y+4770552D01*
X+4456621Y+4869448D01*
X+4526552Y+4939379D01*
X+4625448Y+4939379D01*
X+4695379Y+4869448D01*
G37*
G36*
X+4441379Y+4869448D02*
X+4441379Y+4770552D01*
X+4371448Y+4700621D01*
X+4272552Y+4700621D01*
X+4202621Y+4770552D01*
X+4202621Y+4869448D01*
X+4272552Y+4939379D01*
X+4371448Y+4939379D01*
X+4441379Y+4869448D01*
G37*
G36*
X+4187379Y+4869448D02*
X+4187379Y+4770552D01*
X+4117448Y+4700621D01*
X+4018552Y+4700621D01*
X+3948621Y+4770552D01*
X+3948621Y+4869448D01*
X+4018552Y+4939379D01*
X+4117448Y+4939379D01*
X+4187379Y+4869448D01*
G37*
G36*
X+3933379Y+4869448D02*
X+3933379Y+4770552D01*
X+3863448Y+4700621D01*
X+3764552Y+4700621D01*
X+3694621Y+4770552D01*
X+3694621Y+4869448D01*
X+3764552Y+4939379D01*
X+3863448Y+4939379D01*
X+3933379Y+4869448D01*
G37*
G36*
X+3679379Y+4869448D02*
X+3679379Y+4770552D01*
X+3609448Y+4700621D01*
X+3510552Y+4700621D01*
X+3440621Y+4770552D01*
X+3440621Y+4869448D01*
X+3510552Y+4939379D01*
X+3609448Y+4939379D01*
X+3679379Y+4869448D01*
G37*
G36*
X+3425379Y+4869448D02*
X+3425379Y+4770552D01*
X+3355448Y+4700621D01*
X+3256552Y+4700621D01*
X+3186621Y+4770552D01*
X+3186621Y+4869448D01*
X+3256552Y+4939379D01*
X+3355448Y+4939379D01*
X+3425379Y+4869448D01*
G37*
G36*
X+3171379Y+4869448D02*
X+3171379Y+4770552D01*
X+3101448Y+4700621D01*
X+3002552Y+4700621D01*
X+2932621Y+4770552D01*
X+2932621Y+4869448D01*
X+3002552Y+4939379D01*
X+3101448Y+4939379D01*
X+3171379Y+4869448D01*
G37*
G36*
X+2917379Y+4869448D02*
X+2917379Y+4770552D01*
X+2847448Y+4700621D01*
X+2748552Y+4700621D01*
X+2678621Y+4770552D01*
X+2678621Y+4869448D01*
X+2748552Y+4939379D01*
X+2847448Y+4939379D01*
X+2917379Y+4869448D01*
G37*
G36*
X+2663379Y+4869448D02*
X+2663379Y+4770552D01*
X+2593448Y+4700621D01*
X+2494552Y+4700621D01*
X+2424621Y+4770552D01*
X+2424621Y+4869448D01*
X+2494552Y+4939379D01*
X+2593448Y+4939379D01*
X+2663379Y+4869448D01*
G37*
G36*
X+2663379Y+4615448D02*
X+2663379Y+4516552D01*
X+2593448Y+4446621D01*
X+2494552Y+4446621D01*
X+2424621Y+4516552D01*
X+2424621Y+4615448D01*
X+2494552Y+4685379D01*
X+2593448Y+4685379D01*
X+2663379Y+4615448D01*
G37*
G36*
X+2917379Y+4615448D02*
X+2917379Y+4516552D01*
X+2847448Y+4446621D01*
X+2748552Y+4446621D01*
X+2678621Y+4516552D01*
X+2678621Y+4615448D01*
X+2748552Y+4685379D01*
X+2847448Y+4685379D01*
X+2917379Y+4615448D01*
G37*
G36*
X+3171379Y+4615448D02*
X+3171379Y+4516552D01*
X+3101448Y+4446621D01*
X+3002552Y+4446621D01*
X+2932621Y+4516552D01*
X+2932621Y+4615448D01*
X+3002552Y+4685379D01*
X+3101448Y+4685379D01*
X+3171379Y+4615448D01*
G37*
G36*
X+3425379Y+4615448D02*
X+3425379Y+4516552D01*
X+3355448Y+4446621D01*
X+3256552Y+4446621D01*
X+3186621Y+4516552D01*
X+3186621Y+4615448D01*
X+3256552Y+4685379D01*
X+3355448Y+4685379D01*
X+3425379Y+4615448D01*
G37*
G36*
X+3679379Y+4615448D02*
X+3679379Y+4516552D01*
X+3609448Y+4446621D01*
X+3510552Y+4446621D01*
X+3440621Y+4516552D01*
X+3440621Y+4615448D01*
X+3510552Y+4685379D01*
X+3609448Y+4685379D01*
X+3679379Y+4615448D01*
G37*
G36*
X+3933379Y+4615448D02*
X+3933379Y+4516552D01*
X+3863448Y+4446621D01*
X+3764552Y+4446621D01*
X+3694621Y+4516552D01*
X+3694621Y+4615448D01*
X+3764552Y+4685379D01*
X+3863448Y+4685379D01*
X+3933379Y+4615448D01*
G37*
G36*
X+4187379Y+4615448D02*
X+4187379Y+4516552D01*
X+4117448Y+4446621D01*
X+4018552Y+4446621D01*
X+3948621Y+4516552D01*
X+3948621Y+4615448D01*
X+4018552Y+4685379D01*
X+4117448Y+4685379D01*
X+4187379Y+4615448D01*
G37*
G36*
X+4441379Y+4615448D02*
X+4441379Y+4516552D01*
X+4371448Y+4446621D01*
X+4272552Y+4446621D01*
X+4202621Y+4516552D01*
X+4202621Y+4615448D01*
X+4272552Y+4685379D01*
X+4371448Y+4685379D01*
X+4441379Y+4615448D01*
G37*
G36*
X+4695379Y+4615448D02*
X+4695379Y+4516552D01*
X+4625448Y+4446621D01*
X+4526552Y+4446621D01*
X+4456621Y+4516552D01*
X+4456621Y+4615448D01*
X+4526552Y+4685379D01*
X+4625448Y+4685379D01*
X+4695379Y+4615448D01*
G37*
G36*
X+4949379Y+4615448D02*
X+4949379Y+4516552D01*
X+4879448Y+4446621D01*
X+4780552Y+4446621D01*
X+4710621Y+4516552D01*
X+4710621Y+4615448D01*
X+4780552Y+4685379D01*
X+4879448Y+4685379D01*
X+4949379Y+4615448D01*
G37*
G36*
X+5203379Y+4615448D02*
X+5203379Y+4516552D01*
X+5133448Y+4446621D01*
X+5034552Y+4446621D01*
X+4964621Y+4516552D01*
X+4964621Y+4615448D01*
X+5034552Y+4685379D01*
X+5133448Y+4685379D01*
X+5203379Y+4615448D01*
G37*
G36*
X+5457379Y+4615448D02*
X+5457379Y+4516552D01*
X+5387448Y+4446621D01*
X+5288552Y+4446621D01*
X+5218621Y+4516552D01*
X+5218621Y+4615448D01*
X+5288552Y+4685379D01*
X+5387448Y+4685379D01*
X+5457379Y+4615448D01*
G37*
G36*
X+5711379Y+4615448D02*
X+5711379Y+4516552D01*
X+5641448Y+4446621D01*
X+5542552Y+4446621D01*
X+5472621Y+4516552D01*
X+5472621Y+4615448D01*
X+5542552Y+4685379D01*
X+5641448Y+4685379D01*
X+5711379Y+4615448D01*
G37*
G36*
X+5965379Y+4615448D02*
X+5965379Y+4516552D01*
X+5895448Y+4446621D01*
X+5796552Y+4446621D01*
X+5726621Y+4516552D01*
X+5726621Y+4615448D01*
X+5796552Y+4685379D01*
X+5895448Y+4685379D01*
X+5965379Y+4615448D01*
G37*
G36*
X+6219379Y+4615448D02*
X+6219379Y+4516552D01*
X+6149448Y+4446621D01*
X+6050552Y+4446621D01*
X+5980621Y+4516552D01*
X+5980621Y+4615448D01*
X+6050552Y+4685379D01*
X+6149448Y+4685379D01*
X+6219379Y+4615448D01*
G37*
G36*
X+6473379Y+4615448D02*
X+6473379Y+4516552D01*
X+6403448Y+4446621D01*
X+6304552Y+4446621D01*
X+6234621Y+4516552D01*
X+6234621Y+4615448D01*
X+6304552Y+4685379D01*
X+6403448Y+4685379D01*
X+6473379Y+4615448D01*
G37*
G36*
X+6727379Y+4615448D02*
X+6727379Y+4516552D01*
X+6657448Y+4446621D01*
X+6558552Y+4446621D01*
X+6488621Y+4516552D01*
X+6488621Y+4615448D01*
X+6558552Y+4685379D01*
X+6657448Y+4685379D01*
X+6727379Y+4615448D01*
G37*
G36*
X+6981379Y+4615448D02*
X+6981379Y+4516552D01*
X+6911448Y+4446621D01*
X+6812552Y+4446621D01*
X+6742621Y+4516552D01*
X+6742621Y+4615448D01*
X+6812552Y+4685379D01*
X+6911448Y+4685379D01*
X+6981379Y+4615448D01*
G37*
G36*
X+7235379Y+4615448D02*
X+7235379Y+4516552D01*
X+7165448Y+4446621D01*
X+7066552Y+4446621D01*
X+6996621Y+4516552D01*
X+6996621Y+4615448D01*
X+7066552Y+4685379D01*
X+7165448Y+4685379D01*
X+7235379Y+4615448D01*
G37*
G36*
X+7489379Y+4615448D02*
X+7489379Y+4516552D01*
X+7423179Y+4450352D01*
X+7423179Y+589379D01*
X+7499379Y+589379D01*
X+7499379Y+350621D01*
X+7260621Y+350621D01*
X+7260621Y+589379D01*
X+7336821Y+589379D01*
X+7336821Y+700033D01*
X+7274709Y+637921D01*
X+7252977Y+637921D01*
X+7252977Y+535913D01*
X+7240945Y+523881D01*
X+7245379Y+519448D01*
X+7245379Y+420552D01*
X+7175448Y+350621D01*
X+7076552Y+350621D01*
X+7006621Y+420552D01*
X+7006621Y+519448D01*
X+7076552Y+589379D01*
X+7166619Y+589379D01*
X+7166619Y+637921D01*
X+7165291Y+637921D01*
X+7087921Y+715291D01*
X+7087921Y+824709D01*
X+7165291Y+902079D01*
X+7176821Y+902079D01*
X+7176821Y+2749194D01*
X+7160421Y+2765594D01*
X+7160421Y+2822406D01*
X+7200594Y+2862579D01*
X+7257406Y+2862579D01*
X+7297579Y+2822406D01*
X+7297579Y+2765594D01*
X+7263179Y+2731194D01*
X+7263179Y+902079D01*
X+7274709Y+902079D01*
X+7336821Y+839967D01*
X+7336821Y+4446621D01*
X+7320552Y+4446621D01*
X+7250621Y+4516552D01*
X+7250621Y+4615448D01*
X+7320552Y+4685379D01*
X+7419448Y+4685379D01*
X+7489379Y+4615448D01*
G37*
G36*
X+6878532Y+3046782D02*
X+6963179Y+2962135D01*
X+6963179Y+902079D01*
X+6974709Y+902079D01*
X+7052079Y+824709D01*
X+7052079Y+715291D01*
X+6974709Y+637921D01*
X+6953179Y+637921D01*
X+6953179Y+557648D01*
X+6991379Y+519448D01*
X+6991379Y+420552D01*
X+6921448Y+350621D01*
X+6822552Y+350621D01*
X+6752621Y+420552D01*
X+6752621Y+519448D01*
X+6822552Y+589379D01*
X+6866821Y+589379D01*
X+6866821Y+637921D01*
X+6865291Y+637921D01*
X+6787921Y+715291D01*
X+6787921Y+824709D01*
X+6865291Y+902079D01*
X+6876821Y+902079D01*
X+6876821Y+2926365D01*
X+6830115Y+2973071D01*
X+5368914Y+2973071D01*
X+5377806Y+2964179D01*
X+6548385Y+2964179D01*
X+6663179Y+2849385D01*
X+6663179Y+902079D01*
X+6674709Y+902079D01*
X+6752079Y+824709D01*
X+6752079Y+715291D01*
X+6674709Y+637921D01*
X+6653179Y+637921D01*
X+6653179Y+589379D01*
X+6667448Y+589379D01*
X+6737379Y+519448D01*
X+6737379Y+420552D01*
X+6667448Y+350621D01*
X+6568552Y+350621D01*
X+6498621Y+420552D01*
X+6498621Y+519448D01*
X+6566821Y+587648D01*
X+6566821Y+637921D01*
X+6565291Y+637921D01*
X+6487921Y+715291D01*
X+6487921Y+824709D01*
X+6565291Y+902079D01*
X+6576821Y+902079D01*
X+6576821Y+2813615D01*
X+6512615Y+2877821D01*
X+5377806Y+2877821D01*
X+5352406Y+2852421D01*
X+5295594Y+2852421D01*
X+5255421Y+2892594D01*
X+5255421Y+2918357D01*
X+5240179Y+2903115D01*
X+5240179Y+2367385D01*
X+5252985Y+2354579D01*
X+5288906Y+2354579D01*
X+5329079Y+2314406D01*
X+5329079Y+2257594D01*
X+5288906Y+2217421D01*
X+5232094Y+2217421D01*
X+5191921Y+2257594D01*
X+5191921Y+2293515D01*
X+5153821Y+2331615D01*
X+5153821Y+2938885D01*
X+5274365Y+3059429D01*
X+6865885Y+3059429D01*
X+6878532Y+3046782D01*
G37*
G36*
X+6483379Y+519448D02*
X+6483379Y+420552D01*
X+6413448Y+350621D01*
X+6314552Y+350621D01*
X+6244621Y+420552D01*
X+6244621Y+519448D01*
X+6314552Y+589379D01*
X+6413448Y+589379D01*
X+6483379Y+519448D01*
G37*
G36*
X+6229379Y+519448D02*
X+6229379Y+420552D01*
X+6159448Y+350621D01*
X+6060552Y+350621D01*
X+5990621Y+420552D01*
X+5990621Y+519448D01*
X+6060552Y+589379D01*
X+6159448Y+589379D01*
X+6229379Y+519448D01*
G37*
G36*
X+4212157Y+3490915D02*
X+4212157Y+3434103D01*
X+4171984Y+3393930D01*
X+4136063Y+3393930D01*
X+4094212Y+3352079D01*
X+4124709Y+3352079D01*
X+4202079Y+3274709D01*
X+4202079Y+3165291D01*
X+4124709Y+3087921D01*
X+4015291Y+3087921D01*
X+3937921Y+3165291D01*
X+3937921Y+3274709D01*
X+3999314Y+3336102D01*
X+3038055Y+3336102D01*
X+3027428Y+3325475D01*
X+3027428Y+2353270D01*
X+4133179Y+1247519D01*
X+4133179Y+892079D01*
X+4144709Y+892079D01*
X+4222079Y+814709D01*
X+4222079Y+760730D01*
X+4366243Y+904894D01*
X+4366243Y+1279455D01*
X+4324709Y+1237921D01*
X+4215291Y+1237921D01*
X+4137921Y+1315291D01*
X+4137921Y+1424709D01*
X+4146074Y+1432862D01*
X+3546821Y+2032115D01*
X+3546821Y+2349208D01*
X+3521421Y+2374608D01*
X+3521421Y+2431420D01*
X+3561594Y+2471593D01*
X+3617343Y+2471593D01*
X+3184135Y+2904801D01*
X+3184135Y+3240603D01*
X+3234089Y+3290557D01*
X+3697303Y+3290557D01*
X+3885625Y+3102235D01*
X+3921546Y+3102235D01*
X+3961719Y+3062062D01*
X+3961719Y+3005250D01*
X+3921546Y+2965077D01*
X+3864734Y+2965077D01*
X+3824561Y+3005250D01*
X+3824561Y+3041171D01*
X+3661533Y+3204199D01*
X+3270493Y+3204199D01*
X+3270493Y+3021941D01*
X+3324301Y+3021941D01*
X+3364474Y+2981768D01*
X+3364474Y+2945847D01*
X+4576821Y+1733500D01*
X+4576821Y+2220115D01*
X+4274821Y+2522115D01*
X+4274821Y+3365194D01*
X+4239421Y+3400594D01*
X+4239421Y+3457406D01*
X+4279594Y+3497579D01*
X+4336406Y+3497579D01*
X+4376579Y+3457406D01*
X+4376579Y+3400594D01*
X+4361179Y+3385194D01*
X+4361179Y+2557885D01*
X+4656821Y+2262243D01*
X+4656821Y+3203885D01*
X+4734615Y+3281679D01*
X+5270194Y+3281679D01*
X+5295594Y+3307079D01*
X+5352406Y+3307079D01*
X+5392579Y+3266906D01*
X+5392579Y+3210094D01*
X+5352406Y+3169921D01*
X+5295594Y+3169921D01*
X+5270194Y+3195321D01*
X+4770385Y+3195321D01*
X+4743179Y+3168115D01*
X+4743179Y+2718743D01*
X+5128421Y+3103985D01*
X+5128421Y+3139906D01*
X+5168594Y+3180079D01*
X+5225406Y+3180079D01*
X+5265579Y+3139906D01*
X+5265579Y+3083094D01*
X+5225406Y+3042921D01*
X+5189485Y+3042921D01*
X+4795679Y+2649115D01*
X+4795679Y+2580743D01*
X+4861615Y+2646679D01*
X+5024385Y+2646679D01*
X+5113179Y+2557885D01*
X+5113179Y+2466806D01*
X+5138579Y+2441406D01*
X+5138579Y+2384594D01*
X+5098406Y+2344421D01*
X+5041594Y+2344421D01*
X+5001421Y+2384594D01*
X+5001421Y+2441406D01*
X+5026821Y+2466806D01*
X+5026821Y+2522115D01*
X+4988615Y+2560321D01*
X+4897385Y+2560321D01*
X+4874128Y+2537064D01*
X+4896449Y+2537064D01*
X+4936622Y+2496891D01*
X+4936622Y+2440079D01*
X+4911222Y+2414679D01*
X+4911222Y+2351207D01*
X+4914594Y+2354579D01*
X+4971406Y+2354579D01*
X+4996806Y+2329179D01*
X+5087885Y+2329179D01*
X+5176679Y+2240385D01*
X+5176679Y+2049885D01*
X+5241614Y+1984950D01*
X+5245300Y+1988636D01*
X+5302112Y+1988636D01*
X+5342285Y+1948463D01*
X+5342285Y+1891651D01*
X+5302112Y+1851478D01*
X+5245300Y+1851478D01*
X+5205127Y+1891651D01*
X+5205127Y+1899309D01*
X+5090321Y+2014115D01*
X+5090321Y+2204615D01*
X+5052115Y+2242821D01*
X+4996806Y+2242821D01*
X+4971406Y+2217421D01*
X+4914594Y+2217421D01*
X+4911222Y+2220793D01*
X+4911222Y+2139842D01*
X+6157138Y+893926D01*
X+6165291Y+902079D01*
X+6274709Y+902079D01*
X+6352079Y+824709D01*
X+6352079Y+715291D01*
X+6314967Y+678179D01*
X+6322115Y+678179D01*
X+6360321Y+716385D01*
X+6360321Y+1887115D01*
X+5776015Y+2471421D01*
X+5740094Y+2471421D01*
X+5699921Y+2511594D01*
X+5699921Y+2568406D01*
X+5740094Y+2608579D01*
X+5796906Y+2608579D01*
X+5837079Y+2568406D01*
X+5837079Y+2532485D01*
X+6446679Y+1922885D01*
X+6446679Y+680615D01*
X+6357885Y+591821D01*
X+6068115Y+591821D01*
X+6042821Y+617115D01*
X+6042821Y+706033D01*
X+5974709Y+637921D01*
X+5963179Y+637921D01*
X+5963179Y+617115D01*
X+5937885Y+591821D01*
X+5899179Y+591821D01*
X+5899179Y+589379D01*
X+5905448Y+589379D01*
X+5975379Y+519448D01*
X+5975379Y+420552D01*
X+5905448Y+350621D01*
X+5806552Y+350621D01*
X+5736621Y+420552D01*
X+5736621Y+519448D01*
X+5806552Y+589379D01*
X+5812821Y+589379D01*
X+5812821Y+652885D01*
X+5831574Y+671638D01*
X+5787921Y+715291D01*
X+5787921Y+824709D01*
X+5865291Y+902079D01*
X+5974709Y+902079D01*
X+6052079Y+824709D01*
X+6052079Y+813179D01*
X+6087921Y+813179D01*
X+6087921Y+824709D01*
X+6096074Y+832862D01*
X+4840750Y+2088186D01*
X+4840750Y+1610314D01*
X+5557138Y+893926D01*
X+5565291Y+902079D01*
X+5674709Y+902079D01*
X+5752079Y+824709D01*
X+5752079Y+715291D01*
X+5674709Y+637921D01*
X+5673179Y+637921D01*
X+5673179Y+617115D01*
X+5645443Y+589379D01*
X+5651448Y+589379D01*
X+5721379Y+519448D01*
X+5721379Y+420552D01*
X+5651448Y+350621D01*
X+5552552Y+350621D01*
X+5482621Y+420552D01*
X+5482621Y+519448D01*
X+5552552Y+589379D01*
X+5558821Y+589379D01*
X+5558821Y+624885D01*
X+5571857Y+637921D01*
X+5565291Y+637921D01*
X+5487921Y+715291D01*
X+5487921Y+824709D01*
X+5496073Y+832861D01*
X+4795679Y+1533255D01*
X+4795679Y+1205385D01*
X+5107138Y+893926D01*
X+5115291Y+902079D01*
X+5224709Y+902079D01*
X+5302079Y+824709D01*
X+5302079Y+715291D01*
X+5224709Y+637921D01*
X+5213179Y+637921D01*
X+5213179Y+617115D01*
X+5187885Y+591821D01*
X+5137179Y+591821D01*
X+5137179Y+589379D01*
X+5143448Y+589379D01*
X+5213379Y+519448D01*
X+5213379Y+420552D01*
X+5143448Y+350621D01*
X+5044552Y+350621D01*
X+4974621Y+420552D01*
X+4974621Y+519448D01*
X+5044552Y+589379D01*
X+5050821Y+589379D01*
X+5050821Y+652885D01*
X+5075574Y+677638D01*
X+5037921Y+715291D01*
X+5037921Y+824709D01*
X+5046074Y+832862D01*
X+4913179Y+965757D01*
X+4913179Y+902079D01*
X+4924709Y+902079D01*
X+5002079Y+824709D01*
X+5002079Y+715291D01*
X+4924709Y+637921D01*
X+4923179Y+637921D01*
X+4923179Y+617115D01*
X+4892445Y+586381D01*
X+4959379Y+519448D01*
X+4959379Y+420552D01*
X+4889448Y+350621D01*
X+4790552Y+350621D01*
X+4720621Y+420552D01*
X+4720621Y+519448D01*
X+4790552Y+589379D01*
X+4796821Y+589379D01*
X+4796821Y+612885D01*
X+4821857Y+637921D01*
X+4815291Y+637921D01*
X+4763179Y+690033D01*
X+4763179Y+586115D01*
X+4700945Y+523881D01*
X+4705379Y+519448D01*
X+4705379Y+420552D01*
X+4635448Y+350621D01*
X+4536552Y+350621D01*
X+4466621Y+420552D01*
X+4466621Y+519448D01*
X+4536552Y+589379D01*
X+4635448Y+589379D01*
X+4639881Y+584945D01*
X+4676821Y+621885D01*
X+4676821Y+650033D01*
X+4644709Y+617921D01*
X+4535291Y+617921D01*
X+4457921Y+695291D01*
X+4457921Y+804709D01*
X+4535291Y+882079D01*
X+4546821Y+882079D01*
X+4546821Y+1641372D01*
X+4402079Y+1786114D01*
X+4402079Y+1715291D01*
X+4324709Y+1637921D01*
X+4275718Y+1637921D01*
X+4452601Y+1461038D01*
X+4452601Y+869124D01*
X+4150152Y+566675D01*
X+4197379Y+519448D01*
X+4197379Y+420552D01*
X+4127448Y+350621D01*
X+4028552Y+350621D01*
X+3958621Y+420552D01*
X+3958621Y+519448D01*
X+3988330Y+549157D01*
X+3913670Y+549157D01*
X+3943379Y+519448D01*
X+3943379Y+420552D01*
X+3873448Y+350621D01*
X+3774552Y+350621D01*
X+3704621Y+420552D01*
X+3704621Y+519448D01*
X+3734330Y+549157D01*
X+3710221Y+549157D01*
X+3684945Y+523881D01*
X+3689379Y+519448D01*
X+3689379Y+420552D01*
X+3619448Y+350621D01*
X+3520552Y+350621D01*
X+3450621Y+420552D01*
X+3450621Y+519448D01*
X+3520552Y+589379D01*
X+3619448Y+589379D01*
X+3623881Y+584945D01*
X+3674451Y+635515D01*
X+4027697Y+635515D01*
X+3957921Y+705291D01*
X+3957921Y+814709D01*
X+4035291Y+892079D01*
X+4046821Y+892079D01*
X+4046821Y+1211749D01*
X+3475187Y+1783382D01*
X+3451913Y+1760108D01*
X+3451913Y+1014155D01*
X+3344734Y+906976D01*
X+3344734Y+871055D01*
X+3304561Y+830882D01*
X+3247749Y+830882D01*
X+3207576Y+871055D01*
X+3207576Y+927867D01*
X+3247749Y+968040D01*
X+3283670Y+968040D01*
X+3365555Y+1049925D01*
X+3365555Y+1760108D01*
X+3340155Y+1785508D01*
X+3340155Y+1842320D01*
X+3378202Y+1880367D01*
X+2941070Y+2317500D01*
X+2941070Y+3325475D01*
X+2915670Y+3350875D01*
X+2915670Y+3407687D01*
X+2955843Y+3447860D01*
X+3012655Y+3447860D01*
X+3038055Y+3422460D01*
X+4042465Y+3422460D01*
X+4074999Y+3454994D01*
X+4074999Y+3490915D01*
X+4115172Y+3531088D01*
X+4171984Y+3531088D01*
X+4212157Y+3490915D01*
G37*
G36*
X+5467379Y+519448D02*
X+5467379Y+420552D01*
X+5397448Y+350621D01*
X+5298552Y+350621D01*
X+5228621Y+420552D01*
X+5228621Y+519448D01*
X+5298552Y+589379D01*
X+5397448Y+589379D01*
X+5467379Y+519448D01*
G37*
G36*
X+4451379Y+519448D02*
X+4451379Y+420552D01*
X+4381448Y+350621D01*
X+4282552Y+350621D01*
X+4212621Y+420552D01*
X+4212621Y+519448D01*
X+4282552Y+589379D01*
X+4381448Y+589379D01*
X+4451379Y+519448D01*
G37*
G36*
X+3435379Y+519448D02*
X+3435379Y+420552D01*
X+3365448Y+350621D01*
X+3266552Y+350621D01*
X+3196621Y+420552D01*
X+3196621Y+519448D01*
X+3266552Y+589379D01*
X+3365448Y+589379D01*
X+3435379Y+519448D01*
G37*
G36*
X+3181379Y+519448D02*
X+3181379Y+420552D01*
X+3111448Y+350621D01*
X+3012552Y+350621D01*
X+2942621Y+420552D01*
X+2942621Y+519448D01*
X+3012552Y+589379D01*
X+3111448Y+589379D01*
X+3181379Y+519448D01*
G37*
G36*
X+2927379Y+519448D02*
X+2927379Y+420552D01*
X+2857448Y+350621D01*
X+2758552Y+350621D01*
X+2688621Y+420552D01*
X+2688621Y+519448D01*
X+2758552Y+589379D01*
X+2857448Y+589379D01*
X+2927379Y+519448D01*
G37*
G36*
X+2673379Y+519448D02*
X+2673379Y+420552D01*
X+2603448Y+350621D01*
X+2504552Y+350621D01*
X+2434621Y+420552D01*
X+2434621Y+519448D01*
X+2504552Y+589379D01*
X+2603448Y+589379D01*
X+2673379Y+519448D01*
G37*
G36*
X+7499379Y+265448D02*
X+7499379Y+166552D01*
X+7429448Y+96621D01*
X+7330552Y+96621D01*
X+7260621Y+166552D01*
X+7260621Y+265448D01*
X+7330552Y+335379D01*
X+7429448Y+335379D01*
X+7499379Y+265448D01*
G37*
G36*
X+7200479Y+3965762D02*
X+7200479Y+3874238D01*
X+7135762Y+3809521D01*
X+7044238Y+3809521D01*
X+6979521Y+3874238D01*
X+6979521Y+3965762D01*
X+7044238Y+4030479D01*
X+7135762Y+4030479D01*
X+7200479Y+3965762D01*
G37*
G36*
X+6710479Y+3965762D02*
X+6710479Y+3874238D01*
X+6645762Y+3809521D01*
X+6554238Y+3809521D01*
X+6489521Y+3874238D01*
X+6489521Y+3965762D01*
X+6554238Y+4030479D01*
X+6645762Y+4030479D01*
X+6710479Y+3965762D01*
G37*
G36*
X+637921Y+1065291D02*
X+637921Y+1174709D01*
X+715291Y+1252079D01*
X+824709Y+1252079D01*
X+902079Y+1174709D01*
X+902079Y+1065291D01*
X+824709Y+987921D01*
X+715291Y+987921D01*
X+637921Y+1065291D01*
G37*
G36*
X+480531Y+1809469D02*
X+458739Y+1809469D01*
X+492979Y+1775229D01*
X+492979Y+1714771D01*
X+460708Y+1682500D01*
X+492979Y+1650229D01*
X+492979Y+1589771D01*
X+450229Y+1547021D01*
X+389771Y+1547021D01*
X+347021Y+1589771D01*
X+347021Y+1650229D01*
X+379292Y+1682500D01*
X+347021Y+1714771D01*
X+347021Y+1775229D01*
X+381261Y+1809469D01*
X+359469Y+1809469D01*
X+359469Y+1930531D01*
X+480531Y+1930531D01*
X+480531Y+1809469D01*
G37*
G36*
X+1710499Y+2241583D02*
X+1710499Y+2184771D01*
X+1685099Y+2159371D01*
X+1685099Y+672938D01*
X+1590817Y+578656D01*
X+1590817Y+542735D01*
X+1550644Y+502562D01*
X+1493832Y+502562D01*
X+1453659Y+542735D01*
X+1453659Y+599547D01*
X+1493832Y+639720D01*
X+1529753Y+639720D01*
X+1598741Y+708708D01*
X+1598741Y+2159371D01*
X+1587935Y+2170176D01*
X+902079Y+2173575D01*
X+902079Y+2065291D01*
X+824709Y+1987921D01*
X+715291Y+1987921D01*
X+637921Y+2065291D01*
X+637921Y+2174709D01*
X+715291Y+2252079D01*
X+824709Y+2252079D01*
X+832862Y+2243926D01*
X+849132Y+2260196D01*
X+1588451Y+2256693D01*
X+1613514Y+2281756D01*
X+1670326Y+2281756D01*
X+1710499Y+2241583D01*
G37*
G36*
X+2837921Y+715291D02*
X+2837921Y+824709D01*
X+2915291Y+902079D01*
X+3024709Y+902079D01*
X+3102079Y+824709D01*
X+3102079Y+715291D01*
X+3024709Y+637921D01*
X+2915291Y+637921D01*
X+2837921Y+715291D01*
G37*
G36*
X+3937921Y+2465291D02*
X+3937921Y+2574709D01*
X+4015291Y+2652079D01*
X+4124709Y+2652079D01*
X+4202079Y+2574709D01*
X+4202079Y+2465291D01*
X+4124709Y+2387921D01*
X+4015291Y+2387921D01*
X+3937921Y+2465291D01*
G37*
G36*
X+1502079Y+4874709D02*
X+1502079Y+4765291D01*
X+1424709Y+4687921D01*
X+1322147Y+4687921D01*
X+916234Y+4282008D01*
X+916234Y+3885862D01*
X+1326821Y+4296448D01*
X+1326821Y+4387921D01*
X+1315291Y+4387921D01*
X+1237921Y+4465291D01*
X+1237921Y+4574709D01*
X+1315291Y+4652079D01*
X+1424709Y+4652079D01*
X+1502079Y+4574709D01*
X+1502079Y+4465291D01*
X+1424709Y+4387921D01*
X+1413179Y+4387921D01*
X+1413179Y+4323844D01*
X+1436392Y+4347057D01*
X+1493204Y+4347057D01*
X+1533377Y+4306884D01*
X+1533377Y+4250072D01*
X+1493204Y+4209899D01*
X+1436392Y+4209899D01*
X+1410907Y+4235384D01*
X+1387884Y+4235384D01*
X+1033897Y+3881397D01*
X+1033897Y+2724035D01*
X+1048595Y+2709337D01*
X+1048595Y+2652525D01*
X+1008422Y+2612352D01*
X+951610Y+2612352D01*
X+916235Y+2647727D01*
X+916235Y+2615171D01*
X+908579Y+2607515D01*
X+908579Y+2571594D01*
X+868406Y+2531421D01*
X+811594Y+2531421D01*
X+771421Y+2571594D01*
X+771421Y+2628406D01*
X+811594Y+2668579D01*
X+829877Y+2668579D01*
X+829877Y+3551601D01*
X+804477Y+3577001D01*
X+804477Y+3633813D01*
X+829877Y+3659213D01*
X+829878Y+4317780D01*
X+1257655Y+4745557D01*
X+1237921Y+4765291D01*
X+1237921Y+4874709D01*
X+1315291Y+4952079D01*
X+1424709Y+4952079D01*
X+1502079Y+4874709D01*
G37*
G36*
X+837921Y+4715291D02*
X+837921Y+4824709D01*
X+915291Y+4902079D01*
X+1024709Y+4902079D01*
X+1102079Y+4824709D01*
X+1102079Y+4715291D01*
X+1024709Y+4637921D01*
X+915291Y+4637921D01*
X+837921Y+4715291D01*
G37*
G36*
X+218989Y+3077979D02*
X+325011Y+3077979D01*
X+399979Y+3003011D01*
X+399979Y+2896989D01*
X+325011Y+2822021D01*
X+218989Y+2822021D01*
X+144021Y+2896989D01*
X+144021Y+3003011D01*
X+218989Y+3077979D01*
G37*
G36*
X+218989Y+2417979D02*
X+325011Y+2417979D01*
X+399979Y+2343011D01*
X+399979Y+2236989D01*
X+325011Y+2162021D01*
X+218989Y+2162021D01*
X+144021Y+2236989D01*
X+144021Y+2343011D01*
X+218989Y+2417979D01*
G37*
G36*
X+4403250Y+2717349D02*
X+4403250Y+2743651D01*
X+4421849Y+2762250D01*
X+4448151Y+2762250D01*
X+4466750Y+2743651D01*
X+4466750Y+2717349D01*
X+4448151Y+2698750D01*
X+4421849Y+2698750D01*
X+4403250Y+2717349D01*
G37*
G36*
X+5673250Y+3606349D02*
X+5673250Y+3632651D01*
X+5691849Y+3651250D01*
X+5718151Y+3651250D01*
X+5736750Y+3632651D01*
X+5736750Y+3606349D01*
X+5718151Y+3587750D01*
X+5691849Y+3587750D01*
X+5673250Y+3606349D01*
G37*
G36*
X+4593750Y+3606349D02*
X+4593750Y+3632651D01*
X+4612349Y+3651250D01*
X+4638651Y+3651250D01*
X+4657250Y+3632651D01*
X+4657250Y+3606349D01*
X+4638651Y+3587750D01*
X+4612349Y+3587750D01*
X+4593750Y+3606349D01*
G37*
G36*
X+5673250Y+3288849D02*
X+5673250Y+3315151D01*
X+5691849Y+3333750D01*
X+5718151Y+3333750D01*
X+5736750Y+3315151D01*
X+5736750Y+3288849D01*
X+5718151Y+3270250D01*
X+5691849Y+3270250D01*
X+5673250Y+3288849D01*
G37*
G36*
X+466250Y+4368349D02*
X+466250Y+4394651D01*
X+484849Y+4413250D01*
X+511151Y+4413250D01*
X+529750Y+4394651D01*
X+529750Y+4368349D01*
X+511151Y+4349750D01*
X+484849Y+4349750D01*
X+466250Y+4368349D01*
G37*
G36*
X+656750Y+3034849D02*
X+656750Y+3061151D01*
X+675349Y+3079750D01*
X+701651Y+3079750D01*
X+720250Y+3061151D01*
X+720250Y+3034849D01*
X+701651Y+3016250D01*
X+675349Y+3016250D01*
X+656750Y+3034849D01*
G37*
G36*
X+593250Y+3415849D02*
X+593250Y+3442151D01*
X+611849Y+3460750D01*
X+638151Y+3460750D01*
X+656750Y+3442151D01*
X+656750Y+3415849D01*
X+638151Y+3397250D01*
X+611849Y+3397250D01*
X+593250Y+3415849D01*
G37*
G36*
X+2998250Y+3656849D02*
X+2998250Y+3683151D01*
X+3016849Y+3701750D01*
X+3043151Y+3701750D01*
X+3061750Y+3683151D01*
X+3061750Y+3656849D01*
X+3043151Y+3638250D01*
X+3016849Y+3638250D01*
X+2998250Y+3656849D01*
G37*
%LPD*%
D10*
X+2984249Y+3379281D02*
X+2984249Y+2335385D01*
X+4090000Y+1229634D01*
X+4090000Y+760000D01*
X+5920000Y+770000D02*
X+6086000Y+770000D01*
X+6086000Y+635000D01*
X+5768500Y+2540000D02*
X+6403500Y+1905000D01*
X+6403500Y+698500D01*
X+6340000Y+635000D01*
X+6086000Y+635000D01*
X+5170000Y+770000D02*
X+4752500Y+1187500D01*
X+4752500Y+2667000D01*
X+5197000Y+3111500D01*
X+5133500Y+2032000D02*
X+5133500Y+2222500D01*
X+5070000Y+2286000D01*
X+4943000Y+2286000D01*
X+6220000Y+770000D02*
X+6118400Y+871600D01*
X+4868043Y+2121957D01*
X+4868043Y+2468485D01*
X+5620000Y+770000D02*
X+4797571Y+1592429D01*
X+4797571Y+2521571D01*
X+4879500Y+2603500D01*
X+5006500Y+2603500D01*
X+5070000Y+2540000D01*
X+5070000Y+2413000D01*
X+1641920Y+2213177D02*
X+1641920Y+690823D01*
X+1522238Y+571141D01*
X+770000Y+2120000D02*
X+866930Y+2216930D01*
X+1641920Y+2213177D01*
X+5070000Y+3810000D02*
X+5070000Y+4064000D01*
X+5006500Y+4127500D01*
X+4816000Y+4127500D01*
X+4689000Y+4000500D01*
X+2593500Y+4000500D01*
X+2530000Y+4064000D01*
X+2554000Y+470000D02*
X+2681000Y+343000D01*
X+3189000Y+343000D01*
X+3316000Y+216000D01*
X+625000Y+2476500D02*
X+625000Y+1825000D01*
X+420000Y+1620000D01*
X+625000Y+2476500D02*
X+1577500Y+2476500D01*
X+1768000Y+2286000D01*
X+4332000Y+470000D02*
X+4459000Y+343000D01*
X+4967000Y+343000D01*
X+5094000Y+216000D01*
X+1895000Y+3365500D02*
X+1895000Y+2413000D01*
X+1768000Y+2286000D01*
X+6364000Y+470000D02*
X+6237000Y+343000D01*
X+5983000Y+343000D01*
X+5856000Y+216000D01*
X+625000Y+3429000D02*
X+498000Y+3556000D01*
X+498000Y+4381500D01*
X+2212500Y+3365500D02*
X+2212500Y+3746500D01*
X+2530000Y+4064000D01*
X+2720500Y+1524000D02*
X+2212500Y+1524000D01*
X+2149000Y+1587500D01*
X+1820000Y+1587500D01*
X+5070000Y+3810000D02*
X+4816000Y+3810000D01*
X+4625500Y+3619500D01*
X+498000Y+4381500D02*
X+620000Y+4503500D01*
X+620000Y+4770000D01*
X+1820000Y+1587500D02*
X+1820000Y+2234000D01*
X+1768000Y+2286000D01*
X+625000Y+3429000D02*
X+625000Y+3238500D01*
X+688500Y+3175000D01*
X+688500Y+3048000D01*
X+4625500Y+3619500D02*
X+4625500Y+2921000D01*
X+4435000Y+2730500D01*
X+5705000Y+3302000D02*
X+5705000Y+3619500D01*
X+5070000Y+3810000D02*
X+5133500Y+3746500D01*
X+5705000Y+3746500D01*
X+688500Y+3048000D02*
X+688500Y+2540000D01*
X+625000Y+2476500D01*
X+2544000Y+4566000D02*
X+2544000Y+4820000D01*
X+5705000Y+3746500D02*
X+5705000Y+3619500D01*
X+2544000Y+4566000D02*
X+2544000Y+4254500D01*
X+2530000Y+4240500D01*
X+2530000Y+4064000D01*
X+6920000Y+770000D02*
X+6920000Y+2944250D01*
X+6848000Y+3016250D01*
X+5292250Y+3016250D01*
X+5197000Y+2921000D01*
X+5197000Y+2349500D01*
X+5260500Y+2286000D01*
X+7220000Y+770000D02*
X+7220000Y+2785000D01*
X+7229000Y+2794000D01*
X+3276155Y+899461D02*
X+3408734Y+1032040D01*
X+3408734Y+1813914D01*
X+6620000Y+770000D02*
X+6620000Y+2831500D01*
X+6530500Y+2921000D01*
X+5324000Y+2921000D01*
X+1370000Y+4820000D02*
X+1291562Y+4718400D01*
X+873056Y+4299894D01*
X+873056Y+3605407D01*
X+873056Y+2633056D01*
X+840000Y+2600000D01*
X+990718Y+3899282D02*
X+1370000Y+4278563D01*
X+941637Y+3787630D02*
X+941637Y+3850201D01*
X+990718Y+3899282D01*
X+980016Y+2680931D02*
X+990718Y+2691633D01*
X+990718Y+3899282D01*
X+1370000Y+4278563D02*
X+1370000Y+4520000D01*
X+1464798Y+4278478D02*
X+1464713Y+4278563D01*
X+1370000Y+4278563D01*
X+3030000Y+3670000D02*
X+2517000Y+3670000D01*
X+2212500Y+3365500D01*
X+1895000Y+3365500D01*
X+4603000Y+487000D02*
X+4586000Y+470000D01*
X+4270000Y+1370000D02*
X+3590000Y+2050000D01*
X+3590000Y+2403014D01*
X+3295895Y+2953362D02*
X+4590000Y+1659257D01*
X+4590000Y+750000D01*
X+3893140Y+3033656D02*
X+3679418Y+3247378D01*
X+3251974Y+3247378D01*
X+3227314Y+3222718D01*
X+3227314Y+2922686D01*
X+3817219Y+2332781D01*
X+3817219Y+2150000D01*
X+4603000Y+487000D02*
X+4603000Y+507000D01*
X+5133500Y+2032000D02*
X+5245443Y+1920057D01*
X+5273706Y+1920057D01*
X+4870000Y+770000D02*
X+4870000Y+952500D01*
X+4700000Y+1122500D01*
X+4700000Y+3186000D01*
X+4752500Y+3238500D01*
X+5324000Y+3238500D01*
X+4308000Y+3429000D02*
X+4318000Y+3429000D01*
X+4318000Y+2540000D01*
X+4620000Y+2238000D01*
X+4620000Y+918500D01*
X+4720000Y+818500D01*
X+4720000Y+604000D01*
X+4603000Y+487000D01*
X+3817219Y+2150000D02*
X+4123049Y+1844170D01*
X+4123049Y+1729526D01*
X+4409422Y+1443153D01*
X+4409422Y+887009D01*
X+4114749Y+592336D01*
X+3692336Y+592336D01*
X+3570000Y+470000D01*
X+5920000Y+770000D02*
X+5920000Y+635000D01*
X+5856000Y+635000D01*
X+5856000Y+470000D01*
X+5170000Y+770000D02*
X+5170000Y+635000D01*
X+5094000Y+635000D01*
X+5094000Y+470000D01*
X+5620000Y+770000D02*
X+5630000Y+770000D01*
X+5630000Y+635000D01*
X+5602000Y+607000D01*
X+5602000Y+470000D01*
X+7370000Y+4566000D02*
X+7380000Y+4566000D01*
X+7380000Y+470000D01*
X+7126000Y+216000D02*
X+6992750Y+82750D01*
X+1307250Y+82750D01*
X+1120000Y+270000D01*
X+4870000Y+770000D02*
X+4880000Y+770000D01*
X+4880000Y+635000D01*
X+4840000Y+595000D01*
X+4840000Y+470000D01*
X+7126000Y+470000D02*
X+7209798Y+553798D01*
X+7209798Y+668400D01*
X+7209798Y+770000D01*
X+7220000Y+770000D01*
X+6872000Y+470000D02*
X+6910000Y+508000D01*
X+6910000Y+668400D01*
X+6910000Y+770000D01*
X+6920000Y+770000D01*
X+6620000Y+770000D02*
X+6610000Y+770000D01*
X+6610000Y+478000D01*
X+6618000Y+470000D01*
X+2554000Y+470000D02*
X+2554000Y+635000D01*
X+2720500Y+635000D01*
X+2984249Y+3379281D02*
X+4060350Y+3379281D01*
X+4143578Y+3462509D01*
D11*
X+5768500Y+2540000D03*
X+5197000Y+3111500D03*
X+4943000Y+2286000D03*
X+4868043Y+2468485D03*
X+5070000Y+2413000D03*
X+1522238Y+571141D03*
X+1641920Y+2213177D03*
X+4435000Y+2730500D03*
X+5705000Y+3619500D03*
X+4625500Y+3619500D03*
X+5705000Y+3302000D03*
X+498000Y+4381500D03*
X+688500Y+3048000D03*
X+625000Y+3429000D03*
X+5260500Y+2286000D03*
X+7229000Y+2794000D03*
X+3408734Y+1813914D03*
X+3276155Y+899461D03*
X+5324000Y+2921000D03*
X+840000Y+2600000D03*
X+873056Y+3605407D03*
X+980016Y+2680931D03*
X+941637Y+3787630D03*
X+1464798Y+4278478D03*
X+3030000Y+3670000D03*
X+3590000Y+2403014D03*
X+3295895Y+2953362D03*
X+3893140Y+3033656D03*
X+3817219Y+2150000D03*
X+5273706Y+1920057D03*
X+5324000Y+3238500D03*
X+4308000Y+3429000D03*
X+2984249Y+3379281D03*
X+4143578Y+3462509D03*
D10*
X+9490000Y+4500000D02*
X+9930120Y+4500000D01*
X+9930120Y+550000D01*
X+9490000Y+550000D01*
X+9490000Y+68880D01*
X+7039944Y+68880D01*
X+7072118Y+101054D01*
X+7076552Y+96621D01*
X+7175448Y+96621D01*
X+7245379Y+166552D01*
X+7245379Y+265448D01*
X+7175448Y+335379D01*
X+7076552Y+335379D01*
X+7006621Y+265448D01*
X+7006621Y+166552D01*
X+7011054Y+162118D01*
X+6974865Y+125929D01*
X+6950756Y+125929D01*
X+6991379Y+166552D01*
X+6991379Y+265448D01*
X+6921448Y+335379D01*
X+6822552Y+335379D01*
X+6752621Y+265448D01*
X+6752621Y+166552D01*
X+6793244Y+125929D01*
X+6696756Y+125929D01*
X+6737379Y+166552D01*
X+6737379Y+265448D01*
X+6667448Y+335379D01*
X+6568552Y+335379D01*
X+6498621Y+265448D01*
X+6498621Y+166552D01*
X+6539244Y+125929D01*
X+6442756Y+125929D01*
X+6483379Y+166552D01*
X+6483379Y+265448D01*
X+6413448Y+335379D01*
X+6314552Y+335379D01*
X+6244621Y+265448D01*
X+6244621Y+166552D01*
X+6285244Y+125929D01*
X+6188756Y+125929D01*
X+6229379Y+166552D01*
X+6229379Y+265448D01*
X+6159448Y+335379D01*
X+6060552Y+335379D01*
X+5990621Y+265448D01*
X+5990621Y+166552D01*
X+6031244Y+125929D01*
X+5934756Y+125929D01*
X+5975379Y+166552D01*
X+5975379Y+265448D01*
X+5905448Y+335379D01*
X+5806552Y+335379D01*
X+5736621Y+265448D01*
X+5736621Y+166552D01*
X+5777244Y+125929D01*
X+5680756Y+125929D01*
X+5721379Y+166552D01*
X+5721379Y+265448D01*
X+5651448Y+335379D01*
X+5552552Y+335379D01*
X+5482621Y+265448D01*
X+5482621Y+166552D01*
X+5523244Y+125929D01*
X+5426756Y+125929D01*
X+5467379Y+166552D01*
X+5467379Y+265448D01*
X+5397448Y+335379D01*
X+5298552Y+335379D01*
X+5228621Y+265448D01*
X+5228621Y+166552D01*
X+5269244Y+125929D01*
X+5172756Y+125929D01*
X+5213379Y+166552D01*
X+5213379Y+265448D01*
X+5143448Y+335379D01*
X+5044552Y+335379D01*
X+4974621Y+265448D01*
X+4974621Y+166552D01*
X+5015244Y+125929D01*
X+4918756Y+125929D01*
X+4959379Y+166552D01*
X+4959379Y+265448D01*
X+4889448Y+335379D01*
X+4790552Y+335379D01*
X+4720621Y+265448D01*
X+4720621Y+166552D01*
X+4761244Y+125929D01*
X+4664756Y+125929D01*
X+4705379Y+166552D01*
X+4705379Y+265448D01*
X+4635448Y+335379D01*
X+4536552Y+335379D01*
X+4466621Y+265448D01*
X+4466621Y+166552D01*
X+4507244Y+125929D01*
X+4410756Y+125929D01*
X+4451379Y+166552D01*
X+4451379Y+265448D01*
X+4381448Y+335379D01*
X+4282552Y+335379D01*
X+4212621Y+265448D01*
X+4212621Y+166552D01*
X+4253244Y+125929D01*
X+4156756Y+125929D01*
X+4197379Y+166552D01*
X+4197379Y+265448D01*
X+4127448Y+335379D01*
X+4028552Y+335379D01*
X+3958621Y+265448D01*
X+3958621Y+166552D01*
X+3999244Y+125929D01*
X+3902756Y+125929D01*
X+3943379Y+166552D01*
X+3943379Y+265448D01*
X+3873448Y+335379D01*
X+3774552Y+335379D01*
X+3704621Y+265448D01*
X+3704621Y+166552D01*
X+3745244Y+125929D01*
X+3648756Y+125929D01*
X+3689379Y+166552D01*
X+3689379Y+265448D01*
X+3619448Y+335379D01*
X+3520552Y+335379D01*
X+3450621Y+265448D01*
X+3450621Y+166552D01*
X+3491244Y+125929D01*
X+3394756Y+125929D01*
X+3435379Y+166552D01*
X+3435379Y+265448D01*
X+3365448Y+335379D01*
X+3266552Y+335379D01*
X+3196621Y+265448D01*
X+3196621Y+166552D01*
X+3237244Y+125929D01*
X+3140756Y+125929D01*
X+3181379Y+166552D01*
X+3181379Y+265448D01*
X+3111448Y+335379D01*
X+3012552Y+335379D01*
X+2942621Y+265448D01*
X+2942621Y+166552D01*
X+2983244Y+125929D01*
X+2886756Y+125929D01*
X+2927379Y+166552D01*
X+2927379Y+265448D01*
X+2857448Y+335379D01*
X+2758552Y+335379D01*
X+2688621Y+265448D01*
X+2688621Y+166552D01*
X+2729244Y+125929D01*
X+2632756Y+125929D01*
X+2673379Y+166552D01*
X+2673379Y+265448D01*
X+2603448Y+335379D01*
X+2504552Y+335379D01*
X+2434621Y+265448D01*
X+2434621Y+166552D01*
X+2475244Y+125929D01*
X+1325135Y+125929D01*
X+1291543Y+159521D01*
X+1365762Y+159521D01*
X+1420000Y+213759D01*
X+1474238Y+159521D01*
X+1565762Y+159521D01*
X+1603787Y+197546D01*
X+1671812Y+129521D01*
X+1788188Y+129521D01*
X+1870479Y+211812D01*
X+1870479Y+328188D01*
X+1788188Y+410479D01*
X+1671812Y+410479D01*
X+1603787Y+342454D01*
X+1565762Y+380479D01*
X+1474238Y+380479D01*
X+1420000Y+326241D01*
X+1365762Y+380479D01*
X+1274238Y+380479D01*
X+1220000Y+326241D01*
X+1165762Y+380479D01*
X+1074238Y+380479D01*
X+1036213Y+342454D01*
X+968188Y+410479D01*
X+851812Y+410479D01*
X+769521Y+328188D01*
X+769521Y+211812D01*
X+851812Y+129521D01*
X+968188Y+129521D01*
X+1036213Y+197546D01*
X+1074238Y+159521D01*
X+1165762Y+159521D01*
X+1167588Y+161347D01*
X+1260056Y+68880D01*
X+490000Y+68880D01*
X+490000Y+500000D01*
X+41880Y+500000D01*
X+41880Y+2150000D01*
X+140000Y+2150000D01*
X+140000Y+3000000D01*
X+41880Y+3000000D01*
X+41880Y+3300000D01*
X+90000Y+3300000D01*
X+90000Y+3350000D01*
X+490000Y+3350000D01*
X+490000Y+4100000D01*
X+90000Y+4100000D01*
X+90000Y+4150000D01*
X+41880Y+4150000D01*
X+41880Y+4500000D01*
X+490000Y+4500000D01*
X+490000Y+4713212D01*
X+565291Y+4637921D01*
X+674709Y+4637921D01*
X+752079Y+4715291D01*
X+752079Y+4824709D01*
X+674709Y+4902079D01*
X+565291Y+4902079D01*
X+490000Y+4826788D01*
X+490000Y+4957120D01*
X+9490000Y+4957120D01*
X+9490000Y+4500000D01*
X+7489379Y+4700621D02*
X+7250621Y+4700621D01*
X+7250621Y+4939379D01*
X+7489379Y+4939379D01*
X+7489379Y+4700621D01*
X+7235379Y+4869448D02*
X+7235379Y+4770552D01*
X+7165448Y+4700621D01*
X+7066552Y+4700621D01*
X+6996621Y+4770552D01*
X+6996621Y+4869448D01*
X+7066552Y+4939379D01*
X+7165448Y+4939379D01*
X+7235379Y+4869448D01*
X+6981379Y+4869448D02*
X+6981379Y+4770552D01*
X+6911448Y+4700621D01*
X+6812552Y+4700621D01*
X+6742621Y+4770552D01*
X+6742621Y+4869448D01*
X+6812552Y+4939379D01*
X+6911448Y+4939379D01*
X+6981379Y+4869448D01*
X+6727379Y+4869448D02*
X+6727379Y+4770552D01*
X+6657448Y+4700621D01*
X+6558552Y+4700621D01*
X+6488621Y+4770552D01*
X+6488621Y+4869448D01*
X+6558552Y+4939379D01*
X+6657448Y+4939379D01*
X+6727379Y+4869448D01*
X+6473379Y+4869448D02*
X+6473379Y+4770552D01*
X+6403448Y+4700621D01*
X+6304552Y+4700621D01*
X+6234621Y+4770552D01*
X+6234621Y+4869448D01*
X+6304552Y+4939379D01*
X+6403448Y+4939379D01*
X+6473379Y+4869448D01*
X+6219379Y+4869448D02*
X+6219379Y+4770552D01*
X+6149448Y+4700621D01*
X+6050552Y+4700621D01*
X+5980621Y+4770552D01*
X+5980621Y+4869448D01*
X+6050552Y+4939379D01*
X+6149448Y+4939379D01*
X+6219379Y+4869448D01*
X+5965379Y+4869448D02*
X+5965379Y+4770552D01*
X+5895448Y+4700621D01*
X+5796552Y+4700621D01*
X+5726621Y+4770552D01*
X+5726621Y+4869448D01*
X+5796552Y+4939379D01*
X+5895448Y+4939379D01*
X+5965379Y+4869448D01*
X+5711379Y+4869448D02*
X+5711379Y+4770552D01*
X+5641448Y+4700621D01*
X+5542552Y+4700621D01*
X+5472621Y+4770552D01*
X+5472621Y+4869448D01*
X+5542552Y+4939379D01*
X+5641448Y+4939379D01*
X+5711379Y+4869448D01*
X+5457379Y+4869448D02*
X+5457379Y+4770552D01*
X+5387448Y+4700621D01*
X+5288552Y+4700621D01*
X+5218621Y+4770552D01*
X+5218621Y+4869448D01*
X+5288552Y+4939379D01*
X+5387448Y+4939379D01*
X+5457379Y+4869448D01*
X+5203379Y+4869448D02*
X+5203379Y+4770552D01*
X+5133448Y+4700621D01*
X+5034552Y+4700621D01*
X+4964621Y+4770552D01*
X+4964621Y+4869448D01*
X+5034552Y+4939379D01*
X+5133448Y+4939379D01*
X+5203379Y+4869448D01*
X+4949379Y+4869448D02*
X+4949379Y+4770552D01*
X+4879448Y+4700621D01*
X+4780552Y+4700621D01*
X+4710621Y+4770552D01*
X+4710621Y+4869448D01*
X+4780552Y+4939379D01*
X+4879448Y+4939379D01*
X+4949379Y+4869448D01*
X+4695379Y+4869448D02*
X+4695379Y+4770552D01*
X+4625448Y+4700621D01*
X+4526552Y+4700621D01*
X+4456621Y+4770552D01*
X+4456621Y+4869448D01*
X+4526552Y+4939379D01*
X+4625448Y+4939379D01*
X+4695379Y+4869448D01*
X+4441379Y+4869448D02*
X+4441379Y+4770552D01*
X+4371448Y+4700621D01*
X+4272552Y+4700621D01*
X+4202621Y+4770552D01*
X+4202621Y+4869448D01*
X+4272552Y+4939379D01*
X+4371448Y+4939379D01*
X+4441379Y+4869448D01*
X+4187379Y+4869448D02*
X+4187379Y+4770552D01*
X+4117448Y+4700621D01*
X+4018552Y+4700621D01*
X+3948621Y+4770552D01*
X+3948621Y+4869448D01*
X+4018552Y+4939379D01*
X+4117448Y+4939379D01*
X+4187379Y+4869448D01*
X+3933379Y+4869448D02*
X+3933379Y+4770552D01*
X+3863448Y+4700621D01*
X+3764552Y+4700621D01*
X+3694621Y+4770552D01*
X+3694621Y+4869448D01*
X+3764552Y+4939379D01*
X+3863448Y+4939379D01*
X+3933379Y+4869448D01*
X+3679379Y+4869448D02*
X+3679379Y+4770552D01*
X+3609448Y+4700621D01*
X+3510552Y+4700621D01*
X+3440621Y+4770552D01*
X+3440621Y+4869448D01*
X+3510552Y+4939379D01*
X+3609448Y+4939379D01*
X+3679379Y+4869448D01*
X+3425379Y+4869448D02*
X+3425379Y+4770552D01*
X+3355448Y+4700621D01*
X+3256552Y+4700621D01*
X+3186621Y+4770552D01*
X+3186621Y+4869448D01*
X+3256552Y+4939379D01*
X+3355448Y+4939379D01*
X+3425379Y+4869448D01*
X+3171379Y+4869448D02*
X+3171379Y+4770552D01*
X+3101448Y+4700621D01*
X+3002552Y+4700621D01*
X+2932621Y+4770552D01*
X+2932621Y+4869448D01*
X+3002552Y+4939379D01*
X+3101448Y+4939379D01*
X+3171379Y+4869448D01*
X+2917379Y+4869448D02*
X+2917379Y+4770552D01*
X+2847448Y+4700621D01*
X+2748552Y+4700621D01*
X+2678621Y+4770552D01*
X+2678621Y+4869448D01*
X+2748552Y+4939379D01*
X+2847448Y+4939379D01*
X+2917379Y+4869448D01*
X+2663379Y+4869448D02*
X+2663379Y+4770552D01*
X+2593448Y+4700621D01*
X+2494552Y+4700621D01*
X+2424621Y+4770552D01*
X+2424621Y+4869448D01*
X+2494552Y+4939379D01*
X+2593448Y+4939379D01*
X+2663379Y+4869448D01*
X+2663379Y+4615448D02*
X+2663379Y+4516552D01*
X+2593448Y+4446621D01*
X+2494552Y+4446621D01*
X+2424621Y+4516552D01*
X+2424621Y+4615448D01*
X+2494552Y+4685379D01*
X+2593448Y+4685379D01*
X+2663379Y+4615448D01*
X+2917379Y+4615448D02*
X+2917379Y+4516552D01*
X+2847448Y+4446621D01*
X+2748552Y+4446621D01*
X+2678621Y+4516552D01*
X+2678621Y+4615448D01*
X+2748552Y+4685379D01*
X+2847448Y+4685379D01*
X+2917379Y+4615448D01*
X+3171379Y+4615448D02*
X+3171379Y+4516552D01*
X+3101448Y+4446621D01*
X+3002552Y+4446621D01*
X+2932621Y+4516552D01*
X+2932621Y+4615448D01*
X+3002552Y+4685379D01*
X+3101448Y+4685379D01*
X+3171379Y+4615448D01*
X+3425379Y+4615448D02*
X+3425379Y+4516552D01*
X+3355448Y+4446621D01*
X+3256552Y+4446621D01*
X+3186621Y+4516552D01*
X+3186621Y+4615448D01*
X+3256552Y+4685379D01*
X+3355448Y+4685379D01*
X+3425379Y+4615448D01*
X+3679379Y+4615448D02*
X+3679379Y+4516552D01*
X+3609448Y+4446621D01*
X+3510552Y+4446621D01*
X+3440621Y+4516552D01*
X+3440621Y+4615448D01*
X+3510552Y+4685379D01*
X+3609448Y+4685379D01*
X+3679379Y+4615448D01*
X+3933379Y+4615448D02*
X+3933379Y+4516552D01*
X+3863448Y+4446621D01*
X+3764552Y+4446621D01*
X+3694621Y+4516552D01*
X+3694621Y+4615448D01*
X+3764552Y+4685379D01*
X+3863448Y+4685379D01*
X+3933379Y+4615448D01*
X+4187379Y+4615448D02*
X+4187379Y+4516552D01*
X+4117448Y+4446621D01*
X+4018552Y+4446621D01*
X+3948621Y+4516552D01*
X+3948621Y+4615448D01*
X+4018552Y+4685379D01*
X+4117448Y+4685379D01*
X+4187379Y+4615448D01*
X+4441379Y+4615448D02*
X+4441379Y+4516552D01*
X+4371448Y+4446621D01*
X+4272552Y+4446621D01*
X+4202621Y+4516552D01*
X+4202621Y+4615448D01*
X+4272552Y+4685379D01*
X+4371448Y+4685379D01*
X+4441379Y+4615448D01*
X+4695379Y+4615448D02*
X+4695379Y+4516552D01*
X+4625448Y+4446621D01*
X+4526552Y+4446621D01*
X+4456621Y+4516552D01*
X+4456621Y+4615448D01*
X+4526552Y+4685379D01*
X+4625448Y+4685379D01*
X+4695379Y+4615448D01*
X+4949379Y+4615448D02*
X+4949379Y+4516552D01*
X+4879448Y+4446621D01*
X+4780552Y+4446621D01*
X+4710621Y+4516552D01*
X+4710621Y+4615448D01*
X+4780552Y+4685379D01*
X+4879448Y+4685379D01*
X+4949379Y+4615448D01*
X+5203379Y+4615448D02*
X+5203379Y+4516552D01*
X+5133448Y+4446621D01*
X+5034552Y+4446621D01*
X+4964621Y+4516552D01*
X+4964621Y+4615448D01*
X+5034552Y+4685379D01*
X+5133448Y+4685379D01*
X+5203379Y+4615448D01*
X+5457379Y+4615448D02*
X+5457379Y+4516552D01*
X+5387448Y+4446621D01*
X+5288552Y+4446621D01*
X+5218621Y+4516552D01*
X+5218621Y+4615448D01*
X+5288552Y+4685379D01*
X+5387448Y+4685379D01*
X+5457379Y+4615448D01*
X+5711379Y+4615448D02*
X+5711379Y+4516552D01*
X+5641448Y+4446621D01*
X+5542552Y+4446621D01*
X+5472621Y+4516552D01*
X+5472621Y+4615448D01*
X+5542552Y+4685379D01*
X+5641448Y+4685379D01*
X+5711379Y+4615448D01*
X+5965379Y+4615448D02*
X+5965379Y+4516552D01*
X+5895448Y+4446621D01*
X+5796552Y+4446621D01*
X+5726621Y+4516552D01*
X+5726621Y+4615448D01*
X+5796552Y+4685379D01*
X+5895448Y+4685379D01*
X+5965379Y+4615448D01*
X+6219379Y+4615448D02*
X+6219379Y+4516552D01*
X+6149448Y+4446621D01*
X+6050552Y+4446621D01*
X+5980621Y+4516552D01*
X+5980621Y+4615448D01*
X+6050552Y+4685379D01*
X+6149448Y+4685379D01*
X+6219379Y+4615448D01*
X+6473379Y+4615448D02*
X+6473379Y+4516552D01*
X+6403448Y+4446621D01*
X+6304552Y+4446621D01*
X+6234621Y+4516552D01*
X+6234621Y+4615448D01*
X+6304552Y+4685379D01*
X+6403448Y+4685379D01*
X+6473379Y+4615448D01*
X+6727379Y+4615448D02*
X+6727379Y+4516552D01*
X+6657448Y+4446621D01*
X+6558552Y+4446621D01*
X+6488621Y+4516552D01*
X+6488621Y+4615448D01*
X+6558552Y+4685379D01*
X+6657448Y+4685379D01*
X+6727379Y+4615448D01*
X+6981379Y+4615448D02*
X+6981379Y+4516552D01*
X+6911448Y+4446621D01*
X+6812552Y+4446621D01*
X+6742621Y+4516552D01*
X+6742621Y+4615448D01*
X+6812552Y+4685379D01*
X+6911448Y+4685379D01*
X+6981379Y+4615448D01*
X+7235379Y+4615448D02*
X+7235379Y+4516552D01*
X+7165448Y+4446621D01*
X+7066552Y+4446621D01*
X+6996621Y+4516552D01*
X+6996621Y+4615448D01*
X+7066552Y+4685379D01*
X+7165448Y+4685379D01*
X+7235379Y+4615448D01*
X+7489379Y+4615448D02*
X+7489379Y+4516552D01*
X+7423179Y+4450352D01*
X+7423179Y+589379D01*
X+7499379Y+589379D01*
X+7499379Y+350621D01*
X+7260621Y+350621D01*
X+7260621Y+589379D01*
X+7336821Y+589379D01*
X+7336821Y+700033D01*
X+7274709Y+637921D01*
X+7252977Y+637921D01*
X+7252977Y+535913D01*
X+7240945Y+523881D01*
X+7245379Y+519448D01*
X+7245379Y+420552D01*
X+7175448Y+350621D01*
X+7076552Y+350621D01*
X+7006621Y+420552D01*
X+7006621Y+519448D01*
X+7076552Y+589379D01*
X+7166619Y+589379D01*
X+7166619Y+637921D01*
X+7165291Y+637921D01*
X+7087921Y+715291D01*
X+7087921Y+824709D01*
X+7165291Y+902079D01*
X+7176821Y+902079D01*
X+7176821Y+2749194D01*
X+7160421Y+2765594D01*
X+7160421Y+2822406D01*
X+7200594Y+2862579D01*
X+7257406Y+2862579D01*
X+7297579Y+2822406D01*
X+7297579Y+2765594D01*
X+7263179Y+2731194D01*
X+7263179Y+902079D01*
X+7274709Y+902079D01*
X+7336821Y+839967D01*
X+7336821Y+4446621D01*
X+7320552Y+4446621D01*
X+7250621Y+4516552D01*
X+7250621Y+4615448D01*
X+7320552Y+4685379D01*
X+7419448Y+4685379D01*
X+7489379Y+4615448D01*
X+6878532Y+3046782D02*
X+6963179Y+2962135D01*
X+6963179Y+902079D01*
X+6974709Y+902079D01*
X+7052079Y+824709D01*
X+7052079Y+715291D01*
X+6974709Y+637921D01*
X+6953179Y+637921D01*
X+6953179Y+557648D01*
X+6991379Y+519448D01*
X+6991379Y+420552D01*
X+6921448Y+350621D01*
X+6822552Y+350621D01*
X+6752621Y+420552D01*
X+6752621Y+519448D01*
X+6822552Y+589379D01*
X+6866821Y+589379D01*
X+6866821Y+637921D01*
X+6865291Y+637921D01*
X+6787921Y+715291D01*
X+6787921Y+824709D01*
X+6865291Y+902079D01*
X+6876821Y+902079D01*
X+6876821Y+2926365D01*
X+6830115Y+2973071D01*
X+5368914Y+2973071D01*
X+5377806Y+2964179D01*
X+6548385Y+2964179D01*
X+6663179Y+2849385D01*
X+6663179Y+902079D01*
X+6674709Y+902079D01*
X+6752079Y+824709D01*
X+6752079Y+715291D01*
X+6674709Y+637921D01*
X+6653179Y+637921D01*
X+6653179Y+589379D01*
X+6667448Y+589379D01*
X+6737379Y+519448D01*
X+6737379Y+420552D01*
X+6667448Y+350621D01*
X+6568552Y+350621D01*
X+6498621Y+420552D01*
X+6498621Y+519448D01*
X+6566821Y+587648D01*
X+6566821Y+637921D01*
X+6565291Y+637921D01*
X+6487921Y+715291D01*
X+6487921Y+824709D01*
X+6565291Y+902079D01*
X+6576821Y+902079D01*
X+6576821Y+2813615D01*
X+6512615Y+2877821D01*
X+5377806Y+2877821D01*
X+5352406Y+2852421D01*
X+5295594Y+2852421D01*
X+5255421Y+2892594D01*
X+5255421Y+2918357D01*
X+5240179Y+2903115D01*
X+5240179Y+2367385D01*
X+5252985Y+2354579D01*
X+5288906Y+2354579D01*
X+5329079Y+2314406D01*
X+5329079Y+2257594D01*
X+5288906Y+2217421D01*
X+5232094Y+2217421D01*
X+5191921Y+2257594D01*
X+5191921Y+2293515D01*
X+5153821Y+2331615D01*
X+5153821Y+2938885D01*
X+5274365Y+3059429D01*
X+6865885Y+3059429D01*
X+6878532Y+3046782D01*
X+6483379Y+519448D02*
X+6483379Y+420552D01*
X+6413448Y+350621D01*
X+6314552Y+350621D01*
X+6244621Y+420552D01*
X+6244621Y+519448D01*
X+6314552Y+589379D01*
X+6413448Y+589379D01*
X+6483379Y+519448D01*
X+6229379Y+519448D02*
X+6229379Y+420552D01*
X+6159448Y+350621D01*
X+6060552Y+350621D01*
X+5990621Y+420552D01*
X+5990621Y+519448D01*
X+6060552Y+589379D01*
X+6159448Y+589379D01*
X+6229379Y+519448D01*
X+4212157Y+3490915D02*
X+4212157Y+3434103D01*
X+4171984Y+3393930D01*
X+4136063Y+3393930D01*
X+4094212Y+3352079D01*
X+4124709Y+3352079D01*
X+4202079Y+3274709D01*
X+4202079Y+3165291D01*
X+4124709Y+3087921D01*
X+4015291Y+3087921D01*
X+3937921Y+3165291D01*
X+3937921Y+3274709D01*
X+3999314Y+3336102D01*
X+3038055Y+3336102D01*
X+3027428Y+3325475D01*
X+3027428Y+2353270D01*
X+4133179Y+1247519D01*
X+4133179Y+892079D01*
X+4144709Y+892079D01*
X+4222079Y+814709D01*
X+4222079Y+760730D01*
X+4366243Y+904894D01*
X+4366243Y+1279455D01*
X+4324709Y+1237921D01*
X+4215291Y+1237921D01*
X+4137921Y+1315291D01*
X+4137921Y+1424709D01*
X+4146074Y+1432862D01*
X+3546821Y+2032115D01*
X+3546821Y+2349208D01*
X+3521421Y+2374608D01*
X+3521421Y+2431420D01*
X+3561594Y+2471593D01*
X+3617343Y+2471593D01*
X+3184135Y+2904801D01*
X+3184135Y+3240603D01*
X+3234089Y+3290557D01*
X+3697303Y+3290557D01*
X+3885625Y+3102235D01*
X+3921546Y+3102235D01*
X+3961719Y+3062062D01*
X+3961719Y+3005250D01*
X+3921546Y+2965077D01*
X+3864734Y+2965077D01*
X+3824561Y+3005250D01*
X+3824561Y+3041171D01*
X+3661533Y+3204199D01*
X+3270493Y+3204199D01*
X+3270493Y+3021941D01*
X+3324301Y+3021941D01*
X+3364474Y+2981768D01*
X+3364474Y+2945847D01*
X+4576821Y+1733500D01*
X+4576821Y+2220115D01*
X+4274821Y+2522115D01*
X+4274821Y+3365194D01*
X+4239421Y+3400594D01*
X+4239421Y+3457406D01*
X+4279594Y+3497579D01*
X+4336406Y+3497579D01*
X+4376579Y+3457406D01*
X+4376579Y+3400594D01*
X+4361179Y+3385194D01*
X+4361179Y+2557885D01*
X+4656821Y+2262243D01*
X+4656821Y+3203885D01*
X+4734615Y+3281679D01*
X+5270194Y+3281679D01*
X+5295594Y+3307079D01*
X+5352406Y+3307079D01*
X+5392579Y+3266906D01*
X+5392579Y+3210094D01*
X+5352406Y+3169921D01*
X+5295594Y+3169921D01*
X+5270194Y+3195321D01*
X+4770385Y+3195321D01*
X+4743179Y+3168115D01*
X+4743179Y+2718743D01*
X+5128421Y+3103985D01*
X+5128421Y+3139906D01*
X+5168594Y+3180079D01*
X+5225406Y+3180079D01*
X+5265579Y+3139906D01*
X+5265579Y+3083094D01*
X+5225406Y+3042921D01*
X+5189485Y+3042921D01*
X+4795679Y+2649115D01*
X+4795679Y+2580743D01*
X+4861615Y+2646679D01*
X+5024385Y+2646679D01*
X+5113179Y+2557885D01*
X+5113179Y+2466806D01*
X+5138579Y+2441406D01*
X+5138579Y+2384594D01*
X+5098406Y+2344421D01*
X+5041594Y+2344421D01*
X+5001421Y+2384594D01*
X+5001421Y+2441406D01*
X+5026821Y+2466806D01*
X+5026821Y+2522115D01*
X+4988615Y+2560321D01*
X+4897385Y+2560321D01*
X+4874128Y+2537064D01*
X+4896449Y+2537064D01*
X+4936622Y+2496891D01*
X+4936622Y+2440079D01*
X+4911222Y+2414679D01*
X+4911222Y+2351207D01*
X+4914594Y+2354579D01*
X+4971406Y+2354579D01*
X+4996806Y+2329179D01*
X+5087885Y+2329179D01*
X+5176679Y+2240385D01*
X+5176679Y+2049885D01*
X+5241614Y+1984950D01*
X+5245300Y+1988636D01*
X+5302112Y+1988636D01*
X+5342285Y+1948463D01*
X+5342285Y+1891651D01*
X+5302112Y+1851478D01*
X+5245300Y+1851478D01*
X+5205127Y+1891651D01*
X+5205127Y+1899309D01*
X+5090321Y+2014115D01*
X+5090321Y+2204615D01*
X+5052115Y+2242821D01*
X+4996806Y+2242821D01*
X+4971406Y+2217421D01*
X+4914594Y+2217421D01*
X+4911222Y+2220793D01*
X+4911222Y+2139842D01*
X+6157138Y+893926D01*
X+6165291Y+902079D01*
X+6274709Y+902079D01*
X+6352079Y+824709D01*
X+6352079Y+715291D01*
X+6314967Y+678179D01*
X+6322115Y+678179D01*
X+6360321Y+716385D01*
X+6360321Y+1887115D01*
X+5776015Y+2471421D01*
X+5740094Y+2471421D01*
X+5699921Y+2511594D01*
X+5699921Y+2568406D01*
X+5740094Y+2608579D01*
X+5796906Y+2608579D01*
X+5837079Y+2568406D01*
X+5837079Y+2532485D01*
X+6446679Y+1922885D01*
X+6446679Y+680615D01*
X+6357885Y+591821D01*
X+6068115Y+591821D01*
X+6042821Y+617115D01*
X+6042821Y+706033D01*
X+5974709Y+637921D01*
X+5963179Y+637921D01*
X+5963179Y+617115D01*
X+5937885Y+591821D01*
X+5899179Y+591821D01*
X+5899179Y+589379D01*
X+5905448Y+589379D01*
X+5975379Y+519448D01*
X+5975379Y+420552D01*
X+5905448Y+350621D01*
X+5806552Y+350621D01*
X+5736621Y+420552D01*
X+5736621Y+519448D01*
X+5806552Y+589379D01*
X+5812821Y+589379D01*
X+5812821Y+652885D01*
X+5831574Y+671638D01*
X+5787921Y+715291D01*
X+5787921Y+824709D01*
X+5865291Y+902079D01*
X+5974709Y+902079D01*
X+6052079Y+824709D01*
X+6052079Y+813179D01*
X+6087921Y+813179D01*
X+6087921Y+824709D01*
X+6096074Y+832862D01*
X+4840750Y+2088186D01*
X+4840750Y+1610314D01*
X+5557138Y+893926D01*
X+5565291Y+902079D01*
X+5674709Y+902079D01*
X+5752079Y+824709D01*
X+5752079Y+715291D01*
X+5674709Y+637921D01*
X+5673179Y+637921D01*
X+5673179Y+617115D01*
X+5645443Y+589379D01*
X+5651448Y+589379D01*
X+5721379Y+519448D01*
X+5721379Y+420552D01*
X+5651448Y+350621D01*
X+5552552Y+350621D01*
X+5482621Y+420552D01*
X+5482621Y+519448D01*
X+5552552Y+589379D01*
X+5558821Y+589379D01*
X+5558821Y+624885D01*
X+5571857Y+637921D01*
X+5565291Y+637921D01*
X+5487921Y+715291D01*
X+5487921Y+824709D01*
X+5496073Y+832861D01*
X+4795679Y+1533255D01*
X+4795679Y+1205385D01*
X+5107138Y+893926D01*
X+5115291Y+902079D01*
X+5224709Y+902079D01*
X+5302079Y+824709D01*
X+5302079Y+715291D01*
X+5224709Y+637921D01*
X+5213179Y+637921D01*
X+5213179Y+617115D01*
X+5187885Y+591821D01*
X+5137179Y+591821D01*
X+5137179Y+589379D01*
X+5143448Y+589379D01*
X+5213379Y+519448D01*
X+5213379Y+420552D01*
X+5143448Y+350621D01*
X+5044552Y+350621D01*
X+4974621Y+420552D01*
X+4974621Y+519448D01*
X+5044552Y+589379D01*
X+5050821Y+589379D01*
X+5050821Y+652885D01*
X+5075574Y+677638D01*
X+5037921Y+715291D01*
X+5037921Y+824709D01*
X+5046074Y+832862D01*
X+4913179Y+965757D01*
X+4913179Y+902079D01*
X+4924709Y+902079D01*
X+5002079Y+824709D01*
X+5002079Y+715291D01*
X+4924709Y+637921D01*
X+4923179Y+637921D01*
X+4923179Y+617115D01*
X+4892445Y+586381D01*
X+4959379Y+519448D01*
X+4959379Y+420552D01*
X+4889448Y+350621D01*
X+4790552Y+350621D01*
X+4720621Y+420552D01*
X+4720621Y+519448D01*
X+4790552Y+589379D01*
X+4796821Y+589379D01*
X+4796821Y+612885D01*
X+4821857Y+637921D01*
X+4815291Y+637921D01*
X+4763179Y+690033D01*
X+4763179Y+586115D01*
X+4700945Y+523881D01*
X+4705379Y+519448D01*
X+4705379Y+420552D01*
X+4635448Y+350621D01*
X+4536552Y+350621D01*
X+4466621Y+420552D01*
X+4466621Y+519448D01*
X+4536552Y+589379D01*
X+4635448Y+589379D01*
X+4639881Y+584945D01*
X+4676821Y+621885D01*
X+4676821Y+650033D01*
X+4644709Y+617921D01*
X+4535291Y+617921D01*
X+4457921Y+695291D01*
X+4457921Y+804709D01*
X+4535291Y+882079D01*
X+4546821Y+882079D01*
X+4546821Y+1641372D01*
X+4402079Y+1786114D01*
X+4402079Y+1715291D01*
X+4324709Y+1637921D01*
X+4275718Y+1637921D01*
X+4452601Y+1461038D01*
X+4452601Y+869124D01*
X+4150152Y+566675D01*
X+4197379Y+519448D01*
X+4197379Y+420552D01*
X+4127448Y+350621D01*
X+4028552Y+350621D01*
X+3958621Y+420552D01*
X+3958621Y+519448D01*
X+3988330Y+549157D01*
X+3913670Y+549157D01*
X+3943379Y+519448D01*
X+3943379Y+420552D01*
X+3873448Y+350621D01*
X+3774552Y+350621D01*
X+3704621Y+420552D01*
X+3704621Y+519448D01*
X+3734330Y+549157D01*
X+3710221Y+549157D01*
X+3684945Y+523881D01*
X+3689379Y+519448D01*
X+3689379Y+420552D01*
X+3619448Y+350621D01*
X+3520552Y+350621D01*
X+3450621Y+420552D01*
X+3450621Y+519448D01*
X+3520552Y+589379D01*
X+3619448Y+589379D01*
X+3623881Y+584945D01*
X+3674451Y+635515D01*
X+4027697Y+635515D01*
X+3957921Y+705291D01*
X+3957921Y+814709D01*
X+4035291Y+892079D01*
X+4046821Y+892079D01*
X+4046821Y+1211749D01*
X+3475187Y+1783382D01*
X+3451913Y+1760108D01*
X+3451913Y+1014155D01*
X+3344734Y+906976D01*
X+3344734Y+871055D01*
X+3304561Y+830882D01*
X+3247749Y+830882D01*
X+3207576Y+871055D01*
X+3207576Y+927867D01*
X+3247749Y+968040D01*
X+3283670Y+968040D01*
X+3365555Y+1049925D01*
X+3365555Y+1760108D01*
X+3340155Y+1785508D01*
X+3340155Y+1842320D01*
X+3378202Y+1880367D01*
X+2941070Y+2317500D01*
X+2941070Y+3325475D01*
X+2915670Y+3350875D01*
X+2915670Y+3407687D01*
X+2955843Y+3447860D01*
X+3012655Y+3447860D01*
X+3038055Y+3422460D01*
X+4042465Y+3422460D01*
X+4074999Y+3454994D01*
X+4074999Y+3490915D01*
X+4115172Y+3531088D01*
X+4171984Y+3531088D01*
X+4212157Y+3490915D01*
X+5467379Y+519448D02*
X+5467379Y+420552D01*
X+5397448Y+350621D01*
X+5298552Y+350621D01*
X+5228621Y+420552D01*
X+5228621Y+519448D01*
X+5298552Y+589379D01*
X+5397448Y+589379D01*
X+5467379Y+519448D01*
X+4451379Y+519448D02*
X+4451379Y+420552D01*
X+4381448Y+350621D01*
X+4282552Y+350621D01*
X+4212621Y+420552D01*
X+4212621Y+519448D01*
X+4282552Y+589379D01*
X+4381448Y+589379D01*
X+4451379Y+519448D01*
X+3435379Y+519448D02*
X+3435379Y+420552D01*
X+3365448Y+350621D01*
X+3266552Y+350621D01*
X+3196621Y+420552D01*
X+3196621Y+519448D01*
X+3266552Y+589379D01*
X+3365448Y+589379D01*
X+3435379Y+519448D01*
X+3181379Y+519448D02*
X+3181379Y+420552D01*
X+3111448Y+350621D01*
X+3012552Y+350621D01*
X+2942621Y+420552D01*
X+2942621Y+519448D01*
X+3012552Y+589379D01*
X+3111448Y+589379D01*
X+3181379Y+519448D01*
X+2927379Y+519448D02*
X+2927379Y+420552D01*
X+2857448Y+350621D01*
X+2758552Y+350621D01*
X+2688621Y+420552D01*
X+2688621Y+519448D01*
X+2758552Y+589379D01*
X+2857448Y+589379D01*
X+2927379Y+519448D01*
X+2673379Y+519448D02*
X+2673379Y+420552D01*
X+2603448Y+350621D01*
X+2504552Y+350621D01*
X+2434621Y+420552D01*
X+2434621Y+519448D01*
X+2504552Y+589379D01*
X+2603448Y+589379D01*
X+2673379Y+519448D01*
X+7499379Y+265448D02*
X+7499379Y+166552D01*
X+7429448Y+96621D01*
X+7330552Y+96621D01*
X+7260621Y+166552D01*
X+7260621Y+265448D01*
X+7330552Y+335379D01*
X+7429448Y+335379D01*
X+7499379Y+265448D01*
X+7200479Y+3965762D02*
X+7200479Y+3874238D01*
X+7135762Y+3809521D01*
X+7044238Y+3809521D01*
X+6979521Y+3874238D01*
X+6979521Y+3965762D01*
X+7044238Y+4030479D01*
X+7135762Y+4030479D01*
X+7200479Y+3965762D01*
X+6710479Y+3965762D02*
X+6710479Y+3874238D01*
X+6645762Y+3809521D01*
X+6554238Y+3809521D01*
X+6489521Y+3874238D01*
X+6489521Y+3965762D01*
X+6554238Y+4030479D01*
X+6645762Y+4030479D01*
X+6710479Y+3965762D01*
X+637921Y+1065291D02*
X+637921Y+1174709D01*
X+715291Y+1252079D01*
X+824709Y+1252079D01*
X+902079Y+1174709D01*
X+902079Y+1065291D01*
X+824709Y+987921D01*
X+715291Y+987921D01*
X+637921Y+1065291D01*
X+480531Y+1809469D02*
X+458739Y+1809469D01*
X+492979Y+1775229D01*
X+492979Y+1714771D01*
X+460708Y+1682500D01*
X+492979Y+1650229D01*
X+492979Y+1589771D01*
X+450229Y+1547021D01*
X+389771Y+1547021D01*
X+347021Y+1589771D01*
X+347021Y+1650229D01*
X+379292Y+1682500D01*
X+347021Y+1714771D01*
X+347021Y+1775229D01*
X+381261Y+1809469D01*
X+359469Y+1809469D01*
X+359469Y+1930531D01*
X+480531Y+1930531D01*
X+480531Y+1809469D01*
X+1710499Y+2241583D02*
X+1710499Y+2184771D01*
X+1685099Y+2159371D01*
X+1685099Y+672938D01*
X+1590817Y+578656D01*
X+1590817Y+542735D01*
X+1550644Y+502562D01*
X+1493832Y+502562D01*
X+1453659Y+542735D01*
X+1453659Y+599547D01*
X+1493832Y+639720D01*
X+1529753Y+639720D01*
X+1598741Y+708708D01*
X+1598741Y+2159371D01*
X+1587935Y+2170176D01*
X+902079Y+2173575D01*
X+902079Y+2065291D01*
X+824709Y+1987921D01*
X+715291Y+1987921D01*
X+637921Y+2065291D01*
X+637921Y+2174709D01*
X+715291Y+2252079D01*
X+824709Y+2252079D01*
X+832862Y+2243926D01*
X+849132Y+2260196D01*
X+1588451Y+2256693D01*
X+1613514Y+2281756D01*
X+1670326Y+2281756D01*
X+1710499Y+2241583D01*
X+2837921Y+715291D02*
X+2837921Y+824709D01*
X+2915291Y+902079D01*
X+3024709Y+902079D01*
X+3102079Y+824709D01*
X+3102079Y+715291D01*
X+3024709Y+637921D01*
X+2915291Y+637921D01*
X+2837921Y+715291D01*
X+3937921Y+2465291D02*
X+3937921Y+2574709D01*
X+4015291Y+2652079D01*
X+4124709Y+2652079D01*
X+4202079Y+2574709D01*
X+4202079Y+2465291D01*
X+4124709Y+2387921D01*
X+4015291Y+2387921D01*
X+3937921Y+2465291D01*
X+1502079Y+4874709D02*
X+1502079Y+4765291D01*
X+1424709Y+4687921D01*
X+1322147Y+4687921D01*
X+916234Y+4282008D01*
X+916234Y+3885862D01*
X+1326821Y+4296448D01*
X+1326821Y+4387921D01*
X+1315291Y+4387921D01*
X+1237921Y+4465291D01*
X+1237921Y+4574709D01*
X+1315291Y+4652079D01*
X+1424709Y+4652079D01*
X+1502079Y+4574709D01*
X+1502079Y+4465291D01*
X+1424709Y+4387921D01*
X+1413179Y+4387921D01*
X+1413179Y+4323844D01*
X+1436392Y+4347057D01*
X+1493204Y+4347057D01*
X+1533377Y+4306884D01*
X+1533377Y+4250072D01*
X+1493204Y+4209899D01*
X+1436392Y+4209899D01*
X+1410907Y+4235384D01*
X+1387884Y+4235384D01*
X+1033897Y+3881397D01*
X+1033897Y+2724035D01*
X+1048595Y+2709337D01*
X+1048595Y+2652525D01*
X+1008422Y+2612352D01*
X+951610Y+2612352D01*
X+916235Y+2647727D01*
X+916235Y+2615171D01*
X+908579Y+2607515D01*
X+908579Y+2571594D01*
X+868406Y+2531421D01*
X+811594Y+2531421D01*
X+771421Y+2571594D01*
X+771421Y+2628406D01*
X+811594Y+2668579D01*
X+829877Y+2668579D01*
X+829877Y+3551601D01*
X+804477Y+3577001D01*
X+804477Y+3633813D01*
X+829877Y+3659213D01*
X+829878Y+4317780D01*
X+1257655Y+4745557D01*
X+1237921Y+4765291D01*
X+1237921Y+4874709D01*
X+1315291Y+4952079D01*
X+1424709Y+4952079D01*
X+1502079Y+4874709D01*
X+837921Y+4715291D02*
X+837921Y+4824709D01*
X+915291Y+4902079D01*
X+1024709Y+4902079D01*
X+1102079Y+4824709D01*
X+1102079Y+4715291D01*
X+1024709Y+4637921D01*
X+915291Y+4637921D01*
X+837921Y+4715291D01*
X+218989Y+3077979D02*
X+325011Y+3077979D01*
X+399979Y+3003011D01*
X+399979Y+2896989D01*
X+325011Y+2822021D01*
X+218989Y+2822021D01*
X+144021Y+2896989D01*
X+144021Y+3003011D01*
X+218989Y+3077979D01*
X+218989Y+2417979D02*
X+325011Y+2417979D01*
X+399979Y+2343011D01*
X+399979Y+2236989D01*
X+325011Y+2162021D01*
X+218989Y+2162021D01*
X+144021Y+2236989D01*
X+144021Y+2343011D01*
X+218989Y+2417979D01*
X+4403250Y+2717349D02*
X+4403250Y+2743651D01*
X+4421849Y+2762250D01*
X+4448151Y+2762250D01*
X+4466750Y+2743651D01*
X+4466750Y+2717349D01*
X+4448151Y+2698750D01*
X+4421849Y+2698750D01*
X+4403250Y+2717349D01*
X+5673250Y+3606349D02*
X+5673250Y+3632651D01*
X+5691849Y+3651250D01*
X+5718151Y+3651250D01*
X+5736750Y+3632651D01*
X+5736750Y+3606349D01*
X+5718151Y+3587750D01*
X+5691849Y+3587750D01*
X+5673250Y+3606349D01*
X+4593750Y+3606349D02*
X+4593750Y+3632651D01*
X+4612349Y+3651250D01*
X+4638651Y+3651250D01*
X+4657250Y+3632651D01*
X+4657250Y+3606349D01*
X+4638651Y+3587750D01*
X+4612349Y+3587750D01*
X+4593750Y+3606349D01*
X+5673250Y+3288849D02*
X+5673250Y+3315151D01*
X+5691849Y+3333750D01*
X+5718151Y+3333750D01*
X+5736750Y+3315151D01*
X+5736750Y+3288849D01*
X+5718151Y+3270250D01*
X+5691849Y+3270250D01*
X+5673250Y+3288849D01*
X+466250Y+4368349D02*
X+466250Y+4394651D01*
X+484849Y+4413250D01*
X+511151Y+4413250D01*
X+529750Y+4394651D01*
X+529750Y+4368349D01*
X+511151Y+4349750D01*
X+484849Y+4349750D01*
X+466250Y+4368349D01*
X+656750Y+3034849D02*
X+656750Y+3061151D01*
X+675349Y+3079750D01*
X+701651Y+3079750D01*
X+720250Y+3061151D01*
X+720250Y+3034849D01*
X+701651Y+3016250D01*
X+675349Y+3016250D01*
X+656750Y+3034849D01*
X+593250Y+3415849D02*
X+593250Y+3442151D01*
X+611849Y+3460750D01*
X+638151Y+3460750D01*
X+656750Y+3442151D01*
X+656750Y+3415849D01*
X+638151Y+3397250D01*
X+611849Y+3397250D01*
X+593250Y+3415849D01*
X+2998250Y+3656849D02*
X+2998250Y+3683151D01*
X+3016849Y+3701750D01*
X+3043151Y+3701750D01*
X+3061750Y+3683151D01*
X+3061750Y+3656849D01*
X+3043151Y+3638250D01*
X+3016849Y+3638250D01*
X+2998250Y+3656849D01*
X+2650679Y+4820000D02*
X+2544000Y+4820000D01*
X+2437321Y+4820000D02*
X+2544000Y+4820000D01*
X+2544000Y+4926679D02*
X+2544000Y+4820000D01*
X+2544000Y+4713321D02*
X+2544000Y+4820000D01*
X+2650679Y+4566000D02*
X+2544000Y+4566000D01*
X+2437321Y+4566000D02*
X+2544000Y+4566000D01*
X+2544000Y+4672679D02*
X+2544000Y+4566000D01*
X+2544000Y+4459321D02*
X+2544000Y+4566000D01*
X+6470679Y+470000D02*
X+6364000Y+470000D01*
X+6257321Y+470000D02*
X+6364000Y+470000D01*
X+6364000Y+576679D02*
X+6364000Y+470000D01*
X+6364000Y+363321D02*
X+6364000Y+470000D01*
X+4438679Y+470000D02*
X+4332000Y+470000D01*
X+4225321Y+470000D02*
X+4332000Y+470000D01*
X+4332000Y+576679D02*
X+4332000Y+470000D01*
X+4332000Y+363321D02*
X+4332000Y+470000D01*
X+2660679Y+470000D02*
X+2554000Y+470000D01*
X+2447321Y+470000D02*
X+2554000Y+470000D01*
X+2554000Y+576679D02*
X+2554000Y+470000D01*
X+2554000Y+363321D02*
X+2554000Y+470000D01*
X+3422679Y+216000D02*
X+3316000Y+216000D01*
X+3209321Y+216000D02*
X+3316000Y+216000D01*
X+3316000Y+322679D02*
X+3316000Y+216000D01*
X+3930679Y+216000D02*
X+3824000Y+216000D01*
X+3717321Y+216000D02*
X+3824000Y+216000D01*
X+3824000Y+322679D02*
X+3824000Y+216000D01*
X+5200679Y+216000D02*
X+5094000Y+216000D01*
X+4987321Y+216000D02*
X+5094000Y+216000D01*
X+5094000Y+322679D02*
X+5094000Y+216000D01*
X+5962679Y+216000D02*
X+5856000Y+216000D01*
X+5749321Y+216000D02*
X+5856000Y+216000D01*
X+5856000Y+322679D02*
X+5856000Y+216000D01*
X+6978679Y+216000D02*
X+6872000Y+216000D01*
X+6765321Y+216000D02*
X+6872000Y+216000D01*
X+6872000Y+322679D02*
X+6872000Y+216000D01*
X+420000Y+1559721D02*
X+420000Y+1620000D01*
X+480279Y+1620000D02*
X+420000Y+1620000D01*
X+359721Y+1620000D02*
X+420000Y+1620000D01*
X+500621Y+4770000D02*
X+620000Y+4770000D01*
X+739379Y+4770000D02*
X+620000Y+4770000D01*
X+620000Y+4650621D02*
X+620000Y+4770000D01*
X+620000Y+4889379D02*
X+620000Y+4770000D01*
D15*
X+7370000Y+4820000D03*
D16*
X+7116000Y+4820000D03*
X+6862000Y+4820000D03*
X+6608000Y+4820000D03*
X+6354000Y+4820000D03*
X+6100000Y+4820000D03*
X+5846000Y+4820000D03*
X+5592000Y+4820000D03*
X+5338000Y+4820000D03*
X+5084000Y+4820000D03*
X+4830000Y+4820000D03*
X+4576000Y+4820000D03*
X+4322000Y+4820000D03*
X+4068000Y+4820000D03*
X+3814000Y+4820000D03*
X+3560000Y+4820000D03*
X+3306000Y+4820000D03*
X+3052000Y+4820000D03*
X+2798000Y+4820000D03*
X+2544000Y+4820000D03*
X+2544000Y+4566000D03*
X+2798000Y+4566000D03*
X+3052000Y+4566000D03*
X+3306000Y+4566000D03*
X+3560000Y+4566000D03*
X+3814000Y+4566000D03*
X+4068000Y+4566000D03*
X+4322000Y+4566000D03*
X+4576000Y+4566000D03*
X+4830000Y+4566000D03*
X+5084000Y+4566000D03*
X+5338000Y+4566000D03*
X+5592000Y+4566000D03*
X+5846000Y+4566000D03*
X+6100000Y+4566000D03*
X+6354000Y+4566000D03*
X+6608000Y+4566000D03*
X+6862000Y+4566000D03*
X+7116000Y+4566000D03*
X+7370000Y+4566000D03*
D15*
X+7380000Y+470000D03*
D16*
X+7126000Y+470000D03*
X+6872000Y+470000D03*
X+6618000Y+470000D03*
X+6364000Y+470000D03*
X+6110000Y+470000D03*
X+5856000Y+470000D03*
X+5602000Y+470000D03*
X+5348000Y+470000D03*
X+5094000Y+470000D03*
X+4840000Y+470000D03*
X+4586000Y+470000D03*
X+4332000Y+470000D03*
X+4078000Y+470000D03*
X+3824000Y+470000D03*
X+3570000Y+470000D03*
X+3316000Y+470000D03*
X+3062000Y+470000D03*
X+2808000Y+470000D03*
X+2554000Y+470000D03*
X+2554000Y+216000D03*
X+2808000Y+216000D03*
X+3062000Y+216000D03*
X+3316000Y+216000D03*
X+3570000Y+216000D03*
X+3824000Y+216000D03*
X+4078000Y+216000D03*
X+4332000Y+216000D03*
X+4586000Y+216000D03*
X+4840000Y+216000D03*
X+5094000Y+216000D03*
X+5348000Y+216000D03*
X+5602000Y+216000D03*
X+5856000Y+216000D03*
X+6110000Y+216000D03*
X+6364000Y+216000D03*
X+6618000Y+216000D03*
X+6872000Y+216000D03*
X+7126000Y+216000D03*
X+7380000Y+216000D03*
D17*
X+7090000Y+3920000D03*
X+6600000Y+3920000D03*
X+1120000Y+270000D03*
X+1320000Y+270000D03*
X+1520000Y+270000D03*
D18*
X+1730000Y+270000D03*
X+910000Y+270000D03*
D71*
X+770000Y+1120000D03*
D20*
X+420000Y+1870000D03*
D21*
X+420000Y+1745000D03*
X+420000Y+1620000D03*
D71*
X+770000Y+2120000D03*
X+2970000Y+770000D03*
X+4270000Y+1370000D03*
X+4270000Y+1770000D03*
X+4090000Y+760000D03*
X+4590000Y+750000D03*
X+4870000Y+770000D03*
X+5170000Y+770000D03*
X+5620000Y+770000D03*
X+5920000Y+770000D03*
X+6220000Y+770000D03*
X+6620000Y+770000D03*
X+6920000Y+770000D03*
X+7220000Y+770000D03*
X+4070000Y+3220000D03*
X+4070000Y+2520000D03*
X+1370000Y+4820000D03*
X+1370000Y+4520000D03*
X+970000Y+4770000D03*
X+620000Y+4770000D03*
D72*
X+272000Y+2950000D03*
X+272000Y+2290000D03*
D30*
X-14000Y+13000D02*
X+9986000Y+13000D01*
X+9986000Y+5013000D01*
X-14000Y+5013000D01*
X-14000Y+13000D01*
X+9836000Y+4713000D02*
X+9835498Y+4725258D01*
X+9831422Y+4749775D01*
X+9822906Y+4774292D01*
X+9809032Y+4798809D01*
X+9787806Y+4823161D01*
X+9763289Y+4841555D01*
X+9738772Y+4853411D01*
X+9714255Y+4860315D01*
X+9689738Y+4862953D01*
X+9686000Y+4863000D01*
X+9536000Y+4713000D02*
X+9536502Y+4725258D01*
X+9540578Y+4749775D01*
X+9549094Y+4774292D01*
X+9562968Y+4798809D01*
X+9584194Y+4823161D01*
X+9608711Y+4841555D01*
X+9633228Y+4853411D01*
X+9657745Y+4860315D01*
X+9682262Y+4862953D01*
X+9686000Y+4863000D01*
X+9536000Y+4713000D02*
X+9536502Y+4700742D01*
X+9540578Y+4676225D01*
X+9549094Y+4651708D01*
X+9562968Y+4627191D01*
X+9584194Y+4602839D01*
X+9608711Y+4584445D01*
X+9633228Y+4572589D01*
X+9657745Y+4565685D01*
X+9682262Y+4563047D01*
X+9686000Y+4563000D01*
X+9836000Y+4713000D02*
X+9835498Y+4700742D01*
X+9831422Y+4676225D01*
X+9822906Y+4651708D01*
X+9809032Y+4627191D01*
X+9787806Y+4602839D01*
X+9763289Y+4584445D01*
X+9738772Y+4572589D01*
X+9714255Y+4565685D01*
X+9689738Y+4563047D01*
X+9686000Y+4563000D01*
X+9836000Y+313000D02*
X+9835498Y+325258D01*
X+9831422Y+349775D01*
X+9822906Y+374292D01*
X+9809032Y+398809D01*
X+9787806Y+423161D01*
X+9763289Y+441555D01*
X+9738772Y+453411D01*
X+9714255Y+460315D01*
X+9689738Y+462953D01*
X+9686000Y+463000D01*
X+9536000Y+313000D02*
X+9536502Y+325258D01*
X+9540578Y+349775D01*
X+9549094Y+374292D01*
X+9562968Y+398809D01*
X+9584194Y+423161D01*
X+9608711Y+441555D01*
X+9633228Y+453411D01*
X+9657745Y+460315D01*
X+9682262Y+462953D01*
X+9686000Y+463000D01*
X+9536000Y+313000D02*
X+9536502Y+300742D01*
X+9540578Y+276225D01*
X+9549094Y+251708D01*
X+9562968Y+227191D01*
X+9584194Y+202839D01*
X+9608711Y+184445D01*
X+9633228Y+172589D01*
X+9657745Y+165685D01*
X+9682262Y+163047D01*
X+9686000Y+163000D01*
X+9836000Y+313000D02*
X+9835498Y+300742D01*
X+9831422Y+276225D01*
X+9822906Y+251708D01*
X+9809032Y+227191D01*
X+9787806Y+202839D01*
X+9763289Y+184445D01*
X+9738772Y+172589D01*
X+9714255Y+165685D01*
X+9689738Y+163047D01*
X+9686000Y+163000D01*
X+436000Y+313000D02*
X+435498Y+325258D01*
X+431422Y+349775D01*
X+422906Y+374292D01*
X+409032Y+398809D01*
X+387806Y+423161D01*
X+363289Y+441555D01*
X+338772Y+453411D01*
X+314255Y+460315D01*
X+289738Y+462953D01*
X+286000Y+463000D01*
X+136000Y+313000D02*
X+136502Y+325258D01*
X+140578Y+349775D01*
X+149094Y+374292D01*
X+162968Y+398809D01*
X+184194Y+423161D01*
X+208711Y+441555D01*
X+233228Y+453411D01*
X+257745Y+460315D01*
X+282262Y+462953D01*
X+286000Y+463000D01*
X+136000Y+313000D02*
X+136502Y+300742D01*
X+140578Y+276225D01*
X+149094Y+251708D01*
X+162968Y+227191D01*
X+184194Y+202839D01*
X+208711Y+184445D01*
X+233228Y+172589D01*
X+257745Y+165685D01*
X+282262Y+163047D01*
X+286000Y+163000D01*
X+436000Y+313000D02*
X+435498Y+300742D01*
X+431422Y+276225D01*
X+422906Y+251708D01*
X+409032Y+227191D01*
X+387806Y+202839D01*
X+363289Y+184445D01*
X+338772Y+172589D01*
X+314255Y+165685D01*
X+289738Y+163047D01*
X+286000Y+163000D01*
X+436000Y+4713000D02*
X+435498Y+4725258D01*
X+431422Y+4749775D01*
X+422906Y+4774292D01*
X+409032Y+4798809D01*
X+387806Y+4823161D01*
X+363289Y+4841555D01*
X+338772Y+4853411D01*
X+314255Y+4860315D01*
X+289738Y+4862953D01*
X+286000Y+4863000D01*
X+136000Y+4713000D02*
X+136502Y+4725258D01*
X+140578Y+4749775D01*
X+149094Y+4774292D01*
X+162968Y+4798809D01*
X+184194Y+4823161D01*
X+208711Y+4841555D01*
X+233228Y+4853411D01*
X+257745Y+4860315D01*
X+282262Y+4862953D01*
X+286000Y+4863000D01*
X+136000Y+4713000D02*
X+136502Y+4700742D01*
X+140578Y+4676225D01*
X+149094Y+4651708D01*
X+162968Y+4627191D01*
X+184194Y+4602839D01*
X+208711Y+4584445D01*
X+233228Y+4572589D01*
X+257745Y+4565685D01*
X+282262Y+4563047D01*
X+286000Y+4563000D01*
X+436000Y+4713000D02*
X+435498Y+4700742D01*
X+431422Y+4676225D01*
X+422906Y+4651708D01*
X+409032Y+4627191D01*
X+387806Y+4602839D01*
X+363289Y+4584445D01*
X+338772Y+4572589D01*
X+314255Y+4565685D01*
X+289738Y+4563047D01*
X+286000Y+4563000D01*
M02*
