G04 PROTEUS GERBER X2 FILE*
%TF.GenerationSoftware,Labcenter,Proteus,8.16-SP3-Build36097*%
%TF.CreationDate,2025-11-07T09:36:06+00:00*%
%TF.FileFunction,AssemblyDrawing,Top*%
%TF.FilePolarity,Positive*%
%TF.Part,Single*%
%TF.SameCoordinates,{7cfba198-d274-4d3b-beed-790fb78b42e9}*%
%FSLAX45Y45*%
%MOMM*%
G01*
%TA.AperFunction,Profile*%
%ADD30C,0.101600*%
%TA.AperFunction,Material*%
%ADD33C,0.101600*%
%ADD81C,0.450000*%
%ADD82C,0.321490*%
%ADD83C,0.711200*%
%ADD84C,0.284480*%
%ADD85C,0.640000*%
%ADD86C,0.228170*%
%ADD87C,0.299420*%
%ADD88C,0.609600*%
%ADD39C,0.099560*%
%ADD89C,0.508000*%
%ADD90C,0.076200*%
%ADD31C,0.063500*%
%ADD91C,0.050000*%
%ADD92C,0.340000*%
%ADD93C,0.227160*%
%ADD94C,0.084660*%
%ADD95C,0.254000*%
%ADD96C,0.093130*%
%ADD97C,0.571500*%
%ADD98C,0.221060*%
%ADD99C,0.036280*%
%ADD100C,0.031750*%
%ADD101C,0.025400*%
%ADD102C,0.050800*%
%ADD103C,0.266990*%
%ADD104C,0.042330*%
%ADD105C,0.411480*%
%ADD106C,0.222910*%
%ADD107C,0.396240*%
%ADD108C,0.069170*%
%ADD109C,0.360000*%
%TD.AperFunction*%
D30*
X-14000Y+13000D02*
X+9986000Y+13000D01*
X+9986000Y+5013000D01*
X-14000Y+5013000D01*
X-14000Y+13000D01*
X+9836000Y+4713000D02*
X+9835498Y+4725258D01*
X+9831422Y+4749775D01*
X+9822906Y+4774292D01*
X+9809032Y+4798809D01*
X+9787806Y+4823161D01*
X+9763289Y+4841555D01*
X+9738772Y+4853411D01*
X+9714255Y+4860315D01*
X+9689738Y+4862953D01*
X+9686000Y+4863000D01*
X+9536000Y+4713000D02*
X+9536502Y+4725258D01*
X+9540578Y+4749775D01*
X+9549094Y+4774292D01*
X+9562968Y+4798809D01*
X+9584194Y+4823161D01*
X+9608711Y+4841555D01*
X+9633228Y+4853411D01*
X+9657745Y+4860315D01*
X+9682262Y+4862953D01*
X+9686000Y+4863000D01*
X+9536000Y+4713000D02*
X+9536502Y+4700742D01*
X+9540578Y+4676225D01*
X+9549094Y+4651708D01*
X+9562968Y+4627191D01*
X+9584194Y+4602839D01*
X+9608711Y+4584445D01*
X+9633228Y+4572589D01*
X+9657745Y+4565685D01*
X+9682262Y+4563047D01*
X+9686000Y+4563000D01*
X+9836000Y+4713000D02*
X+9835498Y+4700742D01*
X+9831422Y+4676225D01*
X+9822906Y+4651708D01*
X+9809032Y+4627191D01*
X+9787806Y+4602839D01*
X+9763289Y+4584445D01*
X+9738772Y+4572589D01*
X+9714255Y+4565685D01*
X+9689738Y+4563047D01*
X+9686000Y+4563000D01*
X+9836000Y+313000D02*
X+9835498Y+325258D01*
X+9831422Y+349775D01*
X+9822906Y+374292D01*
X+9809032Y+398809D01*
X+9787806Y+423161D01*
X+9763289Y+441555D01*
X+9738772Y+453411D01*
X+9714255Y+460315D01*
X+9689738Y+462953D01*
X+9686000Y+463000D01*
X+9536000Y+313000D02*
X+9536502Y+325258D01*
X+9540578Y+349775D01*
X+9549094Y+374292D01*
X+9562968Y+398809D01*
X+9584194Y+423161D01*
X+9608711Y+441555D01*
X+9633228Y+453411D01*
X+9657745Y+460315D01*
X+9682262Y+462953D01*
X+9686000Y+463000D01*
X+9536000Y+313000D02*
X+9536502Y+300742D01*
X+9540578Y+276225D01*
X+9549094Y+251708D01*
X+9562968Y+227191D01*
X+9584194Y+202839D01*
X+9608711Y+184445D01*
X+9633228Y+172589D01*
X+9657745Y+165685D01*
X+9682262Y+163047D01*
X+9686000Y+163000D01*
X+9836000Y+313000D02*
X+9835498Y+300742D01*
X+9831422Y+276225D01*
X+9822906Y+251708D01*
X+9809032Y+227191D01*
X+9787806Y+202839D01*
X+9763289Y+184445D01*
X+9738772Y+172589D01*
X+9714255Y+165685D01*
X+9689738Y+163047D01*
X+9686000Y+163000D01*
X+436000Y+313000D02*
X+435498Y+325258D01*
X+431422Y+349775D01*
X+422906Y+374292D01*
X+409032Y+398809D01*
X+387806Y+423161D01*
X+363289Y+441555D01*
X+338772Y+453411D01*
X+314255Y+460315D01*
X+289738Y+462953D01*
X+286000Y+463000D01*
X+136000Y+313000D02*
X+136502Y+325258D01*
X+140578Y+349775D01*
X+149094Y+374292D01*
X+162968Y+398809D01*
X+184194Y+423161D01*
X+208711Y+441555D01*
X+233228Y+453411D01*
X+257745Y+460315D01*
X+282262Y+462953D01*
X+286000Y+463000D01*
X+136000Y+313000D02*
X+136502Y+300742D01*
X+140578Y+276225D01*
X+149094Y+251708D01*
X+162968Y+227191D01*
X+184194Y+202839D01*
X+208711Y+184445D01*
X+233228Y+172589D01*
X+257745Y+165685D01*
X+282262Y+163047D01*
X+286000Y+163000D01*
X+436000Y+313000D02*
X+435498Y+300742D01*
X+431422Y+276225D01*
X+422906Y+251708D01*
X+409032Y+227191D01*
X+387806Y+202839D01*
X+363289Y+184445D01*
X+338772Y+172589D01*
X+314255Y+165685D01*
X+289738Y+163047D01*
X+286000Y+163000D01*
X+436000Y+4713000D02*
X+435498Y+4725258D01*
X+431422Y+4749775D01*
X+422906Y+4774292D01*
X+409032Y+4798809D01*
X+387806Y+4823161D01*
X+363289Y+4841555D01*
X+338772Y+4853411D01*
X+314255Y+4860315D01*
X+289738Y+4862953D01*
X+286000Y+4863000D01*
X+136000Y+4713000D02*
X+136502Y+4725258D01*
X+140578Y+4749775D01*
X+149094Y+4774292D01*
X+162968Y+4798809D01*
X+184194Y+4823161D01*
X+208711Y+4841555D01*
X+233228Y+4853411D01*
X+257745Y+4860315D01*
X+282262Y+4862953D01*
X+286000Y+4863000D01*
X+136000Y+4713000D02*
X+136502Y+4700742D01*
X+140578Y+4676225D01*
X+149094Y+4651708D01*
X+162968Y+4627191D01*
X+184194Y+4602839D01*
X+208711Y+4584445D01*
X+233228Y+4572589D01*
X+257745Y+4565685D01*
X+282262Y+4563047D01*
X+286000Y+4563000D01*
X+436000Y+4713000D02*
X+435498Y+4700742D01*
X+431422Y+4676225D01*
X+422906Y+4651708D01*
X+409032Y+4627191D01*
X+387806Y+4602839D01*
X+363289Y+4584445D01*
X+338772Y+4572589D01*
X+314255Y+4565685D01*
X+289738Y+4563047D01*
X+286000Y+4563000D01*
D33*
X-155080Y+3120000D02*
X+937000Y+3120000D01*
X+937000Y+4310000D01*
X-155080Y+4310000D01*
X-155080Y+3120000D01*
D81*
X+670000Y+3870000D02*
X+670000Y+3870000D01*
D82*
X+278359Y+3425659D02*
X+310508Y+3425659D01*
X+342657Y+3461826D01*
X+342657Y+3606497D01*
X+310508Y+3642664D01*
X+149763Y+3642664D01*
X+278359Y+3932005D02*
X+278359Y+3715000D01*
X+149763Y+3859670D01*
X+342657Y+3859670D01*
D33*
X+2411920Y+4433920D02*
X+7502080Y+4433920D01*
X+7502080Y+4952080D01*
X+2411920Y+4952080D01*
X+2411920Y+4433920D01*
D83*
X+7370000Y+4820000D02*
X+7370000Y+4820000D01*
D84*
X+4489132Y+4664552D02*
X+4489132Y+4636104D01*
X+4521136Y+4607656D01*
X+4649152Y+4607656D01*
X+4681156Y+4636104D01*
X+4681156Y+4778344D01*
X+4809172Y+4721448D02*
X+4873180Y+4778344D01*
X+4873180Y+4607656D01*
X+5065204Y+4721448D02*
X+5129212Y+4778344D01*
X+5129212Y+4607656D01*
D33*
X+2421920Y+83920D02*
X+7512080Y+83920D01*
X+7512080Y+602080D01*
X+2421920Y+602080D01*
X+2421920Y+83920D01*
D83*
X+7380000Y+470000D02*
X+7380000Y+470000D01*
D84*
X+4499132Y+314552D02*
X+4499132Y+286104D01*
X+4531136Y+257656D01*
X+4659152Y+257656D01*
X+4691156Y+286104D01*
X+4691156Y+428344D01*
X+4819172Y+371448D02*
X+4883180Y+428344D01*
X+4883180Y+257656D01*
X+5043200Y+399896D02*
X+5075204Y+428344D01*
X+5171216Y+428344D01*
X+5203220Y+399896D01*
X+5203220Y+371448D01*
X+5171216Y+343000D01*
X+5075204Y+343000D01*
X+5043200Y+314552D01*
X+5043200Y+257656D01*
X+5203220Y+257656D01*
D33*
X+6264920Y+3664920D02*
X+7425080Y+3664920D01*
X+7425080Y+4175080D01*
X+6264920Y+4175080D01*
X+6264920Y+3664920D01*
D85*
X+7090000Y+3920000D02*
X+7090000Y+3920000D01*
D86*
X+6456105Y+3988452D02*
X+6610121Y+3851548D01*
X+6456105Y+3851548D02*
X+6610121Y+3988452D01*
X+6712798Y+3942817D02*
X+6764137Y+3988452D01*
X+6764137Y+3851548D01*
D33*
X+800000Y-355080D02*
X+1840000Y-355080D01*
X+1840000Y+495080D01*
X+800000Y+495080D01*
X+800000Y-355080D01*
D85*
X+1120000Y+270000D02*
X+1120000Y+270000D01*
D87*
X+915779Y-118425D02*
X+949464Y-148368D01*
X+1084204Y-148368D01*
X+1117889Y-118425D01*
X+1117889Y-88483D01*
X+1084204Y-58540D01*
X+949464Y-58540D01*
X+915779Y-28598D01*
X+915779Y+1344D01*
X+949464Y+31287D01*
X+1084204Y+31287D01*
X+1117889Y+1344D01*
X+1185260Y+31287D02*
X+1185260Y-148368D01*
X+1286315Y-58540D01*
X+1387370Y-148368D01*
X+1387370Y+31287D01*
X+1522111Y-28598D02*
X+1589481Y+31287D01*
X+1589481Y-148368D01*
D33*
X+43800Y+585550D02*
X+196200Y+585550D01*
X+196200Y+1014450D01*
X+43800Y+1014450D01*
X+43800Y+585550D01*
D88*
X+120000Y+630000D02*
X+120000Y+630000D01*
D39*
X+149871Y+747854D02*
X+90130Y+747854D01*
X+90130Y+792659D01*
X+110044Y+815062D01*
X+129957Y+815062D01*
X+149871Y+792659D01*
X+149871Y+747854D01*
X+100087Y+848666D02*
X+90130Y+859867D01*
X+90130Y+893471D01*
X+100087Y+904673D01*
X+110044Y+904673D01*
X+120000Y+893471D01*
X+120000Y+859867D01*
X+129957Y+848666D01*
X+149871Y+848666D01*
X+149871Y+904673D01*
D33*
X+326500Y+799200D02*
X+458580Y+799200D01*
X+458580Y+1114160D01*
X+326500Y+1114160D01*
X+326500Y+799200D01*
D89*
X+390000Y+850000D02*
X+390000Y+850000D01*
D90*
X+415400Y+891910D02*
X+369680Y+891910D01*
X+369680Y+934772D01*
X+377300Y+943345D01*
X+384920Y+943345D01*
X+392540Y+934772D01*
X+392540Y+891910D01*
X+392540Y+934772D02*
X+400160Y+943345D01*
X+415400Y+943345D01*
X+384920Y+977635D02*
X+369680Y+994780D01*
X+415400Y+994780D01*
X+369680Y+1080505D02*
X+369680Y+1037642D01*
X+384920Y+1037642D01*
X+384920Y+1071932D01*
X+392540Y+1080505D01*
X+407780Y+1080505D01*
X+415400Y+1071932D01*
X+415400Y+1046215D01*
X+407780Y+1037642D01*
D33*
X+856500Y+569200D02*
X+988580Y+569200D01*
X+988580Y+884160D01*
X+856500Y+884160D01*
X+856500Y+569200D01*
D89*
X+920000Y+620000D02*
X+920000Y+620000D01*
D90*
X+945400Y+661910D02*
X+899680Y+661910D01*
X+899680Y+704772D01*
X+907300Y+713345D01*
X+914920Y+713345D01*
X+922540Y+704772D01*
X+922540Y+661910D01*
X+922540Y+704772D02*
X+930160Y+713345D01*
X+945400Y+713345D01*
X+907300Y+739062D02*
X+899680Y+747635D01*
X+899680Y+773352D01*
X+907300Y+781925D01*
X+914920Y+781925D01*
X+922540Y+773352D01*
X+922540Y+747635D01*
X+930160Y+739062D01*
X+945400Y+739062D01*
X+945400Y+781925D01*
X+937780Y+799070D02*
X+907300Y+799070D01*
X+899680Y+807642D01*
X+899680Y+841932D01*
X+907300Y+850505D01*
X+937780Y+850505D01*
X+945400Y+841932D01*
X+945400Y+807642D01*
X+937780Y+799070D01*
X+945400Y+799070D02*
X+899680Y+850505D01*
D33*
X+637920Y+987920D02*
X+902080Y+987920D01*
X+902080Y+1252080D01*
X+637920Y+1252080D01*
X+637920Y+987920D01*
D31*
X+662843Y+1132700D02*
X+669987Y+1139050D01*
X+691418Y+1139050D01*
X+698562Y+1132700D01*
X+698562Y+1126350D01*
X+691418Y+1120000D01*
X+698562Y+1113650D01*
X+698562Y+1107300D01*
X+691418Y+1100950D01*
X+669987Y+1100950D01*
X+662843Y+1107300D01*
X+677131Y+1120000D02*
X+691418Y+1120000D01*
X+712850Y+1139050D02*
X+712850Y+1120000D01*
X+734281Y+1100950D01*
X+755712Y+1120000D01*
X+755712Y+1139050D01*
X+777143Y+1139050D02*
X+812862Y+1139050D01*
X+812862Y+1132700D01*
X+777143Y+1100950D01*
X+827150Y+1100950D02*
X+827150Y+1139050D01*
X+848581Y+1120000D01*
X+870012Y+1139050D01*
X+870012Y+1100950D01*
D91*
X-152000Y+1343000D02*
X+652000Y+1343000D01*
X+652000Y+2147000D01*
X-152000Y+2147000D01*
X-152000Y+1343000D01*
D92*
X+420000Y+1870000D02*
X+420000Y+1870000D01*
D93*
X+192401Y+1438324D02*
X+56100Y+1438324D01*
X+56100Y+1566105D01*
X+78817Y+1591662D01*
X+101534Y+1591662D01*
X+124250Y+1566105D01*
X+146967Y+1591662D01*
X+169684Y+1591662D01*
X+192401Y+1566105D01*
X+192401Y+1438324D01*
X+124250Y+1438324D02*
X+124250Y+1566105D01*
X+192401Y+1642775D02*
X+101534Y+1642775D01*
X+56100Y+1693887D01*
X+56100Y+1745000D01*
X+101534Y+1796113D01*
X+192401Y+1796113D01*
X+146967Y+1642775D02*
X+146967Y+1796113D01*
X+56100Y+1847226D02*
X+56100Y+2000564D01*
X+56100Y+1923895D02*
X+192401Y+1923895D01*
D33*
X+637920Y+1987920D02*
X+902080Y+1987920D01*
X+902080Y+2252080D01*
X+637920Y+2252080D01*
X+637920Y+1987920D01*
D94*
X+665226Y+2136933D02*
X+674751Y+2145399D01*
X+703326Y+2145399D01*
X+712851Y+2136933D01*
X+712851Y+2128466D01*
X+703326Y+2120000D01*
X+712851Y+2111533D01*
X+712851Y+2103066D01*
X+703326Y+2094600D01*
X+674751Y+2094600D01*
X+665226Y+2103066D01*
X+684276Y+2120000D02*
X+703326Y+2120000D01*
X+731901Y+2145399D02*
X+731901Y+2120000D01*
X+760475Y+2094600D01*
X+789050Y+2120000D01*
X+789050Y+2145399D01*
X+817624Y+2145399D02*
X+865249Y+2145399D01*
X+865249Y+2136933D01*
X+817624Y+2094600D01*
D33*
X+1371410Y+1826490D02*
X+1673670Y+1826490D01*
X+1673670Y+2116050D01*
X+1371410Y+2116050D01*
X+1371410Y+1826490D01*
D95*
X+1641920Y+1873480D02*
X+1641920Y+1873480D01*
D96*
X+1472375Y+1887451D02*
X+1518942Y+1887451D01*
X+1528255Y+1897928D01*
X+1528255Y+1939837D01*
X+1518942Y+1950315D01*
X+1472375Y+1950315D01*
X+1509628Y+2034134D02*
X+1509628Y+1971270D01*
X+1472375Y+2013179D01*
X+1528255Y+2013179D01*
D33*
X+1751420Y+1805840D02*
X+1883500Y+1805840D01*
X+1883500Y+2120800D01*
X+1751420Y+2120800D01*
X+1751420Y+1805840D01*
D89*
X+1820000Y+2070000D02*
X+1820000Y+2070000D01*
D90*
X+1832700Y+1873785D02*
X+1840320Y+1865212D01*
X+1840320Y+1839495D01*
X+1825080Y+1822350D01*
X+1809840Y+1822350D01*
X+1794600Y+1839495D01*
X+1794600Y+1865212D01*
X+1802220Y+1873785D01*
X+1802220Y+1899502D02*
X+1794600Y+1908075D01*
X+1794600Y+1933792D01*
X+1802220Y+1942365D01*
X+1809840Y+1942365D01*
X+1817460Y+1933792D01*
X+1817460Y+1908075D01*
X+1825080Y+1899502D01*
X+1840320Y+1899502D01*
X+1840320Y+1942365D01*
X+1802220Y+1968082D02*
X+1794600Y+1976655D01*
X+1794600Y+2002372D01*
X+1802220Y+2010945D01*
X+1809840Y+2010945D01*
X+1817460Y+2002372D01*
X+1825080Y+2010945D01*
X+1832700Y+2010945D01*
X+1840320Y+2002372D01*
X+1840320Y+1976655D01*
X+1832700Y+1968082D01*
X+1817460Y+1985227D02*
X+1817460Y+2002372D01*
D33*
X+2506500Y+1369200D02*
X+2638580Y+1369200D01*
X+2638580Y+1684160D01*
X+2506500Y+1684160D01*
X+2506500Y+1369200D01*
D89*
X+2570000Y+1420000D02*
X+2570000Y+1420000D01*
D90*
X+2587780Y+1513345D02*
X+2595400Y+1504772D01*
X+2595400Y+1479055D01*
X+2580160Y+1461910D01*
X+2564920Y+1461910D01*
X+2549680Y+1479055D01*
X+2549680Y+1504772D01*
X+2557300Y+1513345D01*
X+2557300Y+1539062D02*
X+2549680Y+1547635D01*
X+2549680Y+1573352D01*
X+2557300Y+1581925D01*
X+2564920Y+1581925D01*
X+2572540Y+1573352D01*
X+2572540Y+1547635D01*
X+2580160Y+1539062D01*
X+2595400Y+1539062D01*
X+2595400Y+1581925D01*
X+2564920Y+1616215D02*
X+2549680Y+1633360D01*
X+2595400Y+1633360D01*
D33*
X+2691400Y+1158050D02*
X+3148600Y+1158050D01*
X+3148600Y+1881950D01*
X+2691400Y+1881950D01*
X+2691400Y+1158050D01*
D97*
X+2729500Y+1259650D02*
X+2729500Y+1259650D01*
D98*
X+2887018Y+1321043D02*
X+2997550Y+1321043D01*
X+3019657Y+1345912D01*
X+3019657Y+1445391D01*
X+2997550Y+1470260D01*
X+2887018Y+1470260D01*
X+2887018Y+1669217D02*
X+2887018Y+1544869D01*
X+2931231Y+1544869D01*
X+2931231Y+1644348D01*
X+2953337Y+1669217D01*
X+2997550Y+1669217D01*
X+3019657Y+1644348D01*
X+3019657Y+1569739D01*
X+2997550Y+1544869D01*
D33*
X+2819200Y+2001420D02*
X+3134160Y+2001420D01*
X+3134160Y+2133500D01*
X+2819200Y+2133500D01*
X+2819200Y+2001420D01*
D89*
X+2870000Y+2070000D02*
X+2870000Y+2070000D01*
D90*
X+2911910Y+2044600D02*
X+2911910Y+2090320D01*
X+2954772Y+2090320D01*
X+2963345Y+2082700D01*
X+2963345Y+2075080D01*
X+2954772Y+2067460D01*
X+2911910Y+2067460D01*
X+2954772Y+2067460D02*
X+2963345Y+2059840D01*
X+2963345Y+2044600D01*
X+2997635Y+2075080D02*
X+3014780Y+2090320D01*
X+3014780Y+2044600D01*
X+3057642Y+2090320D02*
X+3100505Y+2090320D01*
X+3100505Y+2082700D01*
X+3057642Y+2044600D01*
D33*
X+3451420Y+1355840D02*
X+3583500Y+1355840D01*
X+3583500Y+1670800D01*
X+3451420Y+1670800D01*
X+3451420Y+1355840D01*
D89*
X+3520000Y+1620000D02*
X+3520000Y+1620000D01*
D90*
X+3532700Y+1423785D02*
X+3540320Y+1415212D01*
X+3540320Y+1389495D01*
X+3525080Y+1372350D01*
X+3509840Y+1372350D01*
X+3494600Y+1389495D01*
X+3494600Y+1415212D01*
X+3502220Y+1423785D01*
X+3502220Y+1449502D02*
X+3494600Y+1458075D01*
X+3494600Y+1483792D01*
X+3502220Y+1492365D01*
X+3509840Y+1492365D01*
X+3517460Y+1483792D01*
X+3517460Y+1458075D01*
X+3525080Y+1449502D01*
X+3540320Y+1449502D01*
X+3540320Y+1492365D01*
X+3525080Y+1560945D02*
X+3525080Y+1509510D01*
X+3494600Y+1543800D01*
X+3540320Y+1543800D01*
D33*
X+2805840Y+2206500D02*
X+3120800Y+2206500D01*
X+3120800Y+2338580D01*
X+2805840Y+2338580D01*
X+2805840Y+2206500D01*
D89*
X+3070000Y+2270000D02*
X+3070000Y+2270000D01*
D90*
X+2822350Y+2249680D02*
X+2822350Y+2295400D01*
X+2865212Y+2295400D01*
X+2873785Y+2287780D01*
X+2873785Y+2280160D01*
X+2865212Y+2272540D01*
X+2822350Y+2272540D01*
X+2865212Y+2272540D02*
X+2873785Y+2264920D01*
X+2873785Y+2249680D01*
X+2908075Y+2280160D02*
X+2925220Y+2295400D01*
X+2925220Y+2249680D01*
X+2976655Y+2272540D02*
X+2968082Y+2280160D01*
X+2968082Y+2287780D01*
X+2976655Y+2295400D01*
X+3002372Y+2295400D01*
X+3010945Y+2287780D01*
X+3010945Y+2280160D01*
X+3002372Y+2272540D01*
X+2976655Y+2272540D01*
X+2968082Y+2264920D01*
X+2968082Y+2257300D01*
X+2976655Y+2249680D01*
X+3002372Y+2249680D01*
X+3010945Y+2257300D01*
X+3010945Y+2264920D01*
X+3002372Y+2272540D01*
D33*
X+3751420Y+1355840D02*
X+3883500Y+1355840D01*
X+3883500Y+1670800D01*
X+3751420Y+1670800D01*
X+3751420Y+1355840D01*
D89*
X+3820000Y+1620000D02*
X+3820000Y+1620000D01*
D90*
X+3840320Y+1372350D02*
X+3794600Y+1372350D01*
X+3794600Y+1415212D01*
X+3802220Y+1423785D01*
X+3809840Y+1423785D01*
X+3817460Y+1415212D01*
X+3817460Y+1372350D01*
X+3817460Y+1415212D02*
X+3825080Y+1423785D01*
X+3840320Y+1423785D01*
X+3809840Y+1458075D02*
X+3794600Y+1475220D01*
X+3840320Y+1475220D01*
X+3809840Y+1560945D02*
X+3817460Y+1552372D01*
X+3817460Y+1526655D01*
X+3809840Y+1518082D01*
X+3802220Y+1518082D01*
X+3794600Y+1526655D01*
X+3794600Y+1552372D01*
X+3802220Y+1560945D01*
X+3832700Y+1560945D01*
X+3840320Y+1552372D01*
X+3840320Y+1526655D01*
D33*
X+2837920Y+637920D02*
X+3102080Y+637920D01*
X+3102080Y+902080D01*
X+2837920Y+902080D01*
X+2837920Y+637920D01*
D99*
X+2859786Y+780886D02*
X+2876114Y+780886D01*
X+2867950Y+780886D02*
X+2867950Y+759115D01*
X+2859786Y+759115D02*
X+2876114Y+759115D01*
X+2912852Y+762743D02*
X+2908770Y+759115D01*
X+2896524Y+759115D01*
X+2888360Y+766372D01*
X+2888360Y+773629D01*
X+2896524Y+780886D01*
X+2908770Y+780886D01*
X+2912852Y+777257D01*
X+2945508Y+759115D02*
X+2921016Y+759115D01*
X+2921016Y+780886D01*
X+2945508Y+780886D01*
X+2921016Y+770000D02*
X+2937344Y+770000D01*
X+2953672Y+755486D02*
X+2978164Y+755486D01*
X+3010820Y+762743D02*
X+3006738Y+759115D01*
X+2994492Y+759115D01*
X+2986328Y+766372D01*
X+2986328Y+773629D01*
X+2994492Y+780886D01*
X+3006738Y+780886D01*
X+3010820Y+777257D01*
X+3018984Y+780886D02*
X+3018984Y+759115D01*
X+3043476Y+759115D01*
X+3051640Y+780886D02*
X+3051640Y+759115D01*
X+3076132Y+780886D02*
X+3063886Y+770000D01*
X+3076132Y+759115D01*
X+3051640Y+770000D02*
X+3063886Y+770000D01*
D33*
X+4137920Y+1237920D02*
X+4402080Y+1237920D01*
X+4402080Y+1502080D01*
X+4137920Y+1502080D01*
X+4137920Y+1237920D01*
D31*
X+4162843Y+1382700D02*
X+4169987Y+1389050D01*
X+4191418Y+1389050D01*
X+4198562Y+1382700D01*
X+4198562Y+1376350D01*
X+4191418Y+1370000D01*
X+4198562Y+1363650D01*
X+4198562Y+1357300D01*
X+4191418Y+1350950D01*
X+4169987Y+1350950D01*
X+4162843Y+1357300D01*
X+4177131Y+1370000D02*
X+4191418Y+1370000D01*
X+4212850Y+1389050D02*
X+4212850Y+1370000D01*
X+4234281Y+1350950D01*
X+4255712Y+1370000D01*
X+4255712Y+1389050D01*
X+4277143Y+1382700D02*
X+4284287Y+1389050D01*
X+4305718Y+1389050D01*
X+4312862Y+1382700D01*
X+4312862Y+1376350D01*
X+4305718Y+1370000D01*
X+4312862Y+1363650D01*
X+4312862Y+1357300D01*
X+4305718Y+1350950D01*
X+4284287Y+1350950D01*
X+4277143Y+1357300D01*
X+4291431Y+1370000D02*
X+4305718Y+1370000D01*
X+4327150Y+1350950D02*
X+4327150Y+1389050D01*
X+4348581Y+1370000D01*
X+4370012Y+1389050D01*
X+4370012Y+1350950D01*
D33*
X+4137920Y+1637920D02*
X+4402080Y+1637920D01*
X+4402080Y+1902080D01*
X+4137920Y+1902080D01*
X+4137920Y+1637920D01*
D94*
X+4165226Y+1786933D02*
X+4174751Y+1795399D01*
X+4203326Y+1795399D01*
X+4212851Y+1786933D01*
X+4212851Y+1778466D01*
X+4203326Y+1770000D01*
X+4212851Y+1761533D01*
X+4212851Y+1753066D01*
X+4203326Y+1744600D01*
X+4174751Y+1744600D01*
X+4165226Y+1753066D01*
X+4184276Y+1770000D02*
X+4203326Y+1770000D01*
X+4231901Y+1795399D02*
X+4231901Y+1770000D01*
X+4260475Y+1744600D01*
X+4289050Y+1770000D01*
X+4289050Y+1795399D01*
X+4317624Y+1786933D02*
X+4327149Y+1795399D01*
X+4355724Y+1795399D01*
X+4365249Y+1786933D01*
X+4365249Y+1778466D01*
X+4355724Y+1770000D01*
X+4365249Y+1761533D01*
X+4365249Y+1753066D01*
X+4355724Y+1744600D01*
X+4327149Y+1744600D01*
X+4317624Y+1753066D01*
X+4336674Y+1770000D02*
X+4355724Y+1770000D01*
D33*
X+3957920Y+627920D02*
X+4222080Y+627920D01*
X+4222080Y+892080D01*
X+3957920Y+892080D01*
X+3957920Y+627920D01*
D94*
X+4115400Y+645702D02*
X+4064601Y+645702D01*
X+4064601Y+693326D01*
X+4073067Y+702851D01*
X+4081534Y+702851D01*
X+4090000Y+693326D01*
X+4090000Y+645702D01*
X+4090000Y+693326D02*
X+4098467Y+702851D01*
X+4115400Y+702851D01*
X+4064601Y+721901D02*
X+4115400Y+779050D01*
X+4115400Y+721901D02*
X+4064601Y+779050D01*
X+4115400Y+798100D02*
X+4064601Y+798100D01*
X+4064601Y+836199D01*
X+4081534Y+855249D01*
X+4098467Y+855249D01*
X+4115400Y+836199D01*
X+4115400Y+798100D01*
D33*
X+4457920Y+617920D02*
X+4722080Y+617920D01*
X+4722080Y+882080D01*
X+4457920Y+882080D01*
X+4457920Y+617920D01*
D94*
X+4564601Y+635702D02*
X+4564601Y+692851D01*
X+4564601Y+664276D02*
X+4615400Y+664276D01*
X+4564601Y+711901D02*
X+4615400Y+769050D01*
X+4615400Y+711901D02*
X+4564601Y+769050D01*
X+4615400Y+788100D02*
X+4564601Y+788100D01*
X+4564601Y+826199D01*
X+4581534Y+845249D01*
X+4598467Y+845249D01*
X+4615400Y+826199D01*
X+4615400Y+788100D01*
D33*
X+4737920Y+637920D02*
X+5002080Y+637920D01*
X+5002080Y+902080D01*
X+4737920Y+902080D01*
X+4737920Y+637920D01*
D100*
X+4860475Y+659271D02*
X+4860475Y+673559D01*
X+4860475Y+666415D02*
X+4879525Y+666415D01*
X+4879525Y+659271D02*
X+4879525Y+673559D01*
X+4876350Y+705706D02*
X+4879525Y+702134D01*
X+4879525Y+691418D01*
X+4873175Y+684275D01*
X+4866825Y+684275D01*
X+4860475Y+691418D01*
X+4860475Y+702134D01*
X+4863650Y+705706D01*
X+4879525Y+734281D02*
X+4879525Y+712850D01*
X+4860475Y+712850D01*
X+4860475Y+734281D01*
X+4870000Y+712850D02*
X+4870000Y+727137D01*
X+4882700Y+741425D02*
X+4882700Y+762856D01*
X+4879525Y+770000D02*
X+4860475Y+770000D01*
X+4860475Y+784287D01*
X+4866825Y+791431D01*
X+4873175Y+791431D01*
X+4879525Y+784287D01*
X+4879525Y+770000D01*
X+4866825Y+798575D02*
X+4860475Y+805718D01*
X+4860475Y+812862D01*
X+4866825Y+820006D01*
X+4873175Y+820006D01*
X+4879525Y+812862D01*
X+4879525Y+805718D01*
X+4873175Y+798575D01*
X+4866825Y+798575D01*
X+4879525Y+827150D02*
X+4860475Y+827150D01*
X+4879525Y+848581D01*
X+4860475Y+848581D01*
X+4879525Y+877156D02*
X+4879525Y+855725D01*
X+4860475Y+855725D01*
X+4860475Y+877156D01*
X+4870000Y+855725D02*
X+4870000Y+870012D01*
D33*
X+5037920Y+637920D02*
X+5302080Y+637920D01*
X+5302080Y+902080D01*
X+5037920Y+902080D01*
X+5037920Y+637920D01*
D101*
X+5072845Y+777620D02*
X+5055700Y+762380D01*
X+5081417Y+777620D02*
X+5092847Y+777620D01*
X+5087132Y+777620D02*
X+5087132Y+762380D01*
X+5081417Y+762380D02*
X+5092847Y+762380D01*
X+5118565Y+764920D02*
X+5115707Y+762380D01*
X+5107135Y+762380D01*
X+5101420Y+767460D01*
X+5101420Y+772540D01*
X+5107135Y+777620D01*
X+5115707Y+777620D01*
X+5118565Y+775080D01*
X+5141425Y+762380D02*
X+5124280Y+762380D01*
X+5124280Y+777620D01*
X+5141425Y+777620D01*
X+5124280Y+770000D02*
X+5135710Y+770000D01*
X+5147140Y+759840D02*
X+5164285Y+759840D01*
X+5170000Y+762380D02*
X+5170000Y+777620D01*
X+5184287Y+777620D01*
X+5187145Y+775080D01*
X+5187145Y+772540D01*
X+5184287Y+770000D01*
X+5170000Y+770000D01*
X+5184287Y+770000D02*
X+5187145Y+767460D01*
X+5187145Y+762380D01*
X+5210005Y+762380D02*
X+5192860Y+762380D01*
X+5192860Y+777620D01*
X+5210005Y+777620D01*
X+5192860Y+770000D02*
X+5204290Y+770000D01*
X+5215720Y+764920D02*
X+5218577Y+762380D01*
X+5230007Y+762380D01*
X+5232865Y+764920D01*
X+5232865Y+767460D01*
X+5230007Y+770000D01*
X+5218577Y+770000D01*
X+5215720Y+772540D01*
X+5215720Y+775080D01*
X+5218577Y+777620D01*
X+5230007Y+777620D01*
X+5232865Y+775080D01*
X+5255725Y+762380D02*
X+5238580Y+762380D01*
X+5238580Y+777620D01*
X+5255725Y+777620D01*
X+5238580Y+770000D02*
X+5250010Y+770000D01*
X+5261440Y+777620D02*
X+5278585Y+777620D01*
X+5270012Y+777620D02*
X+5270012Y+762380D01*
D33*
X+5487920Y+637920D02*
X+5752080Y+637920D01*
X+5752080Y+902080D01*
X+5487920Y+902080D01*
X+5487920Y+637920D01*
D94*
X+5562851Y+795399D02*
X+5505702Y+744600D01*
X+5581901Y+795399D02*
X+5581901Y+744600D01*
X+5610475Y+770000D01*
X+5639050Y+744600D01*
X+5639050Y+795399D01*
X+5658100Y+744600D02*
X+5658100Y+795399D01*
X+5705724Y+795399D01*
X+5715249Y+786933D01*
X+5715249Y+778466D01*
X+5705724Y+770000D01*
X+5658100Y+770000D01*
D33*
X+5787920Y+637920D02*
X+6052080Y+637920D01*
X+6052080Y+902080D01*
X+5787920Y+902080D01*
X+5787920Y+637920D01*
D102*
X+5839990Y+785240D02*
X+5805700Y+754760D01*
X+5851420Y+754760D02*
X+5851420Y+785240D01*
X+5885710Y+785240D02*
X+5885710Y+754760D01*
X+5851420Y+770000D02*
X+5885710Y+770000D01*
X+5897140Y+775080D02*
X+5908570Y+785240D01*
X+5920000Y+785240D01*
X+5931430Y+775080D01*
X+5931430Y+764920D01*
X+5920000Y+754760D01*
X+5908570Y+754760D01*
X+5897140Y+764920D01*
X+5897140Y+775080D01*
X+5942860Y+785240D02*
X+5942860Y+754760D01*
X+5977150Y+754760D01*
X+5988580Y+754760D02*
X+5988580Y+785240D01*
X+6011440Y+785240D01*
X+6022870Y+775080D01*
X+6022870Y+764920D01*
X+6011440Y+754760D01*
X+5988580Y+754760D01*
D33*
X+6087920Y+637920D02*
X+6352080Y+637920D01*
X+6352080Y+902080D01*
X+6087920Y+902080D01*
X+6087920Y+637920D01*
D94*
X+6194601Y+712851D02*
X+6245400Y+655702D01*
X+6236934Y+731901D02*
X+6245400Y+741425D01*
X+6245400Y+779525D01*
X+6236934Y+789050D01*
X+6228467Y+789050D01*
X+6220000Y+779525D01*
X+6220000Y+741425D01*
X+6211534Y+731901D01*
X+6203067Y+731901D01*
X+6194601Y+741425D01*
X+6194601Y+779525D01*
X+6203067Y+789050D01*
X+6236934Y+808100D02*
X+6245400Y+817624D01*
X+6245400Y+855724D01*
X+6236934Y+865249D01*
X+6228467Y+865249D01*
X+6220000Y+855724D01*
X+6220000Y+817624D01*
X+6211534Y+808100D01*
X+6203067Y+808100D01*
X+6194601Y+817624D01*
X+6194601Y+855724D01*
X+6203067Y+865249D01*
D33*
X+6487920Y+637920D02*
X+6752080Y+637920D01*
X+6752080Y+902080D01*
X+6487920Y+902080D01*
X+6487920Y+637920D01*
D94*
X+6636934Y+655702D02*
X+6645400Y+665226D01*
X+6645400Y+703326D01*
X+6636934Y+712851D01*
X+6628467Y+712851D01*
X+6620000Y+703326D01*
X+6620000Y+665226D01*
X+6611534Y+655702D01*
X+6603067Y+655702D01*
X+6594601Y+665226D01*
X+6594601Y+703326D01*
X+6603067Y+712851D01*
X+6636934Y+789050D02*
X+6645400Y+779525D01*
X+6645400Y+750950D01*
X+6628467Y+731901D01*
X+6611534Y+731901D01*
X+6594601Y+750950D01*
X+6594601Y+779525D01*
X+6603067Y+789050D01*
X+6594601Y+808100D02*
X+6645400Y+808100D01*
X+6594601Y+865249D02*
X+6620000Y+836674D01*
X+6645400Y+865249D01*
X+6620000Y+808100D02*
X+6620000Y+836674D01*
D33*
X+6787920Y+637920D02*
X+7052080Y+637920D01*
X+7052080Y+902080D01*
X+6787920Y+902080D01*
X+6787920Y+637920D01*
D31*
X+6939050Y+655700D02*
X+6900950Y+655700D01*
X+6920000Y+677131D01*
X+6900950Y+698562D01*
X+6939050Y+698562D01*
X+6900950Y+719993D02*
X+6900950Y+748568D01*
X+6900950Y+734281D02*
X+6939050Y+734281D01*
X+6939050Y+719993D02*
X+6939050Y+748568D01*
X+6932700Y+770000D02*
X+6939050Y+777143D01*
X+6939050Y+805718D01*
X+6932700Y+812862D01*
X+6926350Y+812862D01*
X+6920000Y+805718D01*
X+6920000Y+777143D01*
X+6913650Y+770000D01*
X+6907300Y+770000D01*
X+6900950Y+777143D01*
X+6900950Y+805718D01*
X+6907300Y+812862D01*
X+6913650Y+827150D02*
X+6900950Y+841437D01*
X+6900950Y+855725D01*
X+6913650Y+870012D01*
X+6926350Y+870012D01*
X+6939050Y+855725D01*
X+6939050Y+841437D01*
X+6926350Y+827150D01*
X+6913650Y+827150D01*
D33*
X+7087920Y+637920D02*
X+7352080Y+637920D01*
X+7352080Y+902080D01*
X+7087920Y+902080D01*
X+7087920Y+637920D01*
D31*
X+7239050Y+655700D02*
X+7200950Y+655700D01*
X+7220000Y+677131D01*
X+7200950Y+698562D01*
X+7239050Y+698562D01*
X+7213650Y+712850D02*
X+7200950Y+727137D01*
X+7200950Y+741425D01*
X+7213650Y+755712D01*
X+7226350Y+755712D01*
X+7239050Y+741425D01*
X+7239050Y+727137D01*
X+7226350Y+712850D01*
X+7213650Y+712850D01*
X+7232700Y+770000D02*
X+7239050Y+777143D01*
X+7239050Y+805718D01*
X+7232700Y+812862D01*
X+7226350Y+812862D01*
X+7220000Y+805718D01*
X+7220000Y+777143D01*
X+7213650Y+770000D01*
X+7207300Y+770000D01*
X+7200950Y+777143D01*
X+7200950Y+805718D01*
X+7207300Y+812862D01*
X+7200950Y+834293D02*
X+7200950Y+862868D01*
X+7200950Y+848581D02*
X+7239050Y+848581D01*
X+7239050Y+834293D02*
X+7239050Y+862868D01*
D33*
X+4511200Y+2310400D02*
X+5628800Y+2310400D01*
X+5628800Y+3529600D01*
X+4511200Y+3529600D01*
X+4511200Y+2310400D01*
D97*
X+5527200Y+2348500D02*
X+5527200Y+2348500D01*
D103*
X+4989902Y+2713041D02*
X+5123400Y+2713041D01*
X+5150099Y+2743078D01*
X+5150099Y+2863226D01*
X+5123400Y+2893263D01*
X+4989902Y+2893263D01*
X+4989902Y+2983374D02*
X+4989902Y+3133559D01*
X+5016601Y+3133559D01*
X+5150099Y+2983374D01*
D33*
X+5801420Y+3655840D02*
X+5933500Y+3655840D01*
X+5933500Y+3970800D01*
X+5801420Y+3970800D01*
X+5801420Y+3655840D01*
D89*
X+5870000Y+3920000D02*
X+5870000Y+3920000D01*
D90*
X+5882700Y+3723785D02*
X+5890320Y+3715212D01*
X+5890320Y+3689495D01*
X+5875080Y+3672350D01*
X+5859840Y+3672350D01*
X+5844600Y+3689495D01*
X+5844600Y+3715212D01*
X+5852220Y+3723785D01*
X+5852220Y+3749502D02*
X+5844600Y+3758075D01*
X+5844600Y+3783792D01*
X+5852220Y+3792365D01*
X+5859840Y+3792365D01*
X+5867460Y+3783792D01*
X+5867460Y+3758075D01*
X+5875080Y+3749502D01*
X+5890320Y+3749502D01*
X+5890320Y+3792365D01*
X+5867460Y+3826655D02*
X+5859840Y+3818082D01*
X+5852220Y+3818082D01*
X+5844600Y+3826655D01*
X+5844600Y+3852372D01*
X+5852220Y+3860945D01*
X+5859840Y+3860945D01*
X+5867460Y+3852372D01*
X+5867460Y+3826655D01*
X+5875080Y+3818082D01*
X+5882700Y+3818082D01*
X+5890320Y+3826655D01*
X+5890320Y+3852372D01*
X+5882700Y+3860945D01*
X+5875080Y+3860945D01*
X+5867460Y+3852372D01*
D33*
X+5819200Y+3051420D02*
X+6134160Y+3051420D01*
X+6134160Y+3183500D01*
X+5819200Y+3183500D01*
X+5819200Y+3051420D01*
D89*
X+5870000Y+3120000D02*
X+5870000Y+3120000D01*
D90*
X+5911910Y+3094600D02*
X+5911910Y+3140320D01*
X+5954772Y+3140320D01*
X+5963345Y+3132700D01*
X+5963345Y+3125080D01*
X+5954772Y+3117460D01*
X+5911910Y+3117460D01*
X+5954772Y+3117460D02*
X+5963345Y+3109840D01*
X+5963345Y+3094600D01*
X+5989062Y+3132700D02*
X+5997635Y+3140320D01*
X+6023352Y+3140320D01*
X+6031925Y+3132700D01*
X+6031925Y+3125080D01*
X+6023352Y+3117460D01*
X+5997635Y+3117460D01*
X+5989062Y+3109840D01*
X+5989062Y+3094600D01*
X+6031925Y+3094600D01*
X+6066215Y+3117460D02*
X+6057642Y+3125080D01*
X+6057642Y+3132700D01*
X+6066215Y+3140320D01*
X+6091932Y+3140320D01*
X+6100505Y+3132700D01*
X+6100505Y+3125080D01*
X+6091932Y+3117460D01*
X+6066215Y+3117460D01*
X+6057642Y+3109840D01*
X+6057642Y+3102220D01*
X+6066215Y+3094600D01*
X+6091932Y+3094600D01*
X+6100505Y+3102220D01*
X+6100505Y+3109840D01*
X+6091932Y+3117460D01*
D33*
X+4201420Y+3655840D02*
X+4333500Y+3655840D01*
X+4333500Y+3970800D01*
X+4201420Y+3970800D01*
X+4201420Y+3655840D01*
D89*
X+4270000Y+3920000D02*
X+4270000Y+3920000D01*
D90*
X+4282700Y+3723785D02*
X+4290320Y+3715212D01*
X+4290320Y+3689495D01*
X+4275080Y+3672350D01*
X+4259840Y+3672350D01*
X+4244600Y+3689495D01*
X+4244600Y+3715212D01*
X+4252220Y+3723785D01*
X+4252220Y+3749502D02*
X+4244600Y+3758075D01*
X+4244600Y+3783792D01*
X+4252220Y+3792365D01*
X+4259840Y+3792365D01*
X+4267460Y+3783792D01*
X+4267460Y+3758075D01*
X+4275080Y+3749502D01*
X+4290320Y+3749502D01*
X+4290320Y+3792365D01*
X+4244600Y+3818082D02*
X+4244600Y+3860945D01*
X+4252220Y+3860945D01*
X+4290320Y+3818082D01*
D33*
X+4119200Y+2801420D02*
X+4434160Y+2801420D01*
X+4434160Y+2933500D01*
X+4119200Y+2933500D01*
X+4119200Y+2801420D01*
D89*
X+4170000Y+2870000D02*
X+4170000Y+2870000D01*
D90*
X+4263345Y+2852220D02*
X+4254772Y+2844600D01*
X+4229055Y+2844600D01*
X+4211910Y+2859840D01*
X+4211910Y+2875080D01*
X+4229055Y+2890320D01*
X+4254772Y+2890320D01*
X+4263345Y+2882700D01*
X+4289062Y+2882700D02*
X+4297635Y+2890320D01*
X+4323352Y+2890320D01*
X+4331925Y+2882700D01*
X+4331925Y+2875080D01*
X+4323352Y+2867460D01*
X+4297635Y+2867460D01*
X+4289062Y+2859840D01*
X+4289062Y+2844600D01*
X+4331925Y+2844600D01*
X+4400505Y+2882700D02*
X+4391932Y+2890320D01*
X+4366215Y+2890320D01*
X+4357642Y+2882700D01*
X+4357642Y+2852220D01*
X+4366215Y+2844600D01*
X+4391932Y+2844600D01*
X+4400505Y+2852220D01*
X+4400505Y+2859840D01*
X+4391932Y+2867460D01*
X+4357642Y+2867460D01*
D33*
X+3937920Y+3087920D02*
X+4202080Y+3087920D01*
X+4202080Y+3352080D01*
X+3937920Y+3352080D01*
X+3937920Y+3087920D01*
D102*
X+3989990Y+3235240D02*
X+3955700Y+3204760D01*
X+4001420Y+3204760D02*
X+4001420Y+3235240D01*
X+4029995Y+3235240D01*
X+4035710Y+3230160D01*
X+4035710Y+3225080D01*
X+4029995Y+3220000D01*
X+4035710Y+3214920D01*
X+4035710Y+3209840D01*
X+4029995Y+3204760D01*
X+4001420Y+3204760D01*
X+4001420Y+3220000D02*
X+4029995Y+3220000D01*
X+4047140Y+3225080D02*
X+4058570Y+3235240D01*
X+4070000Y+3235240D01*
X+4081430Y+3225080D01*
X+4081430Y+3214920D01*
X+4070000Y+3204760D01*
X+4058570Y+3204760D01*
X+4047140Y+3214920D01*
X+4047140Y+3225080D01*
X+4092860Y+3225080D02*
X+4104290Y+3235240D01*
X+4115720Y+3235240D01*
X+4127150Y+3225080D01*
X+4127150Y+3214920D01*
X+4115720Y+3204760D01*
X+4104290Y+3204760D01*
X+4092860Y+3214920D01*
X+4092860Y+3225080D01*
X+4138580Y+3235240D02*
X+4172870Y+3235240D01*
X+4155725Y+3235240D02*
X+4155725Y+3204760D01*
D33*
X+3937920Y+2387920D02*
X+4202080Y+2387920D01*
X+4202080Y+2652080D01*
X+3937920Y+2652080D01*
X+3937920Y+2387920D01*
D104*
X+3984277Y+2532700D02*
X+3955703Y+2507300D01*
X+3993802Y+2507300D02*
X+3993802Y+2532700D01*
X+4017613Y+2532700D01*
X+4022376Y+2528467D01*
X+4022376Y+2524233D01*
X+4017613Y+2520000D01*
X+3993802Y+2520000D01*
X+4017613Y+2520000D02*
X+4022376Y+2515767D01*
X+4022376Y+2507300D01*
X+4060475Y+2507300D02*
X+4031901Y+2507300D01*
X+4031901Y+2532700D01*
X+4060475Y+2532700D01*
X+4031901Y+2520000D02*
X+4050950Y+2520000D01*
X+4070000Y+2511533D02*
X+4074762Y+2507300D01*
X+4093811Y+2507300D01*
X+4098574Y+2511533D01*
X+4098574Y+2515767D01*
X+4093811Y+2520000D01*
X+4074762Y+2520000D01*
X+4070000Y+2524233D01*
X+4070000Y+2528467D01*
X+4074762Y+2532700D01*
X+4093811Y+2532700D01*
X+4098574Y+2528467D01*
X+4136673Y+2507300D02*
X+4108099Y+2507300D01*
X+4108099Y+2532700D01*
X+4136673Y+2532700D01*
X+4108099Y+2520000D02*
X+4127148Y+2520000D01*
X+4146198Y+2532700D02*
X+4174772Y+2532700D01*
X+4160485Y+2532700D02*
X+4160485Y+2507300D01*
D33*
X+3979200Y+2081420D02*
X+4294160Y+2081420D01*
X+4294160Y+2213500D01*
X+3979200Y+2213500D01*
X+3979200Y+2081420D01*
D89*
X+4030000Y+2150000D02*
X+4030000Y+2150000D01*
D90*
X+4071910Y+2124600D02*
X+4071910Y+2170320D01*
X+4114772Y+2170320D01*
X+4123345Y+2162700D01*
X+4123345Y+2155080D01*
X+4114772Y+2147460D01*
X+4071910Y+2147460D01*
X+4114772Y+2147460D02*
X+4123345Y+2139840D01*
X+4123345Y+2124600D01*
X+4149062Y+2162700D02*
X+4157635Y+2170320D01*
X+4183352Y+2170320D01*
X+4191925Y+2162700D01*
X+4191925Y+2155080D01*
X+4183352Y+2147460D01*
X+4157635Y+2147460D01*
X+4149062Y+2139840D01*
X+4149062Y+2124600D01*
X+4191925Y+2124600D01*
X+4217642Y+2170320D02*
X+4260505Y+2170320D01*
X+4260505Y+2162700D01*
X+4217642Y+2124600D01*
D91*
X+2885000Y+4002500D02*
X+1935000Y+4002500D01*
X+1935000Y+2902500D01*
X+2885000Y+2902500D01*
X+2885000Y+4002500D01*
X+2410000Y+3402500D02*
X+2410000Y+3502500D01*
X+2360000Y+3452500D02*
X+2460000Y+3452500D01*
D105*
X+2770000Y+3030000D02*
X+2770000Y+3030000D01*
D106*
X+2209381Y+3594660D02*
X+2209381Y+3483205D01*
X+2234458Y+3460914D01*
X+2334767Y+3460914D01*
X+2359845Y+3483205D01*
X+2359845Y+3594660D01*
X+2560464Y+3572369D02*
X+2535386Y+3594660D01*
X+2460154Y+3594660D01*
X+2435077Y+3572369D01*
X+2435077Y+3483205D01*
X+2460154Y+3460914D01*
X+2535386Y+3460914D01*
X+2560464Y+3483205D01*
X+2560464Y+3505496D01*
X+2535386Y+3527787D01*
X+2435077Y+3527787D01*
D91*
X+1005000Y+3795000D02*
X+1305000Y+3795000D01*
X+1305000Y+3945000D01*
X+1005000Y+3945000D01*
X+1005000Y+3795000D01*
X+1155000Y+3920000D02*
X+1155000Y+3820000D01*
X+1205000Y+3870000D02*
X+1105000Y+3870000D01*
D107*
X+1070000Y+3870000D02*
X+1070000Y+3870000D01*
D108*
X+1136398Y+3890752D02*
X+1136398Y+3849247D01*
X+1183091Y+3849247D01*
X+1214220Y+3876917D02*
X+1229785Y+3890752D01*
X+1229785Y+3849247D01*
D33*
X+1001420Y+3305840D02*
X+1133500Y+3305840D01*
X+1133500Y+3620800D01*
X+1001420Y+3620800D01*
X+1001420Y+3305840D01*
D89*
X+1070000Y+3570000D02*
X+1070000Y+3570000D01*
D90*
X+1082700Y+3373785D02*
X+1090320Y+3365212D01*
X+1090320Y+3339495D01*
X+1075080Y+3322350D01*
X+1059840Y+3322350D01*
X+1044600Y+3339495D01*
X+1044600Y+3365212D01*
X+1052220Y+3373785D01*
X+1052220Y+3399502D02*
X+1044600Y+3408075D01*
X+1044600Y+3433792D01*
X+1052220Y+3442365D01*
X+1059840Y+3442365D01*
X+1067460Y+3433792D01*
X+1067460Y+3408075D01*
X+1075080Y+3399502D01*
X+1090320Y+3399502D01*
X+1090320Y+3442365D01*
X+1082700Y+3459510D02*
X+1052220Y+3459510D01*
X+1044600Y+3468082D01*
X+1044600Y+3502372D01*
X+1052220Y+3510945D01*
X+1082700Y+3510945D01*
X+1090320Y+3502372D01*
X+1090320Y+3468082D01*
X+1082700Y+3459510D01*
X+1090320Y+3459510D02*
X+1044600Y+3510945D01*
D33*
X+1356500Y+3289200D02*
X+1488580Y+3289200D01*
X+1488580Y+3604160D01*
X+1356500Y+3604160D01*
X+1356500Y+3289200D01*
D89*
X+1420000Y+3340000D02*
X+1420000Y+3340000D01*
D90*
X+1445400Y+3381910D02*
X+1399680Y+3381910D01*
X+1399680Y+3424772D01*
X+1407300Y+3433345D01*
X+1414920Y+3433345D01*
X+1422540Y+3424772D01*
X+1422540Y+3381910D01*
X+1422540Y+3424772D02*
X+1430160Y+3433345D01*
X+1445400Y+3433345D01*
X+1407300Y+3459062D02*
X+1399680Y+3467635D01*
X+1399680Y+3493352D01*
X+1407300Y+3501925D01*
X+1414920Y+3501925D01*
X+1422540Y+3493352D01*
X+1422540Y+3467635D01*
X+1430160Y+3459062D01*
X+1445400Y+3459062D01*
X+1445400Y+3501925D01*
X+1414920Y+3570505D02*
X+1422540Y+3561932D01*
X+1422540Y+3536215D01*
X+1414920Y+3527642D01*
X+1407300Y+3527642D01*
X+1399680Y+3536215D01*
X+1399680Y+3561932D01*
X+1407300Y+3570505D01*
X+1437780Y+3570505D01*
X+1445400Y+3561932D01*
X+1445400Y+3536215D01*
D33*
X+1546500Y+3659200D02*
X+1678580Y+3659200D01*
X+1678580Y+3974160D01*
X+1546500Y+3974160D01*
X+1546500Y+3659200D01*
D89*
X+1610000Y+3710000D02*
X+1610000Y+3710000D01*
D90*
X+1627780Y+3803345D02*
X+1635400Y+3794772D01*
X+1635400Y+3769055D01*
X+1620160Y+3751910D01*
X+1604920Y+3751910D01*
X+1589680Y+3769055D01*
X+1589680Y+3794772D01*
X+1597300Y+3803345D01*
X+1597300Y+3829062D02*
X+1589680Y+3837635D01*
X+1589680Y+3863352D01*
X+1597300Y+3871925D01*
X+1604920Y+3871925D01*
X+1612540Y+3863352D01*
X+1612540Y+3837635D01*
X+1620160Y+3829062D01*
X+1635400Y+3829062D01*
X+1635400Y+3871925D01*
X+1589680Y+3940505D02*
X+1589680Y+3897642D01*
X+1604920Y+3897642D01*
X+1604920Y+3931932D01*
X+1612540Y+3940505D01*
X+1627780Y+3940505D01*
X+1635400Y+3931932D01*
X+1635400Y+3906215D01*
X+1627780Y+3897642D01*
D33*
X+8985550Y+2643800D02*
X+9414450Y+2643800D01*
X+9414450Y+2796200D01*
X+8985550Y+2796200D01*
X+8985550Y+2643800D01*
D88*
X+9030000Y+2720000D02*
X+9030000Y+2720000D01*
D39*
X+9147854Y+2690129D02*
X+9147854Y+2749870D01*
X+9192659Y+2749870D01*
X+9215062Y+2729956D01*
X+9215062Y+2710043D01*
X+9192659Y+2690129D01*
X+9147854Y+2690129D01*
X+9248666Y+2739913D02*
X+9259867Y+2749870D01*
X+9293471Y+2749870D01*
X+9304673Y+2739913D01*
X+9304673Y+2729956D01*
X+9293471Y+2720000D01*
X+9304673Y+2710043D01*
X+9304673Y+2700086D01*
X+9293471Y+2690129D01*
X+9259867Y+2690129D01*
X+9248666Y+2700086D01*
X+9271069Y+2720000D02*
X+9293471Y+2720000D01*
D33*
X+8985550Y+2943800D02*
X+9414450Y+2943800D01*
X+9414450Y+3096200D01*
X+8985550Y+3096200D01*
X+8985550Y+2943800D01*
D88*
X+9030000Y+3020000D02*
X+9030000Y+3020000D01*
D39*
X+9147854Y+2990129D02*
X+9147854Y+3049870D01*
X+9192659Y+3049870D01*
X+9215062Y+3029956D01*
X+9215062Y+3010043D01*
X+9192659Y+2990129D01*
X+9147854Y+2990129D01*
X+9304673Y+3010043D02*
X+9237465Y+3010043D01*
X+9282270Y+3049870D01*
X+9282270Y+2990129D01*
D33*
X+9519200Y+2951420D02*
X+9834160Y+2951420D01*
X+9834160Y+3083500D01*
X+9519200Y+3083500D01*
X+9519200Y+2951420D01*
D89*
X+9570000Y+3020000D02*
X+9570000Y+3020000D01*
D90*
X+9611910Y+2994600D02*
X+9611910Y+3040320D01*
X+9654772Y+3040320D01*
X+9663345Y+3032700D01*
X+9663345Y+3025080D01*
X+9654772Y+3017460D01*
X+9611910Y+3017460D01*
X+9654772Y+3017460D02*
X+9663345Y+3009840D01*
X+9663345Y+2994600D01*
X+9689062Y+3032700D02*
X+9697635Y+3040320D01*
X+9723352Y+3040320D01*
X+9731925Y+3032700D01*
X+9731925Y+3025080D01*
X+9723352Y+3017460D01*
X+9697635Y+3017460D01*
X+9689062Y+3009840D01*
X+9689062Y+2994600D01*
X+9731925Y+2994600D01*
X+9800505Y+3032700D02*
X+9791932Y+3040320D01*
X+9766215Y+3040320D01*
X+9757642Y+3032700D01*
X+9757642Y+3002220D01*
X+9766215Y+2994600D01*
X+9791932Y+2994600D01*
X+9800505Y+3002220D01*
X+9800505Y+3009840D01*
X+9791932Y+3017460D01*
X+9757642Y+3017460D01*
D33*
X+9519200Y+2651420D02*
X+9834160Y+2651420D01*
X+9834160Y+2783500D01*
X+9519200Y+2783500D01*
X+9519200Y+2651420D01*
D89*
X+9570000Y+2720000D02*
X+9570000Y+2720000D01*
D90*
X+9611910Y+2694600D02*
X+9611910Y+2740320D01*
X+9654772Y+2740320D01*
X+9663345Y+2732700D01*
X+9663345Y+2725080D01*
X+9654772Y+2717460D01*
X+9611910Y+2717460D01*
X+9654772Y+2717460D02*
X+9663345Y+2709840D01*
X+9663345Y+2694600D01*
X+9689062Y+2732700D02*
X+9697635Y+2740320D01*
X+9723352Y+2740320D01*
X+9731925Y+2732700D01*
X+9731925Y+2725080D01*
X+9723352Y+2717460D01*
X+9697635Y+2717460D01*
X+9689062Y+2709840D01*
X+9689062Y+2694600D01*
X+9731925Y+2694600D01*
X+9800505Y+2740320D02*
X+9757642Y+2740320D01*
X+9757642Y+2725080D01*
X+9791932Y+2725080D01*
X+9800505Y+2717460D01*
X+9800505Y+2702220D01*
X+9791932Y+2694600D01*
X+9766215Y+2694600D01*
X+9757642Y+2702220D01*
D33*
X+1237920Y+4687920D02*
X+1502080Y+4687920D01*
X+1502080Y+4952080D01*
X+1237920Y+4952080D01*
X+1237920Y+4687920D01*
D104*
X+1255703Y+4832700D02*
X+1255703Y+4811533D01*
X+1260465Y+4807300D01*
X+1279514Y+4807300D01*
X+1284277Y+4811533D01*
X+1284277Y+4832700D01*
X+1293802Y+4811533D02*
X+1298564Y+4807300D01*
X+1317613Y+4807300D01*
X+1322376Y+4811533D01*
X+1322376Y+4815767D01*
X+1317613Y+4820000D01*
X+1298564Y+4820000D01*
X+1293802Y+4824233D01*
X+1293802Y+4828467D01*
X+1298564Y+4832700D01*
X+1317613Y+4832700D01*
X+1322376Y+4828467D01*
X+1331901Y+4807300D02*
X+1331901Y+4832700D01*
X+1355712Y+4832700D01*
X+1360475Y+4828467D01*
X+1360475Y+4824233D01*
X+1355712Y+4820000D01*
X+1360475Y+4815767D01*
X+1360475Y+4811533D01*
X+1355712Y+4807300D01*
X+1331901Y+4807300D01*
X+1331901Y+4820000D02*
X+1355712Y+4820000D01*
X+1370000Y+4803067D02*
X+1398574Y+4803067D01*
X+1408099Y+4807300D02*
X+1408099Y+4832700D01*
X+1427148Y+4832700D01*
X+1436673Y+4824233D01*
X+1436673Y+4815767D01*
X+1427148Y+4807300D01*
X+1408099Y+4807300D01*
X+1446198Y+4820000D02*
X+1474772Y+4820000D01*
X+1460485Y+4828467D02*
X+1460485Y+4811533D01*
D33*
X+1237920Y+4387920D02*
X+1502080Y+4387920D01*
X+1502080Y+4652080D01*
X+1237920Y+4652080D01*
X+1237920Y+4387920D01*
D104*
X+1255703Y+4532700D02*
X+1255703Y+4511533D01*
X+1260465Y+4507300D01*
X+1279514Y+4507300D01*
X+1284277Y+4511533D01*
X+1284277Y+4532700D01*
X+1293802Y+4511533D02*
X+1298564Y+4507300D01*
X+1317613Y+4507300D01*
X+1322376Y+4511533D01*
X+1322376Y+4515767D01*
X+1317613Y+4520000D01*
X+1298564Y+4520000D01*
X+1293802Y+4524233D01*
X+1293802Y+4528467D01*
X+1298564Y+4532700D01*
X+1317613Y+4532700D01*
X+1322376Y+4528467D01*
X+1331901Y+4507300D02*
X+1331901Y+4532700D01*
X+1355712Y+4532700D01*
X+1360475Y+4528467D01*
X+1360475Y+4524233D01*
X+1355712Y+4520000D01*
X+1360475Y+4515767D01*
X+1360475Y+4511533D01*
X+1355712Y+4507300D01*
X+1331901Y+4507300D01*
X+1331901Y+4520000D02*
X+1355712Y+4520000D01*
X+1370000Y+4503067D02*
X+1398574Y+4503067D01*
X+1408099Y+4507300D02*
X+1408099Y+4532700D01*
X+1427148Y+4532700D01*
X+1436673Y+4524233D01*
X+1436673Y+4515767D01*
X+1427148Y+4507300D01*
X+1408099Y+4507300D01*
X+1450960Y+4520000D02*
X+1474772Y+4520000D01*
D33*
X+837920Y+4637920D02*
X+1102080Y+4637920D01*
X+1102080Y+4902080D01*
X+837920Y+4902080D01*
X+837920Y+4637920D01*
D94*
X+950950Y+4795399D02*
X+903325Y+4795399D01*
X+903325Y+4778466D01*
X+941425Y+4778466D01*
X+950950Y+4770000D01*
X+950950Y+4753066D01*
X+941425Y+4744600D01*
X+912850Y+4744600D01*
X+903325Y+4753066D01*
X+970000Y+4795399D02*
X+970000Y+4770000D01*
X+998574Y+4744600D01*
X+1027149Y+4770000D01*
X+1027149Y+4795399D01*
D33*
X+487920Y+4637920D02*
X+752080Y+4637920D01*
X+752080Y+4902080D01*
X+487920Y+4902080D01*
X+487920Y+4637920D01*
D94*
X+543801Y+4761533D02*
X+562851Y+4761533D01*
X+562851Y+4744600D01*
X+524751Y+4744600D01*
X+505702Y+4761533D01*
X+505702Y+4778466D01*
X+524751Y+4795399D01*
X+553326Y+4795399D01*
X+562851Y+4786933D01*
X+581901Y+4744600D02*
X+581901Y+4795399D01*
X+639050Y+4744600D01*
X+639050Y+4795399D01*
X+658100Y+4744600D02*
X+658100Y+4795399D01*
X+696199Y+4795399D01*
X+715249Y+4778466D01*
X+715249Y+4761533D01*
X+696199Y+4744600D01*
X+658100Y+4744600D01*
D33*
X+3119200Y+3001420D02*
X+3434160Y+3001420D01*
X+3434160Y+3133500D01*
X+3119200Y+3133500D01*
X+3119200Y+3001420D01*
D89*
X+3170000Y+3070000D02*
X+3170000Y+3070000D01*
D90*
X+3211910Y+3044600D02*
X+3211910Y+3090320D01*
X+3254772Y+3090320D01*
X+3263345Y+3082700D01*
X+3263345Y+3075080D01*
X+3254772Y+3067460D01*
X+3211910Y+3067460D01*
X+3254772Y+3067460D02*
X+3263345Y+3059840D01*
X+3263345Y+3044600D01*
X+3289062Y+3082700D02*
X+3297635Y+3090320D01*
X+3323352Y+3090320D01*
X+3331925Y+3082700D01*
X+3331925Y+3075080D01*
X+3323352Y+3067460D01*
X+3297635Y+3067460D01*
X+3289062Y+3059840D01*
X+3289062Y+3044600D01*
X+3331925Y+3044600D01*
X+3366215Y+3075080D02*
X+3383360Y+3090320D01*
X+3383360Y+3044600D01*
D33*
X+3119200Y+3301420D02*
X+3434160Y+3301420D01*
X+3434160Y+3433500D01*
X+3119200Y+3433500D01*
X+3119200Y+3301420D01*
D89*
X+3170000Y+3370000D02*
X+3170000Y+3370000D01*
D90*
X+3211910Y+3344600D02*
X+3211910Y+3390320D01*
X+3254772Y+3390320D01*
X+3263345Y+3382700D01*
X+3263345Y+3375080D01*
X+3254772Y+3367460D01*
X+3211910Y+3367460D01*
X+3254772Y+3367460D02*
X+3263345Y+3359840D01*
X+3263345Y+3344600D01*
X+3289062Y+3382700D02*
X+3297635Y+3390320D01*
X+3323352Y+3390320D01*
X+3331925Y+3382700D01*
X+3331925Y+3375080D01*
X+3323352Y+3367460D01*
X+3297635Y+3367460D01*
X+3289062Y+3359840D01*
X+3289062Y+3344600D01*
X+3331925Y+3344600D01*
X+3357642Y+3382700D02*
X+3366215Y+3390320D01*
X+3391932Y+3390320D01*
X+3400505Y+3382700D01*
X+3400505Y+3375080D01*
X+3391932Y+3367460D01*
X+3366215Y+3367460D01*
X+3357642Y+3359840D01*
X+3357642Y+3344600D01*
X+3400505Y+3344600D01*
D33*
X+3606500Y+3319200D02*
X+3738580Y+3319200D01*
X+3738580Y+3634160D01*
X+3606500Y+3634160D01*
X+3606500Y+3319200D01*
D89*
X+3670000Y+3370000D02*
X+3670000Y+3370000D01*
D90*
X+3695400Y+3411910D02*
X+3649680Y+3411910D01*
X+3649680Y+3454772D01*
X+3657300Y+3463345D01*
X+3664920Y+3463345D01*
X+3672540Y+3454772D01*
X+3672540Y+3411910D01*
X+3672540Y+3454772D02*
X+3680160Y+3463345D01*
X+3695400Y+3463345D01*
X+3657300Y+3489062D02*
X+3649680Y+3497635D01*
X+3649680Y+3523352D01*
X+3657300Y+3531925D01*
X+3664920Y+3531925D01*
X+3672540Y+3523352D01*
X+3672540Y+3497635D01*
X+3680160Y+3489062D01*
X+3695400Y+3489062D01*
X+3695400Y+3531925D01*
X+3657300Y+3557642D02*
X+3649680Y+3566215D01*
X+3649680Y+3591932D01*
X+3657300Y+3600505D01*
X+3664920Y+3600505D01*
X+3672540Y+3591932D01*
X+3680160Y+3600505D01*
X+3687780Y+3600505D01*
X+3695400Y+3591932D01*
X+3695400Y+3566215D01*
X+3687780Y+3557642D01*
X+3672540Y+3574787D02*
X+3672540Y+3591932D01*
D33*
X+3501420Y+2805840D02*
X+3633500Y+2805840D01*
X+3633500Y+3120800D01*
X+3501420Y+3120800D01*
X+3501420Y+2805840D01*
D89*
X+3570000Y+3070000D02*
X+3570000Y+3070000D01*
D90*
X+3590320Y+2822350D02*
X+3544600Y+2822350D01*
X+3544600Y+2865212D01*
X+3552220Y+2873785D01*
X+3559840Y+2873785D01*
X+3567460Y+2865212D01*
X+3567460Y+2822350D01*
X+3567460Y+2865212D02*
X+3575080Y+2873785D01*
X+3590320Y+2873785D01*
X+3552220Y+2899502D02*
X+3544600Y+2908075D01*
X+3544600Y+2933792D01*
X+3552220Y+2942365D01*
X+3559840Y+2942365D01*
X+3567460Y+2933792D01*
X+3567460Y+2908075D01*
X+3575080Y+2899502D01*
X+3590320Y+2899502D01*
X+3590320Y+2942365D01*
X+3575080Y+3010945D02*
X+3575080Y+2959510D01*
X+3544600Y+2993800D01*
X+3590320Y+2993800D01*
D39*
X-102000Y+2092000D02*
X+855000Y+2092000D01*
X+855000Y+3148000D01*
X-102000Y+3148000D01*
X-102000Y+2092000D01*
D109*
X+540000Y+2750000D02*
X+540000Y+2750000D01*
D33*
X+1686500Y+3299200D02*
X+1818580Y+3299200D01*
X+1818580Y+3614160D01*
X+1686500Y+3614160D01*
X+1686500Y+3299200D01*
D89*
X+1750000Y+3350000D02*
X+1750000Y+3350000D01*
D90*
X+1775400Y+3391910D02*
X+1729680Y+3391910D01*
X+1729680Y+3434772D01*
X+1737300Y+3443345D01*
X+1744920Y+3443345D01*
X+1752540Y+3434772D01*
X+1752540Y+3391910D01*
X+1752540Y+3434772D02*
X+1760160Y+3443345D01*
X+1775400Y+3443345D01*
X+1737300Y+3469062D02*
X+1729680Y+3477635D01*
X+1729680Y+3503352D01*
X+1737300Y+3511925D01*
X+1744920Y+3511925D01*
X+1752540Y+3503352D01*
X+1760160Y+3511925D01*
X+1767780Y+3511925D01*
X+1775400Y+3503352D01*
X+1775400Y+3477635D01*
X+1767780Y+3469062D01*
X+1752540Y+3486207D02*
X+1752540Y+3503352D01*
X+1767780Y+3529070D02*
X+1737300Y+3529070D01*
X+1729680Y+3537642D01*
X+1729680Y+3571932D01*
X+1737300Y+3580505D01*
X+1767780Y+3580505D01*
X+1775400Y+3571932D01*
X+1775400Y+3537642D01*
X+1767780Y+3529070D01*
X+1775400Y+3529070D02*
X+1729680Y+3580505D01*
D33*
X+1031420Y+1785840D02*
X+1163500Y+1785840D01*
X+1163500Y+2100800D01*
X+1031420Y+2100800D01*
X+1031420Y+1785840D01*
D89*
X+1100000Y+2050000D02*
X+1100000Y+2050000D01*
D90*
X+1112700Y+1853785D02*
X+1120320Y+1845212D01*
X+1120320Y+1819495D01*
X+1105080Y+1802350D01*
X+1089840Y+1802350D01*
X+1074600Y+1819495D01*
X+1074600Y+1845212D01*
X+1082220Y+1853785D01*
X+1082220Y+1879502D02*
X+1074600Y+1888075D01*
X+1074600Y+1913792D01*
X+1082220Y+1922365D01*
X+1089840Y+1922365D01*
X+1097460Y+1913792D01*
X+1097460Y+1888075D01*
X+1105080Y+1879502D01*
X+1120320Y+1879502D01*
X+1120320Y+1922365D01*
X+1082220Y+1948082D02*
X+1074600Y+1956655D01*
X+1074600Y+1982372D01*
X+1082220Y+1990945D01*
X+1089840Y+1990945D01*
X+1097460Y+1982372D01*
X+1097460Y+1956655D01*
X+1105080Y+1948082D01*
X+1120320Y+1948082D01*
X+1120320Y+1990945D01*
D33*
X+1181420Y+1685840D02*
X+1313500Y+1685840D01*
X+1313500Y+2000800D01*
X+1181420Y+2000800D01*
X+1181420Y+1685840D01*
D89*
X+1250000Y+1950000D02*
X+1250000Y+1950000D01*
D90*
X+1270320Y+1702350D02*
X+1224600Y+1702350D01*
X+1224600Y+1745212D01*
X+1232220Y+1753785D01*
X+1239840Y+1753785D01*
X+1247460Y+1745212D01*
X+1247460Y+1702350D01*
X+1247460Y+1745212D02*
X+1255080Y+1753785D01*
X+1270320Y+1753785D01*
X+1239840Y+1788075D02*
X+1224600Y+1805220D01*
X+1270320Y+1805220D01*
X+1232220Y+1890945D02*
X+1224600Y+1882372D01*
X+1224600Y+1856655D01*
X+1232220Y+1848082D01*
X+1262700Y+1848082D01*
X+1270320Y+1856655D01*
X+1270320Y+1882372D01*
X+1262700Y+1890945D01*
X+1255080Y+1890945D01*
X+1247460Y+1882372D01*
X+1247460Y+1848082D01*
M02*
