G04 PROTEUS GERBER X2 FILE*
%TF.GenerationSoftware,Labcenter,Proteus,8.16-SP3-Build36097*%
%TF.CreationDate,2025-11-07T09:36:06+00:00*%
%TF.FileFunction,Soldermask,Top*%
%TF.FilePolarity,Negative*%
%TF.Part,Single*%
%TF.SameCoordinates,{7cfba198-d274-4d3b-beed-790fb78b42e9}*%
%FSLAX45Y45*%
%MOMM*%
G01*
%TA.AperFunction,Material*%
%ADD40C,1.016000*%
%AMPPAD035*
4,1,68,
1.404000,0.250000,
1.404000,-0.250000,
1.402690,-0.275960,
1.398840,-0.301180,
1.392580,-0.325520,
1.384040,-0.348860,
1.373340,-0.371060,
1.360610,-0.392000,
1.345990,-0.411550,
1.329590,-0.429590,
1.311550,-0.445990,
1.292000,-0.460610,
1.271060,-0.473330,
1.248860,-0.484030,
1.225520,-0.492580,
1.201180,-0.498840,
1.175970,-0.502690,
1.150000,-0.504000,
-1.150000,-0.504000,
-1.175970,-0.502690,
-1.201180,-0.498840,
-1.225520,-0.492580,
-1.248860,-0.484030,
-1.271060,-0.473330,
-1.292000,-0.460610,
-1.311550,-0.445990,
-1.329590,-0.429590,
-1.345990,-0.411550,
-1.360610,-0.392000,
-1.373340,-0.371060,
-1.384040,-0.348860,
-1.392580,-0.325520,
-1.398840,-0.301180,
-1.402690,-0.275960,
-1.404000,-0.250000,
-1.404000,0.250000,
-1.402690,0.275960,
-1.398840,0.301180,
-1.392580,0.325520,
-1.384040,0.348860,
-1.373340,0.371060,
-1.360610,0.392000,
-1.345990,0.411550,
-1.329590,0.429590,
-1.311550,0.445990,
-1.292000,0.460610,
-1.271060,0.473330,
-1.248860,0.484030,
-1.225520,0.492580,
-1.201180,0.498840,
-1.175970,0.502690,
-1.150000,0.504000,
1.150000,0.504000,
1.175970,0.502690,
1.201180,0.498840,
1.225520,0.492580,
1.248860,0.484030,
1.271060,0.473330,
1.292000,0.460610,
1.311550,0.445990,
1.329590,0.429590,
1.345990,0.411550,
1.360610,0.392000,
1.373340,0.371060,
1.384040,0.348860,
1.392580,0.325520,
1.398840,0.301180,
1.402690,0.275960,
1.404000,0.250000,
0*%
%TA.AperFunction,Material*%
%ADD41PPAD035*%
%AMPPAD036*
4,1,68,
2.004000,1.000000,
2.004000,-1.000000,
2.002690,-1.025960,
1.998840,-1.051180,
1.992580,-1.075520,
1.984040,-1.098860,
1.973340,-1.121060,
1.960610,-1.142000,
1.945990,-1.161550,
1.929590,-1.179590,
1.911550,-1.195990,
1.892000,-1.210610,
1.871060,-1.223330,
1.848860,-1.234030,
1.825520,-1.242580,
1.801180,-1.248840,
1.775970,-1.252690,
1.750000,-1.254000,
-1.750000,-1.254000,
-1.775970,-1.252690,
-1.801180,-1.248840,
-1.825520,-1.242580,
-1.848860,-1.234030,
-1.871060,-1.223330,
-1.892000,-1.210610,
-1.911550,-1.195990,
-1.929590,-1.179590,
-1.945990,-1.161550,
-1.960610,-1.142000,
-1.973340,-1.121060,
-1.984040,-1.098860,
-1.992580,-1.075520,
-1.998840,-1.051180,
-2.002690,-1.025960,
-2.004000,-1.000000,
-2.004000,1.000000,
-2.002690,1.025960,
-1.998840,1.051180,
-1.992580,1.075520,
-1.984040,1.098860,
-1.973340,1.121060,
-1.960610,1.142000,
-1.945990,1.161550,
-1.929590,1.179590,
-1.911550,1.195990,
-1.892000,1.210610,
-1.871060,1.223330,
-1.848860,1.234030,
-1.825520,1.242580,
-1.801180,1.248840,
-1.775970,1.252690,
-1.750000,1.254000,
1.750000,1.254000,
1.775970,1.252690,
1.801180,1.248840,
1.825520,1.242580,
1.848860,1.234030,
1.871060,1.223330,
1.892000,1.210610,
1.911550,1.195990,
1.929590,1.179590,
1.945990,1.161550,
1.960610,1.142000,
1.973340,1.121060,
1.984040,1.098860,
1.992580,1.075520,
1.998840,1.051180,
2.002690,1.025960,
2.004000,1.000000,
0*%
%ADD42PPAD036*%
%AMPPAD037*
4,1,68,
2.254000,1.000000,
2.254000,-1.000000,
2.252690,-1.025960,
2.248840,-1.051180,
2.242580,-1.075520,
2.234040,-1.098860,
2.223340,-1.121060,
2.210610,-1.142000,
2.195990,-1.161550,
2.179590,-1.179590,
2.161550,-1.195990,
2.142000,-1.210610,
2.121060,-1.223330,
2.098860,-1.234030,
2.075520,-1.242580,
2.051180,-1.248840,
2.025970,-1.252690,
2.000000,-1.254000,
-2.000000,-1.254000,
-2.025970,-1.252690,
-2.051180,-1.248840,
-2.075520,-1.242580,
-2.098860,-1.234030,
-2.121060,-1.223330,
-2.142000,-1.210610,
-2.161550,-1.195990,
-2.179590,-1.179590,
-2.195990,-1.161550,
-2.210610,-1.142000,
-2.223340,-1.121060,
-2.234040,-1.098860,
-2.242580,-1.075520,
-2.248840,-1.051180,
-2.252690,-1.025960,
-2.254000,-1.000000,
-2.254000,1.000000,
-2.252690,1.025960,
-2.248840,1.051180,
-2.242580,1.075520,
-2.234040,1.098860,
-2.223340,1.121060,
-2.210610,1.142000,
-2.195990,1.161550,
-2.179590,1.179590,
-2.161550,1.195990,
-2.142000,1.210610,
-2.121060,1.223330,
-2.098860,1.234030,
-2.075520,1.242580,
-2.051180,1.248840,
-2.025970,1.252690,
-2.000000,1.254000,
2.000000,1.254000,
2.025970,1.252690,
2.051180,1.248840,
2.075520,1.242580,
2.098860,1.234030,
2.121060,1.223330,
2.142000,1.210610,
2.161550,1.195990,
2.179590,1.179590,
2.195990,1.161550,
2.210610,1.142000,
2.223340,1.121060,
2.234040,1.098860,
2.242580,1.075520,
2.248840,1.051180,
2.252690,1.025960,
2.254000,1.000000,
0*%
%ADD43PPAD037*%
%AMPPAD038*
4,1,36,
0.889000,-1.016000,
-0.889000,-1.016000,
-0.914590,-1.013420,
-0.938430,-1.006020,
-0.960000,-0.994310,
-0.978800,-0.978800,
-0.994310,-0.960000,
-1.006020,-0.938430,
-1.013420,-0.914590,
-1.016000,-0.889000,
-1.016000,0.889000,
-1.013420,0.914590,
-1.006020,0.938430,
-0.994310,0.960000,
-0.978800,0.978800,
-0.960000,0.994310,
-0.938430,1.006020,
-0.914590,1.013420,
-0.889000,1.016000,
0.889000,1.016000,
0.914590,1.013420,
0.938430,1.006020,
0.960000,0.994310,
0.978800,0.978800,
0.994310,0.960000,
1.006020,0.938430,
1.013420,0.914590,
1.016000,0.889000,
1.016000,-0.889000,
1.013420,-0.914590,
1.006020,-0.938430,
0.994310,-0.960000,
0.978800,-0.978800,
0.960000,-0.994310,
0.938430,-1.006020,
0.914590,-1.013420,
0.889000,-1.016000,
0*%
%TA.AperFunction,Material*%
%ADD44PPAD038*%
%ADD45C,2.032000*%
%TA.AperFunction,Material*%
%ADD46C,1.854000*%
%TA.AperFunction,Material*%
%ADD47C,2.454000*%
%AMPPAD042*
4,1,68,
1.016000,0.444500,
1.016000,-0.444500,
1.014690,-0.470460,
1.010840,-0.495680,
1.004580,-0.520020,
0.996040,-0.543360,
0.985340,-0.565560,
0.972610,-0.586500,
0.957990,-0.606050,
0.941590,-0.624090,
0.923550,-0.640490,
0.904000,-0.655110,
0.883060,-0.667830,
0.860860,-0.678530,
0.837520,-0.687080,
0.813180,-0.693340,
0.787970,-0.697190,
0.762000,-0.698500,
-0.762000,-0.698500,
-0.787970,-0.697190,
-0.813180,-0.693340,
-0.837520,-0.687080,
-0.860860,-0.678530,
-0.883060,-0.667830,
-0.904000,-0.655110,
-0.923550,-0.640490,
-0.941590,-0.624090,
-0.957990,-0.606050,
-0.972610,-0.586500,
-0.985340,-0.565560,
-0.996040,-0.543360,
-1.004580,-0.520020,
-1.010840,-0.495680,
-1.014690,-0.470460,
-1.016000,-0.444500,
-1.016000,0.444500,
-1.014690,0.470460,
-1.010840,0.495680,
-1.004580,0.520020,
-0.996040,0.543360,
-0.985340,0.565560,
-0.972610,0.586500,
-0.957990,0.606050,
-0.941590,0.624090,
-0.923550,0.640490,
-0.904000,0.655110,
-0.883060,0.667830,
-0.860860,0.678530,
-0.837520,0.687080,
-0.813180,0.693340,
-0.787970,0.697190,
-0.762000,0.698500,
0.762000,0.698500,
0.787970,0.697190,
0.813180,0.693340,
0.837520,0.687080,
0.860860,0.678530,
0.883060,0.667830,
0.904000,0.655110,
0.923550,0.640490,
0.941590,0.624090,
0.957990,0.606050,
0.972610,0.586500,
0.985340,0.565560,
0.996040,0.543360,
1.004580,0.520020,
1.010840,0.495680,
1.014690,0.470460,
1.016000,0.444500,
0*%
%TA.AperFunction,Material*%
%ADD48PPAD042*%
%AMPPAD043*
4,1,36,
-0.762000,-0.508000,
-0.762000,0.508000,
-0.759420,0.533590,
-0.752020,0.557430,
-0.740310,0.579000,
-0.724800,0.597800,
-0.706000,0.613310,
-0.684430,0.625020,
-0.660590,0.632420,
-0.635000,0.635000,
0.635000,0.635000,
0.660590,0.632420,
0.684430,0.625020,
0.706000,0.613310,
0.724800,0.597800,
0.740310,0.579000,
0.752020,0.557430,
0.759420,0.533590,
0.762000,0.508000,
0.762000,-0.508000,
0.759420,-0.533590,
0.752020,-0.557430,
0.740310,-0.579000,
0.724800,-0.597800,
0.706000,-0.613310,
0.684430,-0.625020,
0.660590,-0.632420,
0.635000,-0.635000,
-0.635000,-0.635000,
-0.660590,-0.632420,
-0.684430,-0.625020,
-0.706000,-0.613310,
-0.724800,-0.597800,
-0.740310,-0.579000,
-0.752020,-0.557430,
-0.759420,-0.533590,
-0.762000,-0.508000,
0*%
%ADD49PPAD043*%
%TA.AperFunction,Material*%
%ADD50C,2.286000*%
%AMPPAD045*
4,1,4,
-0.300520,-0.300520,
-0.300520,0.300520,
0.300520,0.300520,
0.300520,-0.300520,
-0.300520,-0.300520,
0*%
%TA.AperFunction,Material*%
%ADD51PPAD045*%
%ADD52C,0.850000*%
%AMPPAD047*
4,1,36,
-0.444500,-0.254000,
-0.444500,0.254000,
-0.441920,0.279590,
-0.434520,0.303430,
-0.422810,0.325000,
-0.407300,0.343800,
-0.388500,0.359310,
-0.366930,0.371020,
-0.343090,0.378420,
-0.317500,0.381000,
0.317500,0.381000,
0.343090,0.378420,
0.366930,0.371020,
0.388500,0.359310,
0.407300,0.343800,
0.422810,0.325000,
0.434520,0.303430,
0.441920,0.279590,
0.444500,0.254000,
0.444500,-0.254000,
0.441920,-0.279590,
0.434520,-0.303430,
0.422810,-0.325000,
0.407300,-0.343800,
0.388500,-0.359310,
0.366930,-0.371020,
0.343090,-0.378420,
0.317500,-0.381000,
-0.317500,-0.381000,
-0.343090,-0.378420,
-0.366930,-0.371020,
-0.388500,-0.359310,
-0.407300,-0.343800,
-0.422810,-0.325000,
-0.434520,-0.303430,
-0.441920,-0.279590,
-0.444500,-0.254000,
0*%
%TA.AperFunction,Material*%
%ADD53PPAD047*%
%AMPPAD048*
4,1,36,
0.317500,-1.143000,
-0.317500,-1.143000,
-0.343090,-1.140420,
-0.366930,-1.133020,
-0.388500,-1.121310,
-0.407300,-1.105800,
-0.422810,-1.087000,
-0.434520,-1.065430,
-0.441920,-1.041590,
-0.444500,-1.016000,
-0.444500,1.016000,
-0.441920,1.041590,
-0.434520,1.065430,
-0.422810,1.087000,
-0.407300,1.105800,
-0.388500,1.121310,
-0.366930,1.133020,
-0.343090,1.140420,
-0.317500,1.143000,
0.317500,1.143000,
0.343090,1.140420,
0.366930,1.133020,
0.388500,1.121310,
0.407300,1.105800,
0.422810,1.087000,
0.434520,1.065430,
0.441920,1.041590,
0.444500,1.016000,
0.444500,-1.016000,
0.441920,-1.041590,
0.434520,-1.065430,
0.422810,-1.087000,
0.407300,-1.105800,
0.388500,-1.121310,
0.366930,-1.133020,
0.343090,-1.140420,
0.317500,-1.143000,
0*%
%TA.AperFunction,Material*%
%ADD54PPAD048*%
%AMPPAD049*
4,1,36,
-0.508000,0.762000,
0.508000,0.762000,
0.533590,0.759420,
0.557430,0.752020,
0.579000,0.740310,
0.597800,0.724800,
0.613310,0.706000,
0.625020,0.684430,
0.632420,0.660590,
0.635000,0.635000,
0.635000,-0.635000,
0.632420,-0.660590,
0.625020,-0.684430,
0.613310,-0.706000,
0.597800,-0.724800,
0.579000,-0.740310,
0.557430,-0.752020,
0.533590,-0.759420,
0.508000,-0.762000,
-0.508000,-0.762000,
-0.533590,-0.759420,
-0.557430,-0.752020,
-0.579000,-0.740310,
-0.597800,-0.724800,
-0.613310,-0.706000,
-0.625020,-0.684430,
-0.632420,-0.660590,
-0.635000,-0.635000,
-0.635000,0.635000,
-0.632420,0.660590,
-0.625020,0.684430,
-0.613310,0.706000,
-0.597800,0.724800,
-0.579000,0.740310,
-0.557430,0.752020,
-0.533590,0.759420,
-0.508000,0.762000,
0*%
%TA.AperFunction,Material*%
%ADD55PPAD049*%
%AMPPAD050*
4,1,36,
1.143000,0.317500,
1.143000,-0.317500,
1.140420,-0.343090,
1.133020,-0.366930,
1.121310,-0.388500,
1.105800,-0.407300,
1.087000,-0.422810,
1.065430,-0.434520,
1.041590,-0.441920,
1.016000,-0.444500,
-1.016000,-0.444500,
-1.041590,-0.441920,
-1.065430,-0.434520,
-1.087000,-0.422810,
-1.105800,-0.407300,
-1.121310,-0.388500,
-1.133020,-0.366930,
-1.140420,-0.343090,
-1.143000,-0.317500,
-1.143000,0.317500,
-1.140420,0.343090,
-1.133020,0.366930,
-1.121310,0.388500,
-1.105800,0.407300,
-1.087000,0.422810,
-1.065430,0.434520,
-1.041590,0.441920,
-1.016000,0.444500,
1.016000,0.444500,
1.041590,0.441920,
1.065430,0.434520,
1.087000,0.422810,
1.105800,0.407300,
1.121310,0.388500,
1.133020,0.366930,
1.140420,0.343090,
1.143000,0.317500,
0*%
%TA.AperFunction,Material*%
%ADD56PPAD050*%
%AMPPAD051*
4,1,4,
0.876300,0.228600,
0.876300,-0.228600,
-0.876300,-0.228600,
-0.876300,0.228600,
0.876300,0.228600,
0*%
%TA.AperFunction,Material*%
%ADD57PPAD051*%
%AMPPAD052*
4,1,4,
-0.393700,0.495300,
0.393700,0.495300,
0.393700,-0.495300,
-0.393700,-0.495300,
-0.393700,0.495300,
0*%
%TA.AperFunction,Material*%
%ADD58PPAD052*%
%AMPPAD053*
4,1,68,
0.444500,-1.016000,
-0.444500,-1.016000,
-0.470460,-1.014690,
-0.495680,-1.010840,
-0.520020,-1.004580,
-0.543360,-0.996040,
-0.565560,-0.985340,
-0.586500,-0.972610,
-0.606050,-0.957990,
-0.624090,-0.941590,
-0.640490,-0.923550,
-0.655110,-0.904000,
-0.667830,-0.883060,
-0.678530,-0.860860,
-0.687080,-0.837520,
-0.693340,-0.813180,
-0.697190,-0.787970,
-0.698500,-0.762000,
-0.698500,0.762000,
-0.697190,0.787970,
-0.693340,0.813180,
-0.687080,0.837520,
-0.678530,0.860860,
-0.667830,0.883060,
-0.655110,0.904000,
-0.640490,0.923550,
-0.624090,0.941590,
-0.606050,0.957990,
-0.586500,0.972610,
-0.565560,0.985340,
-0.543360,0.996040,
-0.520020,1.004580,
-0.495680,1.010840,
-0.470460,1.014690,
-0.444500,1.016000,
0.444500,1.016000,
0.470460,1.014690,
0.495680,1.010840,
0.520020,1.004580,
0.543360,0.996040,
0.565560,0.985340,
0.586500,0.972610,
0.606050,0.957990,
0.624090,0.941590,
0.640490,0.923550,
0.655110,0.904000,
0.667830,0.883060,
0.678530,0.860860,
0.687080,0.837520,
0.693340,0.813180,
0.697190,0.787970,
0.698500,0.762000,
0.698500,-0.762000,
0.697190,-0.787970,
0.693340,-0.813180,
0.687080,-0.837520,
0.678530,-0.860860,
0.667830,-0.883060,
0.655110,-0.904000,
0.640490,-0.923550,
0.624090,-0.941590,
0.606050,-0.957990,
0.586500,-0.972610,
0.565560,-0.985340,
0.543360,-0.996040,
0.520020,-1.004580,
0.495680,-1.010840,
0.470460,-1.014690,
0.444500,-1.016000,
0*%
%ADD59PPAD053*%
%AMPPAD054*
4,1,4,
0.675000,0.200000,
0.675000,-0.200000,
-0.675000,-0.200000,
-0.675000,0.200000,
0.675000,0.200000,
0*%
%TA.AperFunction,Material*%
%ADD60PPAD054*%
%ADD61C,1.950000*%
%AMPPAD056*
4,1,4,
0.700000,0.800000,
0.700000,-0.800000,
-0.700000,-0.800000,
-0.700000,0.800000,
0.700000,0.800000,
0*%
%ADD62PPAD056*%
%TA.AperFunction,Profile*%
%ADD30C,0.101600*%
%TD.AperFunction*%
D40*
X+5768500Y+2540000D03*
X+5197000Y+3111500D03*
X+4943000Y+2286000D03*
X+4868043Y+2468485D03*
X+5070000Y+2413000D03*
X+1522238Y+571141D03*
X+1641920Y+2213177D03*
X+4435000Y+2730500D03*
X+5705000Y+3619500D03*
X+4625500Y+3619500D03*
X+5705000Y+3302000D03*
X+498000Y+4381500D03*
X+688500Y+3048000D03*
X+625000Y+3429000D03*
X+5260500Y+2286000D03*
X+7229000Y+2794000D03*
X+3408734Y+1813914D03*
X+3276155Y+899461D03*
X+5324000Y+2921000D03*
X+840000Y+2600000D03*
X+873056Y+3605407D03*
X+980016Y+2680931D03*
X+941637Y+3787630D03*
X+1464798Y+4278478D03*
X+3030000Y+3670000D03*
X+3590000Y+2403014D03*
X+3295895Y+2953362D03*
X+3893140Y+3033656D03*
X+3817219Y+2150000D03*
X+5273706Y+1920057D03*
X+5324000Y+3238500D03*
X+4308000Y+3429000D03*
X+2984249Y+3379281D03*
X+4143578Y+3462509D03*
D41*
X+670000Y+3870000D03*
X+670000Y+3790000D03*
X+670000Y+3710000D03*
X+670000Y+3630000D03*
X+670000Y+3550000D03*
D42*
X+680000Y+3220000D03*
D43*
X+250000Y+3220000D03*
X+250000Y+4210000D03*
D42*
X+680000Y+4210000D03*
D44*
X+7370000Y+4820000D03*
D45*
X+7116000Y+4820000D03*
X+6862000Y+4820000D03*
X+6608000Y+4820000D03*
X+6354000Y+4820000D03*
X+6100000Y+4820000D03*
X+5846000Y+4820000D03*
X+5592000Y+4820000D03*
X+5338000Y+4820000D03*
X+5084000Y+4820000D03*
X+4830000Y+4820000D03*
X+4576000Y+4820000D03*
X+4322000Y+4820000D03*
X+4068000Y+4820000D03*
X+3814000Y+4820000D03*
X+3560000Y+4820000D03*
X+3306000Y+4820000D03*
X+3052000Y+4820000D03*
X+2798000Y+4820000D03*
X+2544000Y+4820000D03*
X+2544000Y+4566000D03*
X+2798000Y+4566000D03*
X+3052000Y+4566000D03*
X+3306000Y+4566000D03*
X+3560000Y+4566000D03*
X+3814000Y+4566000D03*
X+4068000Y+4566000D03*
X+4322000Y+4566000D03*
X+4576000Y+4566000D03*
X+4830000Y+4566000D03*
X+5084000Y+4566000D03*
X+5338000Y+4566000D03*
X+5592000Y+4566000D03*
X+5846000Y+4566000D03*
X+6100000Y+4566000D03*
X+6354000Y+4566000D03*
X+6608000Y+4566000D03*
X+6862000Y+4566000D03*
X+7116000Y+4566000D03*
X+7370000Y+4566000D03*
D44*
X+7380000Y+470000D03*
D45*
X+7126000Y+470000D03*
X+6872000Y+470000D03*
X+6618000Y+470000D03*
X+6364000Y+470000D03*
X+6110000Y+470000D03*
X+5856000Y+470000D03*
X+5602000Y+470000D03*
X+5348000Y+470000D03*
X+5094000Y+470000D03*
X+4840000Y+470000D03*
X+4586000Y+470000D03*
X+4332000Y+470000D03*
X+4078000Y+470000D03*
X+3824000Y+470000D03*
X+3570000Y+470000D03*
X+3316000Y+470000D03*
X+3062000Y+470000D03*
X+2808000Y+470000D03*
X+2554000Y+470000D03*
X+2554000Y+216000D03*
X+2808000Y+216000D03*
X+3062000Y+216000D03*
X+3316000Y+216000D03*
X+3570000Y+216000D03*
X+3824000Y+216000D03*
X+4078000Y+216000D03*
X+4332000Y+216000D03*
X+4586000Y+216000D03*
X+4840000Y+216000D03*
X+5094000Y+216000D03*
X+5348000Y+216000D03*
X+5602000Y+216000D03*
X+5856000Y+216000D03*
X+6110000Y+216000D03*
X+6364000Y+216000D03*
X+6618000Y+216000D03*
X+6872000Y+216000D03*
X+7126000Y+216000D03*
X+7380000Y+216000D03*
D46*
X+7090000Y+3920000D03*
X+6600000Y+3920000D03*
X+1120000Y+270000D03*
X+1320000Y+270000D03*
X+1520000Y+270000D03*
D47*
X+1730000Y+270000D03*
X+910000Y+270000D03*
D48*
X+120000Y+970000D03*
X+120000Y+630000D03*
D49*
X+390000Y+850000D03*
X+390000Y+1063360D03*
X+920000Y+620000D03*
X+920000Y+833360D03*
D50*
X+770000Y+1120000D03*
D51*
X+420000Y+1870000D03*
D52*
X+420000Y+1745000D03*
X+420000Y+1620000D03*
D50*
X+770000Y+2120000D03*
D53*
X+1641920Y+1873480D03*
X+1641920Y+1967460D03*
X+1641920Y+2063980D03*
X+1403160Y+2063980D03*
X+1403160Y+1873480D03*
D49*
X+1820000Y+2070000D03*
X+1820000Y+1856640D03*
X+2570000Y+1420000D03*
X+2570000Y+1633360D03*
D54*
X+2729500Y+1259650D03*
X+2856500Y+1259650D03*
X+2983500Y+1259650D03*
X+3110500Y+1259650D03*
X+3110500Y+1780350D03*
X+2983500Y+1780350D03*
X+2856500Y+1780350D03*
X+2729500Y+1780350D03*
D55*
X+2870000Y+2070000D03*
X+3083360Y+2070000D03*
D49*
X+3520000Y+1620000D03*
X+3520000Y+1406640D03*
D55*
X+3070000Y+2270000D03*
X+2856640Y+2270000D03*
D49*
X+3820000Y+1620000D03*
X+3820000Y+1406640D03*
D50*
X+2970000Y+770000D03*
X+4270000Y+1370000D03*
X+4270000Y+1770000D03*
X+4090000Y+760000D03*
X+4590000Y+750000D03*
X+4870000Y+770000D03*
X+5170000Y+770000D03*
X+5620000Y+770000D03*
X+5920000Y+770000D03*
X+6220000Y+770000D03*
X+6620000Y+770000D03*
X+6920000Y+770000D03*
X+7220000Y+770000D03*
D56*
X+5527200Y+2348500D03*
X+5527200Y+2475500D03*
X+5527200Y+2602500D03*
X+5527200Y+2729500D03*
X+5527200Y+2856500D03*
X+5527200Y+2983500D03*
X+5527200Y+3110500D03*
X+5527200Y+3237500D03*
X+5527200Y+3364500D03*
X+5527200Y+3491500D03*
X+4612800Y+3491500D03*
X+4612800Y+3364500D03*
X+4612800Y+3237500D03*
X+4612800Y+3110500D03*
X+4612800Y+2983500D03*
X+4612800Y+2856500D03*
X+4612800Y+2729500D03*
X+4612800Y+2602500D03*
X+4612800Y+2475500D03*
X+4612800Y+2348500D03*
D49*
X+5870000Y+3920000D03*
X+5870000Y+3706640D03*
D55*
X+5870000Y+3120000D03*
X+6083360Y+3120000D03*
D49*
X+4270000Y+3920000D03*
X+4270000Y+3706640D03*
D55*
X+4170000Y+2870000D03*
X+4383360Y+2870000D03*
D50*
X+4070000Y+3220000D03*
X+4070000Y+2520000D03*
D55*
X+4030000Y+2150000D03*
X+4243360Y+2150000D03*
D57*
X+2770000Y+3030000D03*
X+2770000Y+3095000D03*
X+2770000Y+3160000D03*
X+2770000Y+3225000D03*
X+2770000Y+3290000D03*
X+2770000Y+3355000D03*
X+2770000Y+3420000D03*
X+2770000Y+3485000D03*
X+2770000Y+3550000D03*
X+2770000Y+3615000D03*
X+2770000Y+3680000D03*
X+2770000Y+3745000D03*
X+2770000Y+3810000D03*
X+2770000Y+3875000D03*
X+2050000Y+3875000D03*
X+2050000Y+3810000D03*
X+2050000Y+3745000D03*
X+2050000Y+3680000D03*
X+2050000Y+3615000D03*
X+2050000Y+3550000D03*
X+2050000Y+3485000D03*
X+2050000Y+3420000D03*
X+2050000Y+3355000D03*
X+2050000Y+3290000D03*
X+2050000Y+3225000D03*
X+2050000Y+3160000D03*
X+2050000Y+3095000D03*
X+2050000Y+3030000D03*
D58*
X+1070000Y+3870000D03*
X+1240000Y+3870000D03*
D49*
X+1070000Y+3570000D03*
X+1070000Y+3356640D03*
X+1420000Y+3340000D03*
X+1420000Y+3553360D03*
X+1610000Y+3710000D03*
X+1610000Y+3923360D03*
D59*
X+9370000Y+2720000D03*
X+9030000Y+2720000D03*
X+9370000Y+3020000D03*
X+9030000Y+3020000D03*
D55*
X+9570000Y+3020000D03*
X+9783360Y+3020000D03*
X+9570000Y+2720000D03*
X+9783360Y+2720000D03*
D50*
X+1370000Y+4820000D03*
X+1370000Y+4520000D03*
X+970000Y+4770000D03*
X+620000Y+4770000D03*
D55*
X+3170000Y+3070000D03*
X+3383360Y+3070000D03*
X+3170000Y+3370000D03*
X+3383360Y+3370000D03*
D49*
X+3670000Y+3370000D03*
X+3670000Y+3583360D03*
X+3570000Y+3070000D03*
X+3570000Y+2856640D03*
D60*
X+540000Y+2750000D03*
X+540000Y+2685000D03*
X+540000Y+2620000D03*
X+540000Y+2555000D03*
X+540000Y+2490000D03*
D61*
X+272000Y+2950000D03*
X+272000Y+2290000D03*
D62*
X+518000Y+2940000D03*
X+272000Y+2740000D03*
X+272000Y+2500000D03*
X+518000Y+2300000D03*
D49*
X+1750000Y+3350000D03*
X+1750000Y+3563360D03*
X+1100000Y+2050000D03*
X+1100000Y+1836640D03*
X+1250000Y+1950000D03*
X+1250000Y+1736640D03*
D30*
X-14000Y+13000D02*
X+9986000Y+13000D01*
X+9986000Y+5013000D01*
X-14000Y+5013000D01*
X-14000Y+13000D01*
X+9836000Y+4713000D02*
X+9835498Y+4725258D01*
X+9831422Y+4749775D01*
X+9822906Y+4774292D01*
X+9809032Y+4798809D01*
X+9787806Y+4823161D01*
X+9763289Y+4841555D01*
X+9738772Y+4853411D01*
X+9714255Y+4860315D01*
X+9689738Y+4862953D01*
X+9686000Y+4863000D01*
X+9536000Y+4713000D02*
X+9536502Y+4725258D01*
X+9540578Y+4749775D01*
X+9549094Y+4774292D01*
X+9562968Y+4798809D01*
X+9584194Y+4823161D01*
X+9608711Y+4841555D01*
X+9633228Y+4853411D01*
X+9657745Y+4860315D01*
X+9682262Y+4862953D01*
X+9686000Y+4863000D01*
X+9536000Y+4713000D02*
X+9536502Y+4700742D01*
X+9540578Y+4676225D01*
X+9549094Y+4651708D01*
X+9562968Y+4627191D01*
X+9584194Y+4602839D01*
X+9608711Y+4584445D01*
X+9633228Y+4572589D01*
X+9657745Y+4565685D01*
X+9682262Y+4563047D01*
X+9686000Y+4563000D01*
X+9836000Y+4713000D02*
X+9835498Y+4700742D01*
X+9831422Y+4676225D01*
X+9822906Y+4651708D01*
X+9809032Y+4627191D01*
X+9787806Y+4602839D01*
X+9763289Y+4584445D01*
X+9738772Y+4572589D01*
X+9714255Y+4565685D01*
X+9689738Y+4563047D01*
X+9686000Y+4563000D01*
X+9836000Y+313000D02*
X+9835498Y+325258D01*
X+9831422Y+349775D01*
X+9822906Y+374292D01*
X+9809032Y+398809D01*
X+9787806Y+423161D01*
X+9763289Y+441555D01*
X+9738772Y+453411D01*
X+9714255Y+460315D01*
X+9689738Y+462953D01*
X+9686000Y+463000D01*
X+9536000Y+313000D02*
X+9536502Y+325258D01*
X+9540578Y+349775D01*
X+9549094Y+374292D01*
X+9562968Y+398809D01*
X+9584194Y+423161D01*
X+9608711Y+441555D01*
X+9633228Y+453411D01*
X+9657745Y+460315D01*
X+9682262Y+462953D01*
X+9686000Y+463000D01*
X+9536000Y+313000D02*
X+9536502Y+300742D01*
X+9540578Y+276225D01*
X+9549094Y+251708D01*
X+9562968Y+227191D01*
X+9584194Y+202839D01*
X+9608711Y+184445D01*
X+9633228Y+172589D01*
X+9657745Y+165685D01*
X+9682262Y+163047D01*
X+9686000Y+163000D01*
X+9836000Y+313000D02*
X+9835498Y+300742D01*
X+9831422Y+276225D01*
X+9822906Y+251708D01*
X+9809032Y+227191D01*
X+9787806Y+202839D01*
X+9763289Y+184445D01*
X+9738772Y+172589D01*
X+9714255Y+165685D01*
X+9689738Y+163047D01*
X+9686000Y+163000D01*
X+436000Y+313000D02*
X+435498Y+325258D01*
X+431422Y+349775D01*
X+422906Y+374292D01*
X+409032Y+398809D01*
X+387806Y+423161D01*
X+363289Y+441555D01*
X+338772Y+453411D01*
X+314255Y+460315D01*
X+289738Y+462953D01*
X+286000Y+463000D01*
X+136000Y+313000D02*
X+136502Y+325258D01*
X+140578Y+349775D01*
X+149094Y+374292D01*
X+162968Y+398809D01*
X+184194Y+423161D01*
X+208711Y+441555D01*
X+233228Y+453411D01*
X+257745Y+460315D01*
X+282262Y+462953D01*
X+286000Y+463000D01*
X+136000Y+313000D02*
X+136502Y+300742D01*
X+140578Y+276225D01*
X+149094Y+251708D01*
X+162968Y+227191D01*
X+184194Y+202839D01*
X+208711Y+184445D01*
X+233228Y+172589D01*
X+257745Y+165685D01*
X+282262Y+163047D01*
X+286000Y+163000D01*
X+436000Y+313000D02*
X+435498Y+300742D01*
X+431422Y+276225D01*
X+422906Y+251708D01*
X+409032Y+227191D01*
X+387806Y+202839D01*
X+363289Y+184445D01*
X+338772Y+172589D01*
X+314255Y+165685D01*
X+289738Y+163047D01*
X+286000Y+163000D01*
X+436000Y+4713000D02*
X+435498Y+4725258D01*
X+431422Y+4749775D01*
X+422906Y+4774292D01*
X+409032Y+4798809D01*
X+387806Y+4823161D01*
X+363289Y+4841555D01*
X+338772Y+4853411D01*
X+314255Y+4860315D01*
X+289738Y+4862953D01*
X+286000Y+4863000D01*
X+136000Y+4713000D02*
X+136502Y+4725258D01*
X+140578Y+4749775D01*
X+149094Y+4774292D01*
X+162968Y+4798809D01*
X+184194Y+4823161D01*
X+208711Y+4841555D01*
X+233228Y+4853411D01*
X+257745Y+4860315D01*
X+282262Y+4862953D01*
X+286000Y+4863000D01*
X+136000Y+4713000D02*
X+136502Y+4700742D01*
X+140578Y+4676225D01*
X+149094Y+4651708D01*
X+162968Y+4627191D01*
X+184194Y+4602839D01*
X+208711Y+4584445D01*
X+233228Y+4572589D01*
X+257745Y+4565685D01*
X+282262Y+4563047D01*
X+286000Y+4563000D01*
X+436000Y+4713000D02*
X+435498Y+4700742D01*
X+431422Y+4676225D01*
X+422906Y+4651708D01*
X+409032Y+4627191D01*
X+387806Y+4602839D01*
X+363289Y+4584445D01*
X+338772Y+4572589D01*
X+314255Y+4565685D01*
X+289738Y+4563047D01*
X+286000Y+4563000D01*
M02*
