G04 PROTEUS GERBER X2 FILE*
%TF.GenerationSoftware,Labcenter,Proteus,8.16-SP3-Build36097*%
%TF.CreationDate,2025-11-07T09:36:06+00:00*%
%TF.FileFunction,Plated,1,2,PTH*%
%TF.FilePolarity,Positive*%
%TF.Part,Single*%
%TF.SameCoordinates,{7cfba198-d274-4d3b-beed-790fb78b42e9}*%
%FSLAX45Y45*%
%MOMM*%
G01*
%TA.AperFunction,ViaDrill*%
%ADD110C,0.381000*%
%TA.AperFunction,ComponentDrill*%
%ADD111C,0.762000*%
%ADD112C,1.016000*%
%TA.AperFunction,ComponentDrill*%
%ADD113C,0.430000*%
%TA.AperFunction,ComponentDrill*%
%ADD114C,0.800000*%
%ADD115C,1.500000*%
%TA.AperFunction,ComponentDrill*%
%ADD116C,0.500000*%
%TA.AperFunction,ComponentDrill*%
%ADD117C,1.300000*%
%TD.AperFunction*%
D110*
X+5768500Y+2540000D03*
X+5197000Y+3111500D03*
X+4943000Y+2286000D03*
X+4868043Y+2468485D03*
X+5070000Y+2413000D03*
X+1522238Y+571141D03*
X+1641920Y+2213177D03*
X+4435000Y+2730500D03*
X+5705000Y+3619500D03*
X+4625500Y+3619500D03*
X+5705000Y+3302000D03*
X+498000Y+4381500D03*
X+688500Y+3048000D03*
X+625000Y+3429000D03*
X+5260500Y+2286000D03*
X+7229000Y+2794000D03*
X+3408734Y+1813914D03*
X+3276155Y+899461D03*
X+5324000Y+2921000D03*
X+840000Y+2600000D03*
X+873056Y+3605407D03*
X+980016Y+2680931D03*
X+941637Y+3787630D03*
X+1464798Y+4278478D03*
X+3030000Y+3670000D03*
X+3590000Y+2403014D03*
X+3295895Y+2953362D03*
X+3893140Y+3033656D03*
X+3817219Y+2150000D03*
X+5273706Y+1920057D03*
X+5324000Y+3238500D03*
X+4308000Y+3429000D03*
X+2984249Y+3379281D03*
X+4143578Y+3462509D03*
D111*
X+7370000Y+4820000D03*
D112*
X+7116000Y+4820000D03*
X+6862000Y+4820000D03*
X+6608000Y+4820000D03*
X+6354000Y+4820000D03*
X+6100000Y+4820000D03*
X+5846000Y+4820000D03*
X+5592000Y+4820000D03*
X+5338000Y+4820000D03*
X+5084000Y+4820000D03*
X+4830000Y+4820000D03*
X+4576000Y+4820000D03*
X+4322000Y+4820000D03*
X+4068000Y+4820000D03*
X+3814000Y+4820000D03*
X+3560000Y+4820000D03*
X+3306000Y+4820000D03*
X+3052000Y+4820000D03*
X+2798000Y+4820000D03*
X+2544000Y+4820000D03*
X+2544000Y+4566000D03*
X+2798000Y+4566000D03*
X+3052000Y+4566000D03*
X+3306000Y+4566000D03*
X+3560000Y+4566000D03*
X+3814000Y+4566000D03*
X+4068000Y+4566000D03*
X+4322000Y+4566000D03*
X+4576000Y+4566000D03*
X+4830000Y+4566000D03*
X+5084000Y+4566000D03*
X+5338000Y+4566000D03*
X+5592000Y+4566000D03*
X+5846000Y+4566000D03*
X+6100000Y+4566000D03*
X+6354000Y+4566000D03*
X+6608000Y+4566000D03*
X+6862000Y+4566000D03*
X+7116000Y+4566000D03*
X+7370000Y+4566000D03*
D111*
X+7380000Y+470000D03*
D112*
X+7126000Y+470000D03*
X+6872000Y+470000D03*
X+6618000Y+470000D03*
X+6364000Y+470000D03*
X+6110000Y+470000D03*
X+5856000Y+470000D03*
X+5602000Y+470000D03*
X+5348000Y+470000D03*
X+5094000Y+470000D03*
X+4840000Y+470000D03*
X+4586000Y+470000D03*
X+4332000Y+470000D03*
X+4078000Y+470000D03*
X+3824000Y+470000D03*
X+3570000Y+470000D03*
X+3316000Y+470000D03*
X+3062000Y+470000D03*
X+2808000Y+470000D03*
X+2554000Y+470000D03*
X+2554000Y+216000D03*
X+2808000Y+216000D03*
X+3062000Y+216000D03*
X+3316000Y+216000D03*
X+3570000Y+216000D03*
X+3824000Y+216000D03*
X+4078000Y+216000D03*
X+4332000Y+216000D03*
X+4586000Y+216000D03*
X+4840000Y+216000D03*
X+5094000Y+216000D03*
X+5348000Y+216000D03*
X+5602000Y+216000D03*
X+5856000Y+216000D03*
X+6110000Y+216000D03*
X+6364000Y+216000D03*
X+6618000Y+216000D03*
X+6872000Y+216000D03*
X+7126000Y+216000D03*
X+7380000Y+216000D03*
D113*
X+7090000Y+3920000D03*
X+6600000Y+3920000D03*
D114*
X+1120000Y+270000D03*
X+1320000Y+270000D03*
X+1520000Y+270000D03*
D115*
X+1730000Y+270000D03*
X+910000Y+270000D03*
D111*
X+770000Y+1120000D03*
D116*
X+420000Y+1870000D03*
X+420000Y+1745000D03*
X+420000Y+1620000D03*
D111*
X+770000Y+2120000D03*
X+2970000Y+770000D03*
X+4270000Y+1370000D03*
X+4270000Y+1770000D03*
X+4090000Y+760000D03*
X+4590000Y+750000D03*
X+4870000Y+770000D03*
X+5170000Y+770000D03*
X+5620000Y+770000D03*
X+5920000Y+770000D03*
X+6220000Y+770000D03*
X+6620000Y+770000D03*
X+6920000Y+770000D03*
X+7220000Y+770000D03*
X+4070000Y+3220000D03*
X+4070000Y+2520000D03*
X+1370000Y+4820000D03*
X+1370000Y+4520000D03*
X+970000Y+4770000D03*
X+620000Y+4770000D03*
D117*
X+272000Y+2950000D03*
X+272000Y+2290000D03*
M02*
